<?xml version="1.0" encoding="UTF-8"?>
<svg id="Layer_1" data-name="Layer 1" xmlns="http://www.w3.org/2000/svg" viewBox="0 0 202.41 193.66">
  <defs>
    <style>
      .cls-1 {
        fill: #207f76;
      }

      .cls-2 {
        fill: #4ba396;
      }

      .cls-3 {
        fill: #04514b;
      }

      .cls-4 {
        fill: #0f726b;
      }
    </style>
  </defs>
  <path class="cls-2" d="M102.81,186.2c-50.38,0-91.36-40.99-91.36-91.36S52.43,3.48,102.81,3.48s91.36,40.99,91.36,91.36-40.99,91.36-91.36,91.36Zm0-175.27C56.54,10.93,18.9,48.57,18.9,94.84s37.64,83.91,83.91,83.91,83.91-37.64,83.91-83.91S149.08,10.93,102.81,10.93Z"/>
  <path class="cls-2" d="M71.64,60.77c-16.24,4.63-24.36,26.08-18.14,47.93,6.22,21.84,24.43,35.8,40.67,31.17l7.52-21.9-5.62-21.4-24.42-35.8h0Z"/>
  <path class="cls-1" d="M112.31,91.95c6.22,21.84-1.9,43.3-18.15,47.93,1.17-45.94-26.64-41.97-22.53-79.1,16.24-4.63,34.45,9.33,40.68,31.17Z"/>
  <path class="cls-4" d="M145.08,57.86l-14.66,36.58-10.78,12.17c.18-4.3-.12-8.84-1.03-13.45-.3-1.27-.67-2.6-1.03-3.94-2.85-9.99-8.24-18.35-14.78-24.04,13.2-13.08,31.37-16.47,42.27-7.33Z"/>
  <path class="cls-3" d="M142.18,104.31c-7.15,8.48-16.41,13.75-25.19,15.26,1.51-3.94,2.42-8.3,2.66-12.96,.18-4.3-.12-8.84-1.03-13.45,7.27-13.2,6.6-24.95,26.47-35.31,11.69,9.93,10.42,30.7-2.91,46.45Z"/>
</svg>