<?xml version="1.0" encoding="UTF-8"?>
<svg id="Layer_2" data-name="Layer 2" xmlns="http://www.w3.org/2000/svg" viewBox="0 0 769.41 453">
  <defs>
    <style>
      .cls-1, .cls-2, .cls-3, .cls-4, .cls-5 {
        stroke-width: 2px;
      }

      .cls-1, .cls-2, .cls-4 {
        fill: #ddd;
      }

      .cls-1, .cls-6 {
        stroke: #739b97;
      }

      .cls-1, .cls-6, .cls-3, .cls-4 {
        stroke-linecap: round;
        stroke-linejoin: round;
      }

      .cls-7 {
        opacity: .3;
      }

      .cls-7, .cls-2, .cls-8, .cls-9, .cls-5 {
        stroke-miterlimit: 10;
      }

      .cls-7, .cls-8 {
        fill: #f1a41f;
        stroke: #a26a28;
      }

      .cls-10 {
        fill: #fff;
      }

      .cls-11, .cls-3 {
        fill: #c2d4d1;
      }

      .cls-2 {
        stroke: #848484;
      }

      .cls-8 {
        opacity: .55;
        stroke-width: .5px;
      }

      .cls-12, .cls-9 {
        fill: #3d9b8f;
      }

      .cls-6 {
        fill: #ededed;
      }

      .cls-3, .cls-9, .cls-4 {
        stroke: #fff;
      }

      .cls-5 {
        fill: none;
        stroke: #ababab;
      }

      .cls-13 {
        fill: #7f7f7f;
      }
    </style>
  </defs>
  <path id="ETH3129" class="cls-3" d="M336.78,407.59l-.23-.06-.57-.28-.28-.11-12.93,.28-.51-.06-.68-.34-.34-.11h-.45l-1.25,.17-5.67,.06-.91-.23-.79-.51-1.47-1.25-.62-.45-.28-.51v-.68l.11-.74v-.74l-.51-.91-.11-.62-5.1-5.5-.96-1.59-.28-1.87,.17-7.88,.17-.51,1.47-1.81,.28-.79v-.79l-.34-.91-.74-1.42-.11-.74,.23-.91,1.02-1.47-.17-.34-2.1-.79-2.44-1.53-.96-.28-.74,.17-.68,.34-.85,.17-.96-.23-1.59-1.3-.85-.51-.68-.17-.79-.11h-.79l-.68,.11-.85,.57-1.53,1.7-.85,.57-.91,.17-.68-.34-.57-.62-1.25-1.99-.17-.34,.06-.45,.62-.85,.23-.4-.45-1.25-1.47-1.13-3.01-1.81-1.7-1.25-.4-.68-.34-2.21-.51-1.02-3.06-4.37-.4-.85-.06-.51,.28-1.36-.11-.45-.62-.62-.17-.45v-.4l.11-.45,.4-.79-.4-2.5-.28-.74-.62-.79-.74-.68-.62-.68-.74-1.87-1.3-2.33-.17-.79-.06-2.21-.23-.96-1.53-2.61-.28-.79-.34-2.16-.79-2.21-.79-3.06-.28-.17-.45-.51-.17-.68-.23-.45-2.55-1.7-.68-.23-.79-.11h-1.64l-.62-.17-.45-.34-.28-1.59-.23-.79,.51-.34-.06-.79-.17-.62-.23-.62-.34-.45-2.44-1.7-5.33-1.3-.62-.45-.23-.62-.17-.23-1.53-1.19-.62-.68-.28-.11-.28-.34-.11-1.3,.85-.34,1.08,.62,1.13,.96,.85,.62,.96,.11,.96-.28,1.87-.74,1.36-.28h1.47l1.42,.34,1.13,.74,1.02,.79,1.08,.51,1.19,.23,1.25-.06,1.19-.23,.85-.34,.79-.57,.96-.85,1.08-.85,1.08-.45,1.13-.23,1.36-.06,2.27,.11,1.02-.34,.45-.91,.74,.28,.91-.17,.79-.51,.57-.68,.62,.68,.96,.51,.96,.45,.91,.23,.96-.06,1.59-.74,.91-.17,2.16,.45,.91-.11,.28-.91-.11-.34-.34-.68-.11-.4,.06-.4,.11-.79,.11-.91,.45-1.02v-1.02l.06-.51,.74-2.61,.11-.85-.28-.74-.62-.62-2.61-1.42-.34-.45,.34-1.13-.34-.74-.74-3.35-.06-1.87,.51-1.08,.68-.51,.96-1.36,1.53-.96,.17-.74v-.85l.45-.79,.23-.11,.68,.06,.4-.11,.91-.62,.85-.62h.57l.62,.06,.79-.23h1.59l.45,.91,.23,.74,.4,.62,.96,.45,.85-.06,.79-.34,1.47-.96,.51-.23,.74-.28,1.25-.23,.28-.11,.57-.4,.79-.68,.62-.79,.28-.62-.28-.62-.57-.51-1.3-.91-.68-.74,.06-.74,.85-1.3,.57-.62,.79-.23,.91-.06,.85,.11,.85,.17,.51,.4,.28,.62,1.02,3.57,.06,.91-.28,.85-.45,.74-1.08,1.36v.68l.74,.74,2.33,1.42,1.25,.57,.57,.34,.45,.57,.91,1.87,.85,1.36,.06,.57-.23,1.02-.06,1.02,.28,.74,.62,.45,2.95,.4,1.47,.91,1.36,1.08,1.7,.85,2.27,.85,.85,.11,.28,.11,.68,.45,.51,.23,1.36,.45h1.99l.74,.11,.85,.28,2.95,1.25h.74l6.47,4.31,1.64,.74,1.7,.45,1.76,.17,1.36-.11,2.72-.45,3.01,.17,1.25-.23,1.08-.62,2.5-1.93,3.74-1.7,1.25-.79,.45,.17,.11-.17,.51-1.19,.17-1.7,.23-.79,.17-.28,1.02-3.97v-.51l-.91-2.89-.28-1.47v-3.91l.11-.68,.23-.74,.68-1.3,.17-.68-.23-1.08-1.36-1.53v-1.02l2.27-.68,1.25-.11,.96,.4,.74,1.59,.57,.4,.79,.11,.74-.17,1.08-.28,.06-.45v-.57l-.23-.68-.62-1.19-.17-.74,.06-2.78,.45-3.29-.06-.45-.34-.23-2.78-.68-.62-.28-.62-.4-.4-.51-.17-.68-.23-.34,.17-1.08,.68-1.64,.45-.74,.57-.62,.79-.4h.85l.74,.68,.51,1.02,.51,.74h.79l2.55,.34,.74,.4h.51l.57-.17,.85-.06,2.55,.57,.96-.06,7.15-1.76,5.16-.62,2.04-.51,.79,.17,.62,.4,.57,.57,.28,.51,.23,.85,.17,1.59,.57,1.42,1.36,.23,1.59-.51,1.13-.96,.34-.62,.45-2.44,.28-.62,.57-.79,.79-.91,.23-.11,.74-.23,.85-.17,.79,.06,.62,.57,2.38,1.13,.45,.74,.34,.85,.11,.85-.4,1.87,.17,.68,.45,.51,.91,.62-.62,2.55-.06,.91,.17,.91-.06,.85-.34,.79-.96-1.08-.4-.57-.34-.62-.68-3.06-.34-.79-2.21,.74,.23,.79,1.19,1.64,.28,.96,.11,.51,.4,1.36,.57,2.89-.11,.4-.34,.74-.51,1.53-1.25,2.04-1.64,2.04-.85,1.53-1.36,1.36-.34,.68-.23,.79-.68,1.42-.11,.68-.11,1.81,.4,2.84v.96l-.34,.51-.62,.28-.85,.28-.96,.4-.51,.51-.28,.57-.28,.91-.45,.79-1.02,1.19-.34,.79-.34,1.53-.4,.57-5.22,3.23-1.02,.91-.57,1.19-.28,1.3-.11,1.42,.23,.74,.62,.68,1.02,.51,1.3,.34,3.46-.74,.62-.45,1.53-1.81,.34-.57,.74-1.19,.96,.34,1.19,.74,1.47,.28,1.08,.28,1.19,.79,1.3,.51,1.25-.57,.96-.17,1.25,.96,1.13,1.81,.85,2.21-1.08,5.73,.11,1.3,.28,.45,.62,.51,.68,.4,1.3,.4,4.93,2.55,.62,.11,1.81,.17,.96,.23,.57,.51,.4,.51,1.47,.96,2.84,2.61,.62,.68,.17,.68,.23,1.7,.91,3.46v1.7l-.4,.85-.57,.68-.4,.74,.11,.91,.62,1.64,.34,.74,.57,.62-3.74,.51-1.64-.11-1.81-1.59v-.28l-.23-.85-.74-1.13-1.08-1.99-.91-1.08-.17-.34-2.89-1.36-.28-.34-.51-.96-1.36,.17h-1.02l-.28-.06-2.84-.85-1.53-.28-1.53-.06-1.87,.34-1.36,.74-.74,1.3-.23,1.87,.45,3.23-.11,1.13-.4,.57-.68,.4-.85,.62-.45,.68-.45,1.53-1.3,2.33-.45,.68-.68,.62-.11,.28,.23,.4,1.02,1.02,2.21,1.25,.4,.4-.11,.45-2.72,1.81-.79,.17h-.79l-.79,.17-.85-.11-.74-.96-4.65-8.17-.17-.79,.06-1.02,.28-.85h.57l.79,.4,.85,.11,.79-.28,.62-.85,.11-.91-.68-1.47,.06-.79,.62-1.42,.4-.57,2.44-.91,.96-1.36-.06-1.59-1.36-1.25-.68-.17-.74,.06-.79,.11-.79,.23-.45-.06-.96-1.13-.68-.62-1.59-.96-.4-.17-.74-.4-.51-.62-.62-.57-.79-.11-.96,.34-.45,.06-1.25-.06-.17-.11-.85-.74-.68,.06-.62,.57-1.76,2.5-.74,1.64,.11,1.59,1.25,1.47,.74,1.42-.17,1.99-.62,1.99-.74,1.42-1.02,1.53-.4,.79-.06,.91,.4,2.78-.06,.96,.28,.57,.85,.23,1.25,.28,3.8,1.59,.79,.4,.34,.62,.23,.96,.74,1.59,.34,1.81,.4,.79,.62,.62,.91,.28,.68,.45,.28,.91-.17,.96-.57,.57-2.38,1.25-1.81,.34-.62,.45-.28,.68,.57,2.61v1.99l-.34,1.93-.68,1.64-.51,.91-.28,.74-.06,.79,.23,1.81-.06,.85-.23,.74-.57,.51-.91,.06-.79-.45-.68-.62-.68-.45-1.81-.51-1.81-.74-.85-.17-.79,.17-.62,.45-.45,.68-.51,.51-.91,.4-1.7,.62-3.69,1.99-1.99,.79-1.99,.11-.91-.34-1.59-.91-.96-.28-1.13-.11-.62,.06-3.57,.51h-.91l-2.89-.45-.91,.11-.85,.51-1.13,1.3-.79,1.64-1.76,5.61v.85l.23,1.02,.85,1.81,.23,1.02-.23,2.16-.96,1.99-2.72,3.52-1.81,2.78-.68,1.53-.57,1.53-.34,.45-.74,.51-1.3,.45-.45,.4h0Z"/>
  <path id="ETH3131" class="cls-4" d="M456.17,228.37l2.04-.23h1.02l.74,.4,.28,.62,.28,1.7,.17,.68,.34,.45,.34,.34,.17,.4-.11,.74,1.64,.06,1.25,.23,.68,.74v1.7l-.91,2.5,.23,.85,.45,.17,2.33-1.59,.74-.79,1.36-2.38,1.25-.11,.96-.62,.85-.74,.45-1.25,.06-.85,.11-.57,.28-.57,2.38-2.33,.51-.68,2.55-4.2,1.02-1.25,1.19-1.25,1.13-.91,1.3-.57,3.12-.51,1.19-.28,1.02-.57,.96-1.02,.34-.17,.45,.06h2.1l1.87-.4h1.76l1.76,1.08,.4,.79-.51,.51-.96,.23-.96,.06-1.64-.34-.68,.06-.17,.79,.23,.96,.34,.79,.57,.57,.85,.28,.79-.06,.96-.23,1.64-.57,1.19-.79,.4-.17,.4-.11,.85-.06,.34-.23,.68-.57,.74-.51,.79-.4,1.81-.68,.85-.4,.85-.51,.79-.68,1.02-1.08,.4-.23,1.47-.4,1.59,.06,3.12,.62,2.89,1.02,.85,.06,.68-.34,1.3-1.13,.74-.4,.91-.23,.96-.11,.85,.17,.45,.51,.57,.79,.79,.34,.96,.11,.96-.23,1.19-.57,1.08,.11,1.08,.17,1.19-.23,.45-.06,1.08,.34,.45,.11,.91-.11,2.1-.96h1.02l2.27,1.13,.68-.85,1.08-.85,.91-.85,.17-.91-.74-1.19-.11-.45,.17-.34,.51-.4,1.13-.62,.91-.34,1.93-.11,.62-.34,.62-.57,1.36-1.19,.74-.4,1.53,.45,.45,1.64-.23,3.74,1.19,.28,1.36,1.36,1.25,1.76,2.38,4.88,.11,.34,.06,.91,.11,.57,1.25,3.63,.45,.74,.68,.74,.17,.28-.11,1.02,.11,.68,.68,1.53,2.33,3.69,2.61,2.89,.74,.68,1.64,1.25,.74,.62,.28,1.59-1.19,3.52,.4,1.76,1.93,1.99,.4,.74,.23,.96,.11,1.02-.06,1.08-.34,1.81-.06,1.02-.23,.91-.62,.51-3.35,.85-.79,.45-1.02,1.42-1.47,5.56-1.36,1.59-1.25-.28-1.19-1.36-.91-1.81-.62-1.99-1.13-6.41-1.13-1.59-2.16-.91-4.48-.85-.51-.51-1.47-2.72-2.55,.68-3.57,3.06-1.59,1.64-1.42,1.87-.28,.91,.23,2.21-.06,1.02-.51,1.02-2.1,3.01-.74,1.81-.4,2.16-.51,9.24,.11,.96,.4,.91,.62,1.08,.23,1.7-.62,2.16-1.76,3.86-.51,1.59-.11,.74,.06,.85,.34,1.99,.28,1.13,.34,.62,11.57,4.54,.28,.28,.45,2.38-.17,1.81-.51,1.76-.74,1.13-.17,.34-.06,.4,.06,.85-.06,.51-.23,.4-.51,.79-.45,1.19-.45,.4-.17,.28,.06,.45-1.25,.68-.4,.57-.17,.96-.4,.91-.11,.4,.17,.85-.06,.4-.34,.45,.4,.74-.4,.85-1.02,1.59-.68,2.67-.4,.68-.45,.74-.34,.68-.23,.4-1.02,1.02-.23,.17-.85,.45-.85,.34-.85,.23h-.91l-.62-1.25-1.47,.17-1.59,.96-1.08,1.13-1.25,2.5-.62,.74-1.42,.96-.57,.51-.45,.91-6.13-6.3-.79-.62-.85-.45-.91-.28-1.87-.28-4.71-2.5-1.81-1.25-1.81-.85-1.81,.11-.91,.51-.79,.74-1.87,2.55-2.21,2.16-.57,.79-1.47,2.67-.28,.85,.28,1.81-.11,1.59,.23,.85,.34,.91,.17,.79,.06,.96-.06,.96-.11,.96-.23,.96-.28,1.99,.51,7.2-.06,3.01,.06,1.13,.28,1.02,1.36,3.23-2.78,2.04-5.5,3.06-5.96,5.39-.62,.28-1.02,.17-.57,.34h-1.76l-2.84,.62-1.53,.17-1.19,.23-.96-.06-.34,.06-1.93,.68-.79,.11-2.72-.57-1.36-.57-1.08-.57h-.57l-.79,.62-3.57,5.16-2.33,6.01-1.42,2.78-.79,3.12-1.08,3.06-.74,4.14-.11,2.27-.23,.96-5.96,13.78-1.36,1.76-.28,.51-.79,3.35-1.19,3.18-.17,.79,.06,.74,.51,1.59-1.13,2.38-5.16,8.85-1.19,1.53-1.47,.96-3.23,1.42-3.06,1.64,.28,.28-.45,.4-.85-.28-2.16,.45h-.62l-.57-.23-.62-.06-1.59,.28h-.96l-6.52-1.76-.74-.4-.57-.57-1.02-1.36-.06,1.02-2.16-.11-.23-.17-.11-.34-.51,.23h-.74l-.51-.17-.23-.51-.28-.34-.74-.62-.17-.06-.4,.11-.06,.91-1.93,.85-2.16,.17-8-.91-1.19,.06-1.19,.34-.45-.11-.91-.74-1.13-.34-.45-.28-.57-.68-.96-1.53-.74-.74-12.42-8-6.52-4.2-4.31-2.78-9.41-6.07-.62-.11-.11-.17-.17-.85-.17-.4-.23-.34-.28-.06-.79,.06-.28-.23-.57-.96-.4-.28-1.53-.34-2.67-1.36-2.27-.62-7.26,.06-.11-.06,.45-.4,1.3-.45,.74-.51,.34-.45,.57-1.53,.68-1.53,1.81-2.78,2.72-3.52,.96-1.99,.23-2.16-.23-1.02-.85-1.81-.23-1.02v-.85l1.76-5.61,.79-1.64,1.13-1.3,.85-.51,.91-.11,2.89,.45h.91l3.57-.51,.62-.06,1.13,.11,.96,.28,1.59,.91,.91,.34,1.99-.11,1.99-.79,3.69-1.99,1.7-.62,.91-.4,.51-.51,.45-.68,.62-.45,.79-.17,.85,.17,1.81,.74,1.81,.51,.68,.45,.68,.62,.79,.45,.91-.06,.57-.51,.23-.74,.06-.85-.23-1.81,.06-.79,.28-.74,.51-.91,.68-1.64,.34-1.93v-1.99l-.57-2.61,.28-.68,.62-.45,1.81-.34,2.38-1.25,.57-.57,.17-.96-.28-.91-.68-.45-.91-.28-.62-.62-.4-.79-.34-1.81-.74-1.59-.23-.96-.34-.62-.79-.4-3.8-1.59-1.25-.28-.85-.23-.28-.57,.06-.96-.4-2.78,.06-.91,.4-.79,1.02-1.53,.74-1.42,.62-1.99,.17-1.99-.74-1.42-1.25-1.47-.11-1.59,.74-1.64,1.76-2.5,.62-.57,.68-.06,.85,.74,.17,.11,1.25,.06,.45-.06,.96-.34,.79,.11,.62,.57,.51,.62,.74,.4,.4,.17,1.59,.96,.68,.62,.96,1.13,.45,.06,.79-.23,.79-.11,.74-.06,.68,.17,1.36,1.25,.06,1.59-.96,1.36-2.44,.91-.4,.57-.62,1.42-.06,.79,.68,1.47-.11,.91-.62,.85-.79,.28-.85-.11-.79-.4h-.57l-.28,.85-.06,1.02,.17,.79,4.65,8.17,.74,.96,.85,.11,.79-.17h.79l.79-.17,2.72-1.81,.11-.45-.4-.4-2.21-1.25-1.02-1.02-.23-.4,.11-.28,.68-.62,.45-.68,1.3-2.33,.45-1.53,.45-.68,.85-.62,.68-.4,.4-.57,.11-1.13-.45-3.23,.23-1.87,.74-1.3,1.36-.74,1.87-.34,1.53,.06,1.53,.28,2.84,.85,.28,.06h1.02l1.36-.17,.51,.96,.28,.34,2.89,1.36,.17,.34,.91,1.08,1.08,1.99,.74,1.13,.23,.85v.28l1.81,1.59,1.64,.11,3.74-.51-.57-.62-.34-.74-.62-1.64-.11-.91,.4-.74,.57-.68,.4-.85v-1.7l-.91-3.46-.23-1.7-.17-.68-.62-.68-2.84-2.61-1.47-.96-.4-.51-.57-.51-.96-.23-1.81-.17-.62-.11-4.93-2.55-1.3-.4-.68-.4-.62-.51-.28-.45-.11-1.3,1.08-5.73-.85-2.21-1.13-1.81-1.25-.96-.96,.17-1.25,.57-1.3-.51-1.19-.79-1.08-.28-1.47-.28-1.19-.74-.96-.34-.74,1.19-.34,.57-1.53,1.81-.62,.45-3.46,.74-1.3-.34-1.02-.51-.62-.68-.23-.74,.11-1.42,.28-1.3,.57-1.19,1.02-.91,5.22-3.23,.4-.57,.34-1.53,.34-.79,1.02-1.19,.45-.79,.28-.91,.28-.57,.51-.51,.96-.4,.85-.28,.62-.28,.34-.51v-.96l-.4-2.84,.11-1.81,.11-.68,.68-1.42,.23-.79,.34-.68,1.36-1.36,.85-1.53,1.64-2.04,1.25-2.04,.51-1.53,.34-.74,.11-.4-.57-2.89-.4-1.36-.11-.51-.28-.96-1.19-1.64-.23-.79,2.21-.74,.34,.79,.68,3.06,.34,.62,.4,.57,.96,1.08,.34-.79,.06-.85-.17-.91,.06-.91,.62-2.55-.91-.62-.45-.51-.17-.68,.4-1.87-.11-.85-.34-.85-.45-.74-2.38-1.13-.62-.57-.79-.06-.85,.17-.74,.23-.23,.11-.79,.91-.57,.79-.28,.62-.45,2.44-.34,.62-1.13,.96-1.59,.51-1.36-.23-.57-1.42-.17-1.59-.23-.85-.28-.51-.57-.57-.62-.4-.79-.17-2.04,.51-5.16,.62-7.15,1.76-.96,.06-2.55-.57-.85,.06-.57,.17h-.51l-.74-.4-2.55-.34h-.79l-.51-.74-.51-1.02-.74-.68h-.85l-.79,.4-.57,.62-.45,.74-.68,1.64-.17,1.08,.23,.34,.17,.68,.4,.51,.62,.4,.62,.28,2.78,.68,.34,.23,.06,.45-.45,3.29-.06,2.78,.17,.74,.62,1.19,.23,.68v.57l-.06,.45-1.08,.28-.74,.17-.79-.11-.57-.4-.74-1.59-.96-.4-1.25,.11-2.27,.68v1.02l1.36,1.53,.23,1.08-.17,.68-.68,1.3-.23,.74-.11,.68v3.91l.28,1.47,.91,2.89v.51l-1.02,3.97-.17,.28-.23,.79-.17,1.7-.51,1.19-.11,.17-.45-.17-1.25,.79-3.74,1.7-2.5,1.93-1.08,.62-1.25,.23-3.01-.17-2.72,.45-1.36,.11-1.76-.17-1.7-.45-1.64-.74-6.47-4.31h-.74l-2.95-1.25-.85-.28-.74-.11h-1.99l-1.36-.45-.51-.23-.68-.45-.28-.11-.85-.11-2.27-.85-1.7-.85-1.36-1.08-1.47-.91-2.95-.4-.62-.45-.28-.74,.06-1.02,.23-1.02-.06-.57-.85-1.36-.91-1.87-.45-.57-.57-.34-1.25-.57-2.33-1.42-.74-.74v-.68l1.08-1.36,.45-.74,.28-.85-.06-.91-1.02-3.57-.28-.62-.51-.4-.85-.17-.85-.11-.91,.06-.79,.23-.57,.62-.85,1.3-.06,.74,.68,.74,1.3,.91,.57,.51,.28,.62-.28,.62-.62,.79-.79,.68-.57,.4-.28,.11-1.25,.23-.74,.28-.51,.23-1.47,.96-.79,.34-.85,.06-.96-.45-.4-.62-.23-.74-.45-.91h-1.59l-.79,.23-.62-.06h-.57l-.85,.62-.91,.62-.4,.11-.68-.06-.23,.11-.45,.79v.85l-.17,.74-1.53,.96-.96,1.36-.68,.51-.51,1.08,.06,1.87,.74,3.35,.06,.85-.45,.68-.79,.51-.74,.4-.62,.45-.23,.11-.91-.4-.51-.11-1.13-.06-.68-.28,.17-.62,.62-.74,.51-.45,.28-.62-.51-.45-3.8-1.36-.57-.45-.28-.79-.23-1.81-.4-.79-1.25-1.25-1.36-1.08-1.19-1.13-.79-1.64-.06-1.81,.62-1.59,2.38-3.4,.23-.45-.23-.4-1.81-.62-.34-.4,.34-.45,1.7-.74,2.27-1.3,1.93-.62,.91-.45,.34-.57-1.19-.85-2.04-.23-2.16,.06-2.72,.45h-1.19l-1.02-.45-.68-.96-.62-1.19-.74-.57-2.21-.45-1.13-.51-.79-.79-1.36-1.99-1.08-.91-3.8-1.93-1.87-1.47-3.29-3.18-1.93-1.3-1.13-.51-.96-.11-.91,.34-1.81,1.3-.45,.11-.45-.34-.68-.68-.91-.45,.17-.96-1.08-22.18,1.76,.06,7.03,.62,1.08-.11,.74-.51,.51-.68,.4-.68,.34-.68,.28-.91,1.47-6.64,.79-7.09,.91-.57h.85l1.42-.23,.68,.11,.85,.62,1.76,1.53,.96,.51,1.19-.17,4.25-4.59,1.42-2.67,2.21-6.98-.28-.57-.57-.57-.34-.91,.17-.34,4.82,.34,.62,.23,.23,.4-.06,.96,.06,.91,.4,.62,.96,.06,2.95-.45,1.25,.06,1.76,.28h.74l.74,.11,.79,.45,1.42,1.08,7.6,7.6,5.16,6.3,1.87,1.93,1.59-.28,.51,.06,.51,.68,.74,1.64,.11,.45-.06,2.16,.4,.45,.45,.23,.45,.06,1.13-.06,1.47,.11,.74-.06,.34,.17,.28,.51,.34,.74,1.36,2.38,.34,.45,.45,.06,1.19-.11,.62,.74,.51,2.38,.85,.34,5.5-7.2,1.08-3.12,.45-2.72-.23-2.1-1.13-1.13-.62-.45-2.55-3.01-1.19-1.02,.06-.17,.74-.57,.34-.62-.06-.79-.4-.91-.23-.79,.23-3.63-.34-6.75h.45l.68,.51,.74-.06,.74-.28,1.53-.85,3.35-2.44,1.25-1.42,1.99-3.29,.57-.68,1.42-1.47,.68-.57,.79-.34,2.33-.23,.23,.11-1.3,3.74-.11,.45,.23,.23,.68,.23,.62,.28,.62,.17,.79-.17,.85-1.7,.51-.4,3.29-1.7,.68,.06,1.64,1.02,2.04,.85,.79,.62,3.91,1.19,.74,.06,.45-.23,.4-.51,.4-.74,.74-2.1,1.08,.91,.74,.4,.74,.28h2.55l.57,.28,.11,1.02-.57,1.13-.45,1.13,.51,1.3,.91,.96,.57,.23,.68-.11h.51l.62,.17,.62,.28,.28,.4,.06,.45v.85l.17,.45,.45,.62,.28,.23,.4-.06,.4-.45,.34-1.08,.57-.17,1.3,.17,1.25,.34,3.63,1.64,.51,.4,.79,1.08,.85,1.02,.23,.45,.57,.68,3.52,2.61h.62l1.02-.57,.57-.11,.96,.17,.34-.11,2.67-1.47,.34-.34,.57-.74,.28-.17,1.02-.11,.34-.11,1.76-1.25,5.39-2.55,2.27-.57,.62-.4,.96-.96,.34-.79,.45-.4,1.08-.23,1.02-.34,.74-.11,.96,.28h.91l.96-.17,.85-.4,.51-.74,.11-.45-.06-.4-.28-.79v-.51l.17-.23,.4-.17,.28-.28,.28-.4,.96-4.14,.23-.4,.34-.28,8.85-.45,4.37,.79,.68,.51-.06,1.42-1.64,7.71-.45,.57-2.5,1.3-1.47,.34-1.47-.28,.06,1.13,.74,.68,2.38,.91,.68,.51,.45,.4,.68,1.02,.11,.23,.06,1.93,.28,1.87,.62,1.76,1.25,1.53,2.44,1.19,6.86,1.42,4.37,1.93,1.81,2.67,1.36,2.44,1.25,1.59,1.36,.28,.85-.06,1.13,.23,.79,.45-.11,.91,.23,.34,2.21,2.33h-.06l-1.3-.45-.96,.17-1.87,1.36-.51,.23-3.23,.23-.91-.06-.62,.06-.23,.34,.11,1.08,.34,1.42,.51,1.25,.79,.62,1.99,.4,.79,.62,.11,1.13-.45,1.25-3.23,5.27,.11,2.21-.11,.74,.06,.62,.96,2.1,.28,.4,.45,.34,.68,.17,.85-.06,1.93-1.93,.57-.23,1.13,.4,1.36,2.1,.96,.51,.79-.17,1.81-1.3,1.3-.79,3.86-1.36,1.19-.74,.4-1.13-.11-7.77,1.64-1.36h0Zm-139.86,4.37l-1.59-.4-.57,.06-.28,.4-.06,.62v.68l-.06,.57-.23,.4-.62,.74-.28,.51v.45l.17,.96v.45l-.23,.28,.17,.4,.28,.28,.74,.4,.34-.28h.68l.74-.11,.23,.11,.34,.45,.79-.06,.57-.34,.91-.96,.4,.57,.91,.74,.4,.45,.06,.34-.06,.62,.23,.34,.57,.34,.74,.06-.11-.4-.17-.4-.45-.68,.57-.23v-.51l-.34-.51-.57-.23-.11-.85,.06-1.13,.23-1.19,.28-.68-.45,.17-.51-.06-.45-.17-.45-.45-.28-.45v-.17l.57-.57-.4-.23-1.08-.34-.51-.06-.4,.17-.68-.11h0Zm102.54-2.21l-.11-.57-.79,.79-.4-.06-.28-.51-.17-.17-.45,.06-1.53,.34-.45,.17-.62,.51-.68,.91-.51,1.02-.28,.79,.34,.51-.06,.28,.57,.91,.34,1.13,.28,.34,.34,.34,.85,.28,.4,.34,.34,.4,.74,.91,.45,.34,.74,.4,.74,.11,.45-.62,.23-.74,.51-.06,.57,.06,.45-.28,.06-.57-.57-1.42-.11-.68,.79,.23,.79,.06-.11-.45,.28-.85,.11-.51v-.74l-.23-.68-.96-2.16-.79-.06-.96,.06-.28-.17h0Zm-95.4,5.67l.85-.34,.4-.28,.28-.34-.62-.34-.68-.79-.45-.28-1.64,.85-.34,.45,.34,.45,.51,.34,.34,.23,.34,.11,.68-.06h0Zm5.56-18.09l-.11-.85,.4-.74,1.47-.68,.28-.28,.06-.45-.23-.34-1.25-.91-.68-.17-.68,.17-.74,.51-.45,.51-.23,.57-.4,1.47,.91,3.06,.45,.74,.11-.06,.17-.79,.45-.23,1.3,.23-.85-1.76h0Zm219.55,.85l-.79,.06-.91,.45-.85,.28-.96-.28-.68-.4-.62-.06-.85,.91-1.13,1.93-.4,1.08-.17,1.13,.06,.85,.62,.11,.74-.17,.74-.06,.34,.23,.57,.51,.28,.17,.57-.06,1.02-.45,.51,.17,1.02,.91,.62,.17,.62-.34,.34-.74-.23-.68-.4-.74-.23-.68,.06-.51,.45-.79,.23-1.81v-.34l-.57-.85h0Z"/>
  <path class="cls-2" d="M199.85,346.42c0,28.09-16.26,52.39-39.88,64l-8.78,3.59c-7.1,2.39-14.7,3.67-22.6,3.67-39.36,0-71.26-31.91-71.26-71.26,0-11.94,2.93-23.2,8.13-33.08,7.42-14.14,19.45-25.48,34.09-32.02,8.87-3.96,18.7-6.16,29.04-6.16,5.39,0,10.66,.59,15.72,1.74,4.32,.96,8.5,2.33,12.47,4.05,6.45,2.78,12.4,6.48,17.69,10.95,15.52,13.07,25.38,32.64,25.38,54.52Z"/>
  <g>
    <path class="cls-11" d="M117.76,408.79s-3.31-.07-3.89-.3c-.04-.02-.08-.03-.11-.05-.58-.29-2.17-2.31-2.3-2.59-.17-.32-.22-.41-.1-3.72,0-.25,.08-.5,.21-.72,1.13-1.87,2.45-4.22,2.61-4.74,.12-.49-.27-2.33-.45-3.21-.07-.34-.14-.66-.19-.94-.06-.3-.28-1.13-1.15-2.55-.62-.22-2.06-.57-2.57-.7-.4-.1-.7-.18-.8-.21-.76-.27-1.13-.83-1.52-1.43-.13-.2-.29-.44-.48-.7-.62-.84-2.17-3.4-2.72-5.52-.41-1.54-1.73-3.9-3.23-5.19-1.05-.9-2.42-1.27-3.15-1.47-.52-.14-.89-.24-1.23-.57-.45-.45-.48-.48-1.11-5.1-.11-.79-.24-1.74-.3-2.09-.15-.25-.57-.81-.86-1.2-.47-.63-.92-1.22-1.18-1.7-.08-.14-.17-.28-.26-.43-.44-.69-1.03-1.63-.94-2.98,.02-.45-.04-.54-.14-.68l-.08-.12c-.05-.08-3.18-4.97-3.35-5.43-.26-.85,.21-3.05,.27-3.23,.01-.07,.04-.34,.07-.61,.08-.6,.12-.96,.23-1.26,.03-.2,.06-.52,.09-.84,.08-.81,.12-1.23,.26-1.56,.07-.31,.19-1.07,.25-1.42,.04-.27,.08-.48,.1-.57,.11-.46,2.96-4.86,4.48-4.86,.76,0,1.27,.46,2.21,1.3,.22,.2,.45,.41,.7,.61,.82,.7,1.69,1.97,2.22,2.83,.65,.03,1.56,.07,2.24,.07,.22,0,.42,0,.56-.02,.59-.07,2.9-1.19,3.95-1.87,.85-.57,3.44-3.25,3.74-3.98,.16-.43,.33-.84,.48-1.23,.23-.58,.46-1.13,.58-1.52,0-.24-.1-.89-.62-2.66-.02-.06-.03-.11-.05-.16-.26-.29-.97-.88-1.29-1.14l-.27-.22c-.79-.66-1.3-1.73-1.76-2.67-.08-.18-.17-.35-.25-.51-.63-1.25-.57-2.58-.54-3.29,.05-.83,.52-1.8,1.17-3.08l.2-.39c.23-.46,.53-1.44,.82-2.39,.16-.54,.34-1.1,.51-1.64,.41-1.27,1.18-2.47,1.69-3.26,.14-.22,.26-.39,.32-.51,.35-.83,2.36-2.24,3.53-3,.42-.29,.74-.39,4.4-.48h.36c.33-.06,1.78-.61,2.71-1.04,.26-.11,1.61-.79,2.5-1.24,.68-.34,1.29-.65,1.56-.78,.4-.2,1.31-.88,1.91-1.33,.25-.18,.48-.36,.67-.5,.02-.01,.35-.3,.8-1.65,.03-.71-.01-3.28-.05-4.23-.19-.19-.52-.49-1-.9-.26-.22-.43-.39-.46-.43-.39-.43-.43-1.06-.34-1.55,0,0-.01-.01-.02-.02-.44-.59-.4-1.34-.13-1.93,0-.07,0-.14-.01-.21-.02-.45-.04-.89,.07-1.28-.12-.43-.12-.96-.11-1.71,0-.01,0-.02,0-.04-.11-.12-.22-.21-.32-.27-.53-.34-1.02-.71-1.46-1.03-.33-.25-.79-.59-.95-.66-.71-.34-1.24-1.04-1.98-2.06-.13-.18-.26-.36-.37-.51-.16,.02-.36,.07-.45,.1-.17,.04-.47,.12-.85,.21-.93,.23-3.41,.84-3.87,1.05-.86,.44-2.98,.5-4.16,.5-.29,0-.53,0-.7-.02-.21,.06-.67,.25-.98,.39-.93,.4-1.89,.8-2.74,.8-.04,0-.08,0-.13,0-.41,.15-1.33,.93-1.78,1.32-.36,.3-.68,.58-.94,.77-.27,.19-.57,.28-.88,.28-.45,0-.9-.2-1.19-.59-2.21-2.9-2.74-4.37-2.87-5.24l-2.39-5.17c-.17-.36-.18-.78-.04-1.16,.14-.38,.43-.68,.79-.84,9.35-4.17,19.33-6.29,29.65-6.29,5.46,0,10.86,.6,16.05,1.78,4.34,.96,8.62,2.36,12.73,4.14,6.54,2.82,12.62,6.58,18.06,11.18,.47,.4,.65,1.04,.45,1.63-.2,.58-.73,.99-1.35,1.02-.39,.02-.77,.05-1.08,.08-.38,.03-.69,.05-.88,.05-.18,.01-1.04,.18-1.66,.31-1.58,.31-2.69,.52-3.38,.53-.52,.16-1.94,1.23-2.64,1.75-.51,.39-.95,.72-1.3,.94-.77,.47-3.98,4.11-4.38,5.2-.26,.71-.48,2.49-.62,3.67-.17,1.4-.23,1.82-.41,2.18-.16,.3-.37,.54-.71,.78,.03,1.83,.11,4.43,.21,5.76,.16,2.15,.38,2.81,.39,2.82,.36,.82-.03,2.75-.07,2.97,0,.28,.45,1.38,.6,1.73l.08,.19c.3,.75,.87,2.9,.87,3.88,.01,.45,.45,3.62,.68,5.33,.17,1.24,.31,2.25,.33,2.49,.1,.95-.73,4.16-1.09,4.76-.37,.55-.43,.65-6.92,3.32-.72,.29-1.28,.52-1.51,.63-.41,.33-1.82,1.73-2.7,2.65-.26,.38-1.15,1.99-1.59,2.78-.2,.35-.37,.66-.48,.85-.06,.42-.13,1.56-.16,2.19-.03,.54-.06,1.04-.09,1.36-.13,1.42-1.93,5.09-2.69,6.16-.48,.68-3.03,4.66-4.55,7.04-.67,1.04-1.2,1.87-1.4,2.18-.11,.32-.32,1.27-.43,1.79-.09,.42-.18,.81-.25,1.08-.24,.92-1.07,1.65-6.09,4.7-.5,.3-.9,.55-1.12,.69-.26,.46-.76,1.72-1,2.39,.25,.43,.76,1.12,1.15,1.55,.48-.24,1.16-.61,1.54-.82,1.2-.66,1.52-.83,2.01-.83,.07,0,.14,0,.21,.01,.23,.03,.43,.1,1.01,.31,.42,.15,1.13,.4,1.42,.46,.55,.12,1.47,.33,2.77,3.93h1.21c.2,0,.4,.04,.58,.12,.04,.02,3.7,1.55,5.86,1.98,2.84,.57,5.15,4,5.79,5.03,1.19,1.99-2.65,5.43-2.69,5.46-.66,.55-1.58,.6-3.59,.66-.51,.02-1.25,.04-1.6,.08-.59,.51-2.17,2.27-3.14,3.36-1.23,1.37-1.89,2.1-2.26,2.42-1.1,.92-4.55,2-5.77,2.15-.1,.01-.21,.02-.34,.02-1.28,0-4.47-.82-5.89-1.2-.95,.5-3.15,1.8-4.79,3.71-.15,.17-.33,.31-.54,.4-2.82,1.23-2.97,1.28-3.06,1.31-.27,.07-.43,.07-.58,.07Z"/>
    <path class="cls-10" d="M128.59,275.16c5.39,0,10.66,.59,15.72,1.74,4.32,.96,8.5,2.33,12.47,4.05,6.45,2.78,12.4,6.48,17.69,10.95-.82,.04-1.56,.13-1.89,.13-.59,0-4.09,.84-5.12,.84s-3.63,2.27-4.66,2.92c-1.04,.64-4.47,4.53-4.99,5.95-.52,1.43-.78,5.32-.97,5.71-.08,.15-.44,.37-.87,.59,.02,1.72,.11,5.1,.23,6.72,.15,2.04,.37,2.93,.47,3.21,.12,.28,.02,1.44-.13,2.16-.13,.72,.48,2.12,.75,2.79,.27,.68,.76,2.62,.76,3.32s.96,7.3,1.02,7.95c.07,.65-.69,3.53-.88,3.84-.2,.3-7.45,3.2-7.88,3.41-.43,.21-2.88,2.74-3.11,2.98-.24,.23-2.13,3.71-2.33,4.03-.19,.33-.26,3.03-.35,4-.09,.97-1.66,4.36-2.42,5.42-.75,1.06-5.85,9.09-6.04,9.36-.2,.27-.61,2.41-.82,3.24-.21,.81-6.41,4.32-6.81,4.66-.4,.33-1.4,3-1.52,3.51-.1,.5,1.92,3.18,2.47,3.21,0,0,0,0,.01,0,.58,0,3.53-1.83,3.79-1.83,0,0,0,0,0,0,.21,.03,1.68,.62,2.34,.75,.76,.17,1.98,3.96,1.98,3.96h2.28s3.81,1.6,6.14,2.07c2.33,.47,4.47,3.8,4.81,4.35,.34,.57-1.97,3.16-2.41,3.55-.46,.38-4.09,.19-4.8,.45-.71,.26-4.98,5.38-5.76,6.03-.78,.65-3.89,1.68-4.99,1.81-.05,0-.1,0-.17,0-1.37,0-6.05-1.3-6.05-1.3,0,0-3.37,1.55-5.76,4.33,0,0-2.74,1.2-2.9,1.25-.02,0-.07,0-.14,0-.64,0-3.2-.14-3.33-.2-.14-.07-1.55-1.75-1.61-1.88-.07-.13,.04-3.03,.04-3.03,0,0,2.45-4.06,2.76-5.07,.3-1.01-.34-3.48-.6-4.86-.26-1.37-1.33-3.04-1.56-3.4-.22-.35-3.61-1.09-3.98-1.21-.37-.13-.62-.73-1.26-1.6-.65-.88-2.02-3.24-2.48-5.01-.47-1.77-1.93-4.43-3.71-5.95-1.78-1.53-4.1-1.77-4.29-1.96-.2-.2-.89-6.04-1.03-6.58-.15-.54-1.71-2.33-2.16-3.16-.46-.82-1.1-1.5-1.03-2.6,.06-1.11-.29-1.46-.49-1.75-.19-.29-3.11-4.91-3.18-5.1-.06-.2,.18-1.93,.28-2.22,.1-.29,.21-1.73,.31-1.88,.1-.14,.21-2.17,.3-2.27,.1-.1,.38-2,.44-2.3,.07-.29,2.75-3.65,3.01-3.65s1.05,.8,1.93,1.55c.88,.75,2.06,2.64,2.3,3.14,0,0,1.91,.12,3.13,.12,.27,0,.51,0,.69-.02,.97-.08,3.66-1.47,4.64-2.1,.96-.64,3.94-3.61,4.34-4.72,.42-1.1,.9-2.2,1.12-2.91,.23-.71-.63-3.37-.73-3.76-.09-.39-1.31-1.36-1.99-1.93-.67-.56-1.18-1.81-1.63-2.7-.45-.89-.41-1.89-.38-2.54,.04-.65,.77-1.99,1.21-2.87,.43-.87,.89-2.65,1.41-4.22,.51-1.58,1.76-3.18,1.95-3.63s2.72-2.19,2.98-2.36c.26-.18,3.34-.23,3.99-.25,.64-.01,2.84-.96,3.28-1.16,.44-.19,3.4-1.7,4.1-2.04,.7-.34,2.01-1.38,2.81-1.96,.81-.58,1.34-2.4,1.4-2.55,.07-.14,0-4.59-.06-5.03-.07-.43-1.68-1.68-1.76-1.78-.08-.09-.06-.52,.06-.52,0,0,0,0,0,0,0,0,0,0,.01,0,.13,0,.09-.15,.15-.26,.07-.11-.44-.59-.55-.74-.11-.15,.02-.46,.13-.58,.11-.13-.08-1.46,.05-1.56,.13-.1,.18-.52,.02-.71-.16-.2-.05-1.73-.09-1.96v-.02c-.27-.37-.62-.75-1.02-1-1.08-.7-2.07-1.56-2.59-1.79-.52-.25-1.35-1.58-1.87-2.23-.29-.36-.65-.48-1.02-.48-.3,0-.61,.07-.92,.16-.72,.19-4.35,1.04-4.99,1.36-.51,.26-2.4,.35-3.51,.35-.31,0-.56,0-.7-.02-.02,0-.03,0-.05,0-.68,0-2.67,1.2-3.67,1.2-.04,0-.07,0-.11,0-.02,0-.05,0-.07,0-.98,0-2.67,1.74-3.55,2.37-.45-.59-2.53-3.3-2.59-4.73l-2.5-5.4c8.87-3.96,18.7-6.16,29.04-6.16m0-3c-10.54,0-20.72,2.16-30.26,6.42-.73,.33-1.3,.93-1.59,1.69-.28,.75-.25,1.58,.09,2.31l2.31,4.98c.21,1.12,.9,2.79,3.1,5.69,.59,.78,1.5,1.19,2.42,1.19,.61,0,1.21-.18,1.74-.56,.33-.24,.67-.53,1.04-.84,.32-.27,.86-.73,1.21-.97,1.07-.07,2.12-.52,3.05-.91,.18-.08,.43-.19,.62-.26,.13,0,.29,0,.48,0,3.26,0,4.36-.43,4.77-.63,.58-.21,2.86-.78,3.62-.96,.11-.03,.22-.05,.32-.08,.67,.92,1.33,1.75,2.29,2.22,0,0,0,0,0,0,.14,.09,.49,.34,.74,.53,.35,.26,.74,.55,1.17,.84,0,.36,.02,.7,.08,1.03-.07,.45-.06,.87-.04,1.22-.27,.8-.28,1.72,.13,2.56,0,.73,.2,1.52,.73,2.16,.19,.23,.36,.38,.64,.61,.19,.16,.35,.3,.49,.42,.03,1.01,.05,2.58,.04,3.29-.17,.47-.3,.72-.36,.83-.17,.12-.34,.25-.52,.39-.48,.36-1.36,1.02-1.67,1.18-.27,.13-.89,.45-1.58,.79-.8,.4-2.15,1.08-2.4,1.2-.74,.33-1.89,.79-2.34,.92h-.18c-3.53,.09-4.35,.16-5.21,.75-3.22,2.11-3.81,3.08-4.03,3.57-.06,.1-.14,.22-.23,.37-.52,.81-1.38,2.16-1.86,3.62-.17,.53-.35,1.1-.52,1.65-.25,.8-.55,1.8-.73,2.16l-.19,.37c-.74,1.45-1.26,2.55-1.33,3.65-.04,.83-.11,2.47,.7,4.08,.08,.15,.15,.31,.23,.48,.49,1.02,1.11,2.3,2.15,3.17l.27,.22c.23,.19,.65,.54,.92,.79,.29,1.01,.42,1.56,.46,1.85-.12,.33-.28,.74-.44,1.13-.15,.38-.31,.77-.46,1.17-.44,.74-2.51,2.86-3.22,3.36-.89,.57-2.71,1.45-3.32,1.62-.1,0-.22,0-.35,0-.41,0-.92-.02-1.39-.04-.58-.87-1.34-1.86-2.09-2.51-.23-.2-.46-.4-.67-.59-1.05-.94-1.88-1.68-3.21-1.68-1.61,0-2.48,1.06-3.91,2.83-1.8,2.22-1.9,2.6-2.02,3.12,0,.04-.02,.08-.03,.11-.02,.1-.06,.33-.11,.62-.05,.29-.15,.93-.21,1.24-.18,.51-.24,1.08-.31,1.83-.02,.23-.04,.47-.06,.65-.12,.41-.18,.85-.25,1.4-.03,.22-.05,.43-.08,.58,.02-.11,.05-.2,.07-.26,0,.02-.73,2.69-.32,4.06,.02,.06,.04,.12,.06,.17,.29,.77,3.45,5.66,3.49,5.71,0,0,0,0,0,0-.09,1.77,.7,3.03,1.18,3.79,.08,.13,.16,.25,.23,.38,.29,.53,.77,1.17,1.28,1.85,.19,.26,.46,.61,.63,.85,.06,.43,.16,1.14,.24,1.73,.65,4.74,.7,5.12,1.54,5.96,.62,.62,1.3,.8,1.9,.96,.66,.18,1.77,.47,2.56,1.15,1.23,1.05,2.42,3.14,2.77,4.44,.61,2.34,2.26,5.07,2.97,6.02,.17,.23,.31,.45,.43,.63,.44,.67,1.04,1.59,2.25,2.02,.02,0,.05,.02,.07,.02,.18,.06,.38,.11,.91,.24,.37,.09,1.29,.32,1.93,.5,.56,1,.67,1.51,.68,1.58,.05,.28,.12,.61,.19,.96,.14,.66,.42,1.99,.43,2.57-.34,.74-1.46,2.72-2.41,4.29-.26,.43-.41,.93-.43,1.44-.13,3.3-.12,3.76,.32,4.57h0c.42,.7,1.9,2.64,2.9,3.14,.07,.04,.15,.07,.23,.1,.98,.39,4.41,.41,4.45,.41,.24,0,.53-.01,.87-.1,.06-.01,.11-.03,.17-.05,.18-.06,.32-.1,3.21-1.37,.41-.18,.78-.45,1.07-.79,1.24-1.44,2.86-2.51,3.85-3.08,1.79,.47,4.41,1.09,5.69,1.09,.2,0,.37-.01,.52-.03,1.24-.15,5.1-1.27,6.56-2.48,.43-.36,1.01-.99,2.42-2.57,.73-.82,1.97-2.2,2.66-2.9,.32-.02,.7-.03,1-.04,2.13-.06,3.42-.1,4.47-.97,.03-.02,.05-.04,.08-.07,.45-.39,1.27-1.33,1.89-2.12,.71-.92,2.37-3.09,1.11-5.21-.95-1.53-3.46-5.08-6.79-5.75-1.67-.34-4.59-1.48-5.57-1.9-.37-.15-.76-.23-1.16-.23h-.17c-1.14-2.8-2.19-3.61-3.43-3.89-.02,0-.05-.01-.08-.02-.22-.05-.88-.28-1.2-.4-.61-.22-.91-.32-1.29-.38-.14-.02-.29-.03-.43-.03-.87,0-1.42,.3-2.73,1.02-.06,.03-.12,.07-.19,.1,.12-.31,.26-.62,.37-.86,.23-.14,.5-.31,.75-.46,5.36-3.26,6.38-4.1,6.77-5.6,.07-.29,.16-.7,.26-1.14,.09-.41,.25-1.11,.34-1.48,.2-.3,.56-.88,1.29-2.01,1.41-2.21,4.05-6.33,4.51-6.98,.79-1.1,2.79-5.05,2.96-6.88,.03-.33,.06-.85,.09-1.42,.03-.49,.07-1.32,.12-1.8,.1-.17,.21-.37,.33-.6,.36-.64,1.16-2.08,1.47-2.58,.73-.75,1.83-1.86,2.32-2.29,.28-.12,.73-.3,1.28-.53,6.92-2.85,6.97-2.92,7.57-3.83,.02-.03,.04-.06,.06-.1,.53-.86,1.45-4.38,1.3-5.73-.02-.23-.11-.87-.33-2.51-.22-1.61-.63-4.59-.67-5.18-.02-1.32-.69-3.64-.97-4.37l-.08-.21c-.1-.25-.35-.87-.45-1.22,.17-.95,.32-2.38-.05-3.42h0s0,0,0,0c0,0-.17-.65-.3-2.42-.08-1.13-.16-3.27-.19-4.99,.19-.2,.35-.43,.49-.69,.02-.03,.03-.07,.05-.1,.29-.6,.36-1.16,.55-2.65,.11-.89,.34-2.72,.53-3.31,.44-.93,3-3.89,3.8-4.48,.42-.27,.87-.61,1.39-1,.53-.4,1.57-1.19,2.09-1.46,.78-.06,1.82-.25,3.31-.55,.53-.1,1.24-.24,1.5-.28,.25,0,.53-.03,.88-.06,.3-.03,.66-.06,1.03-.07,1.23-.06,2.3-.87,2.7-2.03,.4-1.17,.04-2.46-.91-3.25-5.56-4.69-11.76-8.53-18.44-11.41-4.19-1.82-8.57-3.24-13.01-4.22-5.28-1.2-10.8-1.81-16.37-1.81h0Z"/>
  </g>
  <path class="cls-5" d="M199.85,346.42c0,28.09-16.26,52.39-39.88,64l-8.78,3.6c-7.1,2.38-14.7,3.67-22.6,3.67-39.35,0-71.26-31.91-71.26-71.26,0-11.94,2.93-23.2,8.13-33.08,11.92-22.71,35.71-38.19,63.13-38.19,5.4,0,10.67,.6,15.72,1.74,4.32,.96,8.5,2.34,12.48,4.06,25.33,10.93,43.07,36.12,43.07,65.46Z"/>
  <g>
    <path class="cls-13" d="M106.3,137.27c-.08-.08-.22-.19-.43-.32-.21-.14-.46-.27-.77-.39-.3-.12-.63-.23-.98-.33-.35-.1-.71-.14-1.07-.14-.63,0-1.11,.12-1.44,.36-.32,.24-.48,.57-.48,1,0,.33,.1,.59,.31,.78,.2,.19,.51,.36,.92,.49,.41,.14,.92,.28,1.53,.44,.79,.19,1.48,.43,2.07,.7,.58,.28,1.03,.64,1.34,1.08,.31,.45,.47,1.03,.47,1.77,0,.64-.12,1.19-.36,1.65-.24,.46-.57,.83-.99,1.11-.42,.28-.9,.49-1.43,.62-.53,.13-1.1,.19-1.7,.19s-1.2-.06-1.8-.19c-.6-.12-1.18-.3-1.73-.54-.56-.23-1.07-.51-1.53-.84l1.04-2.02c.1,.1,.28,.24,.54,.4,.26,.16,.58,.33,.95,.49,.37,.16,.78,.3,1.22,.42,.44,.11,.89,.17,1.34,.17,.63,0,1.12-.11,1.44-.32s.49-.52,.49-.91c0-.36-.13-.64-.39-.85-.26-.2-.62-.38-1.09-.53-.46-.15-1.01-.32-1.65-.5-.76-.21-1.39-.45-1.9-.72-.51-.27-.89-.6-1.14-1.01-.25-.41-.37-.91-.37-1.52,0-.82,.2-1.52,.59-2.07s.92-.98,1.59-1.27c.67-.29,1.41-.43,2.23-.43,.57,0,1.1,.06,1.61,.19,.5,.12,.98,.29,1.42,.49s.84,.43,1.19,.66l-1.04,1.9Z"/>
    <path class="cls-13" d="M111.88,138.43v7.75h-2.35v-12.07h1.87l6.24,7.96v-7.94h2.35v12.05h-1.96l-6.15-7.75Z"/>
    <path class="cls-13" d="M124.85,138.43v7.75h-2.35v-12.07h1.87l6.24,7.96v-7.94h2.35v12.05h-1.96l-6.15-7.75Z"/>
    <path class="cls-13" d="M135.47,146.18v-12.07h5.12c.56,0,1.06,.11,1.53,.34,.46,.23,.87,.53,1.22,.92,.35,.39,.61,.82,.81,1.29,.19,.48,.29,.96,.29,1.46,0,.68-.16,1.33-.48,1.94-.32,.61-.75,1.11-1.31,1.5-.56,.39-1.21,.58-1.97,.58h-2.86v4.05h-2.35Zm2.35-6.1h2.72c.28,0,.54-.08,.76-.24s.41-.39,.54-.69c.14-.3,.2-.64,.2-1.03,0-.42-.08-.78-.23-1.07-.15-.29-.35-.52-.59-.66-.24-.15-.51-.22-.79-.22h-2.62v3.91Z"/>
    <path class="cls-13" d="M146.06,146.18v-12.07h5.34c.56,0,1.07,.11,1.54,.34,.47,.23,.88,.53,1.22,.92s.61,.82,.8,1.29,.28,.96,.28,1.46-.09,1-.26,1.47-.43,.88-.76,1.23c-.33,.35-.71,.62-1.16,.82l2.75,4.54h-2.58l-2.48-4.05h-2.35v4.05h-2.35Zm2.35-6.1h2.94c.29,0,.56-.09,.78-.26,.23-.18,.41-.41,.54-.71,.14-.29,.2-.62,.2-.99,0-.39-.08-.72-.24-1.01s-.36-.52-.6-.69c-.24-.17-.51-.26-.79-.26h-2.84v3.91Z"/>
  </g>
  <g>
    <path class="cls-13" d="M27.2,256.64l2.97,5.68,3.03-5.68h2.53l-4.39,7.85v4.22h-2.33v-4.25l-4.37-7.82h2.55Z"/>
    <path class="cls-13" d="M36.83,258.57v-2.26h2.28v2.26h-2.28Zm0,10.15v-8.91h2.28v8.91h-2.28Z"/>
    <path class="cls-13" d="M46.47,261.78c-.69,0-1.31,.13-1.85,.4-.54,.27-.94,.65-1.17,1.15v5.39h-2.28v-8.82h2.09v1.82c.32-.61,.72-1.09,1.21-1.45,.49-.35,1-.54,1.55-.58h.29c.07,0,.12,0,.17,.02v2.07Z"/>
    <path class="cls-13" d="M51.15,268.88c-.59,0-1.13-.12-1.62-.35s-.92-.56-1.28-.98c-.36-.42-.63-.9-.82-1.45s-.29-1.12-.29-1.74c0-.65,.1-1.25,.31-1.81,.2-.56,.49-1.05,.86-1.47,.37-.43,.8-.75,1.31-.99,.5-.23,1.06-.35,1.67-.35,.69,0,1.3,.15,1.82,.46,.52,.31,.95,.72,1.29,1.24v-1.56h1.99v8.43c0,.88-.21,1.63-.64,2.25-.42,.62-1.01,1.1-1.76,1.44-.75,.33-1.6,.5-2.55,.5s-1.78-.16-2.45-.48c-.67-.32-1.24-.78-1.72-1.37l1.24-1.21c.34,.42,.77,.75,1.28,.99,.52,.24,1.06,.36,1.64,.36,.49,0,.93-.08,1.33-.25,.4-.17,.73-.42,.97-.77,.24-.35,.37-.8,.37-1.36v-1.12c-.29,.51-.71,.9-1.25,1.18-.54,.28-1.11,.42-1.71,.42Zm.76-1.82c.25,0,.49-.04,.71-.12,.23-.08,.44-.19,.63-.32s.36-.3,.51-.49,.26-.38,.34-.57v-2.13c-.14-.35-.33-.66-.57-.92-.24-.26-.52-.46-.82-.61-.3-.14-.62-.21-.94-.21-.35,0-.67,.07-.95,.22-.28,.15-.53,.36-.73,.62s-.36,.56-.47,.89c-.11,.32-.16,.66-.16,1.01s.06,.71,.19,1.02c.12,.32,.3,.6,.52,.84,.22,.24,.48,.43,.78,.56,.3,.14,.62,.2,.96,.2Z"/>
    <path class="cls-13" d="M57.83,266.11c0-.57,.16-1.07,.48-1.5,.32-.43,.77-.76,1.35-1,.58-.23,1.24-.35,1.99-.35,.37,0,.75,.03,1.14,.08,.39,.06,.72,.15,1,.27v-.47c0-.56-.17-.98-.5-1.29-.33-.3-.83-.45-1.49-.45-.49,0-.95,.08-1.39,.25-.44,.17-.91,.42-1.39,.75l-.73-1.5c.59-.38,1.19-.67,1.81-.87s1.27-.29,1.95-.29c1.27,0,2.26,.31,2.97,.94,.71,.63,1.06,1.52,1.06,2.68v2.8c0,.23,.04,.4,.13,.5s.22,.16,.42,.18v1.85c-.2,.03-.39,.06-.55,.08-.16,.02-.3,.03-.42,.03-.45,0-.8-.1-1.03-.31-.23-.2-.38-.45-.43-.75l-.05-.46c-.39,.5-.87,.88-1.45,1.16s-1.17,.41-1.77,.41-1.12-.12-1.59-.36c-.47-.24-.84-.57-1.11-.99s-.4-.89-.4-1.42Zm5.54,.44c.12-.13,.23-.27,.31-.4,.08-.13,.12-.25,.12-.36v-.88c-.27-.11-.57-.2-.88-.26-.32-.06-.62-.09-.9-.09-.59,0-1.07,.12-1.45,.37-.38,.25-.57,.58-.57,.99,0,.22,.06,.43,.19,.63,.12,.2,.31,.36,.54,.48,.24,.12,.52,.18,.85,.18s.67-.06,1-.19c.33-.13,.59-.28,.8-.47Z"/>
    <path class="cls-13" d="M72.35,268.88c-.72,0-1.38-.12-1.95-.36-.58-.24-1.07-.58-1.48-1.01-.41-.43-.72-.92-.94-1.47s-.33-1.13-.33-1.73c0-.83,.19-1.59,.57-2.28,.38-.69,.92-1.24,1.62-1.66,.7-.41,1.54-.62,2.5-.62s1.79,.21,2.48,.63c.69,.42,1.21,.97,1.55,1.65l-2.23,.68c-.19-.33-.45-.58-.76-.76s-.67-.26-1.05-.26c-.43,0-.83,.11-1.18,.33-.36,.22-.64,.52-.84,.92-.2,.4-.31,.85-.31,1.38s.1,.96,.31,1.36c.21,.39,.49,.71,.84,.93,.35,.23,.74,.34,1.17,.34,.27,0,.53-.04,.77-.14,.24-.09,.46-.22,.65-.37,.19-.16,.33-.34,.42-.54l2.23,.68c-.2,.44-.5,.84-.89,1.19-.39,.35-.85,.63-1.38,.82-.53,.2-1.12,.3-1.78,.3Z"/>
    <path class="cls-13" d="M86.07,268.71h-2.28v-4.93c0-.68-.13-1.19-.4-1.52-.27-.33-.63-.5-1.1-.5-.27,0-.56,.08-.87,.23-.31,.16-.58,.37-.82,.64-.24,.27-.42,.58-.54,.94v5.14h-2.28v-12.41h2.28v5.23c.33-.56,.78-1,1.34-1.31,.57-.31,1.18-.47,1.85-.47,.58,0,1.05,.1,1.41,.29,.36,.2,.65,.46,.85,.79,.2,.33,.34,.7,.42,1.11,.08,.41,.12,.83,.12,1.27v5.5Z"/>
    <path class="cls-13" d="M92.19,268.88c-.71,0-1.36-.12-1.94-.36-.58-.24-1.07-.57-1.48-.99s-.72-.9-.94-1.45-.33-1.12-.33-1.72c0-.84,.19-1.61,.57-2.3,.38-.7,.92-1.25,1.63-1.67,.71-.42,1.54-.63,2.51-.63s1.81,.21,2.5,.63,1.22,.98,1.59,1.67,.55,1.43,.55,2.23c0,.13,0,.27-.02,.41-.01,.14-.02,.26-.03,.35h-6.89c.05,.44,.18,.83,.4,1.16,.22,.33,.5,.58,.85,.76s.72,.26,1.11,.26c.45,0,.88-.11,1.28-.33,.4-.22,.68-.51,.83-.88l1.96,.54c-.22,.45-.52,.86-.93,1.21-.4,.35-.88,.63-1.42,.82s-1.14,.3-1.8,.3Zm-2.33-5.29h4.66c-.05-.44-.17-.83-.38-1.15-.21-.33-.48-.58-.82-.76-.34-.18-.72-.27-1.14-.27s-.78,.09-1.11,.27c-.33,.18-.61,.44-.82,.76-.21,.33-.34,.71-.38,1.15Z"/>
    <path class="cls-13" d="M98.73,268.71v-6.7h-1.17v-1.73h1.17v-.22c0-.62,.12-1.18,.37-1.68,.25-.5,.6-.9,1.06-1.19s1.01-.44,1.64-.44c.42,0,.82,.05,1.21,.16,.38,.11,.78,.25,1.19,.43l-.48,1.73c-.25-.14-.5-.23-.75-.3-.25-.06-.49-.09-.71-.09-.2,0-.39,.03-.54,.1-.16,.07-.29,.16-.4,.28-.11,.12-.19,.26-.24,.42s-.08,.32-.08,.49v.31h2.18v1.73h-2.18v6.7h-2.28Zm4.45,0v-6.7h-1.17v-1.73h1.17v-.54c0-.74,.12-1.37,.37-1.91,.24-.54,.59-.95,1.04-1.25,.45-.29,.97-.44,1.57-.44,.36,0,.73,.05,1.1,.14s.73,.22,1.1,.39l-.46,1.72c-.17-.09-.37-.17-.59-.23-.23-.06-.44-.09-.65-.09-.39,0-.68,.14-.88,.41s-.31,.67-.31,1.19v.63h2.18v1.73h-2.18v6.7h-2.28Z"/>
    <path class="cls-13" d="M113.11,268.88c-.71,0-1.36-.12-1.94-.36-.58-.24-1.07-.57-1.48-.99s-.72-.9-.94-1.45-.33-1.12-.33-1.72c0-.84,.19-1.61,.57-2.3,.38-.7,.92-1.25,1.63-1.67,.71-.42,1.54-.63,2.51-.63s1.81,.21,2.5,.63,1.22,.98,1.59,1.67,.55,1.43,.55,2.23c0,.13,0,.27-.02,.41-.01,.14-.02,.26-.03,.35h-6.89c.05,.44,.18,.83,.4,1.16,.22,.33,.5,.58,.85,.76s.72,.26,1.11,.26c.45,0,.88-.11,1.28-.33,.4-.22,.68-.51,.83-.88l1.96,.54c-.22,.45-.52,.86-.93,1.21-.4,.35-.88,.63-1.42,.82s-1.14,.3-1.8,.3Zm-2.33-5.29h4.66c-.05-.44-.17-.83-.38-1.15-.21-.33-.48-.58-.82-.76-.34-.18-.72-.27-1.14-.27s-.78,.09-1.11,.27c-.33,.18-.61,.44-.82,.76-.21,.33-.34,.71-.38,1.15Z"/>
  </g>
  <path id="ETH3109" class="cls-4" d="M455.03,105.81l-.62,1.81-.06,.4v.96l.28,1.13,.96,1.99,.28,1.02v.57l-.06,.51v.45l.74,1.02,.23,.51,.11,.62,.11,.57-.06,1.13,.06,.51,.23,.57,.23,.51,.51,.62,.91,.57,.06,.17-.28,3.74v1.08l.28,.74,1.3,2.44,.68,.79,.79,.68,.85,.4,.28,.4,.23,.85,.28,1.99,.34,.85,1.59,2.67,.34,.91,.34,2.1v1.13l-.11,1.13,1.19,1.25,.68,.68,.57,.74,1.53,2.78,.4,1.02,.23,1.02,.11,1.81,.17,1.36v.68l-.17,.68-.23,.57-2.16,3.23,.96,1.08,.4,1.02-.06,1.02-.4,1.02-1.13,1.93-.28,.85v.85l.45,1.02,1.19,1.47,.23,.45v.85l-.4,1.87v.96l.85,2.78,.06,.51-.17,.74-.45,.79-.17,.79-.4,4.82-.11,.74-.74,1.76-.11,1.08,.11,.96,.23,1.02,.11,1.02-.06,.79-.28,.23-.57-.06-.85-.23-.79-.11-.91-.06-.91,.23-.62,.51-.4,.96,.06,.79,.45,.68,.85,.62,1.13,.68,.79,.57,.34,.79-.06,1.47-.28,.79-1.08,1.53-.34,.74-1.02,1.36v.51l.45,.85,.17,.45-.51,1.08h-1.47l-3.18-.91-1.53,.4,.11,1.53,1.42,3.63,.06,1.99-.23,1.93-.74,1.76-1.36,1.36-.79,.57-.51,.62-.11,.57,.51,.62,.4,.17,1.02,.28,.51,.23,1.36,1.08-.06,1.81-1.02,1.76-1.25,1.7-.91,1.47-1.64,1.36,.11,7.77-.4,1.13-1.19,.74-3.86,1.36-1.3,.79-1.81,1.3-.79,.17-.96-.51-1.36-2.1-1.13-.4-.57,.23-1.93,1.93-.85,.06-.68-.17-.45-.34-.28-.4-.96-2.1-.06-.62,.11-.74-.11-2.21,3.23-5.27,.45-1.25-.11-1.13-.79-.62-1.99-.4-.79-.62-.51-1.25-.34-1.42-.11-1.08,.23-.34,.62-.06,.91,.06,3.23-.23,.51-.23,1.87-1.36,.96-.17,1.3,.45h.06l-2.21-2.33-.23-.34,.11-.91-.79-.45-1.13-.23-.85,.06-1.36-.28-1.25-1.59-1.36-2.44-1.81-2.67-4.37-1.93-6.86-1.42-2.44-1.19-1.25-1.53-.62-1.76-.28-1.87-.06-1.93-.11-.23-.68-1.02-.45-.4-.68-.51-2.38-.91-.74-.68-.06-1.13,1.47,.28,1.47-.34,2.5-1.3,.45-.57,1.64-7.71,.06-1.42-.68-.51-4.37-.79-8.85,.45-.34,.28-.23,.4-.96,4.14-.28,.4-.28,.28-.4,.17-.17,.23v.51l.28,.79,.06,.4-.11,.45-.51,.74-.85,.4-.96,.17h-.91l-.96-.28-.74,.11-1.02,.34-1.08,.23-.45,.4-.34,.79-.96,.96-.62,.4-2.27,.57-5.39,2.55-1.76,1.25-.34,.11-1.02,.11-.28,.17-.57,.74-.34,.34-2.67,1.47-.34,.11-.96-.17-.57,.11-1.02,.57h-.62l-3.52-2.61-.57-.68-.23-.45-.85-1.02-.79-1.08-.51-.4-3.63-1.64-1.25-.34-1.3-.17-.57,.17-.34,1.08-.4,.45-.4,.06-.28-.23-.45-.62-.17-.45v-.85l-.06-.45-.28-.4-.62-.28-.62-.17h-.51l-.68,.11-.57-.23-.91-.96-.51-1.3,.45-1.13,.57-1.13-.11-1.02-.57-.28h-2.55l-.74-.28-.74-.4-1.08-.91-5.44-1.02-1.53-.57-.79-.17-1.76-.11-.74-.28-.68-.68h-.34l-.91,.23-.34,.06-4.31-.4h-1.76l-.74-.28-.51-.74-.06-.68,.11-.68v-.62l-.4-.57-.45-.17-.4,.06-1.87,.91-.91-.06-.91-.62-.79-.96-.79-1.19-.57-1.64-.28-2.16,2.5-5.61-.51-.68h-.85l-.74,.28-.51,.51-.34,.79h-.11l-.11-.68v-1.08l.11-1.13,.91-2.16v-.57l.11-.57,.51-.79,.62-.79,.57-.62,1.99-1.53,1.02-1.13,.96-1.64-1.13-2.44,.11-.51,.34-.68-.11-.79-.17-.79-.11-.68,.4-.85,.68-.96,.57-1.13,.11-1.53-2.33-2.33-.62-.4-.91-.79,.34-.79,.74-.74,.45-.62-.06-.34-2.21-3.35-1.25-1.3-.45-.74-.17-3.46,.17-2.55-.23-.4-.91,.28-1.47,1.08-1.47,1.3-1.59,1.7-.68,.45-.79,.06-.74-.34-.57-1.76-.28-1.93-.4-.91-.91-1.13-1.3-2.16-.17-.23-1.59-1.36-.51-.51-.45-1.02-.34-.45-.91-.57-.17-.17-.62-.17h-1.08l-.96-.11-.45-.74-.4-.06h-1.13l-1.59-.17-.23,.23-1.02,2.5-.62,.85-4.76,3.74-.91,.96-.79,.68-.79,.11-1.02-.11-1.13,.17-2.1,.68h-.79l-.91-.45-.96-.79-1.02-1.13-1.47-3.46-.96-.85,.11-.51,.34-.34,1.42-.85,.74-.85,.28-.91,.4-2.1,.68-1.7,.28-.45,.34-.34,.85-.4,.4-.34,.34-.51,.11-.51,.11-1.08,.4-1.08,7.09-11.91,.34-.4,.34-.11,.74-.06,.28-.17,.4-.4,.45-1.81,.11-.28,.57-.28,.96-.34,11.4-1.64,.79,.06,.79,.51,1.02,.28,.62-.28,.34-.74,.74-4.31-.06-.96-.11-.57-.91-1.53-.06-.85,.45-.68,.57-.57,.34-.57v-.34l-.45-.91-.06-.79,3.69-12.76,5.61-8.11,.34-1.13,.11-2.21,.11-.74,1.59-3.91,.51,.4,2.72,5.9,.51,.57h.62l4.93,1.3,.74,.34,4.2,3.91,2.1,1.25,.91,1.08,.68,.28,4.42,.62h.79l.51-.34,.45-.45,2.04-1.08,1.08-.28,1.25-.11,.91,.23,1.13,.45,1.02,.68,.57,.74,.34,.28,.57,.11,6.52,.23,1.08-.23,5.27-2.5,.57-.45,.57-.62,.34-.74,.91-2.72,.91-.68h1.47l4.2,1.02,4.99,2.55,1.3,.23,.45-.17,.79-.4,.74-.51,.34-.45,.62-.68,1.36,.11,1.87,.28,2.21,.11,3.74-.51,.74-.4,.62-.62,.34-.62,.4-.57,.62-.28,.45,.11,.34,.4,.28,.68,.17,.85-1.13,2.67,.23,.17,3.18-.79,.85-.4,.62-.11,.74-.06,2.67,.28,.11,.28,.51,1.13,.28,1.7,.23,.68,1.59,.74,8.39,8.39,1.02,1.25,.17,1.19v.74l.06,.96,.17,.85,.28,.57,.51,.34,.68,.11h1.93l4.08-.74,.74,.28,.34,.74,.11,1.19,.28,1.25,.45,1.42,.34,1.7-.06,2.16-2.78,5.1-.17,1.3,.28,1.36,1.53,3.91,.4,4.25,.17,.85,.4,1.02,.51,.96,.68,.57,.34,.06,2.78-.11,.17-.96,1.13-.28,4.76,.17,.34,.57,.11,.85-.06,.79-.23,.62,.06,.11,3.4-2.04,.4-.11,2.72-.17,1.3-.17,1.25-.34h0Z"/>
  <path id="ETH3110" class="cls-4" d="M463.31,23.01l-.62,.4,.11,.85-.06,1.02-.28,.62-.28,.34-.23,.17-1.02,.11-2.84-.28-1.53-.45-.62-.11-2.61,.51-1.19,.74-1.08,.85-.23,.34v.34l.85,.45,2.33-.17,.57,.51-.11,.51-1.7,1.87-.96,1.99-.17,.74,.28,.23,1.19,.06,.68,.11,.57,.34-1.25,1.42-.23,.34,.28,.68,.57,.06,.57-.23,.45-.11,.45,.4,.28,.74,.11,.79,.06,.62-.17,1.47v.51l.23,.45,.57,.45,.23,.79,.06,2.27-.68,3.63-.17,1.7,.28,1.42,.51,1.36,.34,1.93-.17,1.64-1.13,.68-1.42-.68-.28,.51-.91,3.01v.96l.62,1.59,.11,.96-.11,.96-.74,3.91,.06,.51,.4,.79,.57,.62,.68,.4,.23,.45,.62,2.95,.23,.4,.45,.57v.23l-.17,.62-.45,.68-.45,.51-.51,.06,.17,1.81v.79l-.17,1.08v.85l-.4,1.08,.06,.17,1.13,.96,.57,.28,.85,.11,.79,.23,.57,.57,.96,1.59,.23,1.25-.17,1.81-.4,1.76-.62,1.13-1.3,1.42-.79,1.42-.45,1.64-.17,1.93,.11,.62,.57,1.19,.11,.79v.91l-.11,.91-.28,.74-.68,.62-1.25,.34-1.3,.17-2.72,.17-.4,.11-3.4,2.04-.06-.11,.23-.62,.06-.79-.11-.85-.34-.57-4.76-.17-1.13,.28-.17,.96-2.78,.11-.34-.06-.68-.57-.51-.96-.4-1.02-.17-.85-.4-4.25-1.53-3.91-.28-1.36,.17-1.3,2.78-5.1,.06-2.16-.34-1.7-.45-1.42-.28-1.25-.11-1.19-.34-.74-.74-.28-4.08,.74h-1.93l-.68-.11-.51-.34-.28-.57-.17-.85-.06-.96v-.74l-.17-1.19-1.02-1.25-8.39-8.39-1.59-.74-.23-.68-.28-1.7-.51-1.13-.11-.28-2.67-.28-.74,.06-.62,.11-.85,.4-3.18,.79-.23-.17,1.13-2.67-.17-.85-.28-.68-.34-.4-.45-.11-.62,.28-.4,.57-.34,.62-.62,.62-.74,.4-3.74,.51-2.21-.11-1.87-.28-1.36-.11-.62,.68-.34,.45-.74,.51-.79,.4-.45,.17-1.3-.23-4.99-2.55-4.2-1.02h-1.47l-.91,.68-.91,2.72-.34,.74-.57,.62-.57,.45-5.27,2.5-1.08,.23-6.52-.23-.57-.11-.34-.28-.57-.74-1.02-.68-1.13-.45-.91-.23-1.25,.11-1.08,.28-2.04,1.08-.45,.45-.51,.34h-.79l-4.42-.62-.68-.28-.91-1.08-2.1-1.25-4.2-3.91-.74-.34-4.93-1.3h-.62l-.51-.57-2.72-5.9-.51-.4,.68-1.7-.11-1.93-.62-1.99-.23-.96v-.96l.17-.85,3.4-10.61h.74l.23-.74,.51-.4,.62-.17h.79l.51-.11,1.19-.57,.74-.11h1.7l.34-.11,.62-.34,.34-.11h2.61l1.19,.17,2.5,.74,1.25,.17,.23,.11,.68,.96,.57,.4,.74,.11,.23-.06,.51-.45h.34l.68,.06,.28-.06,.45-.34,.45-.45,.28-.68,.06-.79,.06-.96,.11-.79,.34-.74,.57-.85,1.08-.85,1.3-.28,2.78,.06,.79-.28,.57-.06,.91,.79,.68,.4,1.47,2.1,.57,.57,.11,.34,.06,.57v.91l.11,.4,.51,.28,1.53,1.3,.17,.23,.28,.74,.23,.96,.23,.45,.85,.28,.4,.17,.28,.28,.11,.4,.06,.96,.17,.68,.4,.45,.68,.45,.4-.45,3.52-8.51,7.26-17.53,1.59-3.74,.62,.57,.45,.68,.74,1.42,.17,.17,.34,.06,.17,.11v.57l.23,.68,.17,.17,.45,.06,.34,.28,.11,.68,.23,.34,.28,.28,4.14,1.7,.68,.11,2.1-.4,.91,.06,.62,.28,.34,.45,.34,.79,.17,1.08,.17,.34,.4,.34,.79,.57,.28,.51,.34,1.47,.28,.68,.45,.57,.62,.51,1.99,1.08,.34,.28,.23,.85,.23,.34,.45,.34,.34,.06,.28-.11,1.87,.06,2.89-.34,1.42-.4,2.33-1.19h.74l.68,.23,.68,.06,.68-.06,.74-.17,2.27-.91,1.64-.17,.74-.51,1.25-1.13,1.53-.74,.79-.51,.57-.68,.11-.74-.11-.74,.11-.62,.45-.51,.06,.17,1.36,.11,1.08,.28,.4,.17,.79,.51,.74,.68,.68,.79,.51,.85,1.08,3.23,.79,1.47,.96-.06,.79-1.3,.51-.45,.96-.17,2.04,.34,.74-.06,3.06-.85,1.53-.74,.68-.91,.34-.79h.62l.74,.4,.57,.51,.79,.96,.45,.28,1.93,.62,1.02,.06,2.16-.34,1.19-.06,1.13,.4,1.08,.68,1.99,1.7,.57,.28,.68,.11,.74-.23,1.19-.96,.68-.17,.74,.11h0Z"/>
  <path id="ETH3111" class="cls-4" d="M530.07,157.31l-.45,.23-.62,.4-.68,.28-1.13,.11-15.03-.11-.85,.23-.74,.79-.28,.96-.17,1.08-.23,.96-1.08,1.76-2.89,2.89-1.3,1.59-.34,.79-.11,.74,.23,1.59v1.08l-5.44,20.87,.06,.96,.28,.96,.62,.57,1.7,.68,.34,.51-.57,.85-4.76,4.14-2.1,2.38-3.35,5.22-.57,1.42-.68,2.78-.34,2.67-.96,1.02-1.02,.57-1.19,.28-3.12,.51-1.3,.57-1.13,.91-1.19,1.25-1.02,1.25-2.55,4.2-.51,.68-2.38,2.33-.28,.57-.11,.57-.06,.85-.45,1.25-.85,.74-.96,.62-1.25,.11-1.36,2.38-.74,.79-2.33,1.59-.45-.17-.23-.85,.91-2.5v-1.7l-.68-.74-1.25-.23-1.64-.06,.11-.74-.17-.4-.34-.34-.34-.45-.17-.68-.28-1.7-.28-.62-.74-.4h-1.02l-2.04,.23,.91-1.47,1.25-1.7,1.02-1.76,.06-1.81-1.36-1.08-.51-.23-1.02-.28-.4-.17-.51-.62,.11-.57,.51-.62,.79-.57,1.36-1.36,.74-1.76,.23-1.93-.06-1.99-1.42-3.63-.11-1.53,1.53-.4,3.18,.91h1.47l.51-1.08-.17-.45-.45-.85v-.51l1.02-1.36,.34-.74,1.08-1.53,.28-.79,.06-1.47-.34-.79-.79-.57-1.13-.68-.85-.62-.45-.68-.06-.79,.4-.96,.62-.51,.91-.23,.91,.06,.79,.11,.85,.23,.57,.06,.28-.23,.06-.79-.11-1.02-.23-1.02-.11-.96,.11-1.08,.74-1.76,.11-.74,.4-4.82,.17-.79,.45-.79,.17-.74-.06-.51-.85-2.78v-.96l.4-1.87v-.85l-.23-.45-1.19-1.47-.45-1.02v-.85l.28-.85,1.13-1.93,.4-1.02,.06-1.02-.4-1.02-.96-1.08,2.16-3.23,.23-.57,.17-.68v-.68l-.17-1.36-.11-1.81-.23-1.02-.4-1.02-1.53-2.78-.57-.74-.68-.68-1.19-1.25,.11-1.13v-1.13l-.34-2.1-.34-.91-1.59-2.67-.34-.85-.28-1.99-.23-.85-.28-.4-.85-.4-.79-.68-.68-.79-1.3-2.44-.28-.74v-1.08l.28-3.74-.06-.17-.91-.57-.51-.62-.23-.51-.23-.57-.06-.51,.06-1.13-.11-.57-.11-.62-.23-.51-.74-1.02v-.45l.06-.51v-.57l-.28-1.02-.96-1.99-.28-1.13v-.96l.06-.4,.62-1.81,.68-.62,.28-.74,.11-.91v-.91l-.11-.79-.57-1.19-.11-.62,.17-1.93,.45-1.64,.79-1.42,1.3-1.42,.62-1.13,.4-1.76,.17-1.81-.23-1.25-.96-1.59-.57-.57-.79-.23-.85-.11-.57-.28-1.13-.96-.06-.17,.4-1.08v-.85l.17-1.08v-.79l-.17-1.81,.51-.06,.45-.51,.45-.68,.17-.62v-.23l-.45-.57-.23-.4-.62-2.95-.23-.45-.68-.4-.57-.62-.4-.79-.06-.51,.74-3.91,.11-.96-.11-.96-.62-1.59v-.96l.91-3.01,.28-.51,1.42,.68,1.13-.68,.17-1.64-.34-1.93-.51-1.36-.28-1.42,.17-1.7,.68-3.63-.06-2.27-.23-.79-.57-.45-.23-.45v-.51l.17-1.47-.06-.62-.11-.79-.28-.74-.45-.4-.45,.11-.57,.23-.57-.06-.28-.68,.23-.34,1.25-1.42-.57-.34-.68-.11-1.19-.06-.28-.23,.17-.74,.96-1.99,1.7-1.87,.11-.51-.57-.51-2.33,.17-.85-.45v-.34l.23-.34,1.08-.85,1.19-.74,2.61-.51,.62,.11,1.53,.45,2.84,.28,1.02-.11,.23-.17,.28-.34,.28-.62,.06-1.02-.11-.85,.62-.4,.91,.17h.51l1.87-.57h.68l3.4,.85,1.64,.62,1.47,.91,5.44,5.1,2.21,1.13,4.03,1.93,1.02,.4,3.4,.45,2.61,.96,2.27,1.64,7.94,9.13,5.61,9.98,1.13,1.13,11.68,7.49,6.81,5.67,1.47,1.53,1.3,1.7,1.19,1.99,2.95,6.41,1.93,2.78,2.95,1.93,2.16,.91,2.1,1.19,1.81,1.53,2.5,4.25,3.06,4.2,1.81,1.93-2.27,3.06-1.19,2.5-4.99,6.92-.62,1.42-.28,.51-.91,.4-.4,.45-1.53,2.89-4.54,6.52-.45,.4-.51,.4-.51,.28-.45,.11-.28,.23-.23,.57-.4,.51-1.47,.62-.57,.4-.57,1.19-.51,2.95-1.13,3.52v2.1l1.02,4.42,.34,3.29-.45-.23-1.08,.11-.91,.57-.68,.85-.57,.96-.28,1.59,.62,1.7,1.3,1.42,1.53,.85,.51-.4v.91l-.23,1.64-.68,1.08,.23,.23h0Z"/>
  <path id="ETH3130" class="cls-4" d="M284.49,289.45l.34,.74-.34,1.13,.34,.45,2.61,1.42,.62,.62,.28,.74-.11,.85-.74,2.61-.06,.51v1.02l-.45,1.02-.11,.91-.11,.79-.06,.4,.11,.4,.34,.68,.11,.34-.28,.91-.91,.11-2.16-.45-.91,.17-1.59,.74-.96,.06-.91-.23-.96-.45-.96-.51-.62-.68-.57,.68-.79,.51-.91,.17-.74-.28-.45,.91-1.02,.34-2.27-.11-1.36,.06-1.13,.23-1.08,.45-1.08,.85-.96,.85-.79,.57-.85,.34-1.19,.23-1.25,.06-1.19-.23-1.08-.51-1.02-.79-1.13-.74-1.42-.34h-1.47l-1.36,.28-1.87,.74-.96,.28-.96-.11-.85-.62-1.13-.96-1.08-.62-.85,.34v-1.19l-.17-.79-.4-.62-.51-.34-.62,.28-.68,.17-.74-.51-1.02-1.3-1.76-1.36-.34-.34v-3.52l-.28-1.3-.62-1.08-4.71-4.76-1.13-.68-1.13-.17-.4-.11-1.87-1.42-1.25-1.7-.45-.57-.4-.17-1.19-.34-1.02-.68-.4-.11-2.44,.23-.79-.23-.4-.28-.57-.68-.34-.34-.4-.17-.68-.23-.34-.28-.62-.23-1.02,.06-1.59,.34-.34,.17-.96,.57-.45,.06-2.1-.57-.68-.62-.62-.68-.57-.51-.28-.11-1.25-.17-1.08-.45-.34-.06-1.19,.28-.23,.11-.23,.28-.51-.06-.79-.34-1.02-.11-.28-.17-.4-.91-.68-.34-.28-.62-.96-2.55,.17-.4,.45-.57,.23-.4,.34-.45,.17-.79,.23-.4,.45-.62,2.16-2.21,.62-1.25,1.13-.23,.68-.28,.45-.4,.28-.51,.11-.79-.11-.17-.51-.4-.11-.17,.06-.96,.45-.74,.34-.28,.62-.28v-.51l-.85-.4-.23-.45-.57-.62-.11-.45,.06-.28,.34-.74,.11-.45-.4-.4-.06-.34,.23-.4v-.68l.23-.57,.51-.23,.57-.11,.28-.28-.17-.34,1.08-.96,.68-.11,4.08,.91,.4-.11,.51-.4,.57-.17,.51,.11,2.55-.34,.34-.17-.17-.45h.74l.62,.34,.57,.45,.57,.28,.74-.11,.57-.34,.51-.23,.79,.11,1.19,1.02,.74,1.3,.91,1.08,1.7,.17,.57-.11,1.59-1.3,.4-.28,.57-.28,.68-.17,1.25-.17h2.16l.74-.17,.74-.45,3.74-3.4,.79-.85,.45-.91,.17-.79,.91,.45,.68,.68,.45,.34,.45-.11,1.81-1.3,.91-.34,.96,.11,1.13,.51,1.93,1.3,3.29,3.18,1.87,1.47,3.8,1.93,1.08,.91,1.36,1.99,.79,.79,1.13,.51,2.21,.45,.74,.57,.62,1.19,.68,.96,1.02,.45h1.19l2.72-.45,2.16-.06,2.04,.23,1.19,.85-.34,.57-.91,.45-1.93,.62-2.27,1.3-1.7,.74-.34,.45,.34,.4,1.81,.62,.23,.4-.23,.45-2.38,3.4-.62,1.59,.06,1.81,.79,1.64,1.19,1.13,1.36,1.08,1.25,1.25,.4,.79,.23,1.81,.28,.79,.57,.45,3.8,1.36,.51,.45-.28,.62-.51,.45-.62,.74-.17,.62,.68,.28,1.13,.06,.51,.11,.91,.4,.23-.11,.62-.45,.74-.4,.79-.51,.45-.68-.06-.85h0Z"/>
  <path id="ETH3132" class="cls-4" d="M323.45,236.2l-.68,.06-.34-.11-.34-.23-.51-.34-.34-.45,.34-.45,1.64-.85,.45,.28,.68,.79,.62,.34-.28,.34-.4,.28-.85,.34h0Zm-7.15-3.46l.68,.11,.4-.17,.51,.06,1.08,.34,.4,.23-.57,.57v.17l.28,.45,.45,.45,.45,.17,.51,.06,.45-.17-.28,.68-.23,1.19-.06,1.13,.11,.85,.57,.23,.34,.51v.51l-.57,.23,.45,.68,.17,.4,.11,.4-.74-.06-.57-.34-.23-.34,.06-.62-.06-.34-.4-.45-.91-.74-.4-.57-.91,.96-.57,.34-.79,.06-.34-.45-.23-.11-.74,.11h-.68l-.34,.28-.74-.4-.28-.28-.17-.4,.23-.28v-.45l-.17-.96v-.45l.28-.51,.62-.74,.23-.4,.06-.57v-.68l.06-.62,.28-.4,.57-.06,1.59,.4h0Zm12.7-14.63l.85,1.76-1.3-.23-.45,.23-.17,.79-.11,.06-.45-.74-.91-3.06,.4-1.47,.23-.57,.45-.51,.74-.51,.68-.17,.68,.17,1.25,.91,.23,.34-.06,.45-.28,.28-1.47,.68-.4,.74,.11,.85h0Zm22.8-34.37l-.74,2.1-.4,.74-.4,.51-.45,.23-.74-.06-3.91-1.19-.79-.62-2.04-.85-1.64-1.02-.68-.06-3.29,1.7-.51,.4-.85,1.7-.79,.17-.62-.17-.62-.28-.68-.23-.23-.23,.11-.45,1.3-3.74-.23-.11-2.33,.23-.79,.34-.68,.57-1.42,1.47-.57,.68-1.99,3.29-1.25,1.42-3.35,2.44-1.53,.85-.74,.28-.74,.06-.68-.51h-.45l.34,6.75-.23,3.63,.23,.79,.4,.91,.06,.79-.34,.62-.74,.57-.06,.17,1.19,1.02,2.55,3.01,.62,.45,1.13,1.13,.23,2.1-.45,2.72-1.08,3.12-5.5,7.2-.85-.34-.51-2.38-.62-.74-1.19,.11-.45-.06-.34-.45-1.36-2.38-.34-.74-.28-.51-.34-.17-.74,.06-1.47-.11-1.13,.06-.45-.06-.45-.23-.4-.45,.06-2.16-.11-.45-.74-1.64-.51-.68-.51-.06-1.59,.28-1.87-1.93-5.16-6.3-7.6-7.6-1.42-1.08-.79-.45-.74-.11h-.74l-1.76-.28-1.25-.06-2.95,.45-.96-.06-.4-.62-.06-.91,.06-.96-.23-.4-.62-.23-4.82-.34-.17,.34,.34,.91,.57,.57,.28,.57-2.21,6.98-1.42,2.67-4.25,4.59-1.19,.17-.96-.51-1.76-1.53-.85-.62-.68-.11-1.42,.23h-.85l-.91,.57-.79,7.09-1.47,6.64-.28,.91-.34,.68-.4,.68-.51,.68-.74,.51-1.08,.11-7.03-.62-1.76-.06-.62-12.48,1.19-5.67,4.65-13.33,2.27-2.04,.85-1.3,.06-.4-.17-.96,.06-.4,.57-.85,.34-1.59-.06-1.76-1.87-8.45-.11-1.59,.28-1.36,3.23-4.59,1.47-2.89,.57-.79,.68-.57,4.54-3.18,.62-.23,.45,.17,4.59,4.08,1.13,.68,.45,.45,.28,.57-.17,1.19,.06,.57,.4,.11,.28-.28,.51-1.19,.45-.4,.62-.06,.51,.11,.4-.06,.45-.62,.23-.68v-.45l.17-.51,.68-.62,2.04-1.59,.68-.91,.28-1.3-.23-.57-1.13-.85-.34-.51v-.4l2.5-7.37,.17-1.19-.51-.79-.62-.74-.4-1.08,.11-.79,4.76-10.61,.17-.74-.11-.74-.79-1.59-.28-.79,.06-1.53-.28-1.47,.06-.79,.28-.91,.4-.96,.51-.85,.57-.79,1.47-.91,3.35-1.3,1.13-1.3,.06-.4,.06-.68,.96,.85,1.47,3.46,1.02,1.13,.96,.79,.91,.45h.79l2.1-.68,1.13-.17,1.02,.11,.79-.11,.79-.68,.91-.96,4.76-3.74,.62-.85,1.02-2.5,.23-.23,1.59,.17h1.13l.4,.06,.45,.74,.96,.11h1.08l.62,.17,.17,.17,.91,.57,.34,.45,.45,1.02,.51,.51,1.59,1.36,.17,.23,1.3,2.16,.91,1.13,.4,.91,.28,1.93,.57,1.76,.74,.34,.79-.06,.68-.45,1.59-1.7,1.47-1.3,1.47-1.08,.91-.28,.23,.4-.17,2.55,.17,3.46,.45,.74,1.25,1.3,2.21,3.35,.06,.34-.45,.62-.74,.74-.34,.79,.91,.79,.62,.4,2.33,2.33-.11,1.53-.57,1.13-.68,.96-.4,.85,.11,.68,.17,.79,.11,.79-.34,.68-.11,.51,1.13,2.44-.96,1.64-1.02,1.13-1.99,1.53-.57,.62-.62,.79-.51,.79-.11,.57v.57l-.91,2.16-.11,1.13v1.08l.11,.68h.11l.34-.79,.51-.51,.74-.28h.85l.51,.68-2.5,5.61,.28,2.16,.57,1.64,.79,1.19,.79,.96,.91,.62,.91,.06,1.87-.91,.4-.06,.45,.17,.4,.57v.62l-.11,.68,.06,.68,.51,.74,.74,.28h1.76l4.31,.4,.34-.06,.91-.23h.34l.68,.68,.74,.28,1.76,.11,.79,.17,1.53,.57,5.44,1.02h0Z"/>
  <path id="ETH3133" class="cls-4" d="M418.85,230.53l.28,.17,.96-.06,.79,.06,.96,2.16,.23,.68v.74l-.11,.51-.28,.85,.11,.45-.79-.06-.79-.23,.11,.68,.57,1.42-.06,.57-.45,.28-.57-.06-.51,.06-.23,.74-.45,.62-.74-.11-.74-.4-.45-.34-.74-.91-.34-.4-.4-.34-.85-.28-.34-.34-.28-.34-.34-1.13-.57-.91,.06-.28-.34-.51,.28-.79,.51-1.02,.68-.91,.62-.51,.45-.17,1.53-.34,.45-.06,.17,.17,.28,.51,.4,.06,.79-.79,.11,.57h0Z"/>
  <path id="ETH3134" class="cls-4" d="M429,442.19l.45-.4-.28-.28,3.06-1.64,3.23-1.42,1.47-.96,1.19-1.53,5.16-8.85,1.13-2.38-.51-1.59-.06-.74,.17-.79,1.19-3.18,.79-3.35,.28-.51,1.36-1.76,5.96-13.78,.23-.96,.11-2.27,.74-4.14,1.08-3.06,.79-3.12,1.42-2.78,2.33-6.01,3.57-5.16,.79-.62h.57l1.08,.57,1.36,.57,2.72,.57,.79-.11,1.93-.68,.34-.06,.96,.06,1.19-.23,1.53-.17,2.84-.62h1.76l.57-.34,1.02-.17,.62-.28,5.96-5.39,5.5-3.06,2.78-2.04-1.36-3.23-.28-1.02-.06-1.13,.06-3.01-.51-7.2,.28-1.99,.23-.96,.11-.96,.06-.96-.06-.96-.17-.79-.34-.91-.23-.85,.11-1.59-.28-1.81,.28-.85,1.47-2.67,.57-.79,2.21-2.16,1.87-2.55,.79-.74,.91-.51,1.81-.11,1.81,.85,1.81,1.25,4.71,2.5,1.87,.28,.91,.28,.85,.45,.79,.62,6.13,6.3,.45-.91,.57-.51,1.42-.96,.62-.74,1.25-2.5,1.08-1.13,1.59-.96,1.47-.17,.62,1.25h.91l.85-.23,.85-.34,.85-.45,.23-.17,1.02-1.02,.23-.4,.34-.68,.45-.74,.4-.68,.68-2.67,1.02-1.59,.4-.85-.4-.74,.34-.45,.06-.4-.17-.85,.11-.4,.4-.91,.17-.96,.4-.57,1.25-.68-.06-.45,.17-.28,.45-.4,.45-1.19,.51-.79,.23-.4,.06-.51-.06-.85,.06-.4,.17-.34,.74-1.13,.51-1.76,.17-1.81-.45-2.38-.28-.28-11.57-4.54-.34-.62-.28-1.13-.34-1.99-.06-.85,.11-.74,.51-1.59,1.76-3.86,.62-2.16-.23-1.7-.62-1.08-.4-.91-.11-.96,.51-9.24,.4-2.16,.74-1.81,2.1-3.01,.51-1.02,.06-1.02-.23-2.21,.28-.91,1.42-1.87,1.59-1.64,3.57-3.06,2.55-.68,1.47,2.72,.51,.51,4.48,.85,2.16,.91,1.13,1.59,1.13,6.41,.62,1.99,.91,1.81,1.19,1.36,1.25,.28,1.36-1.59,1.47-5.56,1.02-1.42,.79-.45,3.35-.85,.62-.51,.23-.91,.06-1.02,.34-1.81,.06-1.08-.11-1.02-.23-.96-.4-.74-1.93-1.99-.4-1.76,1.19-3.52-.28-1.59-.74-.62-1.64-1.25-.74-.68-2.61-2.89-2.33-3.69-.68-1.53-.11-.68,.11-1.02-.17-.28-.68-.74-.45-.74-1.25-3.63-.11-.57-.06-.91-.11-.34-2.38-4.88-1.25-1.76-1.36-1.36-1.19-.28,.23-3.74-.45-1.64-1.53-.45-1.42-1.59-1.87-.68-1.93,.23-1.76,1.13-4.37,4.42-.68,.11-1.02-.34-2.89-1.59-1.02-.28-.96,.23-1.81,1.19-.74-.06-1.36,.28-.85,2.16-.34,2.55,.23,1.7-.96,.23-.96-.11-.79-.34-.57-.79-.45-.51-.85-.17-.96,.11-.91,.23-.74,.4-1.3,1.13-.68,.34-.85-.06-2.89-1.02-3.12-.62-1.59-.06-1.47,.4-.4,.23-1.02,1.08-.79,.68-.85,.51-.85,.4-1.81,.68-.79,.4-.74,.51-.68,.57-.34,.23-.85,.06-.4,.11-.4,.17-1.19,.79-1.64,.57-.96,.23-.79,.06-.85-.28-.57-.57-.34-.79-.23-.96,.17-.79,.68-.06,1.64,.34,.96-.06,.96-.23,.51-.51-.4-.79-1.76-1.08h-1.76l-1.87,.4h-2.1l-.45-.06-.34,.17,.34-2.67,.68-2.78,.57-1.42,3.35-5.22,2.1-2.38,4.76-4.14,.57-.85-.34-.51-1.7-.68-.62-.57-.28-.96-.06-.96,5.44-20.87v-1.08l-.23-1.59,.11-.74,.34-.79,1.3-1.59,2.89-2.89,1.08-1.76,.23-.96,.17-1.08,.28-.96,.74-.79,.85-.23,15.03,.11,1.13-.11,.68-.28,.62-.4,.45-.23,.23,.4,.96,.34,4.48,.91,.23,.45,.23,.17,.28,.06,.4-.34,.28-.11,2.1-.06,1.08-.28,1.13-1.19,1.02-.34,2.1-.23,1.93,.45h.74l.51-.11,1.3-.62,1.36-.06,1.19-.4,.91,.11,.57,.23h.57l.79-.4,2.5-1.64,3.4-1.02,1.76-.17,2.67,.68h.91l.74,.28,.96,2.1,.62,.57,.85,.17,1.53,.17,.96,.28,.45,.06,.57-.23,.4-.45,.4-.34,.57,.23-.45,.85-.4,1.53-.28,.68-.62,.51-1.59,.68-.57,.62-.34,.74-.11,.68-.23,.57-.62,.62-1.36,1.08-.45,.62-.34,.96-.34,1.53-.28,.79-.45,.62-.74,.4-.74,.23-.51,.4,.06,.79,.74,1.76,1.02,1.59,2.1,2.04,.57,.74,.4,1.08,.51,3.46,.68,2.5,1.08,2.33,.96,1.19,3.63,2.38,.91,.91,.68,1.13,.45,1.25,.34,1.3,.68,1.76,1.08,1.08,1.36,.51,1.76,.34,1.36,.62,.74,1.25,1.08,6.13,.57,1.47,.79,.91,1.02,.28,.34,.17,.34,.34,.34,.85,.28,.4,.34,.34,.79,.51,.34,.34,.85,1.76,.23,.68,.06,1.3,.17,.68,.51,.62,4.88,2.95,.68,.06,.91-.34,.62-.06,.57,.28,2.89,2.67,3.35,3.12,7.49,6.81,1.47,.91,22.97,7.6,19.96,6.64,13.33,4.42,9.53,3.23,12.65,4.31,9.53,3.23,15.82,5.33,5.56,1.87,2.21,1.13h37.77l-5.5,5.39-7.37,7.15-3.63,3.57-9.19,8.9-3.69,3.57-7.32,7.15-1.87,1.81-7.32,7.09-5.5,5.39-7.32,7.15-4.65,4.71-6.92,7.15-6.86,7.15-12.19,13.33-12.14,13.38-8.11,8.9-2.16,2.33-2.95,3.23-1.13,.45-7.88-.45-9.81-.57-17.92-1.02-1.36,.34-3.29,1.13-11.97,2.78-15.48,7.37-6.01,4.93-.51,.79-.51,1.25-.68,2.67-.57,1.19-1.13,1.3-1.42,.96-1.59,.62-14.18,2.38-4.42,.79-6.13,.06-1.19,.28-1.3,.68-2.16,1.7-2.67,1.64-.68,.57-.23,.74v1.19l-.17,.45-.57,.45-.51,.74-1.81,1.02-1.7-.34-1.64-.85-1.81-.57-1.59,.91-.57,.11-.51-.11-1.02-.4-.57-.06-3.06,.74-.96,.06-1.93,.57-8.05,.45-1.99-.23-1.87-.74-1.64-1.3-2.44-3.4-.96-.91-.62-.4-1.81-.62-.68-.34-.4-.4-.62-1.13-.91-1.08-2.27-1.53-.85-1.13-2.38,1.59-12.02,4.59-.23,.23-.17,.62-.23,.17-6.81,2.38-.68-.11v.4l-.17,.23-1.76,.85-10.1,4.88-.79,.96-1.81,4.76-.62,1.13-.68,.96-5.44,4.99-1.02,1.19-.79,2.5-.62,1.02-1.25,.06-.57-.4-.28-.51-.23-.51-.28-.45-1.19-.34-4.71-.17,.34-.68-.17-.4-.51-.06-1.7,1.02h-1.42l-1.47-.28-3.4-1.59h0Z"/>
  <path id="ETH3135" class="cls-4" d="M551.73,206.08l-.74,.4-1.36,1.19-.62,.57-.62,.34-1.93,.11-.91,.34-1.13,.62-.51,.4-.17,.34,.11,.45,.74,1.19-.17,.91-.91,.85-1.08,.85-.68,.85-2.27-1.13h-1.02l-2.1,.96-.91,.11-.45-.11-1.08-.34-.45,.06-1.19,.23-1.08-.17-1.08-.11-1.19,.57-.23-1.7,.34-2.55,.85-2.16,1.36-.28,.74,.06,1.81-1.19,.96-.23,1.02,.28,2.89,1.59,1.02,.34,.68-.11,4.37-4.42,1.76-1.13,1.93-.23,1.87,.68,1.42,1.59h0Z"/>
  <path id="ETH3136" class="cls-4" d="M548.55,218.96l.57,.85v.34l-.23,1.81-.45,.79-.06,.51,.23,.68,.4,.74,.23,.68-.34,.74-.62,.34-.62-.17-1.02-.91-.51-.17-1.02,.45-.57,.06-.28-.17-.57-.51-.34-.23-.74,.06-.74,.17-.62-.11-.06-.85,.17-1.13,.4-1.08,1.13-1.93,.85-.91,.62,.06,.68,.4,.96,.28,.85-.28,.91-.45,.79-.06h0Z"/>
  <rect id="_0" data-name="0" class="cls-4" x="515.55" y="365.79"/>
  <rect id="_1" data-name="1" class="cls-4" x="445.73" y="371.52"/>
  <rect id="_2" data-name="2" class="cls-4" x="408.58" y="355.7"/>
  <path class="cls-7" d="M200.69,352.53c2.48-29.24-13.06-55.84-37.38-68.87-3.82-2.05-7.87-3.77-12.09-5.1l232.59,62.57-228.27,71.8c24.52-9.57,42.77-32.41,45.15-60.4Z"/>
  <line class="cls-1" x1="344.31" y1="320.85" x2="165.02" y2="141.56"/>
  <circle class="cls-6" cx="345.6" cy="322.15" r="3.75"/>
  <circle class="cls-6" cx="165.02" cy="141.56" r="3.75"/>
  <g>
    <path class="cls-12" d="M115.25,394.47c-.71,0-1.34-.5-1.47-1.22-.06-.31-.29-1.15-1.16-2.59-.59-.21-1.95-.55-2.5-.68-.47-.12-.83-.21-.94-.25-.73-.26-1.12-.85-1.49-1.42-.14-.21-.29-.45-.5-.72-.69-.93-2.2-3.52-2.74-5.56-.42-1.57-1.75-3.97-3.27-5.26-1.06-.9-2.44-1.28-3.18-1.48-.52-.14-.9-.24-1.24-.58-.44-.45-.48-.48-1.1-5.02-.12-.84-.26-1.87-.32-2.22-.15-.25-.59-.84-.88-1.24-.47-.62-.91-1.21-1.17-1.68-.09-.16-.19-.32-.29-.48-.43-.69-1.02-1.63-.94-2.97,.03-.46-.03-.55-.15-.71l-.1-.14s-3.21-5-3.38-5.5c-.28-.84,.27-3.17,.28-3.2,.01-.08,.04-.35,.08-.63,.08-.62,.12-.98,.23-1.27,.03-.19,.06-.5,.09-.81,.08-.83,.12-1.28,.27-1.61,.06-.29,.17-.96,.23-1.31,.06-.34,.1-.63,.13-.73,.09-.42,2.99-4.87,4.5-4.87,.76,0,1.27,.46,2.2,1.29,.23,.2,.47,.42,.72,.63,.82,.7,1.71,1.99,2.24,2.86,.65,.03,1.56,.07,2.25,.07,.23,0,.44,0,.59-.02,.6-.07,2.95-1.22,3.98-1.89,.87-.57,3.49-3.27,3.81-4.02,.18-.5,.38-1,.57-1.47,.2-.5,.38-.95,.5-1.31,0-.24-.1-.9-.62-2.67-.02-.06-.04-.12-.05-.17-.27-.3-1.02-.92-1.35-1.19l-.23-.19c-.8-.67-1.31-1.73-1.76-2.66-.09-.19-.18-.37-.26-.54-.64-1.26-.57-2.6-.54-3.32,.04-.83,.52-1.82,1.19-3.13l.18-.36c.24-.47,.54-1.46,.83-2.42,.16-.54,.33-1.1,.51-1.64,.42-1.28,1.2-2.49,1.71-3.29,.15-.23,.27-.41,.33-.52,.15-.35,.35-.82,3.52-3,.46-.31,.8-.42,4.56-.51h.28c.29-.05,1.57-.53,2.75-1.05,.26-.12,1.44-.71,2.49-1.24,.69-.35,1.32-.66,1.6-.8,.4-.2,1.31-.87,1.92-1.32,.26-.19,.5-.37,.71-.52,.05-.04,.3-.29,.69-1.33-.19-.43-.52-1.12-.78-1.66-1.07-2.26-1.26-2.69-1.32-3.08l-.85-4.04c-.09-.44,.01-.89,.29-1.24s.69-.56,1.14-.57c.25,0,6.06-.16,7-.16,.21,0,.34,.02,.37,.02,.68,.11,1.01,.59,1.33,1.06,.08,.12,.23,.34,.34,.47,.06,0,.16,.02,.3,.02,.37,0,.78-.06,1.09-.15,.7-.21,1.45-.34,2.05-.34s1.13,.13,1.53,.38c.58,.21,3,.66,3.73,.68h0c.11,0,.15-.01,.39-.12,.34-.15,.85-.37,1.6-.37,1.13,0,2.98,.47,3.74,.95,.75,.47,.96,1.32,1.15,2.07,.04,.17,.11,.45,.17,.59,.86,.84,.78,2.19,.74,2.86v.16c0,.46-.19,.92-.62,1.92-.1,.22-.19,.43-.24,.58-.05,.5-.19,1.4-.28,1.91,.11,.16,.29,.36,.47,.53,.27-.3,.6-.71,.92-1.08,.49-.59,1.07-1.28,1.76-2.06,.28-.32,.71-.52,1.14-.52s.83,.18,1.11,.49c.5,.54,.46,1.05,.36,2.27-.02,.3-.05,.62-.06,.87-.03,.7,.06,5.45,.22,7.55,.16,2.18,.38,2.81,.38,2.82,.34,.88-.02,2.79-.06,3,0,.33,.45,1.42,.59,1.78l.08,.18c.3,.75,.88,2.91,.88,3.92,.02,.47,.47,3.79,.72,5.57,.16,1.15,.28,2.07,.31,2.3,.1,.94-.71,4.19-1.12,4.84-.34,.52-.4,.61-6.86,3.27-.77,.32-1.38,.57-1.63,.67-.19,.15-.79,.69-2.63,2.57l-.1,.11c-.28,.42-1.33,2.29-1.73,3.02-.15,.28-.28,.51-.37,.67-.07,.43-.13,1.59-.16,2.24-.03,.53-.05,1.02-.08,1.34-.1,1.14-.55,2.85-1.52,4.2-.29,.4-.75,.63-1.22,.63-.17,0-.34-.03-.5-.09-3.93-1.4-4.41-2.26-4.59-2.58-.17-.29-1-.91-1.52-.91-.03,0-.05,0-.07,0-.03,0-.06,0-.11,0-.41,0-1.45,.44-3.02,1.3l-.1,.05c-.62,.43-3.22,3.66-3.68,4.52-.47,.86-1.29,1.34-2.31,1.36,0,0-.08,0-.1,0-.25-.01-.49-.05-.69-.09-.63,.59-1.89,1.99-2.66,3.19-.07,.11-.32,.59-.56,2.12-.19,1.18-.31,2.55-.4,3.66-.12,1.33-.18,2.05-.31,2.52-.24,.9-1.56,2.76-4.6,6.86-.58,.79-1.24,1.67-1.46,1.99-.05,.3-.07,1.08-.1,1.84-.05,1.57-.12,3.93-.48,7.12l.21,2.23c.08,.8-.49,1.51-1.28,1.63-.07,0-.14,.01-.21,.01Z"/>
    <path class="cls-10" d="M135.01,295.38c.07,0,.11,0,.12,0,.15,.02,.69,1.1,1.17,1.38,.22,.13,.62,.19,1.05,.19,.5,0,1.07-.08,1.52-.21,.51-.15,1.12-.27,1.62-.27,.32,0,.59,.05,.75,.17,.41,.31,3.57,.87,4.46,.89,.02,0,.04,0,.06,0,.84,0,1.11-.49,1.98-.49s2.45,.41,2.93,.72c.48,.31,.51,2.01,1.02,2.42,.51,.41,.33,1.63,.33,1.99s-.84,2.02-.84,2.25-.23,1.71-.33,2.27c-.1,.54,1.47,2.23,2.1,2.23,.02,0,.04,0,.06,0,.59-.13,1.63-1.68,3.63-3.94,0,0,.01-.01,.02-.01,.1,0-.05,1.3-.08,2.07-.03,.82,.07,5.66,.22,7.72,.15,2.06,.37,2.96,.48,3.25,.11,.28,.01,1.45-.13,2.18-.14,.73,.47,2.13,.75,2.82,.28,.69,.77,2.65,.77,3.35s.96,7.37,1.03,8.02c.07,.65-.7,3.57-.89,3.88-.2,.31-7.52,3.23-7.95,3.44-.44,.22-2.9,2.77-3.14,3.01-.24,.24-2.16,3.75-2.35,4.07-.2,.33-.26,3.05-.35,4.03-.09,.98-.48,2.39-1.24,3.46,0,0-3.4-1.21-3.78-1.9-.38-.69-1.68-1.68-2.83-1.68-.02,0-.04,0-.06,0-.02,0-.04,0-.06,0-1.15,0-3.06,1.07-3.9,1.53-.84,.46-3.75,4.13-4.29,5.13-.24,.44-.62,.56-1.01,.57h0c-.45-.02-.89-.18-1.09-.18,0,0-.02,0-.03,0-.46,.11-2.52,2.33-3.56,3.97-.35,.55-.59,1.55-.78,2.69-.37,2.34-.47,5.26-.68,6.03-.31,1.15-5.59,7.88-5.97,8.57-.38,.69-.04,3.7-.73,9.6l.23,2.39c-.26-1.39-1.34-3.07-1.57-3.43-.23-.36-3.64-1.09-4.02-1.23-.37-.13-.62-.74-1.27-1.62-.65-.88-2.03-3.27-2.5-5.05-.47-1.78-1.95-4.48-3.74-6.01-1.8-1.54-4.13-1.78-4.33-1.98-.2-.2-.9-6.1-1.04-6.64-.15-.54-1.72-2.35-2.17-3.19-.46-.83-1.11-1.52-1.05-2.63,.07-1.11-.29-1.47-.49-1.76-.2-.29-3.14-4.95-3.2-5.15-.06-.2,.18-1.94,.28-2.24,.1-.29,.21-1.75,.31-1.9,.1-.15,.21-2.19,.31-2.29,.1-.1,.38-2.03,.44-2.32,.07-.29,2.78-3.69,3.04-3.69s1.06,.82,1.94,1.57c.88,.75,2.08,2.66,2.32,3.17,0,0,1.91,.12,3.14,.12,.28,0,.53,0,.71-.02,.98-.08,3.69-1.49,4.67-2.12,.98-.64,3.99-3.64,4.4-4.76,.41-1.11,.9-2.22,1.13-2.94,.23-.72-.64-3.4-.74-3.79-.1-.39-1.32-1.37-2.01-1.94-.69-.57-1.19-1.83-1.65-2.73-.46-.9-.41-1.91-.38-2.57,.03-.65,.77-2.01,1.21-2.89,.44-.88,.9-2.68,1.42-4.27,.52-1.58,1.78-3.2,1.98-3.66,.2-.46,2.74-2.21,3.01-2.39,.26-.18,3.37-.23,4.02-.25,.65-.02,2.88-.98,3.32-1.18,.44-.2,3.43-1.72,4.13-2.06,.7-.34,2.03-1.39,2.84-1.98,.82-.59,1.34-2.42,1.41-2.57,.06-.15-2.14-4.49-2.21-4.93l-.87-4.13s6.03-.16,6.96-.16m0-3c-.95,0-6.42,.14-7.04,.16-.89,.02-1.72,.44-2.28,1.14-.55,.7-.76,1.61-.58,2.48l.86,4.07c.1,.57,.36,1.14,1.42,3.38,.15,.31,.33,.7,.5,1.05-.04,.09-.08,.16-.11,.21-.17,.12-.35,.26-.54,.4-.48,.36-1.38,1.03-1.68,1.18-.28,.14-.91,.45-1.6,.8-.83,.42-2.21,1.11-2.45,1.22-.89,.39-1.93,.8-2.35,.92h-.08c-3.82,.09-4.52,.19-5.37,.76-3.13,2.15-3.7,2.86-4.02,3.57-.06,.1-.15,.23-.24,.39-.52,.81-1.39,2.17-1.87,3.62-.18,.55-.36,1.12-.52,1.68-.25,.81-.55,1.83-.73,2.19l-.18,.35c-.75,1.48-1.29,2.61-1.35,3.74-.04,.86-.12,2.46,.7,4.07,.08,.16,.16,.33,.25,.51,.49,1.02,1.1,2.29,2.16,3.17l.23,.19c.23,.19,.68,.56,.97,.83,.3,1.03,.42,1.58,.47,1.87-.1,.27-.23,.59-.36,.93-.18,.45-.37,.92-.55,1.4-.46,.76-2.57,2.92-3.26,3.39-.85,.55-2.74,1.48-3.37,1.65-.11,0-.23,0-.37,0-.42,0-.93-.02-1.41-.03-.59-.88-1.35-1.89-2.11-2.54-.24-.2-.47-.41-.69-.61-1.04-.94-1.87-1.68-3.2-1.68-1.61,0-2.48,1.07-3.92,2.85-1.75,2.16-1.91,2.6-2.04,3.19-.03,.13-.08,.44-.14,.82-.05,.29-.14,.83-.19,1.13-.18,.52-.24,1.12-.32,1.89-.02,.23-.04,.45-.06,.62-.12,.4-.17,.84-.25,1.41-.03,.22-.05,.45-.08,.59,.02-.1,.05-.18,.06-.23,0,.01-.73,2.74-.28,4.12,.29,.86,3.35,5.55,3.54,5.85-.09,1.79,.7,3.04,1.17,3.79,.08,.13,.17,.26,.24,.4,.31,.56,.78,1.19,1.28,1.86,.2,.27,.48,.64,.66,.89,.07,.45,.17,1.22,.26,1.87,.64,4.66,.69,5.04,1.52,5.87,.63,.63,1.32,.81,1.92,.98,.67,.18,1.79,.48,2.59,1.17,1.23,1.05,2.44,3.18,2.79,4.51,.63,2.39,2.29,5.11,2.99,6.06,.18,.25,.32,.47,.45,.65,.44,.67,1.04,1.59,2.25,2.01,.22,.08,.45,.14,1.08,.29,.39,.1,1.25,.31,1.86,.48,.55,.99,.67,1.5,.69,1.61,.27,1.43,1.52,2.44,2.94,2.44,.14,0,.28,0,.42-.03,1.59-.22,2.72-1.66,2.57-3.25l-.2-2.08c.36-3.17,.43-5.52,.47-7.09,.01-.48,.03-1,.05-1.34,.3-.41,.79-1.07,1.2-1.63,3.66-4.91,4.56-6.29,4.85-7.37,.16-.59,.23-1.36,.35-2.78,.09-1.08,.21-2.43,.39-3.56,.17-1.1,.33-1.51,.37-1.6,.51-.79,1.31-1.74,1.9-2.37,.03,0,.05,0,.08,0,.05,0,.1,0,.15,0,1.61-.02,2.93-.8,3.65-2.14,.4-.71,2.52-3.36,3.24-4.01,1.39-.76,2.03-1.01,2.33-1.07,.11,.05,.28,.16,.37,.25,.37,.64,1.14,1.66,5.33,3.15,.33,.12,.67,.17,1.01,.17,.95,0,1.87-.45,2.44-1.26,1.43-2.01,1.73-4.29,1.79-4.94,.03-.32,.06-.83,.09-1.39,.03-.51,.07-1.36,.12-1.84,.07-.12,.14-.26,.23-.4,.36-.64,1.26-2.26,1.6-2.81,1.46-1.49,2.09-2.09,2.35-2.33,.3-.13,.8-.33,1.39-.58,6.89-2.84,6.94-2.91,7.54-3.84,.58-.91,1.49-4.53,1.36-5.81-.02-.25-.11-.84-.31-2.36-.21-1.56-.66-4.8-.7-5.42-.02-1.27-.64-3.56-.98-4.41l-.08-.2c-.1-.26-.36-.88-.45-1.23,.16-.96,.32-2.44-.05-3.46-.03-.11-.19-.77-.31-2.45-.15-2.02-.25-6.72-.22-7.38,0-.24,.03-.54,.06-.82,.1-1.34,.19-2.39-.76-3.41-.57-.61-1.38-.97-2.21-.97-.59,0-1.17,.18-1.66,.5,0-.09,.01-.19,.01-.28v-.06c.05-.77,.15-2.43-.89-3.71-.02-.07-.04-.14-.05-.21-.22-.87-.55-2.18-1.8-2.97-1.1-.7-3.28-1.18-4.54-1.18-1.02,0-1.74,.3-2.15,.47-.67-.07-2.34-.37-2.96-.55-.6-.33-1.32-.5-2.14-.5-1.02,0-2,.25-2.49,.4-.05,.02-.12,.03-.2,.04-.39-.55-1.03-1.3-2.21-1.49-.21-.04-.41-.04-.59-.04h0Z"/>
  </g>
  <path class="cls-9" d="M402.91,339.98c-.03,.05-1.24,.53-1.31,.57-.07,.04-.48,.45-.52,.49-.04,.04-.35,.62-.39,.67-.03,.05-.04,.5-.06,.66-.01,.16-.28,.72-.4,.9-.12,.17-.88,1.37-.99,1.53,0-.03,.02-.05,.02-.06,.03-.04,.88-1.37,1-1.55,.11-.16,.1-.15,.13-.26,0,0-.53-.19-.59-.3-.06-.11-.28-.28-.47-.28,0,0,0,0,0,0,0,0,0,0,0,0-.19,0-.5,.18-.64,.25-.14,.08-.62,.68-.7,.84-.04,.07-.1,.09-.17,.09h0c-.07,0-.15-.03-.18-.03,0,0,0,0,0,0-.08,.02-.41,.38-.59,.65-.06,.09-.1,.26-.13,.44-.06,.38-.08,.86-.11,.99-.05,.19-.92,1.3-.98,1.41-.06,.11-.04,.61-.15,1.58l.12,.31c.04,.23,.13,.64,.08,.81,0,.03-.02,.06-.04,.11,0,0,0-.02,0-.03,.05-.17-.06-.58-.1-.81-.04-.23-.22-.5-.26-.56-.04-.06-.6-.18-.66-.2-.06-.02-.1-.12-.21-.27-.11-.15-.33-.54-.41-.83-.08-.29-.32-.74-.62-.99-.3-.25-.68-.29-.71-.32-.03-.03-.15-1-.17-1.09-.02-.09-.28-.39-.36-.52-.08-.14-.18-.25-.17-.43,.01-.18-.05-.24-.08-.29-.03-.05-.52-.81-.53-.85-.01-.03,.03-.32,.05-.37,.02-.05,.03-.29,.05-.31,.02-.02,.03-.36,.05-.38,.02-.02,.06-.33,.07-.38,.01-.05,.46-.61,.5-.61s.17,.13,.32,.26,.34,.44,.38,.52c0,0,.47,.03,.63,.02,.16-.01,.61-.24,.77-.35,.16-.1,.66-.6,.72-.78,.07-.18,.15-.37,.19-.48,.04-.12-.1-.56-.12-.62-.02-.06-.22-.23-.33-.32-.11-.09-.2-.3-.27-.45-.08-.15-.07-.31-.06-.42,0-.11,.13-.33,.2-.48,.07-.14,.15-.44,.23-.7,.09-.26,.29-.53,.33-.6,.03-.08,.45-.36,.49-.39,.04-.03,.55-.04,.66-.04,.11,0,.47-.16,.55-.19,.07-.03,.56-.28,.68-.34,.12-.06,.33-.23,.47-.32,.13-.1,.22-.4,.23-.42,.01-.02,.1-.78,.09-.85l.08-.68s.46,0,.49,.01c.03,0,.11,.18,.19,.23,.08,.05,.28,.04,.42,0,.14-.04,.32-.07,.39-.02,.07,.05,.59,.14,.73,.15,.15,0,.19-.08,.34-.08s.4,.07,.48,.12c.08,.05,.08,.33,.17,.4,.08,.07,.05,.27,.05,.33s-.14,.33-.14,.37-.04,.28-.05,.37c-.02,.09,.26,.39,.36,.36,.1-.02,.27-.28,.6-.65,.02-.03,0,.2-.01,.34,0,.13,.01,.93,.04,1.27,.03,.34,.06,.49,.08,.53,.02,.05,0,.24-.02,.36-.02,.12,.08,.35,.12,.46,.05,.11,.13,.44,.13,.55s.16,1.21,.17,1.32c.01,.11-.11,.59-.15,.64Z"/>
  <circle class="cls-8" cx="399.91" cy="341.23" r="14.13"/>
</svg>