<?xml version="1.0" encoding="UTF-8"?>
<svg id="Layer_2" data-name="Layer 2" xmlns="http://www.w3.org/2000/svg" viewBox="0 0 755.51 453">
  <defs>
    <style>
      .cls-1, .cls-2, .cls-3, .cls-4, .cls-5 {
        stroke-width: 2px;
      }

      .cls-1, .cls-2, .cls-4 {
        fill: #ddd;
      }

      .cls-1, .cls-6 {
        stroke: #739b97;
      }

      .cls-1, .cls-6, .cls-3, .cls-4 {
        stroke-linecap: round;
        stroke-linejoin: round;
      }

      .cls-7 {
        fill: #fff;
      }

      .cls-8, .cls-3 {
        fill: #c2d4d1;
      }

      .cls-2 {
        stroke: #848484;
      }

      .cls-2, .cls-9, .cls-10, .cls-5 {
        stroke-miterlimit: 10;
      }

      .cls-9 {
        opacity: .55;
        stroke-width: .5px;
      }

      .cls-9, .cls-10 {
        fill: #f1a41f;
        stroke: #a26a28;
      }

      .cls-10 {
        opacity: .3;
      }

      .cls-11 {
        fill: #3d9b8f;
      }

      .cls-6 {
        fill: #ededed;
      }

      .cls-3, .cls-4 {
        stroke: #fff;
      }

      .cls-5 {
        fill: none;
        stroke: #ababab;
      }

      .cls-12 {
        fill: #7f7f7f;
      }

      .cls-13 {
        fill: #148978;
      }
    </style>
  </defs>
  <path id="ETH3129" class="cls-3" d="M324.01,405.89l-.23-.06-.57-.28-.28-.11-12.93,.28-.51-.06-.68-.34-.34-.11h-.45l-1.25,.17-5.67,.06-.91-.23-.79-.51-1.47-1.25-.62-.45-.28-.51v-.68l.11-.74v-.74l-.51-.91-.11-.62-5.1-5.5-.96-1.59-.28-1.87,.17-7.88,.17-.51,1.47-1.81,.28-.79v-.79l-.34-.91-.74-1.42-.11-.74,.23-.91,1.02-1.47-.17-.34-2.1-.79-2.44-1.53-.96-.28-.74,.17-.68,.34-.85,.17-.96-.23-1.59-1.3-.85-.51-.68-.17-.79-.11h-.79l-.68,.11-.85,.57-1.53,1.7-.85,.57-.91,.17-.68-.34-.57-.62-1.25-1.99-.17-.34,.06-.45,.62-.85,.23-.4-.45-1.25-1.47-1.13-3.01-1.81-1.7-1.25-.4-.68-.34-2.21-.51-1.02-3.06-4.37-.4-.85-.06-.51,.28-1.36-.11-.45-.62-.62-.17-.45v-.4l.11-.45,.4-.79-.4-2.5-.28-.74-.62-.79-.74-.68-.62-.68-.74-1.87-1.3-2.33-.17-.79-.06-2.21-.23-.96-1.53-2.61-.28-.79-.34-2.16-.79-2.21-.79-3.06-.28-.17-.45-.51-.17-.68-.23-.45-2.55-1.7-.68-.23-.79-.11h-1.64l-.62-.17-.45-.34-.28-1.59-.23-.79,.51-.34-.06-.79-.17-.62-.23-.62-.34-.45-2.44-1.7-5.33-1.3-.62-.45-.23-.62-.17-.23-1.53-1.19-.62-.68-.28-.11-.28-.34-.11-1.3,.85-.34,1.08,.62,1.13,.96,.85,.62,.96,.11,.96-.28,1.87-.74,1.36-.28h1.47l1.42,.34,1.13,.74,1.02,.79,1.08,.51,1.19,.23,1.25-.06,1.19-.23,.85-.34,.79-.57,.96-.85,1.08-.85,1.08-.45,1.13-.23,1.36-.06,2.27,.11,1.02-.34,.45-.91,.74,.28,.91-.17,.79-.51,.57-.68,.62,.68,.96,.51,.96,.45,.91,.23,.96-.06,1.59-.74,.91-.17,2.16,.45,.91-.11,.28-.91-.11-.34-.34-.68-.11-.4,.06-.4,.11-.79,.11-.91,.45-1.02v-1.02l.06-.51,.74-2.61,.11-.85-.28-.74-.62-.62-2.61-1.42-.34-.45,.34-1.13-.34-.74-.74-3.35-.06-1.87,.51-1.08,.68-.51,.96-1.36,1.53-.96,.17-.74v-.85l.45-.79,.23-.11,.68,.06,.4-.11,.91-.62,.85-.62h.57l.62,.06,.79-.23h1.59l.45,.91,.23,.74,.4,.62,.96,.45,.85-.06,.79-.34,1.47-.96,.51-.23,.74-.28,1.25-.23,.28-.11,.57-.4,.79-.68,.62-.79,.28-.62-.28-.62-.57-.51-1.3-.91-.68-.74,.06-.74,.85-1.3,.57-.62,.79-.23,.91-.06,.85,.11,.85,.17,.51,.4,.28,.62,1.02,3.57,.06,.91-.28,.85-.45,.74-1.08,1.36v.68l.74,.74,2.33,1.42,1.25,.57,.57,.34,.45,.57,.91,1.87,.85,1.36,.06,.57-.23,1.02-.06,1.02,.28,.74,.62,.45,2.95,.4,1.47,.91,1.36,1.08,1.7,.85,2.27,.85,.85,.11,.28,.11,.68,.45,.51,.23,1.36,.45h1.99l.74,.11,.85,.28,2.95,1.25h.74l6.47,4.31,1.64,.74,1.7,.45,1.76,.17,1.36-.11,2.72-.45,3.01,.17,1.25-.23,1.08-.62,2.5-1.93,3.74-1.7,1.25-.79,.45,.17,.11-.17,.51-1.19,.17-1.7,.23-.79,.17-.28,1.02-3.97v-.51l-.91-2.89-.28-1.47v-3.91l.11-.68,.23-.74,.68-1.3,.17-.68-.23-1.08-1.36-1.53v-1.02l2.27-.68,1.25-.11,.96,.4,.74,1.59,.57,.4,.79,.11,.74-.17,1.08-.28,.06-.45v-.57l-.23-.68-.62-1.19-.17-.74,.06-2.78,.45-3.29-.06-.45-.34-.23-2.78-.68-.62-.28-.62-.4-.4-.51-.17-.68-.23-.34,.17-1.08,.68-1.64,.45-.74,.57-.62,.79-.4h.85l.74,.68,.51,1.02,.51,.74h.79l2.55,.34,.74,.4h.51l.57-.17,.85-.06,2.55,.57,.96-.06,7.15-1.76,5.16-.62,2.04-.51,.79,.17,.62,.4,.57,.57,.28,.51,.23,.85,.17,1.59,.57,1.42,1.36,.23,1.59-.51,1.13-.96,.34-.62,.45-2.44,.28-.62,.57-.79,.79-.91,.23-.11,.74-.23,.85-.17,.79,.06,.62,.57,2.38,1.13,.45,.74,.34,.85,.11,.85-.4,1.87,.17,.68,.45,.51,.91,.62-.62,2.55-.06,.91,.17,.91-.06,.85-.34,.79-.96-1.08-.4-.57-.34-.62-.68-3.06-.34-.79-2.21,.74,.23,.79,1.19,1.64,.28,.96,.11,.51,.4,1.36,.57,2.89-.11,.4-.34,.74-.51,1.53-1.25,2.04-1.64,2.04-.85,1.53-1.36,1.36-.34,.68-.23,.79-.68,1.42-.11,.68-.11,1.81,.4,2.84v.96l-.34,.51-.62,.28-.85,.28-.96,.4-.51,.51-.28,.57-.28,.91-.45,.79-1.02,1.19-.34,.79-.34,1.53-.4,.57-5.22,3.23-1.02,.91-.57,1.19-.28,1.3-.11,1.42,.23,.74,.62,.68,1.02,.51,1.3,.34,3.46-.74,.62-.45,1.53-1.81,.34-.57,.74-1.19,.96,.34,1.19,.74,1.47,.28,1.08,.28,1.19,.79,1.3,.51,1.25-.57,.96-.17,1.25,.96,1.13,1.81,.85,2.21-1.08,5.73,.11,1.3,.28,.45,.62,.51,.68,.4,1.3,.4,4.93,2.55,.62,.11,1.81,.17,.96,.23,.57,.51,.4,.51,1.47,.96,2.84,2.61,.62,.68,.17,.68,.23,1.7,.91,3.46v1.7l-.4,.85-.57,.68-.4,.74,.11,.91,.62,1.64,.34,.74,.57,.62-3.74,.51-1.64-.11-1.81-1.59v-.28l-.23-.85-.74-1.13-1.08-1.99-.91-1.08-.17-.34-2.89-1.36-.28-.34-.51-.96-1.36,.17h-1.02l-.28-.06-2.84-.85-1.53-.28-1.53-.06-1.87,.34-1.36,.74-.74,1.3-.23,1.87,.45,3.23-.11,1.13-.4,.57-.68,.4-.85,.62-.45,.68-.45,1.53-1.3,2.33-.45,.68-.68,.62-.11,.28,.23,.4,1.02,1.02,2.21,1.25,.4,.4-.11,.45-2.72,1.81-.79,.17h-.79l-.79,.17-.85-.11-.74-.96-4.65-8.17-.17-.79,.06-1.02,.28-.85h.57l.79,.4,.85,.11,.79-.28,.62-.85,.11-.91-.68-1.47,.06-.79,.62-1.42,.4-.57,2.44-.91,.96-1.36-.06-1.59-1.36-1.25-.68-.17-.74,.06-.79,.11-.79,.23-.45-.06-.96-1.13-.68-.62-1.59-.96-.4-.17-.74-.4-.51-.62-.62-.57-.79-.11-.96,.34-.45,.06-1.25-.06-.17-.11-.85-.74-.68,.06-.62,.57-1.76,2.5-.74,1.64,.11,1.59,1.25,1.47,.74,1.42-.17,1.99-.62,1.99-.74,1.42-1.02,1.53-.4,.79-.06,.91,.4,2.78-.06,.96,.28,.57,.85,.23,1.25,.28,3.8,1.59,.79,.4,.34,.62,.23,.96,.74,1.59,.34,1.81,.4,.79,.62,.62,.91,.28,.68,.45,.28,.91-.17,.96-.57,.57-2.38,1.25-1.81,.34-.62,.45-.28,.68,.57,2.61v1.99l-.34,1.93-.68,1.64-.51,.91-.28,.74-.06,.79,.23,1.81-.06,.85-.23,.74-.57,.51-.91,.06-.79-.45-.68-.62-.68-.45-1.81-.51-1.81-.74-.85-.17-.79,.17-.62,.45-.45,.68-.51,.51-.91,.4-1.7,.62-3.69,1.99-1.99,.79-1.99,.11-.91-.34-1.59-.91-.96-.28-1.13-.11-.62,.06-3.57,.51h-.91l-2.89-.45-.91,.11-.85,.51-1.13,1.3-.79,1.64-1.76,5.61v.85l.23,1.02,.85,1.81,.23,1.02-.23,2.16-.96,1.99-2.72,3.52-1.81,2.78-.68,1.53-.57,1.53-.34,.45-.74,.51-1.3,.45-.45,.4h0Z"/>
  <path class="cls-2" d="M191.9,353.99c0,28.09-16.26,52.39-39.88,64l-8.78,3.6c-7.1,2.38-14.7,3.67-22.6,3.67-39.35,0-71.26-31.91-71.26-71.26,0-11.94,2.93-23.2,8.13-33.08,11.92-22.71,35.71-38.19,63.13-38.19,5.4,0,10.67,.6,15.72,1.74,4.32,.96,8.5,2.34,12.48,4.06,25.33,10.93,43.07,36.12,43.07,65.46Z"/>
  <g>
    <path class="cls-8" d="M98.18,392.8c-.06,0-6.57-.16-7.53-.6-1.05-.46-4.12-4.51-4.21-4.7-.27-.55-.37-.74-.12-7.12,.01-.34,.11-.66,.28-.95,2-3.33,4.99-8.57,5.37-9.81,.36-1.15-.45-4.95-.88-6.98-.15-.69-.28-1.33-.39-1.89-.16-.86-.71-2.73-2.64-5.83-1.05-.44-4.21-1.22-5.46-1.53-1.05-.26-1.53-.38-1.8-.48-1.13-.38-1.75-1.33-2.47-2.43-.28-.43-.61-.94-1.04-1.51-1.34-1.81-4.27-6.83-5.33-10.79-.88-3.29-3.69-8.33-6.87-11.06-2.29-1.96-5.2-2.75-6.76-3.17-1-.27-1.55-.42-2.03-.9s-.62-1.05-.76-1.75c-.09-.45-.02-.91,.19-1.31,12.71-24.21,37.57-39.26,64.9-39.26,10.07,0,19.83,2.01,28.99,5.96,.51,.22,.91,.65,1.1,1.18,.18,.53,.14,1.11-.13,1.6-.58,1.08-1.08,1.91-1.47,2.47-.94,1.33-5.64,8.66-8.75,13.52-2.26,3.53-3.1,4.83-3.39,5.28-.2,.54-.61,2.4-.86,3.53-.22,.99-.43,1.93-.59,2.53-.39,1.49-2.18,3-12,8.96-.97,.59-1.98,1.2-2.36,1.45-.6,.89-1.96,4.37-2.36,5.67,.47,1.04,2.25,3.39,3.22,4.3,.97-.42,2.8-1.43,3.87-2.02,2.37-1.31,2.84-1.55,3.54-1.55,.09,0,.19,0,.27,.02,.39,.06,.8,.2,1.92,.6,.98,.35,2.31,.82,2.97,.96,.75,.16,2.47,.53,5.03,7.95h3.19c.27,0,.53,.05,.77,.16,.07,.03,7.56,3.17,12.03,4.08,5.35,1.09,9.81,7.73,11.04,9.73,1.92,3.12-5.23,9.67-5.3,9.73-.95,.82-2.49,.94-6.65,1.06-1.19,.03-2.94,.08-3.57,.2-1.05,.78-4.57,4.72-6.71,7.11-2.37,2.65-3.75,4.18-4.44,4.75-2.07,1.72-8.82,3.85-11.14,4.13-.17,.02-.36,.03-.57,.03-2.59,0-9.62-1.85-12.05-2.51-1.74,.9-6.68,3.69-10.36,7.95-.19,.23-.44,.41-.71,.53-5.64,2.47-5.96,2.57-6.08,2.61-.31,.09-.56,.1-.91,.1Z"/>
    <path class="cls-7" d="M120.64,282.73c10.01,0,19.55,2.06,28.2,5.8-.5,.94-.97,1.74-1.34,2.26-1.52,2.14-11.84,18.39-12.24,18.94-.39,.55-1.21,4.89-1.66,6.55-.44,1.66-12.97,8.76-13.78,9.44-.8,.68-2.84,6.07-3.06,7.09-.22,1.03,3.87,6.45,4.98,6.52,0,0,.02,0,.03,0,1.17,0,7.16-3.72,7.67-3.72,0,0,0,0,.01,0,.44,.07,3.41,1.25,4.73,1.54,1.55,.33,4.01,8,4.01,8h4.63s7.69,3.23,12.41,4.19c4.72,.96,9.04,7.69,9.74,8.82,.7,1.13-3.98,6.38-4.89,7.16-.92,.79-8.26,.4-9.69,.92-1.44,.53-10.09,10.88-11.66,12.19-1.58,1.32-7.87,3.41-10.09,3.68-.1,.01-.21,.02-.34,.02-2.78,0-12.25-2.64-12.25-2.64,0,0-6.81,3.14-11.66,8.78,0,0-5.53,2.43-5.87,2.53-.04,.01-.15,.01-.32,.01-1.36,0-6.43-.29-6.69-.42-.29-.13-3.14-3.54-3.28-3.8-.13-.25,.1-6.12,.1-6.12,0,0,4.95-8.23,5.57-10.25,.63-2.04-.69-7.05-1.21-9.83-.52-2.8-2.68-6.16-3.14-6.89-.46-.72-7.31-2.2-8.07-2.46-.74-.25-1.24-1.47-2.55-3.24-1.31-1.76-4.06-6.55-5.01-10.12-.95-3.57-3.91-8.98-7.5-12.06-3.61-3.08-8.29-3.57-8.68-3.96-.06-.06-.13-.31-.21-.72,11.92-22.71,35.71-38.19,63.13-38.19m0-4c-28.07,0-53.62,15.45-66.67,40.33-.42,.81-.56,1.73-.38,2.62,.13,.69,.36,1.84,1.3,2.79,.86,.86,1.82,1.12,2.92,1.42,1.51,.41,4.04,1.09,5.99,2.76,2.85,2.44,5.46,7.12,6.24,10.05,1.09,4.08,4.02,9.26,5.66,11.47,.38,.52,.68,.97,.97,1.42,.8,1.23,1.72,2.62,3.52,3.23,.33,.11,.8,.23,1.95,.52,1,.25,3.35,.83,4.6,1.23,1.52,2.55,1.91,4,2.01,4.54,.11,.59,.25,1.24,.4,1.95,.34,1.62,1.05,4.95,.91,6.03-.43,1.16-2.98,5.7-5.15,9.31-.35,.58-.54,1.23-.57,1.91-.27,6.89-.18,7.07,.32,8.06,.01,.02,.02,.04,.03,.06,.1,.2,3.33,4.71,5.15,5.59h0s.02,0,.03,.01c.01,0,.02,.01,.04,.02h0c1.66,.69,8.24,.75,8.3,.75,.4,0,.87-.01,1.42-.17,.03,0,.06-.02,.09-.03,.24-.08,.55-.17,6.29-2.69,.55-.24,1.03-.6,1.42-1.05,3.05-3.54,7.08-6.02,9.08-7.12,3.24,.87,9.21,2.37,11.8,2.37,.29,0,.55-.01,.81-.04,2.64-.31,9.79-2.58,12.19-4.58,.8-.67,2.15-2.16,4.65-4.96,1.72-1.92,4.75-5.3,6.06-6.52,.73-.06,1.93-.09,2.79-.12,4.38-.13,6.38-.24,7.91-1.55,.79-.67,2.41-2.49,3.61-4.03,1.39-1.8,3.98-5.16,2.08-8.25-1.72-2.79-6.37-9.43-12.34-10.64-4.27-.87-11.58-3.93-11.66-3.96-.49-.21-1.02-.31-1.55-.31h-1.78c-2.69-7.19-4.74-7.63-6.02-7.91-.52-.11-1.9-.6-2.72-.89-1.19-.42-1.69-.6-2.23-.68-.04,0-.07-.01-.11-.02-.17-.02-.35-.03-.52-.03-1.23,0-1.99,.42-4.5,1.8-.61,.33-1.59,.87-2.44,1.32-.54-.65-1.12-1.44-1.51-2.05,.45-1.26,1.22-3.15,1.68-4.04,.48-.3,1.22-.75,1.9-1.16,10.65-6.47,12.32-7.98,12.9-10.17,.17-.64,.38-1.58,.61-2.59,.21-.94,.54-2.44,.74-3.1,.39-.6,1.24-1.92,3.26-5.08,3.09-4.83,7.77-12.14,8.69-13.43,.45-.64,.98-1.52,1.61-2.68,.53-.99,.62-2.15,.25-3.21-.37-1.06-1.16-1.91-2.19-2.36-9.41-4.06-19.43-6.12-29.78-6.12h0Z"/>
  </g>
  <path class="cls-11" d="M121.57,339.32c1.11,.07,7.27-3.78,7.71-3.71s3.41,1.25,4.73,1.53c1.54,.33,4.01,7.99,4.01,7.99h4.63s7.69,3.23,12.41,4.19,9.04,7.69,9.74,8.82-3.98,6.38-4.89,7.16-8.26,.39-9.7,.92-10.09,10.88-11.66,12.19-7.86,3.41-10.09,3.67-12.58-2.62-12.58-2.62c0,0-6.82,3.15-11.66,8.78,0,0-5.54,2.42-5.87,2.52s-6.72-.26-7.01-.39-3.15-3.54-3.28-3.8,.1-6.13,.1-6.13c0,0,4.95-8.22,5.57-10.26s-.69-7.04-1.21-9.83-2.39-6.57-3.24-6.72c-1.24-.2-3.68-1.08-3.66-1.38s1.66-1.05,2.61-.88,1.93-.07,2.29-.75,.52-.13,.88-.39,.2-1.57,.72-1.47,.43,.95,1.05,1.05,2.13,.23,2.85,.75,2.33,1.93,2.52,2.2c.39-.03,.79-.75,.98-1.34s.43-4.95,.46-5.64,.98-1.34,.98-3.05-.52-6.13-.62-6.52c.92,.03,1.83-.16,2-.52s1.34,.07,1.7,.29,2.59,1.38,3.41,1.31,.49-.03,2.23,0,3.21-.98,3.96-1.38,2.14-1.52,2.82-1.57l.68-.05c.4,.81,2.96,5.1,3.48,5.1s.94-.08,.94-.08Z"/>
  <path id="ETH3109" class="cls-4" d="M442.21,104.11l-.62,1.81-.06,.4v.96l.28,1.13,.96,1.99,.28,1.02v.57l-.06,.51v.45l.74,1.02,.23,.51,.11,.62,.11,.57-.06,1.13,.06,.51,.23,.57,.23,.51,.51,.62,.91,.57,.06,.17-.28,3.74v1.08l.28,.74,1.3,2.44,.68,.79,.79,.68,.85,.4,.28,.4,.23,.85,.28,1.99,.34,.85,1.59,2.67,.34,.91,.34,2.1v1.13l-.11,1.13,1.19,1.25,.68,.68,.57,.74,1.53,2.78,.4,1.02,.23,1.02,.11,1.81,.17,1.36v.68l-.17,.68-.23,.57-2.16,3.23,.96,1.08,.4,1.02-.06,1.02-.4,1.02-1.13,1.93-.28,.85v.85l.45,1.02,1.19,1.47,.23,.45v.85l-.4,1.87v.96l.85,2.78,.06,.51-.17,.74-.45,.79-.17,.79-.4,4.82-.11,.74-.74,1.76-.11,1.08,.11,.96,.23,1.02,.11,1.02-.06,.79-.28,.23-.57-.06-.85-.23-.79-.11-.91-.06-.91,.23-.62,.51-.4,.96,.06,.79,.45,.68,.85,.62,1.13,.68,.79,.57,.34,.79-.06,1.47-.28,.79-1.08,1.53-.34,.74-1.02,1.36v.51l.45,.85,.17,.45-.51,1.08h-1.47l-3.18-.91-1.53,.4,.11,1.53,1.42,3.63,.06,1.99-.23,1.93-.74,1.76-1.36,1.36-.79,.57-.51,.62-.11,.57,.51,.62,.4,.17,1.02,.28,.51,.23,1.36,1.08-.06,1.81-1.02,1.76-1.25,1.7-.91,1.47-1.64,1.36,.11,7.77-.4,1.13-1.19,.74-3.86,1.36-1.3,.79-1.81,1.3-.79,.17-.96-.51-1.36-2.1-1.13-.4-.57,.23-1.93,1.93-.85,.06-.68-.17-.45-.34-.28-.4-.96-2.1-.06-.62,.11-.74-.11-2.21,3.23-5.27,.45-1.25-.11-1.13-.79-.62-1.99-.4-.79-.62-.51-1.25-.34-1.42-.11-1.08,.23-.34,.62-.06,.91,.06,3.23-.23,.51-.23,1.87-1.36,.96-.17,1.3,.45h.06l-2.21-2.33-.23-.34,.11-.91-.79-.45-1.13-.23-.85,.06-1.36-.28-1.25-1.59-1.36-2.44-1.81-2.67-4.37-1.93-6.86-1.42-2.44-1.19-1.25-1.53-.62-1.76-.28-1.87-.06-1.93-.11-.23-.68-1.02-.45-.4-.68-.51-2.38-.91-.74-.68-.06-1.13,1.47,.28,1.47-.34,2.5-1.3,.45-.57,1.64-7.71,.06-1.42-.68-.51-4.37-.79-8.85,.45-.34,.28-.23,.4-.96,4.14-.28,.4-.28,.28-.4,.17-.17,.23v.51l.28,.79,.06,.4-.11,.45-.51,.74-.85,.4-.96,.17h-.91l-.96-.28-.74,.11-1.02,.34-1.08,.23-.45,.4-.34,.79-.96,.96-.62,.4-2.27,.57-5.39,2.55-1.76,1.25-.34,.11-1.02,.11-.28,.17-.57,.74-.34,.34-2.67,1.47-.34,.11-.96-.17-.57,.11-1.02,.57h-.62l-3.52-2.61-.57-.68-.23-.45-.85-1.02-.79-1.08-.51-.4-3.63-1.64-1.25-.34-1.3-.17-.57,.17-.34,1.08-.4,.45-.4,.06-.28-.23-.45-.62-.17-.45v-.85l-.06-.45-.28-.4-.62-.28-.62-.17h-.51l-.68,.11-.57-.23-.91-.96-.51-1.3,.45-1.13,.57-1.13-.11-1.02-.57-.28h-2.55l-.74-.28-.74-.4-1.08-.91-5.44-1.02-1.53-.57-.79-.17-1.76-.11-.74-.28-.68-.68h-.34l-.91,.23-.34,.06-4.31-.4h-1.76l-.74-.28-.51-.74-.06-.68,.11-.68v-.62l-.4-.57-.45-.17-.4,.06-1.87,.91-.91-.06-.91-.62-.79-.96-.79-1.19-.57-1.64-.28-2.16,2.5-5.61-.51-.68h-.85l-.74,.28-.51,.51-.34,.79h-.11l-.11-.68v-1.08l.11-1.13,.91-2.16v-.57l.11-.57,.51-.79,.62-.79,.57-.62,1.99-1.53,1.02-1.13,.96-1.64-1.13-2.44,.11-.51,.34-.68-.11-.79-.17-.79-.11-.68,.4-.85,.68-.96,.57-1.13,.11-1.53-2.33-2.33-.62-.4-.91-.79,.34-.79,.74-.74,.45-.62-.06-.34-2.21-3.35-1.25-1.3-.45-.74-.17-3.46,.17-2.55-.23-.4-.91,.28-1.47,1.08-1.47,1.3-1.59,1.7-.68,.45-.79,.06-.74-.34-.57-1.76-.28-1.93-.4-.91-.91-1.13-1.3-2.16-.17-.23-1.59-1.36-.51-.51-.45-1.02-.34-.45-.91-.57-.17-.17-.62-.17h-1.08l-.96-.11-.45-.74-.4-.06h-1.13l-1.59-.17-.23,.23-1.02,2.5-.62,.85-4.76,3.74-.91,.96-.79,.68-.79,.11-1.02-.11-1.13,.17-2.1,.68h-.79l-.91-.45-.96-.79-1.02-1.13-1.47-3.46-.96-.85,.11-.51,.34-.34,1.42-.85,.74-.85,.28-.91,.4-2.1,.68-1.7,.28-.45,.34-.34,.85-.4,.4-.34,.34-.51,.11-.51,.11-1.08,.4-1.08,7.09-11.91,.34-.4,.34-.11,.74-.06,.28-.17,.4-.4,.45-1.81,.11-.28,.57-.28,.96-.34,11.4-1.64,.79,.06,.79,.51,1.02,.28,.62-.28,.34-.74,.74-4.31-.06-.96-.11-.57-.91-1.53-.06-.85,.45-.68,.57-.57,.34-.57v-.34l-.45-.91-.06-.79,3.69-12.76,5.61-8.11,.34-1.13,.11-2.21,.11-.74,1.59-3.91,.51,.4,2.72,5.9,.51,.57h.62l4.93,1.3,.74,.34,4.2,3.91,2.1,1.25,.91,1.08,.68,.28,4.42,.62h.79l.51-.34,.45-.45,2.04-1.08,1.08-.28,1.25-.11,.91,.23,1.13,.45,1.02,.68,.57,.74,.34,.28,.57,.11,6.52,.23,1.08-.23,5.27-2.5,.57-.45,.57-.62,.34-.74,.91-2.72,.91-.68h1.47l4.2,1.02,4.99,2.55,1.3,.23,.45-.17,.79-.4,.74-.51,.34-.45,.62-.68,1.36,.11,1.87,.28,2.21,.11,3.74-.51,.74-.4,.62-.62,.34-.62,.4-.57,.62-.28,.45,.11,.34,.4,.28,.68,.17,.85-1.13,2.67,.23,.17,3.18-.79,.85-.4,.62-.11,.74-.06,2.67,.28,.11,.28,.51,1.13,.28,1.7,.23,.68,1.59,.74,8.39,8.39,1.02,1.25,.17,1.19v.74l.06,.96,.17,.85,.28,.57,.51,.34,.68,.11h1.93l4.08-.74,.74,.28,.34,.74,.11,1.19,.28,1.25,.45,1.42,.34,1.7-.06,2.16-2.78,5.1-.17,1.3,.28,1.36,1.53,3.91,.4,4.25,.17,.85,.4,1.02,.51,.96,.68,.57,.34,.06,2.78-.11,.17-.96,1.13-.28,4.76,.17,.34,.57,.11,.85-.06,.79-.23,.62,.06,.11,3.4-2.04,.4-.11,2.72-.17,1.3-.17,1.25-.34h0Z"/>
  <path id="ETH3110" class="cls-4" d="M450.49,21.3l-.62,.4,.11,.85-.06,1.02-.28,.62-.28,.34-.23,.17-1.02,.11-2.84-.28-1.53-.45-.62-.11-2.61,.51-1.19,.74-1.08,.85-.23,.34v.34l.85,.45,2.33-.17,.57,.51-.11,.51-1.7,1.87-.96,1.99-.17,.74,.28,.23,1.19,.06,.68,.11,.57,.34-1.25,1.42-.23,.34,.28,.68,.57,.06,.57-.23,.45-.11,.45,.4,.28,.74,.11,.79,.06,.62-.17,1.47v.51l.23,.45,.57,.45,.23,.79,.06,2.27-.68,3.63-.17,1.7,.28,1.42,.51,1.36,.34,1.93-.17,1.64-1.13,.68-1.42-.68-.28,.51-.91,3.01v.96l.62,1.59,.11,.96-.11,.96-.74,3.91,.06,.51,.4,.79,.57,.62,.68,.4,.23,.45,.62,2.95,.23,.4,.45,.57v.23l-.17,.62-.45,.68-.45,.51-.51,.06,.17,1.81v.79l-.17,1.08v.85l-.4,1.08,.06,.17,1.13,.96,.57,.28,.85,.11,.79,.23,.57,.57,.96,1.59,.23,1.25-.17,1.81-.4,1.76-.62,1.13-1.3,1.42-.79,1.42-.45,1.64-.17,1.93,.11,.62,.57,1.19,.11,.79v.91l-.11,.91-.28,.74-.68,.62-1.25,.34-1.3,.17-2.72,.17-.4,.11-3.4,2.04-.06-.11,.23-.62,.06-.79-.11-.85-.34-.57-4.76-.17-1.13,.28-.17,.96-2.78,.11-.34-.06-.68-.57-.51-.96-.4-1.02-.17-.85-.4-4.25-1.53-3.91-.28-1.36,.17-1.3,2.78-5.1,.06-2.16-.34-1.7-.45-1.42-.28-1.25-.11-1.19-.34-.74-.74-.28-4.08,.74h-1.93l-.68-.11-.51-.34-.28-.57-.17-.85-.06-.96v-.74l-.17-1.19-1.02-1.25-8.39-8.39-1.59-.74-.23-.68-.28-1.7-.51-1.13-.11-.28-2.67-.28-.74,.06-.62,.11-.85,.4-3.18,.79-.23-.17,1.13-2.67-.17-.85-.28-.68-.34-.4-.45-.11-.62,.28-.4,.57-.34,.62-.62,.62-.74,.4-3.74,.51-2.21-.11-1.87-.28-1.36-.11-.62,.68-.34,.45-.74,.51-.79,.4-.45,.17-1.3-.23-4.99-2.55-4.2-1.02h-1.47l-.91,.68-.91,2.72-.34,.74-.57,.62-.57,.45-5.27,2.5-1.08,.23-6.52-.23-.57-.11-.34-.28-.57-.74-1.02-.68-1.13-.45-.91-.23-1.25,.11-1.08,.28-2.04,1.08-.45,.45-.51,.34h-.79l-4.42-.62-.68-.28-.91-1.08-2.1-1.25-4.2-3.91-.74-.34-4.93-1.3h-.62l-.51-.57-2.72-5.9-.51-.4,.68-1.7-.11-1.93-.62-1.99-.23-.96v-.96l.17-.85,3.4-10.61h.74l.23-.74,.51-.4,.62-.17h.79l.51-.11,1.19-.57,.74-.11h1.7l.34-.11,.62-.34,.34-.11h2.61l1.19,.17,2.5,.74,1.25,.17,.23,.11,.68,.96,.57,.4,.74,.11,.23-.06,.51-.45h.34l.68,.06,.28-.06,.45-.34,.45-.45,.28-.68,.06-.79,.06-.96,.11-.79,.34-.74,.57-.85,1.08-.85,1.3-.28,2.78,.06,.79-.28,.57-.06,.91,.79,.68,.4,1.47,2.1,.57,.57,.11,.34,.06,.57v.91l.11,.4,.51,.28,1.53,1.3,.17,.23,.28,.74,.23,.96,.23,.45,.85,.28,.4,.17,.28,.28,.11,.4,.06,.96,.17,.68,.4,.45,.68,.45,.4-.45,3.52-8.51,7.26-17.53,1.59-3.74,.62,.57,.45,.68,.74,1.42,.17,.17,.34,.06,.17,.11v.57l.23,.68,.17,.17,.45,.06,.34,.28,.11,.68,.23,.34,.28,.28,4.14,1.7,.68,.11,2.1-.4,.91,.06,.62,.28,.34,.45,.34,.79,.17,1.08,.17,.34,.4,.34,.79,.57,.28,.51,.34,1.47,.28,.68,.45,.57,.62,.51,1.99,1.08,.34,.28,.23,.85,.23,.34,.45,.34,.34,.06,.28-.11,1.87,.06,2.89-.34,1.42-.4,2.33-1.19h.74l.68,.23,.68,.06,.68-.06,.74-.17,2.27-.91,1.64-.17,.74-.51,1.25-1.13,1.53-.74,.79-.51,.57-.68,.11-.74-.11-.74,.11-.62,.45-.51,.06,.17,1.36,.11,1.08,.28,.4,.17,.79,.51,.74,.68,.68,.79,.51,.85,1.08,3.23,.79,1.47,.96-.06,.79-1.3,.51-.45,.96-.17,2.04,.34,.74-.06,3.06-.85,1.53-.74,.68-.91,.34-.79h.62l.74,.4,.57,.51,.79,.96,.45,.28,1.93,.62,1.02,.06,2.16-.34,1.19-.06,1.13,.4,1.08,.68,1.99,1.7,.57,.28,.68,.11,.74-.23,1.19-.96,.68-.17,.74,.11h0Z"/>
  <path id="ETH3111" class="cls-4" d="M517.25,155.6l-.45,.23-.62,.4-.68,.28-1.13,.11-15.03-.11-.85,.23-.74,.79-.28,.96-.17,1.08-.23,.96-1.08,1.76-2.89,2.89-1.3,1.59-.34,.79-.11,.74,.23,1.59v1.08l-5.44,20.87,.06,.96,.28,.96,.62,.57,1.7,.68,.34,.51-.57,.85-4.76,4.14-2.1,2.38-3.35,5.22-.57,1.42-.68,2.78-.34,2.67-.96,1.02-1.02,.57-1.19,.28-3.12,.51-1.3,.57-1.13,.91-1.19,1.25-1.02,1.25-2.55,4.2-.51,.68-2.38,2.33-.28,.57-.11,.57-.06,.85-.45,1.25-.85,.74-.96,.62-1.25,.11-1.36,2.38-.74,.79-2.33,1.59-.45-.17-.23-.85,.91-2.5v-1.7l-.68-.74-1.25-.23-1.64-.06,.11-.74-.17-.4-.34-.34-.34-.45-.17-.68-.28-1.7-.28-.62-.74-.4h-1.02l-2.04,.23,.91-1.47,1.25-1.7,1.02-1.76,.06-1.81-1.36-1.08-.51-.23-1.02-.28-.4-.17-.51-.62,.11-.57,.51-.62,.79-.57,1.36-1.36,.74-1.76,.23-1.93-.06-1.99-1.42-3.63-.11-1.53,1.53-.4,3.18,.91h1.47l.51-1.08-.17-.45-.45-.85v-.51l1.02-1.36,.34-.74,1.08-1.53,.28-.79,.06-1.47-.34-.79-.79-.57-1.13-.68-.85-.62-.45-.68-.06-.79,.4-.96,.62-.51,.91-.23,.91,.06,.79,.11,.85,.23,.57,.06,.28-.23,.06-.79-.11-1.02-.23-1.02-.11-.96,.11-1.08,.74-1.76,.11-.74,.4-4.82,.17-.79,.45-.79,.17-.74-.06-.51-.85-2.78v-.96l.4-1.87v-.85l-.23-.45-1.19-1.47-.45-1.02v-.85l.28-.85,1.13-1.93,.4-1.02,.06-1.02-.4-1.02-.96-1.08,2.16-3.23,.23-.57,.17-.68v-.68l-.17-1.36-.11-1.81-.23-1.02-.4-1.02-1.53-2.78-.57-.74-.68-.68-1.19-1.25,.11-1.13v-1.13l-.34-2.1-.34-.91-1.59-2.67-.34-.85-.28-1.99-.23-.85-.28-.4-.85-.4-.79-.68-.68-.79-1.3-2.44-.28-.74v-1.08l.28-3.74-.06-.17-.91-.57-.51-.62-.23-.51-.23-.57-.06-.51,.06-1.13-.11-.57-.11-.62-.23-.51-.74-1.02v-.45l.06-.51v-.57l-.28-1.02-.96-1.99-.28-1.13v-.96l.06-.4,.62-1.81,.68-.62,.28-.74,.11-.91v-.91l-.11-.79-.57-1.19-.11-.62,.17-1.93,.45-1.64,.79-1.42,1.3-1.42,.62-1.13,.4-1.76,.17-1.81-.23-1.25-.96-1.59-.57-.57-.79-.23-.85-.11-.57-.28-1.13-.96-.06-.17,.4-1.08v-.85l.17-1.08v-.79l-.17-1.81,.51-.06,.45-.51,.45-.68,.17-.62v-.23l-.45-.57-.23-.4-.62-2.95-.23-.45-.68-.4-.57-.62-.4-.79-.06-.51,.74-3.91,.11-.96-.11-.96-.62-1.59v-.96l.91-3.01,.28-.51,1.42,.68,1.13-.68,.17-1.64-.34-1.93-.51-1.36-.28-1.42,.17-1.7,.68-3.63-.06-2.27-.23-.79-.57-.45-.23-.45v-.51l.17-1.47-.06-.62-.11-.79-.28-.74-.45-.4-.45,.11-.57,.23-.57-.06-.28-.68,.23-.34,1.25-1.42-.57-.34-.68-.11-1.19-.06-.28-.23,.17-.74,.96-1.99,1.7-1.87,.11-.51-.57-.51-2.33,.17-.85-.45v-.34l.23-.34,1.08-.85,1.19-.74,2.61-.51,.62,.11,1.53,.45,2.84,.28,1.02-.11,.23-.17,.28-.34,.28-.62,.06-1.02-.11-.85,.62-.4,.91,.17h.51l1.87-.57h.68l3.4,.85,1.64,.62,1.47,.91,5.44,5.1,2.21,1.13,4.03,1.93,1.02,.4,3.4,.45,2.61,.96,2.27,1.64,7.94,9.13,5.61,9.98,1.13,1.13,11.68,7.49,6.81,5.67,1.47,1.53,1.3,1.7,1.19,1.99,2.95,6.41,1.93,2.78,2.95,1.93,2.16,.91,2.1,1.19,1.81,1.53,2.5,4.25,3.06,4.2,1.81,1.93-2.27,3.06-1.19,2.5-4.99,6.92-.62,1.42-.28,.51-.91,.4-.4,.45-1.53,2.89-4.54,6.52-.45,.4-.51,.4-.51,.28-.45,.11-.28,.23-.23,.57-.4,.51-1.47,.62-.57,.4-.57,1.19-.51,2.95-1.13,3.52v2.1l1.02,4.42,.34,3.29-.45-.23-1.08,.11-.91,.57-.68,.85-.57,.96-.28,1.59,.62,1.7,1.3,1.42,1.53,.85,.51-.4v.91l-.23,1.64-.68,1.08,.23,.23h0Z"/>
  <path id="ETH3130" class="cls-4" d="M271.67,287.75l.34,.74-.34,1.13,.34,.45,2.61,1.42,.62,.62,.28,.74-.11,.85-.74,2.61-.06,.51v1.02l-.45,1.02-.11,.91-.11,.79-.06,.4,.11,.4,.34,.68,.11,.34-.28,.91-.91,.11-2.16-.45-.91,.17-1.59,.74-.96,.06-.91-.23-.96-.45-.96-.51-.62-.68-.57,.68-.79,.51-.91,.17-.74-.28-.45,.91-1.02,.34-2.27-.11-1.36,.06-1.13,.23-1.08,.45-1.08,.85-.96,.85-.79,.57-.85,.34-1.19,.23-1.25,.06-1.19-.23-1.08-.51-1.02-.79-1.13-.74-1.42-.34h-1.47l-1.36,.28-1.87,.74-.96,.28-.96-.11-.85-.62-1.13-.96-1.08-.62-.85,.34v-1.19l-.17-.79-.4-.62-.51-.34-.62,.28-.68,.17-.74-.51-1.02-1.3-1.76-1.36-.34-.34v-3.52l-.28-1.3-.62-1.08-4.71-4.76-1.13-.68-1.13-.17-.4-.11-1.87-1.42-1.25-1.7-.45-.57-.4-.17-1.19-.34-1.02-.68-.4-.11-2.44,.23-.79-.23-.4-.28-.57-.68-.34-.34-.4-.17-.68-.23-.34-.28-.62-.23-1.02,.06-1.59,.34-.34,.17-.96,.57-.45,.06-2.1-.57-.68-.62-.62-.68-.57-.51-.28-.11-1.25-.17-1.08-.45-.34-.06-1.19,.28-.23,.11-.23,.28-.51-.06-.79-.34-1.02-.11-.28-.17-.4-.91-.68-.34-.28-.62-.96-2.55,.17-.4,.45-.57,.23-.4,.34-.45,.17-.79,.23-.4,.45-.62,2.16-2.21,.62-1.25,1.13-.23,.68-.28,.45-.4,.28-.51,.11-.79-.11-.17-.51-.4-.11-.17,.06-.96,.45-.74,.34-.28,.62-.28v-.51l-.85-.4-.23-.45-.57-.62-.11-.45,.06-.28,.34-.74,.11-.45-.4-.4-.06-.34,.23-.4v-.68l.23-.57,.51-.23,.57-.11,.28-.28-.17-.34,1.08-.96,.68-.11,4.08,.91,.4-.11,.51-.4,.57-.17,.51,.11,2.55-.34,.34-.17-.17-.45h.74l.62,.34,.57,.45,.57,.28,.74-.11,.57-.34,.51-.23,.79,.11,1.19,1.02,.74,1.3,.91,1.08,1.7,.17,.57-.11,1.59-1.3,.4-.28,.57-.28,.68-.17,1.25-.17h2.16l.74-.17,.74-.45,3.74-3.4,.79-.85,.45-.91,.17-.79,.91,.45,.68,.68,.45,.34,.45-.11,1.81-1.3,.91-.34,.96,.11,1.13,.51,1.93,1.3,3.29,3.18,1.87,1.47,3.8,1.93,1.08,.91,1.36,1.99,.79,.79,1.13,.51,2.21,.45,.74,.57,.62,1.19,.68,.96,1.02,.45h1.19l2.72-.45,2.16-.06,2.04,.23,1.19,.85-.34,.57-.91,.45-1.93,.62-2.27,1.3-1.7,.74-.34,.45,.34,.4,1.81,.62,.23,.4-.23,.45-2.38,3.4-.62,1.59,.06,1.81,.79,1.64,1.19,1.13,1.36,1.08,1.25,1.25,.4,.79,.23,1.81,.28,.79,.57,.45,3.8,1.36,.51,.45-.28,.62-.51,.45-.62,.74-.17,.62,.68,.28,1.13,.06,.51,.11,.91,.4,.23-.11,.62-.45,.74-.4,.79-.51,.45-.68-.06-.85h0Z"/>
  <path id="ETH3132" class="cls-4" d="M310.63,234.49l-.68,.06-.34-.11-.34-.23-.51-.34-.34-.45,.34-.45,1.64-.85,.45,.28,.68,.79,.62,.34-.28,.34-.4,.28-.85,.34h0Zm-7.15-3.46l.68,.11,.4-.17,.51,.06,1.08,.34,.4,.23-.57,.57v.17l.28,.45,.45,.45,.45,.17,.51,.06,.45-.17-.28,.68-.23,1.19-.06,1.13,.11,.85,.57,.23,.34,.51v.51l-.57,.23,.45,.68,.17,.4,.11,.4-.74-.06-.57-.34-.23-.34,.06-.62-.06-.34-.4-.45-.91-.74-.4-.57-.91,.96-.57,.34-.79,.06-.34-.45-.23-.11-.74,.11h-.68l-.34,.28-.74-.4-.28-.28-.17-.4,.23-.28v-.45l-.17-.96v-.45l.28-.51,.62-.74,.23-.4,.06-.57v-.68l.06-.62,.28-.4,.57-.06,1.59,.4h0Zm12.7-14.63l.85,1.76-1.3-.23-.45,.23-.17,.79-.11,.06-.45-.74-.91-3.06,.4-1.47,.23-.57,.45-.51,.74-.51,.68-.17,.68,.17,1.25,.91,.23,.34-.06,.45-.28,.28-1.47,.68-.4,.74,.11,.85h0Zm22.8-34.37l-.74,2.1-.4,.74-.4,.51-.45,.23-.74-.06-3.91-1.19-.79-.62-2.04-.85-1.64-1.02-.68-.06-3.29,1.7-.51,.4-.85,1.7-.79,.17-.62-.17-.62-.28-.68-.23-.23-.23,.11-.45,1.3-3.74-.23-.11-2.33,.23-.79,.34-.68,.57-1.42,1.47-.57,.68-1.99,3.29-1.25,1.42-3.35,2.44-1.53,.85-.74,.28-.74,.06-.68-.51h-.45l.34,6.75-.23,3.63,.23,.79,.4,.91,.06,.79-.34,.62-.74,.57-.06,.17,1.19,1.02,2.55,3.01,.62,.45,1.13,1.13,.23,2.1-.45,2.72-1.08,3.12-5.5,7.2-.85-.34-.51-2.38-.62-.74-1.19,.11-.45-.06-.34-.45-1.36-2.38-.34-.74-.28-.51-.34-.17-.74,.06-1.47-.11-1.13,.06-.45-.06-.45-.23-.4-.45,.06-2.16-.11-.45-.74-1.64-.51-.68-.51-.06-1.59,.28-1.87-1.93-5.16-6.3-7.6-7.6-1.42-1.08-.79-.45-.74-.11h-.74l-1.76-.28-1.25-.06-2.95,.45-.96-.06-.4-.62-.06-.91,.06-.96-.23-.4-.62-.23-4.82-.34-.17,.34,.34,.91,.57,.57,.28,.57-2.21,6.98-1.42,2.67-4.25,4.59-1.19,.17-.96-.51-1.76-1.53-.85-.62-.68-.11-1.42,.23h-.85l-.91,.57-.79,7.09-1.47,6.64-.28,.91-.34,.68-.4,.68-.51,.68-.74,.51-1.08,.11-7.03-.62-1.76-.06-.62-12.48,1.19-5.67,4.65-13.33,2.27-2.04,.85-1.3,.06-.4-.17-.96,.06-.4,.57-.85,.34-1.59-.06-1.76-1.87-8.45-.11-1.59,.28-1.36,3.23-4.59,1.47-2.89,.57-.79,.68-.57,4.54-3.18,.62-.23,.45,.17,4.59,4.08,1.13,.68,.45,.45,.28,.57-.17,1.19,.06,.57,.4,.11,.28-.28,.51-1.19,.45-.4,.62-.06,.51,.11,.4-.06,.45-.62,.23-.68v-.45l.17-.51,.68-.62,2.04-1.59,.68-.91,.28-1.3-.23-.57-1.13-.85-.34-.51v-.4l2.5-7.37,.17-1.19-.51-.79-.62-.74-.4-1.08,.11-.79,4.76-10.61,.17-.74-.11-.74-.79-1.59-.28-.79,.06-1.53-.28-1.47,.06-.79,.28-.91,.4-.96,.51-.85,.57-.79,1.47-.91,3.35-1.3,1.13-1.3,.06-.4,.06-.68,.96,.85,1.47,3.46,1.02,1.13,.96,.79,.91,.45h.79l2.1-.68,1.13-.17,1.02,.11,.79-.11,.79-.68,.91-.96,4.76-3.74,.62-.85,1.02-2.5,.23-.23,1.59,.17h1.13l.4,.06,.45,.74,.96,.11h1.08l.62,.17,.17,.17,.91,.57,.34,.45,.45,1.02,.51,.51,1.59,1.36,.17,.23,1.3,2.16,.91,1.13,.4,.91,.28,1.93,.57,1.76,.74,.34,.79-.06,.68-.45,1.59-1.7,1.47-1.3,1.47-1.08,.91-.28,.23,.4-.17,2.55,.17,3.46,.45,.74,1.25,1.3,2.21,3.35,.06,.34-.45,.62-.74,.74-.34,.79,.91,.79,.62,.4,2.33,2.33-.11,1.53-.57,1.13-.68,.96-.4,.85,.11,.68,.17,.79,.11,.79-.34,.68-.11,.51,1.13,2.44-.96,1.64-1.02,1.13-1.99,1.53-.57,.62-.62,.79-.51,.79-.11,.57v.57l-.91,2.16-.11,1.13v1.08l.11,.68h.11l.34-.79,.51-.51,.74-.28h.85l.51,.68-2.5,5.61,.28,2.16,.57,1.64,.79,1.19,.79,.96,.91,.62,.91,.06,1.87-.91,.4-.06,.45,.17,.4,.57v.62l-.11,.68,.06,.68,.51,.74,.74,.28h1.76l4.31,.4,.34-.06,.91-.23h.34l.68,.68,.74,.28,1.76,.11,.79,.17,1.53,.57,5.44,1.02h0Z"/>
  <path id="ETH3133" class="cls-4" d="M406.03,228.82l.28,.17,.96-.06,.79,.06,.96,2.16,.23,.68v.74l-.11,.51-.28,.85,.11,.45-.79-.06-.79-.23,.11,.68,.57,1.42-.06,.57-.45,.28-.57-.06-.51,.06-.23,.74-.45,.62-.74-.11-.74-.4-.45-.34-.74-.91-.34-.4-.4-.34-.85-.28-.34-.34-.28-.34-.34-1.13-.57-.91,.06-.28-.34-.51,.28-.79,.51-1.02,.68-.91,.62-.51,.45-.17,1.53-.34,.45-.06,.17,.17,.28,.51,.4,.06,.79-.79,.11,.57h0Z"/>
  <path id="ETH3134" class="cls-4" d="M416.18,440.48l.45-.4-.28-.28,3.06-1.64,3.23-1.42,1.47-.96,1.19-1.53,5.16-8.85,1.13-2.38-.51-1.59-.06-.74,.17-.79,1.19-3.18,.79-3.35,.28-.51,1.36-1.76,5.96-13.78,.23-.96,.11-2.27,.74-4.14,1.08-3.06,.79-3.12,1.42-2.78,2.33-6.01,3.57-5.16,.79-.62h.57l1.08,.57,1.36,.57,2.72,.57,.79-.11,1.93-.68,.34-.06,.96,.06,1.19-.23,1.53-.17,2.84-.62h1.76l.57-.34,1.02-.17,.62-.28,5.96-5.39,5.5-3.06,2.78-2.04-1.36-3.23-.28-1.02-.06-1.13,.06-3.01-.51-7.2,.28-1.99,.23-.96,.11-.96,.06-.96-.06-.96-.17-.79-.34-.91-.23-.85,.11-1.59-.28-1.81,.28-.85,1.47-2.67,.57-.79,2.21-2.16,1.87-2.55,.79-.74,.91-.51,1.81-.11,1.81,.85,1.81,1.25,4.71,2.5,1.87,.28,.91,.28,.85,.45,.79,.62,6.13,6.3,.45-.91,.57-.51,1.42-.96,.62-.74,1.25-2.5,1.08-1.13,1.59-.96,1.47-.17,.62,1.25h.91l.85-.23,.85-.34,.85-.45,.23-.17,1.02-1.02,.23-.4,.34-.68,.45-.74,.4-.68,.68-2.67,1.02-1.59,.4-.85-.4-.74,.34-.45,.06-.4-.17-.85,.11-.4,.4-.91,.17-.96,.4-.57,1.25-.68-.06-.45,.17-.28,.45-.4,.45-1.19,.51-.79,.23-.4,.06-.51-.06-.85,.06-.4,.17-.34,.74-1.13,.51-1.76,.17-1.81-.45-2.38-.28-.28-11.57-4.54-.34-.62-.28-1.13-.34-1.99-.06-.85,.11-.74,.51-1.59,1.76-3.86,.62-2.16-.23-1.7-.62-1.08-.4-.91-.11-.96,.51-9.24,.4-2.16,.74-1.81,2.1-3.01,.51-1.02,.06-1.02-.23-2.21,.28-.91,1.42-1.87,1.59-1.64,3.57-3.06,2.55-.68,1.47,2.72,.51,.51,4.48,.85,2.16,.91,1.13,1.59,1.13,6.41,.62,1.99,.91,1.81,1.19,1.36,1.25,.28,1.36-1.59,1.47-5.56,1.02-1.42,.79-.45,3.35-.85,.62-.51,.23-.91,.06-1.02,.34-1.81,.06-1.08-.11-1.02-.23-.96-.4-.74-1.93-1.99-.4-1.76,1.19-3.52-.28-1.59-.74-.62-1.64-1.25-.74-.68-2.61-2.89-2.33-3.69-.68-1.53-.11-.68,.11-1.02-.17-.28-.68-.74-.45-.74-1.25-3.63-.11-.57-.06-.91-.11-.34-2.38-4.88-1.25-1.76-1.36-1.36-1.19-.28,.23-3.74-.45-1.64-1.53-.45-1.42-1.59-1.87-.68-1.93,.23-1.76,1.13-4.37,4.42-.68,.11-1.02-.34-2.89-1.59-1.02-.28-.96,.23-1.81,1.19-.74-.06-1.36,.28-.85,2.16-.34,2.55,.23,1.7-.96,.23-.96-.11-.79-.34-.57-.79-.45-.51-.85-.17-.96,.11-.91,.23-.74,.4-1.3,1.13-.68,.34-.85-.06-2.89-1.02-3.12-.62-1.59-.06-1.47,.4-.4,.23-1.02,1.08-.79,.68-.85,.51-.85,.4-1.81,.68-.79,.4-.74,.51-.68,.57-.34,.23-.85,.06-.4,.11-.4,.17-1.19,.79-1.64,.57-.96,.23-.79,.06-.85-.28-.57-.57-.34-.79-.23-.96,.17-.79,.68-.06,1.64,.34,.96-.06,.96-.23,.51-.51-.4-.79-1.76-1.08h-1.76l-1.87,.4h-2.1l-.45-.06-.34,.17,.34-2.67,.68-2.78,.57-1.42,3.35-5.22,2.1-2.38,4.76-4.14,.57-.85-.34-.51-1.7-.68-.62-.57-.28-.96-.06-.96,5.44-20.87v-1.08l-.23-1.59,.11-.74,.34-.79,1.3-1.59,2.89-2.89,1.08-1.76,.23-.96,.17-1.08,.28-.96,.74-.79,.85-.23,15.03,.11,1.13-.11,.68-.28,.62-.4,.45-.23,.23,.4,.96,.34,4.48,.91,.23,.45,.23,.17,.28,.06,.4-.34,.28-.11,2.1-.06,1.08-.28,1.13-1.19,1.02-.34,2.1-.23,1.93,.45h.74l.51-.11,1.3-.62,1.36-.06,1.19-.4,.91,.11,.57,.23h.57l.79-.4,2.5-1.64,3.4-1.02,1.76-.17,2.67,.68h.91l.74,.28,.96,2.1,.62,.57,.85,.17,1.53,.17,.96,.28,.45,.06,.57-.23,.4-.45,.4-.34,.57,.23-.45,.85-.4,1.53-.28,.68-.62,.51-1.59,.68-.57,.62-.34,.74-.11,.68-.23,.57-.62,.62-1.36,1.08-.45,.62-.34,.96-.34,1.53-.28,.79-.45,.62-.74,.4-.74,.23-.51,.4,.06,.79,.74,1.76,1.02,1.59,2.1,2.04,.57,.74,.4,1.08,.51,3.46,.68,2.5,1.08,2.33,.96,1.19,3.63,2.38,.91,.91,.68,1.13,.45,1.25,.34,1.3,.68,1.76,1.08,1.08,1.36,.51,1.76,.34,1.36,.62,.74,1.25,1.08,6.13,.57,1.47,.79,.91,1.02,.28,.34,.17,.34,.34,.34,.85,.28,.4,.34,.34,.79,.51,.34,.34,.85,1.76,.23,.68,.06,1.3,.17,.68,.51,.62,4.88,2.95,.68,.06,.91-.34,.62-.06,.57,.28,2.89,2.67,3.35,3.12,7.49,6.81,1.47,.91,22.97,7.6,19.96,6.64,13.33,4.42,9.53,3.23,12.65,4.31,9.53,3.23,15.82,5.33,5.56,1.87,2.21,1.13h37.77l-5.5,5.39-7.37,7.15-3.63,3.57-9.19,8.9-3.69,3.57-7.32,7.15-1.87,1.81-7.32,7.09-5.5,5.39-7.32,7.15-4.65,4.71-6.92,7.15-6.86,7.15-12.19,13.33-12.14,13.38-8.11,8.9-2.16,2.33-2.95,3.23-1.13,.45-7.88-.45-9.81-.57-17.92-1.02-1.36,.34-3.29,1.13-11.97,2.78-15.48,7.37-6.01,4.93-.51,.79-.51,1.25-.68,2.67-.57,1.19-1.13,1.3-1.42,.96-1.59,.62-14.18,2.38-4.42,.79-6.13,.06-1.19,.28-1.3,.68-2.16,1.7-2.67,1.64-.68,.57-.23,.74v1.19l-.17,.45-.57,.45-.51,.74-1.81,1.02-1.7-.34-1.64-.85-1.81-.57-1.59,.91-.57,.11-.51-.11-1.02-.4-.57-.06-3.06,.74-.96,.06-1.93,.57-8.05,.45-1.99-.23-1.87-.74-1.64-1.3-2.44-3.4-.96-.91-.62-.4-1.81-.62-.68-.34-.4-.4-.62-1.13-.91-1.08-2.27-1.53-.85-1.13-2.38,1.59-12.02,4.59-.23,.23-.17,.62-.23,.17-6.81,2.38-.68-.11v.4l-.17,.23-1.76,.85-10.1,4.88-.79,.96-1.81,4.76-.62,1.13-.68,.96-5.44,4.99-1.02,1.19-.79,2.5-.62,1.02-1.25,.06-.57-.4-.28-.51-.23-.51-.28-.45-1.19-.34-4.71-.17,.34-.68-.17-.4-.51-.06-1.7,1.02h-1.42l-1.47-.28-3.4-1.59h0Z"/>
  <path id="ETH3135" class="cls-4" d="M538.91,204.38l-.74,.4-1.36,1.19-.62,.57-.62,.34-1.93,.11-.91,.34-1.13,.62-.51,.4-.17,.34,.11,.45,.74,1.19-.17,.91-.91,.85-1.08,.85-.68,.85-2.27-1.13h-1.02l-2.1,.96-.91,.11-.45-.11-1.08-.34-.45,.06-1.19,.23-1.08-.17-1.08-.11-1.19,.57-.23-1.7,.34-2.55,.85-2.16,1.36-.28,.74,.06,1.81-1.19,.96-.23,1.02,.28,2.89,1.59,1.02,.34,.68-.11,4.37-4.42,1.76-1.13,1.93-.23,1.87,.68,1.42,1.59h0Z"/>
  <path id="ETH3136" class="cls-4" d="M535.74,217.25l.57,.85v.34l-.23,1.81-.45,.79-.06,.51,.23,.68,.4,.74,.23,.68-.34,.74-.62,.34-.62-.17-1.02-.91-.51-.17-1.02,.45-.57,.06-.28-.17-.57-.51-.34-.23-.74,.06-.74,.17-.62-.11-.06-.85,.17-1.13,.4-1.08,1.13-1.93,.85-.91,.62,.06,.68,.4,.96,.28,.85-.28,.91-.45,.79-.06h0Z"/>
  <rect id="_0" data-name="0" class="cls-4" x="502.73" y="364.09"/>
  <rect id="_1" data-name="1" class="cls-4" x="432.91" y="369.82"/>
  <rect id="_2" data-name="2" class="cls-4" x="395.76" y="353.99"/>
  <path class="cls-13" d="M385.64,347.55c.09,0,.56-.29,.59-.29s.26,.1,.36,.12c.12,.03,.31,.62,.31,.62h.36s.59,.25,.96,.32,.7,.59,.75,.68-.31,.49-.38,.55-.64,.03-.75,.07-.78,.84-.9,.94-.61,.26-.78,.28-.97-.2-.97-.2c0,0-.53,.24-.9,.68,0,0-.43,.19-.45,.19s-.52-.02-.54-.03-.24-.27-.25-.29,0-.47,0-.47c0,0,.38-.63,.43-.79s-.05-.54-.09-.76-.18-.51-.25-.52c-.1-.02-.28-.08-.28-.11s.13-.08,.2-.07,.15,0,.18-.06,.04-.01,.07-.03,.02-.12,.06-.11,.03,.07,.08,.08,.16,.02,.22,.06,.18,.15,.19,.17c.03,0,.06-.06,.08-.1s.03-.38,.04-.43,.08-.1,.08-.23-.04-.47-.05-.5c.07,0,.14-.01,.15-.04s.1,0,.13,.02,.2,.11,.26,.1,.04,0,.17,0,.25-.08,.31-.11,.16-.12,.22-.12h.05c.03,.06,.23,.39,.27,.39s.07,0,.07,0Z"/>
  <path id="ETH3131" class="cls-4" d="M443.49,226.69l2.04-.23h1.02l.74,.4,.28,.62,.28,1.7,.17,.68,.34,.45,.34,.34,.17,.4-.11,.74,1.64,.06,1.25,.23,.68,.74v1.7l-.91,2.5,.23,.85,.45,.17,2.33-1.59,.74-.79,1.36-2.38,1.25-.11,.96-.62,.85-.74,.45-1.25,.06-.85,.11-.57,.28-.57,2.38-2.33,.51-.68,2.55-4.2,1.02-1.25,1.19-1.25,1.13-.91,1.3-.57,3.12-.51,1.19-.28,1.02-.57,.96-1.02,.34-.17,.45,.06h2.1l1.87-.4h1.76l1.76,1.08,.4,.79-.51,.51-.96,.23-.96,.06-1.64-.34-.68,.06-.17,.79,.23,.96,.34,.79,.57,.57,.85,.28,.79-.06,.96-.23,1.64-.57,1.19-.79,.4-.17,.4-.11,.85-.06,.34-.23,.68-.57,.74-.51,.79-.4,1.81-.68,.85-.4,.85-.51,.79-.68,1.02-1.08,.4-.23,1.47-.4,1.59,.06,3.12,.62,2.89,1.02,.85,.06,.68-.34,1.3-1.13,.74-.4,.91-.23,.96-.11,.85,.17,.45,.51,.57,.79,.79,.34,.96,.11,.96-.23,1.19-.57,1.08,.11,1.08,.17,1.19-.23,.45-.06,1.08,.34,.45,.11,.91-.11,2.1-.96h1.02l2.27,1.13,.68-.85,1.08-.85,.91-.85,.17-.91-.74-1.19-.11-.45,.17-.34,.51-.4,1.13-.62,.91-.34,1.93-.11,.62-.34,.62-.57,1.36-1.19,.74-.4,1.53,.45,.45,1.64-.23,3.74,1.19,.28,1.36,1.36,1.25,1.76,2.38,4.88,.11,.34,.06,.91,.11,.57,1.25,3.63,.45,.74,.68,.74,.17,.28-.11,1.02,.11,.68,.68,1.53,2.33,3.69,2.61,2.89,.74,.68,1.64,1.25,.74,.62,.28,1.59-1.19,3.52,.4,1.76,1.93,1.99,.4,.74,.23,.96,.11,1.02-.06,1.08-.34,1.81-.06,1.02-.23,.91-.62,.51-3.35,.85-.79,.45-1.02,1.42-1.47,5.56-1.36,1.59-1.25-.28-1.19-1.36-.91-1.81-.62-1.99-1.13-6.41-1.13-1.59-2.16-.91-4.48-.85-.51-.51-1.47-2.72-2.55,.68-3.57,3.06-1.59,1.64-1.42,1.87-.28,.91,.23,2.21-.06,1.02-.51,1.02-2.1,3.01-.74,1.81-.4,2.16-.51,9.24,.11,.96,.4,.91,.62,1.08,.23,1.7-.62,2.16-1.76,3.86-.51,1.59-.11,.74,.06,.85,.34,1.99,.28,1.13,.34,.62,11.57,4.54,.28,.28,.45,2.38-.17,1.81-.51,1.76-.74,1.13-.17,.34-.06,.4,.06,.85-.06,.51-.23,.4-.51,.79-.45,1.19-.45,.4-.17,.28,.06,.45-1.25,.68-.4,.57-.17,.96-.4,.91-.11,.4,.17,.85-.06,.4-.34,.45,.4,.74-.4,.85-1.02,1.59-.68,2.67-.4,.68-.45,.74-.34,.68-.23,.4-1.02,1.02-.23,.17-.85,.45-.85,.34-.85,.23h-.91l-.62-1.25-1.47,.17-1.59,.96-1.08,1.13-1.25,2.5-.62,.74-1.42,.96-.57,.51-.45,.91-6.13-6.3-.79-.62-.85-.45-.91-.28-1.87-.28-4.71-2.5-1.81-1.25-1.81-.85-1.81,.11-.91,.51-.79,.74-1.87,2.55-2.21,2.16-.57,.79-1.47,2.67-.28,.85,.28,1.81-.11,1.59,.23,.85,.34,.91,.17,.79,.06,.96-.06,.96-.11,.96-.23,.96-.28,1.99,.51,7.2-.06,3.01,.06,1.13,.28,1.02,1.36,3.23-2.78,2.04-5.5,3.06-5.96,5.39-.62,.28-1.02,.17-.57,.34h-1.76l-2.84,.62-1.53,.17-1.19,.23-.96-.06-.34,.06-1.93,.68-.79,.11-2.72-.57-1.36-.57-1.08-.57h-.57l-.79,.62-3.57,5.16-2.33,6.01-1.42,2.78-.79,3.12-1.08,3.06-.74,4.14-.11,2.27-.23,.96-5.96,13.78-1.36,1.76-.28,.51-.79,3.35-1.19,3.18-.17,.79,.06,.74,.51,1.59-1.13,2.38-5.16,8.85-1.19,1.53-1.47,.96-3.23,1.42-3.06,1.64,.28,.28-.45,.4-.85-.28-2.16,.45h-.62l-.57-.23-.62-.06-1.59,.28h-.96l-6.52-1.76-.74-.4-.57-.57-1.02-1.36-.06,1.02-2.16-.11-.23-.17-.11-.34-.51,.23h-.74l-.51-.17-.23-.51-.28-.34-.74-.62-.17-.06-.4,.11-.06,.91-1.93,.85-2.16,.17-8-.91-1.19,.06-1.19,.34-.45-.11-.91-.74-1.13-.34-.45-.28-.57-.68-.96-1.53-.74-.74-12.42-8-6.52-4.2-4.31-2.78-9.41-6.07-.62-.11-.11-.17-.17-.85-.17-.4-.23-.34-.28-.06-.79,.06-.28-.23-.57-.96-.4-.28-1.53-.34-2.67-1.36-2.27-.62-7.26,.06-.11-.06,.45-.4,1.3-.45,.74-.51,.34-.45,.57-1.53,.68-1.53,1.81-2.78,2.72-3.52,.96-1.99,.23-2.16-.23-1.02-.85-1.81-.23-1.02v-.85l1.76-5.61,.79-1.64,1.13-1.3,.85-.51,.91-.11,2.89,.45h.91l3.57-.51,.62-.06,1.13,.11,.96,.28,1.59,.91,.91,.34,1.99-.11,1.99-.79,3.69-1.99,1.7-.62,.91-.4,.51-.51,.45-.68,.62-.45,.79-.17,.85,.17,1.81,.74,1.81,.51,.68,.45,.68,.62,.79,.45,.91-.06,.57-.51,.23-.74,.06-.85-.23-1.81,.06-.79,.28-.74,.51-.91,.68-1.64,.34-1.93v-1.99l-.57-2.61,.28-.68,.62-.45,1.81-.34,2.38-1.25,.57-.57,.17-.96-.28-.91-.68-.45-.91-.28-.62-.62-.4-.79-.34-1.81-.74-1.59-.23-.96-.34-.62-.79-.4-3.8-1.59-1.25-.28-.85-.23-.28-.57,.06-.96-.4-2.78,.06-.91,.4-.79,1.02-1.53,.74-1.42,.62-1.99,.17-1.99-.74-1.42-1.25-1.47-.11-1.59,.74-1.64,1.76-2.5,.62-.57,.68-.06,.85,.74,.17,.11,1.25,.06,.45-.06,.96-.34,.79,.11,.62,.57,.51,.62,.74,.4,.4,.17,1.59,.96,.68,.62,.96,1.13,.45,.06,.79-.23,.79-.11,.74-.06,.68,.17,1.36,1.25,.06,1.59-.96,1.36-2.44,.91-.4,.57-.62,1.42-.06,.79,.68,1.47-.11,.91-.62,.85-.79,.28-.85-.11-.79-.4h-.57l-.28,.85-.06,1.02,.17,.79,4.65,8.17,.74,.96,.85,.11,.79-.17h.79l.79-.17,2.72-1.81,.11-.45-.4-.4-2.21-1.25-1.02-1.02-.23-.4,.11-.28,.68-.62,.45-.68,1.3-2.33,.45-1.53,.45-.68,.85-.62,.68-.4,.4-.57,.11-1.13-.45-3.23,.23-1.87,.74-1.3,1.36-.74,1.87-.34,1.53,.06,1.53,.28,2.84,.85,.28,.06h1.02l1.36-.17,.51,.96,.28,.34,2.89,1.36,.17,.34,.91,1.08,1.08,1.99,.74,1.13,.23,.85v.28l1.81,1.59,1.64,.11,3.74-.51-.57-.62-.34-.74-.62-1.64-.11-.91,.4-.74,.57-.68,.4-.85v-1.7l-.91-3.46-.23-1.7-.17-.68-.62-.68-2.84-2.61-1.47-.96-.4-.51-.57-.51-.96-.23-1.81-.17-.62-.11-4.93-2.55-1.3-.4-.68-.4-.62-.51-.28-.45-.11-1.3,1.08-5.73-.85-2.21-1.13-1.81-1.25-.96-.96,.17-1.25,.57-1.3-.51-1.19-.79-1.08-.28-1.47-.28-1.19-.74-.96-.34-.74,1.19-.34,.57-1.53,1.81-.62,.45-3.46,.74-1.3-.34-1.02-.51-.62-.68-.23-.74,.11-1.42,.28-1.3,.57-1.19,1.02-.91,5.22-3.23,.4-.57,.34-1.53,.34-.79,1.02-1.19,.45-.79,.28-.91,.28-.57,.51-.51,.96-.4,.85-.28,.62-.28,.34-.51v-.96l-.4-2.84,.11-1.81,.11-.68,.68-1.42,.23-.79,.34-.68,1.36-1.36,.85-1.53,1.64-2.04,1.25-2.04,.51-1.53,.34-.74,.11-.4-.57-2.89-.4-1.36-.11-.51-.28-.96-1.19-1.64-.23-.79,2.21-.74,.34,.79,.68,3.06,.34,.62,.4,.57,.96,1.08,.34-.79,.06-.85-.17-.91,.06-.91,.62-2.55-.91-.62-.45-.51-.17-.68,.4-1.87-.11-.85-.34-.85-.45-.74-2.38-1.13-.62-.57-.79-.06-.85,.17-.74,.23-.23,.11-.79,.91-.57,.79-.28,.62-.45,2.44-.34,.62-1.13,.96-1.59,.51-1.36-.23-.57-1.42-.17-1.59-.23-.85-.28-.51-.57-.57-.62-.4-.79-.17-2.04,.51-5.16,.62-7.15,1.76-.96,.06-2.55-.57-.85,.06-.57,.17h-.51l-.74-.4-2.55-.34h-.79l-.51-.74-.51-1.02-.74-.68h-.85l-.79,.4-.57,.62-.45,.74-.68,1.64-.17,1.08,.23,.34,.17,.68,.4,.51,.62,.4,.62,.28,2.78,.68,.34,.23,.06,.45-.45,3.29-.06,2.78,.17,.74,.62,1.19,.23,.68v.57l-.06,.45-1.08,.28-.74,.17-.79-.11-.57-.4-.74-1.59-.96-.4-1.25,.11-2.27,.68v1.02l1.36,1.53,.23,1.08-.17,.68-.68,1.3-.23,.74-.11,.68v3.91l.28,1.47,.91,2.89v.51l-1.02,3.97-.17,.28-.23,.79-.17,1.7-.51,1.19-.11,.17-.45-.17-1.25,.79-3.74,1.7-2.5,1.93-1.08,.62-1.25,.23-3.01-.17-2.72,.45-1.36,.11-1.76-.17-1.7-.45-1.64-.74-6.47-4.31h-.74l-2.95-1.25-.85-.28-.74-.11h-1.99l-1.36-.45-.51-.23-.68-.45-.28-.11-.85-.11-2.27-.85-1.7-.85-1.36-1.08-1.47-.91-2.95-.4-.62-.45-.28-.74,.06-1.02,.23-1.02-.06-.57-.85-1.36-.91-1.87-.45-.57-.57-.34-1.25-.57-2.33-1.42-.74-.74v-.68l1.08-1.36,.45-.74,.28-.85-.06-.91-1.02-3.57-.28-.62-.51-.4-.85-.17-.85-.11-.91,.06-.79,.23-.57,.62-.85,1.3-.06,.74,.68,.74,1.3,.91,.57,.51,.28,.62-.28,.62-.62,.79-.79,.68-.57,.4-.28,.11-1.25,.23-.74,.28-.51,.23-1.47,.96-.79,.34-.85,.06-.96-.45-.4-.62-.23-.74-.45-.91h-1.59l-.79,.23-.62-.06h-.57l-.85,.62-.91,.62-.4,.11-.68-.06-.23,.11-.45,.79v.85l-.17,.74-1.53,.96-.96,1.36-.68,.51-.51,1.08,.06,1.87,.74,3.35,.06,.85-.45,.68-.79,.51-.74,.4-.62,.45-.23,.11-.91-.4-.51-.11-1.13-.06-.68-.28,.17-.62,.62-.74,.51-.45,.28-.62-.51-.45-3.8-1.36-.57-.45-.28-.79-.23-1.81-.4-.79-1.25-1.25-1.36-1.08-1.19-1.13-.79-1.64-.06-1.81,.62-1.59,2.38-3.4,.23-.45-.23-.4-1.81-.62-.34-.4,.34-.45,1.7-.74,2.27-1.3,1.93-.62,.91-.45,.34-.57-1.19-.85-2.04-.23-2.16,.06-2.72,.45h-1.19l-1.02-.45-.68-.96-.62-1.19-.74-.57-2.21-.45-1.13-.51-.79-.79-1.36-1.99-1.08-.91-3.8-1.93-1.87-1.47-3.29-3.18-1.93-1.3-1.13-.51-.96-.11-.91,.34-1.81,1.3-.45,.11-.45-.34-.68-.68-.91-.45,.17-.96-1.08-22.18,1.76,.06,7.03,.62,1.08-.11,.74-.51,.51-.68,.4-.68,.34-.68,.28-.91,1.47-6.64,.79-7.09,.91-.57h.85l1.42-.23,.68,.11,.85,.62,1.76,1.53,.96,.51,1.19-.17,4.25-4.59,1.42-2.67,2.21-6.98-.28-.57-.57-.57-.34-.91,.17-.34,4.82,.34,.62,.23,.23,.4-.06,.96,.06,.91,.4,.62,.96,.06,2.95-.45,1.25,.06,1.76,.28h.74l.74,.11,.79,.45,1.42,1.08,7.6,7.6,5.16,6.3,1.87,1.93,1.59-.28,.51,.06,.51,.68,.74,1.64,.11,.45-.06,2.16,.4,.45,.45,.23,.45,.06,1.13-.06,1.47,.11,.74-.06,.34,.17,.28,.51,.34,.74,1.36,2.38,.34,.45,.45,.06,1.19-.11,.62,.74,.51,2.38,.85,.34,5.5-7.2,1.08-3.12,.45-2.72-.23-2.1-1.13-1.13-.62-.45-2.55-3.01-1.19-1.02,.06-.17,.74-.57,.34-.62-.06-.79-.4-.91-.23-.79,.23-3.63-.34-6.75h.45l.68,.51,.74-.06,.74-.28,1.53-.85,3.35-2.44,1.25-1.42,1.99-3.29,.57-.68,1.42-1.47,.68-.57,.79-.34,2.33-.23,.23,.11-1.3,3.74-.11,.45,.23,.23,.68,.23,.62,.28,.62,.17,.79-.17,.85-1.7,.51-.4,3.29-1.7,.68,.06,1.64,1.02,2.04,.85,.79,.62,3.91,1.19,.74,.06,.45-.23,.4-.51,.4-.74,.74-2.1,1.08,.91,.74,.4,.74,.28h2.55l.57,.28,.11,1.02-.57,1.13-.45,1.13,.51,1.3,.91,.96,.57,.23,.68-.11h.51l.62,.17,.62,.28,.28,.4,.06,.45v.85l.17,.45,.45,.62,.28,.23,.4-.06,.4-.45,.34-1.08,.57-.17,1.3,.17,1.25,.34,3.63,1.64,.51,.4,.79,1.08,.85,1.02,.23,.45,.57,.68,3.52,2.61h.62l1.02-.57,.57-.11,.96,.17,.34-.11,2.67-1.47,.34-.34,.57-.74,.28-.17,1.02-.11,.34-.11,1.76-1.25,5.39-2.55,2.27-.57,.62-.4,.96-.96,.34-.79,.45-.4,1.08-.23,1.02-.34,.74-.11,.96,.28h.91l.96-.17,.85-.4,.51-.74,.11-.45-.06-.4-.28-.79v-.51l.17-.23,.4-.17,.28-.28,.28-.4,.96-4.14,.23-.4,.34-.28,8.85-.45,4.37,.79,.68,.51-.06,1.42-1.64,7.71-.45,.57-2.5,1.3-1.47,.34-1.47-.28,.06,1.13,.74,.68,2.38,.91,.68,.51,.45,.4,.68,1.02,.11,.23,.06,1.93,.28,1.87,.62,1.76,1.25,1.53,2.44,1.19,6.86,1.42,4.37,1.93,1.81,2.67,1.36,2.44,1.25,1.59,1.36,.28,.85-.06,1.13,.23,.79,.45-.11,.91,.23,.34,2.21,2.33h-.06l-1.3-.45-.96,.17-1.87,1.36-.51,.23-3.23,.23-.91-.06-.62,.06-.23,.34,.11,1.08,.34,1.42,.51,1.25,.79,.62,1.99,.4,.79,.62,.11,1.13-.45,1.25-3.23,5.27,.11,2.21-.11,.74,.06,.62,.96,2.1,.28,.4,.45,.34,.68,.17,.85-.06,1.93-1.93,.57-.23,1.13,.4,1.36,2.1,.96,.51,.79-.17,1.81-1.3,1.3-.79,3.86-1.36,1.19-.74,.4-1.13-.11-7.77,1.64-1.36h0Zm-139.86,4.37l-1.59-.4-.57,.06-.28,.4-.06,.62v.68l-.06,.57-.23,.4-.62,.74-.28,.51v.45l.17,.96v.45l-.23,.28,.17,.4,.28,.28,.74,.4,.34-.28h.68l.74-.11,.23,.11,.34,.45,.79-.06,.57-.34,.91-.96,.4,.57,.91,.74,.4,.45,.06,.34-.06,.62,.23,.34,.57,.34,.74,.06-.11-.4-.17-.4-.45-.68,.57-.23v-.51l-.34-.51-.57-.23-.11-.85,.06-1.13,.23-1.19,.28-.68-.45,.17-.51-.06-.45-.17-.45-.45-.28-.45v-.17l.57-.57-.4-.23-1.08-.34-.51-.06-.4,.17-.68-.11h0Zm102.54-2.21l-.11-.57-.79,.79-.4-.06-.28-.51-.17-.17-.45,.06-1.53,.34-.45,.17-.62,.51-.68,.91-.51,1.02-.28,.79,.34,.51-.06,.28,.57,.91,.34,1.13,.28,.34,.34,.34,.85,.28,.4,.34,.34,.4,.74,.91,.45,.34,.74,.4,.74,.11,.45-.62,.23-.74,.51-.06,.57,.06,.45-.28,.06-.57-.57-1.42-.11-.68,.79,.23,.79,.06-.11-.45,.28-.85,.11-.51v-.74l-.23-.68-.96-2.16-.79-.06-.96,.06-.28-.17h0Zm-95.4,5.67l.85-.34,.4-.28,.28-.34-.62-.34-.68-.79-.45-.28-1.64,.85-.34,.45,.34,.45,.51,.34,.34,.23,.34,.11,.68-.06h0Zm5.56-18.09l-.11-.85,.4-.74,1.47-.68,.28-.28,.06-.45-.23-.34-1.25-.91-.68-.17-.68,.17-.74,.51-.45,.51-.23,.57-.4,1.47,.91,3.06,.45,.74,.11-.06,.17-.79,.45-.23,1.3,.23-.85-1.76h0Zm219.55,.85l-.79,.06-.91,.45-.85,.28-.96-.28-.68-.4-.62-.06-.85,.91-1.13,1.93-.4,1.08-.17,1.13,.06,.85,.62,.11,.74-.17,.74-.06,.34,.23,.57,.51,.28,.17,.57-.06,1.02-.45,.51,.17,1.02,.91,.62,.17,.62-.34,.34-.74-.23-.68-.4-.74-.23-.68,.06-.51,.45-.79,.23-1.81v-.34l-.57-.85h0Z"/>
  <circle class="cls-9" cx="385.93" cy="348.74" r="7.98"/>
  <path class="cls-10" d="M192.74,360.1c2.48-29.24-13.06-55.84-37.38-68.87-3.82-2.05-7.87-3.77-12.09-5.1l232.59,62.57-228.27,71.8c24.52-9.57,42.77-32.41,45.15-60.4Z"/>
  <path class="cls-5" d="M191.9,353.99c0,28.09-16.26,52.39-39.88,64l-8.78,3.6c-7.1,2.38-14.7,3.67-22.6,3.67-39.35,0-71.26-31.91-71.26-71.26,0-11.94,2.93-23.2,8.13-33.08,11.92-22.71,35.71-38.19,63.13-38.19,5.4,0,10.67,.6,15.72,1.74,4.32,.96,8.5,2.34,12.48,4.06,25.33,10.93,43.07,36.12,43.07,65.46Z"/>
  <line class="cls-1" x1="321.43" y1="324.74" x2="142.14" y2="145.44"/>
  <circle class="cls-6" cx="322.73" cy="326.03" r="3.75"/>
  <circle class="cls-6" cx="142.14" cy="145.44" r="3.75"/>
  <g>
    <path class="cls-12" d="M83.43,141.15c-.08-.08-.22-.19-.43-.32-.21-.14-.46-.27-.77-.39-.3-.12-.63-.23-.98-.33-.35-.1-.71-.14-1.07-.14-.63,0-1.11,.12-1.44,.36-.32,.24-.48,.57-.48,1,0,.33,.1,.59,.31,.78,.2,.19,.51,.36,.92,.49,.41,.14,.92,.28,1.53,.44,.79,.19,1.48,.43,2.07,.7,.58,.28,1.03,.64,1.34,1.08,.31,.45,.47,1.03,.47,1.77,0,.64-.12,1.19-.36,1.65-.24,.46-.57,.83-.99,1.11-.42,.28-.9,.49-1.43,.62-.53,.13-1.1,.19-1.7,.19s-1.2-.06-1.8-.19c-.6-.12-1.18-.3-1.73-.54-.56-.23-1.07-.51-1.53-.84l1.04-2.02c.1,.1,.28,.24,.54,.4,.26,.16,.58,.33,.95,.49,.37,.16,.78,.3,1.22,.42,.44,.11,.89,.17,1.34,.17,.63,0,1.12-.11,1.44-.32s.49-.52,.49-.91c0-.36-.13-.64-.39-.85-.26-.2-.62-.38-1.09-.53-.46-.15-1.01-.32-1.65-.5-.76-.21-1.39-.45-1.9-.72-.51-.27-.89-.6-1.14-1.01-.25-.41-.37-.91-.37-1.52,0-.82,.2-1.52,.59-2.07s.92-.98,1.59-1.27c.67-.29,1.41-.43,2.23-.43,.57,0,1.1,.06,1.61,.19,.5,.12,.98,.29,1.42,.49s.84,.43,1.19,.66l-1.04,1.9Z"/>
    <path class="cls-12" d="M89,142.31v7.75h-2.35v-12.07h1.87l6.24,7.96v-7.94h2.35v12.05h-1.96l-6.15-7.75Z"/>
    <path class="cls-12" d="M101.97,142.31v7.75h-2.35v-12.07h1.87l6.24,7.96v-7.94h2.35v12.05h-1.96l-6.15-7.75Z"/>
    <path class="cls-12" d="M112.6,150.06v-12.07h5.12c.56,0,1.06,.11,1.53,.34,.46,.23,.87,.53,1.22,.92,.35,.39,.61,.82,.81,1.29,.19,.48,.29,.96,.29,1.46,0,.68-.16,1.33-.48,1.94-.32,.61-.75,1.11-1.31,1.5-.56,.39-1.21,.58-1.97,.58h-2.86v4.05h-2.35Zm2.35-6.1h2.72c.28,0,.54-.08,.76-.24s.41-.39,.54-.69c.14-.3,.2-.64,.2-1.03,0-.42-.08-.78-.23-1.07-.15-.29-.35-.52-.59-.66-.24-.15-.51-.22-.79-.22h-2.62v3.91Z"/>
    <path class="cls-12" d="M123.19,150.06v-12.07h5.34c.56,0,1.07,.11,1.54,.34,.47,.23,.88,.53,1.22,.92s.61,.82,.8,1.29,.28,.96,.28,1.46-.09,1-.26,1.47-.43,.88-.76,1.23c-.33,.35-.71,.62-1.16,.82l2.75,4.54h-2.58l-2.48-4.05h-2.35v4.05h-2.35Zm2.35-6.1h2.94c.29,0,.56-.09,.78-.26,.23-.18,.41-.41,.54-.71,.14-.29,.2-.62,.2-.99,0-.39-.08-.72-.24-1.01s-.36-.52-.6-.69c-.24-.17-.51-.26-.79-.26h-2.84v3.91Z"/>
  </g>
  <g>
    <path class="cls-12" d="M48.71,282.82c-.78,0-1.52-.16-2.22-.48-.7-.32-1.31-.76-1.84-1.32-.53-.56-.94-1.22-1.23-1.96s-.44-1.56-.44-2.43c0-.83,.15-1.61,.44-2.34s.71-1.37,1.24-1.93c.53-.56,1.16-.99,1.87-1.31,.71-.32,1.49-.48,2.33-.48,1.13,0,2.11,.24,2.92,.72,.81,.48,1.42,1.12,1.83,1.91l-1.75,1.29c-.31-.6-.73-1.06-1.28-1.38s-1.15-.48-1.79-.48c-.51,0-.97,.11-1.39,.32s-.78,.51-1.09,.88c-.31,.37-.54,.8-.71,1.29-.16,.49-.25,1-.25,1.55,0,.58,.09,1.11,.26,1.6s.43,.91,.75,1.27c.32,.36,.7,.65,1.13,.86,.43,.21,.91,.31,1.43,.31,.61,0,1.2-.16,1.76-.48s1.09-.78,1.57-1.39v2.31c-1.01,1.09-2.19,1.63-3.54,1.63Zm3.37-4.57h-2.43v-1.72h4.37v6.21h-1.94v-4.49Z"/>
    <path class="cls-12" d="M59.93,282.9c-.71,0-1.36-.12-1.94-.36s-1.07-.57-1.48-.99-.72-.9-.94-1.45c-.22-.54-.33-1.12-.33-1.72,0-.84,.19-1.61,.57-2.3,.38-.7,.92-1.25,1.63-1.67,.71-.42,1.54-.63,2.51-.63s1.81,.21,2.5,.63c.69,.42,1.22,.98,1.59,1.67s.55,1.43,.55,2.23c0,.13,0,.27-.02,.41-.01,.14-.02,.26-.03,.35h-6.88c.04,.44,.18,.83,.4,1.16s.5,.58,.85,.76c.35,.17,.72,.26,1.11,.26,.45,0,.88-.11,1.28-.33,.4-.22,.68-.51,.82-.88l1.96,.54c-.22,.45-.52,.86-.93,1.21-.4,.35-.88,.63-1.42,.82-.54,.2-1.15,.3-1.8,.3Zm-2.33-5.29h4.66c-.05-.44-.17-.83-.38-1.15-.21-.33-.48-.58-.82-.76-.34-.18-.72-.27-1.14-.27s-.78,.09-1.11,.27c-.33,.18-.61,.44-.82,.76-.21,.33-.34,.71-.38,1.15Z"/>
    <path class="cls-12" d="M65.44,278.33c0-.85,.17-1.62,.51-2.31,.34-.69,.81-1.24,1.41-1.64,.6-.4,1.29-.61,2.06-.61,.66,0,1.25,.16,1.78,.48,.53,.32,.94,.73,1.23,1.23v-5.17h2.28v9.86c0,.24,.04,.41,.12,.51,.08,.1,.22,.16,.41,.19v1.85c-.4,.08-.72,.12-.97,.12-.41,0-.75-.1-1.01-.31-.27-.2-.42-.47-.45-.8l-.03-.56c-.33,.56-.77,.98-1.33,1.27s-1.15,.44-1.76,.44-1.18-.12-1.69-.35c-.52-.24-.96-.56-1.34-.98-.38-.41-.67-.9-.88-1.45-.21-.55-.31-1.15-.31-1.79Zm6.99,1.17v-2.08c-.11-.32-.29-.61-.54-.87-.25-.26-.53-.46-.83-.61-.31-.15-.61-.23-.92-.23-.35,0-.67,.07-.95,.22s-.53,.34-.74,.58c-.21,.24-.37,.53-.48,.85-.11,.32-.16,.66-.16,1.02s.06,.69,.18,1.01c.12,.32,.29,.59,.52,.83,.23,.23,.49,.42,.79,.55,.3,.13,.63,.2,.98,.2,.22,0,.43-.04,.65-.11,.22-.07,.43-.17,.63-.3,.2-.13,.37-.28,.53-.47,.15-.18,.27-.38,.35-.59Z"/>
    <path class="cls-12" d="M81.08,282.9c-.71,0-1.36-.12-1.94-.36s-1.07-.57-1.48-.99-.72-.9-.94-1.45c-.22-.54-.33-1.12-.33-1.72,0-.84,.19-1.61,.57-2.3,.38-.7,.92-1.25,1.63-1.67,.71-.42,1.54-.63,2.51-.63s1.81,.21,2.5,.63c.69,.42,1.22,.98,1.59,1.67s.55,1.43,.55,2.23c0,.13,0,.27-.02,.41-.01,.14-.02,.26-.03,.35h-6.88c.04,.44,.18,.83,.4,1.16s.5,.58,.85,.76c.35,.17,.72,.26,1.11,.26,.45,0,.88-.11,1.28-.33,.4-.22,.68-.51,.82-.88l1.96,.54c-.22,.45-.52,.86-.93,1.21-.4,.35-.88,.63-1.42,.82-.54,.2-1.15,.3-1.8,.3Zm-2.33-5.29h4.66c-.05-.44-.17-.83-.38-1.15-.21-.33-.48-.58-.82-.76-.34-.18-.72-.27-1.14-.27s-.78,.09-1.11,.27c-.33,.18-.61,.44-.82,.76-.21,.33-.34,.71-.38,1.15Z"/>
    <path class="cls-12" d="M92.2,282.9c-.68,0-1.29-.15-1.82-.46-.53-.31-.95-.73-1.26-1.26v1.55h-1.99v-12.41h2.28v5.17c.32-.53,.73-.95,1.25-1.26s1.12-.46,1.81-.46c.58,0,1.1,.12,1.58,.36,.48,.24,.89,.57,1.23,1,.35,.43,.61,.91,.8,1.46s.28,1.14,.28,1.77-.1,1.22-.31,1.77c-.21,.55-.5,1.03-.88,1.45-.37,.42-.81,.75-1.32,.98-.5,.23-1.06,.34-1.66,.34Zm-.63-1.94c.36,0,.69-.07,.99-.21,.3-.14,.56-.33,.78-.56s.39-.51,.51-.83c.12-.32,.18-.65,.18-.99,0-.48-.1-.92-.3-1.33-.2-.41-.47-.73-.82-.98-.35-.24-.75-.37-1.22-.37-.33,0-.64,.08-.94,.23-.3,.15-.57,.35-.8,.61-.23,.26-.42,.54-.55,.87v2.08c.07,.22,.18,.42,.33,.6,.15,.18,.33,.33,.54,.46,.2,.13,.42,.23,.64,.3,.22,.07,.44,.11,.65,.11Z"/>
  </g>
</svg>