<svg width="545" height="388" viewBox="0 0 545 388" fill="none" xmlns="http://www.w3.org/2000/svg">
<g clip-path="url(#clip0_1018_5361)">
<path d="M247.291 34.4816C254.95 34.9167 297.309 8.5207 300.321 8.99206C303.334 9.46342 323.769 17.549 332.843 19.507C343.442 21.7912 360.393 74.402 360.393 74.402H392.225C392.225 74.402 445.11 96.5921 477.523 103.191C509.937 109.79 539.7 156.019 544.528 163.815C549.319 171.611 517.196 207.615 510.88 213.017C504.565 218.42 454.112 215.701 444.203 219.326C434.294 222.952 374.803 294.055 363.986 303.047C353.17 312.039 309.904 326.47 294.586 328.246C279.269 330.023 208.09 310.226 208.09 310.226C208.09 310.226 161.231 331.836 127.874 370.524C127.874 370.524 89.7984 387.166 87.548 387.855C85.2975 388.544 41.3781 386.042 39.3455 385.172C37.3129 384.302 17.7125 360.879 16.805 359.066C15.8976 357.253 17.4947 316.97 17.4947 316.97C17.4947 316.97 51.505 260.48 55.7881 246.52C60.0711 232.561 51.0694 198.152 47.4397 179.007C43.8463 159.863 30.9972 133.866 25.1534 132.887C16.6235 131.581 -0.18198 125.49 -0.000495043 123.459C0.18099 121.429 11.4331 116.244 17.9665 117.368C24.5 118.492 31.2513 116.933 33.7195 112.183C36.1876 107.433 37.3129 111.277 39.8174 109.5C42.3218 107.723 41.1603 98.6951 44.7901 99.384C48.4198 100.073 47.7301 105.91 52.0132 106.599C56.2962 107.288 66.6409 108.158 71.6136 111.784C76.5863 115.41 87.6206 125.055 88.9635 126.868C91.6495 126.65 94.3718 121.683 95.7148 117.658C97.0578 113.597 98.6549 83.6841 98.8726 78.9343C99.0904 74.1845 105.624 69.7247 105.624 58.0133C105.624 46.3018 102.03 15.9174 101.341 13.2343C107.657 13.4518 113.972 12.1103 115.097 9.64471C116.223 7.17914 124.317 10.0798 126.821 11.6752C129.326 13.2705 144.607 21.1386 150.269 20.6672C155.932 20.1959 153.645 20.4497 165.587 20.6672C177.528 20.8848 187.655 13.9232 192.846 11.2038C198.036 8.48444 207.473 0.725166 212.156 0.362583L216.838 0C219.597 5.54752 237.164 35.0255 240.758 35.0255C244.351 35.0255 247.255 34.5179 247.255 34.5179L247.291 34.4816Z" fill="#AED0D4"/>
</g>
<defs>
<clipPath id="clip0_1018_5361">
<rect width="545" height="388" fill="white"/>
</clipPath>
</defs>
</svg>
