<svg width="623" height="476" viewBox="0 0 623 476" fill="none" xmlns="http://www.w3.org/2000/svg">
<path d="M201.568 233.665C200.858 232.839 188.58 232.992 186.614 233.423C184.648 233.855 168.032 241.627 163.466 243.913C158.899 246.199 152.05 245.602 142.715 237.843C133.379 230.083 124.437 218.387 118.082 219.022C116.243 219.441 112.412 221.752 110.421 223.911C108.43 226.07 109.216 230.845 110.002 231.747C110.789 232.649 111.626 239.583 112.311 240.992C112.996 242.402 117.397 252.028 119.972 253.819C122.547 255.609 128.267 258.175 128.369 259.178C128.47 260.181 125.743 262.645 124.437 264.016C123.13 265.388 118.767 266.226 120.086 273.744C120.556 276.576 122.027 278.265 122.813 279.319C123.6 280.373 124.652 286.99 120.454 287.777C116.256 288.565 115.254 288.145 115.203 291.041C115.152 293.936 115.672 298.191 114.366 299.296C113.059 300.401 109.799 304.337 107.91 304.553C106.02 304.769 103.293 303.029 101.187 303.918C99.0815 304.807 92.8409 310.852 89.8475 314.954C88.7947 316.008 82.2371 311.906 79.9793 311.69C77.7215 311.474 74.1573 313.735 72.6352 314.37C71.1131 315.005 69.8067 313.532 70.4789 312.008C71.1512 310.484 73.1553 308.122 72.0518 306.598C70.9482 305.074 59.8243 305.811 57.8837 305.861C55.943 305.912 52.0617 302.813 41.1915 302.394C38.6166 302.496 33.2132 294.356 30.0676 294.14C26.9219 293.924 23.6621 293.987 16.4196 296.87C14.0096 297.924 7.50268 296.286 5.54934 289.301C3.59599 282.316 -0.691211 273.097 0.0951991 272.677L0.88161 272.258C5.71423 270.366 9.0755 264.055 11.384 262.594C13.6925 261.134 19.1466 258.175 21.8864 255.241C24.6261 252.307 23.3577 241.157 23.5607 240.319C23.7636 239.481 23.345 234.223 22.7235 233.385C22.102 232.547 17.3455 230.121 17.4216 229.817C17.4977 229.512 17.9163 228.737 19.9204 230.083C21.9244 231.429 25.0701 232.915 27.1376 232.839C29.2051 232.763 31.2092 234.757 32.7059 230.261C34.2026 225.765 36.0164 223.086 36.955 221.435C37.8936 219.784 39.3904 216.939 38.4517 212.139C37.5131 207.338 33.7333 194.715 36.714 193.775C36.714 193.775 43.2463 193.064 43.6395 195.198C44.0327 197.331 44.0327 200.874 46.2397 201.662C48.4468 202.449 50.565 203.008 53.2413 202.919C55.9177 202.83 60.2429 201.738 61.2703 199.998C62.2977 198.258 67.6504 193.064 67.8787 192.201C68.107 191.337 77.2522 191.261 78.0386 191.883C78.825 192.505 85.5983 188.099 88.8201 183.921C92.0418 179.742 95.2762 174.459 96.9252 174.536C98.5741 174.612 101.339 174.536 101.809 173.355C102.278 172.174 105.436 168.63 106.299 168.541C107.161 168.453 105.829 164.439 104.878 163.258C103.927 162.077 97.6355 156.794 90.0758 156.401C82.5161 156.007 81.3365 155.22 81.3365 155.22C81.3365 155.22 81.0194 151.118 77.9498 150.8C74.8803 150.483 70.7073 149.149 69.6037 150.165C68.5002 151.181 68.5002 153.632 66.0649 152.997C63.6296 152.362 64.416 149.606 64.8853 148.108C65.3546 146.609 75.1974 138.024 75.1974 138.024C75.1974 138.024 75.1974 132.272 75.4384 131.954C75.6794 131.637 77.4805 130.532 77.7215 130.214C77.9625 129.897 77.8737 124.779 78.3557 123.598C78.3557 123.598 86.3847 111.14 84.0255 101.678C84.9641 101.361 85.7632 90.1727 91.1159 87.6455C96.4685 85.1183 101.986 79.6067 101.352 76.4572C100.718 73.3078 98.5234 68.4184 98.6756 65.4214C98.8278 62.4243 97.4198 55.9602 95.6821 53.9156C93.9444 51.871 92.8536 48.2389 92.3716 46.8166C91.8896 45.3942 90.0124 38.3079 90.0124 37.5205C90.0124 36.7332 89.3782 32.9487 89.226 29.0119C89.0737 25.075 90.0124 18.9284 91.7501 16.0837C93.4878 13.2391 99.462 6.15272 107.022 5.20026C114.581 4.24779 121.355 2.83815 124.183 1.26341C127.012 -0.311332 133.468 2.20317 136.626 3.15564C139.785 4.1081 144.338 5.04786 146.545 3.94301C148.752 2.83815 150.325 0.476038 152.849 1.73329C155.373 2.99054 157.568 3.86681 160.802 3.94301C164.036 4.0192 165.609 5.83523 168.045 7.01629C170.48 8.19734 176.936 2.59686 177.887 1.73329C178.839 0.869723 182.999 -1.80988 189.62 2.59686C196.241 7.00359 202.685 12.7692 205.678 14.1788C208.672 15.5885 219.301 21.1889 223.081 24.4273C226.86 27.6657 231.896 34.5107 232.923 36.0093C233.951 37.5078 241.587 43.3369 242.373 44.518C243.159 45.699 248.436 52.633 251.899 56.1888C255.362 59.7447 256.782 62.6529 258.672 64.3927C260.562 66.1325 269.301 66.2087 271.026 66.2849C272.751 66.3611 282.518 67.5422 285.359 66.0436C288.201 64.5451 297.637 58.0048 298.906 57.6874C300.174 57.3699 305.755 54.8554 307.328 55.2491C308.901 55.6427 314.101 54.3093 314.33 53.5092C314.558 52.7092 314.406 48.6961 312.123 47.5912C309.839 46.4864 306.922 44.4418 305.032 41.9908C303.142 39.5398 298.817 29.4563 297.079 27.7292C295.342 26.0021 294.479 21.9001 295.342 20.7953C296.204 19.6904 299.591 15.4361 300.77 14.1788C301.95 12.9216 303.371 8.81962 303.206 3.14294C303.206 1.09831 303.675 -0.00654378 304.779 0.0696533C305.882 0.14585 307.772 -0.565322 311.159 1.32691C314.545 3.21913 320.684 6.92739 325.327 7.94335C329.969 8.95931 342.412 13.8613 343.592 14.8011C344.771 15.7409 353.041 23.5511 354.855 25.202C356.669 26.8529 363.671 33.5583 365.637 35.6918C367.603 37.8253 370.672 45.0767 371.459 46.5753C372.245 48.0738 372.004 52.6457 373.425 54.1442C374.845 55.6427 379.881 56.7476 380.122 59.2621C380.363 61.7766 378.08 64.1514 378.549 66.196C379.018 68.2407 380.908 72.4188 381.301 72.9014C381.695 73.384 381.695 74.7174 382.557 75.6572C383.42 76.5969 388.861 80.7751 389.647 82.2736C389.888 83.1372 389.724 84.9532 390.358 85.7406C390.992 86.528 393.503 87.7852 393.503 88.4202C393.503 89.0552 393.973 90.2362 394.214 90.8585C394.455 91.4808 393.668 91.7983 393.668 92.357C393.668 92.9158 395.317 95.5065 396.421 96.7765C397.524 98.0464 402.953 101.742 404.057 102.606C405.16 103.469 405.553 106.073 407.126 107.571C408.699 109.07 410.043 107.177 411.845 108.917C413.646 110.657 418.618 115.064 419.95 115.457C421.281 115.851 424.44 115.305 425.619 115.381C426.799 115.457 427.357 116.727 427.04 117.82C426.723 118.912 426.33 119.394 425.391 119.559C424.452 119.724 423.894 123.661 423.97 124.373C424.047 125.084 424.047 129.808 424.998 133.046C425.949 136.285 425.391 137.148 425.86 137.859C426.33 138.571 428.854 138.888 428.854 139.358C428.854 139.828 428.308 140.933 427.205 141.885C426.736 143.625 428.778 146.063 429.805 148.273C430.833 150.483 443.973 162.065 447.918 165.062C451.863 168.059 454.222 169.71 458.395 169.786C462.568 169.862 465.79 169.24 472.246 165.455C478.702 161.671 486.807 158.522 492.946 159.461C499.085 160.401 507.431 163.792 510.97 169.075C514.509 174.358 515.384 174.751 512.074 182.32C508.763 189.889 502.7 203.44 506.252 208.494C509.803 213.549 511.884 216.927 514.141 217.396C516.399 217.866 525.303 217.714 531.518 215.657C537.734 213.599 544.672 210.145 553.487 210.844C562.303 211.542 571.904 212.736 578.843 219.441C585.781 226.146 588.838 229.766 592.3 232.522C595.763 235.277 595.611 236.382 597.412 236.624C599.213 236.865 605.2 236.7 606.621 236.941C608.041 237.182 609.614 237.259 613.001 236.624C616.387 235.989 621.499 233.703 621.981 234.185C622.463 234.668 617.174 245.069 615.918 246.961C614.662 248.853 602.219 271.242 600.647 277.706C599.074 284.171 592.694 308.681 591.121 321.85C588.444 334.626 585.692 349.129 585.21 350.627C584.728 352.126 579.705 361.904 579.781 364.419C579.857 366.933 580.568 381.601 579.147 389.246C577.726 396.891 575.684 407.534 574.898 410.531C574.898 414.861 575.05 451.601 574.657 452.617C574.264 453.633 565.055 469.253 563.393 470.98C561.732 472.708 558.117 474.13 557.331 474.689C556.544 475.247 550.557 475.159 548.046 473.901C545.534 472.644 543.086 471.069 542.769 471.069C542.452 471.069 534.106 471.146 533.713 470.599C533.32 470.053 528.208 467.132 523.553 466.663C518.898 466.193 513.241 464.224 508.51 463.907C503.778 463.589 495.597 464.847 491.183 466.586C486.769 468.326 480.402 467.221 477.484 465.482C474.567 463.742 463.24 457.278 462.213 455.309C461.185 453.341 457.33 438.051 451.267 434.888C445.204 431.726 437.175 429.847 426.786 433.542C424.503 434.647 407.583 432.755 400.251 427.002C392.92 421.249 374.744 402.797 373.095 399.723C371.446 396.65 368.376 392.396 367.894 390.427C367.412 388.459 363.645 389.488 361.59 390.11C359.536 390.732 353.32 389.475 350.644 387.976C347.968 386.478 342.856 385.297 338.29 380.649C333.724 376.001 332.227 371.975 329.005 370.87C325.783 369.765 321.762 368.343 319.01 368.737C316.258 369.13 312.554 371.099 309.801 373.385C307.049 375.671 302.711 380.712 302.242 380.242C301.772 379.772 300.669 377.41 299.806 377.169C298.944 376.928 297.993 376.928 296.268 374.413C294.543 371.899 287.871 366.527 286.552 365.638C285.232 364.749 284.928 364.952 284.027 365.79C283.127 366.628 280.666 366.527 280.298 365.574C279.931 364.622 280.451 360.482 280.298 360.063C280.146 359.644 275.212 358.59 274.946 354.653C274.679 350.716 274.996 346.347 274.578 344.988C274.159 343.63 270.747 340.518 269.644 337.839C268.54 335.159 264.139 330.587 261.095 330.067C258.051 329.546 252.964 328.911 251.81 326.968C250.656 325.025 251.594 324.187 249.4 320.72C247.206 317.253 242.842 313.837 240.534 312.465C238.225 311.094 230.399 304.261 227.939 300.743C225.478 297.226 222.117 292.12 222.167 288.869C222.218 285.618 224.425 283.358 225.427 282.354C226.429 281.351 231.934 275.992 231.731 270.531C231.528 265.07 226.429 253.4 223.753 249.717C221.077 246.034 219.187 243.57 217.817 242.046C216.447 240.522 214.303 241.36 211.678 240.573C209.052 239.786 202.596 236.001 202.177 235.112C201.759 234.223 201.568 233.677 201.568 233.677V233.665Z" fill="url(#paint0_linear_709_4860)" fill-opacity="0.6"/>
<defs>
<linearGradient id="paint0_linear_709_4860" x1="311.006" y1="0" x2="311.006" y2="475.017" gradientUnits="userSpaceOnUse">
<stop stop-color="#87BCC1" stop-opacity="0.75"/>
<stop offset="1" stop-color="#87BCC1" stop-opacity="0.3"/>
</linearGradient>
</defs>
</svg>
