<svg width="505" height="475" viewBox="0 0 505 475" fill="none" xmlns="http://www.w3.org/2000/svg">
<g opacity="0.6" clip-path="url(#clip0_714_4862)">
<path d="M504.441 200.313C504.288 201.516 503.609 214.168 500.465 216.749C497.311 219.33 497.99 225.028 498.286 227.685C498.593 230.343 498.965 253.855 499.042 256.928C499.118 259.99 491.09 261.335 488.013 256.993C484.946 252.652 480.587 243.444 476.622 241.727C472.647 239.999 465.221 243.892 461.618 244.122C458.014 244.341 452.845 243.367 451.421 243.214C449.997 243.072 445.419 243.969 444.521 246.145C443.623 248.31 438.3 251.383 438.366 256.173C438.442 260.963 438.891 262.833 440.545 265.611C442.199 268.378 448.573 276.087 449.69 277.586C450.819 279.084 452.166 282.08 449.625 285.973C447.073 289.867 440.841 304.805 441.181 311.268C441.52 317.72 441.86 338.444 442.867 344.677C443.886 350.911 445.003 359.845 446.021 361.978C447.029 364.11 453.502 371.689 452.998 375.91C452.483 380.12 445.233 398.646 444.62 401.566C443.995 404.486 441.356 420.999 440.337 424.597C439.33 428.195 437.019 433.641 429.144 436.9C421.269 440.148 416.834 439.644 414.917 441.11C413 442.564 408.302 443.549 407.513 444.292C406.462 445.353 405.98 445.845 405.98 445.845H403.395C403.296 445.987 403.176 446.162 403.034 446.359C402.081 447.715 372.63 469.16 365.829 472.966C359.038 476.772 347.21 474.191 340.408 471.883C333.607 469.576 317.836 474.596 314.298 475C314.167 473.097 314.714 468.625 314.298 465.224C313.915 462.052 300.41 450.176 296.26 445.79H286.676C286.019 446.25 283.84 447.77 281.353 449.235C278.363 451.007 269.251 465.125 267.619 467.159C265.987 469.193 257.423 462.949 250.49 456.704C243.557 450.46 239.067 445.769 239.067 445.769C239.067 445.769 224.949 429.255 221.455 428.73C217.972 428.206 215.004 428.698 213.175 429.704C211.335 430.721 195.323 425.439 189.168 422.366C183.024 419.304 173.09 417.237 164.843 418.287C156.585 419.337 150.397 417.838 146.016 414.503C141.624 411.178 137.396 410.271 133.3 410.085C129.215 409.899 125.097 407.351 124.308 406.574C123.52 405.787 113.093 401.555 111.067 400.844C109.041 400.133 104.616 398.252 100.18 394.436C95.7337 390.619 78.4948 379.617 75.2638 378.546C72.9529 377.474 65.6477 376.807 61.1463 377.08C56.4697 376.807 54.1697 375.516 53.9397 372.99C53.7206 370.453 56.4697 359.845 56.864 356.532C57.2582 353.218 58.5506 351.928 52.0888 343.78C45.8459 335.305 40.556 324.468 39.8222 321.876C39.0993 319.295 29.1437 316.43 25.4856 314.297C21.8275 312.165 9.96617 305.483 7.65524 303.854C5.3443 302.224 0.459569 298.462 0.174809 297.565C-0.109951 296.669 -0.328997 294.471 1.97099 292.283C4.28193 290.096 12.1019 282.572 12.2114 277.793C12.3209 273.025 11.6528 258.196 9.68141 254.992C7.71 251.788 5.3443 236.128 4.62145 234.662C3.88764 233.208 2.36527 232.366 2.93479 231.403C3.49336 230.452 5.18001 222.195 6.18763 218.827C7.20619 215.459 11.2585 209.728 14.1281 208.941C16.9866 208.154 29.8665 207.705 38.9788 207.76C48.0912 207.826 53.7206 208.668 55.2321 208.493C56.7544 208.329 65.812 200.575 67.8382 197.71C69.5796 195.348 70.5324 195.413 71.4305 195.742C72.3396 196.081 78.7467 198.552 85.0443 199C91.3418 199.449 98.9427 198.497 104.112 195.916C109.293 193.336 110.979 190.689 112.217 190.525C113.455 190.35 116.488 191.98 119.577 192.319C122.676 192.658 129.927 187.321 130.891 185.582C132.577 184.117 135.052 186.14 136.115 188.338C137.188 190.525 142.861 198.104 152.368 200.805C155.741 201.702 155.687 201.702 155.971 203.495C156.256 205.289 156.87 210.177 156.366 210.571C155.862 210.964 149.28 219.221 148.831 226.067C148.381 232.923 150.857 235.395 152.938 237.243C155.019 239.102 157.494 243.028 158.731 243.367C159.958 243.706 173.353 245.729 180.264 242.635C187.185 239.551 191.851 236.849 197.645 237.921C203.439 238.993 206.867 245.839 207.382 247.753C207.885 249.655 209.462 254.205 211.478 256.064C213.504 257.912 214.522 258.929 216.264 259.323C218.005 259.716 220.59 258.984 222.167 256.622C223.744 254.259 227.961 246.232 227.851 244.603C227.742 242.974 231.619 239.496 234.039 239.266C236.46 239.048 248.551 238.993 250.008 238.993C251.465 238.993 255.637 234.947 256.755 231.633C257.883 228.319 259.46 223.661 263.063 223.989C266.655 224.328 266.042 226.067 270.314 226.067C274.585 226.067 276.447 222.928 277.235 221.692C278.024 220.457 281.846 216.071 282.974 214.726C284.092 213.381 283.478 209.564 281.562 207.202C279.656 204.84 276.611 200.52 275.373 196.31C274.136 192.1 269.131 184.795 268.014 183.843C266.885 182.881 259.296 174.69 257.598 172.721C256.306 170.141 255.802 156.766 255.637 156.208C255.462 155.651 253.666 153.179 253.611 152.107C253.556 151.047 254.674 144.693 252.987 137.06C251.3 129.426 251.246 124.593 250.512 122.963C249.789 121.334 237.413 109.873 235.277 106.953C233.141 104.033 233.47 101.168 236.909 99.7135C240.337 98.2481 259.515 88.8214 259.515 88.8214C265.144 82.5332 271.442 68.8306 280.893 65.8997C290.334 62.9799 308.789 65.2327 314.638 64.1063C320.486 62.9799 331.504 58.2665 333.76 52.4267C336.005 46.587 335.786 38.0461 336.685 36.2526C337.583 34.4591 344.329 18.5036 346.585 16.9289C348.831 15.365 363.452 9.06597 370.199 7.05377C376.956 5.03063 386.627 -1.48716 387.306 0.306326C387.974 2.11075 390.898 15.8134 392.027 17.8365C393.155 19.8487 392.706 27.9413 388.872 29.2864C385.05 30.6315 367.504 42.7704 367.504 46.587C367.504 50.4036 372.674 54.8983 376.277 56.2434C379.88 57.5885 378.522 61.8644 380.329 63.6579C382.126 65.4514 386.178 69.2789 387.306 72.4175C388.423 75.5671 393.155 80.5101 397.875 81.6255C402.596 82.7519 409.09 86.831 412.047 91.2491C415.015 95.6672 425.552 112.333 427.72 114.575C429.9 116.828 436.876 129.175 438.749 133.221C440.622 137.267 445.123 143.26 446.098 143.774C447.073 144.299 453.14 153.89 455.473 156.055C457.795 158.231 459.515 162.42 459.142 164.673C458.77 166.915 459.668 172.754 461.398 175.751C463.118 178.747 466.491 182.422 470.314 184.434C474.147 186.457 479.766 189.235 486.895 190.131C494.014 191.028 503.839 192.756 504.66 193.871C505.492 194.998 504.583 199.121 504.441 200.313Z" fill="url(#paint0_linear_714_4862)"/>
</g>
<defs>
<linearGradient id="paint0_linear_714_4862" x1="252.504" y1="-0.00244141" x2="252.504" y2="475" gradientUnits="userSpaceOnUse">
<stop stop-color="#87BCC1" stop-opacity="0.75"/>
<stop offset="1" stop-color="#87BCC1" stop-opacity="0.3"/>
</linearGradient>
<clipPath id="clip0_714_4862">
<rect width="505" height="475" fill="white"/>
</clipPath>
</defs>
</svg>
