<svg width="505" height="475" viewBox="0 0 505 475" fill="none" xmlns="http://www.w3.org/2000/svg">
<g opacity="0.6" clip-path="url(#clip0_714_4862)">
<path d="M504.441 200.313C504.288 201.516 503.609 214.169 500.465 216.75C497.311 219.331 497.99 225.028 498.286 227.686C498.593 230.343 498.965 253.855 499.042 256.928C499.118 259.99 491.09 261.335 488.013 256.994C484.946 252.652 480.587 243.444 476.622 241.727C472.647 239.999 465.221 243.893 461.618 244.122C458.014 244.341 452.845 243.368 451.421 243.215C449.997 243.072 445.419 243.969 444.521 246.145C443.623 248.311 438.3 251.384 438.366 256.174C438.442 260.964 438.891 262.834 440.545 265.611C442.199 268.378 448.573 276.088 449.69 277.586C450.819 279.084 452.166 282.081 449.625 285.974C447.073 289.867 440.841 304.806 441.181 311.269C441.52 317.721 441.86 338.444 442.867 344.678C443.886 350.911 445.003 359.846 446.021 361.978C447.029 364.111 453.502 371.689 452.998 375.911C452.483 380.121 445.233 398.646 444.62 401.566C443.995 404.486 441.356 420.999 440.337 424.597C439.33 428.195 437.019 433.641 429.144 436.9C421.269 440.148 416.834 439.645 414.917 441.11C413 442.565 408.302 443.549 407.513 444.293C406.462 445.353 405.98 445.846 405.98 445.846H403.395C403.296 445.988 403.176 446.163 403.034 446.36C402.081 447.716 372.63 469.161 365.829 472.967C359.038 476.772 347.21 474.191 340.408 471.884C333.607 469.576 317.836 474.596 314.298 475.001C314.167 473.098 314.714 468.625 314.298 465.224C313.915 462.053 300.41 450.176 296.26 445.791H286.676C286.019 446.25 283.84 447.77 281.353 449.236C278.363 451.007 269.251 465.126 267.619 467.16C265.987 469.194 257.423 462.949 250.49 456.705C243.557 450.461 239.067 445.769 239.067 445.769C239.067 445.769 224.949 429.256 221.455 428.731C217.972 428.206 215.004 428.698 213.175 429.704C211.335 430.721 195.323 425.439 189.168 422.366C183.024 419.304 173.09 417.237 164.843 418.287C156.585 419.337 150.397 417.839 146.016 414.503C141.624 411.179 137.396 410.271 133.3 410.085C129.215 409.899 125.097 407.351 124.308 406.575C123.52 405.787 113.093 401.555 111.067 400.844C109.041 400.134 104.616 398.253 100.18 394.436C95.7337 390.619 78.4948 379.618 75.2638 378.546C72.9529 377.474 65.6477 376.807 61.1463 377.081C56.4697 376.807 54.1697 375.517 53.9397 372.991C53.7206 370.454 56.4697 359.846 56.864 356.532C57.2582 353.219 58.5506 351.928 52.0888 343.781C45.8459 335.306 40.556 324.468 39.8222 321.876C39.0993 319.296 29.1437 316.43 25.4856 314.298C21.8275 312.165 9.96617 305.484 7.65524 303.854C5.3443 302.225 0.459569 298.463 0.174809 297.566C-0.109951 296.669 -0.328997 294.471 1.97099 292.284C4.28193 290.097 12.1019 282.573 12.2114 277.794C12.3209 273.026 11.6528 258.197 9.68141 254.993C7.71 251.788 5.3443 236.128 4.62145 234.663C3.88764 233.208 2.36527 232.366 2.93479 231.404C3.49336 230.452 5.18001 222.196 6.18763 218.828C7.20619 215.459 11.2585 209.729 14.1281 208.942C16.9866 208.154 29.8665 207.706 38.9788 207.761C48.0912 207.826 53.7206 208.668 55.2321 208.493C56.7544 208.329 65.812 200.576 67.8382 197.71C69.5796 195.348 70.5324 195.414 71.4305 195.742C72.3396 196.081 78.7467 198.553 85.0443 199.001C91.3418 199.449 98.9427 198.498 104.112 195.917C109.293 193.336 110.979 190.69 112.217 190.526C113.455 190.351 116.488 191.98 119.577 192.319C122.676 192.658 129.927 187.321 130.891 185.583C132.577 184.117 135.052 186.14 136.115 188.338C137.188 190.526 142.861 198.104 152.368 200.805C155.741 201.702 155.687 201.702 155.971 203.496C156.256 205.289 156.87 210.177 156.366 210.571C155.862 210.965 149.28 219.221 148.831 226.067C148.381 232.924 150.857 235.395 152.938 237.244C155.019 239.103 157.494 243.029 158.731 243.368C159.958 243.707 173.353 245.73 180.264 242.635C187.185 239.551 191.851 236.85 197.645 237.922C203.439 238.993 206.867 245.839 207.382 247.753C207.885 249.656 209.462 254.205 211.478 256.064C213.504 257.912 214.522 258.93 216.264 259.323C218.005 259.717 220.59 258.984 222.167 256.622C223.744 254.26 227.961 246.233 227.851 244.604C227.742 242.974 231.619 239.496 234.039 239.267C236.46 239.048 248.551 238.993 250.008 238.993C251.465 238.993 255.637 234.947 256.755 231.634C257.883 228.32 259.46 223.661 263.063 223.989C266.655 224.328 266.042 226.067 270.314 226.067C274.585 226.067 276.447 222.929 277.235 221.693C278.024 220.457 281.846 216.072 282.974 214.727C284.092 213.382 283.478 209.565 281.562 207.203C279.656 204.841 276.611 200.521 275.373 196.311C274.136 192.1 269.131 184.795 268.014 183.844C266.885 182.881 259.296 174.69 257.598 172.722C256.306 170.141 255.802 156.766 255.637 156.209C255.462 155.651 253.666 153.18 253.611 152.108C253.556 151.047 254.674 144.693 252.987 137.06C251.3 129.427 251.246 124.593 250.512 122.964C249.789 121.334 237.413 109.873 235.277 106.954C233.141 104.034 233.47 101.168 236.909 99.714C240.337 98.2486 259.515 88.8218 259.515 88.8218C265.144 82.5337 271.442 68.831 280.893 65.9002C290.334 62.9804 308.789 65.2331 314.638 64.1068C320.486 62.9804 331.504 58.267 333.76 52.4272C336.005 46.5875 335.786 38.0465 336.685 36.2531C337.583 34.4596 344.329 18.5041 346.585 16.9294C348.831 15.3655 363.452 9.06646 370.199 7.05425C376.956 5.03112 386.627 -1.48667 387.306 0.306814C387.974 2.11123 390.898 15.8139 392.027 17.837C393.155 19.8492 392.706 27.9418 388.872 29.2869C385.05 30.632 367.504 42.7708 367.504 46.5875C367.504 50.4041 372.674 54.8987 376.277 56.2439C379.88 57.589 378.522 61.8649 380.329 63.6584C382.126 65.4519 386.178 69.2794 387.306 72.418C388.423 75.5676 393.155 80.5106 397.875 81.626C402.596 82.7524 409.09 86.8315 412.047 91.2496C415.015 95.6677 425.552 112.334 427.72 114.576C429.9 116.829 436.876 129.175 438.749 133.222C440.622 137.268 445.123 143.261 446.098 143.775C447.073 144.3 453.14 153.89 455.473 156.056C457.795 158.232 459.515 162.42 459.142 164.673C458.77 166.915 459.668 172.755 461.398 175.751C463.118 178.748 466.491 182.422 470.314 184.434C474.147 186.457 479.766 189.235 486.895 190.132C494.014 191.029 503.839 192.756 504.66 193.872C505.492 194.998 504.583 199.121 504.441 200.313Z" fill="#87BCC1"/>
</g>
<defs>
<clipPath id="clip0_714_4862">
<rect width="505" height="475" fill="white"/>
</clipPath>
</defs>
</svg>
