<svg width="334" height="315" viewBox="0 0 334 315" fill="none" xmlns="http://www.w3.org/2000/svg">
<path opacity="0.65" d="M331.782 133.1C331.682 133.889 331.24 142.179 329.179 143.868C327.118 145.558 327.559 149.291 327.754 151.033C327.954 152.776 328.195 168.177 328.248 170.185C328.301 172.192 323.048 173.069 321.033 170.226C319.025 167.382 316.174 161.354 313.583 160.229C310.979 159.099 306.12 161.648 303.764 161.795C301.408 161.936 298.022 161.301 297.091 161.201C296.161 161.106 293.163 161.695 292.574 163.12C291.985 164.539 288.504 166.552 288.545 169.69C288.598 172.828 288.887 174.053 289.97 175.872C291.054 177.685 295.224 182.736 295.954 183.714C296.691 184.697 297.574 186.657 295.913 189.206C294.246 191.756 290.165 201.54 290.389 205.773C290.612 210.001 290.83 223.571 291.49 227.657C292.156 231.742 292.886 237.594 293.551 238.99C294.211 240.385 298.446 245.348 298.116 248.115C297.78 250.87 293.033 263.004 292.633 264.917C292.226 266.831 290.495 277.646 289.829 280.001C289.169 282.356 287.656 285.923 282.508 288.06C277.354 290.186 274.451 289.856 273.202 290.816C271.948 291.769 268.873 292.411 268.361 292.9C267.672 293.594 267.359 293.918 267.359 293.918H265.669C265.604 294.012 265.528 294.124 265.433 294.254C264.809 295.143 245.538 309.19 241.091 311.68C236.65 314.171 228.911 312.481 224.458 310.974C220.005 309.461 209.686 312.752 207.372 313.017C207.283 311.769 207.643 308.843 207.372 306.611C207.118 304.533 198.284 296.756 195.568 293.883H189.296C188.866 294.183 187.44 295.178 185.815 296.138C183.859 297.298 177.899 306.547 176.827 307.877C175.761 309.208 170.154 305.122 165.619 301.03C161.084 296.938 158.145 293.865 158.145 293.865C158.145 293.865 148.909 283.05 146.624 282.703C144.345 282.361 142.401 282.679 141.205 283.339C140.004 284.004 129.526 280.542 125.497 278.535C121.475 276.527 114.978 275.173 109.583 275.862C104.182 276.551 100.13 275.568 97.2674 273.383C94.3932 271.205 91.625 270.61 88.9451 270.487C86.2711 270.363 83.5795 268.697 83.0611 268.185C82.5428 267.667 75.7224 264.9 74.3972 264.429C73.072 263.964 70.1742 262.733 67.2764 260.231C64.3669 257.729 53.0879 250.523 50.9734 249.822C49.4598 249.122 44.6831 248.686 41.7382 248.863C38.6755 248.686 37.1736 247.838 37.0205 246.184C36.8791 244.524 38.6755 237.577 38.9346 235.404C39.1938 233.232 40.036 232.39 35.813 227.05C31.7255 221.498 28.2682 214.398 27.7852 212.703C27.314 211.013 20.7999 209.135 18.4027 207.74C16.0115 206.344 8.24869 201.964 6.73501 200.899C5.22133 199.833 2.02905 197.366 1.84057 196.778C1.6521 196.189 1.51074 194.752 3.01854 193.316C4.53222 191.885 9.64458 186.958 9.72115 183.826C9.79182 180.705 9.35598 170.991 8.06611 168.889C6.77624 166.788 5.22722 156.532 4.75603 155.572C4.27306 154.619 3.27769 154.065 3.65464 153.435C4.01981 152.811 5.1212 147.407 5.78086 145.199C6.44641 142.991 9.09683 139.241 10.9757 138.723C12.8486 138.205 21.2711 137.916 27.2375 137.952C33.198 137.993 36.885 138.546 37.8745 138.434C38.8699 138.328 44.795 133.248 46.1202 131.37C47.257 129.821 47.8813 129.862 48.4703 130.08C49.0651 130.304 53.2587 131.923 57.3757 132.217C61.4985 132.512 66.4695 131.888 69.8503 130.198C73.2369 128.508 74.3442 126.772 75.1511 126.666C75.958 126.554 77.9488 127.619 79.969 127.843C81.9951 128.067 86.7423 124.57 87.3725 123.433C88.4739 122.474 90.0936 123.798 90.7886 125.241C91.4895 126.671 95.2001 131.634 101.426 133.407C103.634 133.995 103.599 133.995 103.782 135.167C103.97 136.344 104.371 139.541 104.041 139.8C103.711 140.059 99.4054 145.464 99.1109 149.95C98.8164 154.442 100.436 156.061 101.797 157.268C103.157 158.486 104.777 161.059 105.59 161.277C106.391 161.501 115.155 162.825 119.678 160.794C124.207 158.775 127.258 157.003 131.051 157.709C134.844 158.41 137.083 162.896 137.424 164.15C137.754 165.398 138.785 168.377 140.104 169.596C141.429 170.809 142.095 171.474 143.237 171.733C144.374 171.992 146.07 171.509 147.101 169.961C148.132 168.413 150.894 163.155 150.818 162.09C150.747 161.024 153.285 158.746 154.864 158.592C156.448 158.451 164.358 158.416 165.312 158.416C166.267 158.416 168.994 155.767 169.724 153.594C170.46 151.422 171.497 148.372 173.853 148.59C176.203 148.814 175.802 149.95 178.594 149.95C181.386 149.95 182.605 147.895 183.123 147.083C183.642 146.276 186.139 143.403 186.881 142.52C187.611 141.637 187.211 139.141 185.956 137.592C184.708 136.044 182.717 133.218 181.91 130.457C181.103 127.702 177.822 122.915 177.092 122.291C176.356 121.661 171.391 116.298 170.278 115.009C169.429 113.319 169.1 104.559 168.994 104.194C168.882 103.829 167.704 102.21 167.668 101.509C167.633 100.814 168.363 96.652 167.262 91.6537C166.161 86.6554 166.125 83.488 165.642 82.4224C165.171 81.3568 157.073 73.8505 155.677 71.9371C154.281 70.0237 154.493 68.1457 156.743 67.1978C158.987 66.2382 171.532 60.0624 171.532 60.0624C175.213 55.9412 179.336 46.969 185.52 45.0497C191.699 43.1363 203.773 44.6141 207.601 43.8723C211.43 43.1363 218.639 40.0455 220.111 36.2246C221.578 32.3979 221.437 26.8049 222.026 25.6334C222.614 24.4618 227.026 14.0059 228.504 12.9756C229.971 11.9512 239.542 7.82423 243.953 6.50547C248.377 5.18082 254.702 0.912518 255.144 2.08409C255.58 3.26744 257.494 12.2397 258.23 13.5644C258.966 14.8831 258.672 20.1817 256.169 21.0648C253.666 21.9479 242.186 29.8958 242.186 32.3979C242.186 34.9 245.567 37.8436 247.929 38.7209C250.285 39.604 249.395 42.4004 250.579 43.5779C251.757 44.7554 254.408 47.2575 255.144 49.318C255.874 51.3786 258.972 54.6166 262.059 55.3466C265.145 56.0825 269.397 58.7554 271.329 61.6519C273.273 64.5485 280.164 75.4636 281.583 76.9295C283.009 78.4072 287.573 86.4905 288.798 89.1398C290.023 91.7891 292.968 95.716 293.604 96.0515C294.241 96.393 298.21 102.675 299.736 104.094C301.255 105.518 302.38 108.262 302.139 109.74C301.897 111.205 302.48 115.032 303.617 116.999C304.742 118.959 306.951 121.367 309.448 122.686C311.957 124.01 315.632 125.83 320.297 126.418C324.956 127.007 331.382 128.137 331.918 128.867C332.46 129.603 331.865 132.306 331.776 133.089L331.782 133.1Z" fill="#97C2C4" stroke="white" stroke-width="3" stroke-miterlimit="10"/>
</svg>
