<svg width="45" height="40" viewBox="0 0 45 40" fill="none" xmlns="http://www.w3.org/2000/svg">
<path d="M11.1053 32.2468C17.2386 32.2468 22.2107 25.2031 22.2107 16.5143C22.2107 7.82544 17.2386 0.781738 11.1053 0.781738C4.97202 0.781738 0 7.82544 0 16.5143C0 25.2031 4.97202 32.2468 11.1053 32.2468Z" fill="#986B54"/>
<path d="M3.40039 27.8433C5.39731 30.5696 8.11284 32.2468 11.1052 32.2468C17.2385 32.2468 22.2105 25.2031 22.2105 16.5143C22.2105 10.3417 19.7009 5.00042 16.0487 2.42383C17.1359 3.90811 18.0096 5.70379 18.5992 7.70917C18.7686 8.28548 18.5712 8.90644 18.0991 9.278C17.3531 9.86513 16.636 10.4997 15.9587 11.177C12.6658 14.47 10.4694 18.5042 9.77415 22.5365C9.4575 24.3731 9.46337 26.1198 9.77651 27.7229C9.95285 28.6257 9.28261 29.4832 8.36268 29.4854C8.35644 29.4854 8.35012 29.4854 8.34379 29.4854C6.56769 29.4854 4.88925 28.8937 3.40039 27.8433Z" fill="#845C47"/>
<path d="M12.0287 27.4664C11.6546 25.7086 11.3304 23.8778 10.8512 22.1621C10.3973 20.4919 9.84136 18.8978 9.16746 17.333C7.54988 13.5929 7.26797 9.11267 9.14149 5.42603C9.2623 5.19995 9.54809 5.11228 9.77981 5.23011C10.2662 5.60579 10.3091 7.30107 10.5472 7.96606C11.1308 10.6341 11.9284 13.2413 13.0434 15.6986C13.8881 17.586 14.3892 19.6397 14.4422 21.6946C14.4884 23.7352 14.1464 25.7958 13.2269 27.6267C13.0682 27.9341 12.6842 28.0578 12.369 27.9031C12.1851 27.8126 12.0686 27.6503 12.0287 27.4664Z" fill="#664545"/>
<path d="M12.3687 27.9029C12.6838 28.0577 13.0678 27.934 13.2265 27.6265C14.1461 25.7955 14.4881 23.735 14.4418 21.6944C14.3887 19.6395 13.8877 17.5858 13.043 15.6985C12.9522 15.4983 12.8642 15.2968 12.7776 15.0947C11.6905 16.7695 10.8535 18.5378 10.3027 20.333C10.4999 20.9338 10.6825 21.5426 10.8508 22.1619C11.33 23.8776 11.6541 25.7084 12.0283 27.4663C12.0682 27.6501 12.1846 27.8125 12.3687 27.9029Z" fill="#523838"/>
<path d="M33.2282 28.4521C39.3712 22.3091 40.8359 13.814 36.4996 9.47772C32.1634 5.14148 23.6683 6.60615 17.5253 12.7492C11.3822 18.8922 9.91756 27.3873 14.2538 31.7235C18.5901 36.0598 27.0852 34.5951 33.2282 28.4521Z" fill="#986B54"/>
<path d="M38.8411 14.1323C38.2998 17.6381 36.3811 21.4013 33.2348 24.5477C27.0908 30.6916 18.5945 32.1565 14.2575 27.8196C13.0016 26.5637 12.2332 24.9585 11.9231 23.163C11.4073 26.5028 12.1416 29.6089 14.2575 31.7248C18.5945 36.0618 27.0908 34.5968 33.2348 28.4529C37.5994 24.0882 39.6017 18.5367 38.8411 14.1323Z" fill="#845C47"/>
<path d="M18.2901 28.9974C19.2684 27.4899 20.3338 25.9661 21.2082 24.4141C22.0682 22.9121 22.8022 21.3918 23.4322 19.8088C24.933 16.0203 27.9017 12.653 31.8333 11.3709C32.0786 11.2965 32.3427 11.4366 32.4232 11.6838C32.5014 12.2933 31.3331 13.5224 31.0312 14.161C29.5573 16.4602 28.2777 18.8679 27.3285 21.3938C26.5913 23.3256 25.4934 25.1322 24.0779 26.6227C22.6677 28.0983 20.9688 29.3135 19.0239 29.958C18.6943 30.0632 18.3353 29.8791 18.222 29.5468C18.1558 29.3527 18.1883 29.1557 18.2901 28.9974Z" fill="#523838"/>
</svg>
