<svg width="43" height="38" viewBox="0 0 43 38" fill="none" xmlns="http://www.w3.org/2000/svg">
<path d="M10.767 30.5064C16.7134 30.5064 21.534 23.6773 21.534 15.2532C21.534 6.8291 16.7134 0 10.767 0C4.82054 0 0 6.8291 0 15.2532C0 23.6773 4.82054 30.5064 10.767 30.5064Z" fill="#A39665"/>
<path d="M3.29688 26.2368C5.23296 28.88 7.86575 30.5061 10.7669 30.5061C16.7133 30.5061 21.5339 23.677 21.5339 15.2529C21.5339 9.26847 19.1007 4.08988 15.5598 1.5918C16.6139 3.03086 17.461 4.77183 18.0326 6.7161C18.1969 7.27486 18.0054 7.8769 17.5478 8.23714C16.8245 8.80639 16.1292 9.42164 15.4726 10.0783C12.28 13.2709 10.1505 17.1822 9.47644 21.0917C9.16944 22.8723 9.17513 24.5658 9.47873 26.12C9.6497 26.9954 8.99988 27.8267 8.10798 27.8289C8.10192 27.8289 8.0958 27.8289 8.08967 27.8289C6.36768 27.8289 4.74037 27.2552 3.29688 26.2368Z" fill="#938654"/>
<path d="M11.6619 25.8718C11.2992 24.1676 10.9849 22.3926 10.5203 20.7291C10.0802 19.1098 9.54121 17.5642 8.88785 16.0471C7.31954 12.421 7.04622 8.07726 8.86266 4.50294C8.97979 4.28375 9.25688 4.19874 9.48154 4.31299C9.95307 4.67722 9.99473 6.32086 10.2256 6.96558C10.7914 9.55229 11.5647 12.0801 12.6457 14.4626C13.4646 16.2924 13.9505 18.2836 14.0019 20.2758C14.0467 22.2542 13.7151 24.2521 12.8236 26.0272C12.6698 26.3253 12.2974 26.4452 11.9919 26.2951C11.8135 26.2075 11.7006 26.0501 11.6619 25.8718Z" fill="#746632"/>
<path d="M11.9922 26.2949C12.2978 26.4449 12.6701 26.325 12.824 26.0269C13.7155 24.2517 14.0471 22.254 14.0023 20.2756C13.9508 18.2833 13.465 16.2921 12.6461 14.4623C12.558 14.2682 12.4727 14.0729 12.3887 13.877C11.3348 15.5007 10.5232 17.2151 9.98926 18.9556C10.1805 19.5381 10.3574 20.1284 10.5206 20.7288C10.9852 22.3923 11.2995 24.1673 11.6622 25.8716C11.7009 26.0498 11.8138 26.2072 11.9922 26.2949Z" fill="#746632"/>
<path d="M32.216 26.8272C38.1719 20.8714 39.5919 12.6351 35.3878 8.43093C31.1837 4.2268 22.9474 5.64685 16.9915 11.6027C11.0357 17.5585 9.61564 25.7948 13.8198 29.999C18.0239 34.2031 26.2602 32.7831 32.216 26.8272Z" fill="#A39665"/>
<path d="M37.6573 12.9434C37.1324 16.3423 35.2723 19.9908 32.2218 23.0414C26.265 28.9981 18.0275 30.4184 13.8227 26.2137C12.605 24.9959 11.86 23.4397 11.5594 21.6989C11.0593 24.9369 11.7713 27.9484 13.8227 29.9999C18.0275 34.2047 26.265 32.7843 32.2218 26.8276C36.4534 22.5959 38.3947 17.2136 37.6573 12.9434Z" fill="#938654"/>
<path d="M17.7332 27.3559C18.6818 25.8943 19.7147 24.417 20.5625 22.9122C21.3962 21.456 22.1079 19.982 22.7187 18.4472C24.1738 14.7742 27.052 11.5095 30.8639 10.2664C31.1017 10.1943 31.3577 10.3301 31.4358 10.5697C31.5116 11.1607 30.3789 12.3524 30.0862 12.9715C28.6572 15.2006 27.4166 17.535 26.4963 19.984C25.7815 21.8569 24.7171 23.6084 23.3447 25.0536C21.9774 26.4842 20.3303 27.6624 18.4447 28.2872C18.1251 28.3892 17.7771 28.2107 17.6672 27.8886C17.6031 27.7004 17.6346 27.5093 17.7332 27.3559Z" fill="#746632"/>
</svg>
