<svg width="172" height="258" viewBox="0 0 172 258" fill="none" xmlns="http://www.w3.org/2000/svg">
<path fill-rule="evenodd" clip-rule="evenodd" d="M78.5035 0.840784C28.6826 3.94041 2.64834 32.1538 0.375 83.1735H50.6326C51.2619 65.5005 61.1259 52.2886 79.4925 50.3406C97.5208 48.4269 114.624 52.721 119.805 65.0467C125.4 78.3614 112.839 93.8338 106.867 100.328C95.8126 112.372 77.8571 121.157 68.5496 134.15C59.4263 146.883 57.8037 163.635 57.1016 184.138H101.395C102.016 171.029 102.89 158.472 108.853 150.325C118.555 137.087 133.042 130.884 145.184 120.429C156.782 110.436 168.983 98.3933 171.056 79.7528C177.276 23.9638 131.737 -2.48147 78.5035 0.840784Z" fill="#086965"/>
<path d="M79.6424 257.438C95.0871 257.438 107.608 245.107 107.608 229.896C107.608 214.686 95.0871 202.355 79.6424 202.355C64.1977 202.355 51.6772 214.686 51.6772 229.896C51.6772 245.107 64.1977 257.438 79.6424 257.438Z" fill="#086965"/>
</svg>
