<svg width="206" height="206" viewBox="0 0 206 206" fill="none" xmlns="http://www.w3.org/2000/svg">
<g opacity="0.5" clip-path="url(#clip0_10_621)">
<path fill-rule="evenodd" clip-rule="evenodd" d="M193.882 187.448C200.571 187.448 205.999 182.177 205.999 175.706C205.999 169.235 200.571 163.964 193.882 163.964C160.473 163.964 145.411 149.411 145.411 116.621V101.861H187.108C197.166 101.861 205.357 94.53 205.357 84.436V36.4986C205.357 26.3925 197.166 18.1768 187.108 18.1768H139.425C129.367 18.1768 121.176 26.3925 121.176 36.4986V116.621C121.176 162.365 147.12 187.448 193.882 187.448Z" fill="white"/>
<path fill-rule="evenodd" clip-rule="evenodd" d="M84.8231 187.448C91.512 187.448 96.9407 182.177 96.9407 175.706C96.9407 169.235 91.512 163.964 84.8231 163.964C51.4147 163.964 36.3525 149.411 36.3525 116.62V102.358H78.3644C88.4705 102.358 96.6862 94.1664 96.6862 84.1088V36.4137C96.6862 26.3561 88.4705 18.1646 78.3644 18.1646H30.4391C20.333 18.1646 12.1172 26.3561 12.1172 36.4137V116.608C12.1172 162.365 38.0611 187.448 84.8231 187.448Z" fill="white"/>
</g>
<defs>
<clipPath id="clip0_10_621">
<rect width="206" height="206" fill="white"/>
</clipPath>
</defs>
</svg>
