<svg width="468" height="328" viewBox="0 0 468 328" fill="none" xmlns="http://www.w3.org/2000/svg">
<g opacity="0.65" clip-path="url(#clip0_1089_5422)">
<path d="M218.925 203.412C219.567 203.701 220.971 203.645 221.204 203.003C221.436 202.362 221.027 200.671 221.556 199.333C222.085 197.994 222.84 196.536 223.129 194.612C223.419 192.689 224.59 190.941 225.683 190.371C226.777 189.8 229.055 188.01 229.358 187.355C229.662 186.7 229.577 183.071 229.972 181.979C230.367 180.887 233.916 178.696 235.228 178.612C236.54 178.527 240.568 177.428 240.878 176.597C241.189 175.765 240.878 171.784 240.963 171.129C241.048 170.474 242.275 163.999 242.804 163.259C243.333 162.52 245.647 159.631 246.479 158.799C247.312 157.968 247.227 156.834 247.178 156.002C247.128 155.171 248.885 153.903 250.021 154.297C251.156 154.692 252.821 155.086 253.04 154.297C253.259 153.508 252.342 152.726 251.989 152.155C251.636 151.585 251.904 150.535 252.603 150.584C253.301 150.634 255.89 149.795 256.327 148.922C256.765 148.048 256.109 146.907 256.243 146.688C256.377 146.47 258.168 146.209 258.825 145.117C259.481 144.025 261.188 141.136 260.969 139.741C260.75 138.346 260.532 137.162 259.699 136.373C258.867 135.584 258.077 133.971 258.211 132.963C258.345 131.956 259.086 129.553 259.086 129.553C259.086 129.553 258.909 127.496 257.512 127.672C256.116 127.848 255.192 128.722 254.973 129.462C254.754 130.201 253.223 131.737 251.121 131.998C249.019 132.259 246.345 132.477 245.125 131.033C243.905 129.588 241.887 127.75 241.231 127.75C240.575 127.75 238.868 127.792 238.691 127.003C238.515 126.214 238.388 125.995 237.993 125.777C237.598 125.558 236.723 125.516 236.152 125.861C235.58 126.207 233.133 129.145 232.427 130.582C231.722 132.019 228.702 137.402 228.223 137.973C227.743 138.543 227.348 139.199 226.431 139.065C225.514 138.931 224.858 138.057 224.11 138.233C223.362 138.41 221.267 139.896 221.175 140.988C221.084 142.08 221.091 143.348 221.309 144.271C221.528 145.194 220.957 148.161 220.611 148.907C220.265 149.654 220.131 151.268 220.216 151.923C220.301 152.578 222.89 154.896 223.059 156.08C223.228 157.264 223.496 162.069 224.025 163.428C224.554 164.788 224.505 170.122 225.69 171.341C226.875 172.559 227.355 173.616 227.313 174.011C227.27 174.405 225.69 175.145 224.554 175.321C223.419 175.497 223.898 177.505 224.202 178.034C224.505 178.562 225.253 179.605 225.168 180.57C225.084 181.536 223.151 184.375 223.151 184.375C223.151 184.375 222.403 185.164 220.435 184.023C218.467 182.881 215.574 182.839 215.398 183.72C215.222 184.6 214.65 186.735 213.296 187.306C211.941 187.877 210.495 187.524 209.79 187.13C209.084 186.735 207.511 187.651 207.208 188.919C206.904 190.188 206.333 192.203 205.635 192.548C204.936 192.893 204.668 193.731 203.398 193.682C202.129 193.633 199.286 193.161 198.757 194.908C198.228 196.655 198.284 201.89 198.058 203.13C197.833 204.37 196.351 207.59 196.393 208.379C196.436 209.168 197.212 209.57 197.875 209.57C198.538 209.57 199.046 209.718 198.672 208.992C199.222 208.879 200.182 208.753 200.443 209.366C200.704 209.979 201.649 210.394 202.213 210.437C202.778 210.479 203.286 210.218 203.462 209.563C203.638 208.908 204.181 207.724 204.795 207.379C205.409 207.034 206.263 205.998 206.919 205.998C207.575 205.998 213.705 206.35 214.65 205.624C215.595 204.899 215.835 203.609 216.075 202.39C216.315 201.172 216.886 198.367 217.895 198.036C218.904 197.705 219.8 198.692 219.645 199.46C219.489 200.227 219.341 202.059 219.228 202.454C219.116 202.848 218.932 203.412 218.932 203.412H218.925Z" fill="#0088BD"/>
<path d="M131.14 323.85C132.608 322.927 136.184 320.665 138.054 320.447C139.923 320.221 143.373 320.066 144.593 321.067C145.813 322.067 145.87 322.356 147.274 322.483C148.678 322.61 150.434 322.328 151.302 322.8C152.169 323.272 157.707 326.746 159.52 327.281C161.326 327.816 163.661 328.296 165.185 327.781C166.708 327.267 174.8 322.87 175.971 322.765C177.142 322.659 181.537 319.876 182.122 319.883C182.708 319.89 187.745 318.277 188.21 317.932C188.676 317.586 192.429 316.142 192.605 315.797C192.781 315.444 194.658 315.106 195.18 315.05C195.702 314.994 197.416 312.612 197.938 312.499C198.46 312.387 198.876 312.034 198.876 312.034C198.876 312.034 198.707 310.752 199.356 310.055C200.005 309.357 201.585 308.258 202.523 307.737C203.462 307.215 203.412 306.165 203.821 305.235C204.238 304.305 205.895 300.05 205.902 299.056C205.902 298.063 208.202 295.097 208.209 294.519C208.216 293.941 209.013 286.818 208.259 286.226C207.504 285.642 205.931 284.93 205.232 283.76C204.541 282.591 202.03 281.696 200.922 280.703C199.815 279.702 196.788 277.821 195.568 276.236C194.347 274.651 191.272 270.43 191.102 270.022C190.933 269.613 190.362 266.168 190.369 265.519C190.369 264.878 190.214 262.539 190.968 263.068C191.723 263.596 191.751 263.976 192.803 264.131C193.854 264.286 195.61 263.476 195.674 262.807C195.737 262.138 198.629 256.959 199.102 256.55C199.575 256.142 201.945 254.93 203.617 254.416C205.289 253.901 206.312 253.436 207.476 254C208.64 254.564 211.962 255.923 212.4 256.332C212.837 256.741 214.375 258.354 214.805 259.439C215.235 260.524 216.604 262.046 216.745 263.272C216.886 264.498 217.204 265.463 217.726 265.583C218.248 265.703 219.863 265.477 220.244 264.78C220.625 264.082 222.36 263.096 223.179 263.018C223.997 262.934 225.521 262.736 226.48 262.891C227.446 263.039 230.191 263.293 231.333 263.096C232.476 262.898 233.824 261.651 234.854 260.75C235.883 259.848 237.548 259.249 238.748 259.193C239.947 259.143 241.668 259.27 242.599 259.65C243.53 260.031 244.201 260.214 245.23 259.869C246.253 259.524 245.992 259.087 246.782 259.059C247.573 259.03 250.169 259.34 251.227 258.882C252.285 258.425 255.685 256.078 256.362 255.698C257.039 255.324 258.528 255.303 258.761 255.275C258.994 255.247 261.11 253.803 261.695 253.422C262.281 253.049 262.281 252.753 262.281 252.753L262.309 247.729C262.309 247.729 260.411 247.891 260.031 247.567C259.65 247.243 256.8 245.242 254.965 243.89C253.131 242.537 252.454 238.944 252.13 238.415C251.805 237.887 251.262 236.28 251.206 235.872C251.149 235.463 250.578 233.68 250.345 233.208C250.112 232.743 249.16 230.926 248.871 230.573C248.581 230.221 248.088 229.749 248.059 229.34C248.031 228.932 248.2 225.402 247.735 224.578C247.269 223.76 247.163 222.795 246.959 222.182C246.754 221.569 246.825 220.287 246.536 219.871C246.246 219.462 238.148 219.413 237.654 219.089C237.16 218.765 235.065 216.475 234.896 216.186C234.727 215.897 233.64 215.39 232.857 215.038C232.067 214.686 231.079 214.298 230.79 213.833C230.501 213.368 229.506 213.037 229.245 213.037C228.984 213.037 226.318 213.368 225.471 213.509C224.625 213.65 223.51 214.228 223.214 214.516C222.918 214.805 222.537 215.707 222.127 215.827C221.718 215.947 220.695 215.263 220.611 214.77C220.526 214.277 220.935 213.896 220.237 213.276C219.539 212.656 218.875 211.402 218.763 210.613C218.65 209.824 218.77 209.303 218.48 208.57C218.191 207.837 218.17 207.168 218.198 206.527C218.233 205.886 218.382 204.779 218.502 204.343C218.621 203.906 218.741 203.089 219.038 202.624C219.334 202.159 219.369 201.369 219.306 201.109C219.242 200.848 219.898 199.27 219.581 198.72C219.263 198.171 218.974 197.755 218.241 197.952C217.507 198.15 216.801 199.171 216.801 199.347C216.801 199.523 216.265 201.186 216.294 201.327C216.322 201.475 216.138 202.433 215.99 202.962C215.842 203.483 215.63 204.329 215.51 204.505C215.391 204.681 215.708 205.442 214.424 205.695C213.14 205.949 211.355 206.146 210.297 206.167C209.246 206.189 207.052 206.034 206.671 206.062C206.29 206.09 205.818 206.583 205.613 206.872C205.409 207.161 204.266 207.802 204.089 208.119C203.913 208.436 203.645 209.486 203.44 209.782C203.236 210.071 203.144 210.944 202.643 210.796C202.15 210.648 201.127 210.557 200.774 210.085C200.428 209.613 200.372 209.091 199.815 208.943C199.257 208.795 198.615 208.908 198.615 208.908C198.615 208.908 199.194 209.556 198.495 209.578C197.797 209.606 197.381 209.69 197.12 209.394C196.859 209.098 196.421 209.042 196.365 208.894C196.309 208.746 196.224 208.049 196.28 207.788C196.337 207.527 197.077 206.125 197.141 205.865C197.204 205.604 197.726 205.167 197.79 204.378C197.853 203.589 198.213 202.426 198.213 201.785C198.213 201.144 198.298 196.649 198.453 195.599C198.608 194.549 199.546 193.676 200.217 193.655C200.887 193.626 203.37 193.788 204.16 193.676C204.95 193.563 204.922 193.126 204.781 192.598C204.64 192.069 203.885 191.337 203.56 191.041C203.236 190.745 202.044 190.449 201.402 190.005C200.76 189.561 200.936 189.096 199.504 189.033C198.072 188.969 194.799 188.976 194.129 189.004C193.459 189.033 192.132 190.864 191.427 191.062C190.721 191.259 188.704 191.569 187.011 191.414C185.318 191.259 184.387 190.872 183.039 190.864C181.692 190.857 179.004 191.132 177.946 192.471C176.888 193.81 175.766 194.909 175.16 194.88C174.546 194.845 173.057 194.521 172.768 194.021C172.479 193.521 172.26 190.893 172.147 190.512C172.034 190.132 171.752 187.912 171.343 187.412C170.934 186.912 170.588 186.299 170.123 186.236C169.657 186.172 168.627 186.722 168.479 187.074C168.331 187.426 167.534 188.793 167.266 189.434C166.998 190.075 165.544 193.774 165.46 194.091C165.368 194.408 165.086 198.15 164.994 198.523C164.903 198.896 163.583 199.714 163.612 200.531C163.633 201.348 163.365 202.602 163.717 202.926C164.07 203.251 166.215 205.188 166.885 205.773C167.555 206.358 167.992 206.914 167.929 207.386C167.865 207.851 168.084 215.587 167.879 215.764C167.675 215.94 166.737 216.87 166.73 217.215C166.73 217.567 166.977 219.815 166.539 220.484C166.102 221.153 164.324 224.007 164.352 224.472C164.381 224.937 163.929 232.469 163.929 232.673C163.929 232.877 162.659 234.533 162.314 234.618C161.968 234.702 158.984 236.569 157.841 237.309C156.698 238.049 154.392 242.234 154.737 244.037C155.076 245.834 153.926 247.49 153.185 247.574C152.437 247.659 149.947 246.99 149.503 247.293C149.058 247.595 146.554 249.815 145.454 250.16C144.353 250.505 141.849 251.365 141.757 252.33C141.665 253.295 142.794 254.831 143.274 255.226C143.754 255.62 146.378 257.128 146.716 259.052C147.055 260.982 147.048 261.94 146.604 263.032C146.159 264.124 146.526 268.986 146.872 269.514C147.217 270.043 147.436 270.127 148.924 270.268C150.413 270.409 152.67 270.451 153.199 270.141C153.728 269.824 154.526 270.162 154.554 270.797C154.582 271.431 154.49 273.939 154.885 274.446C155.28 274.953 156.79 276.637 156.811 277.074C156.832 277.511 156.966 279.498 157.46 280.047C157.954 280.59 159.351 281.062 159.555 281.273C159.76 281.478 159.781 282.091 159.52 282.471C159.252 282.852 159.217 284.775 159.245 285.085C159.273 285.395 159.076 286.339 158.681 286.339C158.286 286.339 157.1 286.783 156.776 287.058C156.451 287.333 155.852 288.03 155.429 287.988C155.005 287.938 155.132 286.276 154.942 286.071C154.751 285.867 153.82 285.98 153.545 285.55C153.27 285.12 153.065 284.86 152.543 284.754C152.021 284.648 151.252 285.289 151.034 285.62C150.815 285.952 150.462 286.29 150.018 286.403C149.573 286.515 149.489 287.481 149.686 287.96C149.884 288.439 151.669 288.509 152.325 288.601C152.981 288.692 153.101 288.798 153.115 288.953C153.129 289.115 152.219 289.312 151.873 289.312C151.527 289.312 149.856 289.946 149.63 290.059C149.404 290.172 149.263 295.907 149.023 296.372C148.783 296.837 148.776 298.31 148.339 298.584C147.902 298.859 147.401 299.423 146.477 299.345C145.559 299.268 144.53 299.726 143.683 299.634C142.837 299.543 139.302 299.634 138.83 299.521C138.357 299.409 137.927 299.528 136.685 299.493C135.444 299.458 134.914 299.747 134.519 300.296C134.124 300.846 133.694 301.691 133.193 301.882C132.692 302.072 132.544 302.565 132.474 303.016C132.396 303.467 132.326 303.932 131.662 303.988C131.006 304.045 130.273 304.319 129.835 304.693C129.398 305.066 129.412 305.214 128.812 305.052C128.213 304.89 128.347 304.594 127.867 304.538C127.387 304.481 125.821 304.439 125.589 304.58C125.356 304.728 121.166 306.172 118.379 306.201C115.586 306.229 114.697 306.504 114.118 307.328C113.54 308.152 113.744 308.695 113.392 309.195C113.039 309.695 112.877 310.703 112.82 310.921C112.764 311.14 112.369 311.365 112.376 312.366C112.376 313.359 112.277 313.972 112.002 314.155C111.727 314.338 111.649 314.303 111.635 315.656C111.614 317.001 111.565 318.023 111.325 318.227C111.085 318.432 111.035 321.532 111.247 321.785C111.459 322.039 114.69 322.004 115.092 322.088C115.494 322.173 116.623 322.8 117.06 323.103C117.497 323.406 118.485 323.328 118.831 323.441C119.176 323.554 119.846 323.927 119.846 323.927L131.091 323.836L131.14 323.85Z" fill="#97C2C4"/>
<path d="M267.128 132.964C267.981 133.598 268.99 136.128 270.239 136.388C271.487 136.649 275.008 136.029 275.621 137.255C276.235 138.474 276.313 141.736 275.953 142.18C275.593 142.624 275.692 144.434 276.002 144.484C276.313 144.533 278.408 143.709 278.859 143.695C279.311 143.68 281.688 143.532 282.168 143.074C282.647 142.624 283.028 142.039 283.289 142.109C283.55 142.18 285.772 142.863 286.598 142.581C287.423 142.299 287.79 141.503 289.497 142.025C291.204 142.546 293.158 142.659 292.911 143.652C292.665 144.646 293.687 145.139 295.296 146.506C296.904 147.873 297.342 149.331 298.061 149.873C298.781 150.416 302.019 149.888 303.373 150.085C304.728 150.282 304.227 150.606 306.675 150.451C309.122 150.296 311.14 151.6 311.225 152.762C311.309 153.925 311.464 153.896 311.711 154.425C311.951 154.946 311.888 156.672 312.614 156.764C313.334 156.849 313.094 154.777 313.221 154.164C313.348 153.551 314.942 151.276 315.443 150.881C315.944 150.486 316.445 149.697 316.445 148.824C316.445 147.95 318.653 146.09 319.217 145.935C319.789 145.78 320.748 145.667 321.383 146.062C322.018 146.456 322.956 146.167 323.33 145.533C323.704 144.899 325.319 146.294 325.848 146.182C326.37 146.069 333.284 146.456 333.834 146.146C334.377 145.836 335.231 145.836 335.689 146.034C336.148 146.231 337.065 146.421 337.46 146.294C337.855 146.167 338.158 146.752 338.511 146.971C338.864 147.189 341.093 148.211 341.509 148.323C341.925 148.429 344.048 148.866 344.507 148.669C344.966 148.471 345.685 146.724 346.539 146.654C347.392 146.583 348.881 147.33 349.339 147.499C349.798 147.668 350.934 148.323 351.11 148.915C351.286 149.507 351.244 150.402 351.787 150.508C352.337 150.613 353.431 150.529 353.713 151.163C353.995 151.797 354.722 152.079 355.942 151.987C357.163 151.896 357.579 150.74 358.715 150.451C359.85 150.162 362.213 149.662 362.87 150.183C363.526 150.705 369.465 157.208 369.811 157.772C370.157 158.335 372.04 158.321 372.478 157.934C372.915 157.546 374.227 159.357 374.255 159.97C374.276 160.583 380.216 166.339 380.583 166.952C380.957 167.565 385.168 174.265 386.17 175.703C387.179 177.14 390.445 183.143 392.42 184.559C394.388 185.975 395.947 187.025 400.011 186.968C404.081 186.919 408.977 186.757 410.113 186.299C411.248 185.841 411.947 184.418 410.98 183.065C410.014 181.712 409.837 178.986 409.464 178.112C409.09 177.239 407.361 174.448 408.314 172.152C409.266 169.855 412.85 165.916 412.984 165.198C413.111 164.479 415.721 160.745 417.879 161.21C420.038 161.675 425.47 164.986 426.754 166.262C429.025 164.747 429.258 162.936 430.711 162.062C432.164 161.189 431.812 159.441 432.51 157.75C433.208 156.059 439.734 152.558 440.552 152.206C441.37 151.853 440.891 143.293 441.526 141.546C442.168 139.798 445.067 132.217 446.703 131.4C448.333 130.583 450.901 128.363 452.065 128.652C453.229 128.941 456.326 129.167 456.791 129.054C457.257 128.941 456.728 125.439 456.791 125.27C456.855 125.101 459.056 120.55 462.618 121.184C466.173 121.818 466.928 117.506 466.928 117.506C466.286 116.048 465.814 112.616 466.858 111.743C467.909 110.869 468.367 108.657 467.613 107.663C466.851 106.677 462.999 105.691 460.615 106.564C458.223 107.445 456.304 109.249 455.543 109.192C454.788 109.136 451.169 108.791 450.527 109.143C449.885 109.495 449.419 110.89 448.545 111.01C447.67 111.13 444.771 110.693 444.213 110.214C443.656 109.735 436.263 109.326 435.812 109.136C435.36 108.946 432.15 107.713 430.874 104.021C430.316 102.584 427.53 99.4412 424.433 99.2087C421.11 99.4201 419.241 99.9767 418.133 99.2087C417.026 98.4407 416.045 96.8203 415.989 96.7216C415.403 96.6512 410.028 96.63 410.028 96.63C410.028 96.63 402.078 103.577 399.207 103.901C396.335 104.225 393.154 103.852 392.724 105.761C392.286 107.67 391.976 110.158 390.572 111.75C389.175 113.342 388.872 114.434 390.022 115.597C391.179 116.759 392.18 118.302 391.397 120.141C390.614 121.98 388.209 121.149 387.99 120.93C387.771 120.712 387.722 118.443 387.503 118.394C387.285 118.352 382.163 117.4 381.288 117.4C380.414 117.4 374.509 117.062 374.418 116.928C374.333 116.794 373.275 115.005 373.056 114.878C372.837 114.744 371.342 111.736 369.726 111.609C368.111 111.482 364.478 111.792 362.947 111.531C361.416 111.271 358.439 110.052 357.212 108.833C355.984 107.614 353.53 105.388 352.457 104.972C351.385 104.556 350.031 104.606 349.593 103.732C349.156 102.858 349.043 102.619 346.814 101.682C344.585 100.745 342.659 100.752 342.348 100.752C342.038 100.752 341.756 101.104 341.057 100.928C340.359 100.752 339.788 100.273 339.893 99.7512C339.999 99.2298 339.689 98.0885 339.879 97.87C340.07 97.6516 341.862 97.405 342.645 97.4966C343.435 97.5812 343.675 97.4544 343.78 97.1021C343.886 96.7498 343.682 94.0725 343.999 93.4736C344.317 92.8747 348.366 89.7535 348.528 89.3167C348.69 88.8799 348.733 88.3585 349.939 88.5276C351.145 88.6967 354.411 87.048 354.468 86.5267C354.524 86.0053 353.776 83.9973 353.367 82.9898C352.958 81.9823 352.838 80.4886 352.909 79.7981C352.979 79.1147 353.142 74.4294 352.57 73.7107C351.999 72.9921 351.822 72.4919 352.02 72.0973C352.217 71.7028 352.873 70.5261 353.678 69.9343C354.489 69.3425 354.75 68.2293 354.764 67.574C354.785 66.9188 354.256 65.7845 353.776 65.9606C353.297 66.1367 352.902 66.334 352.902 66.334C352.902 66.334 351.392 67.9334 351.11 68.1025C350.828 68.2786 350.235 68.4547 350.08 68.1025C349.925 67.7502 349.967 66.0381 349.791 65.9465C349.614 65.8549 349.459 62.4942 349.699 61.7685C349.939 61.0498 349.607 59.4294 349.325 59.2814C349.043 59.1264 347.597 58.4571 346.285 58.3443C344.973 58.2386 343.463 57.9146 343.463 57.4566C343.463 56.9986 344.14 55.8854 344.338 55.1597C344.535 54.4411 343.964 51.6651 343.696 51.3833C343.428 51.1015 341.29 49.9671 340.74 49.791C340.19 49.6149 339.096 49.1146 338.334 49.0723C337.566 49.0301 336.698 49.7487 336.303 49.9742C335.908 50.1926 333.248 52.7079 332.896 53.4336C332.55 54.1522 331.844 54.6595 331.125 54.6384C330.405 54.6172 322.66 54.737 321.764 54.8074C320.868 54.8779 320.473 55.5754 320.565 56.0334C320.656 56.4913 320.543 57.365 320.261 57.8652C319.979 58.3655 319.626 58.5416 319.584 59.0489C319.542 59.5491 319.196 60.4439 319.196 61.0146C319.196 61.5853 318.914 64.1569 318.745 64.4881C318.568 64.8192 317.327 65.6929 317.108 66.0663C316.889 66.4397 316.762 68.5534 316.607 68.7084C316.452 68.8634 315.182 68.7084 314.963 68.5111C314.745 68.3138 313.193 68.4477 312.974 69.1241C312.755 69.8004 312.755 69.8427 312.628 69.8427C312.501 69.8427 311.337 69.6454 311.119 69.2368C310.9 68.8211 309.214 66.6863 309.207 65.087C309.2 63.4876 309.115 62.2476 308.875 62.0714C308.636 61.8953 308.198 61.5712 308.502 61.2401C308.805 60.9089 310.773 58.2668 311.295 58.0484C311.817 57.83 312.932 57.1254 312.953 56.7168C312.974 56.3011 312.995 53.5252 313.186 53.3561C313.383 53.1799 313.926 51.0803 313.835 50.7774C313.743 50.4744 313.595 49.8826 313.355 49.9037C313.115 49.9249 310.293 50.1503 309.595 49.8896C308.897 49.6289 307.055 48.713 306.533 48.3678C306.011 48.0226 305.638 47.3391 305.003 47.2969C304.368 47.2546 303.077 45.6623 302.879 45.0916C302.682 44.5209 301.87 44.2179 300.975 44.2884C300.079 44.3588 299.536 44.8591 299.401 45.2536C299.267 45.6482 298.033 49.3612 297.68 49.5162C297.327 49.6712 294.668 52.5599 294.146 53.039C293.624 53.5181 293.948 53.8493 292.947 55.0752C291.945 56.3011 290.238 58.288 289.956 59.2321C289.674 60.1762 289.236 61.2612 289.349 62.1349C289.462 63.0085 289.659 64.2767 289.42 64.474C289.18 64.6713 287.451 64.5233 286.972 64.784C286.492 65.0447 284.263 65.4463 282.993 65.2701C281.723 65.094 279.17 66.5665 278.69 67.0033C278.21 67.4402 274.761 70.505 274.408 70.6389C274.055 70.7727 272.75 71.8225 272.158 71.6041C271.565 71.3857 269.971 70.4064 269.336 69.7089C268.701 69.0113 265.787 64.6008 265.322 64.016C264.863 63.4242 262.126 61.7896 261.992 61.226C261.858 60.6553 261.527 58.3021 260.631 58.2105C259.735 58.1259 258.507 58.7812 256.631 58.7812C254.747 58.7812 252.391 58.7459 251.862 58.2175C251.333 57.6961 250.303 54.9625 250.148 54.5749C249.993 54.1804 249.139 52.567 247.15 52.5951C245.161 52.6233 243.517 53.1658 242.84 52.7783C242.162 52.3838 241.196 51.4044 240.914 51.3622C240.632 51.3199 239.404 52.3697 239.122 52.8065C238.84 53.2433 237.831 53.9902 237.09 53.9902C236.35 53.9902 234.381 53.6661 233.697 53.1024C233.02 52.5388 233.302 52.426 232.166 52.5176C231.031 52.6092 230.946 53.807 230.332 54.2649C229.719 54.7229 228.033 53.9408 227.228 54.2649C226.417 54.5961 223.602 54.0677 221.564 53.9268C219.525 53.7858 217.832 52.3274 216.513 51.9822C215.201 51.6369 212.076 48.9596 211.377 48.086C210.679 47.2123 210.467 45.93 210.996 45.5496C211.518 45.1691 213.36 45.0775 213.973 45.0211C214.587 44.9648 219.772 44.0488 221.176 43.1752C222.572 42.3015 230.939 37.5387 231.461 37.3344C231.983 37.1301 233.62 36.2846 234.022 35.876C234.431 35.4673 235.51 34.7064 236.992 35.1996C238.48 35.6928 239.912 36.038 241.196 37.433C242.48 38.8281 244.349 38.1869 244.815 38.3912C245.28 38.5956 246.536 39.1169 248.37 38.7928C250.204 38.4687 252.941 35.5519 253.294 35.0094C253.64 34.4739 254.924 31.4091 255.326 30.7116C255.735 30.014 256.723 29.6054 256.843 29.077C256.955 28.5556 258.007 28.0836 258.063 27.7665C258.119 27.4495 258.091 25.8994 257.858 25.7585C257.626 25.6106 252.582 26.0262 251.446 25.364C250.31 24.6946 250.162 22.891 250.423 22.426C250.684 21.9609 252.603 18.6354 253.393 17.79C254.176 16.9445 255.636 14.3799 256.187 13.9713C256.737 13.5626 257.76 10.8501 257.929 9.94823C258.105 9.0464 257.287 7.99661 255.883 8.49684C254.486 8.99708 251.686 8.53207 251.22 8.12343C250.755 7.71478 247.982 6.61567 247.34 6.87636C246.698 7.13704 244.688 8.19388 243.961 8.37002C243.235 8.54616 241.803 9.33527 241.542 8.77867C241.281 8.22911 240.632 6.2493 240.194 5.57997C239.757 4.91064 238.473 2.8181 237.563 2.55742C236.66 2.29673 235.115 2.79697 234.911 2.41651C234.706 2.03604 234.819 0.549426 234.41 0.204193C234.001 -0.148087 229.831 0.126691 229.683 0.211238C229.535 0.295785 229.803 1.40194 229.161 2.24741C228.519 3.09288 227.362 6.0943 224.999 7.00318C222.636 7.91206 223.073 7.70774 222.262 9.07458C221.451 10.4414 219.878 13.2456 219.412 13.7669C218.947 14.2883 217.402 15.9229 217.141 16.7684C216.88 17.6138 216.851 18.6002 216.59 18.9525C216.329 19.3048 215.335 19.2132 214.961 19.8543C214.58 20.4955 214.001 22.4753 213.712 22.8276C213.423 23.1798 212.464 25.1596 212.315 25.5401C212.167 25.9206 211.85 26.6744 211.18 26.9704C210.51 27.2592 210.192 28.5415 209.085 28.7177C207.977 28.8938 204.21 27.2663 202.87 25.5824C201.522 23.8985 199.949 24.6524 199.604 24.9765C199.251 25.3006 198.672 26.8435 198.03 27.3649C197.388 27.8933 196.281 28.8797 195.879 29.1756C195.47 29.4645 194.863 30.4297 193.692 30.0493C192.528 29.6759 192.38 28.0976 192.493 26.4701C192.606 24.8355 193.099 22.743 192.867 22.3344C192.634 21.9257 187.823 20.7702 184.465 20.8055C181.114 20.8407 177.467 21.8905 175.485 21.4889C173.502 21.0873 171.633 20.735 169.129 20.7984C166.624 20.8618 164.642 22.116 163.563 22.1441C162.484 22.1723 159.944 21.8553 159.598 21.2212C159.246 20.58 157.637 18.4875 156.621 18.3395C155.598 18.1986 146.449 20.3334 141.821 24.6805C137.194 29.0277 131.889 33.3748 130.612 33.9314C129.328 34.488 129.272 35.4039 129.801 36.193C130.33 36.9751 136.241 43.3936 138.605 44.7886C140.968 46.1837 145.786 48.9737 147.105 52.419C148.424 55.8713 146.421 63.1635 148.22 64.7769C150.018 66.3904 151.768 67.6515 152.946 67.9122C154.124 68.1729 155.881 68.5604 157.672 69.3002C159.464 70.04 161.827 71.3012 162.618 71.8718C163.408 72.4355 166.907 73.8305 167.217 74.0067C167.527 74.1828 168.705 73.7882 169.185 73.9151C169.665 74.0419 170.589 75.444 170.589 76.2753C170.589 77.1067 172.388 80.5097 170.469 83.0461C168.55 85.5826 168.028 86.9353 167.767 87.3298C167.506 87.7244 164.882 87.816 163.697 87.2453C162.512 86.6817 154.075 87.3017 152.981 88.0485C151.888 88.7953 150.844 92.3322 150.061 93.8611C149.278 95.39 148.495 97.7925 147.267 99.1523C146.047 100.505 144.389 103.528 144.389 104.789C144.389 106.057 142.689 109.157 142.428 109.862C142.167 110.559 141.991 111.919 142.957 112.088C143.916 112.264 147.987 110.594 148.946 110.066C149.906 109.538 151.521 108.622 153.334 109.319C155.14 110.017 158.702 109.953 159.577 110.418C160.452 110.883 163.894 112.511 165.065 112.567C166.229 112.623 168.741 113.089 169.263 113.258C169.785 113.434 171.887 114.653 172.416 114.653C172.945 114.653 174.109 113.659 175.506 114.357C176.91 115.054 178.659 115.111 180.585 116.794C182.511 118.478 182.92 118.366 183.971 119.761C185.022 121.156 185.375 121.501 186.362 121.445C187.357 121.388 187.47 121.325 188.69 120.451C189.911 119.577 190.496 119.169 192.535 119.162C194.574 119.162 196.154 119.507 196.267 120.085C196.387 120.67 196.676 121.888 197.205 121.945C197.727 122.001 200.76 122.114 201.402 121.945C202.044 121.769 203.208 121.008 203.794 121.064C204.379 121.12 205.952 121.297 206.651 121.409C207.349 121.522 208.746 120.592 210.15 120.648C211.547 120.705 212.541 121.001 213.303 121.959C214.065 122.917 218.622 128.554 219.581 128.617C220.541 128.673 225.239 129.075 225.881 129.42C226.523 129.765 227.983 131.252 228.449 131.717C228.914 132.182 229.62 132.647 230.255 131.773C230.897 130.9 233.281 126.207 234.156 125.799C235.03 125.39 237.041 125.587 237.655 124.805C238.268 124.016 238.318 121.691 239.249 120.641C240.18 119.592 242.953 119.789 243.884 120.43C244.815 121.071 242.607 124.594 242.55 125.439C242.494 126.285 242.614 127.652 242.614 127.652C242.614 127.652 244.949 129.949 245.45 130.674C245.944 131.4 247.757 131.717 249.478 131.428C251.199 131.132 253.795 130.928 254.43 129.963C255.072 128.997 255.679 127.081 256.991 126.933C258.303 126.785 259.001 126.961 259.735 128.793C260.476 130.646 261.971 132.119 263.064 132.717C263.671 133.049 264.913 133.528 267.029 132.999" fill="#97C2C4"/>
<path d="M52.7038 50.2704C56.3792 50.4677 58.8341 50.1506 59.9698 50.8552C61.1056 51.5597 62.9397 52.1868 65.2253 50.5381C67.5109 48.8895 67.0877 46.6137 67.7014 46.5292C68.3151 46.4447 72.7594 45.3878 74.4665 42.6048C76.1737 39.8148 79.2564 31.8744 80.1947 31.1487C81.1329 30.423 85.7817 23.8354 87.1361 22.2079C88.4906 20.5803 90.9384 20.2774 92.7161 20.8128C94.4938 21.3483 95.1781 23.6804 97.3085 24.392C99.4319 25.1036 101.322 26.3647 101.957 27.5977C102.592 28.8237 103.933 29.1548 103.926 30.6978C103.918 32.2408 102.86 33.6076 102.331 34.0092C101.802 34.4178 94.5362 34.5799 94.5362 34.5799C94.5362 34.5799 92.4057 35.0026 91.6157 34.8829C90.7691 35.4888 90.7057 35.5804 90.4094 36.447C90.1131 37.3206 88.0814 40.6602 88.3566 43.3728C88.6317 46.0853 88.0673 47.7763 87.6864 48.2695C87.3055 48.7626 86.2191 49.6293 86.1203 51.3766C85.295 52.8561 82.706 56.5762 82.84 58.6758C82.9741 60.7754 82.9106 62.0858 82.9952 62.5227C83.0799 62.9595 81.5209 65.2564 80.11 66.5034C80.11 66.5034 79.4963 67.053 79.4046 67.6659C79.3129 68.2789 78.8614 70.4912 78.2477 70.9844C77.6339 71.4776 80.8154 71.5551 80.8154 71.5551L98.4443 71.6537C98.4443 71.6537 103.622 64.9464 106.917 65.0238C110.211 65.1014 112.306 67.0037 112.8 67.4475C113.294 67.8844 113.449 71.7383 113.844 73.5138C114.246 75.2963 116.687 77.0295 118.958 77.2479C121.237 77.4663 125.681 81.0455 125.554 82.4476C125.427 83.8496 125.829 85.1038 124.538 86.2592C123.247 87.4147 120.814 89.8243 119.494 90.8952C118.175 91.9661 115.925 92.8609 115.424 93.2062C114.923 93.5514 112.842 95.2917 112.052 95.6369C111.262 95.9821 109.654 97.0812 109.096 97.4265C108.539 97.7717 104.321 100.054 103.093 100.829C101.866 101.612 100.271 103.817 99.7352 106.614C99.192 109.411 99.5165 109.559 99.7705 110.228C100.032 110.898 105.181 113.61 105.209 114.251C105.238 114.892 107.008 122.016 107.171 123.883C107.333 125.75 107.509 126.447 108.264 126.687C109.019 126.926 112.934 126.419 113.936 125.031C114.937 123.643 117.858 122.664 119.911 121.797C121.963 120.931 126.464 118.859 127.459 118.225C128.453 117.591 130.506 116.14 132.432 116.506L134.358 116.865C134.358 116.865 137.793 118.866 137.37 120.79C136.954 122.713 134.238 127.885 131.938 131.252C129.646 134.62 127.931 137.354 127.988 138.404C128.044 139.453 128.446 139.686 128.037 140.447C127.628 141.208 119.755 150.022 118.93 151.184C118.105 152.347 113.47 156.828 111.826 158.765C110.183 160.703 102.853 165.79 102.381 166.776C101.908 167.763 102.381 168.002 102.832 169.228C103.291 170.454 103.164 171.969 102.811 172.842C102.458 173.716 99.9327 175.583 100.046 176.809C100.158 178.035 101.167 181.417 100.617 182.079C99.9116 182.925 95.4321 184.749 94.6349 184.341C93.7743 183.897 92.956 181.776 92.829 180.656C92.702 179.543 92.3634 177.352 92.829 176.809C93.2946 176.267 92.8996 175.386 92.6174 175.344C92.3352 175.301 91.016 175.484 89.9649 176.119C88.9138 176.753 86.0286 175.527 85.7464 175.153C85.4643 174.78 84.5401 175.449 84.4273 175.738C84.3144 176.027 82.8471 176.732 81.923 177.147C80.9989 177.556 78.5651 178.852 76.6181 178.514C74.6711 178.176 71.9975 178.317 71.4261 178.902C70.8547 179.486 68.4351 181.445 69.4086 183.221C70.3821 184.996 70.9605 186.99 70.6007 189.456C70.2339 191.922 66.6644 192.211 65.6274 194.324C64.5834 196.438 64.0825 196.896 64.6398 198.192C65.1971 199.489 67.1864 200.391 67.3557 201.75C67.525 203.11 67.5109 208.726 67.6661 209.057C67.8213 209.388 67.9906 213.15 68.1882 213.545C68.3857 213.939 68.2164 216.497 68.7172 216.912C69.2181 217.328 69.7542 219.125 69.7119 219.583C69.6696 220.041 69.7683 221.816 69.3451 221.964C68.9218 222.112 63.3771 223.81 61.8322 226.206C61.7828 227.579 61.5923 230.447 61.9803 230.975C62.3683 231.504 65.056 233.575 65.1901 236.851C65.3241 240.135 64.1954 246.511 64.1248 247.469C64.0543 248.427 63.5323 252.232 63.5393 254.134C62.4671 254.134 56.485 255.233 55.2152 259.397C54.4463 259.482 53.4234 259.39 53.4234 259.39C52.3159 258.031 49.9879 255.522 45.1698 255.565C40.3517 255.6 34.6659 262.265 33.8687 263.899C33.0575 264.069 31.8512 263.977 31.8512 263.977C31.8512 263.977 29.7419 261.539 28.7825 261.074C27.8231 260.609 24.6134 259.496 23.3648 258.467C22.1162 257.439 17.2557 254.782 15.7249 254.705C14.1941 254.627 9.58057 253.93 7.9228 256.671C6.26502 259.418 5.40439 260.482 5.27036 261.835C5.12927 263.188 5.12222 264.696 5.12222 264.696L1.16472 268.282C1.16472 268.282 0.0924615 268.472 0.0289723 267.796C-0.0345169 267.119 0.0712984 264.188 0.445179 263.315C0.81906 262.441 1.90543 256.544 3.82422 253.909C4.63547 250.259 5.03051 249.498 5.41145 248.23C5.79238 246.962 6.83642 244.588 5.96168 243.355C5.08694 242.122 3.49972 237.549 4.43089 234.794C5.36912 232.046 8.69172 232.194 9.46064 232.131C10.2296 232.068 11.9508 228.996 12.4376 227.995C12.9243 226.995 14.3775 225.205 16.1411 227.298C17.9047 229.383 19.5343 230.637 20.7617 230.736C21.9892 230.827 23.3225 231.187 23.7598 231.236C24.1972 231.285 25.8126 228.164 26.2994 227.53C26.7861 226.896 27.1953 224.494 26.9413 222.197C26.6944 219.9 26.1724 214.757 25.3682 213.686C24.564 212.608 13.5451 206.408 10.7234 205.71C10.4835 205.64 10.2507 203.956 10.9491 204.005C11.6475 204.054 15.478 204.865 18.4479 201.292C21.4248 197.72 21.8693 195.804 22.1232 193.549C22.3772 191.302 24.042 190.809 24.176 190.59C24.3101 190.372 24.0632 186.962 24.9238 186.243C25.7844 185.524 26.7297 184.376 27.2165 183.46C27.7032 182.544 27.3858 180.726 27.6679 180.466C27.9501 180.205 30.8353 177.535 31.0822 176.725C31.3291 175.914 32.0064 172.532 32.5284 172.187C33.0575 171.842 32.6624 168.319 31.8723 168.051C31.0822 167.784 29.9394 167.671 30.0241 165.924C30.1511 163.324 26.3699 161.421 25.6292 160.978V157.638C25.6292 157.638 24.6557 155.285 22.5112 154.686C22.5112 154.686 22.7299 151.297 22.0597 149.458C21.3896 147.619 21.4248 145.52 21.1638 145.125C20.9028 144.731 20.0774 143.871 17.8624 143.97C15.6473 144.068 13.4181 143.92 13.4181 143.92C13.4181 143.92 13.1571 139.742 13.4464 139.46C13.7356 139.179 13.8978 136.727 14.1447 135.571C14.3916 134.416 14.7514 132.182 15.1394 130.09C15.5203 127.99 16.1552 113.3 16.1129 112.208C16.0776 111.116 16.3669 110.482 17.0935 109.679C17.8201 108.876 18.4832 107.262 18.7089 106.586C18.9346 105.909 24.3524 103.514 25.1989 101.203C26.0454 98.892 26.8144 98.6735 27.3787 98.8074C27.9431 98.9413 31.2233 99.7445 33.3185 98.1169C35.4066 96.4894 36.1684 94.0869 35.7663 91.1982C35.3642 88.3095 35.6676 85.0333 35.4066 84.5049C35.1456 83.9765 33.0575 82.2151 33.0504 78.5866C33.0504 74.9581 35.9145 70.9703 37.0361 70.914C38.1507 70.8576 42.4891 70.8787 44.6972 67.0177C45.452 65.6016 48.0832 63.8684 49.0567 62.8679C50.0232 61.8674 51.8996 59.2535 52.2806 57.3794C52.6615 55.4982 52.6897 50.2774 52.6897 50.2774L52.7038 50.2704Z" fill="#97C2C4"/>
<path d="M160.486 21.7852C160.606 23.0111 160.429 24.0609 159.9 24.9909C159.371 25.9209 159.78 27.6753 160.775 28.253C161.77 28.8307 164.627 30.9374 165.565 32.4522C166.503 33.967 168.718 34.6645 170.355 35.1929C171.992 35.7213 175.025 39.0398 177.649 39.1596C180.273 39.2793 183.956 37.4123 184.887 38.9271C185.818 40.4419 185.24 41.7876 184.012 42.9501C182.785 44.1126 181.212 45.2822 179.222 45.9233C177.233 46.5645 174.552 48.4879 174.143 50.7073C173.734 52.9266 174.961 57.1188 174.023 59.2183C173.085 61.3179 169.939 65.4607 169.53 67.208C169.12 68.9553 169.184 73.9013 169.184 73.9013" stroke="white" stroke-width="2" stroke-miterlimit="10"/>
<path d="M212.534 25.1387C213.056 26.5689 213.38 30.0917 213.232 31.4938C213.084 32.8959 212.385 36.9752 211.8 38.7507C211.214 40.5262 209.987 44.3167 206.432 43.739C202.876 43.1613 190.496 42.196 190.058 42.1044C189.621 42.0128 185.332 40.7658 185.332 40.7658C185.332 40.7658 185.854 40.9137 186.355 40.9701C186.856 41.0265 190.178 41.1462 191.434 40.6178C192.69 40.0894 195.109 37.0316 195.377 36.475C195.645 35.9184 195.462 30.761 195.377 29.6549" stroke="white" stroke-width="2" stroke-miterlimit="10"/>
<path d="M209.416 43.0195C208.372 44.5061 210.15 46.1478 210.87 45.6687" stroke="white" stroke-width="2" stroke-miterlimit="10"/>
<path d="M235.664 2.54297C234.26 3.50821 231.199 6.48145 230.232 7.8342C229.266 9.18695 227.954 9.93378 227.827 10.9836C227.7 12.0334 227.693 14.4852 227.474 15.1405C227.255 15.7957 225.767 23.7149 224.06 24.8493C222.352 25.9836 220.822 21.7915 220.335 21.3476C219.848 20.9038 218.148 19.0014 216.617 18.931" stroke="white" stroke-width="2" stroke-miterlimit="10"/>
<path d="M242.014 8.88477C242.232 9.85001 242.014 11.0689 241.097 11.7735C240.18 12.478 236.194 16.0994 236.06 16.9801C235.926 17.8608 235.799 26.9074 234.748 28.2178C233.697 29.5283 231.855 31.4518 229.753 29.6622C227.651 27.8726 227.256 27.0412 225.154 26.9496C224.364 26.8651 223.623 25.1107 223.623 25.1107" stroke="white" stroke-width="2" stroke-miterlimit="10"/>
<path d="M250.451 23.9119C249.689 23.8556 248.236 24.4333 248.116 26.1595C247.996 27.8856 248.264 29.3934 247.185 28.8438C246.106 28.2943 242.134 25.9551 240.998 25.4056C239.863 24.856 238.924 23.9753 237.492 24.1233C236.06 24.2712 235.566 24.2431 235.566 24.2431" stroke="white" stroke-width="2" stroke-miterlimit="10"/>
<path d="M167.449 87.3789C167.71 88.5132 167.71 88.9078 168.282 89.2601C168.853 89.6124 171.696 91.0074 171.788 94.7274C171.83 95.6434 174.024 95.6011 174.412 94.9459C174.8 94.2906 175.816 93.0647 176.994 93.5015C178.172 93.9383 178.835 95.1643 178.567 96.1718C178.299 97.1793 178.087 97.7923 177.121 98.5321C176.154 99.2719 175.153 100.019 174.934 101.026C174.715 102.034 174.497 104.394 173.706 105.31C172.916 106.226 172.084 107.452 171.865 108.544C171.647 109.636 171.428 110.82 170.2 111.912C168.973 113.004 168.846 113.18 168.846 113.18" stroke="white" stroke-width="2" stroke-miterlimit="10"/>
<path d="M200.598 42.9922C201.169 45.0072 200.95 46.5784 201.607 47.7127C202.263 48.8471 204.012 51.4751 203.356 52.5671C202.7 53.6592 199.984 57.4638 199.85 57.9429C199.716 58.422 199.279 60.5216 198.404 61.05C197.529 61.5784 195.646 62.5789 194.729 62.4028C193.811 62.2266 191.441 61.353 190.743 61.0007C190.044 60.6484 184.916 60.8668 184.309 60.7823C183.703 60.6977 182.122 59.3802 180.853 58.5981C179.583 57.8161 179.061 57.6329 177.876 58.7743C176.691 59.9157 174.638 61.8814 174.066 62.1844C173.495 62.4873 171.703 63.2341 171.703 63.2341" stroke="white" stroke-width="2" stroke-miterlimit="10"/>
<path d="M195.645 119.522C197.218 118.035 206.24 109.242 206.678 108.629C207.115 108.016 211.404 106.093 212.018 105.614C212.631 105.135 215.079 102.725 215.742 102.817C216.405 102.908 220.25 102.683 221.788 101.725C223.326 100.767 224.984 100.02 226.648 100.717C228.313 101.415 230.02 100.76 230.895 100.196C231.77 99.6323 234.161 97.9343 235.622 98.1104C237.082 98.2865 239.297 99.6252 240.235 100.034C241.173 100.442 244.905 102.133 245.434 102.31C245.963 102.486 248.644 102.951 249.815 105.572C250.986 108.193 251.797 107.847 253.025 107.847C254.252 107.847 256.411 107.086 257.462 107.671C258.513 108.256 259.155 111.638 257.638 113.265C256.122 114.893 252.093 116.88 251.508 118.395C250.922 119.909 247.247 123.291 245.843 123.235C244.44 123.179 243.565 122.883 243.565 122.883" stroke="white" stroke-width="2" stroke-miterlimit="10"/>
<path d="M178.221 94.3836C179.229 95.2572 184.175 96.0463 185.487 96.0886C186.799 96.1309 188.64 96.6593 189.691 96.307C190.742 95.9547 191.222 96.0041 192.407 94.9049C193.592 93.8058 194.199 93.2422 195.426 93.2422C196.654 93.2422 198.008 93.2422 197.924 94.3765C197.839 95.5109 197.924 98.4841 198.142 99.4071C198.361 100.33 198.841 103.296 199.765 104.395C200.689 105.494 201.825 106.713 203.137 107.192C204.449 107.672 207.383 108.024 207.383 108.024" stroke="white" stroke-width="2" stroke-miterlimit="10"/>
<path d="M194.2 62.3262C193.586 63.7705 193.409 67.9204 193.804 68.9702C194.2 70.0199 194.326 70.499 196.52 70.5906C198.714 70.6822 198.975 72.2957 198.362 72.9509C197.748 73.6061 196.654 74.8744 196.873 75.7057C197.092 76.5371 198.58 78.2844 198.58 79.5949C198.58 80.9054 198.933 86.5912 198.799 87.338C198.665 88.0848 197.445 91.7978 197.353 92.2769C197.261 92.756 196.915 93.3267 196.915 93.3267" stroke="white" stroke-width="2" stroke-miterlimit="10"/>
<path d="M198.579 60.9375C198.869 61.9309 199.398 62.7482 199.398 64.2348C199.398 65.7215 199.955 68.5185 199.482 69.2231C199.01 69.9277 199.017 70.2165 198.925 70.4772C198.833 70.7379 198.572 71.7313 198.572 71.7313" stroke="white" stroke-width="2" stroke-miterlimit="10"/>
<path d="M198.785 86.3921C200.189 87.2658 201.586 87.0333 202.46 85.751C203.335 84.4687 203.512 83.8275 204.443 83.7077C205.374 83.588 207.067 82.4254 207.476 81.897C207.885 81.3686 209.169 81.1361 209.987 81.3757C210.806 81.6152 212.09 81.5518 212.499 80.8543C212.908 80.1568 215.123 73.393 214.777 71.7021C214.432 70.0111 213.317 67.3268 212.619 66.6856C211.92 66.0445 210.693 66.8054 209.995 66.8054C209.296 66.8054 207.603 66.2206 206.841 66.3404C206.079 66.4602 202.58 67.4465 201.473 67.679C200.365 67.9116 199.78 67.8552 199.78 67.8552" stroke="white" stroke-width="2" stroke-miterlimit="10"/>
<path d="M229.901 54.377C229.845 55.6593 230.134 55.8918 228.328 56.6528C226.522 57.4137 224.356 57.9351 224.243 59.8585C224.131 61.7819 223.601 66.9111 224.596 67.1436C225.591 67.3761 225.704 69.5321 226.755 70.1732C227.806 70.8144 230.021 71.3428 231.954 70.5819C233.887 69.821 235.629 68.8909 236.511 67.2564C237.393 65.6218 239.255 63.5856 239.721 63.177C240.186 62.7683 242.288 59.6753 242.641 58.6889C242.994 57.7026 243.869 54.842 243.812 54.0248C243.756 53.2075 243.756 52.7988 243.756 52.7988" stroke="white" stroke-width="2" stroke-miterlimit="10"/>
<path d="M252.813 58.5215C252.171 60.2124 251.734 61.0861 250.795 62.0795C249.857 63.0729 249.335 64.8202 249.187 66.8635C249.039 68.9067 248.136 73.5427 248.46 74.4445C248.785 75.3463 250.069 76.9527 250.034 77.9743C249.998 78.9959 250.295 80.5671 251.374 81.328C252.453 82.089 253.681 82.8428 253.765 84.9424C253.85 87.042 253.85 89.7264 254.231 90.3041C254.612 90.8818 258.054 93.3971 259.106 93.5098C260.157 93.6226 264.269 92.9885 265.151 93.3337C266.033 93.6789 269.059 87.4436 269.708 85.9852C270.357 84.5267 271.81 76.833 271.69 74.5009C271.571 72.1688 271.401 71.119 271.401 71.119" stroke="white" stroke-width="2" stroke-miterlimit="10"/>
<path d="M235.623 98.109C234.981 94.0296 233.641 93.3885 232.823 92.2753C232.004 91.1621 230.777 89.3021 230.72 86.9136C230.664 84.5252 230.601 82.2494 232.59 80.8474C234.579 79.4453 239.715 76.4721 241.817 75.7745C243.919 75.077 246.776 73.2663 247.594 72.449C248.413 71.6317 248.765 70.8145 248.765 70.8145" stroke="white" stroke-width="2" stroke-miterlimit="10"/>
<path d="M225.054 67.4395C223.418 68.3131 222.021 68.7217 219.453 68.8415C216.886 68.9613 215.947 69.8349 216.942 71.4061C217.937 72.9773 220.328 77.0003 221.09 77.7612C221.852 78.5222 225.118 81.432 226.169 81.8406C227.22 82.2493 230.783 83.6513 230.783 83.6513" stroke="white" stroke-width="2" stroke-miterlimit="10"/>
<path d="M390.191 121.143C390.276 123.418 390.805 124.031 395.01 123.764C399.214 123.496 404.378 123.242 404.646 124.813C404.914 126.384 402.981 128.752 404.907 130.499C406.833 132.246 410.071 131.725 410.423 135.487C410.776 139.25 411.122 144.231 412.349 147.38C413.577 150.53 414.712 157.441 414.889 158.752C415.065 160.062 415.065 162.254 415.065 162.254" stroke="white" stroke-width="2" stroke-miterlimit="10"/>
<path d="M373.635 158.399C373.55 157.264 373.487 154.348 374.919 154.115C376.351 153.883 378.919 153.446 380.202 152.276C381.486 151.107 381.021 147.844 380.964 146.33C380.908 144.815 381.613 140.461 382.629 140.087C383.955 139.601 385.521 140.186 385.345 142.948C385.19 145.421 385.465 148.049 386.276 148.634C387.087 149.218 388.639 149.944 390.1 148.838C391.56 147.732 394.128 143.441 394.77 142.715C395.412 141.99 397.747 141.581 399.059 141.75C400.371 141.919 399.99 138.136 401.161 137.931C402.332 137.727 406.621 137.375 405.859 138.953C405.097 140.531 403.99 144.258 403.842 145.541C403.693 146.823 403.665 148.309 401.887 148.338C400.11 148.366 398.297 148.253 398.882 150.205C399.468 152.156 401.133 156.067 403.03 156.067C404.928 156.067 407.348 156.067 407.348 157.729C407.348 159.392 407.199 162.654 407.637 163.908C408.074 165.163 408.921 167.375 409.386 167.812C409.852 168.248 410.437 168.833 410.437 168.833" stroke="white" stroke-width="2" stroke-miterlimit="10"/>
<path d="M390.042 121.232C389.661 122.867 389.224 124.995 387.883 125.784C386.543 126.573 385.866 127.623 385.957 128.348C386.049 129.074 386.599 129.687 387.39 129.659C388.18 129.631 389.464 131.061 389.139 132.456C388.815 133.851 386.599 136.218 385.957 137.325C385.316 138.431 384.271 140.129 384.271 140.129" stroke="white" stroke-width="2" stroke-miterlimit="10"/>
<path d="M372.992 114.674C372.293 116.365 371.708 117.823 370.424 118.817C369.14 119.81 367.56 120.155 367.038 121.438C366.516 122.72 365.225 122.607 364.703 123.889C364.181 125.172 364.117 125.989 363.362 126.919C362.608 127.849 362.601 130.068 362.135 130.998C361.669 131.928 359.92 133.331 359.567 134.902C359.214 136.473 359.045 139.51 359.687 140.905C360.329 142.3 361.5 143.645 361.966 144.639C362.431 145.632 363.073 147.556 362.96 148.197C362.847 148.838 362.89 150.177 362.89 150.177" stroke="white" stroke-width="2" stroke-miterlimit="10"/>
<path d="M332.301 54.1875C332.478 56.0687 332.915 61.1838 332.083 62.0997C331.25 63.0156 329.501 62.9733 329.938 64.5515C330.376 66.1298 331.561 66.5173 331.427 67.5671C331.293 68.6168 330.855 69.0114 330.376 69.4482C329.896 69.8851 329.325 71.3717 329.804 72.1608C330.284 72.9499 331.377 73.2528 332.386 73.3867C333.395 73.5206 334.446 73.4713 334.707 73.739C334.968 74.0067 335.977 73.4783 336.33 72.034C336.682 70.5896 338.037 69.8005 338.735 70.0682C339.433 70.336 342.326 71.2519 343.511 71.5126C344.696 71.7733 345.832 72.1255 347.017 72.2594C348.202 72.3933 349.422 72.344 349.556 71.6464C349.69 70.9489 349.817 69.5046 350.304 69.0255C350.791 68.5464 351.003 68.0602 351.003 68.0602" stroke="white" stroke-width="2" stroke-miterlimit="10"/>
<path d="M349.381 88.3437C349.204 86.4625 349.077 84.7998 347.892 83.9684C346.707 83.137 344.957 81.2136 342.679 81.2558C340.4 81.2981 339.307 81.3404 337.953 81.122C336.598 80.9036 334.538 80.2061 333.621 80.4245C332.704 80.6429 330.863 78.0642 330.073 77.4512C329.283 76.8383 327.71 75.4362 328.013 74.4357C328.316 73.4353 329.064 72.773 329.325 72.6884C329.586 72.6039 329.981 72.4277 329.981 72.4277" stroke="white" stroke-width="2" stroke-miterlimit="10"/>
<path d="M289.51 64.1152C290.737 64.7282 293.072 65.778 293.418 66.4473C293.764 67.1167 294.85 69.1599 295.372 70.0335C295.894 70.9072 297.185 72.0767 298.582 72.0486C299.978 72.0204 300.479 70.9424 301.382 71.5835" stroke="white" stroke-width="2" stroke-miterlimit="10"/>
<path d="M312.12 69.7578C311.986 71.4628 312.516 73.9992 311.549 74.7461C310.583 75.4929 309.842 75.8804 309.884 76.9795C309.927 78.0786 310.018 81.3971 308.749 82.9683C307.479 84.5394 307.084 85.1101 305.814 85.2017C304.544 85.2933 303.712 86.949 303.846 88.5272C303.98 90.1055 303.846 92.3319 302.357 92.9871C300.869 93.6423 298.153 95.3051 296.53 94.6076C294.908 93.9101 292.502 93.4239 291.014 94.1708C289.525 94.9176 285.935 96.6226 284.75 97.0594C283.564 97.4963 282.563 97.7569 282.076 98.3276C281.589 98.8983 279.579 101.872 278.401 101.914C277.223 101.956 275.946 100.78 275.424 99.772C274.902 98.7645 273.759 97.4117 272.362 97.4963C270.965 97.5808 269.032 98.7222 267.417 98.849C265.802 98.9758 263.255 98.7645 264.355 97.0594C265.456 95.3544 265.759 92.9519 265.759 92.9519" stroke="white" stroke-width="2" stroke-miterlimit="10"/>
<path d="M258.508 109.946C260.201 109.304 261.894 106.564 262.303 104.753C262.712 102.942 263.763 99.4477 263.82 99.1588C263.876 98.8699 264.405 98.2852 264.405 98.2852" stroke="white" stroke-width="2" stroke-miterlimit="10"/>
<path d="M297.319 94.7285C297.58 96.1729 297.623 97.744 297.235 98.9277C296.847 100.111 298.152 100.633 298.9 100.633C299.647 100.633 302.885 101.33 302.49 102.866C302.095 104.402 298.9 105.797 298.504 106.931C298.109 108.066 297.63 109.165 298.504 110.518C299.379 111.87 301.044 113.054 300.649 114.104C300.254 115.154 299.464 116.161 297.192 116.246C294.921 116.33 292.769 115.893 292.593 117.598C292.417 119.304 291.718 120.529 290.843 121.185C289.969 121.84 287.606 122.89 287.514 124.116C287.422 125.342 287.38 127.089 286.505 128.399C285.63 129.71 284.361 131.196 284.487 132.599C284.614 134.001 285.101 135.748 285.059 136.622C285.017 137.495 285.017 139.419 284.706 140.208C284.396 140.997 284.135 142.307 284.135 142.307" stroke="white" stroke-width="2" stroke-miterlimit="10"/>
<path d="M292.777 143.012C294.35 142.314 296.516 141.201 298.788 141.441C301.059 141.68 302.872 140.511 303.281 140.102C303.69 139.693 306.491 140.046 307.02 139.926C307.549 139.806 308.128 137.65 309.235 137.537C310.343 137.425 313.552 136.255 313.496 135.614C313.44 134.973 316.924 135.233 317.849 136.107C318.773 136.981 321.792 139.996 322.448 140.433C323.104 140.87 325.122 141.349 325.122 142.357C325.122 143.364 325.037 144.456 324.861 144.893C324.684 145.33 324.466 145.59 324.466 145.59" stroke="white" stroke-width="2" stroke-miterlimit="10"/>
<path d="M305.707 74.76C306.469 74.5839 309.15 74.9361 309.615 75.3166C310.081 75.6971 312.881 73.9145 313.904 73.9498C314.927 73.985 315.569 72.9563 316.528 73.0761C317.488 73.1959 319.357 74.5064 320.204 75.3518C321.05 76.1973 323.124 78.1207 323.71 78.473C324.295 78.8253 325.17 79.3749 326.426 79.6708C327.681 79.9667 329.487 80.5726 330.306 80.5162C331.124 80.4599 331.999 79.4946 331.999 79.4946" stroke="white" stroke-width="2" stroke-miterlimit="10"/>
<path d="M303.605 91.4931C304.332 91.9299 307.782 92.0497 309.178 92.3386C310.575 92.6274 312.36 92.8952 313.968 92.4583C315.577 92.0215 318.173 91.2324 318.695 90.5349C319.217 89.8374 320.36 91.2324 320.91 92.254C321.46 93.2756 321.904 93.5081 322.37 93.2756C322.836 93.0431 325.262 92.8952 326.546 94.1775C327.83 95.4598 328.5 96.6293 329.495 96.2207C330.49 95.812 331.477 95.4034 331.802 93.8322C332.126 92.2611 331.802 88.7876 331.308 88.2028C330.814 87.618 328.416 87.9421 328.416 87.2094C328.416 86.4766 328.973 85.1944 327.858 84.06C326.744 82.9257 326.574 81.0304 326.807 79.7129" stroke="white" stroke-width="2" stroke-miterlimit="10"/>
<path d="M350.982 148.606C352.118 147.937 353.402 144.992 352.732 143.97C352.062 142.949 349.931 140.821 349.021 140.645C348.111 140.469 346.221 139.68 345.783 137.96C345.346 136.241 345.085 134.494 345.988 133.818C346.891 133.141 348.993 132.648 349.169 130.816C349.346 128.984 348.732 126.645 348.732 125.455C348.732 124.264 348.147 119.564 349.635 120.058C351.124 120.551 352.732 121.34 354.044 122.883C355.356 124.426 358.538 125.363 359.645 124.722C360.753 124.081 361.31 121.861 362.446 121.629C363.581 121.396 365.747 121.749 365.98 121.861C366.213 121.974 366.417 122.27 366.417 122.27" stroke="white" stroke-width="2" stroke-miterlimit="10"/>
<path d="M341.587 100.942C342.334 101.294 342.638 103.175 341.848 103.563C341.058 103.95 340.006 104.352 339.308 104.133C338.61 103.915 338.257 102.781 338.172 102.076C338.088 101.371 336.599 99.5396 336.38 98.9689C336.162 98.3982 335.414 96.9538 334.321 96.5663C333.227 96.1788 331.428 95.6011 331.344 95.4743C331.259 95.3475 331.125 95.2559 331.125 95.2559" stroke="white" stroke-width="2" stroke-miterlimit="10"/>
<path d="M317.982 136.141C319.21 134.697 320.346 133.429 321.178 132.471C322.01 131.512 323.323 129.631 323.541 128.8C323.76 127.968 326.956 124.953 328.049 124.601C329.142 124.248 330.631 123.29 331.992 124.904C333.354 126.517 333.043 127.743 332.909 128.708C332.775 129.674 332.557 131.815 333.043 132.161C333.53 132.506 335.802 133.168 336.154 133.866C336.507 134.563 337.601 134.697 338.433 134.387C339.265 134.077 343.512 134.521 343.949 135C344.387 135.479 345.353 135.747 345.353 135.747" stroke="white" stroke-width="2" stroke-miterlimit="10"/>
<path d="M339.308 104.133C339.265 105.619 338.56 107.677 337.071 107.677C335.583 107.677 333.565 107.543 332.782 107.719C331.999 107.895 330.765 109.558 330.546 110.298C330.327 111.037 328.268 111.742 328.007 111.869C327.746 111.996 327.788 114.405 327.527 115.103C327.266 115.8 326.518 118.471 326.779 119.344C327.04 120.218 327.393 121.183 328.352 122.057C329.312 122.93 329.925 123.98 329.925 123.98" stroke="white" stroke-width="2" stroke-miterlimit="10"/>
<path d="M328.535 96.0879C327.442 97.2715 325.473 98.9273 323.632 98.9766C321.791 99.0259 320.521 98.6243 319.781 99.7234C319.04 100.823 316.719 101.605 316.105 101.738C315.491 101.872 315.752 103.796 316.627 104.754C317.502 105.712 317.982 107.248 317.594 108.122C317.206 108.995 314.003 109.742 314.045 110.179C314.088 110.616 314.088 111.49 315.491 112.455C316.895 113.42 317.333 114.244 317.375 115.033C317.417 115.823 318.207 117.267 319.915 116.696C321.622 116.126 323.287 114.907 324.295 114.773C325.304 114.639 327.71 114.336 327.71 114.336" stroke="white" stroke-width="2" stroke-miterlimit="10"/>
<path d="M300.643 114.104C301.517 115.196 302.526 115.633 303.359 115.767C304.191 115.901 306.773 116.161 308.741 115.809C310.709 115.457 313.467 114.717 314.081 114.365C314.695 114.012 316.268 113.139 316.268 113.139" stroke="white" stroke-width="2" stroke-miterlimit="10"/>
<path d="M305.94 115.941C305.418 117.428 304.628 119.225 304.586 120.359C304.544 121.493 304.325 122.022 304.939 122.938C305.553 123.854 306.78 125.826 306.032 127.045C305.284 128.264 305.334 129.539 306.822 130.455C308.311 131.371 308.445 132.816 308.487 133.386C308.529 133.957 310.547 134.175 311.33 133.957C312.113 133.739 313.503 135.606 313.503 135.606" stroke="white" stroke-width="2" stroke-miterlimit="10"/>
<path d="M243.157 149.944C242.163 152.804 240.766 154.664 240.766 156.01C240.766 157.355 240.59 159.103 241.584 158.694C242.579 158.285 246.487 155.192 246.487 153.389C246.487 151.585 246.134 149.598 244.794 149.718C243.454 149.838 243.157 149.951 243.157 149.951V149.944Z" fill="#97C2C4"/>
<path d="M228.928 160.02C230.332 160.104 230.198 161.506 229.937 162.95C229.676 164.395 229.238 166.452 229.146 166.621C228.751 164.916 228.229 163.169 228.18 162.859C228.131 162.549 227.919 162.028 227.827 161.154C227.736 160.28 228.921 160.02 228.921 160.02H228.928Z" fill="#97C2C4"/>
<path d="M159.174 285.923C160.662 286.275 163.463 286.444 164.077 286.099C164.69 285.754 164.338 278.751 164.775 278.229C165.212 277.708 165.741 277.18 167.667 277.616C169.593 278.053 175.025 278.405 176.076 277.44C177.127 276.475 183.695 267.908 185.36 265.371C187.024 262.835 190.615 260.122 191.052 260.651C191.49 261.179 191.405 263.363 191.405 263.363" stroke="white" stroke-width="2" stroke-miterlimit="10"/>
<path d="M191.053 260.643C191.49 258.191 191.575 254.521 190.968 253.034L189.127 248.574" stroke="white" stroke-width="2" stroke-miterlimit="10"/>
<path d="M154.301 246.568C155.352 247.152 158.272 247.85 160.198 246.392C162.124 244.933 164.459 243.827 166.505 245.807C168.551 247.787 172.169 251.697 173.51 252.282C174.85 252.866 178.236 253.331 178.878 252.803" stroke="white" stroke-width="2" stroke-miterlimit="10"/>
<path d="M201.062 233.561C202.875 232.631 206.494 228.136 208.42 225.396C210.346 222.655 217.351 219.97 218.988 218.167C220.624 216.363 221.323 215.482 221.323 215.482" stroke="white" stroke-width="2" stroke-miterlimit="10"/>
<path d="M314.308 51.432C315.796 51.0375 317.418 51.1713 317.814 52.348C318.209 53.5246 318.949 55.3635 319.697 55.6312C320.445 55.8989 320.755 55.9271 320.537 56.8853C320.318 57.8435 320.05 59.1751 319.831 59.8304C319.612 60.4856 318.695 62.8881 318.822 64.2057C318.949 65.5232 318.688 65.5161 317.99 66.3475C317.292 67.1789 317.242 68.8839 316.678 69.1023C316.113 69.3208 314.71 68.7078 314.054 69.0601C313.398 69.4123 312.523 70.286 311.951 69.8914C311.38 69.4969 309.151 65.953 309.412 64.1634C309.673 62.3738 310.682 61.8877 311.599 60.7533C312.516 59.619 314.491 58.3508 314.223 55.4198C313.955 52.4889 314.138 51.5307 314.308 51.4391" fill="#0088BD"/>
<path d="M180.923 252.747C183.081 250.767 187.928 248.315 188.393 247.554C188.859 246.793 190.552 245.863 191.081 245.631C191.61 245.398 191.547 242.538 193.296 241.488C195.046 240.438 197.677 240.967 198.086 240.791C198.495 240.614 199.899 239.219 200.654 236.648C201.409 234.076 201.296 232.336 200.83 232.216C200.365 232.096 199.426 228.778 199.955 227.087C200.484 225.396 201.359 221.725 200.83 220.732C200.301 219.738 199.313 218.865 197.91 218.808C196.506 218.752 195.285 218.4 194.933 216.124C194.58 215.948 193.649 216.589 193.063 218.167C192.478 219.745 189.677 222.599 188.915 222.719C188.153 222.838 186.291 221.204 185.706 221.725C185.12 222.247 184.478 227.319 184.422 228.489C184.365 229.659 183.78 231.695 183.314 232.103C182.849 232.512 182.849 233.851 182.849 234.379C182.849 234.908 181.917 236.126 180.457 237C178.997 237.874 177.191 240.093 177.247 241.375C177.304 242.658 177.769 245.687 178.418 246.8C179.067 247.914 179.293 249.661 179.18 250.647C179.067 251.634 179.47 251.873 179.942 252.338C180.415 252.803 180.937 252.747 180.937 252.747H180.923Z" fill="#0088BD"/>
<path d="M20.084 144.061C24.0556 140.094 30.8278 135.43 33.3956 134.846C35.9633 134.261 41.4516 130.766 43.2011 128.667C44.9506 126.567 49.2749 122.135 51.49 121.318C53.705 120.501 59.546 118.169 61.0627 116.069C62.5794 113.969 64.216 110.82 64.216 106.388C64.216 101.957 65.0343 97.9901 65.9655 96.9403C66.8967 95.8905 67.0166 92.8609 67.2494 91.8111C67.4822 90.7613 68.7661 88.549 70.1699 87.6119C71.5737 86.6749 72.9705 83.5326 73.3232 82.4828C73.6759 81.433 75.7781 76.3038 76.2437 75.254C76.7093 74.2042 78.2401 70.9844 78.2401 70.9844" stroke="white" stroke-width="2" stroke-miterlimit="10"/>
<path d="M63.8984 109.249C66.6144 108.636 76.1589 108.552 77.6474 109.425C79.1358 110.299 82.7265 112.314 84.8287 113.448C86.9309 114.583 90.6062 113.096 92.8848 112.659C95.1633 112.222 98.4013 110.038 98.6623 110.038C98.9233 110.038 99.7698 110.229 99.7698 110.229" stroke="white" stroke-width="2" stroke-miterlimit="10"/>
<path d="M24.2246 189.716C25.6708 189.673 27.1169 190.019 29.5224 188.405C31.928 186.792 34.6862 184.995 36.8378 185.256C38.9894 185.517 42.7493 185.65 43.4477 186.566C44.1461 187.482 44.7175 188.137 45.1549 189.976C45.5923 191.815 46.3823 193.429 47.2148 193.999C48.0472 194.57 48.8373 195.486 51.2851 195.881C53.733 196.275 55.9692 197.015 56.4066 197.283C56.8439 197.55 58.5511 198.156 59.6939 198.248C60.8367 198.339 64.773 198.466 64.773 198.466" stroke="white" stroke-width="2" stroke-miterlimit="10"/>
<path d="M32.8105 170.207C35.1738 169.77 39.4628 167.234 40.2529 165.832C41.043 164.43 41.4803 159.188 43.4062 159.533C45.332 159.878 47.0815 162.33 48.57 161.717C50.0584 161.104 51.0249 158.829 53.2117 159.005C55.3986 159.181 56.626 159.181 57.1551 158.307C57.6842 157.434 59.5183 155.51 60.3931 155.855C61.2678 156.201 61.7969 157.342 61.2678 158.476C60.7387 159.611 60.0404 161.273 60.8304 161.978C61.6205 162.683 64.5975 162.591 63.9837 164.951C63.37 167.312 62.1426 170.2 62.5799 172.561C63.0173 174.921 63.2783 177.718 64.5058 178.422C65.7332 179.127 68.1811 180.607 68.4491 180.698C68.7172 180.79 69.9376 180.614 69.9376 180.614" stroke="white" stroke-width="2" stroke-miterlimit="10"/>
<path d="M43.2578 186.271C44.2525 184.46 45.8256 181.487 47.695 180.846C49.5644 180.205 50.7284 179.74 52.4214 180.029C54.1145 180.317 57.5006 179.444 58.8409 178.746C60.1812 178.049 61.9942 177.985 62.6926 178.105C63.3909 178.225 64.5055 178.429 64.5055 178.429" stroke="white" stroke-width="2" stroke-miterlimit="10"/>
<path d="M107.827 126.334C108.003 128.081 107.418 128.899 106.599 129.251C105.781 129.603 103.855 130.477 102.691 130.709C101.527 130.942 100.236 133.041 99.3615 133.218C98.4868 133.394 95.6227 134.091 94.5152 134.676C93.4077 135.261 93.055 138.523 93.8168 139.573C94.5787 140.622 95.9755 141.616 96.0954 144.645C96.2153 147.675 97.8449 151.642 97.9083 152.748C97.9718 153.854 97.9648 154.847 96.6245 156.01C95.2841 157.172 87.6372 163.295 87.6936 164.232C87.7501 165.169 87.9829 166.156 87.9264 166.684C87.87 167.212 86.8471 170.559 86.1487 171.567C85.4504 172.574 85.4927 175.019 85.4927 175.019" stroke="white" stroke-width="2" stroke-miterlimit="10"/>
<path d="M93.4986 136.537C92.9272 139.292 92.5815 139.729 90.2606 141.258C87.9398 142.787 80.4974 145.633 79.3546 146.197C78.2118 146.76 73.2244 148.599 71.9123 151.967C70.6002 155.335 70.3815 156.645 69.6337 157.653C68.886 158.66 65.9584 160.711 65.6057 161.154C65.253 161.598 65.387 162.641 65.0837 163.078C64.7803 163.515 63.9902 163.867 63.9902 163.867" stroke="white" stroke-width="2" stroke-miterlimit="10"/>
</g>
<defs>
<clipPath id="clip0_1089_5422">
<rect width="468" height="328" fill="white"/>
</clipPath>
</defs>
</svg>
