<svg width="621" height="436" viewBox="0 0 621 436" fill="none" xmlns="http://www.w3.org/2000/svg">
<path d="M174.512 430.734C176.452 429.499 181.184 426.478 183.667 426.169C186.149 425.861 190.722 425.627 192.352 426.946C193.982 428.264 194.057 428.648 195.922 428.807C197.787 428.966 200.11 428.573 201.272 429.19C202.434 429.808 209.798 434.372 212.206 435.074C214.614 435.775 217.716 436.393 219.73 435.691C221.745 434.99 232.445 429.116 234 428.957C235.555 428.798 241.365 425.084 242.142 425.084C242.92 425.084 249.582 422.914 250.209 422.456C250.837 421.998 255.794 420.052 256.028 419.594C256.262 419.136 258.745 418.668 259.438 418.584C260.132 418.5 262.381 415.329 263.083 415.179C263.786 415.029 264.32 414.562 264.32 414.562C264.32 414.562 264.086 412.859 264.938 411.934C265.791 411.008 267.881 409.53 269.127 408.838C270.373 408.145 270.289 406.752 270.832 405.508C271.375 404.264 273.549 398.614 273.549 397.305C273.549 395.995 276.576 392.039 276.576 391.263C276.576 390.486 277.587 381.049 276.576 380.272C275.564 379.496 273.474 378.57 272.547 377.017C271.619 375.465 268.283 374.305 266.812 372.995C265.341 371.686 261.303 369.198 259.682 367.112C258.061 365.026 253.948 359.452 253.714 358.909C253.479 358.367 252.702 353.802 252.702 352.951C252.702 352.1 252.468 349.004 253.479 349.696C254.491 350.388 254.529 350.894 255.925 351.09C257.321 351.286 259.645 350.201 259.729 349.313C259.813 348.424 263.608 341.531 264.226 340.988C264.845 340.446 267.984 338.818 270.195 338.126C272.406 337.434 273.765 336.807 275.311 337.546C276.857 338.285 281.279 340.062 281.86 340.605C282.441 341.147 284.493 343.28 285.074 344.711C285.655 346.142 287.482 348.153 287.669 349.78C287.857 351.408 288.288 352.68 288.99 352.839C289.693 352.998 291.82 352.68 292.326 351.754C292.832 350.828 295.118 349.509 296.205 349.397C297.292 349.285 299.306 349.013 300.59 349.201C301.873 349.388 305.518 349.706 307.027 349.434C308.535 349.163 310.325 347.498 311.683 346.301C313.042 345.104 315.253 344.29 316.837 344.215C318.42 344.14 320.716 344.29 321.952 344.795C323.189 345.3 324.089 345.534 325.438 345.066C326.787 344.599 326.45 344.019 327.49 343.981C328.53 343.944 331.987 344.327 333.383 343.71C334.78 343.093 339.277 339.959 340.167 339.454C341.057 338.949 343.034 338.912 343.343 338.874C343.653 338.837 346.445 336.901 347.222 336.396C348 335.891 348 335.507 348 335.507V328.848C348 328.848 345.48 329.081 344.974 328.651C344.468 328.221 340.673 325.593 338.228 323.816C335.782 322.038 334.854 317.278 334.423 316.576C333.992 315.875 333.262 313.751 333.187 313.209C333.112 312.666 332.334 310.309 332.025 309.683C331.716 309.056 330.432 306.662 330.048 306.203C329.664 305.745 328.998 305.118 328.961 304.576C328.924 304.033 329.12 299.347 328.492 298.272C327.865 297.196 327.715 295.915 327.443 295.101C327.171 294.287 327.246 292.585 326.862 292.042C326.478 291.5 315.731 291.5 315.075 291.079C314.419 290.658 311.627 287.637 311.393 287.244C311.159 286.851 309.725 286.196 308.676 285.738C307.626 285.28 306.315 284.775 305.921 284.148C305.528 283.521 304.216 283.1 303.869 283.1C303.523 283.1 299.99 283.568 298.866 283.755C297.741 283.942 296.27 284.719 295.877 285.111C295.483 285.504 294.987 286.701 294.443 286.851C293.9 287.001 292.541 286.112 292.429 285.457C292.316 284.803 292.86 284.298 291.923 283.484C290.986 282.67 290.105 281.005 289.946 279.958C289.787 278.91 289.946 278.218 289.562 277.245C289.178 276.272 289.131 275.384 289.178 274.533C289.224 273.682 289.412 272.213 289.562 271.633C289.712 271.053 289.871 269.968 290.255 269.351C290.639 268.734 290.686 267.686 290.602 267.34C290.517 266.994 291.379 264.899 290.948 264.169C290.517 263.44 290.133 262.888 289.168 263.159C288.203 263.43 287.266 264.787 287.266 265.02C287.266 265.254 286.573 267.462 286.61 267.649C286.648 267.836 286.414 269.117 286.226 269.819C286.039 270.52 285.758 271.633 285.608 271.867C285.458 272.101 285.88 273.102 284.174 273.457C282.469 273.813 280.108 274.074 278.712 274.112C277.316 274.149 274.411 273.953 273.905 274C273.399 274.046 272.781 274.692 272.509 275.085C272.237 275.477 270.729 276.319 270.495 276.749C270.26 277.18 269.914 278.564 269.642 278.957C269.37 279.35 269.258 280.51 268.593 280.313C267.927 280.117 266.578 280.004 266.11 279.387C265.641 278.77 265.566 278.068 264.826 277.881C264.086 277.694 263.233 277.844 263.233 277.844C263.233 277.844 264.011 278.695 263.074 278.732C262.137 278.77 261.603 278.891 261.256 278.499C260.91 278.106 260.329 278.031 260.244 277.844C260.16 277.657 260.048 276.721 260.132 276.375C260.216 276.029 261.181 274.168 261.256 273.822C261.331 273.476 262.034 272.896 262.109 271.848C262.184 270.801 262.652 269.257 262.652 268.406C262.652 267.555 262.727 261.597 262.924 260.203C263.121 258.81 264.358 257.65 265.248 257.612C266.138 257.575 269.436 257.772 270.485 257.612C271.535 257.453 271.497 256.874 271.3 256.181C271.104 255.489 270.101 254.517 269.67 254.133C269.239 253.75 267.656 253.357 266.803 252.777C265.95 252.197 266.185 251.58 264.283 251.495C262.381 251.411 258.042 251.458 257.152 251.495C256.262 251.533 254.519 253.974 253.582 254.245C252.646 254.517 249.975 254.937 247.726 254.75C245.478 254.563 244.241 254.058 242.451 254.058C240.662 254.058 237.101 254.442 235.705 256.228C234.309 258.015 232.838 259.483 232.023 259.436C231.208 259.39 229.231 258.969 228.847 258.314C228.463 257.659 228.153 254.17 227.994 253.665C227.835 253.16 227.451 250.223 226.907 249.559C226.364 248.895 225.895 248.091 225.277 248.007C224.659 247.922 223.3 248.661 223.103 249.129C222.906 249.597 221.866 251.411 221.51 252.262C221.154 253.114 219.262 258.033 219.149 258.454C219.037 258.875 218.681 263.832 218.568 264.338C218.456 264.843 216.704 265.928 216.751 267.013C216.797 268.098 216.441 269.763 216.91 270.183C217.378 270.604 220.245 273.167 221.136 273.934C222.026 274.701 222.607 275.44 222.532 276.067C222.457 276.693 222.803 286.945 222.532 287.178C222.26 287.412 221.023 288.647 221.023 289.115C221.023 289.582 221.37 292.557 220.789 293.445C220.208 294.334 217.884 298.131 217.922 298.749C217.959 299.366 217.416 309.355 217.416 309.627C217.416 309.898 215.748 312.105 215.28 312.217C214.811 312.33 210.876 314.827 209.367 315.818C207.859 316.81 204.832 322.375 205.301 324.76C205.769 327.145 204.252 329.343 203.268 329.465C202.284 329.587 198.967 328.707 198.386 329.119C197.805 329.53 194.488 332.486 193.036 332.954C191.584 333.421 188.267 334.581 188.155 335.853C188.042 337.125 189.551 339.164 190.188 339.688C190.825 340.212 194.32 342.186 194.779 344.739C195.238 347.292 195.247 348.574 194.666 350.024C194.086 351.473 194.61 357.918 195.069 358.619C195.528 359.321 195.828 359.433 197.805 359.611C199.782 359.789 202.78 359.826 203.474 359.405C204.167 358.984 205.235 359.424 205.273 360.266C205.31 361.107 205.217 364.428 205.741 365.101C206.266 365.775 208.29 367.991 208.318 368.571C208.346 369.151 208.543 371.789 209.208 372.509C209.873 373.229 211.728 373.847 212 374.118C212.272 374.389 212.309 375.203 211.963 375.708C211.616 376.213 211.579 378.767 211.616 379.169C211.654 379.571 211.401 380.834 210.876 380.834C210.351 380.834 208.786 381.432 208.355 381.797C207.924 382.162 207.137 383.097 206.575 383.032C206.013 382.966 206.172 380.768 205.919 380.497C205.666 380.226 204.43 380.385 204.055 379.823C203.68 379.262 203.418 378.916 202.715 378.776C202.012 378.636 201.01 379.496 200.719 379.936C200.429 380.375 199.96 380.824 199.379 380.983C198.798 381.142 198.686 382.414 198.948 383.05C199.211 383.686 201.581 383.771 202.453 383.883C203.324 383.995 203.483 384.135 203.502 384.35C203.521 384.566 202.321 384.837 201.853 384.837C201.384 384.837 199.173 385.688 198.883 385.847C198.592 386.006 198.433 393.61 198.124 394.228C197.815 394.845 197.815 396.8 197.234 397.165C196.653 397.529 195.997 398.287 194.769 398.193C193.542 398.1 192.193 398.717 191.068 398.596C189.944 398.474 185.25 398.633 184.632 398.483C184.013 398.334 183.432 398.502 181.783 398.465C180.134 398.427 179.441 398.811 178.916 399.55C178.391 400.289 177.829 401.411 177.173 401.664C176.517 401.916 176.321 402.571 176.227 403.169C176.133 403.768 176.03 404.385 175.159 404.47C174.288 404.554 173.313 404.919 172.732 405.414C172.151 405.91 172.17 406.106 171.374 405.901C170.577 405.695 170.755 405.302 170.118 405.227C169.481 405.152 167.401 405.115 167.092 405.302C166.782 405.489 161.236 407.453 157.535 407.509C153.834 407.565 152.653 407.94 151.894 409.034C151.135 410.128 151.407 410.849 150.938 411.513C150.47 412.177 150.273 413.514 150.198 413.804C150.123 414.094 149.599 414.403 149.617 415.722C149.636 417.04 149.505 417.854 149.14 418.097C148.774 418.341 148.671 418.303 148.662 420.09C148.652 421.876 148.587 423.223 148.268 423.504C147.95 423.784 147.903 427.89 148.193 428.218C148.484 428.545 152.756 428.48 153.3 428.592C153.843 428.704 155.333 429.518 155.914 429.929C156.495 430.341 157.806 430.219 158.266 430.369C158.725 430.519 159.615 431.005 159.615 431.005L174.531 430.799L174.512 430.734Z" fill="#87BCC1" fill-opacity="0.3"/>
<path d="M353.773 176.906C354.907 177.749 356.247 181.119 357.906 181.466C359.565 181.812 364.251 180.998 365.057 182.627C365.863 184.256 365.966 188.591 365.488 189.171C365.01 189.752 365.141 192.177 365.544 192.233C365.947 192.289 368.74 191.203 369.35 191.184C369.959 191.165 373.108 190.969 373.755 190.37C374.402 189.77 374.898 188.993 375.245 189.087C375.592 189.181 378.544 190.098 379.65 189.724C380.756 189.349 381.243 188.291 383.512 188.984C385.78 189.677 388.376 189.836 388.048 191.156C387.72 192.476 389.079 193.132 391.207 194.957C393.334 196.783 393.925 198.712 394.881 199.442C395.837 200.172 400.148 199.47 401.947 199.732C403.747 199.994 403.082 200.425 406.343 200.228C409.605 200.032 412.276 201.764 412.398 203.309C412.52 204.853 412.717 204.816 413.035 205.518C413.354 206.22 413.27 208.514 414.226 208.627C415.182 208.739 414.863 205.986 415.041 205.172C415.219 204.357 417.337 201.333 418.012 200.809C418.687 200.285 419.352 199.236 419.352 198.075C419.352 196.914 422.286 194.442 423.045 194.236C423.804 194.03 425.079 193.89 425.922 194.414C426.766 194.939 428.013 194.564 428.509 193.721C429.006 192.879 431.152 194.742 431.855 194.592C432.558 194.442 441.743 194.967 442.474 194.564C443.205 194.161 444.34 194.161 444.949 194.414C445.558 194.667 446.786 194.939 447.301 194.761C447.817 194.583 448.229 195.369 448.698 195.659C449.166 195.95 452.128 197.317 452.681 197.457C453.234 197.597 456.055 198.187 456.664 197.925C457.274 197.663 458.239 195.341 459.373 195.247C460.507 195.154 462.485 196.146 463.094 196.38C463.703 196.614 465.222 197.485 465.447 198.272C465.671 199.058 465.625 200.247 466.346 200.397C467.068 200.547 468.53 200.425 468.905 201.268C469.28 202.11 470.245 202.485 471.876 202.372C473.507 202.26 474.06 200.715 475.569 200.341C477.078 199.966 480.227 199.292 481.099 199.994C481.97 200.696 489.853 209.347 490.321 210.106C490.79 210.864 493.292 210.845 493.874 210.331C494.455 209.816 496.198 212.231 496.226 213.036C496.254 213.841 504.137 221.519 504.633 222.333C505.13 223.148 510.716 232.07 512.047 233.98C513.378 235.89 517.717 243.886 520.332 245.777C522.947 247.668 525.019 249.063 530.427 248.998C535.834 248.932 542.348 248.736 543.867 248.127C545.385 247.518 546.313 245.627 545.029 243.83C543.745 242.032 543.52 238.399 543.023 237.238C542.526 236.077 540.23 232.361 541.514 229.308C542.798 226.256 547.569 221.032 547.738 220.068C547.906 219.103 551.384 214.15 554.252 214.768C557.12 215.386 564.336 219.805 566.042 221.509C569.07 219.496 569.379 217.09 571.319 215.929C573.259 214.768 572.79 212.446 573.728 210.199C574.665 207.952 583.344 203.299 584.431 202.841C585.518 202.382 584.9 190.988 585.753 188.666C586.606 186.344 590.486 176.27 592.66 175.184C594.835 174.098 598.246 171.158 599.793 171.542C601.339 171.925 605.454 172.234 606.072 172.085C606.691 171.935 605.997 167.282 606.072 167.048C606.147 166.813 609.1 160.775 613.833 161.627C618.566 162.479 619.569 156.749 619.569 156.749C618.716 154.811 618.097 150.242 619.494 149.081C620.89 147.92 621.509 144.971 620.506 143.66C619.494 142.34 614.377 141.029 611.199 142.19C608.022 143.351 605.463 145.757 604.451 145.673C603.439 145.598 598.631 145.13 597.778 145.598C596.925 146.066 596.306 147.92 595.144 148.079C593.982 148.238 590.12 147.648 589.389 147.012C588.658 146.375 578.817 145.813 578.217 145.561C577.617 145.308 573.353 143.66 571.666 138.745C570.925 136.825 567.223 132.64 563.118 132.331C558.694 132.603 556.21 133.342 554.739 132.313C553.267 131.283 551.965 129.139 551.89 128.998C551.112 128.905 543.96 128.867 543.96 128.867C543.96 128.867 533.37 138.089 529.555 138.511C525.74 138.932 521.504 138.436 520.923 140.973C520.342 143.51 519.911 146.824 518.055 148.931C516.19 151.047 515.787 152.498 517.314 154.043C518.842 155.588 520.182 157.648 519.133 160.091C518.083 162.535 514.887 161.43 514.596 161.14C514.306 160.85 514.249 157.825 513.959 157.769C513.668 157.713 506.864 156.43 505.702 156.43C504.539 156.43 496.685 155.962 496.573 155.794C496.46 155.625 495.064 153.238 494.773 153.06C494.483 152.882 492.505 148.875 490.349 148.697C488.194 148.519 483.367 148.931 481.333 148.585C479.299 148.238 475.344 146.609 473.713 144.98C472.082 143.351 468.83 140.392 467.405 139.84C465.981 139.288 464.181 139.344 463.591 138.183C463.01 137.022 462.86 136.704 459.898 135.449C456.927 134.204 454.368 134.204 453.965 134.204C453.562 134.204 453.178 134.672 452.25 134.438C451.322 134.204 450.563 133.567 450.713 132.865C450.863 132.172 450.441 130.655 450.694 130.365C450.947 130.075 453.328 129.757 454.378 129.869C455.427 129.981 455.746 129.813 455.887 129.345C456.037 128.877 455.765 125.319 456.186 124.523C456.608 123.727 462.007 119.58 462.213 118.999C462.429 118.419 462.485 117.716 464.097 117.95C465.709 118.185 470.048 115.994 470.123 115.301C470.198 114.608 469.214 111.93 468.671 110.591C468.127 109.253 467.977 107.258 468.071 106.35C468.165 105.442 468.39 99.216 467.63 98.2517C466.871 97.2967 466.637 96.6226 466.899 96.0983C467.162 95.574 468.033 94.0105 469.111 93.224C470.189 92.4375 470.536 90.9583 470.564 90.0875C470.592 89.2168 469.898 87.7095 469.252 87.9342C468.614 88.1682 468.09 88.4304 468.09 88.4304C468.09 88.4304 466.084 90.5557 465.709 90.7804C465.334 91.0144 464.547 91.2485 464.341 90.7804C464.134 90.3122 464.191 88.0278 463.966 87.9061C463.731 87.7844 463.525 83.3091 463.853 82.3541C464.172 81.3991 463.741 79.2457 463.356 79.0398C462.982 78.8338 461.06 77.935 459.317 77.7945C457.574 77.6541 455.568 77.2141 455.568 76.6055C455.568 75.9969 456.468 74.5177 456.73 73.5533C456.993 72.5983 456.233 68.9001 455.887 68.5256C455.54 68.1511 452.691 66.6344 451.959 66.4003C451.228 66.1663 449.776 65.5015 448.763 65.4454C447.742 65.3892 446.58 66.3442 446.055 66.6344C445.53 66.9246 441.987 70.2671 441.518 71.222C441.05 72.177 440.122 72.8511 439.166 72.823C438.21 72.795 427.909 72.9354 426.719 73.029C425.529 73.1133 425.004 74.0495 425.116 74.6581C425.229 75.2667 425.088 76.4276 424.713 77.1017C424.339 77.7758 423.87 78.0005 423.814 78.6746C423.757 79.3394 423.289 80.5378 423.289 81.2868C423.289 82.0358 422.914 85.4718 422.68 85.9025C422.445 86.3425 420.786 87.5035 420.496 87.9903C420.205 88.4865 420.027 91.3047 419.83 91.5107C419.624 91.7166 417.937 91.5107 417.646 91.2485C417.356 90.9864 415.294 91.1642 415.003 92.063C414.713 92.9618 414.713 93.018 414.535 93.018C414.357 93.018 412.82 92.7559 412.529 92.2035C412.239 91.6511 409.998 88.8049 409.998 86.6796C409.998 84.5543 409.886 82.9065 409.558 82.6724C409.239 82.4384 408.658 82.0077 409.061 81.5676C409.464 81.1276 412.089 77.6167 412.782 77.3264C413.476 77.0362 414.966 76.1093 414.994 75.5569C415.022 75.0045 415.05 71.3157 415.313 71.0816C415.575 70.8475 416.306 68.0575 416.184 67.6549C416.063 67.2523 415.866 66.4659 415.547 66.494C415.228 66.5221 411.479 66.8123 410.542 66.4659C409.614 66.1195 407.168 64.893 406.474 64.4342C405.781 63.9661 405.284 63.0673 404.441 63.0111C403.597 62.9549 401.882 60.8296 401.619 60.0806C401.357 59.3223 400.279 58.9197 399.089 59.004C397.899 59.0882 397.167 59.7623 396.999 60.2866C396.821 60.8109 395.162 65.745 394.702 65.951C394.234 66.1569 390.691 69.9862 389.988 70.6322C389.295 71.2689 389.726 71.7089 388.385 73.338C387.045 74.9671 384.777 77.6073 384.402 78.8619C384.027 80.1164 383.446 81.5676 383.587 82.7286C383.737 83.8896 383.99 85.5748 383.671 85.837C383.352 86.0991 381.056 85.8931 380.409 86.2395C379.772 86.586 376.801 87.1103 375.114 86.8762C373.427 86.6421 370.025 88.5895 369.387 89.17C368.75 89.7505 364.148 93.8232 363.689 93.9917C363.22 94.1696 361.477 95.5646 360.689 95.2744C359.902 94.9842 357.784 93.6734 356.94 92.7465C356.097 91.8196 352.226 85.9493 351.617 85.1629C351.008 84.3764 347.371 82.1949 347.193 81.4459C347.015 80.6876 346.584 77.5511 345.393 77.4388C344.203 77.3264 342.572 78.1971 340.07 78.1971C337.567 78.1971 334.428 78.141 333.725 77.4388C333.031 76.7459 331.663 73.1133 331.456 72.589C331.25 72.0647 330.116 69.9113 327.473 69.9487C324.83 69.9768 322.646 70.7071 321.746 70.1828C320.847 69.6585 319.563 68.3478 319.188 68.2916C318.813 68.2354 317.182 69.6304 316.807 70.2109C316.432 70.7914 315.092 71.7838 314.098 71.7838C313.105 71.7838 310.49 71.3438 309.59 70.5948C308.69 69.8364 309.065 69.696 307.556 69.8083C306.047 69.9207 305.926 71.5217 305.11 72.1302C304.295 72.7388 302.055 71.6902 300.977 72.1302C299.899 72.5703 296.159 71.8587 293.441 71.6621C290.723 71.4655 288.474 69.5274 286.731 69.0687C284.987 68.6005 280.835 65.0428 279.907 63.8818C278.979 62.7209 278.708 61.0169 279.401 60.5113C280.095 60.0057 282.541 59.8934 283.356 59.8185C284.172 59.7436 291.07 58.5358 292.935 57.3749C294.8 56.2139 305.926 49.8942 306.629 49.6227C307.322 49.3512 309.497 48.2277 310.04 47.6847C310.584 47.1416 312.018 46.1305 313.995 46.7952C315.973 47.4506 317.876 47.9187 319.581 49.7819C321.287 51.645 323.771 50.793 324.39 51.0645C325.008 51.336 326.676 52.0289 329.123 51.6076C331.569 51.1769 335.215 47.3008 335.674 46.5892C336.143 45.8777 337.849 41.805 338.392 40.8781C338.936 39.9512 340.257 39.4082 340.407 38.706C340.567 38.0132 341.963 37.3859 342.038 36.9646C342.113 36.5339 342.076 34.4835 341.766 34.2869C341.457 34.0903 334.746 34.6333 333.237 33.7438C331.728 32.8544 331.531 30.4482 331.878 29.8303C332.225 29.2124 334.784 24.7933 335.833 23.6698C336.883 22.5463 338.823 19.1383 339.554 18.5953C340.295 18.0522 341.644 14.4477 341.879 13.2493C342.113 12.0509 341.026 10.6558 339.161 11.3112C337.296 11.9666 333.575 11.3487 332.956 10.8056C332.337 10.2626 328.654 8.7927 327.801 9.13911C326.948 9.48552 324.268 10.8805 323.302 11.1146C322.337 11.3487 320.434 12.3973 320.088 11.6576C319.741 10.918 318.888 8.28712 318.307 7.39768C317.726 6.50824 316.02 3.7182 314.82 3.37179C313.62 3.02538 311.559 3.68075 311.287 3.17518C311.015 2.6696 311.174 0.694107 310.631 0.235343C310.087 -0.232783 304.538 0.122993 304.351 0.235343C304.164 0.347694 304.51 1.82697 303.657 2.95048C302.805 4.07398 301.249 8.06242 298.109 9.26082C294.969 10.4592 295.55 10.1877 294.463 12.0134C293.376 13.8391 291.286 17.556 290.658 18.2489C290.039 18.9417 287.977 21.1138 287.63 22.2373C287.284 23.3608 287.246 24.6809 286.89 25.1397C286.534 25.5984 285.222 25.4861 284.715 26.3381C284.209 27.1901 283.431 29.8209 283.047 30.2891C282.663 30.7572 281.379 33.3881 281.182 33.8936C280.985 34.3992 280.563 35.401 279.673 35.7942C278.783 36.1781 278.351 37.8821 276.88 38.1161C275.409 38.3502 270.404 36.1781 268.623 33.9311C266.842 31.6841 264.743 32.6952 264.283 33.1166C263.815 33.5472 263.046 35.5976 262.193 36.2905C261.34 36.9833 259.869 38.3034 259.325 38.6966C258.782 39.0805 257.966 40.3632 256.42 39.8576C254.873 39.352 254.676 37.2642 254.826 35.092C254.986 32.9199 255.642 30.1299 255.332 29.5869C255.023 29.0438 248.622 27.499 244.16 27.5365C239.699 27.5739 234.853 28.9689 232.22 28.4259C229.586 27.8829 227.102 27.4148 223.766 27.499C220.429 27.5739 217.795 29.2405 216.361 29.2779C214.927 29.3154 211.553 28.894 211.085 28.0421C210.616 27.1901 208.488 24.4 207.129 24.2034C205.77 24.0068 193.595 26.8343 187.428 32.611C181.261 38.3877 174.204 44.155 172.498 44.8946C170.792 45.6343 170.717 46.8514 171.411 47.9C172.104 48.9486 179.958 57.4872 183.108 59.3504C186.257 61.2135 192.649 64.9304 194.392 69.5181C196.135 74.1057 193.464 83.8147 195.845 85.968C198.225 88.1214 200.559 89.8067 202.124 90.1531C203.699 90.4995 206.023 91.0238 208.404 92.0162C210.785 93.0087 213.934 94.6939 214.974 95.4429C216.024 96.2013 220.673 98.0551 221.085 98.2891C221.498 98.5232 223.063 97.9989 223.7 98.1768C224.337 98.3547 225.565 100.208 225.565 101.313C225.565 102.418 227.946 106.949 225.387 110.32C222.828 113.69 222.126 115.488 221.779 116.012C221.432 116.537 217.936 116.649 216.371 115.9C214.806 115.151 203.568 115.956 202.115 116.949C200.662 117.941 199.266 122.641 198.216 124.682C197.166 126.714 196.126 129.916 194.495 131.713C192.864 133.511 190.652 137.527 190.652 139.213C190.652 140.898 188.384 145.027 188.038 145.954C187.691 146.881 187.456 148.688 188.731 148.922C190.015 149.156 195.423 146.946 196.698 146.244C197.982 145.551 200.128 144.325 202.537 145.252C204.946 146.178 209.669 146.104 210.841 146.721C212.003 147.339 216.577 149.512 218.133 149.586C219.689 149.661 223.016 150.279 223.719 150.513C224.412 150.747 227.205 152.376 227.908 152.376C228.611 152.376 230.158 151.056 232.023 151.993C233.888 152.919 236.212 153.004 238.771 155.251C241.33 157.498 241.873 157.339 243.27 159.202C244.667 161.065 245.135 161.524 246.447 161.449C247.769 161.374 247.919 161.299 249.55 160.138C251.18 158.977 251.958 158.434 254.667 158.434C257.376 158.434 259.475 158.902 259.634 159.67C259.794 160.447 260.178 162.076 260.872 162.151C261.565 162.226 265.605 162.385 266.458 162.151C267.311 161.917 268.866 160.915 269.635 160.99C270.413 161.065 272.503 161.299 273.44 161.458C274.368 161.617 276.233 160.372 278.098 160.447C279.964 160.522 281.276 160.924 282.288 162.198C283.3 163.471 289.346 170.989 290.63 171.064C291.914 171.139 298.156 171.682 299.009 172.15C299.862 172.618 301.802 174.594 302.42 175.212C303.039 175.83 303.976 176.448 304.829 175.287C305.682 174.126 308.859 167.89 310.021 167.347C311.184 166.804 313.864 167.076 314.68 166.027C315.495 164.978 315.57 161.879 316.816 160.484C318.054 159.089 321.746 159.361 322.984 160.213C324.221 161.065 321.278 165.756 321.203 166.879C321.128 168.003 321.278 169.819 321.278 169.819C321.278 169.819 324.38 172.88 325.036 173.845C325.692 174.809 328.101 175.24 330.388 174.856C332.675 174.472 336.124 174.201 336.977 172.918C337.83 171.635 338.645 169.079 340.388 168.892C342.132 168.695 343.069 168.929 344.034 171.373C345.019 173.845 347.006 175.802 348.458 176.607C349.264 177.056 350.914 177.683 353.735 176.991" fill="#87BCC1" fill-opacity="0.3"/>
<path d="M68.2259 66.7551C73.0967 66.9892 76.3501 66.5491 77.8646 67.4855C79.3791 68.4219 81.8099 69.2272 84.8296 67.0173C87.8493 64.8074 87.2696 61.7828 88.083 61.6705C88.8963 61.5581 94.7768 60.116 97.0206 56.3985C99.2643 52.681 103.284 42.0997 104.528 41.1352C105.771 40.1707 111.876 31.3685 113.662 29.2055C115.447 27.0424 118.691 26.6116 121.047 27.3046C123.403 27.9975 124.338 31.1064 127.161 32.0334C129.985 32.9604 132.5 34.6272 133.35 36.2566C134.201 37.8859 135.978 38.3073 135.978 40.3674C135.978 42.4274 134.585 44.2441 133.893 44.7872C133.201 45.3303 123.562 45.6018 123.562 45.6018C123.562 45.6018 120.739 46.1824 119.692 46.0326C118.57 46.8472 118.495 46.9596 118.102 48.1208C117.71 49.2819 115.045 53.7392 115.429 57.3443C115.812 60.9494 115.083 63.1968 114.578 63.8523C114.073 64.5078 112.643 65.6689 112.53 68.0005C111.446 69.9763 108.043 74.9393 108.239 77.7297C108.436 80.5202 108.351 82.2619 108.473 82.8425C108.595 83.4231 106.538 86.4851 104.677 88.1519C104.677 88.1519 103.864 88.8916 103.752 89.7063C103.64 90.521 103.06 93.4613 102.247 94.1261C101.433 94.791 105.65 94.8659 105.65 94.8659H129.013C129.013 94.8659 135.819 85.9139 140.194 85.9888C144.569 86.0637 147.355 88.5826 148.01 89.1632C148.664 89.7438 148.898 94.8565 149.44 97.2256C149.982 99.5947 153.236 101.88 156.246 102.151C159.256 102.423 165.184 107.151 165.025 109.006C164.866 110.86 165.408 112.536 163.706 114.081C162.005 115.626 158.789 118.847 157.05 120.28C155.311 121.712 152.329 122.911 151.674 123.379C151.02 123.847 148.271 126.17 147.224 126.638C146.177 127.106 144.055 128.576 143.316 129.045C142.578 129.513 137.015 132.575 135.389 133.614C133.762 134.654 131.677 137.603 130.976 141.321C130.275 145.038 130.705 145.235 131.051 146.124C131.397 147.014 138.249 150.582 138.287 151.434C138.324 152.286 140.727 161.744 140.961 164.225C141.194 166.707 141.428 167.634 142.428 167.943C143.429 168.252 148.617 167.559 149.935 165.695C151.254 163.832 155.115 162.521 157.826 161.36C160.537 160.199 166.492 157.408 167.811 156.556C169.129 155.704 171.831 153.765 174.383 154.234L176.935 154.702C176.935 154.702 181.497 157.333 180.955 159.89C180.413 162.446 176.851 169.347 173.841 173.842C170.83 178.337 168.577 181.979 168.661 183.374C168.746 184.77 169.278 185.079 168.736 186.09C168.194 187.101 157.826 198.881 156.742 200.426C155.657 201.971 149.543 207.964 147.383 210.549C145.224 213.133 135.547 219.95 134.93 221.271C134.313 222.591 134.93 222.9 135.547 224.529C136.165 226.159 136.015 228.172 135.547 229.333C135.08 230.494 131.761 232.994 131.911 234.624C132.06 236.253 133.435 240.738 132.705 241.628C131.78 242.761 125.853 245.214 124.796 244.681C123.656 244.1 122.552 241.281 122.375 239.802C122.197 238.322 121.739 235.41 122.347 234.689C122.954 233.968 122.431 232.798 122.057 232.742C121.683 232.685 119.935 232.948 118.542 233.79C117.149 234.633 113.316 233.032 112.942 232.545C112.568 232.058 111.343 232.948 111.203 233.331C111.063 233.715 109.118 234.671 107.893 235.223C106.669 235.775 103.453 237.517 100.872 237.086C98.292 236.656 94.7488 236.852 93.9915 237.639C93.2342 238.425 90.0463 241.038 91.3551 243.388C92.664 245.739 93.4399 248.389 92.9818 251.666C92.5237 254.944 87.7838 255.356 86.4282 258.174C85.0726 260.993 84.3995 261.601 85.1474 263.315C85.8953 265.029 88.5411 266.218 88.7748 268.025C89.0085 269.832 89.0366 277.295 89.2423 277.736C89.4479 278.176 89.7097 283.167 89.9715 283.691C90.2332 284.215 90.0276 287.615 90.7007 288.167C91.3738 288.72 92.0937 291.098 92.0376 291.716C91.9815 292.334 92.1217 294.684 91.5701 294.881C91.0185 295.078 83.6796 297.381 81.6509 300.574C81.5948 302.41 81.3611 306.212 81.8846 306.914C82.4082 307.616 85.9795 310.341 86.1758 314.705C86.3721 319.068 84.9324 327.552 84.8389 328.826C84.7454 330.099 84.0816 335.165 84.1097 337.693C82.6887 337.693 74.7701 339.201 73.1154 344.754C72.0963 344.866 70.7407 344.754 70.7407 344.754C69.2636 342.956 66.1598 339.641 59.7744 339.725C53.3891 339.81 45.91 348.705 44.8629 350.887C43.7878 351.121 42.1891 351 42.1891 351C42.1891 351 39.3751 347.778 38.0943 347.16C36.8135 346.542 32.5504 345.1 30.8956 343.733C29.2408 342.366 22.7714 338.883 20.7427 338.789C18.7139 338.695 12.5904 337.796 10.4121 341.467C8.2338 345.138 7.10258 346.552 6.9343 348.359C6.76602 350.166 6.75667 352.17 6.75667 352.17L1.53062 356.964C1.53062 356.964 0.109581 357.227 0.0254403 356.328C-0.0587 355.429 0.0534871 351.533 0.54898 350.372C1.04447 349.211 2.43746 341.364 4.96167 337.843C6.00875 332.993 6.53229 331.972 7.01844 330.286C7.50458 328.601 8.87887 325.436 7.71026 323.807C6.54164 322.177 4.40074 316.109 5.62545 312.448C6.85016 308.787 11.2535 308.965 12.2725 308.871C13.2916 308.777 15.554 304.685 16.1897 303.346C16.8255 302.007 18.742 299.629 21.0886 302.391C23.4352 305.153 25.6135 306.811 27.2402 306.923C28.8669 307.036 30.6338 307.504 31.2135 307.56C31.7931 307.616 33.9153 303.459 34.551 302.616C35.1868 301.773 35.7103 298.58 35.3644 295.527C35.0185 292.475 34.2893 285.648 33.2141 284.225C32.139 282.801 17.4892 274.636 13.7497 273.737C13.4318 273.653 13.1139 271.415 14.0395 271.471C14.965 271.527 20.0415 272.576 23.9587 267.81C27.8759 263.043 28.4555 260.487 28.7734 257.491C29.0913 254.494 31.2976 253.829 31.4752 253.539C31.6529 253.249 31.2976 248.717 32.4288 247.752C33.56 246.788 34.8035 245.252 35.4485 244.035C36.0936 242.817 35.6542 240.401 36.0282 240.055C36.4021 239.708 40.2071 236.131 40.525 235.054C40.8429 233.978 41.7123 229.473 42.4135 229.005C43.1146 228.537 42.5631 223.864 41.516 223.509C40.4689 223.153 38.9544 223.012 39.0479 220.69C39.1974 217.235 34.1771 214.735 33.1861 214.154L33.158 209.715C33.158 209.715 31.8492 206.597 29.0071 205.811C29.0071 205.811 29.2689 201.307 28.3714 198.863C27.4739 196.419 27.5019 193.628 27.156 193.113C26.8101 192.598 25.7069 191.456 22.7714 191.605C19.8358 191.755 16.8816 191.577 16.8816 191.577C16.8816 191.577 16.5076 186.024 16.8816 185.65C17.2555 185.275 17.4612 182.017 17.7791 180.481C18.0969 178.945 18.5644 175.977 19.0599 173.186C19.5553 170.396 20.2752 150.872 20.2191 149.411C20.163 147.95 20.537 147.117 21.4999 146.04C22.4629 144.963 23.3323 142.819 23.6221 141.911C23.9119 141.002 31.0826 137.781 32.1857 134.7C33.2889 131.62 34.308 131.329 35.0559 131.507C35.8038 131.685 40.1604 132.725 42.9183 130.552C45.6763 128.38 46.6579 125.177 46.1063 121.338C45.5547 117.499 45.9287 113.144 45.5828 112.442C45.2369 111.74 42.4509 109.418 42.4228 104.595C42.3948 99.7726 46.1624 94.4539 47.6489 94.3696C49.1354 94.2853 54.8756 94.2853 57.7738 89.1351C58.7648 87.2436 62.2425 84.9213 63.514 83.5822C64.7855 82.2432 67.2536 78.7598 67.7491 76.2596C68.2446 73.7594 68.2446 66.8113 68.2446 66.8113L68.2259 66.7551Z" fill="#87BCC1" fill-opacity="0.3"/>
</svg>
