<svg width="145" height="145" viewBox="0 0 145 145" fill="none" xmlns="http://www.w3.org/2000/svg">
<g clip-path="url(#clip0_152_1297)">
<path d="M141.62 131.3H101.518C107.976 127.148 113.245 121.307 116.696 114.4H127.759C136.984 114.4 144.49 106.895 144.49 97.6693C144.49 88.444 136.984 80.9386 127.759 80.9386H121.177V72.4888C121.177 70.6218 119.663 69.1088 117.797 69.1088H27.2027C25.3361 69.1088 23.8226 70.6216 23.8226 72.4888V95.4003C23.8226 110.457 31.6702 123.706 43.4825 131.3H3.38002C1.5135 131.3 0 132.813 0 134.68C0 136.547 1.5135 138.06 3.38002 138.06H66.483H78.5177H141.62C143.487 138.06 145 136.547 145 134.68C145 132.813 143.487 131.3 141.62 131.3ZM127.759 87.6984C133.257 87.6984 137.73 92.1714 137.73 97.6693C137.73 103.167 133.257 107.64 127.759 107.64H119.379C120.544 103.761 121.177 99.6534 121.177 95.4V87.6984H127.759ZM50.6784 32.4809C56.0593 27.1 56.0593 18.3446 50.6784 12.963L50.4256 12.7102C49.1055 11.3908 49.1055 9.25059 50.4256 7.9309C51.7458 6.61073 53.8853 6.61073 55.2057 7.9309L55.4585 8.1837C63.4745 16.1997 63.4745 29.2442 55.4585 37.2607C52.8518 39.8674 51.4167 43.3325 51.4167 47.0193C51.4167 50.7061 52.8525 54.1712 55.4585 56.7786C56.7786 58.0981 56.7786 60.2382 55.4585 61.5579C54.7986 62.2185 53.9334 62.5483 53.0681 62.5483C52.2028 62.5483 51.3383 62.2185 50.6777 61.5579C46.7943 57.6751 44.656 52.5118 44.656 47.0193C44.6567 41.5271 46.7954 36.3637 50.6784 32.4809ZM70.2435 32.4809C72.8502 29.8742 74.286 26.4084 74.286 22.7216C74.286 19.0348 72.8502 15.5697 70.2435 12.9623L69.9907 12.7095C68.6705 11.39 68.6705 9.24988 69.9907 7.93019C71.3109 6.61002 73.4503 6.61002 74.7707 7.93019L75.0235 8.18299C78.907 12.0658 81.046 17.2299 81.046 22.7216C81.046 28.2134 78.9072 33.3772 75.0235 37.2602C72.4168 39.8669 70.9818 43.332 70.9818 47.0188C70.9818 50.7057 72.4175 54.1707 75.0235 56.7781C76.3437 58.0976 76.3437 60.2378 75.0235 61.5574C74.3637 62.218 73.4984 62.5478 72.6332 62.5478C71.7679 62.5478 70.9033 62.218 70.2428 61.5574C66.3593 57.6747 64.221 52.5113 64.221 47.0188C64.221 41.5271 66.36 36.3637 70.2435 32.4809ZM89.8088 32.4802C95.1889 27.1 95.1889 18.3446 89.8088 12.963L89.556 12.7102C88.2358 11.3908 88.2358 9.25059 89.556 7.9309C90.8761 6.61073 93.0156 6.61073 94.336 7.9309L94.5888 8.1837C102.605 16.1997 102.605 29.2442 94.5888 37.2607C91.9821 39.8674 90.5463 43.3325 90.5463 47.0193C90.5463 50.7061 91.9821 54.1712 94.5881 56.7779C95.9083 58.0981 95.9083 60.2382 94.5881 61.5579C93.9283 62.2185 93.063 62.5483 92.1977 62.5483C91.3325 62.5483 90.4679 62.2185 89.8081 61.5586C85.9246 57.6751 83.7856 52.5118 83.7856 47.0195C83.7863 41.5271 85.9251 36.3637 89.8088 32.4802Z" fill="white"/>
</g>
<defs>
<clipPath id="clip0_152_1297">
<rect width="145" height="145" fill="white"/>
</clipPath>
</defs>
</svg>
