<svg width="159" height="159" viewBox="0 0 159 159" fill="none" xmlns="http://www.w3.org/2000/svg">
<path d="M126.875 32.2505C121.667 27.3647 115.364 23.7983 108.494 21.8503C101.624 19.9023 94.3874 19.6293 87.3902 21.0542C70.887 23.9629 55.7237 32.0083 44.0627 44.043C31.9837 55.7067 23.9122 70.8987 21.0077 87.4367C19.5938 94.4239 19.8724 101.648 21.8202 108.505C23.7679 115.363 27.3283 121.655 32.2039 126.855C36.276 130.762 41.0862 133.816 46.353 135.841C51.6199 137.866 57.2376 138.82 62.8777 138.648C82.6598 137.852 101.357 129.395 115.016 115.063C141.112 88.9605 146.412 51.7942 126.875 32.2505ZM27.5664 88.4305C30.2701 73.3119 37.6641 59.4279 48.7002 48.7467C59.3634 37.6869 73.2556 30.2886 88.3839 27.613C90.9715 27.2219 93.5844 27.0226 96.2014 27.0167C100.969 26.8516 105.722 27.6397 110.181 29.3347C114.641 31.0297 118.717 33.5976 122.171 36.888C122.449 37.1438 122.694 37.4331 122.9 37.7492C118.774 41.3261 114.008 44.0908 108.855 45.898C101.412 48.5748 94.6969 52.9532 89.2451 58.6842C83.5141 64.136 79.1357 70.8511 76.4589 78.2942C74.1405 84.9295 70.2541 90.9068 65.1302 95.718C60.3006 100.82 54.329 104.703 47.7064 107.047C42.0105 109.075 36.734 112.129 32.1377 116.057C27.4143 107.671 25.7958 97.8903 27.5664 88.4305ZM110.313 110.359C86.7939 133.878 53.8676 139.178 36.9077 122.218C36.6263 121.946 36.3609 121.659 36.1127 121.357C40.2712 117.79 45.0561 115.027 50.2239 113.208C57.6461 110.489 64.3521 106.117 69.8339 100.422C75.5514 94.9587 79.9276 88.2471 82.6201 80.8117C84.9386 74.1765 88.825 68.1992 93.9489 63.388C98.7601 58.2641 104.737 54.3777 111.373 52.0592C117.042 49.9876 122.293 46.9132 126.875 42.983C137.74 60.95 131.314 89.358 110.313 110.359Z" fill="white"/>
</svg>
