<svg width="302" height="308" viewBox="0 0 302 308" fill="none" xmlns="http://www.w3.org/2000/svg">
<path d="M113.344 253.602V243.586C113.507 233.291 110.184 223.243 103.914 215.076C100.625 210.691 96.1292 207.36 90.9772 205.49C78.3333 200.347 66.7105 192.985 56.6572 183.752C54.2175 181.735 51.1657 180.606 48.0009 180.548C44.836 180.49 41.7452 181.508 39.2336 183.434C41.1702 186.339 43.3918 189.04 45.8663 191.503L70.439 216.082C70.9528 216.578 71.3626 217.171 71.6445 217.828C71.9264 218.484 72.0748 219.19 72.081 219.904C72.0872 220.618 71.9511 221.327 71.6807 221.988C71.4102 222.649 71.0107 223.249 70.5057 223.755C70.0006 224.26 69.4 224.659 68.7389 224.93C68.0778 225.2 67.3694 225.336 66.6552 225.33C65.9409 225.324 65.235 225.175 64.5787 224.893C63.9224 224.611 63.3289 224.202 62.8326 223.688L38.26 199.142C32.5005 193.4 27.8952 186.607 24.6933 179.131L12.6598 151.03C12.2038 149.963 11.4659 149.041 10.5255 148.362C9.58497 147.684 8.47738 147.274 7.3216 147.177C6.16582 147.08 5.00551 147.3 3.96525 147.813C2.92499 148.326 2.04406 149.112 1.41706 150.088C0.233612 151.917 0.0722328 154.214 0.965198 156.194L22.0467 202.574C24.3605 207.666 27.5751 212.299 31.5358 216.248L68.8629 253.581L113.344 253.602ZM64.9306 269.74V302.016C64.9306 303.443 65.4973 304.811 66.5061 305.82C67.515 306.829 68.8832 307.395 70.3099 307.395H118.724C120.15 307.395 121.519 306.829 122.527 305.82C123.536 304.811 124.103 303.443 124.103 302.016V269.74C124.103 268.313 123.536 266.945 122.527 265.936C121.519 264.928 120.15 264.361 118.724 264.361H70.3099C68.8832 264.361 67.515 264.928 66.5061 265.936C65.4973 266.945 64.9306 268.313 64.9306 269.74ZM113.344 291.257H107.965C106.538 291.257 105.17 290.691 104.161 289.682C103.152 288.673 102.586 287.305 102.586 285.878C102.586 284.451 103.152 283.083 104.161 282.074C105.17 281.066 106.538 280.499 107.965 280.499H113.344C114.771 280.499 116.139 281.066 117.148 282.074C118.157 283.083 118.724 284.451 118.724 285.878C118.724 287.305 118.157 288.673 117.148 289.682C116.139 290.691 114.771 291.257 113.344 291.257ZM300.587 150.083C300.015 149.176 299.22 148.431 298.279 147.918C297.337 147.404 296.28 147.141 295.208 147.151C292.653 147.151 290.34 148.673 289.334 151.024L277.306 179.131C274.107 186.617 269.501 193.419 263.739 199.169L239.166 223.715C238.152 224.695 236.793 225.237 235.383 225.225C233.972 225.212 232.623 224.647 231.626 223.649C230.628 222.652 230.063 221.303 230.05 219.892C230.038 218.482 230.58 217.123 231.56 216.108L256.133 191.503C258.617 189.042 260.849 186.339 262.798 183.434C260.282 181.501 257.184 180.481 254.012 180.54C250.84 180.6 247.783 181.736 245.342 183.763C235.289 192.996 223.666 200.357 211.022 205.5C205.879 207.376 201.393 210.709 198.112 215.092C191.836 223.251 188.503 233.293 188.655 243.586V253.602H233.136L270.458 216.275C274.423 212.318 277.64 207.676 279.952 202.574L301.034 156.194C301.959 154.219 301.787 151.906 300.587 150.083ZM177.896 269.74V302.016C177.896 303.443 178.463 304.811 179.472 305.82C180.48 306.829 181.849 307.395 183.275 307.395H231.689C233.116 307.395 234.484 306.829 235.493 305.82C236.502 304.811 237.068 303.443 237.068 302.016V269.74C237.068 268.313 236.502 266.945 235.493 265.936C234.484 264.928 233.116 264.361 231.689 264.361H183.275C181.849 264.361 180.48 264.928 179.472 265.936C178.463 266.945 177.896 268.313 177.896 269.74ZM194.034 291.257H188.655C187.228 291.257 185.86 290.691 184.851 289.682C183.842 288.673 183.275 287.305 183.275 285.878C183.275 284.451 183.842 283.083 184.851 282.074C185.86 281.066 187.228 280.499 188.655 280.499H194.034C195.461 280.499 196.829 281.066 197.838 282.074C198.847 283.083 199.413 284.451 199.413 285.878C199.413 287.305 198.847 288.673 197.838 289.682C196.829 290.691 195.461 291.257 194.034 291.257ZM38.034 75.3104H21.8961C20.4694 75.3104 19.1012 74.7436 18.0923 73.7348C17.0835 72.726 16.5168 71.3577 16.5168 69.9311C16.5168 68.5044 17.0835 67.1361 18.0923 66.1273C19.1012 65.1185 20.4694 64.5517 21.8961 64.5517H38.034C39.4607 64.5517 40.829 65.1185 41.8378 66.1273C42.8466 67.1361 43.4133 68.5044 43.4133 69.9311C43.4133 71.3577 42.8466 72.726 41.8378 73.7348C40.829 74.7436 39.4607 75.3104 38.034 75.3104ZM280.103 75.3104H263.965C262.538 75.3104 261.17 74.7436 260.161 73.7348C259.152 72.726 258.586 71.3577 258.586 69.9311C258.586 68.5044 259.152 67.1361 260.161 66.1273C261.17 65.1185 262.538 64.5517 263.965 64.5517H280.103C281.53 64.5517 282.898 65.1185 283.907 66.1273C284.916 67.1361 285.482 68.5044 285.482 69.9311C285.482 71.3577 284.916 72.726 283.907 73.7348C282.898 74.7436 281.53 75.3104 280.103 75.3104ZM39.196 139.862C38.0118 139.862 36.8608 139.471 35.9214 138.75C34.982 138.03 34.3067 137.019 34.0002 135.875C33.6937 134.731 33.7732 133.518 34.2263 132.424C34.6794 131.33 35.4808 130.416 36.5063 129.824L50.4925 121.755C51.1045 121.397 51.7814 121.162 52.4843 121.066C53.1872 120.97 53.9022 121.014 54.588 121.195C55.2739 121.377 55.9171 121.692 56.4806 122.123C57.0442 122.554 57.5169 123.092 57.8716 123.706C58.2264 124.321 58.4561 124.999 58.5475 125.703C58.6389 126.406 58.5903 127.121 58.4045 127.805C58.2186 128.49 57.8991 129.131 57.4645 129.692C57.0298 130.252 56.4885 130.722 55.8718 131.072L41.8856 139.141C41.0687 139.615 40.1405 139.864 39.196 139.862ZM248.833 18.8276C247.649 18.8276 246.498 18.4368 245.558 17.7159C244.619 16.9951 243.944 15.9844 243.637 14.8406C243.331 13.6968 243.41 12.4839 243.863 11.3899C244.316 10.2959 245.118 9.38193 246.143 8.78981L260.13 0.720847C260.742 0.36206 261.419 0.127872 262.121 0.031767C262.824 -0.0643382 263.539 -0.0204629 264.225 0.160867C264.911 0.342197 265.554 0.6574 266.118 1.08833C266.681 1.51926 267.154 2.0574 267.509 2.67177C267.863 3.28615 268.093 3.96462 268.185 4.66812C268.276 5.37163 268.227 6.08628 268.042 6.77092C267.856 7.45556 267.536 8.09667 267.102 8.65734C266.667 9.21802 266.126 9.68718 265.509 10.0378L251.523 18.1068C250.705 18.579 249.777 18.8276 248.833 18.8276ZM262.803 139.862C261.859 139.864 260.93 139.615 260.113 139.141L246.127 131.072C245.511 130.722 244.969 130.252 244.535 129.692C244.1 129.131 243.78 128.49 243.595 127.805C243.409 127.121 243.36 126.406 243.452 125.703C243.543 124.999 243.773 124.321 244.127 123.706C244.482 123.092 244.955 122.554 245.518 122.123C246.082 121.692 246.725 121.377 247.411 121.195C248.097 121.014 248.812 120.97 249.515 121.066C250.218 121.162 250.895 121.397 251.507 121.755L265.493 129.824C266.518 130.416 267.32 131.33 267.773 132.424C268.226 133.518 268.305 134.731 267.999 135.875C267.692 137.019 267.017 138.03 266.078 138.75C265.138 139.471 263.987 139.862 262.803 139.862ZM53.1606 18.8276C52.2164 18.8276 51.2887 18.579 50.471 18.1068L36.4848 10.0378C35.2593 9.3194 34.3678 8.14545 34.0047 6.77213C33.6416 5.39882 33.8365 3.93764 34.5468 2.70746C35.257 1.47728 36.425 0.577969 37.7959 0.205785C39.1668 -0.166399 40.6292 0.0187569 41.8641 0.720847L55.8503 8.78981C56.8758 9.38193 57.6772 10.2959 58.1303 11.3899C58.5834 12.4839 58.6629 13.6968 58.3564 14.8406C58.0499 15.9844 57.3746 16.9951 56.4352 17.7159C55.4958 18.4368 54.3448 18.8276 53.1606 18.8276ZM186.557 10.7586C187.369 10.7586 188.24 10.8393 189.112 10.9146C188.021 15.9923 185.653 20.7079 182.232 24.6157C176.02 31.6757 172.641 40.7857 172.748 50.189C172.635 59.6231 176.021 68.7646 182.253 75.8483C187.046 81.0858 189.67 87.9481 189.596 95.0471C189.697 102.12 187.074 108.962 182.269 114.154C178.023 119.175 175.047 125.144 173.593 131.556C170.708 130.131 168.01 128.355 165.561 126.269C169.642 119.356 171.727 111.448 171.586 103.423C170.897 85.1316 163.05 67.8434 149.735 55.2832C148.058 53.6336 146.317 52.0491 144.517 50.5333C151.086 26.6599 167.675 10.8017 186.557 10.7586Z" fill="white" fill-opacity="0.15"/>
<path d="M101.364 44.2125C116.857 44.9239 131.469 51.6241 142.118 62.9003C153.341 73.4982 160.036 88.0219 160.806 103.439C160.854 107.671 160.138 111.877 158.691 115.854C153.993 113.069 148.723 111.386 143.28 110.932C137.446 110.629 131.93 108.179 127.794 104.054C123.658 99.9285 121.194 94.4194 120.875 88.5865C120.225 80.448 116.694 72.8081 110.916 67.0399C105.138 61.2717 97.4918 57.7535 89.3522 57.1175C85.3858 56.8502 81.533 55.68 78.0879 53.6963C78.3569 53.4058 78.5505 53.0561 78.8302 52.7764C81.8306 49.9257 85.368 47.7005 89.2367 46.2302C93.1054 44.76 97.2279 44.0741 101.364 44.2125Z" fill="white" fill-opacity="0.15"/>
<path d="M89.0137 115.806C77.7812 105.211 71.0794 90.6837 70.3098 75.262C70.2626 71.0296 70.9806 66.8235 72.4292 62.8465C77.127 65.6297 82.3943 67.3125 87.8356 67.7686C93.6693 68.0733 99.1842 70.5245 103.319 74.6507C107.455 78.777 109.918 84.2866 110.235 90.1196C110.885 98.259 114.417 105.9 120.196 111.668C125.975 117.436 133.623 120.954 141.763 121.589C145.733 121.858 149.585 123.025 153.033 125.004C152.764 125.295 152.565 125.65 152.285 125.93C137.578 140.54 109.191 135.994 89.0137 115.806ZM186.557 134.483C185.68 134.483 184.835 134.424 183.991 134.359C185.073 129.265 187.441 124.533 190.871 120.615C196.995 113.485 200.363 104.398 200.363 94.9987C200.363 85.5998 196.995 76.5119 190.871 69.3824C186.075 64.1488 183.448 57.2874 183.523 50.189C183.422 43.1156 186.045 36.2744 190.849 31.0817C195.148 26.0137 198.147 19.9741 199.585 13.486C218.268 21.2752 231.732 45.3745 231.689 72.6207C231.738 106.688 211.484 134.434 186.557 134.483Z" fill="white" fill-opacity="0.15"/>
</svg>
