<svg width="195" height="315" viewBox="0 0 195 315" fill="none" xmlns="http://www.w3.org/2000/svg">
<g opacity="0.65" clip-path="url(#clip0_1786_6577)">
<path d="M191.873 120.002C191.326 120.851 171.031 128.969 169.822 129.573C168.613 130.181 161.787 137.267 161.125 137.936C160.459 138.6 155.145 148.355 154.602 149.263C154.055 150.171 153.876 157.746 153.632 160.47C153.393 163.199 148.985 172.71 146.87 175.679C144.871 178.489 131.996 198.822 130.159 201.637C130.309 201.11 130.45 200.728 130.561 200.574C131.103 199.816 145.482 177.367 147.473 174.312C149.267 171.562 149.16 171.75 149.677 169.912C149.677 169.912 140.77 166.725 139.706 164.81C138.647 162.895 135.042 160.128 131.859 160.128C131.808 160.128 131.757 160.128 131.701 160.132C131.65 160.128 131.594 160.128 131.543 160.128C128.361 160.128 123.06 163.105 120.727 164.382C118.395 165.658 110.334 175.867 108.848 178.635C108.194 179.847 107.13 180.203 106.054 180.216H106.037C104.777 180.152 103.559 179.702 103.012 179.702C102.987 179.702 102.953 179.706 102.918 179.715C101.645 180.032 95.9341 186.201 93.0422 190.763C92.0725 192.297 91.3933 195.082 90.8935 198.252C89.864 204.755 89.5821 212.865 89.0139 215.012C88.1639 218.203 73.5289 236.925 72.4695 238.84C71.4059 240.755 71.8331 249.152 69.9236 265.534L71.9398 270.8C72.666 274.66 74.2167 281.617 73.3538 284.436C73.2256 284.865 72.9565 285.49 72.5977 286.24C72.6575 286.077 72.713 285.927 72.7515 285.798C73.6101 282.979 71.7989 276.031 71.077 272.166C70.3508 268.306 67.3606 263.628 66.7241 262.626C66.0919 261.627 56.6214 259.584 55.5791 259.22C54.5411 258.855 53.8576 257.176 52.0464 254.721C50.2352 252.267 46.4291 245.635 45.1177 240.682C43.802 235.73 39.7225 228.232 34.7417 223.961C29.7566 219.69 23.2806 219.009 22.7338 218.465C22.1913 217.916 20.2434 201.517 19.8376 200.017C19.4275 198.518 15.0789 193.471 13.8102 191.158C12.5415 188.84 10.7303 186.929 10.9097 183.84C11.0934 180.751 10.0938 179.753 9.5513 178.935C9.00879 178.117 0.854066 165.166 0.670382 164.622C0.490969 164.077 1.17017 159.215 1.44356 158.397C1.71268 157.578 2.03306 153.534 2.30218 153.127C2.57557 152.716 2.89168 147.039 3.16507 146.765C3.43419 146.491 4.20737 141.132 4.38678 140.313C4.57047 139.495 12.0887 130.044 12.8149 130.044C13.5411 130.044 15.7581 132.315 18.2058 134.406C20.6535 136.496 23.9598 141.813 24.639 143.222C24.639 143.222 32.6101 143.719 35.3312 143.492C38.048 143.265 45.5705 139.358 48.2873 137.589C51.0041 135.815 59.3425 127.457 60.4745 124.364C61.6065 121.275 62.965 118.186 63.6014 116.185C64.2337 114.189 61.8329 106.734 61.5596 105.646C61.2904 104.554 57.8901 101.829 55.9892 100.24C54.084 98.6501 52.6829 95.15 51.4142 92.6523C50.1455 90.1504 50.2822 87.3357 50.3719 85.5192C50.4616 83.6984 52.4992 79.9284 53.7252 77.4736C54.9469 75.0231 56.2156 70.0235 57.6637 65.6151C59.1161 61.211 62.6019 56.7127 63.1486 55.4403C63.6912 54.1679 70.7566 49.3054 71.4828 48.8041C72.209 48.3072 80.8165 48.1701 82.6277 48.123C84.4389 48.0801 90.603 45.3982 91.8247 44.8541C93.0464 44.3058 101.338 40.0816 103.286 39.1263C105.234 38.1752 108.903 35.2662 111.167 33.6297C113.435 31.9932 114.884 26.9036 115.067 26.4966C115.247 26.0896 116.806 13.3657 116.626 12.1362L117.968 0.650391C117.968 0.650391 125.746 0.791767 126.169 0.864598C126.597 0.933144 128.079 3.91062 129.424 4.69033C130.766 5.47005 134.23 5.32867 136.563 4.62179C138.899 3.91062 142.009 3.48649 143.141 4.33904C144.269 5.1873 153.039 6.74672 155.512 6.81955C157.985 6.8881 158.694 5.47005 161.168 5.47005C163.641 5.47005 167.955 6.60535 169.301 7.45789C170.642 8.31043 170.715 13.0573 172.129 14.1926C173.543 15.3279 173.047 18.7337 173.047 19.7234C173.047 20.713 170.715 25.327 170.715 25.9654C170.715 26.6037 170.078 30.7165 169.797 32.2759C169.51 33.8353 174.179 38.8007 175.807 38.4451C177.43 38.0895 180.331 33.7668 185.875 27.4948C186.26 27.0621 185.786 30.9478 185.696 33.2227C185.602 35.4933 185.892 48.9712 186.315 54.6948C186.738 60.4227 187.341 62.9375 187.644 63.7215C187.943 64.5098 187.674 67.7529 187.281 69.7836C186.888 71.81 188.592 75.7042 189.365 77.6107C190.134 79.5214 191.493 84.9708 191.493 86.9244C191.493 88.878 194.167 107.403 194.346 109.219C194.53 111.036 192.415 119.154 191.873 120.002Z" fill="#39B54A" fill-opacity="0.6" stroke="white" stroke-width="3" stroke-miterlimit="10"/>
<path d="M171.685 270C171.001 272.498 165.999 278.084 164.901 279.031C163.632 280.119 153.487 279.575 151.492 280.303C149.497 281.027 137.536 295.388 135.362 297.204C133.188 299.021 124.491 301.93 121.411 302.294C118.331 302.658 104.012 298.657 104.012 298.657C104.012 298.657 94.5884 303.022 87.8861 310.836C87.8861 310.836 80.2269 314.199 79.7741 314.332C79.3213 314.469 70.4874 313.968 70.0815 313.788C69.6715 313.608 65.7329 308.883 65.5492 308.519C65.3698 308.155 65.6859 300.023 65.6859 300.023C65.6859 300.023 65.9038 299.659 66.2754 299.038C67.8517 296.373 72.1491 289.022 73.2298 286.25C73.2298 286.25 73.2312 286.247 73.2341 286.241C73.5929 285.491 73.862 284.866 73.9902 284.438C74.8531 281.619 73.3024 274.661 72.5762 270.801L70.56 265.536C72.4694 249.153 72.0423 240.756 73.1059 238.841C74.1653 236.926 88.8002 218.205 89.6503 215.013C90.2185 212.867 90.5004 204.757 91.5299 198.253C92.0297 195.083 92.7089 192.299 93.6786 190.765C96.5705 186.202 102.282 180.033 103.555 179.716C103.589 179.707 103.623 179.703 103.649 179.703C104.196 179.703 105.413 180.153 106.673 180.217H106.69C107.767 180.204 108.83 179.849 109.484 178.636C110.971 175.869 119.031 165.66 121.364 164.383C123.696 163.106 128.997 160.129 132.18 160.129C132.231 160.129 132.286 160.129 132.338 160.133C132.393 160.129 132.444 160.129 132.496 160.129C135.678 160.129 139.284 162.896 140.343 164.811C141.407 166.726 150.313 169.914 150.313 169.914C149.796 171.752 149.903 171.563 148.109 174.314C146.118 177.368 131.74 199.817 131.197 200.575C131.086 200.73 130.945 201.111 130.796 201.638C130.689 201.796 130.62 201.899 130.591 201.942C130.095 202.628 129.1 207.687 128.472 210.326C128.408 210.588 128.352 210.823 128.297 211.029C127.694 213.329 110.355 223.174 109.24 224.113C108.894 224.404 108.386 225.321 107.839 226.486C107.839 226.499 107.831 226.512 107.822 226.525C106.609 229.138 105.216 232.981 105.011 233.957C104.755 235.157 108.736 240.696 110.915 242.449C111.317 242.774 111.658 242.971 111.897 242.984C113.435 243.074 121.953 237.745 122.56 237.835C122.735 237.86 123.218 238.023 123.858 238.246C125.388 238.781 127.81 239.677 129.1 239.955C131.231 240.414 134.64 251.043 134.64 251.043H141.043C141.043 251.043 151.672 255.524 158.199 256.856C164.722 258.189 170.702 267.519 171.667 269.096C171.796 269.306 171.791 269.619 171.685 270Z" fill="#DCE2E2" stroke="white" stroke-width="3" stroke-miterlimit="10"/>
<path d="M131.701 160.133C134.845 160.218 138.348 162.922 139.39 164.807C140.454 166.722 149.36 169.913 149.36 169.913" stroke="white" stroke-width="3" stroke-miterlimit="10"/>
<path d="M106.037 180.218C104.824 180.226 103.59 179.811 102.919 179.716C102.838 179.703 102.761 179.699 102.697 179.699C101.638 179.699 95.6956 186.083 92.7267 190.761C89.7579 195.443 89.5443 211.822 88.6985 215.013C87.8484 218.205 73.2135 236.922 72.1541 238.837C71.0904 240.752 71.304 250.328 69.3945 266.706" stroke="white" stroke-width="3" stroke-miterlimit="10"/>
<path d="M11.4863 179.065C13.8187 178.002 16.3646 176.726 18.9106 178.212C21.4565 179.699 29.9402 181.404 33.1226 178.85C36.3051 176.297 46.6982 162.258 48.6076 161.405C50.5171 160.553 55.8183 159.915 59.2143 164.173C62.6103 168.431 68.9709 172.896 70.8804 172.896C72.7899 172.896 78.5182 172.895 80.8506 170.128C83.183 167.36 85.306 165.45 88.0613 165.235C90.8165 165.021 93.7897 166.298 95.272 170.128C96.7542 173.958 101.637 179.065 101.637 179.065L102.696 179.703" stroke="white" stroke-width="3" stroke-miterlimit="10"/>
<path d="M69.1797 51.2129C71.7256 54.6145 71.9392 60.5737 73.6351 61.6362C75.331 62.6987 81.6958 69.9346 82.7552 73.3362C83.8146 76.7378 87.42 88.2279 87.6335 92.9061C87.8471 97.5844 89.7566 102.267 91.4525 103.115C93.1483 103.964 97.1809 104.392 99.2996 101.414C101.418 98.437 106.301 91.4153 106.301 91.4153C106.301 91.4153 112.452 103.115 114.362 103.754C116.271 104.392 120.513 108.008 122.636 107.584C124.759 107.159 129.21 110.561 129.637 113.967C130.065 117.373 123.063 123.328 119.244 123.328C115.425 123.328 115.853 129.994 118.394 132.119C120.936 134.244 127.305 138.502 128.151 145.168C128.997 151.834 129.142 157.224 131.543 160.129" stroke="white" stroke-width="3" stroke-miterlimit="10"/>
<path d="M113.303 31.4277C116.694 33.9811 122.636 39.7947 123.482 42.2066C124.328 44.6186 126.028 53.551 127.16 56.2458C128.292 58.9405 131.543 72.8382 132.816 74.6804C134.089 76.5226 133.38 80.2112 133.098 84.1826C132.816 88.154 128.715 94.5374 127.865 95.8098C127.015 97.0822 125.178 104.035 125.037 105.453C124.896 106.871 124.755 108.007 124.755 108.007" stroke="white" stroke-width="3" stroke-miterlimit="10"/>
<path d="M170.147 26.0391C167.46 28.7338 166.328 29.1579 166.328 30.1518C166.328 31.1458 163.078 37.3835 161.805 38.236C160.532 39.0886 156.29 41.4962 155.726 42.2074C155.162 42.9186 152.616 50.2916 152.475 50.8571C152.334 51.4226 146.396 57.0991 144.555 58.7999C142.714 60.5007 139.745 65.3246 140.314 66.0315C140.882 66.7384 144.555 75.9579 144.837 77.9457C145.119 79.9336 146.392 87.1652 145.546 88.5832C144.701 90.0013 140.173 86.7411 137.909 86.8824C135.645 87.0238 131.262 89.8599 131.262 89.8599" stroke="white" stroke-width="3" stroke-miterlimit="10"/>
<path d="M72.5762 246.072C74.0627 249.263 77.0316 252.986 77.6681 254.58C78.3046 256.174 80.3208 257.24 81.1666 254.794C82.0124 252.348 82.6532 252.134 82.6532 252.134C82.6532 252.134 86.2585 254.473 87.8519 255.111C89.4452 255.749 90.7139 257.879 91.6708 257.772C92.6277 257.664 94.1099 257.24 95.4897 252.558C96.8695 247.875 97.7153 247.344 99.2018 246.281C100.688 245.219 104.503 243.197 107.792 242.88C111.082 242.563 112.777 241.496 112.777 241.496" stroke="white" stroke-width="3" stroke-miterlimit="10"/>
<path d="M113.197 220.118C111.817 218.735 107.468 215.226 107.362 213.204C107.255 211.182 107.998 208.95 109.694 208.628C111.39 208.307 112.983 210.329 115.209 210.119C117.434 209.909 120.087 209.164 121.36 209.905C122.633 210.646 126.768 210.86 126.768 210.86H127.405" stroke="white" stroke-width="3" stroke-miterlimit="10"/>
<path d="M117.122 168.637C117.759 172.145 118.395 172.677 117.438 173.953C116.481 175.23 115.213 176.4 114.469 176.292C113.726 176.185 113.517 177.886 112.667 178.846C111.817 179.805 111.394 185.332 111.287 186.185C111.18 187.037 107.575 189.269 106.302 189.8C105.029 190.332 103.013 191.501 102.376 192.778C101.74 194.055 100.68 195.438 99.1936 195.224C97.7071 195.01 96.0112 195.117 94.6314 195.755C93.2517 196.394 90.8125 198.309 90.8125 198.309" stroke="white" stroke-width="3" stroke-miterlimit="10"/>
<path d="M124.598 237.109C121.735 239.556 115.956 243.518 116.908 248.304C117.861 253.089 117.652 260.325 118.497 261.173C119.343 262.022 114.572 263.513 111.394 263.727C108.215 263.941 105.136 262.45 104.819 260.959C104.503 259.468 102.91 256.491 104.503 255.535C106.097 254.58 105.14 249.259 103.23 247.983C101.321 246.706 99.625 246.175 99.625 246.175" stroke="white" stroke-width="3" stroke-miterlimit="10"/>
<path d="M145.78 284.364C140.902 280.324 140.24 278.409 136.844 278.619C133.448 278.829 131.329 278.833 130.27 277.766C129.21 276.7 128.997 277.766 127.724 276.49C126.451 275.213 123.482 272.874 121.359 271.173C119.236 269.472 116.48 269.044 116.48 267.557C116.48 266.071 118.497 261.174 118.497 261.174" stroke="white" stroke-width="3" stroke-miterlimit="10"/>
<path d="M119.664 241.248C125.179 241.531 129.703 247.49 130.271 250.039C130.839 252.588 133.949 258.83 135.645 260.394C137.34 261.958 140.027 261.529 140.455 263.513C140.882 265.496 138.759 269.326 137.909 269.896C137.059 270.466 137.199 273.443 136.213 275.286C135.226 277.128 133.244 278.833 133.244 278.833" stroke="white" stroke-width="3" stroke-miterlimit="10"/>
</g>
<defs>
<clipPath id="clip0_1786_6577">
<rect width="195" height="315" fill="white"/>
</clipPath>
</defs>
</svg>
