<svg width="266" height="446" viewBox="0 0 266 446" fill="none" xmlns="http://www.w3.org/2000/svg">
<g clip-path="url(#clip0_1018_5364)">
<path d="M118.66 440.25C127.85 429.57 140.76 423.62 140.76 423.62C140.76 423.62 160.37 429.08 164.59 428.59C168.81 428.09 180.73 424.12 183.71 421.64C186.69 419.16 203.08 399.54 205.81 398.55C208.54 397.56 222.44 398.3 224.18 396.81C225.92 395.32 234.77 385.39 233.45 383.24C232.13 381.09 223.93 368.34 214.99 366.52C206.05 364.7 191.49 358.58 191.49 358.58H182.72C182.72 358.58 178.05 344.06 175.13 343.44C172.62 342.9 166.99 340.67 166.17 340.54C165.35 340.41 153.67 347.7 151.56 347.57C149.45 347.44 141.71 337.18 142.13 335.24C142.55 333.3 146.39 323.07 147.92 321.79C149.45 320.51 173.2 307.06 174.03 303.91C174.86 300.76 176.43 292.53 177.17 291.5C177.91 290.47 197.45 259.68 200.34 255.62C203.24 251.56 209.28 238.57 209.61 234.85C209.94 231.13 210.19 220.78 210.93 219.54C211.67 218.3 218.96 204.97 219.87 204.06C220.78 203.15 230.13 193.47 231.79 192.64C233.45 191.81 261.25 180.72 262 179.56C262.74 178.4 265.64 167.31 265.39 164.83C265.14 162.35 261.48 137.04 261.48 134.37C261.48 131.7 259.62 124.25 258.56 121.65C257.5 119.04 255.17 113.73 255.7 110.95C256.23 108.17 256.61 103.75 256.2 102.67C255.79 101.59 254.96 98.1602 254.38 90.3402C253.8 82.5202 253.41 64.1102 253.53 61.0002C253.65 57.9002 254.34 53.7402 253.78 53.1802C253.22 52.6202 247.82 52.8102 247.01 53.4902C246.2 54.1702 242.42 59.9502 242.17 63.2302L237.64 63.0402C237.64 63.0402 237.7 58.4502 236.27 57.2702C234.84 56.0902 232.05 54.4102 232.05 54.4102C232.05 54.4102 235.22 50.7502 235.59 49.5702C235.96 48.3902 239.5 36.8502 239.62 35.0502C239.74 33.2502 236.33 29.1502 236.08 26.2402C235.83 23.3302 231.3 19.1002 228.82 18.4202C226.34 17.7402 224.85 19.2902 220.88 19.4802C216.91 19.6702 214.3 18.9202 213.06 18.9802C211.82 19.0402 211.45 20.1602 209.77 19.8502C208.09 19.5402 203.87 19.6002 203 18.9202C202.13 18.2402 199.52 16.5602 197.91 16.5602C196.17 15.8802 193.27 14.7002 191.83 15.6302C190.39 16.5602 189.9 16.9302 188.53 16.9302C187.16 16.9302 177.36 16.8702 175.5 16.3702C173.64 15.8702 170.29 15.9402 168.98 15.5602C168.05 13.7002 167.24 12.8902 165.19 12.9502C163.14 13.0102 161.9 12.8902 161.53 11.9602C161.16 11.0302 161.03 9.35018 158.61 9.23018C156.19 9.11018 154.95 8.17018 155.32 7.37018C155.69 6.57018 156.38 4.08018 154.64 4.08018C152.9 4.08018 152.65 4.14018 152.53 3.65018C152.41 3.16018 152.65 0.550178 150.79 0.110178C148.93 -0.329822 148.87 0.540178 148.99 1.41018C149.11 2.28018 148.68 8.18018 149.3 8.92018C149.92 9.66018 149.73 11.2802 149.24 11.6502C148.75 12.0202 149.49 17.1102 149.05 17.6102C148.61 18.1102 148.12 19.2902 148.55 19.8402C148.98 20.3902 150.91 22.2602 150.66 22.7002C150.41 23.1402 150.58 23.7602 150.06 23.6902C149.54 23.6202 149.46 25.3202 149.77 25.7002C150.08 26.0802 156.25 30.8302 156.49 32.5102C156.74 34.1902 156.99 51.2502 156.74 51.8102C156.49 52.3702 154.51 59.3202 151.4 61.5502C148.29 63.7802 143.27 67.7602 140.6 69.0602C137.93 70.3602 126.57 76.1402 124.9 76.8802C123.23 77.6202 114.78 81.2902 112.3 81.3502C109.82 81.4102 98.0197 81.6002 97.0297 82.2802C96.0397 82.9602 86.3497 89.6002 85.6097 91.3402C84.8697 93.0802 80.0897 99.2202 78.0997 105.24C76.1097 111.26 74.3797 118.09 72.6997 121.44C71.0197 124.79 68.2297 129.94 68.1097 132.43C67.9897 134.91 67.7997 138.76 69.5397 142.17C71.2797 145.58 73.1997 150.36 75.8097 152.54C78.4197 154.72 83.0697 158.44 83.4397 159.93C83.8097 161.42 87.0997 171.6 86.2297 174.33C85.3597 177.06 83.4997 181.28 81.9497 185.5C80.3997 189.72 68.9797 201.14 65.2497 203.56C61.5297 205.98 51.2197 211.32 47.4997 211.63C43.7797 211.94 32.8497 211.26 32.8497 211.26C31.9197 209.34 27.3897 202.07 24.0397 199.22C20.6897 196.37 17.6497 193.26 16.6497 193.26C15.6497 193.26 5.34974 206.17 5.10974 207.29C4.85974 208.41 3.80974 215.73 3.42974 216.1C3.04974 216.47 2.61974 224.23 2.24974 224.79C1.87974 225.35 1.43974 230.87 1.06974 231.99C0.699744 233.11 -0.230256 239.75 0.00974432 240.49C0.249744 241.23 11.4297 258.92 12.1797 260.04C12.9297 261.16 14.2897 262.52 14.0397 266.74C13.7897 270.96 16.2697 273.57 18.0097 276.73C19.7497 279.89 25.7097 286.79 26.2697 288.83C26.8297 290.88 29.4997 313.29 30.2397 314.03C30.9797 314.77 39.8597 315.71 46.6897 321.54C53.5197 327.37 59.0997 337.62 60.8997 344.38C62.6997 351.14 67.9097 360.21 70.3997 363.56C72.8897 366.91 73.8097 369.21 75.2397 369.7C76.6697 370.2 89.6397 372.99 90.5097 374.36C91.3797 375.73 95.4797 382.12 96.4697 387.39C97.4597 392.67 99.9497 402.16 98.7697 406.01C97.5897 409.86 88.2197 425.44 88.2197 425.44C88.2197 425.44 87.7897 436.55 88.0297 437.05C88.2697 437.55 93.6797 444 94.2397 444.25C94.7997 444.5 106.9 445.18 107.52 444.99C108.14 444.8 118.63 440.21 118.63 440.21L118.66 440.25Z" fill="#AED0D4"/>
</g>
<defs>
<clipPath id="clip0_1018_5364">
<rect width="265.4" height="445.06" fill="white"/>
</clipPath>
</defs>
</svg>
