<svg width="380" height="455" viewBox="0 0 380 455" fill="none" xmlns="http://www.w3.org/2000/svg">
<g opacity="0.6" clip-path="url(#clip0_719_4868)">
<path d="M377.991 184.422C375.4 188.819 368.816 189.141 365.834 190.586C362.851 192.03 358.77 194.429 356.419 195.306C354.069 196.182 353.121 201.07 352.11 201.715C351.099 202.359 346.461 206.435 343.946 210.677C341.431 214.92 337.982 221.007 337.906 222.129C337.83 223.251 336.49 235.656 336.263 237.178C336.035 238.7 334.62 239.899 334.228 240.621C333.836 241.343 330.614 241.176 329.995 242.065C329.376 242.955 328.82 244.786 329.755 246.308C330.69 247.83 330.627 252.395 329.249 254.548C327.872 256.702 324.573 263.988 323.866 265.355C323.158 266.722 317.901 272.241 317.117 273.273C316.334 274.305 314.843 276.471 314.691 277.361C314.539 278.251 315.55 289.29 311.873 293.61C308.196 297.93 297.201 303.372 295.483 305.538C293.764 307.705 287.951 313.147 288.507 317.867C289.063 322.586 291.717 323.231 293.056 324.276C294.396 325.32 295.483 326.197 299.88 326.12C304.278 326.042 313.529 324.198 316.738 329.885C319.948 335.572 319.645 337.249 322.311 337.571C324.978 337.894 331.878 337.726 333.053 338.216C334.228 338.706 337.678 339.815 340.901 340.46C344.123 341.105 352.982 342.858 354.789 352.388C356.596 361.918 354.321 363.75 348.988 365.671C343.656 367.592 338.158 367.038 335.656 368.947C333.154 370.855 328.756 378.631 327.973 380.475C327.189 382.319 316.283 389.038 312.366 390.315C308.448 391.591 297.694 391.759 292.045 389.593C286.397 387.426 284.122 389.154 281.304 392.056C278.486 394.957 274.404 403.365 263.738 406.241C253.072 409.117 243.026 403.765 242.722 397.511C242.419 391.256 244.681 387.426 245.313 385.505C245.945 383.583 238.451 381.546 235.86 383.738C233.27 385.93 230.414 384.86 227.937 384.692C225.46 384.525 221.618 385.892 220.721 388.496C219.824 391.101 216.879 393.294 218.876 397.098C220.051 399.819 220.721 425.675 220.291 427.48C219.862 429.286 216.109 437.307 211.559 442.388C207.01 447.469 205.177 450.821 203.926 452.627C202.675 454.432 196.925 456.47 192.477 453.478C188.029 450.486 182.279 443.716 178.563 444.619C176.996 444.838 173.546 448.242 172.712 449.635C172.712 449.635 157.396 449.635 156.865 449.106C156.335 448.578 145.366 439.551 144.468 439.022C143.571 438.493 137.518 433.632 135.888 425.249C134.258 416.867 133.221 402.037 133.322 400.812C132.741 398.942 128.406 392.378 127.257 391.424C126.107 390.469 124.021 385.466 123.326 384.486C120.875 380.643 117.943 374.505 117.892 372.106C117.842 369.707 116.376 357.379 115.908 354.387C115.441 351.395 111.991 338.164 110.942 336.346C109.893 334.528 103.044 332.877 101.376 331.381C99.7075 329.885 88.8774 330.904 86.8934 331.858C84.9093 332.813 71.3623 332.387 70.7304 331.588C70.0985 330.788 67.2299 324.804 64.2475 322.457C61.2652 320.11 57.4993 316.59 51.6483 316.641C48.767 316.796 48.034 316.422 48.034 316.422C48.034 316.422 44.3187 309.587 41.7028 307.357C39.0869 305.126 35.321 301.592 32.3892 301.695C29.4574 301.798 27.2585 302.495 25.3882 304.468C23.5179 306.441 18.9053 310.439 17.1235 310.929C15.3417 311.419 6.7231 311.032 4.67587 309.6C2.62865 308.169 2.00943 304.739 1.90833 301.541C1.80723 298.342 4.35994 280.521 4.15775 275.71C3.95555 270.9 2.05998 264.826 1.07428 261.628C0.0885766 258.43 0.0253906 258.211 0.0253906 258.211C0.0253906 258.211 1.83251 256.405 2.84348 252.33C3.85446 248.255 5.66157 235.643 6.68518 233.477C7.7088 231.31 10.173 227.158 11.5884 226.268C13.0038 225.378 14.5708 223.586 15.2785 221.626C15.9861 219.666 17.2372 221.303 18.8042 219.666C20.3712 218.028 21.5086 215.629 22.2163 215.629C22.924 215.629 25.8684 215.307 26.6898 214.469C27.5113 213.63 28.9266 209.903 30.064 208.911C31.2013 207.918 33.3244 205.983 33.1222 205.583C32.92 205.184 30.6958 203.778 30.064 201.947C29.4321 200.116 28.8508 196.698 30.1398 194.983C31.4288 193.268 33.4381 190.895 33.6277 187.697C33.8172 184.499 33.9815 182.693 35.0809 181.894C36.1804 181.094 38.177 181.133 38.6952 180.372C39.2133 179.611 41.3616 177.935 41.7154 177.935C42.0693 177.935 44.1923 177.974 45.0896 177.213C45.9868 176.452 51.5598 172.686 57.2086 172.171C62.8574 171.655 64.6646 172.132 68.342 170.004C72.0194 167.876 74.8122 166.406 76.1012 166.161C77.3902 165.916 78.7677 164.601 79.0836 163.04C79.3995 161.48 78.0221 155.561 77.4787 154.4C76.9353 153.24 76.9353 143.349 77.1627 142.111C77.3902 140.873 80.9665 139.467 81.3583 138.874C81.75 138.281 79.1594 129.666 80.2588 126.907C81.3583 124.147 84.1764 112.695 85.4401 110.452C86.7038 108.208 90.495 105.654 91.2785 104.855C92.062 104.055 91.8724 99.5289 92.6938 98.2523C93.5152 96.9756 106.62 84.3636 106.456 82.6484C106.291 80.9333 100.769 77.5675 101.274 77.0001C101.78 76.4327 112.724 70.1138 113.634 70.1138C114.544 70.1138 117.197 71.4807 118.891 71.9192C120.584 72.3576 126.776 73.5956 128.621 71.8418C130.466 70.088 129.961 66.6835 129.089 65.6776C128.217 64.6718 126.132 63.5112 124.577 63.3564C123.023 63.2017 122.897 61.5123 122.897 60.313C122.897 59.1137 122.657 55.5932 124.502 54.9097C126.347 54.2262 133.6 54.7936 135.054 53.9941C136.507 53.1946 137.872 50.3962 138.933 50.1125C139.995 49.8288 144.19 49.5967 144.936 49.429C145.682 49.2614 144.544 45.5087 143.874 44.6705C143.205 43.8323 140.753 39.9894 140.273 38.8674C139.793 37.7455 141.398 36.6623 142.535 37.0233C143.672 37.3844 148.108 37.8487 149.157 37.3586C150.206 36.8686 153.074 31.2718 154.136 29.6599C155.197 28.0479 159.582 19.8204 159.747 17.8087C159.911 15.797 162.059 6.67968 162.021 4.64216C161.983 2.60463 159.431 1.04425 159.153 0.554211C158.875 0.0641731 159.962 -0.43876 162.527 0.554211C165.092 1.54718 169.225 3.82973 170.867 3.97158C172.51 4.11343 175.467 4.10054 176.643 5.22247C177.818 6.34439 180.699 11.464 181.685 12.6117C182.671 13.7594 185.324 16.6352 187.536 16.7512C189.747 16.8673 205.999 16.8802 206.34 16.906C206.681 16.9318 206.264 22.6446 205.165 24.8627C204.065 27.0807 202.966 39.783 206.264 43.6775C209.562 47.572 214.162 54.9355 215.856 55.2063C217.549 55.4771 224.967 55.2579 227.052 54.1875C227.987 53.7104 243.392 46.2954 244.201 46.1277C245.01 45.9601 258.266 43.1617 262.272 43.0843C266.278 43.007 273.254 42.4395 277.879 44.851C282.504 47.2625 289.594 53.3106 290.352 55.0903C291.11 56.8699 291.477 72.0352 298.377 75.0786C305.276 78.122 304.657 66.748 307.475 66.5932C310.293 66.4385 319.392 67.3928 321.123 67.238C322.855 67.0833 325.205 64.0399 328.339 64.3623C331.473 64.6847 331.954 67.5604 336.023 68.6824C340.092 69.8043 349.355 66.7609 352.489 68.8371C355.623 70.9133 359.237 77.0001 358.921 81.8102C358.605 86.6203 352.957 95.5828 352.337 97.1819C351.718 98.781 352.805 98.781 355.787 99.1034C358.77 99.4258 361.12 102.946 362.536 103.423C363.951 103.901 371.002 102.946 371.483 105.023C371.963 107.099 371.95 124.547 372.582 126.468C373.214 128.39 373.366 141.04 376.664 146.637C379.962 152.234 381.302 173.628 378.433 181.185C378.863 183.132 377.991 184.422 377.991 184.422Z" fill="url(#paint0_linear_719_4868)"/>
</g>
<defs>
<linearGradient id="paint0_linear_719_4868" x1="190.015" y1="-0.0170898" x2="190.015" y2="455" gradientUnits="userSpaceOnUse">
<stop stop-color="#87BCC1"/>
<stop offset="1" stop-color="#87BCC1" stop-opacity="0.3"/>
</linearGradient>
<clipPath id="clip0_719_4868">
<rect width="380" height="455" fill="white"/>
</clipPath>
</defs>
</svg>
