<?xml version="1.0" encoding="UTF-8"?>
<svg id="Layer_1" data-name="Layer 1" xmlns="http://www.w3.org/2000/svg" viewBox="0 0 595.86 156.08">
  <defs>
    <style>
      .cls-1 {
        fill: #207f76;
      }

      .cls-2 {
        letter-spacing: 0em;
      }

      .cls-3 {
        font-family: DMSerifDisplay-Regular, 'DM Serif Display';
        font-size: 91.25px;
      }

      .cls-3, .cls-4 {
        fill: #0f1426;
      }

      .cls-5 {
        letter-spacing: 0em;
      }

      .cls-6 {
        letter-spacing: -.01em;
      }

      .cls-4 {
        font-family: Raleway-SemiBold, Raleway;
        font-size: 21.91px;
        font-weight: 600;
        letter-spacing: .98em;
      }

      .cls-7 {
        letter-spacing: 0em;
      }

      .cls-8 {
        fill: #4ba396;
      }

      .cls-9 {
        fill: #04514b;
      }

      .cls-10 {
        fill: #0f726b;
      }
    </style>
  </defs>
  <path class="cls-8" d="M150.82,122.51c-9.49,10.56-23.11,17.76-37.33,19.23-35.84,3.4-71.56-26.33-72.28-62.95-1.06-30.53,19.04-57.92,48.52-65.8,19.95-5.23,42.2-.15,57.21,14.08-19.72-11.3-44.01-12.36-63.53-.98-17.99,10.34-29.28,29.64-29.29,50.29-.45,31.16,28.69,57.14,59.07,58.16,13.34,.27,26.15-4.28,37.63-12.03h0Z"/>
  <path class="cls-8" d="M79.98,40.63c8.34-9.94,21.4-16.36,34.55-16.03,18.78,.27,37.03,11.41,46.01,27.91,14.89,27.24,1.52,61.95-27.38,72.79-16.91,6.45-37.42,2.75-50.17-10.26,23.72,12.86,53.6,5.73,66.03-18.58,2.81-5.69,4.51-12.02,4.64-18.38,0,0,.07-1.47,.07-1.47l-.1-1.46c-.02-1.73-.24-4.11-.59-5.79-2.86-16.92-16.95-30.34-33.14-35.4-13.59-4.29-27.7-1.11-39.93,6.67h0Z"/>
  <path class="cls-8" d="M88.01,53.98c-9.8,2.79-14.69,15.73-10.94,28.9,3.75,13.17,14.73,21.59,24.53,18.8l4.53-13.21-3.39-12.91-14.73-21.59h0Z"/>
  <path class="cls-1" d="M112.54,72.78c3.75,13.17-1.15,26.11-10.94,28.9,.7-27.71-16.07-25.31-13.59-47.7,9.8-2.79,20.78,5.63,24.53,18.8Z"/>
  <path class="cls-10" d="M121.96,88.23l-.18,.05s.11-.07,.16-.11c.01,.02,.01,.04,.02,.06Z"/>
  <path class="cls-10" d="M132.98,53.13l-8.81,22.04-6.55,7.42c.15-2.62-.04-5.36-.62-8.14-.16-.8-.36-1.61-.59-2.41-1.72-6.04-4.97-11.08-8.92-14.5,7.96-7.89,18.95-9.94,25.49-4.41Z"/>
  <path class="cls-9" d="M122.02,88.47c-.08-.06-.16-.12-.24-.19,.05-.03,.11-.07,.16-.11,.01,.02,.01,.04,.02,.06,.02,.08,.04,.16,.06,.24Z"/>
  <path class="cls-9" d="M131.23,81.14c-4.34,5.13-9.91,8.33-15.22,9.23,.91-2.36,1.45-5,1.61-7.78,.15-2.62-.04-5.36-.62-8.14,4.43-7.98,4.03-15.08,15.98-21.32,7.07,5.97,6.28,18.51-1.75,28.01Z"/>
  <text class="cls-3" transform="translate(178.66 99.12)"><tspan x="0" y="0">a</tspan><tspan class="cls-6" x="47.27" y="0">l</tspan><tspan class="cls-5" x="72.09" y="0">p</tspan><tspan class="cls-7" x="124.46" y="0">h</tspan><tspan x="176.84" y="0">a</tspan><tspan class="cls-2" x="224.11" y="0">b</tspan><tspan x="277.67" y="0">et</tspan></text>
  <text class="cls-4" transform="translate(284.34 120.11)"><tspan x="0" y="0">TRADING</tspan></text>
</svg>