<svg width="41" height="40" viewBox="0 0 41 40" fill="none" xmlns="http://www.w3.org/2000/svg">
<g clip-path="url(#clip0_271_268)">
<path d="M40.9004 20C40.9004 8.95455 31.9458 0 20.9004 0C9.85494 0 0.900391 8.95455 0.900391 20C0.900391 31.0455 9.85494 40 20.9004 40C31.9458 40 40.9004 31.0455 40.9004 20ZM2.71857 20C2.71857 9.95818 10.8586 1.81818 20.9004 1.81818C30.9422 1.81818 39.0822 9.95818 39.0822 20C39.0822 30.0418 30.9422 38.1818 20.9004 38.1818C10.8586 38.1818 2.71857 30.0418 2.71857 20Z" fill="#086965"/>
<path d="M21.6675 31.5437V20H25.4766L26.0784 16.1746H21.6675V14.2564C21.6675 13.2582 21.9948 12.3055 23.4275 12.3055H26.2911V8.4873H22.2257C18.8075 8.4873 17.8748 10.7382 17.8748 13.8582V16.1728H15.5293V20H17.8748V31.5437H21.6675Z" fill="#086965"/>
</g>
<defs>
<clipPath id="clip0_271_268">
<rect width="40" height="40" fill="white" transform="translate(0.900391)"/>
</clipPath>
</defs>
</svg>
