<svg width="44" height="44" viewBox="0 0 44 44" fill="none" xmlns="http://www.w3.org/2000/svg">
<path d="M21.9996 35.5933C14.5042 35.5933 8.40625 29.4953 8.40625 21.9999C8.40625 14.5045 14.5042 8.40654 21.9996 8.40654C29.495 8.40654 35.593 14.5045 35.593 21.9999C35.593 29.4953 29.495 35.5933 21.9996 35.5933Z" stroke="#2A93DF" stroke-width="2" stroke-miterlimit="10" stroke-linecap="round" stroke-linejoin="round"/>
<path d="M22.0001 27.751C18.8289 27.751 16.249 25.1711 16.249 21.9999C16.249 18.8288 18.8289 16.2489 22.0001 16.2489C25.1712 16.2489 27.7511 18.8288 27.7511 21.9999C27.7511 25.1711 25.1712 27.751 22.0001 27.751Z" stroke="#2A93DF" stroke-width="2" stroke-miterlimit="10" stroke-linecap="round" stroke-linejoin="round"/>
<path d="M22 22L31.612 12.388" stroke="#2A93DF" stroke-width="2" stroke-miterlimit="10" stroke-linecap="round" stroke-linejoin="round"/>
<path d="M42.2714 7.27403L36.726 12.8193L31.6119 12.388L31.1807 7.27403L36.726 1.72863L37.1573 6.8427L42.2714 7.27403Z" stroke="#2A93DF" stroke-width="2" stroke-miterlimit="10" stroke-linecap="round" stroke-linejoin="round"/>
<path d="M39.3616 10.1838L36.726 12.8193L31.6119 12.3881L31.1807 7.27403L33.8162 4.6384C30.4498 2.34287 26.3819 0.999999 22 0.999999C10.402 0.999999 1 10.4021 1 22C1 33.598 10.402 43 22 43C33.5979 43 43 33.598 43 22C43 17.6181 41.6571 13.5502 39.3616 10.1838Z" stroke="#2A93DF" stroke-width="2" stroke-miterlimit="10" stroke-linecap="round" stroke-linejoin="round"/>
</svg>
