<svg width="30" height="30" viewBox="0 0 30 30" fill="none" xmlns="http://www.w3.org/2000/svg">
<path fill-rule="evenodd" clip-rule="evenodd" d="M15 30C23.2843 30 30 23.2843 30 15C30 6.71573 23.2843 0 15 0C6.71573 0 0 6.71573 0 15C0 23.2843 6.71573 30 15 30ZM11.75 7H19.25C21.3123 7 23 8.68695 23 10.75V18.25C23 20.3123 21.3123 22 19.25 22H11.75C9.68768 22 8 20.3123 8 18.25V10.75C8 8.68695 9.68768 7 11.75 7ZM12.3749 14.5C12.3749 16.2254 13.7739 17.6249 15.5 17.6249C17.2254 17.6249 18.6251 16.2254 18.6251 14.5C18.6251 12.7739 17.2254 11.3749 15.5 11.3749C13.7739 11.3749 12.3749 12.7739 12.3749 14.5ZM18.6251 10.4374C18.6251 10.9551 19.0443 11.3749 19.5626 11.3749C20.0808 11.3749 20.5001 10.9551 20.5001 10.4374C20.5001 9.91976 20.0808 9.49994 19.5626 9.49994C19.0443 9.49994 18.6251 9.91976 18.6251 10.4374Z" fill="#086965"/>
</svg>
