<svg width="32" height="32" viewBox="0 0 32 32" fill="none" xmlns="http://www.w3.org/2000/svg">
<path d="M27.5257 0H4.47427C3.28864 0.00330591 2.15251 0.475763 1.31414 1.31414C0.475763 2.15251 0.00330591 3.28864 0 4.47427V27.5257C0.00330591 28.7114 0.475763 29.8475 1.31414 30.6859C2.15251 31.5242 3.28864 31.9967 4.47427 32H27.5257C28.7124 32 29.8504 31.5286 30.6895 30.6895C31.5286 29.8504 32 28.7124 32 27.5257V4.47427C32 3.28762 31.5286 2.14957 30.6895 1.31048C29.8504 0.471395 28.7124 0 27.5257 0V0ZM30.2103 27.5257C30.2051 28.2361 29.9206 28.916 29.4183 29.4183C28.916 29.9206 28.2361 30.2051 27.5257 30.2103H4.47427C3.76387 30.2051 3.08404 29.9206 2.58169 29.4183C2.07935 28.916 1.79486 28.2361 1.78971 27.5257V4.47427C1.79486 3.76387 2.07935 3.08404 2.58169 2.58169C3.08404 2.07935 3.76387 1.79486 4.47427 1.78971H27.5257C28.2361 1.79486 28.916 2.07935 29.4183 2.58169C29.9206 3.08404 30.2051 3.76387 30.2103 4.47427V27.5257Z" fill="#086965"/>
<path d="M5.93457 13.7594C5.93457 13.2848 6.12313 12.8296 6.45876 12.4939C6.7944 12.1583 7.24962 11.9697 7.72428 11.9697C8.19894 11.9697 8.65416 12.1583 8.9898 12.4939C9.32543 12.8296 9.51399 13.2848 9.51399 13.7594V25.3925C9.51399 25.8672 9.32543 26.3224 8.9898 26.6581C8.65416 26.9937 8.19894 27.1823 7.72428 27.1823C7.24962 27.1823 6.7944 26.9937 6.45876 26.6581C6.12313 26.3224 5.93457 25.8672 5.93457 25.3925V13.7594Z" fill="#086965"/>
<path d="M7.72428 8.38313C8.71271 8.38313 9.51399 7.58185 9.51399 6.59342C9.51399 5.60499 8.71271 4.80371 7.72428 4.80371C6.73585 4.80371 5.93457 5.60499 5.93457 6.59342C5.93457 7.58185 6.73585 8.38313 7.72428 8.38313Z" fill="#086965"/>
<path d="M26.0582 18.4518V25.3959C26.0582 25.8705 25.8697 26.3257 25.5341 26.6614C25.1984 26.997 24.7432 27.1856 24.2685 27.1856C23.7939 27.1856 23.3387 26.997 23.003 26.6614C22.6674 26.3257 22.4788 25.8705 22.4788 25.3959V18.4518C22.4788 17.6852 22.1743 16.95 21.6323 16.408C21.0902 15.8659 20.355 15.5614 19.5884 15.5614C18.8219 15.5614 18.0867 15.8659 17.5446 16.408C17.0026 16.95 16.6981 17.6852 16.6981 18.4518V25.3959C16.6981 25.8705 16.5095 26.3257 16.1739 26.6614C15.8382 26.997 15.383 27.1856 14.9084 27.1856C14.4337 27.1856 13.9785 26.997 13.6428 26.6614C13.3072 26.3257 13.1187 25.8705 13.1187 25.3959V13.7628C13.126 13.2904 13.317 12.8395 13.651 12.5054C13.9851 12.1714 14.436 11.9804 14.9084 11.973C15.2115 11.9647 15.5112 12.0385 15.7759 12.1866C16.0405 12.3347 16.2602 12.5515 16.4117 12.8142C17.3957 12.2559 18.5091 11.9658 19.6405 11.973C20.7718 11.9803 21.8815 12.2845 22.8583 12.8554C23.8351 13.4263 24.6448 14.2437 25.2064 15.2258C25.768 16.208 26.0617 17.3204 26.0582 18.4518V18.4518Z" fill="#086965"/>
</svg>
