<svg width="32" height="32" viewBox="0 0 32 32" fill="none" xmlns="http://www.w3.org/2000/svg">
<path d="M27.5257 0H4.47427C3.28864 0.00330591 2.15251 0.475763 1.31414 1.31414C0.475763 2.15251 0.00330591 3.28864 0 4.47427V27.5257C0.00330591 28.7114 0.475763 29.8475 1.31414 30.6859C2.15251 31.5242 3.28864 31.9967 4.47427 32H27.5257C28.7124 32 29.8504 31.5286 30.6895 30.6895C31.5286 29.8504 32 28.7124 32 27.5257V4.47427C32 3.28762 31.5286 2.14957 30.6895 1.31048C29.8504 0.471395 28.7124 0 27.5257 0V0ZM30.2103 27.5257C30.2051 28.2361 29.9206 28.916 29.4183 29.4183C28.916 29.9206 28.2361 30.2051 27.5257 30.2103H4.47427C3.76387 30.2051 3.08404 29.9206 2.58169 29.4183C2.07935 28.916 1.79486 28.2361 1.78971 27.5257V4.47427C1.79486 3.76387 2.07935 3.08404 2.58169 2.58169C3.08404 2.07935 3.76387 1.79486 4.47427 1.78971H27.5257C28.2361 1.79486 28.916 2.07935 29.4183 2.58169C29.9206 3.08404 30.2051 3.76387 30.2103 4.47427V27.5257Z" fill="#086965"/>
<path d="M5.93457 13.7594C5.93457 13.2848 6.12313 12.8296 6.45876 12.4939C6.7944 12.1583 7.24962 11.9697 7.72428 11.9697C8.19894 11.9697 8.65416 12.1583 8.9898 12.4939C9.32543 12.8296 9.51399 13.2848 9.51399 13.7594V25.3925C9.51399 25.8672 9.32543 26.3224 8.9898 26.6581C8.65416 26.9937 8.19894 27.1823 7.72428 27.1823C7.24962 27.1823 6.7944 26.9937 6.45876 26.6581C6.12313 26.3224 5.93457 25.8672 5.93457 25.3925V13.7594Z" fill="#086965"/>
<path d="M7.72428 8.38313C8.71271 8.38313 9.51399 7.58185 9.51399 6.59342C9.51399 5.60499 8.71271 4.80371 7.72428 4.80371C6.73585 4.80371 5.93457 5.60499 5.93457 6.59342C5.93457 7.58185 6.73585 8.38313 7.72428 8.38313Z" fill="#086965"/>
<path d="M26.0578 18.452V25.3961C26.0578 25.8708 25.8692 26.326 25.5336 26.6616C25.1979 26.9973 24.7427 27.1858 24.2681 27.1858C23.7934 27.1858 23.3382 26.9973 23.0025 26.6616C22.6669 26.326 22.4783 25.8708 22.4783 25.3961V18.452C22.4783 17.6855 22.1738 16.9503 21.6318 16.4082C21.0897 15.8662 20.3545 15.5617 19.588 15.5617C18.8214 15.5617 18.0862 15.8662 17.5442 16.4082C17.0021 16.9503 16.6976 17.6855 16.6976 18.452V25.3961C16.6976 25.8708 16.509 26.326 16.1734 26.6616C15.8378 26.9973 15.3825 27.1858 14.9079 27.1858C14.4332 27.1858 13.978 26.9973 13.6424 26.6616C13.3067 26.326 13.1182 25.8708 13.1182 25.3961V13.763C13.1255 13.2906 13.3165 12.8397 13.6505 12.5056C13.9846 12.1716 14.4355 11.9807 14.9079 11.9733C15.211 11.965 15.5107 12.0388 15.7754 12.1868C16.04 12.3349 16.2597 12.5518 16.4112 12.8145C17.3952 12.2561 18.5087 11.9661 19.64 11.9733C20.7714 11.9805 21.881 12.2848 22.8578 12.8556C23.8346 13.4265 24.6443 14.2439 25.2059 15.2261C25.7675 16.2082 26.0612 17.3207 26.0578 18.452V18.452Z" fill="#086965"/>
</svg>
