<svg width="30" height="30" viewBox="0 0 30 30" fill="none" xmlns="http://www.w3.org/2000/svg">
<path d="M25.6333 0H4.16667C3.06254 0.00307863 2.00452 0.443054 1.22379 1.22379C0.443054 2.00452 0.00307863 3.06254 0 4.16667V25.6333C0.00307863 26.7375 0.443054 27.7955 1.22379 28.5762C2.00452 29.3569 3.06254 29.7969 4.16667 29.8H25.6333C26.7384 29.8 27.7982 29.361 28.5796 28.5796C29.361 27.7982 29.8 26.7384 29.8 25.6333V4.16667C29.8 3.0616 29.361 2.00179 28.5796 1.22039C27.7982 0.438987 26.7384 0 25.6333 0ZM28.1333 25.6333C28.1285 26.2949 27.8636 26.928 27.3958 27.3958C26.928 27.8636 26.2949 28.1285 25.6333 28.1333H4.16667C3.50511 28.1285 2.87201 27.8636 2.4042 27.3958C1.9364 26.928 1.67147 26.2949 1.66667 25.6333V4.16667C1.67147 3.50511 1.9364 2.87201 2.4042 2.4042C2.87201 1.9364 3.50511 1.67147 4.16667 1.66667H25.6333C26.2949 1.67147 26.928 1.9364 27.3958 2.4042C27.8636 2.87201 28.1285 3.50511 28.1333 4.16667V25.6333Z" fill="#086965"/>
<path d="M5.52637 12.8132C5.52637 12.3711 5.70196 11.9472 6.01452 11.6346C6.32708 11.3221 6.75101 11.1465 7.19303 11.1465C7.63506 11.1465 8.05898 11.3221 8.37155 11.6346C8.68411 11.9472 8.8597 12.3711 8.8597 12.8132V23.6465C8.8597 24.0885 8.68411 24.5124 8.37155 24.825C8.05898 25.1376 7.63506 25.3131 7.19303 25.3131C6.75101 25.3131 6.32708 25.1376 6.01452 24.825C5.70196 24.5124 5.52637 24.0885 5.52637 23.6465V12.8132Z" fill="#086965"/>
<path d="M7.19303 7.80648C8.11351 7.80648 8.8597 7.06029 8.8597 6.13981C8.8597 5.21934 8.11351 4.47314 7.19303 4.47314C6.27256 4.47314 5.52637 5.21934 5.52637 6.13981C5.52637 7.06029 6.27256 7.80648 7.19303 7.80648Z" fill="#086965"/>
<path d="M24.2668 17.1833V23.65C24.2668 24.092 24.0912 24.516 23.7786 24.8285C23.4661 25.1411 23.0422 25.3167 22.6001 25.3167C22.1581 25.3167 21.7342 25.1411 21.4216 24.8285C21.1091 24.516 20.9335 24.092 20.9335 23.65V17.1833C20.9335 16.4695 20.6499 15.7848 20.1451 15.28C19.6403 14.7753 18.9557 14.4917 18.2418 14.4917C17.5279 14.4917 16.8433 14.7753 16.3385 15.28C15.8337 15.7848 15.5501 16.4695 15.5501 17.1833V23.65C15.5501 24.092 15.3745 24.516 15.062 24.8285C14.7494 25.1411 14.3255 25.3167 13.8835 25.3167C13.4414 25.3167 13.0175 25.1411 12.705 24.8285C12.3924 24.516 12.2168 24.092 12.2168 23.65V12.8167C12.2237 12.3768 12.4015 11.9568 12.7126 11.6458C13.0236 11.3347 13.4436 11.1569 13.8835 11.15C14.1658 11.1423 14.4449 11.211 14.6913 11.3489C14.9378 11.4868 15.1424 11.6887 15.2835 11.9333C16.1998 11.4134 17.2367 11.1433 18.2903 11.15C19.3438 11.1567 20.3772 11.4401 21.2868 11.9717C22.1964 12.5033 22.9505 13.2645 23.4735 14.1792C23.9965 15.0938 24.27 16.1297 24.2668 17.1833Z" fill="#086965"/>
</svg>
