<svg width="30" height="30" viewBox="0 0 30 30" fill="none" xmlns="http://www.w3.org/2000/svg">
<path d="M15 0C6.71701 0 0 6.71701 0 15C0 23.283 6.71701 30 15 30C23.283 30 30 23.283 30 15C30 6.71701 23.283 0 15 0ZM10.6412 22.6758H6.98801V11.6851H10.6412L10.6412 22.6758ZM8.81467 10.1843H8.79088C7.56498 10.1843 6.77215 9.34043 6.77215 8.28574C6.77215 7.20727 7.58924 6.38672 8.83898 6.38672C10.0887 6.38672 10.8577 7.20727 10.8815 8.28574C10.8815 9.34043 10.0887 10.1844 8.81467 10.1844V10.1843ZM23.8138 22.6758H20.1611V16.796C20.1611 15.3184 19.6322 14.3106 18.3104 14.3106C17.3012 14.3106 16.7002 14.9904 16.4361 15.6466C16.3395 15.8814 16.3159 16.2097 16.3159 16.5381V22.6758H12.6629C12.6629 22.6758 12.7108 12.7162 12.6629 11.6851H16.3159V13.2412C16.8013 12.4924 17.67 11.4272 19.6082 11.4272C22.0117 11.4272 23.8138 12.998 23.8138 16.3737V22.6758Z" fill="#086965"/>
</svg>
