<svg width="52" height="75" viewBox="0 0 52 75" fill="none" xmlns="http://www.w3.org/2000/svg">
<path d="M50.3587 69.0829L38.9546 35.9043H12.7693L1.36521 69.0829C1.02947 70.0596 1.9179 71.0163 2.91677 70.7538L9.59852 68.9982L13.7889 74.4907C14.4154 75.3118 15.7041 75.1034 16.0399 74.1266L25.862 45.5506L35.684 74.1268C36.0198 75.1034 37.3085 75.312 37.9351 74.4908L42.1254 68.9984L48.8071 70.754C49.806 71.0162 50.6944 70.0596 50.3587 69.0829Z" fill="#FF6464"/>
<path d="M43.2417 48.3769L38.9547 35.9043H12.7694L8.48242 48.3769C12.5563 51.5263 17.5038 53.5992 22.904 54.1571L25.8621 45.5506L28.8202 54.157C34.2203 53.599 39.1678 51.5261 43.2417 48.3769Z" fill="#D2555A"/>
<path d="M25.8621 51.7243C40.1454 51.7243 51.7243 40.1454 51.7243 25.8621C51.7243 11.5789 40.1454 0 25.8621 0C11.5789 0 0 11.5789 0 25.8621C0 40.1454 11.5789 51.7243 25.8621 51.7243Z" fill="#FFC36E"/>
<path d="M25.8621 0C11.5789 0 0 11.5787 0 25.8621C0 40.1452 11.5787 51.7243 25.8621 51.7243C40.1455 51.7243 51.7243 40.1452 51.7243 25.8621C51.7243 11.5787 40.1454 0 25.8621 0ZM25.8621 47.8449C13.7213 47.8449 3.87935 38.0029 3.87935 25.8621C3.87935 13.7213 13.7213 3.87935 25.8621 3.87935C38.0029 3.87935 47.8449 13.7213 47.8449 25.8621C47.8449 38.0029 38.0029 47.8449 25.8621 47.8449Z" fill="#FFD782"/>
<path d="M25.8617 3.87939C13.7209 3.87939 3.87891 13.7214 3.87891 25.8622C3.87891 38.003 13.7209 47.8449 25.8617 47.8449C38.0025 47.8449 47.8445 38.003 47.8445 25.8622C47.8445 13.7214 38.0025 3.87939 25.8617 3.87939ZM25.8617 45.2588C15.1493 45.2588 6.46509 36.5746 6.46509 25.8622C6.46509 15.1498 15.1493 6.46558 25.8617 6.46558C36.5741 6.46558 45.2583 15.1498 45.2583 25.8622C45.2583 36.5746 36.5741 45.2588 25.8617 45.2588Z" fill="#EBB45F"/>
<path d="M25.9511 33.9788L19.5739 37.3315C18.5182 37.8866 17.2845 36.9902 17.486 35.8145L18.7039 28.7134L13.5446 23.6843C12.6904 22.8518 13.1618 21.4013 14.342 21.2298L21.4719 20.1937L24.6605 13.7329C25.1885 12.6633 26.7135 12.6633 27.2413 13.7329L30.43 20.1937L37.5598 21.2298C38.74 21.4013 39.2114 22.8518 38.3573 23.6843L33.1979 28.7134L34.4158 35.8145C34.6174 36.9901 33.3835 37.8864 32.328 37.3315L25.9511 33.9788Z" fill="#FFD782"/>
<path d="M25.9508 12.9309C26.4639 12.9309 26.9772 13.1982 27.2412 13.7331L30.4298 20.1939L37.5597 21.23C38.7399 21.4015 39.2113 22.852 38.3571 23.6845L33.198 28.7136L34.4158 35.8147C34.5754 36.7447 33.8362 37.5002 32.9977 37.5002C32.764 37.4995 32.534 37.4417 32.3278 37.3317L25.9508 33.979L19.5737 37.3317C19.3675 37.4417 19.1376 37.4995 18.9039 37.5002C18.0652 37.5002 17.3262 36.7449 17.4857 35.8147L18.7036 28.7136L13.5444 23.6845C12.6903 22.852 13.1617 21.4015 14.3419 21.23L21.4717 20.1939L24.6604 13.7331C24.9242 13.1982 25.4375 12.9309 25.9508 12.9309ZM25.9508 10.3447C24.4074 10.3447 23.0243 11.2044 22.3413 12.5886L19.7544 17.8302L13.97 18.6708C12.4427 18.8927 11.1976 19.9424 10.7205 21.4102C10.2436 22.8779 10.6339 24.4591 11.7392 25.5365L15.9248 29.6164L14.9368 35.3775C14.7355 36.5505 15.0581 37.7422 15.8211 38.6476C16.5919 39.5619 17.7157 40.0863 18.9039 40.0863C19.5502 40.0863 20.1979 39.9254 20.7773 39.6208L25.9509 36.9007L31.1246 39.6208C31.704 39.9254 32.3517 40.0863 32.998 40.0863C34.1861 40.0863 35.3098 39.5618 36.0808 38.6474C36.8438 37.7423 37.1664 36.5504 36.9651 35.3775L35.9771 29.6164L40.1627 25.5365C41.2679 24.4592 41.6582 22.8781 41.1814 21.4102C40.7044 19.9424 39.4593 18.8927 37.9319 18.6708L32.1475 17.8302L29.5606 12.5886C28.8773 11.2044 27.494 10.3447 25.9508 10.3447Z" fill="#EBB45F"/>
<path d="M37.5588 21.2301L30.429 20.194L27.2403 13.7331C26.7124 12.6635 25.1874 12.6635 24.6596 13.7331L22.6123 17.8816L33.9367 37.133C34.2914 36.8242 34.5074 36.353 34.4151 35.8146L33.1973 28.7135L38.3565 23.6844C39.2103 22.8519 38.7392 21.4016 37.5588 21.2301Z" fill="#FFE6A0"/>
<path d="M41.253 12.3823C39.0212 11.8734 37.2641 10.1165 36.7552 7.88433C36.7491 7.84906 36.7308 7.81707 36.7034 7.79401C36.6761 7.77095 36.6414 7.7583 36.6057 7.7583C36.5699 7.7583 36.5352 7.77095 36.5079 7.79401C36.4805 7.81707 36.4622 7.84906 36.4561 7.88433C35.9472 10.1162 34.1903 11.8732 31.9583 12.3823C31.923 12.3883 31.891 12.4067 31.868 12.4341C31.8449 12.4614 31.8323 12.4961 31.8323 12.5318C31.8323 12.5676 31.8449 12.6023 31.868 12.6296C31.891 12.657 31.923 12.6753 31.9583 12.6814C34.1901 13.1903 35.9472 14.9471 36.4561 17.1792C36.4622 17.2145 36.4805 17.2465 36.5079 17.2695C36.5352 17.2926 36.5699 17.3052 36.6057 17.3052C36.6414 17.3052 36.6761 17.2926 36.7034 17.2695C36.7308 17.2465 36.7491 17.2145 36.7552 17.1792C37.2641 14.9471 39.021 13.1903 41.253 12.6814C41.2883 12.6753 41.3203 12.657 41.3433 12.6296C41.3664 12.6023 41.3791 12.5676 41.3791 12.5318C41.3791 12.4961 41.3664 12.4614 41.3433 12.4341C41.3203 12.4067 41.2883 12.3883 41.253 12.3823ZM33.5182 19.6929C32.1597 19.341 31.0899 18.2712 30.7381 16.9128C30.7026 16.7764 30.5261 16.7764 30.4908 16.9128C30.139 18.2712 29.0692 19.341 27.7107 19.6929C27.5743 19.7283 27.5743 19.9048 27.7107 19.9401C29.0692 20.292 30.139 21.3616 30.4908 22.7203C30.5263 22.8566 30.7028 22.8566 30.7381 22.7203C31.0899 21.3615 32.1597 20.292 33.5182 19.9401C33.6546 19.9047 33.6546 19.728 33.5182 19.6929Z" fill="white"/>
</svg>
