<svg width="74" height="75" viewBox="0 0 74 75" fill="none" xmlns="http://www.w3.org/2000/svg">
<path d="M50.8482 37.3619V39.3577C46.9427 42.6722 41.9869 44.4917 36.8645 44.4917C31.7422 44.4917 26.7863 42.6722 22.8809 39.3577V37.3619C22.8806 35.0495 23.6157 32.797 24.98 30.9299C26.3443 29.0629 28.267 27.6781 30.4702 26.9758C32.2773 28.4398 34.5325 29.2386 36.8582 29.2386C39.1839 29.2386 41.439 28.4398 43.2462 26.9758H43.2589C45.463 27.6766 47.3867 29.0609 48.7512 30.9283C50.1158 32.7957 50.8502 35.0491 50.8482 37.3619Z" fill="#3B97D3"/>
<path d="M58.4761 22.8823C58.4797 26.0161 57.799 29.113 56.4815 31.9564C55.1641 34.7999 53.2417 37.3214 50.8487 39.3449V37.3618C50.8507 35.0489 50.1163 32.7956 48.7517 30.9282C47.3872 29.0608 45.4635 27.6764 43.2594 26.9757C44.8946 25.6535 46.0797 23.857 46.6516 21.8334C47.2235 19.8098 47.1541 17.6587 46.4529 15.6762C45.7517 13.6937 44.4531 11.9773 42.7361 10.7634C41.019 9.5494 38.9679 8.89755 36.865 8.89755C34.7622 8.89755 32.711 9.5494 30.994 10.7634C29.2769 11.9773 27.9784 13.6937 27.2772 15.6762C26.576 17.6587 26.5065 19.8098 27.0784 21.8334C27.6503 23.857 28.8355 25.6535 30.4707 26.9757C28.2675 27.678 26.3448 29.0628 24.9805 30.9298C23.6162 32.7968 22.8811 35.0494 22.8814 37.3618V39.3449C20.1143 36.9965 17.9831 33.9891 16.6846 30.6001C15.386 27.2111 14.9619 23.5496 15.4513 19.9535C15.9407 16.3574 17.3279 12.9424 19.4849 10.0236C21.6418 7.1049 24.4991 4.77637 27.7932 3.25288C31.0872 1.72939 34.7119 1.06001 38.3328 1.30649C41.9537 1.55298 45.4542 2.70739 48.5113 4.66322C51.5685 6.61905 54.0839 9.31332 55.8255 12.4974C57.567 15.6816 58.4786 19.253 58.4761 22.8823Z" fill="#464F5D"/>
<path d="M47.0346 19.0687C47.0362 20.5851 46.6978 22.0825 46.0444 23.4509C45.391 24.8193 44.4392 26.0238 43.259 26.9758H43.2463C41.4514 28.4213 39.2184 29.2138 36.9138 29.2232C34.6092 29.2326 32.3699 28.4585 30.5632 27.0277C28.7565 25.5969 27.4898 23.5945 26.9709 21.3491C26.452 19.1037 26.7118 16.7485 27.7075 14.6702C28.7033 12.5918 30.3759 10.9136 32.451 9.9109C34.526 8.90823 36.8803 8.64065 39.1274 9.15207C41.3746 9.66348 43.3811 10.9235 44.8179 12.7254C46.2547 14.5273 47.0363 16.7641 47.0346 19.0687Z" fill="#FDD7AD"/>
<path d="M36.8648 45.7647C24.2274 45.7647 13.9824 35.5198 13.9824 22.8824C13.9824 10.2449 24.2274 0 36.8648 0C49.5022 0 59.7471 10.2449 59.7471 22.8824C59.7319 35.5134 49.4958 45.7495 36.8648 45.7647ZM36.8648 2.54248C25.6308 2.54248 16.5249 11.6484 16.5249 22.8824C16.5249 34.1163 25.6308 43.2222 36.8648 43.2222C48.0988 43.2222 57.2047 34.1163 57.2047 22.8824C57.1919 11.6547 48.0924 2.5552 36.8648 2.54248Z" fill="#BDC3C7"/>
<path d="M20.6194 55.7745L21.9809 63.6295C22.0137 63.818 21.9931 64.0119 21.9215 64.1893C21.8499 64.3667 21.7301 64.5206 21.5757 64.6335C21.4213 64.7465 21.2383 64.8139 21.0475 64.8284C20.8568 64.8428 20.6658 64.8036 20.4961 64.7152L13.3466 60.9993L6.19716 64.7152C6.02749 64.8036 5.83648 64.8428 5.6457 64.8284C5.45493 64.8139 5.27199 64.7465 5.11754 64.6335C4.9631 64.5206 4.84331 64.3667 4.77171 64.1893C4.70011 64.0119 4.67955 63.818 4.71235 63.6295L6.07512 55.7745L0.313847 50.2243C0.175622 50.0909 0.0775776 49.9214 0.0308502 49.735C-0.0158772 49.5487 -0.00941492 49.353 0.0495032 49.1701C0.108421 48.9873 0.217434 48.8246 0.364159 48.7006C0.510884 48.5767 0.689441 48.4963 0.87955 48.4687L8.84388 47.3246L12.4275 40.1573C12.5127 39.9868 12.6436 39.8433 12.8058 39.7431C12.9679 39.6428 13.1547 39.5897 13.3453 39.5897C13.536 39.5897 13.7228 39.6428 13.8849 39.7431C14.0471 39.8433 14.178 39.9868 14.2632 40.1573L17.8328 47.3233L25.8137 48.4674C26.0038 48.4947 26.1824 48.5749 26.3292 48.6988C26.476 48.8226 26.5851 48.9852 26.6441 49.168C26.703 49.3508 26.7095 49.5465 26.6627 49.7328C26.6159 49.9191 26.5177 50.0885 26.3794 50.2217L20.6194 55.7745ZM67.6554 55.594L69.0169 63.449C69.0497 63.6375 69.0291 63.8314 68.9575 64.0088C68.8859 64.1862 68.7661 64.3401 68.6117 64.453C68.4572 64.5659 68.2743 64.6334 68.0835 64.6478C67.8927 64.6623 67.7017 64.6231 67.532 64.5346L60.3826 60.8188L53.2331 64.5346C53.0634 64.6231 52.8724 64.6623 52.6817 64.6478C52.4909 64.6334 52.3079 64.5659 52.1535 64.453C51.9991 64.3401 51.8793 64.1862 51.8077 64.0088C51.7361 63.8314 51.7155 63.6375 51.7483 63.449L53.1111 55.594L47.3498 50.0437C47.2116 49.9103 47.1135 49.7408 47.0668 49.5545C47.0201 49.3682 47.0265 49.1725 47.0855 48.9896C47.1444 48.8068 47.2534 48.6441 47.4001 48.5201C47.5468 48.3961 47.7254 48.3158 47.9155 48.2882L55.8798 47.144L59.4635 39.9768C59.5486 39.8062 59.6796 39.6628 59.8417 39.5625C60.0038 39.4623 60.1907 39.4092 60.3813 39.4092C60.5719 39.4092 60.7588 39.4623 60.9209 39.5625C61.083 39.6628 61.214 39.8062 61.2991 39.9768L64.8688 47.1428L72.8497 48.2869C73.0398 48.3142 73.2184 48.3944 73.3652 48.5182C73.512 48.6421 73.6211 48.8047 73.68 48.9875C73.739 49.1703 73.7454 49.366 73.6986 49.5523C73.6518 49.7385 73.5537 49.908 73.4154 50.0412L67.6554 55.594Z" fill="#F0C419"/>
<path d="M45.8831 63.7807L47.57 73.512C47.6104 73.7453 47.5848 73.9853 47.4961 74.2048C47.4074 74.4244 47.2591 74.6148 47.068 74.7546C46.877 74.8944 46.6506 74.9781 46.4145 74.9962C46.1784 75.0143 45.942 74.9661 45.7318 74.857L36.8751 70.2538L28.0171 74.857C27.8069 74.9661 27.5704 75.0143 27.3344 74.9962C27.0983 74.9781 26.8719 74.8944 26.6808 74.7546C26.4897 74.6148 26.3415 74.4244 26.2528 74.2048C26.1641 73.9853 26.1385 73.7453 26.1788 73.512L27.8658 63.7807L20.729 56.9045C20.5576 56.7393 20.436 56.5294 20.3781 56.2985C20.3201 56.0676 20.3282 55.8251 20.4013 55.5986C20.4744 55.372 20.6097 55.1706 20.7917 55.0171C20.9737 54.8637 21.1951 54.7645 21.4308 54.7307L31.2969 53.3107L35.736 44.4336C35.8416 44.2224 36.0039 44.0448 36.2047 43.9206C36.4056 43.7965 36.637 43.7307 36.8732 43.7307C37.1093 43.7307 37.3407 43.7965 37.5416 43.9206C37.7424 44.0448 37.9047 44.2224 38.0103 44.4336L42.4317 53.3094L52.3181 54.7307C52.5538 54.7645 52.7752 54.8637 52.9572 55.0171C53.1392 55.1706 53.2744 55.372 53.3476 55.5986C53.4207 55.8251 53.4287 56.0676 53.3708 56.2985C53.3129 56.5294 53.1913 56.7393 53.0199 56.9045L45.8831 63.7807Z" fill="#F3D55B"/>
<path d="M29.873 59.9251C29.5513 59.9254 29.2415 59.8037 29.0059 59.5846C28.7704 59.3654 28.6267 59.0652 28.6038 58.7443C28.5809 58.4234 28.6805 58.1058 28.8826 57.8554C29.0846 57.6051 29.374 57.4407 29.6925 57.3953L33.8177 56.8016L35.7245 52.9739C35.7974 52.8207 35.9001 52.6837 36.0267 52.5707C36.1532 52.4578 36.3011 52.3713 36.4615 52.3162C36.622 52.2612 36.7918 52.2388 36.961 52.2502C37.1302 52.2617 37.2955 52.3069 37.447 52.3831C37.5985 52.4593 37.7333 52.565 37.8435 52.6939C37.9536 52.8229 38.0369 52.9726 38.0884 53.1342C38.1399 53.2958 38.1587 53.4661 38.1435 53.635C38.1283 53.804 38.0796 53.9682 38.0001 54.118L35.7881 58.5407C35.6962 58.7241 35.5613 58.8826 35.3948 59.0026C35.2283 59.1226 35.0353 59.2005 34.8321 59.2297L30.051 59.9174C29.9919 59.924 29.9324 59.9266 29.873 59.9251Z" fill="#F5EFCA"/>
</svg>
