<svg width="69" height="75" viewBox="0 0 69 75" fill="none" xmlns="http://www.w3.org/2000/svg">
<path d="M9.07534 5.50488L11.6013 4.40127C11.6477 4.38061 11.687 4.34697 11.7146 4.30443C11.7422 4.26188 11.7569 4.21225 11.7569 4.16153C11.7569 4.11081 11.7422 4.06118 11.7146 4.01863C11.687 3.97609 11.6477 3.94245 11.6013 3.92179L9.07534 2.8155C9.01497 2.78998 8.96692 2.74194 8.94141 2.68156L7.83779 0.155572C7.81713 0.109253 7.7835 0.0699101 7.74095 0.0423013C7.6984 0.0146925 7.64877 0 7.59805 0C7.54733 0 7.4977 0.0146925 7.45516 0.0423013C7.41261 0.0699101 7.37897 0.109253 7.35831 0.155572L6.25202 2.68156C6.22651 2.74194 6.17846 2.78998 6.11809 2.8155L3.5921 3.91911C3.54578 3.93977 3.50643 3.97341 3.47882 4.01595C3.45122 4.0585 3.43652 4.10813 3.43652 4.15885C3.43652 4.20957 3.45122 4.2592 3.47882 4.30175C3.50643 4.34429 3.54578 4.37793 3.5921 4.39859L6.11541 5.50488C6.17702 5.53167 6.22523 5.57989 6.24934 5.63882L7.35296 8.16481C7.37362 8.21113 7.40725 8.25047 7.4498 8.27808C7.49234 8.30569 7.54198 8.32038 7.5927 8.32038C7.64342 8.32038 7.69305 8.30569 7.73559 8.27808C7.77814 8.25047 7.81178 8.21113 7.83244 8.16481L8.94141 5.63882C8.96783 5.57906 9.01559 5.53131 9.07534 5.50488Z" fill="#EFC48F"/>
<path d="M0.784851 12.8365C1.21831 12.8365 1.5697 12.4852 1.5697 12.0517C1.5697 11.6182 1.21831 11.2668 0.784851 11.2668C0.35139 11.2668 0 11.6182 0 12.0517C0 12.4852 0.35139 12.8365 0.784851 12.8365Z" fill="#EAB478"/>
<path d="M66.887 11.1247L68.4111 10.4577C68.537 10.4015 68.537 10.222 68.4111 10.1684L66.887 9.50144C66.8689 9.49403 66.8525 9.48311 66.8387 9.46932C66.8249 9.45552 66.814 9.43913 66.8066 9.42108L66.1396 7.89691C66.0834 7.77102 65.9039 7.77102 65.8503 7.89691L65.1833 9.42108C65.1759 9.43913 65.165 9.45552 65.1512 9.46932C65.1374 9.48311 65.121 9.49403 65.103 9.50144L63.5788 10.1684C63.4529 10.2247 63.4529 10.4042 63.5788 10.4577L65.103 11.1247C65.121 11.1321 65.1374 11.143 65.1512 11.1568C65.165 11.1706 65.1759 11.187 65.1833 11.2051L65.8503 12.7292C65.9066 12.8551 66.086 12.8551 66.1396 12.7292L66.8066 11.2051C66.814 11.187 66.8249 11.1706 66.8387 11.1568C66.8525 11.143 66.8689 11.1321 66.887 11.1247Z" fill="#EFC48F"/>
<path d="M57.4277 8.85857C58.5387 8.85857 59.4394 7.95791 59.4394 6.84689C59.4394 5.73587 58.5387 4.83521 57.4277 4.83521C56.3167 4.83521 55.416 5.73587 55.416 6.84689C55.416 7.95791 56.3167 8.85857 57.4277 8.85857Z" fill="#EAB478"/>
<path d="M59.8038 33.8022C60.5993 37.9569 61.0306 42.599 61.0306 47.5412C61.0306 53.2735 60.4332 58.6711 59.3752 63.3132C59.2091 64.1007 59.4421 64.8909 59.9377 65.5874C61.727 68.2554 61.8262 71.5019 61.6922 73.3529C61.6253 74.202 60.8967 74.8985 59.9377 74.9601C57.9501 75.0806 54.4062 74.9895 51.457 73.2913C50.6963 72.8654 49.8337 72.6243 48.9391 72.8064C44.4014 73.6261 39.1673 74.1109 33.601 74.1109C28.0347 74.1109 22.8006 73.6261 18.2629 72.8064C17.3682 72.6243 16.5084 72.868 15.7449 73.2913C12.7957 74.9895 9.25182 75.0806 7.26425 74.9601C6.3026 74.8985 5.574 74.202 5.50972 73.3529C5.37846 71.5019 5.47757 68.258 7.26425 65.5874C7.76248 64.8909 7.99285 64.1007 7.82677 63.3132C6.76601 58.6737 6.17135 53.2735 6.17135 47.5412C6.17135 42.5963 6.60261 37.9569 7.39818 33.8022H59.8038Z" fill="#EFC48F"/>
<path d="M46.9265 17.5675C48.8311 13.6047 47.9862 9.24412 45.0395 7.82783C42.0927 6.41155 38.1599 8.47591 36.2553 12.4387C34.3506 16.4015 35.1955 20.7621 38.1422 22.1784C41.089 23.5947 45.0218 21.5303 46.9265 17.5675Z" fill="#A55E55"/>
<path d="M20.7925 26.7345C24.0407 26.3621 26.2679 22.5192 25.7671 18.151C25.2663 13.7829 22.2272 10.5437 18.979 10.9161C15.7308 11.2885 13.5036 15.1314 14.0044 19.4995C14.5052 23.8677 17.5443 27.1069 20.7925 26.7345Z" fill="#844442"/>
<path d="M19.8098 29.4486C22.1216 27.1367 21.4755 22.7423 18.3665 19.6333C15.2575 16.5243 10.8631 15.8781 8.55121 18.19C6.23936 20.5018 6.88555 24.8963 9.99452 28.0053C13.1035 31.1142 17.4979 31.7604 19.8098 29.4486Z" fill="#A55E55"/>
<path d="M58.6369 27.9181C60.9488 25.6062 60.3026 21.2118 57.1936 18.1028C54.0847 14.9938 49.6902 14.3476 47.3784 16.6595C45.0665 18.9713 45.7127 23.3658 48.8217 26.4747C51.9306 29.5837 56.3251 30.2299 58.6369 27.9181Z" fill="#844442"/>
<path d="M28.3782 28.0054C31.4872 24.8964 32.1334 20.5019 29.8215 18.1901C27.5097 15.8782 23.1152 16.5244 20.0062 19.6334C16.8973 22.7424 16.2511 27.1368 18.5629 29.4487C20.8748 31.7605 25.2692 31.1143 28.3782 28.0054Z" fill="#934D48"/>
<path d="M49.1012 25.2457C51.6506 21.6636 51.558 17.2228 48.8943 15.327C46.2306 13.4312 42.0045 14.7983 39.4551 18.3804C36.9056 21.9626 36.9982 26.4033 39.6619 28.2991C42.3256 30.1949 46.5517 28.8278 49.1012 25.2457Z" fill="#934D48"/>
<path d="M34.313 30.1984C37.5612 29.826 39.7884 25.983 39.2876 21.6149C38.7868 17.2468 35.7477 14.0076 32.4995 14.3799C29.2513 14.7523 27.0241 18.5953 27.5249 22.9634C28.0257 27.3316 31.0648 30.5708 34.313 30.1984Z" fill="#A55E55"/>
<path d="M59.9323 65.5983C59.4314 64.9019 59.2091 64.0956 59.3752 63.3188C60.4306 58.6766 61.0145 53.2818 61.0145 47.5521C61.0145 42.9555 60.6663 38.3133 59.7904 33.7891H7.40891C6.85755 36.6245 6.50489 39.495 6.35352 42.3796H47.9319C50.774 42.3796 53.1473 44.6538 53.15 47.4985V47.5521C53.15 53.2791 52.566 58.6739 51.5106 63.3188C51.3445 64.0983 51.5668 64.9045 52.0678 65.5983C53.8464 68.2663 53.9589 71.4941 53.8196 73.3558C53.7927 73.6694 53.6765 73.9687 53.4848 74.2183C55.9036 75.0246 58.4055 75.0514 59.935 74.9683C60.9074 74.8853 61.6306 74.1888 61.6869 73.3558C61.8235 71.4941 61.7137 68.269 59.9323 65.5983Z" fill="#EAB478"/>
<path d="M10.5159 54.6479C10.6474 54.6374 10.7755 54.601 10.8929 54.5409C11.0103 54.4808 11.1147 54.3981 11.2 54.2976C11.2854 54.197 11.3501 54.0806 11.3903 53.955C11.4306 53.8294 11.4457 53.6971 11.4347 53.5657C11.2739 51.5942 11.1936 49.5691 11.1936 47.5413L11.2016 46.3065C11.2052 46.0402 11.1032 45.7834 10.918 45.5922C10.7328 45.4009 10.4794 45.2908 10.2132 45.2859C9.77388 45.2966 9.20332 45.7198 9.19261 46.2743L9.18457 47.5413C9.18457 49.6227 9.26761 51.704 9.43369 53.7291C9.45553 53.9943 9.58177 54.2401 9.78468 54.4124C9.98758 54.5846 10.2506 54.6693 10.5159 54.6479ZM11.874 57.5355C11.8177 57.2896 11.6713 57.0737 11.4636 56.9306C11.2559 56.7875 11.0021 56.7275 10.7523 56.7625C10.5025 56.7975 10.275 56.925 10.1146 57.1197C9.95428 57.3144 9.87283 57.5622 9.88638 57.814C9.94799 58.2641 10.0176 58.7141 10.09 59.1561C10.1326 59.4193 10.278 59.6548 10.4943 59.8108C10.7106 59.9667 10.9799 60.0304 11.2431 59.9878C11.5063 59.9452 11.7418 59.7997 11.8978 59.5835C12.0538 59.3672 12.1175 59.0978 12.0749 58.8346C12.003 58.4023 11.936 57.9693 11.874 57.5355Z" fill="#FFDEBB"/>
<path d="M61.8322 38.3588H5.37112C4.59178 38.3588 3.84436 38.0492 3.29329 37.4981C2.74221 36.9471 2.43262 36.1996 2.43262 35.4203V29.1844C2.43262 27.5611 3.74785 26.2458 5.37112 26.2458H61.8349C63.4582 26.2458 64.7734 27.5611 64.7734 29.1844V35.4176C64.7734 37.0409 63.4582 38.3588 61.8322 38.3588Z" fill="#EFC48F"/>
<path d="M64.7701 29.1737V35.431C64.7701 37.0436 63.4629 38.3508 61.8235 38.3508H53.8438C55.4563 38.3508 56.7903 37.0436 56.7903 35.431V29.1737C56.7903 27.5611 55.4563 26.2539 53.8438 26.2539H61.8235C63.4629 26.2539 64.7701 27.5611 64.7701 29.1737Z" fill="#EAB478"/>
<path d="M39.0917 61.646C43.1482 57.5182 43.9816 51.7594 40.9532 48.7834C37.9249 45.8075 32.1815 46.7413 28.1251 50.8691C24.0687 54.997 23.2352 60.7558 26.2636 63.7317C29.292 66.7077 35.0353 65.7739 39.0917 61.646Z" fill="#A55E55"/>
<path d="M41.7255 48.2084C41.6786 48.0854 41.6079 47.9729 41.5175 47.8773C41.4271 47.7816 41.3187 47.7047 41.1985 47.651C41.0784 47.5973 40.9488 47.5677 40.8172 47.5641C40.6857 47.5605 40.5547 47.5828 40.4317 47.6298C40.1558 47.7343 33.7056 50.2656 32.3287 56.4426C31.2171 61.4276 26.1249 62.4884 25.908 62.5313C25.6679 62.5843 25.4556 62.7234 25.3109 62.9221C25.1663 63.1209 25.0993 63.3658 25.1227 63.6105C25.1461 63.8552 25.2582 64.083 25.4379 64.2508C25.6175 64.4186 25.8524 64.5149 26.0981 64.5215C26.162 64.5218 26.2257 64.5155 26.2883 64.5028C26.5562 64.4519 32.8859 63.1688 34.2895 56.8766C35.428 51.7683 41.0934 49.5263 41.1496 49.5049C41.3977 49.409 41.5976 49.2187 41.7056 48.9757C41.8135 48.7326 41.8207 48.4567 41.7255 48.2084Z" fill="#934D48"/>
</svg>
