<svg width="36" height="36" viewBox="0 0 36 36" fill="none" xmlns="http://www.w3.org/2000/svg">
<path d="M15.7505 22.8749C15.461 22.8529 15.1919 22.7182 15.0005 22.4999L10.5005 17.9999C10.4002 17.7901 10.3675 17.5543 10.4068 17.3249C10.4462 17.0956 10.5556 16.8842 10.7201 16.7197C10.8846 16.5551 11.0961 16.4456 11.3254 16.4063C11.5547 16.367 11.7905 16.3997 12.0005 16.4999L15.7055 20.2049L28.5005 7.49997C28.7103 7.39971 28.9463 7.367 29.1755 7.40634C29.4048 7.44569 29.6163 7.55514 29.7807 7.71965C29.9453 7.88415 30.0548 8.09561 30.0941 8.3249C30.1334 8.5542 30.1007 8.79005 30.0005 8.99997L16.5005 22.4999C16.3091 22.7182 16.0398 22.8529 15.7505 22.8749Z" fill="white"/>
<path d="M18.0012 31.5C15.5884 31.4961 13.2207 30.8457 11.1445 29.6164C9.06837 28.387 7.35964 26.6238 6.19614 24.51C5.31171 22.935 4.76509 21.193 4.59114 19.395C4.31661 16.7581 4.82455 14.0988 6.0516 11.7487C7.27866 9.39864 9.1705 7.46187 11.4911 6.18001C13.0662 5.29558 14.8082 4.74897 16.6062 4.57501C18.3973 4.38232 20.209 4.55584 21.9312 5.08501C22.0848 5.11572 22.2304 5.17819 22.3585 5.26845C22.4866 5.35869 22.5945 5.47471 22.6752 5.60908C22.7559 5.74344 22.8076 5.89318 22.8271 6.0487C22.8465 6.20421 22.8333 6.36207 22.7881 6.51216C22.743 6.66225 22.6669 6.80125 22.5649 6.92025C22.4629 7.03926 22.3372 7.13565 22.1959 7.20322C22.0545 7.27081 21.9004 7.3081 21.7438 7.31271C21.5872 7.31733 21.4312 7.28916 21.2862 7.23001C19.8291 6.79189 18.2992 6.64909 16.7862 6.81001C15.2907 6.96315 13.8416 7.41724 12.5261 8.14501C11.2588 8.84416 10.1383 9.78129 9.22614 10.905C8.28693 12.0498 7.58557 13.3704 7.16316 14.7896C6.74076 16.2088 6.60577 17.698 6.76614 19.17C6.91927 20.6655 7.37338 22.1146 8.10114 23.43C8.80029 24.6973 9.73741 25.8178 10.8611 26.73C12.0059 27.6693 13.3265 28.3705 14.7457 28.7929C16.1649 29.2153 17.6541 29.3503 19.1262 29.19C20.6217 29.0368 22.0707 28.5828 23.3862 27.855C24.6535 27.1558 25.7739 26.2188 26.6862 25.095C27.6253 23.9503 28.3267 22.6296 28.7491 21.2104C29.1715 19.7913 29.3065 18.3021 29.1462 16.83C29.1313 16.6753 29.1472 16.5193 29.1927 16.3708C29.2383 16.2223 29.3125 16.0842 29.4115 15.9645C29.5104 15.8446 29.6319 15.7455 29.7691 15.6727C29.9064 15.5998 30.0565 15.5548 30.2112 15.54C30.3658 15.5253 30.5218 15.541 30.6703 15.5866C30.8188 15.6321 30.957 15.7065 31.0767 15.8053C31.1965 15.9042 31.2957 16.0258 31.3684 16.1629C31.4413 16.3002 31.4863 16.4503 31.5012 16.605C31.7743 19.2435 31.2642 21.9039 30.0343 24.2542C28.8045 26.6044 26.9095 28.5403 24.5862 29.82C22.9944 30.7407 21.2254 31.3132 19.3962 31.5C18.9312 31.5 18.4512 31.5 18.0012 31.5Z" fill="white"/>
</svg>
