<svg width="46" height="46" viewBox="0 0 46 46" fill="none" xmlns="http://www.w3.org/2000/svg">
<g clip-path="url(#clip0_1150_5383)">
<path d="M37.9395 17.5682C37.5885 17.2174 37.0197 17.2174 36.6688 17.5682C36.318 17.9191 36.318 18.488 36.6688 18.8389C36.6826 18.8527 36.697 18.8668 36.7109 18.8797C36.8773 19.0359 37.0969 19.1227 37.325 19.1224C37.448 19.1225 37.5697 19.0974 37.6825 19.0485C37.7954 18.9996 37.8969 18.928 37.9809 18.8381C38.3201 18.4762 38.3015 17.9074 37.9395 17.5682ZM36.1141 16.0926C35.5999 15.7434 35.0718 15.4319 34.5448 15.1666C31.5633 13.6663 28.4037 13.3651 25.4076 14.2955C24.9338 14.4428 24.6688 14.9462 24.8161 15.42C24.9633 15.894 25.4665 16.1586 25.9406 16.0116C28.4835 15.2217 31.1795 15.4846 33.7369 16.7715C34.188 16.9988 34.6611 17.2782 35.1049 17.5792C35.2534 17.6805 35.4289 17.7346 35.6087 17.7346C35.7555 17.7348 35.9001 17.699 36.0298 17.6303C36.1596 17.5616 36.2705 17.4621 36.3528 17.3406C36.6315 16.9301 36.5246 16.3713 36.1141 16.0926Z" fill="#2A93DF"/>
<path d="M44.2875 27.7192C43.9192 26.9465 43.3092 25.667 43.2983 25.2437C44.3489 22.6541 43.9656 19.7883 42.2156 17.167C39.5246 13.1354 34.0091 10.2092 29.1012 10.2092C26.5069 10.2092 23.9736 10.8279 21.6944 12.0089C21.0405 8.42621 17.8985 5.70117 14.13 5.70117C9.88882 5.70117 6.43848 9.15152 6.43848 13.3926C6.43848 16.0908 7.81362 18.5442 10.1167 19.9552C10.7806 20.362 10.9308 20.7136 10.9842 21.2898V26.5471C10.9842 27.5503 11.8002 28.3664 12.8031 28.3664H13.1085C13.602 32.2994 15.5055 35.8702 18.5269 38.4979C18.5554 38.5866 18.6385 39.0027 18.2815 40.2441C18.0034 41.2111 17.5766 42.2854 17.2003 43.2333C16.9484 43.8675 16.7308 44.4152 16.5992 44.8294C16.5565 44.9641 16.5461 45.1069 16.5689 45.2463C16.5918 45.3857 16.6471 45.5178 16.7305 45.6318C16.8139 45.7458 16.9231 45.8386 17.049 45.9025C17.175 45.9665 17.3143 45.9998 17.4555 45.9999H30.2802C30.7016 45.9999 31.2804 45.8112 31.6447 44.9123C31.8032 44.5212 31.9067 44.0506 32.0164 43.5522C32.1232 43.0667 32.3735 41.9295 32.6223 41.7922C32.6225 41.7922 32.6371 41.7897 32.6722 41.7951C32.7183 41.8024 32.765 41.8061 32.8116 41.806C34.1547 41.806 35.2522 41.8669 36.2204 41.9205C39.0603 42.0781 40.7745 42.1733 42.2782 40.0073C43.0429 38.9057 42.9562 37.299 42.8645 35.598C42.8172 34.7213 42.7685 33.8164 42.8551 33.0641C43.0118 32.9097 43.4045 32.6402 43.6506 32.4712C44.4976 31.8894 45.2975 31.3402 45.2975 30.5051C45.2977 29.8704 44.9138 29.033 44.2875 27.7192ZM11.0555 18.4228C9.28966 17.3411 8.23543 15.4607 8.23543 13.3925C8.23543 10.1421 10.8798 7.49795 14.1301 7.49795C17.3804 7.49795 20.0247 10.1422 20.0247 13.3925C20.0247 15.4607 18.9706 17.3412 17.2046 18.423C16.3654 18.9374 15.8666 19.5372 15.6298 20.3478L14.1298 20.3473L12.6305 20.3478C12.3936 19.5373 11.8948 18.9374 11.0555 18.4228ZM15.4791 22.1448V23.4588H12.7812V22.1448H15.4791ZM12.8033 26.5695C12.7933 26.5695 12.7812 26.5571 12.7812 26.547V25.2557H15.4791V26.547C15.4791 26.5571 15.4669 26.5695 15.4568 26.5695H12.8033ZM42.6337 30.9898C41.8604 31.5209 41.1925 31.9795 41.094 32.6734C40.9587 33.6254 41.0155 34.6774 41.0703 35.6946C41.1384 36.9566 41.2155 38.3871 40.8022 38.9825C39.9083 40.2703 39.1351 40.2828 36.32 40.1264C35.3912 40.0748 34.2387 40.0109 32.8723 40.009C32.3475 39.9471 31.4596 40.0456 30.8671 41.1975C30.5661 41.7824 30.4044 42.5174 30.2617 43.1658C30.19 43.4916 30.0893 43.9495 29.995 44.2028H18.7489L18.8706 43.8963C20.1648 40.6374 20.9846 38.2472 19.7368 37.1686C17.0922 34.8812 15.4057 31.784 14.922 28.3663H15.4569C16.46 28.3663 17.276 27.5502 17.276 26.547V21.2915C17.3293 20.7143 17.4791 20.3624 18.1435 19.9551C20.2702 18.6522 21.6046 16.4603 21.7967 14.0076C24.0018 12.6973 26.517 12.006 29.1013 12.006C33.3822 12.006 38.3777 14.6536 40.7213 18.1645C41.7257 19.6692 42.6959 22.0101 41.6135 24.6164C41.261 25.4652 41.7837 26.6423 42.6656 28.4924C42.9511 29.0913 43.3644 29.9583 43.4738 30.3633C43.2882 30.5404 42.8891 30.8144 42.6337 30.9898Z" fill="#2A93DF"/>
<path d="M18.5375 12.1232C18.2722 11.1399 17.6127 10.3523 16.63 9.84531C16.1891 9.6181 15.6472 9.79095 15.4197 10.2321C15.1923 10.6731 15.3653 11.215 15.8064 11.4424C16.3428 11.7191 16.6688 12.095 16.8026 12.5912C17.0146 13.3768 16.694 14.2268 16.5533 14.4475C16.2866 14.866 16.4096 15.4214 16.828 15.6882C16.9719 15.7803 17.1392 15.8292 17.3101 15.8291C17.4612 15.8293 17.61 15.7913 17.7426 15.7187C17.8752 15.646 17.9873 15.5411 18.0684 15.4135C18.4517 14.8126 18.8928 13.4401 18.5375 12.1232ZM14.1305 0C13.6343 0 13.2321 0.402409 13.2321 0.898434V3.45969C13.2321 3.95571 13.6343 4.35812 14.1305 4.35812C14.6266 4.35812 15.0289 3.95571 15.0289 3.45969V0.898434C15.0289 0.402409 14.6266 0 14.1305 0ZM4.16184 12.53H1.60058C1.10438 12.53 0.702148 12.9324 0.702148 13.4284C0.702148 13.9246 1.10438 14.3269 1.60058 14.3269H4.16193C4.65804 14.3269 5.06027 13.9246 5.06027 13.4284C5.06027 12.9324 4.65795 12.53 4.16184 12.53ZM9.92385 4.3451L8.64359 2.12794C8.39544 1.69822 7.84587 1.55115 7.41623 1.79911C6.9866 2.04726 6.83935 2.59665 7.0875 3.02638L8.36777 5.24353C8.42672 5.34575 8.50524 5.43534 8.59883 5.5072C8.69243 5.57905 8.79927 5.63175 8.91325 5.66229C9.02723 5.69283 9.1461 5.7006 9.26309 5.68517C9.38007 5.66974 9.49287 5.63141 9.59503 5.57236C10.0247 5.32421 10.172 4.77482 9.92385 4.3451ZM5.94568 7.66589L3.72825 6.38562C3.29862 6.13765 2.74905 6.28491 2.50099 6.71445C2.25285 7.14417 2.4001 7.69356 2.82982 7.94171L5.04725 9.22198C5.14941 9.28101 5.2622 9.31934 5.37918 9.33476C5.49617 9.35019 5.61504 9.34241 5.72901 9.31187C5.84299 9.28133 5.94983 9.22864 6.04343 9.15679C6.13702 9.08494 6.21555 8.99536 6.27451 8.89315C6.52265 8.46361 6.3754 7.91404 5.94568 7.66589ZM25.7604 6.71436C25.5121 6.28464 24.9627 6.13738 24.5331 6.38553L22.3157 7.6658C21.886 7.91395 21.7387 8.46352 21.9869 8.89306C22.0458 8.99529 22.1243 9.08491 22.2179 9.15677C22.3115 9.22864 22.4183 9.28135 22.5323 9.31189C22.6463 9.34243 22.7652 9.3502 22.8822 9.33476C22.9992 9.31931 23.112 9.28096 23.2141 9.22189L25.4315 7.94162C25.8613 7.69347 26.0085 7.14408 25.7604 6.71436ZM6.27496 17.9639C6.02699 17.5342 5.47768 17.3871 5.04787 17.6349L2.82991 18.9152C2.40019 19.1631 2.25285 19.7127 2.5009 20.1424C2.55984 20.2447 2.63835 20.3343 2.73194 20.4062C2.82553 20.478 2.93237 20.5307 3.04634 20.5613C3.16032 20.5919 3.27921 20.5997 3.3962 20.5842C3.51319 20.5688 3.62599 20.5305 3.72816 20.4714L5.94604 19.1912C6.37576 18.9432 6.5231 18.3936 6.27496 17.9639ZM9.41022 21.6044C8.98068 21.3564 8.43111 21.5037 8.18296 21.9332L7.08741 23.831C6.83935 24.2607 6.9866 24.8103 7.41633 25.0582C7.51848 25.1173 7.63128 25.1556 7.74826 25.171C7.86525 25.1865 7.98413 25.1787 8.0981 25.1482C8.21208 25.1176 8.31892 25.0649 8.41252 24.9931C8.50612 24.9212 8.58463 24.8316 8.64359 24.7294L9.73914 22.8316C9.98728 22.4019 9.84003 21.8525 9.41022 21.6044ZM20.845 1.79911C20.4152 1.55097 19.8659 1.69822 19.6178 2.12794L18.3375 4.3451C18.0894 4.77482 18.2365 5.3243 18.6662 5.57236C18.7684 5.63141 18.8812 5.66975 18.9982 5.68518C19.1152 5.70061 19.2341 5.69284 19.3481 5.6623C19.4621 5.63176 19.5689 5.57906 19.6625 5.5072C19.7561 5.43535 19.8346 5.34575 19.8936 5.24353L21.1739 3.02638C21.422 2.59665 21.2748 2.04726 20.845 1.79911Z" fill="#2A93DF"/>
</g>
<defs>
<clipPath id="clip0_1150_5383">
<rect width="46" height="46" fill="white"/>
</clipPath>
</defs>
</svg>
