<svg width="77" height="92" viewBox="0 0 77 92" fill="none" xmlns="http://www.w3.org/2000/svg">
<path d="M27.5385 55.917C27.5385 55.917 20.2209 47.7633 26.6902 36.7759C32.2881 27.2584 43.594 32.6217 51.2896 25.01C51.2896 25.01 61.0568 58.5981 36.1531 59.3816" fill="#BBD541"/>
<path d="M36.151 61.1964C35.1733 61.1964 34.3676 60.421 34.3372 59.4383C34.3049 58.4354 35.0935 57.5983 36.0943 57.5649C41.4445 57.3961 45.4278 55.5622 47.934 52.1106C52.9516 45.2025 51.2976 33.5145 50.1946 28.2402C46.7765 30.5321 42.9802 31.1902 39.5539 31.7847C34.8791 32.5955 30.8443 33.2961 28.2551 37.696C22.5724 47.3479 28.6343 54.4116 28.8951 54.7079C29.5563 55.458 29.4906 56.6045 28.7424 57.2697C27.9943 57.9319 26.8539 57.8733 26.1867 57.1282C26.1038 57.0362 18.0634 47.8453 25.1241 35.8529C28.5645 30.0033 33.8358 29.0894 38.9332 28.2048C43.0125 27.4971 46.8664 26.8288 50.0116 23.717C50.4666 23.2661 51.1267 23.0892 51.7465 23.2499C52.3642 23.4107 52.8555 23.8858 53.0335 24.5015C53.2609 25.281 58.5039 43.7386 50.873 54.2448C47.6722 58.6517 42.7396 60.9902 36.2096 61.1944C36.1904 61.1954 36.1712 61.1964 36.151 61.1964Z" fill="#454B53"/>
<path d="M23.3906 70.5603C23.3137 70.5603 23.2379 70.5552 23.159 70.5451C22.1642 70.4187 21.4596 69.5108 21.5859 68.515C23.6959 51.8509 41.0586 38.2814 41.7956 37.7112C42.5893 37.0985 43.7296 37.2461 44.3433 38.0388C44.955 38.8324 44.8094 39.9728 44.0168 40.5865C43.8469 40.7169 27.11 53.8173 25.1901 68.971C25.0739 69.89 24.2924 70.5603 23.3906 70.5603Z" fill="#454B53"/>
<path d="M24.1376 81.0795C23.9011 81.0795 23.6605 81.034 23.4279 80.9339C7.94969 74.3423 -1.23616 58.6659 0.567447 41.9239C1.65325 31.8383 6.60204 22.7788 14.5029 16.4167C22.4038 10.0535 32.3095 7.14792 42.3951 8.23473C43.3909 8.3419 44.1128 9.23763 44.0056 10.2355C43.8984 11.2333 42.9987 11.9602 42.0049 11.847C32.8837 10.8643 23.9274 13.4919 16.7817 19.2464C9.63804 25.001 5.16239 33.193 4.17971 42.3152C2.54899 57.4547 10.8563 71.6328 24.8514 77.5936C25.7744 77.9869 26.2041 79.0535 25.8108 79.9755C25.5156 80.667 24.8443 81.0795 24.1376 81.0795Z" fill="#454B53"/>
<path d="M38.3523 83.9728C36.9986 83.9728 35.6348 83.9011 34.2578 83.7514C33.26 83.6453 32.5391 82.7495 32.6463 81.7507C32.7535 80.7538 33.6492 80.0269 34.647 80.1392C53.4686 82.1611 70.4452 68.4996 72.4752 49.671C74.0969 34.6032 65.46 20.0379 51.4709 14.252C50.5449 13.8688 50.1031 12.8063 50.4872 11.8792C50.8704 10.9521 51.9299 10.5103 52.86 10.8945C68.3302 17.2941 77.88 33.3991 76.0865 50.0612C73.9917 69.5036 57.4833 83.9708 38.3523 83.9728Z" fill="#454B53"/>
<path d="M34.2391 18.3647C33.7063 18.3647 33.1816 18.1332 32.8227 17.6874C32.1938 16.9059 32.3162 15.7625 33.0987 15.1336L39.7651 9.76426L34.3958 3.09779C33.7659 2.3163 33.8893 1.17287 34.6707 0.544035C35.4533 -0.085811 36.5957 0.0385407 37.2245 0.819024L43.7333 8.89986C44.0355 9.27494 44.1761 9.75516 44.1245 10.2334C44.0729 10.7126 43.8333 11.1513 43.4573 11.4536L35.3754 17.9624C35.0408 18.2333 34.6384 18.3647 34.2391 18.3647Z" fill="#454B53"/>
<path d="M40.8405 91.8425C40.3107 91.8425 39.784 91.611 39.4251 91.1651L32.9153 83.0863C32.6141 82.7102 32.4725 82.231 32.5241 81.7518C32.5756 81.2716 32.8163 80.8348 33.1903 80.5315L41.2742 74.0228C42.0567 73.393 43.2001 73.5173 43.8279 74.2978C44.4578 75.0793 44.3334 76.2217 43.554 76.8515L36.8845 82.2219L42.2548 88.8874C42.8847 89.6689 42.7603 90.8123 41.9809 91.4421C41.6442 91.7121 41.2408 91.8425 40.8405 91.8425Z" fill="#454B53"/>
</svg>
