<svg width="70" height="70" viewBox="0 0 70 70" fill="none" xmlns="http://www.w3.org/2000/svg">
<path d="M16.2146 54.8495C15.9423 54.8495 15.6699 54.7456 15.4621 54.5377C15.0465 54.1223 15.0465 53.4484 15.4621 53.0327L23.5143 44.9806C23.9298 44.5651 24.6037 44.5651 25.0193 44.9806C25.4349 45.396 25.4349 46.0699 25.0193 46.4856L16.9671 54.5377C16.7593 54.7456 16.487 54.8495 16.2146 54.8495Z" fill="#63A1C6"/>
<path d="M42.935 54.1297C57.8825 54.1297 69.9998 42.0123 69.9998 27.0648C69.9998 12.1173 57.8825 0 42.935 0C27.9875 0 15.8701 12.1173 15.8701 27.0648C15.8701 42.0123 27.9875 54.1297 42.935 54.1297Z" fill="#3A0406"/>
<path d="M62.0728 7.92718C55.7929 1.64728 47.1948 -0.901156 39.0332 0.281324C44.608 1.08906 49.9793 3.6375 54.2689 7.92718C64.8383 18.4966 64.8383 35.6331 54.2689 46.2024C49.9793 50.492 44.608 53.0404 39.0332 53.8481C47.1948 55.0308 55.7929 52.4822 62.0728 46.2024C72.6422 35.633 72.6422 18.4966 62.0728 7.92718Z" fill="#D64355" fill-opacity="0.3"/>
<path d="M42.9348 49.7506C55.4638 49.7506 65.6205 39.5939 65.6205 27.0649C65.6205 14.5359 55.4638 4.37915 42.9348 4.37915C30.4058 4.37915 20.249 14.5359 20.249 27.0649C20.249 39.5939 30.4058 49.7506 42.9348 49.7506Z" fill="#D1EDE9"/>
<path d="M58.9761 11.0235C53.5866 5.63408 46.1599 3.52356 39.1748 4.69141C43.6719 5.44322 47.9862 7.55375 51.456 11.0235C60.3154 19.8829 60.3154 34.2467 51.456 43.1061C47.9862 46.5759 43.6719 48.6864 39.1748 49.4382C46.16 50.6061 53.5866 48.4956 58.9761 43.1061C67.8354 34.2467 67.8354 19.8829 58.9761 11.0235Z" fill="#C3DDD9"/>
<path d="M2.83773 69.3954L0.60457 67.1622C-0.201523 66.3561 -0.201523 65.0491 0.60457 64.243L15.065 49.7825C15.8711 48.9765 17.1782 48.9765 17.9843 49.7825L20.2173 52.0156C21.0234 52.8217 21.0234 54.1287 20.2173 54.9348L5.75695 69.3954C4.95086 70.2015 3.64383 70.2015 2.83773 69.3954Z" fill="#DDA064"/>
<path d="M32.7578 28.4865C32.7578 28.4865 27.2409 17.0377 31.7011 11.7898C35.6432 7.1513 40.5626 11.4514 40.7024 17.6535C40.7978 21.8894 40.004 26.6846 40.004 26.6846L32.7578 28.4865Z" fill="#424242"/>
<path d="M39.3844 38.724C37.3894 39.2575 35.3396 38.0726 34.8062 36.0776L33.6855 31.886L40.9103 29.9543L42.031 34.1459C42.5643 36.1409 41.3794 38.1906 39.3844 38.724Z" fill="#424242"/>
<path d="M55.1645 35.3483C55.1645 35.3483 60.6813 23.8995 56.2212 18.6516C52.279 14.0131 47.3596 18.3132 47.2199 24.5153C47.1244 28.7513 47.9182 33.5464 47.9182 33.5464L55.1645 35.3483Z" fill="#424242"/>
<path d="M48.539 45.5859C50.534 46.1193 52.5839 44.9344 53.1172 42.9394L54.2379 38.7479L47.0131 36.8162L45.8924 41.0077C45.3591 43.0027 46.544 45.0524 48.539 45.5859Z" fill="#424242"/>
<path d="M18.9798 56.1714L13.8271 51.0188L11.26 53.586L16.4126 58.7386L18.9798 56.1714Z" fill="#FBD65F"/>
<path d="M9.84988 65.3011L4.69727 60.1484L2.13009 62.7156L7.28271 67.8682L9.84988 65.3011Z" fill="#FBD65F"/>
</svg>
