<svg width="69" height="69" viewBox="0 0 69 69" fill="none" xmlns="http://www.w3.org/2000/svg">
<path d="M46.9951 0V44.0101C59.1481 44.0101 69.0001 34.1581 69.0001 22.005C69.0001 9.85201 59.1481 0 46.9951 0Z" fill="#A3D1FF"/>
<path d="M64.8353 22.005C64.8353 9.85201 56.8481 0 46.9953 0C34.8422 0 24.9902 9.85201 24.9902 22.005C24.9902 34.1581 34.8422 44.0101 46.9953 44.0101C56.8481 44.0101 64.8353 34.1581 64.8353 22.005Z" fill="#C7E3FF"/>
<path d="M26.17 68.9999C40.6233 68.9999 52.34 57.2832 52.34 42.8299C52.34 28.3766 40.6233 16.6599 26.17 16.6599C11.7167 16.6599 0 28.3766 0 42.8299C0 57.2832 11.7167 68.9999 26.17 68.9999Z" fill="#4367B1"/>
<path d="M43.8225 39.6438L26.4004 64.8337C38.0679 64.7143 47.5613 55.5138 48.1458 43.9629L43.8225 39.6438Z" fill="#C7E3FF"/>
<path d="M44.0101 42.8299C44.0101 54.8889 36.148 64.6808 26.4005 64.8335C26.3242 64.8349 26.2478 64.8349 26.1701 64.8349C14.0166 64.8349 4.16504 54.9833 4.16504 42.8299C4.16504 31.0624 13.4016 21.4524 25.0191 20.854L43.8227 39.6437C43.9462 40.6835 44.0101 41.747 44.0101 42.8299Z" fill="#E5F2FF"/>
<path d="M26.1758 20.8252L43.9917 43.8054C44.9739 43.9394 45.9761 44.0102 46.995 44.0102C47.382 44.0102 47.7657 43.9932 48.1464 43.9632C48.1654 43.588 48.1751 43.2101 48.1751 42.8301C48.1751 30.679 38.3262 20.8282 26.1758 20.8252Z" fill="#8EBAFF"/>
<path d="M26.176 20.8252C25.7844 20.8252 25.4009 20.8353 25.0199 20.8549C25.0004 21.2359 24.9902 21.6193 24.9902 22.0053C24.9902 33.1394 33.26 42.3406 43.992 43.8054C44.0034 43.4819 44.0104 43.157 44.0104 42.8302C44.0104 30.6794 36.0262 20.8289 26.176 20.8252Z" fill="#A3D1FF"/>
</svg>
