<svg width="41" height="40" viewBox="0 0 41 40" fill="none" xmlns="http://www.w3.org/2000/svg">
<g clip-path="url(#clip0_271_264)">
<path d="M20.9002 -0.0424805C9.84895 -0.0424805 0.856445 8.94752 0.856445 20C0.856445 31.0525 9.84895 40.0425 20.9002 40.0425C31.9514 40.0425 40.9439 31.0525 40.9439 20C40.9439 8.94752 31.9514 -0.0424805 20.9002 -0.0424805ZM20.9002 38.7075C10.5852 38.7075 2.19395 30.315 2.19395 20C2.19395 9.68502 10.5852 1.29252 20.9002 1.29252C31.2152 1.29252 39.6064 9.68502 39.6064 20C39.6064 30.315 31.2152 38.7075 20.9002 38.7075Z" fill="#086965"/>
<path d="M31.8924 13.8075C32.0299 13.5525 32.1449 13.2838 32.2336 13.0038C32.3174 12.7388 32.2311 12.4513 32.0136 12.2775C31.7974 12.105 31.4949 12.085 31.2574 12.225C30.6161 12.6063 29.9261 12.8875 29.1999 13.0663C28.3274 12.2775 27.1811 11.8325 25.9974 11.8325C23.3661 11.8325 21.2261 13.9725 21.2261 16.6013C21.2261 16.6675 21.2274 16.7325 21.2299 16.7988C18.4361 16.45 15.8574 15.03 14.0611 12.8263C13.9236 12.6563 13.7111 12.5675 13.4911 12.5825C13.2724 12.6 13.0761 12.7225 12.9661 12.9138C12.5436 13.6388 12.3199 14.4675 12.3199 15.3125C12.3199 16.1125 12.5186 16.8825 12.8836 17.565C12.7911 17.58 12.6999 17.6138 12.6161 17.6625C12.4124 17.7838 12.2861 18.0275 12.2861 18.2638C12.2861 19.6825 12.9174 20.985 13.9349 21.87C13.9199 21.8838 13.9061 21.8988 13.8911 21.9138C13.7349 22.0913 13.6836 22.3363 13.7561 22.5613C14.1949 23.9288 15.2111 24.9938 16.4861 25.5175C15.1849 26.1613 13.6736 26.4125 12.2286 26.2413C11.9236 26.2138 11.6274 26.3863 11.5211 26.6813C11.4174 26.9738 11.5274 27.3 11.7899 27.4688C13.7799 28.7438 16.0786 29.4175 18.4386 29.4175C26.1636 29.4175 30.7811 23.1425 30.7811 17.0763C30.7811 17.0075 30.7811 16.94 30.7799 16.8713C31.5261 16.2888 32.1736 15.5925 32.7061 14.7963C32.8711 14.55 32.8536 14.2225 32.6624 13.995C32.4736 13.7713 32.1624 13.6938 31.8924 13.8075ZM29.7111 16.0013C29.5274 16.1338 29.4224 16.35 29.4336 16.5775C29.4411 16.7425 29.4449 16.91 29.4449 17.075C29.4449 22.485 25.3286 28.0813 18.4399 28.0813C17.2036 28.0813 15.9849 27.8738 14.8311 27.4713C16.2124 27.2075 17.5074 26.6188 18.6374 25.7338C18.8599 25.5588 18.9486 25.2638 18.8586 24.995C18.7686 24.7275 18.5199 24.545 18.2374 24.54C17.1236 24.5175 16.1136 23.9638 15.4949 23.0875C15.8111 23.0663 16.1211 23.0138 16.4224 22.9325C16.7211 22.8513 16.9236 22.575 16.9136 22.265C16.9036 21.9563 16.6811 21.6938 16.3774 21.6325C15.1236 21.3813 14.1399 20.4538 13.7761 19.2513C14.1086 19.335 14.4499 19.3838 14.7911 19.395C15.0849 19.3938 15.3574 19.2138 15.4486 18.9313C15.5399 18.6488 15.4324 18.3375 15.1836 18.1725C14.2274 17.5325 13.6561 16.465 13.6561 15.3138C13.6561 15.035 13.6899 14.76 13.7549 14.4913C15.9186 16.71 18.8549 18.05 21.9649 18.2063C22.1849 18.2075 22.3774 18.1288 22.5111 17.9675C22.6449 17.8063 22.6961 17.5925 22.6486 17.3875C22.5899 17.1338 22.5599 16.87 22.5599 16.6038C22.5599 14.71 24.1011 13.17 25.9949 13.17C26.9411 13.17 27.8549 13.565 28.5011 14.255C28.6586 14.4238 28.8911 14.4975 29.1186 14.4538C29.3249 14.4125 29.5286 14.365 29.7299 14.31C29.6399 14.3775 29.5461 14.44 29.4474 14.4988C29.1774 14.66 29.0574 14.99 29.1586 15.2875C29.2599 15.585 29.5636 15.78 29.8699 15.7338C29.9461 15.725 30.0211 15.715 30.0974 15.705C29.9736 15.8075 29.8436 15.9063 29.7111 16.0013Z" fill="#086965"/>
</g>
<defs>
<clipPath id="clip0_271_264">
<rect width="40" height="40" fill="white" transform="translate(0.900391)"/>
</clipPath>
</defs>
</svg>
