<svg width="41" height="31" viewBox="0 0 41 31" fill="none" xmlns="http://www.w3.org/2000/svg">
<path d="M29.5648 13.2287L17.5861 6.98375C17.2973 6.8325 16.9798 6.75875 16.6611 6.75875C16.3011 6.75875 15.9423 6.85375 15.6248 7.0475C15.0286 7.40875 14.6611 8.05875 14.6611 8.75625V21.2463C14.6611 21.945 15.0286 22.5938 15.6248 22.9575C15.9423 23.1488 16.3023 23.2463 16.6611 23.2463C16.9786 23.2463 17.2961 23.1725 17.5861 23.0188L29.5648 16.7738C30.2261 16.43 30.6398 15.7462 30.6398 15C30.6398 14.2587 30.2261 13.575 29.5648 13.2287ZM16.6611 21.2475V8.7575L28.6398 15.0025L16.6611 21.2475ZM40.5486 6.67375C39.9211 1.33125 37.8023 0.592499 33.5861 0.304999C30.5911 0.101249 25.7448 0 20.8986 0C16.0548 0 11.2136 0.101249 8.21355 0.304999C3.9973 0.591249 1.88105 1.33 1.25105 6.67375C0.784805 10.6425 0.784805 19.3525 1.25105 23.3337C1.88105 28.6763 3.99855 29.4125 8.21355 29.7C11.2111 29.9037 16.0573 30.005 20.9011 30.005C25.7448 30.005 30.5923 29.9037 33.5861 29.7C37.8023 29.4137 39.9211 28.6775 40.5486 23.3337C41.0148 19.3625 41.0173 10.6537 40.5486 6.67375ZM38.5623 23.1C38.2561 25.7237 37.6273 26.49 37.1823 26.8375C36.4698 27.3963 35.1761 27.5888 33.4523 27.7063C30.6786 27.8925 25.9873 28.0062 20.9011 28.0062C15.8161 28.0062 11.1236 27.8925 8.3498 27.7063C6.62855 27.5875 5.33355 27.3963 4.6198 26.8375C4.1748 26.49 3.5473 25.7225 3.2373 23.1C2.7923 19.3175 2.7923 10.6887 3.2373 6.90875C3.5473 4.2825 4.1748 3.51875 4.6198 3.16875C5.33355 2.6125 6.62855 2.42 8.3498 2.3025C11.1236 2.11625 15.8161 2.0025 20.8998 2.0025C25.9861 2.0025 30.6798 2.11625 33.4523 2.3025C35.1761 2.42125 36.4698 2.6125 37.1823 3.16875C37.6273 3.51875 38.2561 4.28375 38.5623 6.90875C39.0073 10.6912 39.0073 19.3162 38.5623 23.1Z" fill="#086965"/>
</svg>
