<?xml version="1.0" encoding="UTF-8"?>
<svg id="Layer_1" data-name="Layer 1" xmlns="http://www.w3.org/2000/svg" viewBox="0 0 595.86 156.08">
  <defs>
    <style>
      .cls-1 {
        fill: #0f1426;
      }

      .cls-2 {
        fill: #207f76;
      }

      .cls-3 {
        fill: #4ba396;
      }

      .cls-4 {
        fill: #04514b;
      }

      .cls-5 {
        fill: #0f726b;
      }
    </style>
  </defs>
  <path class="cls-3" d="M150.82,122.51c-9.49,10.56-23.11,17.76-37.33,19.23-35.84,3.4-71.56-26.33-72.28-62.95-1.06-30.53,19.04-57.92,48.52-65.8,19.95-5.23,42.2-.15,57.21,14.08-19.72-11.3-44.01-12.36-63.53-.98-17.99,10.34-29.28,29.64-29.29,50.29-.45,31.16,28.69,57.14,59.07,58.16,13.34,.27,26.15-4.28,37.63-12.03h0Z"/>
  <path class="cls-3" d="M79.98,40.63c8.34-9.94,21.4-16.36,34.55-16.03,18.78,.27,37.03,11.41,46.01,27.91,14.89,27.24,1.52,61.95-27.38,72.79-16.91,6.45-37.42,2.75-50.17-10.26,23.72,12.86,53.6,5.73,66.03-18.58,2.81-5.69,4.51-12.02,4.64-18.38,0,0,.07-1.47,.07-1.47l-.1-1.46c-.02-1.73-.24-4.11-.59-5.79-2.86-16.92-16.95-30.34-33.14-35.4-13.59-4.29-27.7-1.11-39.93,6.67h0Z"/>
  <path class="cls-3" d="M88.01,53.98c-9.8,2.79-14.69,15.73-10.94,28.9,3.75,13.17,14.73,21.59,24.53,18.8l4.53-13.21-3.39-12.91-14.73-21.59h0Z"/>
  <path class="cls-2" d="M112.54,72.78c3.75,13.17-1.15,26.11-10.94,28.9,.7-27.71-16.07-25.31-13.59-47.7,9.8-2.79,20.78,5.63,24.53,18.8Z"/>
  <path class="cls-5" d="M121.96,88.23l-.18,.05s.11-.07,.16-.11c.01,.02,.01,.04,.02,.06Z"/>
  <path class="cls-5" d="M132.98,53.13l-8.81,22.04-6.55,7.42c.15-2.62-.04-5.36-.62-8.14-.16-.8-.36-1.61-.59-2.41-1.72-6.04-4.97-11.08-8.92-14.5,7.96-7.89,18.95-9.94,25.49-4.41Z"/>
  <path class="cls-4" d="M122.02,88.47c-.08-.06-.16-.12-.24-.19,.05-.03,.11-.07,.16-.11,.01,.02,.01,.04,.02,.06,.02,.08,.04,.16,.06,.24Z"/>
  <path class="cls-4" d="M131.23,81.14c-4.34,5.13-9.91,8.33-15.22,9.23,.91-2.36,1.45-5,1.61-7.78,.15-2.62-.04-5.36-.62-8.14,4.43-7.98,4.03-15.08,15.98-21.32,7.07,5.97,6.28,18.51-1.75,28.01Z"/>
  <g>
    <path class="cls-1" d="M193.81,100.49c-3.53,0-6.49-1-8.9-3.01-2.4-2.01-3.6-4.9-3.6-8.67,0-2.86,1.46-5.49,4.38-7.89,2.92-2.4,7.51-4.21,13.78-5.43,.97-.18,2.07-.38,3.28-.59,1.22-.21,2.49-.44,3.83-.68v-7.21c0-4.14-.5-7.04-1.51-8.71-1-1.67-2.57-2.51-4.7-2.51-1.46,0-2.62,.47-3.47,1.41-.85,.94-1.4,2.57-1.64,4.88l-.18,1c-.12,2.62-.76,4.53-1.92,5.75-1.16,1.22-2.59,1.83-4.29,1.83-1.58,0-2.89-.49-3.92-1.46-1.04-.97-1.55-2.28-1.55-3.92,0-2.49,.87-4.59,2.6-6.3,1.73-1.7,4.03-2.98,6.89-3.83,2.86-.85,5.96-1.28,9.31-1.28,5.41,0,9.6,1.32,12.55,3.97,2.95,2.65,4.43,6.95,4.43,12.91v20.17c0,2.74,1.28,4.11,3.83,4.11h2.01l.82,.73c-1.16,1.46-2.42,2.59-3.79,3.38-1.37,.79-3.3,1.19-5.79,1.19-2.68,0-4.79-.62-6.34-1.87s-2.57-2.9-3.06-4.97c-1.83,1.95-3.7,3.6-5.61,4.97-1.92,1.37-4.4,2.05-7.44,2.05Zm5.57-5.57c1.22,0,2.36-.29,3.42-.87,1.06-.58,2.33-1.47,3.79-2.69v-15.33c-.61,.12-1.22,.24-1.82,.36-.61,.12-1.31,.24-2.1,.37-2.8,.73-5.03,1.96-6.71,3.7-1.67,1.73-2.51,4.06-2.51,6.98,0,2.5,.58,4.37,1.73,5.61,1.16,1.25,2.56,1.87,4.2,1.87Z"/>
    <path class="cls-1" d="M228.03,99.12v-.91l1.1-.37c2.19-.73,3.28-2.25,3.28-4.56V44.46c0-1.22-.24-2.14-.73-2.78-.49-.64-1.34-1.11-2.55-1.41l-1.19-.27v-.91l16.7-3.92,1.1,.82-.37,12.78v31.21c0,2.25,.01,4.49,.05,6.71,.03,2.22,.05,4.43,.05,6.62,0,1.22,.24,2.21,.73,2.97,.49,.76,1.31,1.32,2.46,1.69l1.19,.27v.91h-21.81Z"/>
    <path class="cls-1" d="M252.58,120.11v-.91l1.09-.37c2.25-.61,3.38-2.07,3.38-4.38v-49.64c0-1.34-.23-2.34-.68-3.01-.46-.67-1.29-1.12-2.51-1.37l-1.28-.27v-.91l15.51-5.29,.91,.91,.82,2.83c2.01-1.22,4.24-2.16,6.71-2.83,2.46-.67,5-1,7.62-1,5.23,0,9.38,1.99,12.46,5.98,3.07,3.99,4.61,9.69,4.61,17.11s-1.69,13.05-5.06,17.25c-3.38,4.2-8.14,6.3-14.28,6.3-4.81,0-8.85-.7-12.14-2.1v15.79c0,2.43,1.1,3.95,3.29,4.56l1.73,.46v.91h-22.17Zm24.91-22.26c3.04,0,5.46-1.58,7.25-4.75,1.79-3.16,2.69-8.42,2.69-15.79s-.85-12.52-2.56-15.47c-1.7-2.95-4.17-4.43-7.39-4.43-2.25,0-4.75,.73-7.48,2.19v36.77c2.31,.97,4.8,1.46,7.48,1.46Z"/>
    <path class="cls-1" d="M305.23,99.12v-.91l1.1-.37c2.19-.73,3.28-2.25,3.28-4.56V44.55c0-1.28-.21-2.22-.64-2.83-.43-.61-1.25-1.06-2.46-1.37l-1.37-.37v-.91l16.06-3.92,1.46,.82-.36,12.87v11.41c2.13-1.76,4.43-3.27,6.89-4.52,2.46-1.25,5.19-1.87,8.17-1.87,3.95,0,7.1,1.13,9.44,3.38,2.34,2.25,3.51,5.72,3.51,10.4v25.73c0,1.22,.24,2.19,.73,2.92,.49,.73,1.34,1.28,2.56,1.64l.73,.27v.91h-21.35v-.91l1.09-.27c2.19-.73,3.29-2.28,3.29-4.65v-28.65c0-2.43-.41-4.11-1.23-5.02-.82-.91-2.27-1.37-4.33-1.37-1.34,0-2.8,.26-4.38,.78-1.58,.52-3.19,1.41-4.84,2.69v31.75c0,2.37,1.1,3.89,3.29,4.56l.73,.18v.91h-21.35Z"/>
    <path class="cls-1" d="M370.65,100.49c-3.53,0-6.49-1-8.9-3.01-2.4-2.01-3.6-4.9-3.6-8.67,0-2.86,1.46-5.49,4.38-7.89,2.92-2.4,7.51-4.21,13.78-5.43,.97-.18,2.07-.38,3.28-.59,1.22-.21,2.49-.44,3.83-.68v-7.21c0-4.14-.5-7.04-1.51-8.71-1-1.67-2.57-2.51-4.7-2.51-1.46,0-2.62,.47-3.47,1.41-.85,.94-1.4,2.57-1.64,4.88l-.18,1c-.12,2.62-.76,4.53-1.92,5.75-1.16,1.22-2.59,1.83-4.29,1.83-1.58,0-2.89-.49-3.92-1.46-1.04-.97-1.55-2.28-1.55-3.92,0-2.49,.87-4.59,2.6-6.3,1.73-1.7,4.03-2.98,6.89-3.83,2.86-.85,5.96-1.28,9.31-1.28,5.41,0,9.6,1.32,12.55,3.97,2.95,2.65,4.43,6.95,4.43,12.91v20.17c0,2.74,1.28,4.11,3.83,4.11h2.01l.82,.73c-1.16,1.46-2.42,2.59-3.79,3.38-1.37,.79-3.3,1.19-5.79,1.19-2.68,0-4.79-.62-6.34-1.87s-2.57-2.9-3.06-4.97c-1.83,1.95-3.7,3.6-5.61,4.97-1.92,1.37-4.4,2.05-7.44,2.05Zm5.57-5.57c1.22,0,2.36-.29,3.42-.87,1.06-.58,2.33-1.47,3.79-2.69v-15.33c-.61,.12-1.22,.24-1.82,.36-.61,.12-1.31,.24-2.1,.37-2.8,.73-5.03,1.96-6.71,3.7-1.67,1.73-2.51,4.06-2.51,6.98,0,2.5,.58,4.37,1.73,5.61,1.16,1.25,2.56,1.87,4.2,1.87Z"/>
    <path class="cls-1" d="M420.2,100.31l-15.42-1.19v-.91l.91-.18c2.37-.55,3.56-2.07,3.56-4.56V44.64c0-1.28-.2-2.25-.59-2.92-.4-.67-1.2-1.12-2.42-1.37l-1.28-.37v-.91l16.24-3.92,1.09,.82-.36,12.87v9.22c2.01-1.4,4.2-2.45,6.57-3.15,2.37-.7,4.77-1.05,7.21-1.05,3.47,0,6.54,.81,9.22,2.42,2.68,1.61,4.79,4.11,6.34,7.48s2.33,7.71,2.33,13-.87,9.69-2.6,13.19c-1.73,3.5-4.05,6.13-6.94,7.89-2.89,1.76-6.07,2.65-9.54,2.65-2.25,0-4.52-.31-6.8-.91s-4.3-1.46-6.07-2.55l-1.46,3.29Zm9.76-2.92c1.95,0,3.65-.61,5.11-1.83,1.46-1.22,2.61-3.3,3.47-6.25,.85-2.95,1.28-7.01,1.28-12.18s-.4-9.16-1.19-11.95c-.79-2.8-1.9-4.75-3.33-5.84-1.43-1.09-3.15-1.64-5.16-1.64-2.86,0-5.51,.79-7.94,2.37v35.04c1.16,.73,2.34,1.29,3.56,1.69,1.22,.4,2.61,.59,4.2,.59Z"/>
    <path class="cls-1" d="M481.06,53.86c3.95,0,7.33,.81,10.13,2.42,2.8,1.61,4.94,3.8,6.43,6.57,1.49,2.77,2.24,5.92,2.24,9.44,0,.67-.03,1.35-.09,2.05-.06,.7-.18,1.32-.37,1.87h-27.19c.06,6.57,1.23,11.3,3.51,14.19,2.28,2.89,5.67,4.33,10.17,4.33,3.04,0,5.5-.49,7.39-1.46,1.89-.97,3.65-2.4,5.29-4.29l.91,.82c-1.89,3.35-4.4,5.96-7.53,7.85-3.13,1.88-6.89,2.83-11.27,2.83s-8.15-.93-11.5-2.78c-3.35-1.86-5.96-4.52-7.85-7.98-1.89-3.47-2.83-7.6-2.83-12.41s1.1-9.23,3.29-12.73c2.19-3.5,5-6.16,8.44-7.98,3.44-1.83,7.04-2.74,10.81-2.74Zm-.27,1.83c-1.77,0-3.27,.53-4.52,1.6-1.25,1.06-2.22,2.95-2.92,5.66-.7,2.71-1.08,6.52-1.14,11.45h15.6c.61-6.63,.36-11.41-.73-14.33-1.1-2.92-3.19-4.38-6.3-4.38Z"/>
    <path class="cls-1" d="M521.76,100.49c-3.89,0-6.92-.97-9.08-2.92-2.16-1.95-3.24-5.05-3.24-9.31v-31.21h-6.3v-.91l2.19-.37c1.89-.42,3.51-1.03,4.88-1.83,1.37-.79,2.72-1.85,4.06-3.19l7.48-8.3h.91l-.27,12.77h10.22v1.83h-10.31v32.85c0,2.13,.47,3.74,1.41,4.84,.94,1.09,2.14,1.64,3.6,1.64,1.28,0,2.4-.32,3.38-.96,.97-.64,1.95-1.51,2.92-2.6l.91,.91c-1.22,2.07-2.89,3.71-5.02,4.93-2.13,1.22-4.72,1.83-7.76,1.83Z"/>
  </g>
  <g>
    <path class="cls-1" d="M297.51,106.72h-5.17v13.39h-2.48v-13.39h-5.19v-2.17h12.84v2.17Z"/>
    <path class="cls-1" d="M321.07,120.11v-15.56h6.77c.7,0,1.34,.15,1.93,.44,.58,.29,1.09,.68,1.52,1.16,.43,.48,.77,1.02,1.01,1.62,.24,.6,.36,1.21,.36,1.84,0,.69-.12,1.34-.37,1.97-.25,.63-.6,1.17-1.06,1.62-.46,.45-1,.78-1.61,.99l3.66,5.92h-2.76l-3.37-5.41h-3.62v5.41h-2.45Zm2.45-7.58h4.3c.45,0,.85-.13,1.21-.39,.35-.26,.63-.62,.83-1.06,.2-.45,.31-.93,.31-1.46s-.12-1.03-.35-1.46c-.23-.43-.54-.78-.91-1.04-.37-.26-.78-.39-1.22-.39h-4.16v5.81Z"/>
    <path class="cls-1" d="M361.52,104.55h2.32l6.05,15.56h-2.59l-1.52-4.23h-6.22l-1.53,4.23h-2.61l6.09-15.56Zm3.61,9.51l-2.45-6.82-2.46,6.82h4.91Z"/>
    <path class="cls-1" d="M393.3,120.11v-15.56h5.52c1.68,0,3.08,.35,4.21,1.04,1.12,.69,1.97,1.63,2.53,2.8,.56,1.18,.84,2.48,.84,3.91,0,1.58-.31,2.95-.93,4.12s-1.5,2.07-2.64,2.72c-1.14,.64-2.48,.96-4.01,.96h-5.52Zm10.61-7.8c0-1.1-.2-2.06-.6-2.9s-.98-1.5-1.73-1.97-1.67-.71-2.75-.71h-3.07v11.22h3.07c1.1,0,2.02-.25,2.77-.75,.75-.5,1.33-1.17,1.72-2.02,.39-.85,.59-1.8,.59-2.87Z"/>
    <path class="cls-1" d="M430.46,120.11v-15.56h2.45v15.56h-2.45Z"/>
    <path class="cls-1" d="M460.35,109.11v11h-2.45v-15.56h2.02l8.81,11.24v-11.22h2.48v15.54h-2.15l-8.7-11Z"/>
    <path class="cls-1" d="M502.54,120.22c-1.02,0-1.98-.21-2.87-.64-.89-.42-1.67-1.01-2.33-1.75-.67-.75-1.18-1.59-1.56-2.54-.37-.95-.56-1.96-.56-3.02s.19-2.07,.56-3,.89-1.77,1.56-2.5c.66-.73,1.45-1.3,2.34-1.71,.9-.41,1.88-.61,2.95-.61,1.48,0,2.72,.31,3.74,.93,1.02,.62,1.78,1.44,2.29,2.46l-1.88,1.36c-.41-.85-.99-1.48-1.74-1.91s-1.57-.64-2.47-.64c-.73,0-1.4,.15-1.99,.46-.6,.31-1.11,.73-1.54,1.26-.43,.53-.76,1.14-.98,1.82-.22,.68-.33,1.39-.33,2.14,0,.79,.12,1.53,.37,2.21s.6,1.29,1.05,1.81c.45,.52,.99,.92,1.6,1.22s1.28,.44,1.99,.44c.85,0,1.65-.22,2.42-.65,.77-.43,1.49-1.08,2.16-1.94v2.5c-1.36,1.53-2.95,2.3-4.78,2.3Zm4.54-6.16h-3.27v-1.82h5.33v7.87h-2.06v-6.05Z"/>
  </g>
</svg>