<?xml version="1.0" encoding="UTF-8"?>
<svg id="Layer_1" data-name="Layer 1" xmlns="http://www.w3.org/2000/svg" viewBox="0 0 524.36 159.39">
  <defs>
    <style>
      .cls-1 {
        fill: #0f1426;
      }

      .cls-2 {
        fill: #207f76;
      }

      .cls-3 {
        fill: #4ba396;
      }

      .cls-4 {
        fill: #04514b;
      }

      .cls-5 {
        fill: #0f726b;
      }
    </style>
  </defs>
  <path class="cls-3" d="M60.94,126.76c-27.44,0-49.76-22.32-49.76-49.76S33.5,27.23,60.94,27.23s49.76,22.32,49.76,49.76-22.32,49.76-49.76,49.76Zm0-95.46c-25.2,0-45.7,20.5-45.7,45.7s20.5,45.7,45.7,45.7,45.7-20.5,45.7-45.7S86.14,31.29,60.94,31.29Z"/>
  <path class="cls-3" d="M43.96,58.44c-8.85,2.52-13.27,14.21-9.88,26.1,3.39,11.9,13.31,19.5,22.15,16.98l4.09-11.93-3.06-11.65-13.3-19.5h0Z"/>
  <path class="cls-2" d="M66.12,75.42c3.39,11.9-1.04,23.58-9.88,26.1,.64-25.02-14.51-22.86-12.27-43.08,8.85-2.52,18.77,5.08,22.15,16.98Z"/>
  <g>
    <path class="cls-1" d="M140.29,103.36c-3.76,0-6.92-1.07-9.48-3.21-2.56-2.14-3.84-5.21-3.84-9.23,0-3.04,1.56-5.85,4.67-8.41,3.11-2.56,8-4.49,14.68-5.78,1.04-.19,2.2-.4,3.5-.63,1.3-.23,2.66-.47,4.08-.73v-7.68c0-4.41-.53-7.5-1.6-9.28-1.07-1.78-2.74-2.67-5.01-2.67-1.56,0-2.79,.5-3.69,1.51-.91,1.01-1.49,2.74-1.75,5.2l-.19,1.07c-.13,2.79-.81,4.83-2.04,6.12-1.23,1.3-2.75,1.94-4.57,1.94-1.69,0-3.08-.52-4.18-1.55-1.1-1.04-1.65-2.43-1.65-4.18,0-2.66,.92-4.89,2.77-6.71,1.85-1.81,4.29-3.17,7.34-4.08,3.04-.91,6.35-1.36,9.91-1.36,5.77,0,10.22,1.41,13.36,4.23,3.14,2.82,4.71,7.4,4.71,13.75v21.48c0,2.92,1.36,4.37,4.08,4.37h2.14l.88,.78c-1.23,1.56-2.58,2.75-4.03,3.6-1.46,.84-3.52,1.26-6.17,1.26-2.85,0-5.1-.67-6.76-1.99-1.65-1.33-2.74-3.09-3.26-5.3-1.94,2.07-3.94,3.84-5.98,5.3-2.04,1.46-4.68,2.19-7.92,2.19Zm5.93-5.93c1.3,0,2.51-.31,3.65-.92,1.13-.62,2.48-1.57,4.03-2.87v-16.33c-.65,.13-1.3,.26-1.94,.39-.65,.13-1.39,.26-2.24,.39-2.98,.78-5.36,2.09-7.14,3.94-1.78,1.85-2.67,4.33-2.67,7.44,0,2.66,.62,4.65,1.85,5.98,1.23,1.33,2.72,1.99,4.47,1.99Z"/>
    <path class="cls-1" d="M176.74,101.9v-.97l1.17-.39c2.33-.78,3.5-2.4,3.5-4.86V43.68c0-1.3-.26-2.28-.78-2.96-.52-.68-1.43-1.18-2.72-1.51l-1.26-.29v-.97l17.79-4.18,1.17,.88-.39,13.61v33.24c0,2.4,.02,4.78,.05,7.14,.03,2.37,.05,4.71,.05,7.05,0,1.3,.26,2.35,.78,3.16,.52,.81,1.39,1.41,2.62,1.8l1.26,.29v.97h-23.23Z"/>
    <path class="cls-1" d="M202.88,124.26v-.97l1.17-.39c2.4-.65,3.6-2.2,3.6-4.67v-52.88c0-1.42-.24-2.49-.73-3.21-.49-.71-1.38-1.2-2.67-1.46l-1.36-.29v-.97l16.52-5.64,.97,.97,.87,3.01c2.14-1.3,4.52-2.3,7.14-3.01,2.62-.71,5.33-1.07,8.12-1.07,5.57,0,9.99,2.12,13.27,6.37,3.27,4.24,4.91,10.32,4.91,18.22s-1.8,13.9-5.39,18.37c-3.6,4.47-8.67,6.71-15.21,6.71-5.12,0-9.43-.75-12.93-2.24v16.82c0,2.59,1.17,4.21,3.5,4.86l1.85,.49v.97h-23.62Zm26.54-23.72c3.24,0,5.81-1.68,7.73-5.05,1.91-3.37,2.87-8.97,2.87-16.82s-.91-13.33-2.72-16.48c-1.81-3.14-4.44-4.71-7.87-4.71-2.4,0-5.05,.78-7.97,2.33v39.17c2.46,1.04,5.12,1.56,7.97,1.56Z"/>
    <path class="cls-1" d="M258.97,101.9v-.97l1.17-.39c2.33-.78,3.5-2.4,3.5-4.86V43.78c0-1.36-.23-2.36-.68-3.01-.45-.65-1.33-1.13-2.62-1.46l-1.46-.39v-.97l17.11-4.18,1.56,.88-.39,13.71v12.15c2.27-1.88,4.71-3.48,7.34-4.81,2.62-1.33,5.52-1.99,8.7-1.99,4.21,0,7.56,1.2,10.06,3.6,2.49,2.4,3.74,6.09,3.74,11.08v27.41c0,1.3,.26,2.33,.78,3.11,.52,.78,1.42,1.36,2.72,1.75l.78,.29v.97h-22.74v-.97l1.17-.29c2.33-.78,3.5-2.43,3.5-4.96v-30.52c0-2.59-.44-4.37-1.31-5.35-.87-.97-2.41-1.46-4.62-1.46-1.43,0-2.98,.28-4.67,.83-1.69,.55-3.4,1.51-5.15,2.87v33.83c0,2.53,1.17,4.15,3.5,4.86l.78,.19v.97h-22.74Z"/>
    <path class="cls-1" d="M328.66,103.36c-3.76,0-6.92-1.07-9.48-3.21-2.56-2.14-3.84-5.21-3.84-9.23,0-3.04,1.56-5.85,4.67-8.41,3.11-2.56,8-4.49,14.68-5.78,1.04-.19,2.2-.4,3.5-.63,1.3-.23,2.66-.47,4.08-.73v-7.68c0-4.41-.53-7.5-1.6-9.28-1.07-1.78-2.74-2.67-5.01-2.67-1.56,0-2.79,.5-3.69,1.51-.91,1.01-1.49,2.74-1.75,5.2l-.19,1.07c-.13,2.79-.81,4.83-2.04,6.12-1.23,1.3-2.75,1.94-4.57,1.94-1.69,0-3.08-.52-4.18-1.55-1.1-1.04-1.65-2.43-1.65-4.18,0-2.66,.92-4.89,2.77-6.71,1.85-1.81,4.29-3.17,7.34-4.08,3.04-.91,6.35-1.36,9.91-1.36,5.77,0,10.22,1.41,13.36,4.23,3.14,2.82,4.71,7.4,4.71,13.75v21.48c0,2.92,1.36,4.37,4.08,4.37h2.14l.88,.78c-1.23,1.56-2.58,2.75-4.03,3.6-1.46,.84-3.52,1.26-6.17,1.26-2.85,0-5.1-.67-6.76-1.99-1.65-1.33-2.74-3.09-3.26-5.3-1.94,2.07-3.94,3.84-5.98,5.3-2.04,1.46-4.68,2.19-7.92,2.19Zm5.93-5.93c1.3,0,2.51-.31,3.65-.92,1.13-.62,2.48-1.57,4.03-2.87v-16.33c-.65,.13-1.3,.26-1.94,.39-.65,.13-1.39,.26-2.24,.39-2.98,.78-5.36,2.09-7.14,3.94-1.78,1.85-2.67,4.33-2.67,7.44,0,2.66,.62,4.65,1.85,5.98,1.23,1.33,2.72,1.99,4.47,1.99Z"/>
    <path class="cls-1" d="M381.43,103.17l-16.43-1.26v-.97l.97-.19c2.53-.58,3.79-2.2,3.79-4.86V43.88c0-1.36-.21-2.4-.63-3.11-.42-.71-1.28-1.2-2.58-1.46l-1.36-.39v-.97l17.3-4.18,1.17,.88-.39,13.71v9.82c2.14-1.49,4.47-2.61,7-3.35,2.53-.74,5.09-1.12,7.68-1.12,3.69,0,6.96,.86,9.82,2.58,2.85,1.72,5.1,4.37,6.76,7.97,1.65,3.6,2.48,8.21,2.48,13.85s-.92,10.32-2.77,14.04c-1.85,3.73-4.31,6.53-7.39,8.41-3.08,1.88-6.46,2.82-10.16,2.82-2.4,0-4.81-.33-7.24-.97-2.43-.65-4.58-1.56-6.46-2.72l-1.56,3.5Zm10.4-3.11c2.07,0,3.89-.65,5.44-1.94,1.56-1.29,2.79-3.51,3.69-6.66,.91-3.14,1.36-7.47,1.36-12.98s-.42-9.75-1.26-12.73c-.84-2.98-2.03-5.05-3.55-6.22-1.52-1.17-3.35-1.75-5.49-1.75-3.05,0-5.87,.84-8.46,2.53v37.33c1.23,.78,2.49,1.38,3.79,1.8,1.3,.42,2.79,.63,4.47,.63Z"/>
    <path class="cls-1" d="M446.26,53.69c4.21,0,7.81,.86,10.79,2.58,2.98,1.72,5.26,4.05,6.85,7,1.59,2.95,2.38,6.3,2.38,10.06,0,.71-.03,1.44-.1,2.19-.07,.75-.19,1.41-.39,1.99h-28.97c.06,7,1.31,12.04,3.74,15.11,2.43,3.08,6.04,4.62,10.84,4.62,3.24,0,5.86-.52,7.87-1.55,2.01-1.04,3.89-2.56,5.64-4.57l.97,.88c-2.01,3.56-4.68,6.35-8.02,8.36-3.34,2.01-7.34,3.01-12,3.01s-8.68-.99-12.25-2.96c-3.56-1.98-6.35-4.81-8.36-8.5-2.01-3.69-3.01-8.1-3.01-13.22s1.17-9.83,3.5-13.56c2.33-3.73,5.33-6.56,8.99-8.5,3.66-1.94,7.5-2.92,11.52-2.92Zm-.29,1.94c-1.88,0-3.48,.57-4.81,1.7-1.33,1.13-2.37,3.14-3.11,6.03-.75,2.88-1.15,6.95-1.21,12.2h16.62c.65-7.06,.39-12.15-.78-15.26-1.17-3.11-3.4-4.67-6.71-4.67Z"/>
    <path class="cls-1" d="M489.61,103.36c-4.15,0-7.37-1.04-9.67-3.11-2.3-2.07-3.45-5.38-3.45-9.91V57.1h-6.71v-.97l2.33-.39c2.01-.45,3.74-1.1,5.2-1.94,1.46-.84,2.9-1.98,4.33-3.4l7.97-8.84h.97l-.29,13.61h10.89v1.94h-10.98v34.99c0,2.27,.5,3.99,1.51,5.15,1,1.17,2.28,1.75,3.84,1.75,1.36,0,2.56-.34,3.6-1.02,1.04-.68,2.07-1.6,3.11-2.77l.97,.97c-1.3,2.2-3.08,3.95-5.35,5.25-2.27,1.3-5.02,1.94-8.26,1.94Z"/>
  </g>
  <g>
    <path class="cls-1" d="M250.74,110h-5.51v14.26h-2.64v-14.26h-5.53v-2.31h13.68v2.31Z"/>
    <path class="cls-1" d="M275.84,124.26v-16.57h7.21c.75,0,1.43,.16,2.05,.47,.62,.31,1.16,.72,1.62,1.24,.46,.51,.82,1.09,1.07,1.73,.26,.64,.39,1.29,.39,1.96,0,.73-.13,1.43-.4,2.1-.26,.67-.64,1.25-1.13,1.73-.49,.48-1.06,.83-1.72,1.05l3.9,6.3h-2.94l-3.6-5.77h-3.85v5.77h-2.61Zm2.61-8.08h4.58c.48,0,.91-.14,1.28-.42s.67-.66,.89-1.13,.33-.99,.33-1.55-.12-1.09-.37-1.55c-.25-.46-.57-.83-.97-1.11-.4-.28-.83-.42-1.3-.42h-4.44v6.19Z"/>
    <path class="cls-1" d="M318.93,107.68h2.47l6.44,16.57h-2.75l-1.62-4.5h-6.63l-1.63,4.5h-2.78l6.49-16.57Zm3.85,10.13l-2.61-7.26-2.62,7.26h5.23Z"/>
    <path class="cls-1" d="M352.78,124.26v-16.57h5.88c1.79,0,3.28,.37,4.48,1.11,1.2,.74,2.1,1.74,2.7,2.99,.6,1.25,.9,2.64,.9,4.17,0,1.68-.33,3.14-.99,4.39-.66,1.25-1.6,2.21-2.81,2.89-1.21,.69-2.64,1.03-4.27,1.03h-5.88Zm11.3-8.31c0-1.17-.21-2.2-.64-3.09-.43-.89-1.04-1.59-1.84-2.1-.8-.51-1.78-.76-2.93-.76h-3.27v11.95h3.27c1.17,0,2.15-.26,2.95-.79,.8-.53,1.41-1.25,1.83-2.15,.42-.9,.63-1.92,.63-3.06Z"/>
    <path class="cls-1" d="M392.37,124.26v-16.57h2.61v16.57h-2.61Z"/>
    <path class="cls-1" d="M424.21,112.54v11.72h-2.61v-16.57h2.15l9.38,11.98v-11.95h2.64v16.55h-2.29l-9.27-11.72Z"/>
    <path class="cls-1" d="M469.14,124.38c-1.09,0-2.11-.23-3.06-.68-.95-.45-1.78-1.07-2.49-1.87s-1.26-1.7-1.66-2.71-.6-2.08-.6-3.22,.2-2.2,.6-3.2,.95-1.88,1.66-2.66,1.54-1.39,2.5-1.82,2-.65,3.14-.65c1.57,0,2.9,.33,3.98,.99s1.89,1.54,2.44,2.63l-2.01,1.45c-.44-.9-1.05-1.58-1.86-2.03-.8-.45-1.68-.68-2.63-.68-.78,0-1.49,.16-2.12,.49s-1.19,.77-1.65,1.34c-.46,.57-.81,1.21-1.04,1.94s-.35,1.48-.35,2.28c0,.84,.13,1.63,.4,2.36,.26,.73,.64,1.37,1.12,1.93,.48,.55,1.05,.98,1.7,1.29,.65,.31,1.36,.47,2.12,.47,.9,0,1.76-.23,2.58-.69,.82-.46,1.58-1.15,2.3-2.07v2.66c-1.45,1.63-3.14,2.45-5.09,2.45Zm4.83-6.56h-3.48v-1.94h5.67v8.38h-2.19v-6.44Z"/>
  </g>
  <path class="cls-5" d="M83.97,56.86l-7.98,19.92-5.87,6.63c.1-2.34-.07-4.82-.56-7.32-.17-.69-.36-1.42-.56-2.14-1.55-5.44-4.49-9.99-8.05-13.1,7.19-7.12,17.09-8.97,23.02-3.99Z"/>
  <path class="cls-4" d="M82.38,82.16c-3.89,4.62-8.94,7.49-13.72,8.31,.82-2.14,1.32-4.52,1.45-7.06,.1-2.34-.07-4.82-.56-7.32,3.96-7.19,3.6-13.59,14.41-19.23,6.37,5.41,5.67,16.72-1.58,25.3Z"/>
</svg>