<svg xmlns="http://www.w3.org/2000/svg" id="Layer_1" data-name="Layer 1" viewBox="0 0 518.4 600.33">
  <defs>
    <style>
      .cls-1 {
        fill: #322438;
      }

      .cls-2 {
        fill: #b1c658;
      }
    </style>
  </defs>
  <path class="cls-2" d="M339.41,208.73c-3.04,20-6.8,39.24-13.34,56.68l.03-.02c-14.28,39.35-47.51,75.87-64.05,84.26-2.06-1.34-4.05-2.75-5.99-4.22h-.01c.27-.21,.54-.42,.8-.63,.08-.05,.16-.11,.24-.18,.19-.14,.36-.3,.55-.45,.02-.02,.05-.04,.07-.05,.29-.24,.57-.46,.85-.69,.13-.11,.25-.21,.38-.31,2.2-1.79,4.34-3.63,6.39-5.57,3.94-3.74,7.6-7.77,10.97-12.08,0-.01-.01-.01-.01-.01,.01-.01,.03-.02,.04-.02,12.15-15.55,20.5-34.67,24.39-56.47,7.26-40.63-1.27-87.24-24.64-134.8-1.28-2.6-2.58-5.17-3.92-7.69,28.54-41.58,62.5-64.85,97.2-66.68-27.38,40.32-26.39,109.2-29.95,148.93Z"/>
  <path class="cls-2" d="M471.53,158.55v.03c-2.04,25.45-9.92,52.84-23.24,79.93-20.73,42.17-48.21,73.07-79.49,89.37-20.47,10.66-41.59,14.21-61.27,10.53,47.5-36.82,55.55-95.35,62.82-148.26,6.72-48.81,12.74-92.54,44.31-120.34,32.42,16.35,52.72,48.49,56.87,88.74Z"/>
  <path class="cls-2" d="M204.58,338.41c-19.68,3.68-40.8,.13-61.27-10.53-31.28-16.3-58.76-47.2-79.49-89.37-13.33-27.11-21.21-54.52-23.25-79.99,4.16-40.25,24.46-72.37,56.87-88.72,31.58,27.8,37.6,71.53,44.32,120.35,7.27,52.91,15.32,111.44,62.82,148.26Z"/>
  <path class="cls-2" d="M256.05,345.42h0s-.01,.01-.01,.01c-1.93,1.47-3.93,2.88-5.98,4.22h-.01c-16.53-8.4-49.74-44.91-64.02-84.25-6.5-17.35-10.26-36.49-13.29-56.37-.01-.01-.01-.03-.01-.05-3.58-39.7-2.53-108.78-29.98-149.18,34.71,1.84,68.66,25.11,97.19,66.7-1.33,2.52-2.63,5.07-3.91,7.67-23.37,47.56-31.9,94.17-24.64,134.8,3.89,21.8,12.25,40.93,24.41,56.48h.01c3.37,4.32,7.03,8.36,10.97,12.1,2.28,2.16,4.65,4.23,7.12,6.18,.37,.3,.74,.6,1.12,.89,.17,.14,.34,.27,.51,.4,.08,.07,.16,.14,.25,.2,.09,.06,.18,.13,.27,.2Z"/>
  <g>
    <path class="cls-2" d="M262.11,557.02l.66-2.79h18.33l-.66,2.79h-7.63l-5.9,25.58h-3.12l5.9-25.58h-7.58Z"/>
    <path class="cls-2" d="M309.83,554.23c2.49,0,4.34,.53,5.56,1.6,1.22,1.07,1.82,2.95,1.82,5.64s-.73,4.91-2.19,6.66c-1.46,1.75-3.16,2.9-5.1,3.44l3.12,11.03h-3.16l-2.91-10.62h-6.72l-2.5,10.62h-3.12l6.56-28.37h8.65Zm4.1,6.93c0-1.53-.34-2.61-1.03-3.24-.68-.63-1.82-.94-3.4-.94h-5.82l-2.83,12.26h6.03c2.13,0,3.84-.75,5.12-2.26,1.28-1.5,1.93-3.44,1.93-5.82Z"/>
    <path class="cls-2" d="M331.44,582.6l14.15-28.37h6.11l.57,28.37h-3.12l-.25-7.26h-10.62l-3.65,7.26h-3.2Zm15.99-25.58l-7.83,15.58h9.35l-.29-15.58h-1.23Z"/>
    <path class="cls-2" d="M382.56,582.6h-9.8l6.56-28.37h9.1c2.6,0,4.56,.67,5.88,2.01,1.33,1.34,1.99,3.48,1.99,6.44,0,3.8-.71,7.38-2.13,10.74-.74,1.75-1.63,3.3-2.67,4.65-1.04,1.35-2.33,2.45-3.87,3.28-1.54,.83-3.23,1.25-5.06,1.25Zm8.02-8.88c.78-1.76,1.38-3.61,1.8-5.54s.64-3.83,.64-5.7-.41-3.25-1.23-4.14c-.82-.89-2.15-1.33-3.98-1.33h-6.03l-5.21,22.8h6.44c1.61,0,3.08-.57,4.41-1.72,1.33-1.15,2.38-2.6,3.16-4.37Z"/>
    <path class="cls-2" d="M414.05,582.6l6.56-28.37h3.12l-6.56,28.37h-3.12Z"/>
    <path class="cls-2" d="M439.96,582.6l6.56-28.37h5.58l4.26,25.13h.78l5.78-25.13h3.08l-6.56,28.37h-5.37l-4.43-25.3h-.82l-5.86,25.3h-2.99Z"/>
    <path class="cls-2" d="M492.24,583.01c-5.71,0-8.57-2.68-8.57-8.04s1.16-10.17,3.48-14.35c1.15-2.05,2.69-3.7,4.61-4.94,1.93-1.24,4.09-1.87,6.5-1.87s4.66,.33,7.01,.98l1.15,.29-.78,2.38c-2.73-.57-5.33-.86-7.79-.86-1.48,0-2.83,.39-4.06,1.17-1.23,.78-2.26,1.8-3.08,3.08s-1.52,2.73-2.09,4.37c-1.12,3.06-1.68,6.33-1.68,9.8s1.87,5.21,5.62,5.21c1.2,0,2.61-.16,4.22-.49l.74-.12,2.13-9.02h-4.3l.61-2.71h7.46l-3.28,14.02c-2.41,.74-5.04,1.11-7.91,1.11Z"/>
  </g>
  <g>
    <path class="cls-1" d="M14.23,525.29h2.17c1.94,0,3.53-1.37,4.33-3.53l17.67-49.48c.68-1.71-.34-3.31-2.05-3.31h-5.02v-11.97h37.96l21.32,65.43c.46,1.48,2.28,2.85,3.65,2.85h2.39v11.51H59.49v-11.51h9.8l-4.1-13h-25.88l-.91,2.74c-2.28,6.61-1.71,10.26,3.76,10.26h3.99v11.51H14.23v-11.51Zm47.65-23.94l-8.78-28.16h-.23l-9.8,28.16h18.81Z"/>
    <path class="cls-1" d="M98.47,525.29h3.88c1.25,0,2.85-1.6,2.85-2.85v-50.5c0-1.25-1.6-2.96-2.85-2.96h-4.22v-11.97h24.17c2.05,0,3.19,1.6,3.19,4.33v61.1c0,1.25,1.6,2.85,2.85,2.85h4.1v11.51h-33.97v-11.51Z"/>
    <path class="cls-1" d="M133.7,544.56h3.53c1.25,0,2.85-1.6,2.85-2.85v-49.7c0-1.14-1.6-2.96-2.85-2.96h-3.88v-12.2h22.91c1.94,0,3.19,1.48,3.76,7.07,4.45-4.67,10.03-8.09,18.01-8.09,11.4,0,22.46,7.64,22.46,29.41s-12.77,30.32-25.76,30.32c-6.61,0-11.06-1.6-14.48-4.1v13.11h6.61v10.72h-33.17v-10.72Zm46.28-37.51c0-13.45-5.47-16.64-11.86-16.64-2.39,0-5.24,.68-7.87,1.48v30.32c2.05,1.25,4.45,1.94,7.75,1.94,6.04,0,11.97-2.85,11.97-17.1Z"/>
    <path class="cls-1" d="M202.21,525.29h3.53c1.25,0,2.74-1.71,2.74-2.85v-50.62c0-1.14-1.48-2.85-2.74-2.85h-3.88v-11.97h23.71c2.05,0,3.19,1.6,3.19,4.33v23.26c5.36-5.13,12.77-8.78,21.77-8.78,8.21,0,15.5,3.31,15.5,14.71v31.92c0,1.25,1.6,2.85,2.85,2.85h2.62v11.51h-31.35v-11.51h5.59v-27.36c0-5.36-2.17-6.73-7.64-6.73-3.08,0-6.38,.68-9.35,1.48v32.6h5.81v11.51h-32.38v-11.51Z"/>
    <path class="cls-1" d="M309.83,530.31c-4.45,5.24-10.03,7.18-17.33,7.18-10.72,0-19.04-5.81-19.04-17.56,0-13,9.58-18.81,23.48-18.81,4.79,0,8.09,.34,11.74,1.14v-4.9c0-5.24-2.85-7.64-9.46-7.64s-10.15,2.51-12.88,4.79h-8.78v-14.36c5.93-2.39,14.25-4.33,26.22-4.33,16.99,0,25.19,5.59,25.19,19.38v27.25c0,1.25,1.48,2.85,2.74,2.85h2.74v9.69c-2.85,1.71-6.95,2.74-11.97,2.74-7.3,0-11.06-2.74-12.65-7.41Zm-1.14-7.64v-10.94c-2.17-.46-4.67-.68-7.07-.68-5.47,0-8.78,2.28-8.78,7.41s3.08,7.41,7.52,7.41c3.31,0,5.93-1.14,8.32-3.19Z"/>
    <path class="cls-1" d="M357.37,530.65c-1.71,3.31-4.1,6.16-5.59,6.16h-12.54v-64.87c0-1.25-1.6-2.96-2.85-2.96h-3.76v-11.97h23.71c1.94,0,3.08,1.6,3.08,4.33v23.14c4.56-4.9,10.26-8.66,18.7-8.66,11.29,0,22.34,7.18,22.34,29.75s-12.08,32.15-25.65,32.15c-8.78,0-13.91-2.96-17.44-7.07Zm22.57-23.26c0-13.91-5.47-16.99-11.74-16.99-2.74,0-5.93,.8-8.78,1.82v31.01c2.17,1.6,4.79,2.62,8.55,2.62,6.04,0,11.97-3.53,11.97-18.47Z"/>
    <path class="cls-1" d="M403.08,507.17c0-19.27,12.2-31.35,31.24-31.35s28.39,9.35,28.39,29.98c0,2.39-.23,4.45-.23,5.13h-38.87c.8,10.03,5.02,14.48,13.34,14.48,6.84,0,9.69-2.39,12.43-5.81h11.06v12.43c-5.13,3.08-12.31,5.7-25.42,5.7-21.89,0-31.92-11.74-31.92-30.55Zm40.13-6.73c-.57-9.23-3.19-12.77-8.89-12.77s-9.46,3.65-10.49,12.77h19.38Z"/>
    <path class="cls-1" d="M471.02,521.07v-32.03h-6.5v-12.2h6.5v-15.85h20.29v15.85h11.17v12.2h-11.17v29.07c0,5.93,2.05,7.18,7.98,7.18h3.19v10.94c-2.74,.8-6.27,1.6-11.4,1.6-12.31,0-20.06-3.65-20.06-16.76Z"/>
  </g>
  <g>
    <path class="cls-1" d="M276.29,325.46s.01,0,.01,.01c.01-.01,.02-.02,.03-.03-.01,0-.03,0-.04,.02Z"/>
    <path class="cls-1" d="M247.94,351c-3.19,2-6.5,3.85-9.93,5.53-.4,.2-.8,.39-1.2,.58-.06-.03-.12-.05-.18-.08,.86-.39,1.72-.8,2.58-1.22,3.01-1.47,5.92-3.08,8.73-4.81Z"/>
    <g>
      <path class="cls-1" d="M276.33,325.44s-.02,.02-.03,.03c0-.01-.01-.01-.01-.01,.01-.01,.03-.02,.04-.02Z"/>
      <path class="cls-1" d="M275.47,357.04c-.06,.02-.11,.05-.17,.07-.4-.19-.8-.38-1.2-.58-3.43-1.69-6.75-3.53-9.94-5.53,2.8,1.73,5.71,3.34,8.72,4.81,.86,.42,1.72,.83,2.59,1.23Z"/>
    </g>
    <g>
      <path class="cls-1" d="M256.05,345.42c-.09-.07-.18-.14-.27-.2,.09,.07,.17,.14,.26,.21h.02c.27-.21,.53-.41,.79-.63-.26,.21-.53,.42-.8,.62Z"/>
      <path class="cls-1" d="M497.68,116.92c-5.04-29.03-17.73-53.32-36.6-70.77-6.38-5.91-13.48-11.04-21.23-15.31-1.48-.81-2.98-1.59-4.5-2.34-1.24-.61-2.49-1.2-3.75-1.75-5.29-2.36-10.7-4.27-16.2-5.75-1.84-.49-3.68-.93-5.54-1.32-.93-.2-1.86-.38-2.79-.56-1.86-.34-3.73-.63-5.61-.88-4.7-.61-9.46-.92-14.24-.92-8.64,0-17.39,1-26.15,2.99-1.25,.29-2.51,.59-3.76,.92-.63,.16-1.25,.33-1.88,.5-1.25,.35-2.5,.71-3.75,1.1-8.14,2.51-16.26,5.87-24.29,10.09-26.99,14.18-51.22,36.88-71.33,66.59-20.12-29.71-44.35-52.41-71.34-66.59-8.03-4.22-16.15-7.58-24.29-10.09-1.25-.39-2.5-.75-3.75-1.1-.63-.17-1.26-.34-1.89-.5-1.25-.33-2.5-.63-3.75-.92-8.77-1.99-17.51-2.99-26.15-2.99-4.78,0-9.54,.3-14.24,.92-1.88,.25-3.75,.54-5.61,.88-.93,.18-1.86,.36-2.79,.56-1.85,.39-3.7,.83-5.54,1.32-5.5,1.48-10.91,3.39-16.2,5.75-1.26,.55-2.51,1.14-3.75,1.75-1.52,.75-3.02,1.53-4.5,2.34-7.75,4.27-14.85,9.4-21.23,15.31-18.87,17.45-31.56,41.74-36.6,70.77-7.11,40.89,1.29,87.21,24.26,133.94,23.38,47.56,55.08,82.78,91.69,101.85,19.39,10.1,39.39,15.17,58.9,15.17,16.4,0,32.47-3.58,47.53-10.77-.06-.03-.12-.05-.18-.08,.86-.39,1.72-.8,2.58-1.22,3.01-1.47,5.92-3.08,8.73-4.81,.7-.44,1.39-.88,2.08-1.33,.01,0,.02-.01,.03-.02-16.53-8.4-49.74-44.91-64.02-84.25-6.5-17.35-10.26-36.49-13.29-56.37-.01-.01-.01-.03-.01-.05-1.14-7.46-2.18-15.03-3.23-22.64-4.47-32.48-9.09-66.07-22.41-94.95-5.38-11.66-11.92-21.97-19.7-30.99-.77-.9-1.55-1.79-2.37-2.67-1.64-1.81-3.35-3.56-5.11-5.26-2.25-2.19-4.59-4.27-7.01-6.27,3.96-.6,7.96-.89,11.98-.89,40.83,0,84.07,29.84,115.1,81.12-.01,.02-.02,.05-.04,.07-1.33,2.52-2.63,5.07-3.91,7.67-23.37,47.56-31.9,94.17-24.64,134.8,3.89,21.8,12.25,40.93,24.41,56.48h.01c3.37,4.32,7.03,8.36,10.97,12.1,2.28,2.16,4.65,4.23,7.12,6.18,.37,.3,.74,.6,1.12,.89,.17,.14,.34,.27,.51,.4,.08,.07,.16,.14,.25,.2,.09,.06,.18,.13,.27,.2,.27-.2,.54-.41,.8-.62,.08-.05,.16-.11,.24-.18,.19-.14,.36-.3,.55-.45,.02-.02,.05-.04,.07-.05,.29-.24,.57-.46,.85-.69,.13-.11,.25-.21,.38-.31,2.2-1.79,4.34-3.63,6.39-5.57,3.94-3.74,7.6-7.77,10.97-12.08,0-.01-.01-.01-.01-.01,.01-.01,.03-.02,.04-.02,12.15-15.55,20.5-34.67,24.39-56.47,7.26-40.63-1.27-87.24-24.64-134.8-1.28-2.6-2.58-5.17-3.92-7.69-.01-.02-.02-.03-.03-.05,31.03-51.28,74.27-81.12,115.1-81.12,4.02,0,8.02,.29,11.98,.89-2.43,2-4.77,4.09-7.02,6.27-1.76,1.7-3.46,3.45-5.1,5.26-.82,.88-1.61,1.77-2.38,2.67-7.77,9.02-14.31,19.33-19.69,30.99-13.32,28.88-17.94,62.47-22.41,94.95-1.04,7.53-2.07,15.01-3.2,22.39-3.04,20-6.8,39.24-13.34,56.68l.03-.02c-14.28,39.35-47.51,75.87-64.05,84.26,.03,.02,.06,.04,.09,.06,.67,.44,1.34,.87,2.02,1.29,2.8,1.73,5.71,3.34,8.72,4.81,.86,.42,1.72,.83,2.59,1.23-.06,.02-.11,.05-.17,.07,15.06,7.19,31.13,10.77,47.53,10.77,19.51,0,39.51-5.07,58.9-15.17,36.61-19.07,68.31-54.29,91.69-101.85,22.97-46.73,31.37-93.05,24.26-133.94ZM141.76,190.15c7.27,52.91,15.32,111.44,62.82,148.26-19.68,3.68-40.8,.13-61.27-10.53-31.28-16.3-58.76-47.2-79.49-89.37-13.33-27.11-21.21-54.52-23.25-79.99-1.03-12.86-.57-25.23,1.44-36.81,4.88-28.14,18.63-50.35,39.06-63.52,6.12,3.47,11.54,7.35,16.37,11.61,31.58,27.8,37.6,71.53,44.32,120.35Zm131.4,73.9c-2.78,15.56-8.39,29.31-16.43,40.72-.22,.32-.45,.63-.68,.94-.22-.31-.45-.62-.67-.94-8.04-11.41-13.65-25.16-16.43-40.72-5.66-31.7,.25-68.34,17.11-106.57,16.85,38.23,22.76,74.87,17.1,106.57Zm198.37-105.5v.03c-2.04,25.45-9.92,52.84-23.24,79.93-20.73,42.17-48.21,73.07-79.49,89.37-20.47,10.66-41.59,14.21-61.27,10.53,47.5-36.82,55.55-95.35,62.82-148.26,6.72-48.81,12.74-92.54,44.31-120.34,4.83-4.27,10.26-8.15,16.38-11.62,20.43,13.17,34.18,35.38,39.06,63.52,2.01,11.59,2.48,23.97,1.43,36.84Z"/>
      <path class="cls-1" d="M276.29,325.46s.01,0,.01,.01c.01-.01,.02-.02,.03-.03-.01,0-.03,0-.04,.02Z"/>
    </g>
  </g>
</svg>