<svg width="54" height="54" viewBox="0 0 54 54" fill="none" xmlns="http://www.w3.org/2000/svg">
<g clip-path="url(#clip0_172_138)">
<path fill-rule="evenodd" clip-rule="evenodd" d="M0 27C0 12.06 12.06 0 27 0C41.94 0 54 12.06 54 27C54 41.94 41.94 54 27 54C12.06 54 0 41.94 0 27ZM36.42 16.86C36.6 16.68 36.54 16.38 36.3 16.26C33.42 14.88 29.88 15.54 26.94 17.82C29.1 19.32 30.78 21.6 31.62 24.36C31.74 24.06 31.8 23.82 31.92 23.58L32.04 23.28C32.64 21.6 33.54 20.04 34.74 18.72L36.42 16.86ZM26.1 37.56C26.22 37.74 26.46 37.86 26.64 37.74C30.36 35.82 32.22 30.54 30.84 25.2C29.46 19.86 25.32 16.2 21.12 16.32C20.94 16.32 20.76 16.5 20.76 16.74L20.88 19.26C21 21.06 21.42 22.8 22.2 24.42L22.38 24.66C23.16 26.28 23.58 28.02 23.7 29.82V30.12C23.82 31.92 24.24 33.66 25.02 35.28L26.1 37.56ZM14.04 29.52C15.48 35.28 20.22 39.12 24.72 38.34C24.96 38.34 25.08 38.04 25.02 37.86L23.94 35.58C23.16 33.96 22.74 32.22 22.62 30.42V30.12C22.5 28.32 22.08 26.58 21.3 24.96L21.18 24.72C20.4 23.1 19.98 21.36 19.86 19.56L19.74 17.04C19.74 16.8 19.44 16.62 19.2 16.68C14.88 18.12 12.54 23.76 14.04 29.52L14.04 29.52ZM29.1 36.78C32.58 36.72 36.24 34.44 38.52 30.6C41.34 25.86 40.98 20.28 37.98 17.46C37.8 17.28 37.56 17.28 37.38 17.46L35.7 19.32C34.5 20.64 33.6 22.2 33 23.88L32.88 24.18C32.64 24.84 32.34 25.5 32.04 26.1C32.76 30.12 31.56 34.08 29.1 36.78H29.1Z" fill="#086965"/>
</g>
<defs>
<clipPath id="clip0_172_138">
<rect width="54" height="54" fill="white"/>
</clipPath>
</defs>
</svg>
