<?xml version="1.0" encoding="UTF-8"?>
<svg id="Layer_2" data-name="Layer 2" xmlns="http://www.w3.org/2000/svg" viewBox="0 0 656.94 453">
  <defs>
    <style>
      .cls-1, .cls-2, .cls-3, .cls-4, .cls-5, .cls-6, .cls-7 {
        stroke-linecap: round;
        stroke-linejoin: round;
      }

      .cls-1, .cls-3 {
        stroke: #739b97;
      }

      .cls-1, .cls-4, .cls-6 {
        stroke-width: 2px;
      }

      .cls-1, .cls-5, .cls-6 {
        fill: #ddd;
      }

      .cls-2 {
        fill: #fff;
      }

      .cls-2, .cls-4, .cls-6 {
        stroke: #fff;
      }

      .cls-8 {
        fill: #3d9b8f;
      }

      .cls-3, .cls-7 {
        fill: #ededed;
      }

      .cls-4 {
        fill: #c2d4d1;
      }

      .cls-5, .cls-7 {
        stroke: #1a7771;
      }

      .cls-9 {
        fill: #7f7f7f;
      }
    </style>
  </defs>
  <path id="ETH3109" class="cls-6" d="M343.43,105.08l-.62,1.81-.06,.4v.96l.28,1.13,.96,1.99,.28,1.02v.57l-.06,.51v.45l.74,1.02,.23,.51,.11,.62,.11,.57-.06,1.13,.06,.51,.23,.57,.23,.51,.51,.62,.91,.57,.06,.17-.28,3.74v1.08l.28,.74,1.3,2.44,.68,.79,.79,.68,.85,.4,.28,.4,.23,.85,.28,1.99,.34,.85,1.59,2.67,.34,.91,.34,2.1v1.13l-.11,1.13,1.19,1.25,.68,.68,.57,.74,1.53,2.78,.4,1.02,.23,1.02,.11,1.81,.17,1.36v.68l-.17,.68-.23,.57-2.16,3.23,.96,1.08,.4,1.02-.06,1.02-.4,1.02-1.13,1.93-.28,.85v.85l.45,1.02,1.19,1.47,.23,.45v.85l-.4,1.87v.96l.85,2.78,.06,.51-.17,.74-.45,.79-.17,.79-.4,4.82-.11,.74-.74,1.76-.11,1.08,.11,.96,.23,1.02,.11,1.02-.06,.79-.28,.23-.57-.06-.85-.23-.79-.11-.91-.06-.91,.23-.62,.51-.4,.96,.06,.79,.45,.68,.85,.62,1.13,.68,.79,.57,.34,.79-.06,1.47-.28,.79-1.08,1.53-.34,.74-1.02,1.36v.51l.45,.85,.17,.45-.51,1.08h-1.47l-3.18-.91-1.53,.4,.11,1.53,1.42,3.63,.06,1.99-.23,1.93-.74,1.76-1.36,1.36-.79,.57-.51,.62-.11,.57,.51,.62,.4,.17,1.02,.28,.51,.23,1.36,1.08-.06,1.81-1.02,1.76-1.25,1.7-.91,1.47-1.64,1.36,.11,7.77-.4,1.13-1.19,.74-3.86,1.36-1.3,.79-1.81,1.3-.79,.17-.96-.51-1.36-2.1-1.13-.4-.57,.23-1.93,1.93-.85,.06-.68-.17-.45-.34-.28-.4-.96-2.1-.06-.62,.11-.74-.11-2.21,3.23-5.27,.45-1.25-.11-1.13-.79-.62-1.99-.4-.79-.62-.51-1.25-.34-1.42-.11-1.08,.23-.34,.62-.06,.91,.06,3.23-.23,.51-.23,1.87-1.36,.96-.17,1.3,.45h.06l-2.21-2.33-.23-.34,.11-.91-.79-.45-1.13-.23-.85,.06-1.36-.28-1.25-1.59-1.36-2.44-1.81-2.67-4.37-1.93-6.86-1.42-2.44-1.19-1.25-1.53-.62-1.76-.28-1.87-.06-1.93-.11-.23-.68-1.02-.45-.4-.68-.51-2.38-.91-.74-.68-.06-1.13,1.47,.28,1.47-.34,2.5-1.3,.45-.57,1.64-7.71,.06-1.42-.68-.51-4.37-.79-8.85,.45-.34,.28-.23,.4-.96,4.14-.28,.4-.28,.28-.4,.17-.17,.23v.51l.28,.79,.06,.4-.11,.45-.51,.74-.85,.4-.96,.17h-.91l-.96-.28-.74,.11-1.02,.34-1.08,.23-.45,.4-.34,.79-.96,.96-.62,.4-2.27,.57-5.39,2.55-1.76,1.25-.34,.11-1.02,.11-.28,.17-.57,.74-.34,.34-2.67,1.47-.34,.11-.96-.17-.57,.11-1.02,.57h-.62l-3.52-2.61-.57-.68-.23-.45-.85-1.02-.79-1.08-.51-.4-3.63-1.64-1.25-.34-1.3-.17-.57,.17-.34,1.08-.4,.45-.4,.06-.28-.23-.45-.62-.17-.45v-.85l-.06-.45-.28-.4-.62-.28-.62-.17h-.51l-.68,.11-.57-.23-.91-.96-.51-1.3,.45-1.13,.57-1.13-.11-1.02-.57-.28h-2.55l-.74-.28-.74-.4-1.08-.91-5.44-1.02-1.53-.57-.79-.17-1.76-.11-.74-.28-.68-.68h-.34l-.91,.23-.34,.06-4.31-.4h-1.76l-.74-.28-.51-.74-.06-.68,.11-.68v-.62l-.4-.57-.45-.17-.4,.06-1.87,.91-.91-.06-.91-.62-.79-.96-.79-1.19-.57-1.64-.28-2.16,2.5-5.61-.51-.68h-.85l-.74,.28-.51,.51-.34,.79h-.11l-.11-.68v-1.08l.11-1.13,.91-2.16v-.57l.11-.57,.51-.79,.62-.79,.57-.62,1.99-1.53,1.02-1.13,.96-1.64-1.13-2.44,.11-.51,.34-.68-.11-.79-.17-.79-.11-.68,.4-.85,.68-.96,.57-1.13,.11-1.53-2.33-2.33-.62-.4-.91-.79,.34-.79,.74-.74,.45-.62-.06-.34-2.21-3.35-1.25-1.3-.45-.74-.17-3.46,.17-2.55-.23-.4-.91,.28-1.47,1.08-1.47,1.3-1.59,1.7-.68,.45-.79,.06-.74-.34-.57-1.76-.28-1.93-.4-.91-.91-1.13-1.3-2.16-.17-.23-1.59-1.36-.51-.51-.45-1.02-.34-.45-.91-.57-.17-.17-.62-.17h-1.08l-.96-.11-.45-.74-.4-.06h-1.13l-1.59-.17-.23,.23-1.02,2.5-.62,.85-4.76,3.74-.91,.96-.79,.68-.79,.11-1.02-.11-1.13,.17-2.1,.68h-.79l-.91-.45-.96-.79-1.02-1.13-1.47-3.46-.96-.85,.11-.51,.34-.34,1.42-.85,.74-.85,.28-.91,.4-2.1,.68-1.7,.28-.45,.34-.34,.85-.4,.4-.34,.34-.51,.11-.51,.11-1.08,.4-1.08,7.09-11.91,.34-.4,.34-.11,.74-.06,.28-.17,.4-.4,.45-1.81,.11-.28,.57-.28,.96-.34,11.4-1.64,.79,.06,.79,.51,1.02,.28,.62-.28,.34-.74,.74-4.31-.06-.96-.11-.57-.91-1.53-.06-.85,.45-.68,.57-.57,.34-.57v-.34l-.45-.91-.06-.79,3.69-12.76,5.61-8.11,.34-1.13,.11-2.21,.11-.74,1.59-3.91,.51,.4,2.72,5.9,.51,.57h.62l4.93,1.3,.74,.34,4.2,3.91,2.1,1.25,.91,1.08,.68,.28,4.42,.62h.79l.51-.34,.45-.45,2.04-1.08,1.08-.28,1.25-.11,.91,.23,1.13,.45,1.02,.68,.57,.74,.34,.28,.57,.11,6.52,.23,1.08-.23,5.27-2.5,.57-.45,.57-.62,.34-.74,.91-2.72,.91-.68h1.47l4.2,1.02,4.99,2.55,1.3,.23,.45-.17,.79-.4,.74-.51,.34-.45,.62-.68,1.36,.11,1.87,.28,2.21,.11,3.74-.51,.74-.4,.62-.62,.34-.62,.4-.57,.62-.28,.45,.11,.34,.4,.28,.68,.17,.85-1.13,2.67,.23,.17,3.18-.79,.85-.4,.62-.11,.74-.06,2.67,.28,.11,.28,.51,1.13,.28,1.7,.23,.68,1.59,.74,8.39,8.39,1.02,1.25,.17,1.19v.74l.06,.96,.17,.85,.28,.57,.51,.34,.68,.11h1.93l4.08-.74,.74,.28,.34,.74,.11,1.19,.28,1.25,.45,1.42,.34,1.7-.06,2.16-2.78,5.1-.17,1.3,.28,1.36,1.53,3.91,.4,4.25,.17,.85,.4,1.02,.51,.96,.68,.57,.34,.06,2.78-.11,.17-.96,1.13-.28,4.76,.17,.34,.57,.11,.85-.06,.79-.23,.62,.06,.11,3.4-2.04,.4-.11,2.72-.17,1.3-.17,1.25-.34h0Z"/>
  <path id="ETH3110" class="cls-6" d="M351.71,22.28l-.62,.4,.11,.85-.06,1.02-.28,.62-.28,.34-.23,.17-1.02,.11-2.84-.28-1.53-.45-.62-.11-2.61,.51-1.19,.74-1.08,.85-.23,.34v.34l.85,.45,2.33-.17,.57,.51-.11,.51-1.7,1.87-.96,1.99-.17,.74,.28,.23,1.19,.06,.68,.11,.57,.34-1.25,1.42-.23,.34,.28,.68,.57,.06,.57-.23,.45-.11,.45,.4,.28,.74,.11,.79,.06,.62-.17,1.47v.51l.23,.45,.57,.45,.23,.79,.06,2.27-.68,3.63-.17,1.7,.28,1.42,.51,1.36,.34,1.93-.17,1.64-1.13,.68-1.42-.68-.28,.51-.91,3.01v.96l.62,1.59,.11,.96-.11,.96-.74,3.91,.06,.51,.4,.79,.57,.62,.68,.4,.23,.45,.62,2.95,.23,.4,.45,.57v.23l-.17,.62-.45,.68-.45,.51-.51,.06,.17,1.81v.79l-.17,1.08v.85l-.4,1.08,.06,.17,1.13,.96,.57,.28,.85,.11,.79,.23,.57,.57,.96,1.59,.23,1.25-.17,1.81-.4,1.76-.62,1.13-1.3,1.42-.79,1.42-.45,1.64-.17,1.93,.11,.62,.57,1.19,.11,.79v.91l-.11,.91-.28,.74-.68,.62-1.25,.34-1.3,.17-2.72,.17-.4,.11-3.4,2.04-.06-.11,.23-.62,.06-.79-.11-.85-.34-.57-4.76-.17-1.13,.28-.17,.96-2.78,.11-.34-.06-.68-.57-.51-.96-.4-1.02-.17-.85-.4-4.25-1.53-3.91-.28-1.36,.17-1.3,2.78-5.1,.06-2.16-.34-1.7-.45-1.42-.28-1.25-.11-1.19-.34-.74-.74-.28-4.08,.74h-1.93l-.68-.11-.51-.34-.28-.57-.17-.85-.06-.96v-.74l-.17-1.19-1.02-1.25-8.39-8.39-1.59-.74-.23-.68-.28-1.7-.51-1.13-.11-.28-2.67-.28-.74,.06-.62,.11-.85,.4-3.18,.79-.23-.17,1.13-2.67-.17-.85-.28-.68-.34-.4-.45-.11-.62,.28-.4,.57-.34,.62-.62,.62-.74,.4-3.74,.51-2.21-.11-1.87-.28-1.36-.11-.62,.68-.34,.45-.74,.51-.79,.4-.45,.17-1.3-.23-4.99-2.55-4.2-1.02h-1.47l-.91,.68-.91,2.72-.34,.74-.57,.62-.57,.45-5.27,2.5-1.08,.23-6.52-.23-.57-.11-.34-.28-.57-.74-1.02-.68-1.13-.45-.91-.23-1.25,.11-1.08,.28-2.04,1.08-.45,.45-.51,.34h-.79l-4.42-.62-.68-.28-.91-1.08-2.1-1.25-4.2-3.91-.74-.34-4.93-1.3h-.62l-.51-.57-2.72-5.9-.51-.4,.68-1.7-.11-1.93-.62-1.99-.23-.96v-.96l.17-.85,3.4-10.61h.74l.23-.74,.51-.4,.62-.17h.79l.51-.11,1.19-.57,.74-.11h1.7l.34-.11,.62-.34,.34-.11h2.61l1.19,.17,2.5,.74,1.25,.17,.23,.11,.68,.96,.57,.4,.74,.11,.23-.06,.51-.45h.34l.68,.06,.28-.06,.45-.34,.45-.45,.28-.68,.06-.79,.06-.96,.11-.79,.34-.74,.57-.85,1.08-.85,1.3-.28,2.78,.06,.79-.28,.57-.06,.91,.79,.68,.4,1.47,2.1,.57,.57,.11,.34,.06,.57v.91l.11,.4,.51,.28,1.53,1.3,.17,.23,.28,.74,.23,.96,.23,.45,.85,.28,.4,.17,.28,.28,.11,.4,.06,.96,.17,.68,.4,.45,.68,.45,.4-.45,3.52-8.51,7.26-17.53,1.59-3.74,.62,.57,.45,.68,.74,1.42,.17,.17,.34,.06,.17,.11v.57l.23,.68,.17,.17,.45,.06,.34,.28,.11,.68,.23,.34,.28,.28,4.14,1.7,.68,.11,2.1-.4,.91,.06,.62,.28,.34,.45,.34,.79,.17,1.08,.17,.34,.4,.34,.79,.57,.28,.51,.34,1.47,.28,.68,.45,.57,.62,.51,1.99,1.08,.34,.28,.23,.85,.23,.34,.45,.34,.34,.06,.28-.11,1.87,.06,2.89-.34,1.42-.4,2.33-1.19h.74l.68,.23,.68,.06,.68-.06,.74-.17,2.27-.91,1.64-.17,.74-.51,1.25-1.13,1.53-.74,.79-.51,.57-.68,.11-.74-.11-.74,.11-.62,.45-.51,.06,.17,1.36,.11,1.08,.28,.4,.17,.79,.51,.74,.68,.68,.79,.51,.85,1.08,3.23,.79,1.47,.96-.06,.79-1.3,.51-.45,.96-.17,2.04,.34,.74-.06,3.06-.85,1.53-.74,.68-.91,.34-.79h.62l.74,.4,.57,.51,.79,.96,.45,.28,1.93,.62,1.02,.06,2.16-.34,1.19-.06,1.13,.4,1.08,.68,1.99,1.7,.57,.28,.68,.11,.74-.23,1.19-.96,.68-.17,.74,.11h0Z"/>
  <path id="ETH3111" class="cls-6" d="M418.47,156.58l-.45,.23-.62,.4-.68,.28-1.13,.11-15.03-.11-.85,.23-.74,.79-.28,.96-.17,1.08-.23,.96-1.08,1.76-2.89,2.89-1.3,1.59-.34,.79-.11,.74,.23,1.59v1.08l-5.44,20.87,.06,.96,.28,.96,.62,.57,1.7,.68,.34,.51-.57,.85-4.76,4.14-2.1,2.38-3.35,5.22-.57,1.42-.68,2.78-.34,2.67-.96,1.02-1.02,.57-1.19,.28-3.12,.51-1.3,.57-1.13,.91-1.19,1.25-1.02,1.25-2.55,4.2-.51,.68-2.38,2.33-.28,.57-.11,.57-.06,.85-.45,1.25-.85,.74-.96,.62-1.25,.11-1.36,2.38-.74,.79-2.33,1.59-.45-.17-.23-.85,.91-2.5v-1.7l-.68-.74-1.25-.23-1.64-.06,.11-.74-.17-.4-.34-.34-.34-.45-.17-.68-.28-1.7-.28-.62-.74-.4h-1.02l-2.04,.23,.91-1.47,1.25-1.7,1.02-1.76,.06-1.81-1.36-1.08-.51-.23-1.02-.28-.4-.17-.51-.62,.11-.57,.51-.62,.79-.57,1.36-1.36,.74-1.76,.23-1.93-.06-1.99-1.42-3.63-.11-1.53,1.53-.4,3.18,.91h1.47l.51-1.08-.17-.45-.45-.85v-.51l1.02-1.36,.34-.74,1.08-1.53,.28-.79,.06-1.47-.34-.79-.79-.57-1.13-.68-.85-.62-.45-.68-.06-.79,.4-.96,.62-.51,.91-.23,.91,.06,.79,.11,.85,.23,.57,.06,.28-.23,.06-.79-.11-1.02-.23-1.02-.11-.96,.11-1.08,.74-1.76,.11-.74,.4-4.82,.17-.79,.45-.79,.17-.74-.06-.51-.85-2.78v-.96l.4-1.87v-.85l-.23-.45-1.19-1.47-.45-1.02v-.85l.28-.85,1.13-1.93,.4-1.02,.06-1.02-.4-1.02-.96-1.08,2.16-3.23,.23-.57,.17-.68v-.68l-.17-1.36-.11-1.81-.23-1.02-.4-1.02-1.53-2.78-.57-.74-.68-.68-1.19-1.25,.11-1.13v-1.13l-.34-2.1-.34-.91-1.59-2.67-.34-.85-.28-1.99-.23-.85-.28-.4-.85-.4-.79-.68-.68-.79-1.3-2.44-.28-.74v-1.08l.28-3.74-.06-.17-.91-.57-.51-.62-.23-.51-.23-.57-.06-.51,.06-1.13-.11-.57-.11-.62-.23-.51-.74-1.02v-.45l.06-.51v-.57l-.28-1.02-.96-1.99-.28-1.13v-.96l.06-.4,.62-1.81,.68-.62,.28-.74,.11-.91v-.91l-.11-.79-.57-1.19-.11-.62,.17-1.93,.45-1.64,.79-1.42,1.3-1.42,.62-1.13,.4-1.76,.17-1.81-.23-1.25-.96-1.59-.57-.57-.79-.23-.85-.11-.57-.28-1.13-.96-.06-.17,.4-1.08v-.85l.17-1.08v-.79l-.17-1.81,.51-.06,.45-.51,.45-.68,.17-.62v-.23l-.45-.57-.23-.4-.62-2.95-.23-.45-.68-.4-.57-.62-.4-.79-.06-.51,.74-3.91,.11-.96-.11-.96-.62-1.59v-.96l.91-3.01,.28-.51,1.42,.68,1.13-.68,.17-1.64-.34-1.93-.51-1.36-.28-1.42,.17-1.7,.68-3.63-.06-2.27-.23-.79-.57-.45-.23-.45v-.51l.17-1.47-.06-.62-.11-.79-.28-.74-.45-.4-.45,.11-.57,.23-.57-.06-.28-.68,.23-.34,1.25-1.42-.57-.34-.68-.11-1.19-.06-.28-.23,.17-.74,.96-1.99,1.7-1.87,.11-.51-.57-.51-2.33,.17-.85-.45v-.34l.23-.34,1.08-.85,1.19-.74,2.61-.51,.62,.11,1.53,.45,2.84,.28,1.02-.11,.23-.17,.28-.34,.28-.62,.06-1.02-.11-.85,.62-.4,.91,.17h.51l1.87-.57h.68l3.4,.85,1.64,.62,1.47,.91,5.44,5.1,2.21,1.13,4.03,1.93,1.02,.4,3.4,.45,2.61,.96,2.27,1.64,7.94,9.13,5.61,9.98,1.13,1.13,11.68,7.49,6.81,5.67,1.47,1.53,1.3,1.7,1.19,1.99,2.95,6.41,1.93,2.78,2.95,1.93,2.16,.91,2.1,1.19,1.81,1.53,2.5,4.25,3.06,4.2,1.81,1.93-2.27,3.06-1.19,2.5-4.99,6.92-.62,1.42-.28,.51-.91,.4-.4,.45-1.53,2.89-4.54,6.52-.45,.4-.51,.4-.51,.28-.45,.11-.28,.23-.23,.57-.4,.51-1.47,.62-.57,.4-.57,1.19-.51,2.95-1.13,3.52v2.1l1.02,4.42,.34,3.29-.45-.23-1.08,.11-.91,.57-.68,.85-.57,.96-.28,1.59,.62,1.7,1.3,1.42,1.53,.85,.51-.4v.91l-.23,1.64-.68,1.08,.23,.23h0Z"/>
  <path id="ETH3129" class="cls-4" d="M225.18,406.87l-.23-.06-.57-.28-.28-.11-12.93,.28-.51-.06-.68-.34-.34-.11h-.45l-1.25,.17-5.67,.06-.91-.23-.79-.51-1.47-1.25-.62-.45-.28-.51v-.68l.11-.74v-.74l-.51-.91-.11-.62-5.1-5.5-.96-1.59-.28-1.87,.17-7.88,.17-.51,1.47-1.81,.28-.79v-.79l-.34-.91-.74-1.42-.11-.74,.23-.91,1.02-1.47-.17-.34-2.1-.79-2.44-1.53-.96-.28-.74,.17-.68,.34-.85,.17-.96-.23-1.59-1.3-.85-.51-.68-.17-.79-.11h-.79l-.68,.11-.85,.57-1.53,1.7-.85,.57-.91,.17-.68-.34-.57-.62-1.25-1.99-.17-.34,.06-.45,.62-.85,.23-.4-.45-1.25-1.47-1.13-3.01-1.81-1.7-1.25-.4-.68-.34-2.21-.51-1.02-3.06-4.37-.4-.85-.06-.51,.28-1.36-.11-.45-.62-.62-.17-.45v-.4l.11-.45,.4-.79-.4-2.5-.28-.74-.62-.79-.74-.68-.62-.68-.74-1.87-1.3-2.33-.17-.79-.06-2.21-.23-.96-1.53-2.61-.28-.79-.34-2.16-.79-2.21-.79-3.06-.28-.17-.45-.51-.17-.68-.23-.45-2.55-1.7-.68-.23-.79-.11h-1.64l-.62-.17-.45-.34-.28-1.59-.23-.79,.51-.34-.06-.79-.17-.62-.23-.62-.34-.45-2.44-1.7-5.33-1.3-.62-.45-.23-.62-.17-.23-1.53-1.19-.62-.68-.28-.11-.28-.34-.11-1.3,.85-.34,1.08,.62,1.13,.96,.85,.62,.96,.11,.96-.28,1.87-.74,1.36-.28h1.47l1.42,.34,1.13,.74,1.02,.79,1.08,.51,1.19,.23,1.25-.06,1.19-.23,.85-.34,.79-.57,.96-.85,1.08-.85,1.08-.45,1.13-.23,1.36-.06,2.27,.11,1.02-.34,.45-.91,.74,.28,.91-.17,.79-.51,.57-.68,.62,.68,.96,.51,.96,.45,.91,.23,.96-.06,1.59-.74,.91-.17,2.16,.45,.91-.11,.28-.91-.11-.34-.34-.68-.11-.4,.06-.4,.11-.79,.11-.91,.45-1.02v-1.02l.06-.51,.74-2.61,.11-.85-.28-.74-.62-.62-2.61-1.42-.34-.45,.34-1.13-.34-.74-.74-3.35-.06-1.87,.51-1.08,.68-.51,.96-1.36,1.53-.96,.17-.74v-.85l.45-.79,.23-.11,.68,.06,.4-.11,.91-.62,.85-.62h.57l.62,.06,.79-.23h1.59l.45,.91,.23,.74,.4,.62,.96,.45,.85-.06,.79-.34,1.47-.96,.51-.23,.74-.28,1.25-.23,.28-.11,.57-.4,.79-.68,.62-.79,.28-.62-.28-.62-.57-.51-1.3-.91-.68-.74,.06-.74,.85-1.3,.57-.62,.79-.23,.91-.06,.85,.11,.85,.17,.51,.4,.28,.62,1.02,3.57,.06,.91-.28,.85-.45,.74-1.08,1.36v.68l.74,.74,2.33,1.42,1.25,.57,.57,.34,.45,.57,.91,1.87,.85,1.36,.06,.57-.23,1.02-.06,1.02,.28,.74,.62,.45,2.95,.4,1.47,.91,1.36,1.08,1.7,.85,2.27,.85,.85,.11,.28,.11,.68,.45,.51,.23,1.36,.45h1.99l.74,.11,.85,.28,2.95,1.25h.74l6.47,4.31,1.64,.74,1.7,.45,1.76,.17,1.36-.11,2.72-.45,3.01,.17,1.25-.23,1.08-.62,2.5-1.93,3.74-1.7,1.25-.79,.45,.17,.11-.17,.51-1.19,.17-1.7,.23-.79,.17-.28,1.02-3.97v-.51l-.91-2.89-.28-1.47v-3.91l.11-.68,.23-.74,.68-1.3,.17-.68-.23-1.08-1.36-1.53v-1.02l2.27-.68,1.25-.11,.96,.4,.74,1.59,.57,.4,.79,.11,.74-.17,1.08-.28,.06-.45v-.57l-.23-.68-.62-1.19-.17-.74,.06-2.78,.45-3.29-.06-.45-.34-.23-2.78-.68-.62-.28-.62-.4-.4-.51-.17-.68-.23-.34,.17-1.08,.68-1.64,.45-.74,.57-.62,.79-.4h.85l.74,.68,.51,1.02,.51,.74h.79l2.55,.34,.74,.4h.51l.57-.17,.85-.06,2.55,.57,.96-.06,7.15-1.76,5.16-.62,2.04-.51,.79,.17,.62,.4,.57,.57,.28,.51,.23,.85,.17,1.59,.57,1.42,1.36,.23,1.59-.51,1.13-.96,.34-.62,.45-2.44,.28-.62,.57-.79,.79-.91,.23-.11,.74-.23,.85-.17,.79,.06,.62,.57,2.38,1.13,.45,.74,.34,.85,.11,.85-.4,1.87,.17,.68,.45,.51,.91,.62-.62,2.55-.06,.91,.17,.91-.06,.85-.34,.79-.96-1.08-.4-.57-.34-.62-.68-3.06-.34-.79-2.21,.74,.23,.79,1.19,1.64,.28,.96,.11,.51,.4,1.36,.57,2.89-.11,.4-.34,.74-.51,1.53-1.25,2.04-1.64,2.04-.85,1.53-1.36,1.36-.34,.68-.23,.79-.68,1.42-.11,.68-.11,1.81,.4,2.84v.96l-.34,.51-.62,.28-.85,.28-.96,.4-.51,.51-.28,.57-.28,.91-.45,.79-1.02,1.19-.34,.79-.34,1.53-.4,.57-5.22,3.23-1.02,.91-.57,1.19-.28,1.3-.11,1.42,.23,.74,.62,.68,1.02,.51,1.3,.34,3.46-.74,.62-.45,1.53-1.81,.34-.57,.74-1.19,.96,.34,1.19,.74,1.47,.28,1.08,.28,1.19,.79,1.3,.51,1.25-.57,.96-.17,1.25,.96,1.13,1.81,.85,2.21-1.08,5.73,.11,1.3,.28,.45,.62,.51,.68,.4,1.3,.4,4.93,2.55,.62,.11,1.81,.17,.96,.23,.57,.51,.4,.51,1.47,.96,2.84,2.61,.62,.68,.17,.68,.23,1.7,.91,3.46v1.7l-.4,.85-.57,.68-.4,.74,.11,.91,.62,1.64,.34,.74,.57,.62-3.74,.51-1.64-.11-1.81-1.59v-.28l-.23-.85-.74-1.13-1.08-1.99-.91-1.08-.17-.34-2.89-1.36-.28-.34-.51-.96-1.36,.17h-1.02l-.28-.06-2.84-.85-1.53-.28-1.53-.06-1.87,.34-1.36,.74-.74,1.3-.23,1.87,.45,3.23-.11,1.13-.4,.57-.68,.4-.85,.62-.45,.68-.45,1.53-1.3,2.33-.45,.68-.68,.62-.11,.28,.23,.4,1.02,1.02,2.21,1.25,.4,.4-.11,.45-2.72,1.81-.79,.17h-.79l-.79,.17-.85-.11-.74-.96-4.65-8.17-.17-.79,.06-1.02,.28-.85h.57l.79,.4,.85,.11,.79-.28,.62-.85,.11-.91-.68-1.47,.06-.79,.62-1.42,.4-.57,2.44-.91,.96-1.36-.06-1.59-1.36-1.25-.68-.17-.74,.06-.79,.11-.79,.23-.45-.06-.96-1.13-.68-.62-1.59-.96-.4-.17-.74-.4-.51-.62-.62-.57-.79-.11-.96,.34-.45,.06-1.25-.06-.17-.11-.85-.74-.68,.06-.62,.57-1.76,2.5-.74,1.64,.11,1.59,1.25,1.47,.74,1.42-.17,1.99-.62,1.99-.74,1.42-1.02,1.53-.4,.79-.06,.91,.4,2.78-.06,.96,.28,.57,.85,.23,1.25,.28,3.8,1.59,.79,.4,.34,.62,.23,.96,.74,1.59,.34,1.81,.4,.79,.62,.62,.91,.28,.68,.45,.28,.91-.17,.96-.57,.57-2.38,1.25-1.81,.34-.62,.45-.28,.68,.57,2.61v1.99l-.34,1.93-.68,1.64-.51,.91-.28,.74-.06,.79,.23,1.81-.06,.85-.23,.74-.57,.51-.91,.06-.79-.45-.68-.62-.68-.45-1.81-.51-1.81-.74-.85-.17-.79,.17-.62,.45-.45,.68-.51,.51-.91,.4-1.7,.62-3.69,1.99-1.99,.79-1.99,.11-.91-.34-1.59-.91-.96-.28-1.13-.11-.62,.06-3.57,.51h-.91l-2.89-.45-.91,.11-.85,.51-1.13,1.3-.79,1.64-1.76,5.61v.85l.23,1.02,.85,1.81,.23,1.02-.23,2.16-.96,1.99-2.72,3.52-1.81,2.78-.68,1.53-.57,1.53-.34,.45-.74,.51-1.3,.45-.45,.4h0Z"/>
  <path id="ETH3130" class="cls-6" d="M172.89,288.73l.34,.74-.34,1.13,.34,.45,2.61,1.42,.62,.62,.28,.74-.11,.85-.74,2.61-.06,.51v1.02l-.45,1.02-.11,.91-.11,.79-.06,.4,.11,.4,.34,.68,.11,.34-.28,.91-.91,.11-2.16-.45-.91,.17-1.59,.74-.96,.06-.91-.23-.96-.45-.96-.51-.62-.68-.57,.68-.79,.51-.91,.17-.74-.28-.45,.91-1.02,.34-2.27-.11-1.36,.06-1.13,.23-1.08,.45-1.08,.85-.96,.85-.79,.57-.85,.34-1.19,.23-1.25,.06-1.19-.23-1.08-.51-1.02-.79-1.13-.74-1.42-.34h-1.47l-1.36,.28-1.87,.74-.96,.28-.96-.11-.85-.62-1.13-.96-1.08-.62-.85,.34v-1.19l-.17-.79-.4-.62-.51-.34-.62,.28-.68,.17-.74-.51-1.02-1.3-1.76-1.36-.34-.34v-3.52l-.28-1.3-.62-1.08-4.71-4.76-1.13-.68-1.13-.17-.4-.11-1.87-1.42-1.25-1.7-.45-.57-.4-.17-1.19-.34-1.02-.68-.4-.11-2.44,.23-.79-.23-.4-.28-.57-.68-.34-.34-.4-.17-.68-.23-.34-.28-.62-.23-1.02,.06-1.59,.34-.34,.17-.96,.57-.45,.06-2.1-.57-.68-.62-.62-.68-.57-.51-.28-.11-1.25-.17-1.08-.45-.34-.06-1.19,.28-.23,.11-.23,.28-.51-.06-.79-.34-1.02-.11-.28-.17-.4-.91-.68-.34-.28-.62-.96-2.55,.17-.4,.45-.57,.23-.4,.34-.45,.17-.79,.23-.4,.45-.62,2.16-2.21,.62-1.25,1.13-.23,.68-.28,.45-.4,.28-.51,.11-.79-.11-.17-.51-.4-.11-.17,.06-.96,.45-.74,.34-.28,.62-.28v-.51l-.85-.4-.23-.45-.57-.62-.11-.45,.06-.28,.34-.74,.11-.45-.4-.4-.06-.34,.23-.4v-.68l.23-.57,.51-.23,.57-.11,.28-.28-.17-.34,1.08-.96,.68-.11,4.08,.91,.4-.11,.51-.4,.57-.17,.51,.11,2.55-.34,.34-.17-.17-.45h.74l.62,.34,.57,.45,.57,.28,.74-.11,.57-.34,.51-.23,.79,.11,1.19,1.02,.74,1.3,.91,1.08,1.7,.17,.57-.11,1.59-1.3,.4-.28,.57-.28,.68-.17,1.25-.17h2.16l.74-.17,.74-.45,3.74-3.4,.79-.85,.45-.91,.17-.79,.91,.45,.68,.68,.45,.34,.45-.11,1.81-1.3,.91-.34,.96,.11,1.13,.51,1.93,1.3,3.29,3.18,1.87,1.47,3.8,1.93,1.08,.91,1.36,1.99,.79,.79,1.13,.51,2.21,.45,.74,.57,.62,1.19,.68,.96,1.02,.45h1.19l2.72-.45,2.16-.06,2.04,.23,1.19,.85-.34,.57-.91,.45-1.93,.62-2.27,1.3-1.7,.74-.34,.45,.34,.4,1.81,.62,.23,.4-.23,.45-2.38,3.4-.62,1.59,.06,1.81,.79,1.64,1.19,1.13,1.36,1.08,1.25,1.25,.4,.79,.23,1.81,.28,.79,.57,.45,3.8,1.36,.51,.45-.28,.62-.51,.45-.62,.74-.17,.62,.68,.28,1.13,.06,.51,.11,.91,.4,.23-.11,.62-.45,.74-.4,.79-.51,.45-.68-.06-.85h0Z"/>
  <path id="ETH3131" class="cls-6" d="M344.57,227.64l2.04-.23h1.02l.74,.4,.28,.62,.28,1.7,.17,.68,.34,.45,.34,.34,.17,.4-.11,.74,1.64,.06,1.25,.23,.68,.74v1.7l-.91,2.5,.23,.85,.45,.17,2.33-1.59,.74-.79,1.36-2.38,1.25-.11,.96-.62,.85-.74,.45-1.25,.06-.85,.11-.57,.28-.57,2.38-2.33,.51-.68,2.55-4.2,1.02-1.25,1.19-1.25,1.13-.91,1.3-.57,3.12-.51,1.19-.28,1.02-.57,.96-1.02,.34-.17,.45,.06h2.1l1.87-.4h1.76l1.76,1.08,.4,.79-.51,.51-.96,.23-.96,.06-1.64-.34-.68,.06-.17,.79,.23,.96,.34,.79,.57,.57,.85,.28,.79-.06,.96-.23,1.64-.57,1.19-.79,.4-.17,.4-.11,.85-.06,.34-.23,.68-.57,.74-.51,.79-.4,1.81-.68,.85-.4,.85-.51,.79-.68,1.02-1.08,.4-.23,1.47-.4,1.59,.06,3.12,.62,2.89,1.02,.85,.06,.68-.34,1.3-1.13,.74-.4,.91-.23,.96-.11,.85,.17,.45,.51,.57,.79,.79,.34,.96,.11,.96-.23,1.19-.57,1.08,.11,1.08,.17,1.19-.23,.45-.06,1.08,.34,.45,.11,.91-.11,2.1-.96h1.02l2.27,1.13,.68-.85,1.08-.85,.91-.85,.17-.91-.74-1.19-.11-.45,.17-.34,.51-.4,1.13-.62,.91-.34,1.93-.11,.62-.34,.62-.57,1.36-1.19,.74-.4,1.53,.45,.45,1.64-.23,3.74,1.19,.28,1.36,1.36,1.25,1.76,2.38,4.88,.11,.34,.06,.91,.11,.57,1.25,3.63,.45,.74,.68,.74,.17,.28-.11,1.02,.11,.68,.68,1.53,2.33,3.69,2.61,2.89,.74,.68,1.64,1.25,.74,.62,.28,1.59-1.19,3.52,.4,1.76,1.93,1.99,.4,.74,.23,.96,.11,1.02-.06,1.08-.34,1.81-.06,1.02-.23,.91-.62,.51-3.35,.85-.79,.45-1.02,1.42-1.47,5.56-1.36,1.59-1.25-.28-1.19-1.36-.91-1.81-.62-1.99-1.13-6.41-1.13-1.59-2.16-.91-4.48-.85-.51-.51-1.47-2.72-2.55,.68-3.57,3.06-1.59,1.64-1.42,1.87-.28,.91,.23,2.21-.06,1.02-.51,1.02-2.1,3.01-.74,1.81-.4,2.16-.51,9.24,.11,.96,.4,.91,.62,1.08,.23,1.7-.62,2.16-1.76,3.86-.51,1.59-.11,.74,.06,.85,.34,1.99,.28,1.13,.34,.62,11.57,4.54,.28,.28,.45,2.38-.17,1.81-.51,1.76-.74,1.13-.17,.34-.06,.4,.06,.85-.06,.51-.23,.4-.51,.79-.45,1.19-.45,.4-.17,.28,.06,.45-1.25,.68-.4,.57-.17,.96-.4,.91-.11,.4,.17,.85-.06,.4-.34,.45,.4,.74-.4,.85-1.02,1.59-.68,2.67-.4,.68-.45,.74-.34,.68-.23,.4-1.02,1.02-.23,.17-.85,.45-.85,.34-.85,.23h-.91l-.62-1.25-1.47,.17-1.59,.96-1.08,1.13-1.25,2.5-.62,.74-1.42,.96-.57,.51-.45,.91-6.13-6.3-.79-.62-.85-.45-.91-.28-1.87-.28-4.71-2.5-1.81-1.25-1.81-.85-1.81,.11-.91,.51-.79,.74-1.87,2.55-2.21,2.16-.57,.79-1.47,2.67-.28,.85,.28,1.81-.11,1.59,.23,.85,.34,.91,.17,.79,.06,.96-.06,.96-.11,.96-.23,.96-.28,1.99,.51,7.2-.06,3.01,.06,1.13,.28,1.02,1.36,3.23-2.78,2.04-5.5,3.06-5.96,5.39-.62,.28-1.02,.17-.57,.34h-1.76l-2.84,.62-1.53,.17-1.19,.23-.96-.06-.34,.06-1.93,.68-.79,.11-2.72-.57-1.36-.57-1.08-.57h-.57l-.79,.62-3.57,5.16-2.33,6.01-1.42,2.78-.79,3.12-1.08,3.06-.74,4.14-.11,2.27-.23,.96-5.96,13.78-1.36,1.76-.28,.51-.79,3.35-1.19,3.18-.17,.79,.06,.74,.51,1.59-1.13,2.38-5.16,8.85-1.19,1.53-1.47,.96-3.23,1.42-3.06,1.64,.28,.28-.45,.4-.85-.28-2.16,.45h-.62l-.57-.23-.62-.06-1.59,.28h-.96l-6.52-1.76-.74-.4-.57-.57-1.02-1.36-.06,1.02-2.16-.11-.23-.17-.11-.34-.51,.23h-.74l-.51-.17-.23-.51-.28-.34-.74-.62-.17-.06-.4,.11-.06,.91-1.93,.85-2.16,.17-8-.91-1.19,.06-1.19,.34-.45-.11-.91-.74-1.13-.34-.45-.28-.57-.68-.96-1.53-.74-.74-12.42-8-6.52-4.2-4.31-2.78-9.41-6.07-.62-.11-.11-.17-.17-.85-.17-.4-.23-.34-.28-.06-.79,.06-.28-.23-.57-.96-.4-.28-1.53-.34-2.67-1.36-2.27-.62-7.26,.06-.11-.06,.45-.4,1.3-.45,.74-.51,.34-.45,.57-1.53,.68-1.53,1.81-2.78,2.72-3.52,.96-1.99,.23-2.16-.23-1.02-.85-1.81-.23-1.02v-.85l1.76-5.61,.79-1.64,1.13-1.3,.85-.51,.91-.11,2.89,.45h.91l3.57-.51,.62-.06,1.13,.11,.96,.28,1.59,.91,.91,.34,1.99-.11,1.99-.79,3.69-1.99,1.7-.62,.91-.4,.51-.51,.45-.68,.62-.45,.79-.17,.85,.17,1.81,.74,1.81,.51,.68,.45,.68,.62,.79,.45,.91-.06,.57-.51,.23-.74,.06-.85-.23-1.81,.06-.79,.28-.74,.51-.91,.68-1.64,.34-1.93v-1.99l-.57-2.61,.28-.68,.62-.45,1.81-.34,2.38-1.25,.57-.57,.17-.96-.28-.91-.68-.45-.91-.28-.62-.62-.4-.79-.34-1.81-.74-1.59-.23-.96-.34-.62-.79-.4-3.8-1.59-1.25-.28-.85-.23-.28-.57,.06-.96-.4-2.78,.06-.91,.4-.79,1.02-1.53,.74-1.42,.62-1.99,.17-1.99-.74-1.42-1.25-1.47-.11-1.59,.74-1.64,1.76-2.5,.62-.57,.68-.06,.85,.74,.17,.11,1.25,.06,.45-.06,.96-.34,.79,.11,.62,.57,.51,.62,.74,.4,.4,.17,1.59,.96,.68,.62,.96,1.13,.45,.06,.79-.23,.79-.11,.74-.06,.68,.17,1.36,1.25,.06,1.59-.96,1.36-2.44,.91-.4,.57-.62,1.42-.06,.79,.68,1.47-.11,.91-.62,.85-.79,.28-.85-.11-.79-.4h-.57l-.28,.85-.06,1.02,.17,.79,4.65,8.17,.74,.96,.85,.11,.79-.17h.79l.79-.17,2.72-1.81,.11-.45-.4-.4-2.21-1.25-1.02-1.02-.23-.4,.11-.28,.68-.62,.45-.68,1.3-2.33,.45-1.53,.45-.68,.85-.62,.68-.4,.4-.57,.11-1.13-.45-3.23,.23-1.87,.74-1.3,1.36-.74,1.87-.34,1.53,.06,1.53,.28,2.84,.85,.28,.06h1.02l1.36-.17,.51,.96,.28,.34,2.89,1.36,.17,.34,.91,1.08,1.08,1.99,.74,1.13,.23,.85v.28l1.81,1.59,1.64,.11,3.74-.51-.57-.62-.34-.74-.62-1.64-.11-.91,.4-.74,.57-.68,.4-.85v-1.7l-.91-3.46-.23-1.7-.17-.68-.62-.68-2.84-2.61-1.47-.96-.4-.51-.57-.51-.96-.23-1.81-.17-.62-.11-4.93-2.55-1.3-.4-.68-.4-.62-.51-.28-.45-.11-1.3,1.08-5.73-.85-2.21-1.13-1.81-1.25-.96-.96,.17-1.25,.57-1.3-.51-1.19-.79-1.08-.28-1.47-.28-1.19-.74-.96-.34-.74,1.19-.34,.57-1.53,1.81-.62,.45-3.46,.74-1.3-.34-1.02-.51-.62-.68-.23-.74,.11-1.42,.28-1.3,.57-1.19,1.02-.91,5.22-3.23,.4-.57,.34-1.53,.34-.79,1.02-1.19,.45-.79,.28-.91,.28-.57,.51-.51,.96-.4,.85-.28,.62-.28,.34-.51v-.96l-.4-2.84,.11-1.81,.11-.68,.68-1.42,.23-.79,.34-.68,1.36-1.36,.85-1.53,1.64-2.04,1.25-2.04,.51-1.53,.34-.74,.11-.4-.57-2.89-.4-1.36-.11-.51-.28-.96-1.19-1.64-.23-.79,2.21-.74,.34,.79,.68,3.06,.34,.62,.4,.57,.96,1.08,.34-.79,.06-.85-.17-.91,.06-.91,.62-2.55-.91-.62-.45-.51-.17-.68,.4-1.87-.11-.85-.34-.85-.45-.74-2.38-1.13-.62-.57-.79-.06-.85,.17-.74,.23-.23,.11-.79,.91-.57,.79-.28,.62-.45,2.44-.34,.62-1.13,.96-1.59,.51-1.36-.23-.57-1.42-.17-1.59-.23-.85-.28-.51-.57-.57-.62-.4-.79-.17-2.04,.51-5.16,.62-7.15,1.76-.96,.06-2.55-.57-.85,.06-.57,.17h-.51l-.74-.4-2.55-.34h-.79l-.51-.74-.51-1.02-.74-.68h-.85l-.79,.4-.57,.62-.45,.74-.68,1.64-.17,1.08,.23,.34,.17,.68,.4,.51,.62,.4,.62,.28,2.78,.68,.34,.23,.06,.45-.45,3.29-.06,2.78,.17,.74,.62,1.19,.23,.68v.57l-.06,.45-1.08,.28-.74,.17-.79-.11-.57-.4-.74-1.59-.96-.4-1.25,.11-2.27,.68v1.02l1.36,1.53,.23,1.08-.17,.68-.68,1.3-.23,.74-.11,.68v3.91l.28,1.47,.91,2.89v.51l-1.02,3.97-.17,.28-.23,.79-.17,1.7-.51,1.19-.11,.17-.45-.17-1.25,.79-3.74,1.7-2.5,1.93-1.08,.62-1.25,.23-3.01-.17-2.72,.45-1.36,.11-1.76-.17-1.7-.45-1.64-.74-6.47-4.31h-.74l-2.95-1.25-.85-.28-.74-.11h-1.99l-1.36-.45-.51-.23-.68-.45-.28-.11-.85-.11-2.27-.85-1.7-.85-1.36-1.08-1.47-.91-2.95-.4-.62-.45-.28-.74,.06-1.02,.23-1.02-.06-.57-.85-1.36-.91-1.87-.45-.57-.57-.34-1.25-.57-2.33-1.42-.74-.74v-.68l1.08-1.36,.45-.74,.28-.85-.06-.91-1.02-3.57-.28-.62-.51-.4-.85-.17-.85-.11-.91,.06-.79,.23-.57,.62-.85,1.3-.06,.74,.68,.74,1.3,.91,.57,.51,.28,.62-.28,.62-.62,.79-.79,.68-.57,.4-.28,.11-1.25,.23-.74,.28-.51,.23-1.47,.96-.79,.34-.85,.06-.96-.45-.4-.62-.23-.74-.45-.91h-1.59l-.79,.23-.62-.06h-.57l-.85,.62-.91,.62-.4,.11-.68-.06-.23,.11-.45,.79v.85l-.17,.74-1.53,.96-.96,1.36-.68,.51-.51,1.08,.06,1.87,.74,3.35,.06,.85-.45,.68-.79,.51-.74,.4-.62,.45-.23,.11-.91-.4-.51-.11-1.13-.06-.68-.28,.17-.62,.62-.74,.51-.45,.28-.62-.51-.45-3.8-1.36-.57-.45-.28-.79-.23-1.81-.4-.79-1.25-1.25-1.36-1.08-1.19-1.13-.79-1.64-.06-1.81,.62-1.59,2.38-3.4,.23-.45-.23-.4-1.81-.62-.34-.4,.34-.45,1.7-.74,2.27-1.3,1.93-.62,.91-.45,.34-.57-1.19-.85-2.04-.23-2.16,.06-2.72,.45h-1.19l-1.02-.45-.68-.96-.62-1.19-.74-.57-2.21-.45-1.13-.51-.79-.79-1.36-1.99-1.08-.91-3.8-1.93-1.87-1.47-3.29-3.18-1.93-1.3-1.13-.51-.96-.11-.91,.34-1.81,1.3-.45,.11-.45-.34-.68-.68-.91-.45,.17-.96-1.08-22.18,1.76,.06,7.03,.62,1.08-.11,.74-.51,.51-.68,.4-.68,.34-.68,.28-.91,1.47-6.64,.79-7.09,.91-.57h.85l1.42-.23,.68,.11,.85,.62,1.76,1.53,.96,.51,1.19-.17,4.25-4.59,1.42-2.67,2.21-6.98-.28-.57-.57-.57-.34-.91,.17-.34,4.82,.34,.62,.23,.23,.4-.06,.96,.06,.91,.4,.62,.96,.06,2.95-.45,1.25,.06,1.76,.28h.74l.74,.11,.79,.45,1.42,1.08,7.6,7.6,5.16,6.3,1.87,1.93,1.59-.28,.51,.06,.51,.68,.74,1.64,.11,.45-.06,2.16,.4,.45,.45,.23,.45,.06,1.13-.06,1.47,.11,.74-.06,.34,.17,.28,.51,.34,.74,1.36,2.38,.34,.45,.45,.06,1.19-.11,.62,.74,.51,2.38,.85,.34,5.5-7.2,1.08-3.12,.45-2.72-.23-2.1-1.13-1.13-.62-.45-2.55-3.01-1.19-1.02,.06-.17,.74-.57,.34-.62-.06-.79-.4-.91-.23-.79,.23-3.63-.34-6.75h.45l.68,.51,.74-.06,.74-.28,1.53-.85,3.35-2.44,1.25-1.42,1.99-3.29,.57-.68,1.42-1.47,.68-.57,.79-.34,2.33-.23,.23,.11-1.3,3.74-.11,.45,.23,.23,.68,.23,.62,.28,.62,.17,.79-.17,.85-1.7,.51-.4,3.29-1.7,.68,.06,1.64,1.02,2.04,.85,.79,.62,3.91,1.19,.74,.06,.45-.23,.4-.51,.4-.74,.74-2.1,1.08,.91,.74,.4,.74,.28h2.55l.57,.28,.11,1.02-.57,1.13-.45,1.13,.51,1.3,.91,.96,.57,.23,.68-.11h.51l.62,.17,.62,.28,.28,.4,.06,.45v.85l.17,.45,.45,.62,.28,.23,.4-.06,.4-.45,.34-1.08,.57-.17,1.3,.17,1.25,.34,3.63,1.64,.51,.4,.79,1.08,.85,1.02,.23,.45,.57,.68,3.52,2.61h.62l1.02-.57,.57-.11,.96,.17,.34-.11,2.67-1.47,.34-.34,.57-.74,.28-.17,1.02-.11,.34-.11,1.76-1.25,5.39-2.55,2.27-.57,.62-.4,.96-.96,.34-.79,.45-.4,1.08-.23,1.02-.34,.74-.11,.96,.28h.91l.96-.17,.85-.4,.51-.74,.11-.45-.06-.4-.28-.79v-.51l.17-.23,.4-.17,.28-.28,.28-.4,.96-4.14,.23-.4,.34-.28,8.85-.45,4.37,.79,.68,.51-.06,1.42-1.64,7.71-.45,.57-2.5,1.3-1.47,.34-1.47-.28,.06,1.13,.74,.68,2.38,.91,.68,.51,.45,.4,.68,1.02,.11,.23,.06,1.93,.28,1.87,.62,1.76,1.25,1.53,2.44,1.19,6.86,1.42,4.37,1.93,1.81,2.67,1.36,2.44,1.25,1.59,1.36,.28,.85-.06,1.13,.23,.79,.45-.11,.91,.23,.34,2.21,2.33h-.06l-1.3-.45-.96,.17-1.87,1.36-.51,.23-3.23,.23-.91-.06-.62,.06-.23,.34,.11,1.08,.34,1.42,.51,1.25,.79,.62,1.99,.4,.79,.62,.11,1.13-.45,1.25-3.23,5.27,.11,2.21-.11,.74,.06,.62,.96,2.1,.28,.4,.45,.34,.68,.17,.85-.06,1.93-1.93,.57-.23,1.13,.4,1.36,2.1,.96,.51,.79-.17,1.81-1.3,1.3-.79,3.86-1.36,1.19-.74,.4-1.13-.11-7.77,1.64-1.36h0Zm-139.86,4.37l-1.59-.4-.57,.06-.28,.4-.06,.62v.68l-.06,.57-.23,.4-.62,.74-.28,.51v.45l.17,.96v.45l-.23,.28,.17,.4,.28,.28,.74,.4,.34-.28h.68l.74-.11,.23,.11,.34,.45,.79-.06,.57-.34,.91-.96,.4,.57,.91,.74,.4,.45,.06,.34-.06,.62,.23,.34,.57,.34,.74,.06-.11-.4-.17-.4-.45-.68,.57-.23v-.51l-.34-.51-.57-.23-.11-.85,.06-1.13,.23-1.19,.28-.68-.45,.17-.51-.06-.45-.17-.45-.45-.28-.45v-.17l.57-.57-.4-.23-1.08-.34-.51-.06-.4,.17-.68-.11h0Zm102.54-2.21l-.11-.57-.79,.79-.4-.06-.28-.51-.17-.17-.45,.06-1.53,.34-.45,.17-.62,.51-.68,.91-.51,1.02-.28,.79,.34,.51-.06,.28,.57,.91,.34,1.13,.28,.34,.34,.34,.85,.28,.4,.34,.34,.4,.74,.91,.45,.34,.74,.4,.74,.11,.45-.62,.23-.74,.51-.06,.57,.06,.45-.28,.06-.57-.57-1.42-.11-.68,.79,.23,.79,.06-.11-.45,.28-.85,.11-.51v-.74l-.23-.68-.96-2.16-.79-.06-.96,.06-.28-.17h0Zm-95.4,5.67l.85-.34,.4-.28,.28-.34-.62-.34-.68-.79-.45-.28-1.64,.85-.34,.45,.34,.45,.51,.34,.34,.23,.34,.11,.68-.06h0Zm5.56-18.09l-.11-.85,.4-.74,1.47-.68,.28-.28,.06-.45-.23-.34-1.25-.91-.68-.17-.68,.17-.74,.51-.45,.51-.23,.57-.4,1.47,.91,3.06,.45,.74,.11-.06,.17-.79,.45-.23,1.3,.23-.85-1.76h0Zm219.55,.85l-.79,.06-.91,.45-.85,.28-.96-.28-.68-.4-.62-.06-.85,.91-1.13,1.93-.4,1.08-.17,1.13,.06,.85,.62,.11,.74-.17,.74-.06,.34,.23,.57,.51,.28,.17,.57-.06,1.02-.45,.51,.17,1.02,.91,.62,.17,.62-.34,.34-.74-.23-.68-.4-.74-.23-.68,.06-.51,.45-.79,.23-1.81v-.34l-.57-.85h0Z"/>
  <path id="ETH3132" class="cls-6" d="M211.85,235.47l-.68,.06-.34-.11-.34-.23-.51-.34-.34-.45,.34-.45,1.64-.85,.45,.28,.68,.79,.62,.34-.28,.34-.4,.28-.85,.34h0Zm-7.15-3.46l.68,.11,.4-.17,.51,.06,1.08,.34,.4,.23-.57,.57v.17l.28,.45,.45,.45,.45,.17,.51,.06,.45-.17-.28,.68-.23,1.19-.06,1.13,.11,.85,.57,.23,.34,.51v.51l-.57,.23,.45,.68,.17,.4,.11,.4-.74-.06-.57-.34-.23-.34,.06-.62-.06-.34-.4-.45-.91-.74-.4-.57-.91,.96-.57,.34-.79,.06-.34-.45-.23-.11-.74,.11h-.68l-.34,.28-.74-.4-.28-.28-.17-.4,.23-.28v-.45l-.17-.96v-.45l.28-.51,.62-.74,.23-.4,.06-.57v-.68l.06-.62,.28-.4,.57-.06,1.59,.4h0Zm12.7-14.63l.85,1.76-1.3-.23-.45,.23-.17,.79-.11,.06-.45-.74-.91-3.06,.4-1.47,.23-.57,.45-.51,.74-.51,.68-.17,.68,.17,1.25,.91,.23,.34-.06,.45-.28,.28-1.47,.68-.4,.74,.11,.85h0Zm22.8-34.37l-.74,2.1-.4,.74-.4,.51-.45,.23-.74-.06-3.91-1.19-.79-.62-2.04-.85-1.64-1.02-.68-.06-3.29,1.7-.51,.4-.85,1.7-.79,.17-.62-.17-.62-.28-.68-.23-.23-.23,.11-.45,1.3-3.74-.23-.11-2.33,.23-.79,.34-.68,.57-1.42,1.47-.57,.68-1.99,3.29-1.25,1.42-3.35,2.44-1.53,.85-.74,.28-.74,.06-.68-.51h-.45l.34,6.75-.23,3.63,.23,.79,.4,.91,.06,.79-.34,.62-.74,.57-.06,.17,1.19,1.02,2.55,3.01,.62,.45,1.13,1.13,.23,2.1-.45,2.72-1.08,3.12-5.5,7.2-.85-.34-.51-2.38-.62-.74-1.19,.11-.45-.06-.34-.45-1.36-2.38-.34-.74-.28-.51-.34-.17-.74,.06-1.47-.11-1.13,.06-.45-.06-.45-.23-.4-.45,.06-2.16-.11-.45-.74-1.64-.51-.68-.51-.06-1.59,.28-1.87-1.93-5.16-6.3-7.6-7.6-1.42-1.08-.79-.45-.74-.11h-.74l-1.76-.28-1.25-.06-2.95,.45-.96-.06-.4-.62-.06-.91,.06-.96-.23-.4-.62-.23-4.82-.34-.17,.34,.34,.91,.57,.57,.28,.57-2.21,6.98-1.42,2.67-4.25,4.59-1.19,.17-.96-.51-1.76-1.53-.85-.62-.68-.11-1.42,.23h-.85l-.91,.57-.79,7.09-1.47,6.64-.28,.91-.34,.68-.4,.68-.51,.68-.74,.51-1.08,.11-7.03-.62-1.76-.06-.62-12.48,1.19-5.67,4.65-13.33,2.27-2.04,.85-1.3,.06-.4-.17-.96,.06-.4,.57-.85,.34-1.59-.06-1.76-1.87-8.45-.11-1.59,.28-1.36,3.23-4.59,1.47-2.89,.57-.79,.68-.57,4.54-3.18,.62-.23,.45,.17,4.59,4.08,1.13,.68,.45,.45,.28,.57-.17,1.19,.06,.57,.4,.11,.28-.28,.51-1.19,.45-.4,.62-.06,.51,.11,.4-.06,.45-.62,.23-.68v-.45l.17-.51,.68-.62,2.04-1.59,.68-.91,.28-1.3-.23-.57-1.13-.85-.34-.51v-.4l2.5-7.37,.17-1.19-.51-.79-.62-.74-.4-1.08,.11-.79,4.76-10.61,.17-.74-.11-.74-.79-1.59-.28-.79,.06-1.53-.28-1.47,.06-.79,.28-.91,.4-.96,.51-.85,.57-.79,1.47-.91,3.35-1.3,1.13-1.3,.06-.4,.06-.68,.96,.85,1.47,3.46,1.02,1.13,.96,.79,.91,.45h.79l2.1-.68,1.13-.17,1.02,.11,.79-.11,.79-.68,.91-.96,4.76-3.74,.62-.85,1.02-2.5,.23-.23,1.59,.17h1.13l.4,.06,.45,.74,.96,.11h1.08l.62,.17,.17,.17,.91,.57,.34,.45,.45,1.02,.51,.51,1.59,1.36,.17,.23,1.3,2.16,.91,1.13,.4,.91,.28,1.93,.57,1.76,.74,.34,.79-.06,.68-.45,1.59-1.7,1.47-1.3,1.47-1.08,.91-.28,.23,.4-.17,2.55,.17,3.46,.45,.74,1.25,1.3,2.21,3.35,.06,.34-.45,.62-.74,.74-.34,.79,.91,.79,.62,.4,2.33,2.33-.11,1.53-.57,1.13-.68,.96-.4,.85,.11,.68,.17,.79,.11,.79-.34,.68-.11,.51,1.13,2.44-.96,1.64-1.02,1.13-1.99,1.53-.57,.62-.62,.79-.51,.79-.11,.57v.57l-.91,2.16-.11,1.13v1.08l.11,.68h.11l.34-.79,.51-.51,.74-.28h.85l.51,.68-2.5,5.61,.28,2.16,.57,1.64,.79,1.19,.79,.96,.91,.62,.91,.06,1.87-.91,.4-.06,.45,.17,.4,.57v.62l-.11,.68,.06,.68,.51,.74,.74,.28h1.76l4.31,.4,.34-.06,.91-.23h.34l.68,.68,.74,.28,1.76,.11,.79,.17,1.53,.57,5.44,1.02h0Z"/>
  <path id="ETH3133" class="cls-6" d="M307.25,229.8l.28,.17,.96-.06,.79,.06,.96,2.16,.23,.68v.74l-.11,.51-.28,.85,.11,.45-.79-.06-.79-.23,.11,.68,.57,1.42-.06,.57-.45,.28-.57-.06-.51,.06-.23,.74-.45,.62-.74-.11-.74-.4-.45-.34-.74-.91-.34-.4-.4-.34-.85-.28-.34-.34-.28-.34-.34-1.13-.57-.91,.06-.28-.34-.51,.28-.79,.51-1.02,.68-.91,.62-.51,.45-.17,1.53-.34,.45-.06,.17,.17,.28,.51,.4,.06,.79-.79,.11,.57h0Z"/>
  <path id="ETH3134" class="cls-6" d="M317.4,441.46l.45-.4-.28-.28,3.06-1.64,3.23-1.42,1.47-.96,1.19-1.53,5.16-8.85,1.13-2.38-.51-1.59-.06-.74,.17-.79,1.19-3.18,.79-3.35,.28-.51,1.36-1.76,5.96-13.78,.23-.96,.11-2.27,.74-4.14,1.08-3.06,.79-3.12,1.42-2.78,2.33-6.01,3.57-5.16,.79-.62h.57l1.08,.57,1.36,.57,2.72,.57,.79-.11,1.93-.68,.34-.06,.96,.06,1.19-.23,1.53-.17,2.84-.62h1.76l.57-.34,1.02-.17,.62-.28,5.96-5.39,5.5-3.06,2.78-2.04-1.36-3.23-.28-1.02-.06-1.13,.06-3.01-.51-7.2,.28-1.99,.23-.96,.11-.96,.06-.96-.06-.96-.17-.79-.34-.91-.23-.85,.11-1.59-.28-1.81,.28-.85,1.47-2.67,.57-.79,2.21-2.16,1.87-2.55,.79-.74,.91-.51,1.81-.11,1.81,.85,1.81,1.25,4.71,2.5,1.87,.28,.91,.28,.85,.45,.79,.62,6.13,6.3,.45-.91,.57-.51,1.42-.96,.62-.74,1.25-2.5,1.08-1.13,1.59-.96,1.47-.17,.62,1.25h.91l.85-.23,.85-.34,.85-.45,.23-.17,1.02-1.02,.23-.4,.34-.68,.45-.74,.4-.68,.68-2.67,1.02-1.59,.4-.85-.4-.74,.34-.45,.06-.4-.17-.85,.11-.4,.4-.91,.17-.96,.4-.57,1.25-.68-.06-.45,.17-.28,.45-.4,.45-1.19,.51-.79,.23-.4,.06-.51-.06-.85,.06-.4,.17-.34,.74-1.13,.51-1.76,.17-1.81-.45-2.38-.28-.28-11.57-4.54-.34-.62-.28-1.13-.34-1.99-.06-.85,.11-.74,.51-1.59,1.76-3.86,.62-2.16-.23-1.7-.62-1.08-.4-.91-.11-.96,.51-9.24,.4-2.16,.74-1.81,2.1-3.01,.51-1.02,.06-1.02-.23-2.21,.28-.91,1.42-1.87,1.59-1.64,3.57-3.06,2.55-.68,1.47,2.72,.51,.51,4.48,.85,2.16,.91,1.13,1.59,1.13,6.41,.62,1.99,.91,1.81,1.19,1.36,1.25,.28,1.36-1.59,1.47-5.56,1.02-1.42,.79-.45,3.35-.85,.62-.51,.23-.91,.06-1.02,.34-1.81,.06-1.08-.11-1.02-.23-.96-.4-.74-1.93-1.99-.4-1.76,1.19-3.52-.28-1.59-.74-.62-1.64-1.25-.74-.68-2.61-2.89-2.33-3.69-.68-1.53-.11-.68,.11-1.02-.17-.28-.68-.74-.45-.74-1.25-3.63-.11-.57-.06-.91-.11-.34-2.38-4.88-1.25-1.76-1.36-1.36-1.19-.28,.23-3.74-.45-1.64-1.53-.45-1.42-1.59-1.87-.68-1.93,.23-1.76,1.13-4.37,4.42-.68,.11-1.02-.34-2.89-1.59-1.02-.28-.96,.23-1.81,1.19-.74-.06-1.36,.28-.85,2.16-.34,2.55,.23,1.7-.96,.23-.96-.11-.79-.34-.57-.79-.45-.51-.85-.17-.96,.11-.91,.23-.74,.4-1.3,1.13-.68,.34-.85-.06-2.89-1.02-3.12-.62-1.59-.06-1.47,.4-.4,.23-1.02,1.08-.79,.68-.85,.51-.85,.4-1.81,.68-.79,.4-.74,.51-.68,.57-.34,.23-.85,.06-.4,.11-.4,.17-1.19,.79-1.64,.57-.96,.23-.79,.06-.85-.28-.57-.57-.34-.79-.23-.96,.17-.79,.68-.06,1.64,.34,.96-.06,.96-.23,.51-.51-.4-.79-1.76-1.08h-1.76l-1.87,.4h-2.1l-.45-.06-.34,.17,.34-2.67,.68-2.78,.57-1.42,3.35-5.22,2.1-2.38,4.76-4.14,.57-.85-.34-.51-1.7-.68-.62-.57-.28-.96-.06-.96,5.44-20.87v-1.08l-.23-1.59,.11-.74,.34-.79,1.3-1.59,2.89-2.89,1.08-1.76,.23-.96,.17-1.08,.28-.96,.74-.79,.85-.23,15.03,.11,1.13-.11,.68-.28,.62-.4,.45-.23,.23,.4,.96,.34,4.48,.91,.23,.45,.23,.17,.28,.06,.4-.34,.28-.11,2.1-.06,1.08-.28,1.13-1.19,1.02-.34,2.1-.23,1.93,.45h.74l.51-.11,1.3-.62,1.36-.06,1.19-.4,.91,.11,.57,.23h.57l.79-.4,2.5-1.64,3.4-1.02,1.76-.17,2.67,.68h.91l.74,.28,.96,2.1,.62,.57,.85,.17,1.53,.17,.96,.28,.45,.06,.57-.23,.4-.45,.4-.34,.57,.23-.45,.85-.4,1.53-.28,.68-.62,.51-1.59,.68-.57,.62-.34,.74-.11,.68-.23,.57-.62,.62-1.36,1.08-.45,.62-.34,.96-.34,1.53-.28,.79-.45,.62-.74,.4-.74,.23-.51,.4,.06,.79,.74,1.76,1.02,1.59,2.1,2.04,.57,.74,.4,1.08,.51,3.46,.68,2.5,1.08,2.33,.96,1.19,3.63,2.38,.91,.91,.68,1.13,.45,1.25,.34,1.3,.68,1.76,1.08,1.08,1.36,.51,1.76,.34,1.36,.62,.74,1.25,1.08,6.13,.57,1.47,.79,.91,1.02,.28,.34,.17,.34,.34,.34,.85,.28,.4,.34,.34,.79,.51,.34,.34,.85,1.76,.23,.68,.06,1.3,.17,.68,.51,.62,4.88,2.95,.68,.06,.91-.34,.62-.06,.57,.28,2.89,2.67,3.35,3.12,7.49,6.81,1.47,.91,22.97,7.6,19.96,6.64,13.33,4.42,9.53,3.23,12.65,4.31,9.53,3.23,15.82,5.33,5.56,1.87,2.21,1.13h37.77l-5.5,5.39-7.37,7.15-3.63,3.57-9.19,8.9-3.69,3.57-7.32,7.15-1.87,1.81-7.32,7.09-5.5,5.39-7.32,7.15-4.65,4.71-6.92,7.15-6.86,7.15-12.19,13.33-12.14,13.38-8.11,8.9-2.16,2.33-2.95,3.23-1.13,.45-7.88-.45-9.81-.57-17.92-1.02-1.36,.34-3.29,1.13-11.97,2.78-15.48,7.37-6.01,4.93-.51,.79-.51,1.25-.68,2.67-.57,1.19-1.13,1.3-1.42,.96-1.59,.62-14.18,2.38-4.42,.79-6.13,.06-1.19,.28-1.3,.68-2.16,1.7-2.67,1.64-.68,.57-.23,.74v1.19l-.17,.45-.57,.45-.51,.74-1.81,1.02-1.7-.34-1.64-.85-1.81-.57-1.59,.91-.57,.11-.51-.11-1.02-.4-.57-.06-3.06,.74-.96,.06-1.93,.57-8.05,.45-1.99-.23-1.87-.74-1.64-1.3-2.44-3.4-.96-.91-.62-.4-1.81-.62-.68-.34-.4-.4-.62-1.13-.91-1.08-2.27-1.53-.85-1.13-2.38,1.59-12.02,4.59-.23,.23-.17,.62-.23,.17-6.81,2.38-.68-.11v.4l-.17,.23-1.76,.85-10.1,4.88-.79,.96-1.81,4.76-.62,1.13-.68,.96-5.44,4.99-1.02,1.19-.79,2.5-.62,1.02-1.25,.06-.57-.4-.28-.51-.23-.51-.28-.45-1.19-.34-4.71-.17,.34-.68-.17-.4-.51-.06-1.7,1.02h-1.42l-1.47-.28-3.4-1.59h0Z"/>
  <path id="ETH3135" class="cls-6" d="M440.13,205.36l-.74,.4-1.36,1.19-.62,.57-.62,.34-1.93,.11-.91,.34-1.13,.62-.51,.4-.17,.34,.11,.45,.74,1.19-.17,.91-.91,.85-1.08,.85-.68,.85-2.27-1.13h-1.02l-2.1,.96-.91,.11-.45-.11-1.08-.34-.45,.06-1.19,.23-1.08-.17-1.08-.11-1.19,.57-.23-1.7,.34-2.55,.85-2.16,1.36-.28,.74,.06,1.81-1.19,.96-.23,1.02,.28,2.89,1.59,1.02,.34,.68-.11,4.37-4.42,1.76-1.13,1.93-.23,1.87,.68,1.42,1.59h0Z"/>
  <path id="ETH3136" class="cls-6" d="M436.96,218.23l.57,.85v.34l-.23,1.81-.45,.79-.06,.51,.23,.68,.4,.74,.23,.68-.34,.74-.62,.34-.62-.17-1.02-.91-.51-.17-1.02,.45-.57,.06-.28-.17-.57-.51-.34-.23-.74,.06-.74,.17-.62-.11-.06-.85,.17-1.13,.4-1.08,1.13-1.93,.85-.91,.62,.06,.68,.4,.96,.28,.85-.28,.91-.45,.79-.06h0Z"/>
  <rect id="_0" data-name="0" class="cls-6" x="403.95" y="365.07"/>
  <rect id="_1" data-name="1" class="cls-6" x="334.13" y="370.79"/>
  <rect id="_2" data-name="2" class="cls-6" x="296.98" y="354.97"/>
  <path class="cls-8" d="M243.52,376.45c.4-.25,1.36-.86,1.87-.92s1.44-.1,1.76,.17,.34,.35,.72,.38,.85-.04,1.09,.08,1.73,1.07,2.22,1.21,1.12,.27,1.53,.13,2.59-1.33,2.91-1.36,1.5-.78,1.66-.78,1.52-.43,1.64-.53,1.14-.48,1.19-.58,.55-.19,.69-.2,.6-.66,.74-.69,.25-.12,.25-.12c0,0-.05-.35,.13-.54s.6-.49,.85-.63,.24-.42,.35-.68,.56-1.4,.56-1.67,.62-1.07,.62-1.23,.22-2.08,.01-2.24-.63-.35-.82-.67-.86-.56-1.16-.83-1.11-.78-1.44-1.21-1.16-1.57-1.2-1.68-.2-1.04-.2-1.22-.04-.8,.16-.66,.21,.25,.49,.29,.76-.18,.77-.36,.8-1.58,.92-1.69,.77-.44,1.22-.58,.73-.26,1.04-.11,1.21,.52,1.33,.63,.53,.55,.65,.84,.48,.7,.52,1.04,.12,.59,.26,.62,.58-.03,.68-.22,.57-.45,.79-.48,.63-.08,.89-.03,1,.11,1.31,.05,.67-.39,.95-.63,.73-.41,1.05-.42,.79,.02,1.04,.12,.43,.15,.71,.06,.21-.21,.42-.22,.91,.08,1.2-.05,1.2-.76,1.38-.86,.58-.11,.65-.11,.63-.4,.79-.5,.16-.18,.16-.18v-1.36s-.51,.04-.61-.04-.87-.63-1.37-.99-.68-1.34-.76-1.48-.23-.58-.25-.69-.17-.59-.23-.72-.32-.62-.4-.71-.21-.22-.22-.33,.04-1.06-.09-1.29-.15-.48-.21-.65-.04-.51-.11-.62-2.26-.12-2.4-.21-.7-.71-.74-.78-.34-.21-.55-.31-.48-.2-.56-.33-.35-.21-.42-.22-.79,.09-1.02,.13-.53,.19-.61,.27-.18,.32-.29,.35-.39-.15-.41-.29,.09-.24-.1-.4-.37-.51-.4-.72,0-.35-.08-.55-.08-.38-.08-.55,.05-.47,.08-.59,.06-.34,.14-.46,.09-.34,.07-.41,.16-.5,.07-.65-.16-.26-.36-.21-.39,.33-.39,.38-.14,.5-.14,.54-.04,.3-.08,.44-.1,.37-.13,.42,.05,.25-.29,.32-.83,.12-1.11,.13-.87-.04-.98-.03-.23,.14-.28,.22-.36,.25-.41,.34-.12,.37-.18,.45-.08,.31-.21,.27-.41-.07-.5-.19-.11-.27-.26-.31-.32,0-.32,0c0,0,.16,.17-.03,.18s-.3,.03-.37-.05-.19-.1-.2-.14-.04-.23-.02-.3,.22-.45,.23-.52,.16-.19,.18-.4,.11-.53,.11-.7,.02-1.39,.06-1.67,.29-.52,.48-.53,.85,.04,1.06,0,.21-.15,.17-.29-.24-.34-.33-.42-.41-.16-.58-.28-.12-.25-.51-.26-1.27-.01-1.45,0-.54,.5-.73,.56-.73,.14-1.19,.1-.71-.15-1.07-.15-1.09,.07-1.37,.43-.59,.66-.75,.65-.57-.1-.65-.23-.14-.84-.17-.95-.11-.7-.22-.84-.2-.3-.33-.32-.4,.13-.44,.23-.25,.46-.33,.64-.46,1.17-.49,1.26-.1,1.1-.12,1.2-.38,.32-.37,.54-.07,.56,.03,.65,.67,.61,.85,.77,.3,.31,.28,.44,.04,2.22-.01,2.26-.31,.3-.31,.39,.07,.7-.05,.88-.6,.95-.59,1.08-.11,2.16-.11,2.21-.34,.5-.44,.53-.9,.53-1.21,.73-.93,1.33-.84,1.82-.22,.93-.42,.96-.87-.16-.99-.08-.8,.68-1.09,.77-.97,.33-1,.59,.28,.68,.41,.78,.84,.51,.93,1.03,.09,.78-.03,1.08-.02,1.61,.07,1.75,.15,.17,.55,.2,1.01,.05,1.15-.03,.36,0,.37,.18-.02,.85,.09,.98,.51,.59,.52,.71,.04,.66,.18,.8,.51,.27,.57,.33,.06,.22,0,.32-.08,.62-.07,.71-.05,.34-.15,.34-.43,.12-.51,.19-.25,.26-.36,.25-.08-.46-.13-.52-.3-.03-.38-.14-.13-.19-.27-.21-.35,.14-.41,.23-.15,.18-.27,.21-.14,.29-.09,.42,.54,.15,.71,.17,.21,.05,.21,.1-.24,.1-.34,.1-.54,.17-.6,.2-.1,1.58-.16,1.71-.07,.52-.18,.6-.25,.23-.5,.21-.52,.1-.75,.08-1.18,0-1.31-.03-.24,0-.58,0-.48,.07-.58,.22-.22,.38-.36,.43-.17,.18-.19,.31-.04,.25-.22,.26-.37,.09-.49,.19-.12,.14-.28,.1-.13-.12-.26-.14-.55-.03-.61,.01-1.19,.43-1.95,.44-.99,.08-1.15,.3-.1,.37-.2,.5-.14,.41-.15,.47-.12,.12-.12,.39-.03,.43-.1,.48-.09,.04-.1,.4-.02,.64-.08,.69-.08,.89-.02,.96,.93,.06,1.04,.08,.41,.19,.53,.27,.38,.06,.48,.09,.27,.13,.27,.13l3.03-.02Z"/>
  <path class="cls-8" d="M279.61,325.38c.22,.17,.48,.83,.81,.9s1.25-.08,1.41,.24,.17,1.18,.08,1.29-.07,.59,0,.6,.63-.2,.75-.2,.74-.04,.87-.16,.23-.27,.3-.25,.65,.2,.87,.13,.31-.28,.76-.14,.96,.17,.89,.43,.2,.39,.62,.75,.53,.74,.72,.89,1.04,.01,1.39,.07,.22,.14,.86,.1,1.17,.31,1.19,.61,.06,.3,.12,.44,.04,.59,.23,.61,.13-.52,.16-.68,.46-.75,.59-.86,.27-.31,.27-.54,.58-.71,.73-.75,.4-.07,.57,.04,.41,.03,.51-.13,.52,.2,.66,.18,1.95,.09,2.09,0,.37-.08,.49-.03,.36,.11,.46,.07,.18,.12,.27,.18,.67,.33,.78,.36,.66,.15,.78,.1,.31-.51,.54-.52,.61,.18,.73,.23,.42,.22,.46,.37,.03,.39,.18,.42,.43,0,.5,.17,.26,.24,.58,.22,.43-.32,.73-.4,.92-.2,1.09-.06,1.71,1.85,1.8,2,.58,.15,.7,.05,.46,.38,.46,.54,1.55,1.68,1.64,1.84,1.19,1.93,1.45,2.3,1.11,1.96,1.62,2.33,.92,.65,1.98,.65,2.35-.04,2.65-.16,.48-.49,.23-.85-.29-1.07-.39-1.3-.54-.97-.29-1.57,1.2-1.63,1.24-1.81,.72-1.16,1.29-1.04,1.98,1,2.31,1.34c.6-.39,.66-.87,1.04-1.09s.29-.69,.48-1.13,1.9-1.35,2.12-1.44,.1-2.34,.28-2.79,.95-2.44,1.37-2.65,1.1-.79,1.41-.71,1.11,.14,1.24,.11,0-.95,0-.99,.6-1.23,1.53-1.06,1.14-.96,1.14-.96c-.17-.38-.28-1.28,0-1.51,.28-.23,.4-.81,.2-1.07-.2-.26-1.2-.53-1.83-.3-.63,.23-1.13,.7-1.33,.68-.2-.02-1.14-.11-1.31-.02-.17,.09-.29,.46-.52,.49-.23,.03-.99-.09-1.13-.22s-2.08-.25-2.2-.3c-.12-.05-.96-.38-1.28-1.35-.14-.38-.87-1.21-1.68-1.27-.87,.05-1.36,.19-1.65-.01s-.54-.63-.56-.66c-.15-.02-1.56-.04-1.56-.04,0,0-2.09,1.81-2.85,1.89s-1.58-.02-1.7,.48c-.12,.5-.2,1.15-.57,1.57-.37,.41-.45,.7-.15,1.01s.56,.71,.35,1.19c-.21,.48-.84,.26-.89,.2s-.07-.65-.12-.67c-.06-.01-1.4-.27-1.63-.27s-1.77-.1-1.8-.14-.29-.51-.35-.54c-.06-.03-.44-.83-.87-.86-.42-.04-1.37,.04-1.78-.03-.4-.07-1.18-.4-1.5-.72s-.96-.91-1.24-1.02c-.28-.11-.64-.1-.75-.33-.11-.23-.14-.29-.72-.54-.58-.25-1.09-.25-1.17-.25s-.16,.09-.34,.04c-.18-.05-.33-.17-.3-.31,.03-.14-.05-.44,0-.49s.52-.12,.73-.09c.21,.02,.27,0,.3-.1,.03-.09-.02-.79,.06-.95s1.15-.97,1.19-1.08c.04-.11,.05-.25,.37-.2s1.17-.38,1.19-.52c.02-.14-.18-.67-.28-.93-.11-.26-.13-.66-.11-.84,.02-.18,.07-1.41-.08-1.6-.15-.19-.19-.32-.14-.42,.05-.1,.23-.41,.44-.56,.21-.15,.28-.45,.29-.62,0-.17-.13-.47-.26-.43-.13,.05-.23,.1-.23,.1,0,0-.4,.42-.47,.46-.07,.05-.23,.09-.27,0-.04-.09-.03-.54-.07-.57-.05-.02-.08-.91-.02-1.1,.06-.19-.02-.61-.09-.65-.07-.04-.45-.22-.79-.25s-.74-.12-.74-.24,.18-.41,.23-.6c.05-.19-.09-.92-.16-.99s-.63-.38-.77-.42c-.14-.05-.43-.18-.63-.19-.2-.01-.43,.18-.53,.23-.1,.06-.81,.71-.9,.9-.09,.19-.28,.32-.47,.31-.19,0-2.22,.01-2.45,.03-.23,.02-.34,.2-.32,.32s0,.35-.08,.48-.17,.18-.18,.31c-.01,.13-.11,.37-.11,.51s-.08,.82-.13,.91c-.05,.09-.37,.31-.43,.41-.06,.1-.1,.65-.14,.69-.04,.04-.37,0-.43-.05-.06-.05-.46-.02-.52,.16-.06,.18-.06,.19-.09,.19s-.34-.05-.39-.16c-.06-.11-.49-.67-.49-1.09s-.02-.74-.08-.79c-.06-.05-.18-.13-.1-.22,.08-.09,.6-.78,.74-.83,.14-.06,.43-.24,.44-.35,0-.11,.02-.84,.07-.88,.05-.05,.2-.59,.18-.67s-.06-.24-.12-.23c-.06,0-.8,.06-.99-.01-.18-.07-.66-.31-.8-.41-.14-.09-.23-.27-.4-.28-.17-.01-.5-.43-.55-.58-.05-.15-.26-.23-.5-.21-.23,.02-.38,.15-.41,.25-.03,.1-.37,1.07-.46,1.11-.09,.04-.79,.79-.93,.92-.14,.13-.05,.21-.32,.53-.27,.32-.71,.84-.79,1.08s-.19,.53-.16,.76c.03,.23,.08,.56,.01,.61-.06,.05-.52,0-.64,.08-.13,.07-.71,.17-1.04,.12s-1,.33-1.13,.45c-.13,.11-1.04,.91-1.13,.94-.09,.03-.44,.31-.59,.25-.15-.06-.57-.32-.74-.5-.17-.18-.92-1.35-1.04-1.5-.12-.16-.83-.59-.87-.74-.03-.15-.12-.77-.35-.79-.23-.02-.56,.15-1.05,.14s-1.11-.02-1.25-.16c-.14-.14-.4-.86-.44-.96-.04-.1-.26-.53-.78-.53-.52,0-.95,.14-1.13,.04-.18-.1-.43-.36-.5-.38-.07-.01-.4,.26-.47,.38-.08,.11-.34,.31-.53,.31s-.71-.09-.89-.24c-.18-.15-.1-.18-.4-.16s-.32,.34-.48,.46c-.16,.12-.6-.09-.81,0-.21,.08-.95-.06-1.48-.1-.53-.04-.98-.43-1.32-.52-.34-.09-1.16-.8-1.34-1.03-.18-.23-.23-.57-.1-.66s.62-.12,.78-.13c.16-.01,1.52-.24,1.89-.47,.37-.23,2.57-1.46,2.7-1.51,.14-.05,.57-.27,.67-.38,.11-.11,.39-.3,.78-.17,.39,.13,.76,.23,1.1,.59,.33,.37,.82,.2,.95,.26s.45,.19,.93,.11c.48-.08,1.2-.84,1.3-.98,.09-.14,.43-.94,.54-1.12,.11-.18,.37-.29,.4-.43,.03-.14,.31-.26,.32-.34,.02-.08,.01-.49-.05-.53s-1.38,.06-1.68-.12c-.3-.18-.33-.65-.26-.77,.07-.12,.58-.99,.79-1.21,.21-.22,.59-.89,.74-1,.15-.11,.42-.81,.46-1.05,.05-.24-.17-.51-.53-.38-.37,.13-1.1,0-1.22-.11-.12-.11-.85-.4-1.01-.33-.17,.07-.7,.34-.89,.38-.19,.04-.57,.25-.63,.1s-.23-.67-.35-.84c-.11-.18-.45-.73-.68-.8-.24-.07-.64,.06-.69-.04-.05-.1-.02-.49-.13-.58-.11-.09-1.2-.03-1.24,0s.03,.31-.14,.53c-.17,.22-.48,1.01-1.1,1.24-.62,.23-.51,.18-.72,.54s-.63,1.09-.76,1.23c-.12,.14-.53,.56-.6,.78-.07,.22-.08,.48-.15,.57s-.33,.07-.43,.23c-.1,.17-.26,.69-.33,.78s-.33,.61-.37,.71-.12,.3-.3,.37c-.18,.08-.26,.41-.55,.46-.29,.04-1.27-.39-1.62-.83s-.76-.25-.85-.17c-.09,.08-.25,.49-.42,.62-.17,.14-.46,.39-.57,.47-.11,.08-.27,.33-.57,.23s-.34-.51-.31-.94c.03-.43,.17-.98,.11-1.08-.06-.11-1.32-.42-2.2-.42-.88,0-1.83,.27-2.35,.16-.52-.11-1.01-.2-1.66-.19-.66,.01-1.18,.34-1.46,.34-.28,0-.95-.08-1.04-.25-.09-.17-.51-.72-.77-.76-.27-.04-2.67,.5-3.89,1.64-1.22,1.13-2.62,2.26-2.95,2.4-.34,.14-.35,.38-.22,.59,.14,.21,1.67,1.9,2.29,2.27s1.87,1.11,2.21,2.02-.2,2.82,.27,3.24c.47,.43,.92,.76,1.23,.83,.31,.07,.77,.18,1.24,.37s1.09,.53,1.29,.68c.21,.15,1.12,.52,1.2,.57s.39-.06,.52-.02c.13,.04,.36,.4,.36,.62s.46,1.11-.04,1.78c-.51,.66-.65,1.02-.72,1.12s-.76,.12-1.07-.03-2.52,0-2.81,.19-.57,1.12-.78,1.52c-.21,.4-.42,1.03-.74,1.38-.32,.35-.76,1.14-.76,1.47s-.45,1.14-.52,1.33c-.07,.18-.12,.54,.13,.58,.25,.05,1.32-.38,1.57-.52,.25-.14,.68-.37,1.15-.19,.47,.19,1.4,.18,1.63,.3,.23,.12,1.13,.56,1.43,.57,.31,.02,.96,.14,1.1,.19,.14,.05,.69,.37,.82,.37s.44-.26,.81-.07c.37,.19,.82,.2,1.33,.65,.5,.45,.61,.42,.88,.78,.27,.37,.36,.46,.62,.45,.26-.01,.29-.03,.61-.26,.32-.23,.48-.33,1.01-.33s.95,.1,.98,.25c.03,.15,.1,.47,.24,.49,.14,.02,.93,.05,1.1,0,.17-.04,.47-.24,.63-.23,.15,.02,.56,.06,.75,.1,.18,.03,.55-.21,.92-.19s.63,.1,.82,.35c.2,.25,1.38,1.74,1.63,1.76s1.48,.13,1.65,.22c.17,.09,.55,.48,.67,.61s.3,.25,.47,.02c.17-.23,.8-1.45,1.03-1.56,.23-.11,.76-.05,.92-.25,.16-.21,.18-.82,.43-1.09,.25-.27,.97-.22,1.21-.05,.24,.17-.34,1.09-.36,1.31-.02,.22,.01,.58,.01,.58,0,0,.61,.61,.74,.8,.13,.19,.6,.28,1.05,.2s1.13-.12,1.3-.37c.17-.25,.33-.75,.68-.79,.34-.04,.53,.01,.72,.49,.19,.49,.58,.88,.86,1.04,.16,.09,.48,.22,1.04,.08"/>
  <path class="cls-8" d="M222.83,303.96c.96,.05,1.6-.03,1.9,.15s.78,.35,1.38-.08,.49-1.03,.65-1.05,1.32-.3,1.77-1.03,1.25-2.81,1.5-3,1.46-1.92,1.82-2.34,1-.51,1.46-.37,.64,.75,1.2,.94,1.05,.52,1.22,.84,.52,.41,.51,.81-.28,.76-.42,.87-2.04,.15-2.04,.15c0,0-.56,.11-.76,.08-.22,.16-.24,.18-.32,.41s-.61,1.1-.54,1.81-.08,1.15-.18,1.28-.38,.36-.41,.81c-.22,.39-.89,1.36-.86,1.91,.04,.55,.02,.89,.04,1.01s-.39,.72-.75,1.04c0,0-.16,.14-.18,.3s-.14,.74-.3,.87,.67,.15,.67,.15l4.61,.03s1.35-1.76,2.22-1.74,1.41,.52,1.54,.63,.17,1.12,.27,1.59,.74,.92,1.34,.98,1.76,.99,1.73,1.36,.07,.7-.27,1-.98,.93-1.32,1.21-.93,.51-1.06,.6-.68,.55-.88,.64-.63,.38-.77,.47-1.25,.69-1.57,.89-.74,.78-.88,1.51-.06,.77,0,.95,1.42,.89,1.42,1.05,.47,2.03,.51,2.52,.09,.67,.29,.73,1.22-.07,1.48-.43,1.03-.62,1.56-.85,1.71-.77,1.98-.94,.8-.55,1.3-.45l.5,.09s.9,.52,.79,1.03-.82,1.86-1.42,2.74-1.05,1.6-1.03,1.87,.12,.34,.01,.53-2.17,2.51-2.38,2.81-1.43,1.48-1.86,1.98-2.35,1.84-2.47,2.1,0,.32,.12,.64,.09,.72,0,.95-.75,.72-.72,1.04,.29,1.21,.15,1.38c-.18,.22-1.36,.7-1.56,.59-.22-.12-.44-.67-.47-.96s-.12-.87,0-1.01,.02-.37-.06-.38-.42,.04-.69,.2-1.03-.15-1.1-.25-.32,.08-.34,.15-.41,.26-.65,.37-.88,.45-1.39,.36-1.21-.05-1.36,.1-.78,.67-.53,1.13,.41,.99,.31,1.63-1.03,.72-1.3,1.28-.4,.67-.26,1.01,.67,.58,.71,.93,.04,1.83,.08,1.91,.09,1.07,.14,1.17,0,.77,.14,.88,.27,.58,.26,.7,.01,.58-.1,.62-1.56,.48-1.96,1.11c-.01,.36-.06,1.11,.04,1.25s.8,.68,.84,1.54c.04,.86-.26,2.53-.28,2.78s-.16,1.25-.15,1.75c-.28,0-1.85,.29-2.18,1.38-.2,.02-.47,0-.47,0-.29-.36-.9-1.01-2.16-1s-2.75,1.75-2.96,2.18c-.21,.04-.53,.02-.53,.02,0,0-.55-.64-.8-.76s-1.09-.41-1.42-.68-1.6-.97-2-.98-1.61-.2-2.04,.52-.66,1-.69,1.35-.04,.75-.04,.75l-1.04,.94s-.28,.05-.3-.13,.01-.94,.11-1.17,.38-1.77,.88-2.46c.21-.96,.32-1.16,.41-1.49s.37-.95,.14-1.28-.64-1.52-.4-2.24,1.11-.68,1.32-.7,.65-.82,.78-1.08,.51-.73,.97-.18,.89,.88,1.21,.9,.67,.12,.78,.13,.54-.8,.66-.97,.23-.79,.17-1.4-.2-1.95-.41-2.23-3.09-1.91-3.83-2.09c-.06-.02-.12-.46,.06-.45s1.18,.22,1.96-.71,.9-1.44,.96-2.03,.5-.72,.54-.78-.03-.95,.2-1.14,.47-.49,.6-.73,.04-.72,.12-.78,.83-.77,.89-.98,.24-1.1,.38-1.19,.03-1.01-.17-1.08-.51-.1-.48-.56c.03-.68-.96-1.18-1.15-1.3v-.88s-.26-.62-.82-.77c0,0,.06-.89-.12-1.37s-.17-1.03-.23-1.14-.28-.33-.86-.3-1.16-.01-1.16-.01c0,0-.07-1.09,0-1.17s.12-.72,.18-1.02,.16-.89,.26-1.44,.27-4.4,.26-4.68,.07-.45,.26-.66,.36-.63,.42-.81,1.48-.81,1.7-1.41,.42-.66,.57-.63,1.01,.25,1.55-.18,.74-1.06,.64-1.81-.03-1.62-.09-1.75-.62-.6-.62-1.55c0-.95,.75-1.99,1.04-2.01s1.43,0,2-1.02c.2-.37,.89-.83,1.14-1.09s.74-.95,.84-1.44,.11-1.86,.11-1.86Z"/>
  <line class="cls-5" x1="257.94" y1="352.45" x2="7.19" y2="314.77"/>
  <line class="cls-5" x1="226.02" y1="329.23" x2="-23.42" y2="333.57"/>
  <circle class="cls-7" cx="258.46" cy="351.22" r="3.75"/>
  <circle class="cls-7" cx="226.02" cy="330.3" r="3.75"/>
  <line class="cls-5" x1="275.34" y1="315.12" x2="22.84" y2="338.17"/>
  <circle class="cls-7" cx="276.85" cy="314.77" r="3.75"/>
  <rect class="cls-2" x="-53.86" y="282.06" width="157.57" height="120.89"/>
  <circle class="cls-7" cx="106.21" cy="330.3" r="3.75"/>
  <g>
    <path class="cls-9" d="M21.5,157.73c-.08-.08-.22-.19-.43-.32-.21-.14-.46-.27-.77-.39-.3-.12-.63-.23-.98-.33-.35-.1-.71-.14-1.07-.14-.63,0-1.11,.12-1.44,.36-.32,.24-.48,.57-.48,1,0,.33,.1,.59,.31,.78,.2,.19,.51,.36,.92,.49,.41,.14,.92,.28,1.53,.44,.79,.19,1.48,.43,2.07,.7,.58,.28,1.03,.64,1.34,1.08,.31,.45,.47,1.03,.47,1.77,0,.64-.12,1.19-.36,1.65-.24,.46-.57,.83-.99,1.11-.42,.28-.9,.49-1.43,.62-.53,.13-1.1,.19-1.7,.19s-1.2-.06-1.8-.19c-.6-.12-1.18-.3-1.73-.54-.56-.23-1.07-.51-1.53-.84l1.04-2.02c.1,.1,.28,.24,.54,.4,.26,.16,.58,.33,.95,.49,.37,.16,.78,.3,1.22,.42,.44,.11,.89,.17,1.34,.17,.63,0,1.12-.11,1.44-.32s.49-.52,.49-.91c0-.36-.13-.64-.39-.85-.26-.2-.62-.38-1.09-.53-.46-.15-1.01-.32-1.65-.5-.76-.21-1.39-.45-1.9-.72-.51-.27-.89-.6-1.14-1.01-.25-.41-.37-.91-.37-1.52,0-.82,.2-1.52,.59-2.07s.92-.98,1.59-1.27c.67-.29,1.41-.43,2.23-.43,.57,0,1.1,.06,1.61,.19,.5,.12,.98,.29,1.42,.49s.84,.43,1.19,.66l-1.04,1.9Z"/>
    <path class="cls-9" d="M27.07,158.88v7.75h-2.35v-12.07h1.87l6.24,7.96v-7.94h2.35v12.05h-1.96l-6.15-7.75Z"/>
    <path class="cls-9" d="M40.04,158.88v7.75h-2.35v-12.07h1.87l6.24,7.96v-7.94h2.35v12.05h-1.96l-6.15-7.75Z"/>
    <path class="cls-9" d="M50.67,166.63v-12.07h5.12c.56,0,1.06,.11,1.53,.34,.46,.23,.87,.53,1.22,.92,.35,.39,.61,.82,.81,1.29,.19,.48,.29,.96,.29,1.46,0,.68-.16,1.33-.48,1.94-.32,.61-.75,1.11-1.31,1.5-.56,.39-1.21,.58-1.97,.58h-2.86v4.05h-2.35Zm2.35-6.1h2.72c.28,0,.54-.08,.76-.24s.41-.39,.54-.69c.14-.3,.2-.64,.2-1.03,0-.42-.08-.78-.23-1.07-.15-.29-.35-.52-.59-.66-.24-.15-.51-.22-.79-.22h-2.62v3.91Z"/>
    <path class="cls-9" d="M61.26,166.63v-12.07h5.34c.56,0,1.07,.11,1.54,.34,.47,.23,.88,.53,1.22,.92s.61,.82,.8,1.29,.28,.96,.28,1.46-.09,1-.26,1.47-.43,.88-.76,1.23c-.33,.35-.71,.62-1.16,.82l2.75,4.54h-2.58l-2.48-4.05h-2.35v4.05h-2.35Zm2.35-6.1h2.94c.29,0,.56-.09,.78-.26,.23-.18,.41-.41,.54-.71,.14-.29,.2-.62,.2-.99,0-.39-.08-.72-.24-1.01s-.36-.52-.6-.69c-.24-.17-.51-.26-.79-.26h-2.84v3.91Z"/>
  </g>
  <line class="cls-1" x1="195.21" y1="310.97" x2="59.21" y2="174.98"/>
  <circle class="cls-3" cx="196.5" cy="312.27" r="3.75"/>
  <circle class="cls-3" cx="59.21" cy="174.98" r="3.75"/>
  <g>
    <path class="cls-9" d="M45.94,324.33c-.08-.08-.22-.19-.43-.32-.21-.14-.46-.27-.76-.39-.3-.12-.63-.23-.98-.33-.35-.1-.71-.14-1.07-.14-.63,0-1.11,.12-1.44,.36s-.48,.57-.48,1c0,.33,.1,.59,.31,.78,.2,.19,.51,.36,.92,.49,.41,.14,.92,.28,1.53,.44,.79,.19,1.48,.43,2.07,.7,.58,.28,1.03,.64,1.34,1.08,.31,.45,.47,1.03,.47,1.77,0,.64-.12,1.19-.36,1.65-.24,.46-.57,.83-.99,1.11-.42,.28-.9,.49-1.43,.62-.53,.13-1.1,.19-1.7,.19s-1.2-.06-1.8-.19-1.18-.3-1.73-.54c-.56-.23-1.07-.51-1.53-.84l1.04-2.02c.1,.1,.28,.24,.54,.4,.26,.16,.58,.33,.95,.49s.78,.3,1.22,.42c.44,.11,.89,.17,1.34,.17,.63,0,1.12-.11,1.45-.32s.49-.52,.49-.91c0-.36-.13-.64-.39-.85-.26-.2-.62-.38-1.09-.53s-1.01-.32-1.65-.5c-.76-.21-1.39-.45-1.9-.72s-.89-.6-1.14-1.01c-.25-.41-.37-.91-.37-1.52,0-.82,.2-1.52,.59-2.07,.39-.56,.92-.98,1.59-1.27s1.41-.43,2.23-.43c.57,0,1.1,.06,1.61,.19,.5,.12,.98,.29,1.42,.49s.84,.43,1.19,.66l-1.04,1.9Z"/>
    <path class="cls-9" d="M48.95,323.09v-2.26h2.28v2.26h-2.28Zm0,10.15v-8.91h2.28v8.91h-2.28Z"/>
    <path class="cls-9" d="M52.74,328.84c0-.85,.17-1.62,.51-2.31,.34-.69,.81-1.24,1.41-1.64,.6-.4,1.29-.61,2.06-.61,.66,0,1.25,.16,1.78,.48,.53,.32,.94,.73,1.23,1.23v-5.17h2.28v9.86c0,.24,.04,.41,.12,.51s.21,.16,.41,.19v1.85c-.4,.08-.72,.12-.97,.12-.41,0-.75-.1-1.01-.31-.27-.2-.42-.47-.45-.8l-.03-.56c-.33,.56-.77,.98-1.33,1.27-.56,.29-1.15,.44-1.76,.44s-1.18-.12-1.69-.35-.96-.56-1.34-.98c-.38-.41-.67-.9-.88-1.45-.21-.55-.31-1.15-.31-1.79Zm6.99,1.17v-2.08c-.11-.32-.29-.61-.54-.87-.25-.26-.53-.46-.83-.61-.31-.15-.61-.23-.92-.23-.35,0-.67,.07-.95,.22-.28,.14-.53,.34-.74,.58s-.37,.53-.48,.85c-.11,.32-.16,.66-.16,1.02s.06,.69,.18,1.01,.29,.59,.52,.83c.23,.23,.49,.42,.79,.55,.3,.13,.63,.2,.98,.2,.21,0,.43-.04,.65-.11s.43-.17,.63-.3c.2-.13,.37-.28,.53-.47,.15-.18,.27-.38,.35-.59Z"/>
    <path class="cls-9" d="M63.64,330.64c0-.57,.16-1.07,.48-1.5,.32-.43,.77-.76,1.35-1,.58-.23,1.24-.35,1.99-.35,.37,0,.75,.03,1.14,.08,.39,.06,.72,.15,1,.27v-.47c0-.56-.17-.98-.5-1.29-.33-.3-.83-.45-1.49-.45-.49,0-.95,.08-1.39,.25-.44,.17-.91,.42-1.39,.75l-.73-1.5c.59-.38,1.19-.67,1.81-.87s1.27-.29,1.95-.29c1.27,0,2.26,.31,2.97,.94,.71,.63,1.06,1.52,1.06,2.68v2.8c0,.23,.04,.4,.13,.5s.22,.16,.42,.18v1.85c-.2,.03-.39,.06-.55,.08-.16,.02-.3,.03-.42,.03-.45,0-.8-.1-1.03-.31-.23-.2-.38-.45-.43-.75l-.05-.46c-.39,.5-.87,.88-1.45,1.16s-1.17,.41-1.77,.41-1.12-.12-1.59-.36c-.47-.24-.84-.57-1.11-.99s-.4-.89-.4-1.42Zm5.54,.44c.12-.13,.23-.27,.31-.4,.08-.13,.12-.25,.12-.36v-.88c-.27-.11-.57-.2-.88-.26-.32-.06-.62-.09-.9-.09-.59,0-1.07,.12-1.45,.37-.38,.25-.57,.58-.57,.99,0,.22,.06,.43,.19,.63,.12,.2,.31,.36,.54,.48,.24,.12,.52,.18,.85,.18s.67-.06,1-.19c.33-.13,.59-.28,.8-.47Z"/>
    <path class="cls-9" d="M87.85,333.24h-2.28v-4.93c0-.69-.12-1.2-.37-1.53-.24-.33-.58-.49-1.01-.49s-.86,.17-1.27,.51c-.4,.34-.69,.78-.86,1.33v5.11h-2.28v-4.93c0-.7-.12-1.22-.37-1.54-.24-.32-.58-.49-1.01-.49s-.87,.17-1.27,.5c-.4,.33-.69,.77-.86,1.31v5.14h-2.28v-8.82h2.06v1.65c.34-.57,.79-1.01,1.36-1.32,.57-.31,1.22-.46,1.96-.46s1.31,.18,1.73,.54c.41,.36,.68,.8,.79,1.33,.36-.6,.82-1.07,1.39-1.39,.56-.32,1.19-.48,1.9-.48,.55,0,1.01,.1,1.35,.29,.35,.2,.61,.46,.81,.79,.19,.33,.33,.7,.4,1.12,.07,.41,.11,.83,.11,1.26v5.5Z"/>
    <path class="cls-9" d="M93.95,333.41c-.73,0-1.38-.12-1.96-.36-.58-.24-1.07-.57-1.47-1-.4-.43-.71-.91-.93-1.46s-.32-1.13-.32-1.73,.11-1.2,.32-1.75,.52-1.04,.93-1.46c.4-.43,.89-.76,1.47-1,.58-.24,1.23-.36,1.96-.36s1.37,.12,1.95,.36c.57,.24,1.06,.57,1.47,1,.41,.43,.72,.91,.93,1.46s.31,1.13,.31,1.75-.1,1.18-.31,1.73-.52,1.04-.92,1.46c-.4,.43-.89,.76-1.47,1-.58,.24-1.23,.36-1.96,.36Zm-2.33-4.56c0,.51,.1,.96,.31,1.36,.2,.39,.48,.7,.83,.93,.35,.22,.75,.33,1.19,.33s.82-.11,1.17-.34c.35-.23,.63-.54,.84-.93,.21-.4,.32-.85,.32-1.36s-.11-.95-.32-1.35c-.21-.4-.49-.71-.84-.93-.35-.22-.74-.33-1.17-.33s-.84,.11-1.19,.34-.63,.54-.83,.93c-.2,.39-.31,.85-.31,1.36Z"/>
  </g>
</svg>