<?xml version="1.0" encoding="UTF-8"?>
<svg id="Layer_2" data-name="Layer 2" xmlns="http://www.w3.org/2000/svg" viewBox="0 0 769.41 453">
  <defs>
    <style>
      .cls-1, .cls-2, .cls-3, .cls-4, .cls-5 {
        stroke-width: 2px;
      }

      .cls-1, .cls-2, .cls-4 {
        fill: #ddd;
      }

      .cls-1, .cls-6 {
        stroke: #739b97;
      }

      .cls-1, .cls-6, .cls-3, .cls-4 {
        stroke-linecap: round;
        stroke-linejoin: round;
      }

      .cls-7 {
        fill: #fff;
      }

      .cls-8, .cls-3 {
        fill: #c2d4d1;
      }

      .cls-2 {
        stroke: #848484;
      }

      .cls-2, .cls-9, .cls-10, .cls-5 {
        stroke-miterlimit: 10;
      }

      .cls-9 {
        opacity: .55;
        stroke-width: .5px;
      }

      .cls-9, .cls-10 {
        fill: #f1a41f;
        stroke: #a26a28;
      }

      .cls-10 {
        opacity: .3;
      }

      .cls-11 {
        fill: #3d9b8f;
      }

      .cls-6 {
        fill: #ededed;
      }

      .cls-3, .cls-4 {
        stroke: #fff;
      }

      .cls-5 {
        fill: none;
        stroke: #ababab;
      }

      .cls-12 {
        fill: #7f7f7f;
      }
    </style>
  </defs>
  <path id="ETH3129" class="cls-3" d="M336.78,407.59l-.23-.06-.57-.28-.28-.11-12.93,.28-.51-.06-.68-.34-.34-.11h-.45l-1.25,.17-5.67,.06-.91-.23-.79-.51-1.47-1.25-.62-.45-.28-.51v-.68l.11-.74v-.74l-.51-.91-.11-.62-5.1-5.5-.96-1.59-.28-1.87,.17-7.88,.17-.51,1.47-1.81,.28-.79v-.79l-.34-.91-.74-1.42-.11-.74,.23-.91,1.02-1.47-.17-.34-2.1-.79-2.44-1.53-.96-.28-.74,.17-.68,.34-.85,.17-.96-.23-1.59-1.3-.85-.51-.68-.17-.79-.11h-.79l-.68,.11-.85,.57-1.53,1.7-.85,.57-.91,.17-.68-.34-.57-.62-1.25-1.99-.17-.34,.06-.45,.62-.85,.23-.4-.45-1.25-1.47-1.13-3.01-1.81-1.7-1.25-.4-.68-.34-2.21-.51-1.02-3.06-4.37-.4-.85-.06-.51,.28-1.36-.11-.45-.62-.62-.17-.45v-.4l.11-.45,.4-.79-.4-2.5-.28-.74-.62-.79-.74-.68-.62-.68-.74-1.87-1.3-2.33-.17-.79-.06-2.21-.23-.96-1.53-2.61-.28-.79-.34-2.16-.79-2.21-.79-3.06-.28-.17-.45-.51-.17-.68-.23-.45-2.55-1.7-.68-.23-.79-.11h-1.64l-.62-.17-.45-.34-.28-1.59-.23-.79,.51-.34-.06-.79-.17-.62-.23-.62-.34-.45-2.44-1.7-5.33-1.3-.62-.45-.23-.62-.17-.23-1.53-1.19-.62-.68-.28-.11-.28-.34-.11-1.3,.85-.34,1.08,.62,1.13,.96,.85,.62,.96,.11,.96-.28,1.87-.74,1.36-.28h1.47l1.42,.34,1.13,.74,1.02,.79,1.08,.51,1.19,.23,1.25-.06,1.19-.23,.85-.34,.79-.57,.96-.85,1.08-.85,1.08-.45,1.13-.23,1.36-.06,2.27,.11,1.02-.34,.45-.91,.74,.28,.91-.17,.79-.51,.57-.68,.62,.68,.96,.51,.96,.45,.91,.23,.96-.06,1.59-.74,.91-.17,2.16,.45,.91-.11,.28-.91-.11-.34-.34-.68-.11-.4,.06-.4,.11-.79,.11-.91,.45-1.02v-1.02l.06-.51,.74-2.61,.11-.85-.28-.74-.62-.62-2.61-1.42-.34-.45,.34-1.13-.34-.74-.74-3.35-.06-1.87,.51-1.08,.68-.51,.96-1.36,1.53-.96,.17-.74v-.85l.45-.79,.23-.11,.68,.06,.4-.11,.91-.62,.85-.62h.57l.62,.06,.79-.23h1.59l.45,.91,.23,.74,.4,.62,.96,.45,.85-.06,.79-.34,1.47-.96,.51-.23,.74-.28,1.25-.23,.28-.11,.57-.4,.79-.68,.62-.79,.28-.62-.28-.62-.57-.51-1.3-.91-.68-.74,.06-.74,.85-1.3,.57-.62,.79-.23,.91-.06,.85,.11,.85,.17,.51,.4,.28,.62,1.02,3.57,.06,.91-.28,.85-.45,.74-1.08,1.36v.68l.74,.74,2.33,1.42,1.25,.57,.57,.34,.45,.57,.91,1.87,.85,1.36,.06,.57-.23,1.02-.06,1.02,.28,.74,.62,.45,2.95,.4,1.47,.91,1.36,1.08,1.7,.85,2.27,.85,.85,.11,.28,.11,.68,.45,.51,.23,1.36,.45h1.99l.74,.11,.85,.28,2.95,1.25h.74l6.47,4.31,1.64,.74,1.7,.45,1.76,.17,1.36-.11,2.72-.45,3.01,.17,1.25-.23,1.08-.62,2.5-1.93,3.74-1.7,1.25-.79,.45,.17,.11-.17,.51-1.19,.17-1.7,.23-.79,.17-.28,1.02-3.97v-.51l-.91-2.89-.28-1.47v-3.91l.11-.68,.23-.74,.68-1.3,.17-.68-.23-1.08-1.36-1.53v-1.02l2.27-.68,1.25-.11,.96,.4,.74,1.59,.57,.4,.79,.11,.74-.17,1.08-.28,.06-.45v-.57l-.23-.68-.62-1.19-.17-.74,.06-2.78,.45-3.29-.06-.45-.34-.23-2.78-.68-.62-.28-.62-.4-.4-.51-.17-.68-.23-.34,.17-1.08,.68-1.64,.45-.74,.57-.62,.79-.4h.85l.74,.68,.51,1.02,.51,.74h.79l2.55,.34,.74,.4h.51l.57-.17,.85-.06,2.55,.57,.96-.06,7.15-1.76,5.16-.62,2.04-.51,.79,.17,.62,.4,.57,.57,.28,.51,.23,.85,.17,1.59,.57,1.42,1.36,.23,1.59-.51,1.13-.96,.34-.62,.45-2.44,.28-.62,.57-.79,.79-.91,.23-.11,.74-.23,.85-.17,.79,.06,.62,.57,2.38,1.13,.45,.74,.34,.85,.11,.85-.4,1.87,.17,.68,.45,.51,.91,.62-.62,2.55-.06,.91,.17,.91-.06,.85-.34,.79-.96-1.08-.4-.57-.34-.62-.68-3.06-.34-.79-2.21,.74,.23,.79,1.19,1.64,.28,.96,.11,.51,.4,1.36,.57,2.89-.11,.4-.34,.74-.51,1.53-1.25,2.04-1.64,2.04-.85,1.53-1.36,1.36-.34,.68-.23,.79-.68,1.42-.11,.68-.11,1.81,.4,2.84v.96l-.34,.51-.62,.28-.85,.28-.96,.4-.51,.51-.28,.57-.28,.91-.45,.79-1.02,1.19-.34,.79-.34,1.53-.4,.57-5.22,3.23-1.02,.91-.57,1.19-.28,1.3-.11,1.42,.23,.74,.62,.68,1.02,.51,1.3,.34,3.46-.74,.62-.45,1.53-1.81,.34-.57,.74-1.19,.96,.34,1.19,.74,1.47,.28,1.08,.28,1.19,.79,1.3,.51,1.25-.57,.96-.17,1.25,.96,1.13,1.81,.85,2.21-1.08,5.73,.11,1.3,.28,.45,.62,.51,.68,.4,1.3,.4,4.93,2.55,.62,.11,1.81,.17,.96,.23,.57,.51,.4,.51,1.47,.96,2.84,2.61,.62,.68,.17,.68,.23,1.7,.91,3.46v1.7l-.4,.85-.57,.68-.4,.74,.11,.91,.62,1.64,.34,.74,.57,.62-3.74,.51-1.64-.11-1.81-1.59v-.28l-.23-.85-.74-1.13-1.08-1.99-.91-1.08-.17-.34-2.89-1.36-.28-.34-.51-.96-1.36,.17h-1.02l-.28-.06-2.84-.85-1.53-.28-1.53-.06-1.87,.34-1.36,.74-.74,1.3-.23,1.87,.45,3.23-.11,1.13-.4,.57-.68,.4-.85,.62-.45,.68-.45,1.53-1.3,2.33-.45,.68-.68,.62-.11,.28,.23,.4,1.02,1.02,2.21,1.25,.4,.4-.11,.45-2.72,1.81-.79,.17h-.79l-.79,.17-.85-.11-.74-.96-4.65-8.17-.17-.79,.06-1.02,.28-.85h.57l.79,.4,.85,.11,.79-.28,.62-.85,.11-.91-.68-1.47,.06-.79,.62-1.42,.4-.57,2.44-.91,.96-1.36-.06-1.59-1.36-1.25-.68-.17-.74,.06-.79,.11-.79,.23-.45-.06-.96-1.13-.68-.62-1.59-.96-.4-.17-.74-.4-.51-.62-.62-.57-.79-.11-.96,.34-.45,.06-1.25-.06-.17-.11-.85-.74-.68,.06-.62,.57-1.76,2.5-.74,1.64,.11,1.59,1.25,1.47,.74,1.42-.17,1.99-.62,1.99-.74,1.42-1.02,1.53-.4,.79-.06,.91,.4,2.78-.06,.96,.28,.57,.85,.23,1.25,.28,3.8,1.59,.79,.4,.34,.62,.23,.96,.74,1.59,.34,1.81,.4,.79,.62,.62,.91,.28,.68,.45,.28,.91-.17,.96-.57,.57-2.38,1.25-1.81,.34-.62,.45-.28,.68,.57,2.61v1.99l-.34,1.93-.68,1.64-.51,.91-.28,.74-.06,.79,.23,1.81-.06,.85-.23,.74-.57,.51-.91,.06-.79-.45-.68-.62-.68-.45-1.81-.51-1.81-.74-.85-.17-.79,.17-.62,.45-.45,.68-.51,.51-.91,.4-1.7,.62-3.69,1.99-1.99,.79-1.99,.11-.91-.34-1.59-.91-.96-.28-1.13-.11-.62,.06-3.57,.51h-.91l-2.89-.45-.91,.11-.85,.51-1.13,1.3-.79,1.64-1.76,5.61v.85l.23,1.02,.85,1.81,.23,1.02-.23,2.16-.96,1.99-2.72,3.52-1.81,2.78-.68,1.53-.57,1.53-.34,.45-.74,.51-1.3,.45-.45,.4h0Z"/>
  <path class="cls-11" d="M397.1,353.04c.45-.52,1.08-.81,1.08-.81,0,0,.96,.27,1.17,.24s.79-.22,.94-.34,.95-1.08,1.08-1.13,.81-.01,.9-.09,.52-.56,.45-.66-.47-.73-.9-.82-1.15-.39-1.15-.39h-.43s-.23-.71-.37-.74c-.12-.03-.4-.14-.44-.14s-.61,.35-.72,.34-.48-.51-.46-.6,.21-.6,.28-.66,1.24-.72,1.28-.88,.12-.56,.15-.61,.99-1.56,1.13-1.76,.44-.83,.45-1.02,.03-.69,.06-.75,.39-.71,.44-.76,.5-.52,.58-.56,1.44-.58,1.48-.64,.18-.6,.17-.72-.19-1.36-.19-1.49-.09-.5-.14-.62-.17-.39-.14-.52,.04-.35,.02-.41-.06-.22-.09-.6-.05-1.28-.04-1.44,.04-.36,.01-.38-.29-.02-.33,.02-.22,.32-.24,.48h-.22s0-.23-.07-.29-.21-.14-.21-.14c0,0,.15-.18,.17-.24s.19-.62,.2-.71-.16-.29-.17-.43-.23-.35-.36-.38-.19,.04-.39,.05-.32-.03-.38-.02-.08,.06-.16,.04-.29-.01-.33-.05-.17-.12-.25-.12c-.09-.03-.23-.09-.3-.05s-.09,.06-.16,.06-.55,0-.64-.03-.26-.02-.32-.04c-.05-.09-.09-.13-.19-.13s-.16,0-.18-.05-.02-.13-.14-.13-.18-.05-.16-.09,.05-.16-.03-.16-.1,0-.1-.02,0-.15-.09-.17-.09,.02-.09,.06-.02,.33,.02,.37,.02,.12,0,.13,.01,.27,0,.29-.05,.08-.02,.11,.12,.12,.1,.14,0,.05-.03,.05-.03,.08-.01,.1,.32,.25,.33,.33,.02,.92,.01,.94-.11,.37-.26,.48-.4,.3-.53,.37-.69,.35-.77,.38-.5,.22-.62,.22-.7,.01-.75,.05-.52,.36-.56,.44-.27,.39-.37,.68-.18,.63-.26,.79-.22,.42-.22,.54-.02,.31,.07,.48,.18,.4,.31,.51,.36,.29,.37,.36,.18,.57,.14,.7-.13,.34-.21,.55-.64,.77-.82,.88-.69,.38-.87,.39-.72-.02-.72-.02c-.05-.09-.27-.45-.43-.59s-.31-.29-.36-.29-.55,.63-.57,.69-.06,.41-.08,.43-.04,.4-.06,.43-.04,.3-.06,.35-.06,.38-.05,.42,.56,.9,.6,.96,.1,.12,.09,.33,.11,.33,.19,.49,.38,.49,.4,.59,.16,1.2,.19,1.23,.47,.08,.81,.37,.61,.79,.7,1.12,.34,.77,.46,.94,.17,.28,.24,.3,.7,.16,.75,.23,.24,.38,.29,.64,.17,.72,.11,.91-.52,.95-.52,.95c0,0-.02,.54,0,.57s.28,.34,.3,.35,.62,.05,.65,.04,.54-.23,.54-.23Z"/>
  <path id="ETH3131" class="cls-4" d="M456.17,228.37l2.04-.23h1.02l.74,.4,.28,.62,.28,1.7,.17,.68,.34,.45,.34,.34,.17,.4-.11,.74,1.64,.06,1.25,.23,.68,.74v1.7l-.91,2.5,.23,.85,.45,.17,2.33-1.59,.74-.79,1.36-2.38,1.25-.11,.96-.62,.85-.74,.45-1.25,.06-.85,.11-.57,.28-.57,2.38-2.33,.51-.68,2.55-4.2,1.02-1.25,1.19-1.25,1.13-.91,1.3-.57,3.12-.51,1.19-.28,1.02-.57,.96-1.02,.34-.17,.45,.06h2.1l1.87-.4h1.76l1.76,1.08,.4,.79-.51,.51-.96,.23-.96,.06-1.64-.34-.68,.06-.17,.79,.23,.96,.34,.79,.57,.57,.85,.28,.79-.06,.96-.23,1.64-.57,1.19-.79,.4-.17,.4-.11,.85-.06,.34-.23,.68-.57,.74-.51,.79-.4,1.81-.68,.85-.4,.85-.51,.79-.68,1.02-1.08,.4-.23,1.47-.4,1.59,.06,3.12,.62,2.89,1.02,.85,.06,.68-.34,1.3-1.13,.74-.4,.91-.23,.96-.11,.85,.17,.45,.51,.57,.79,.79,.34,.96,.11,.96-.23,1.19-.57,1.08,.11,1.08,.17,1.19-.23,.45-.06,1.08,.34,.45,.11,.91-.11,2.1-.96h1.02l2.27,1.13,.68-.85,1.08-.85,.91-.85,.17-.91-.74-1.19-.11-.45,.17-.34,.51-.4,1.13-.62,.91-.34,1.93-.11,.62-.34,.62-.57,1.36-1.19,.74-.4,1.53,.45,.45,1.64-.23,3.74,1.19,.28,1.36,1.36,1.25,1.76,2.38,4.88,.11,.34,.06,.91,.11,.57,1.25,3.63,.45,.74,.68,.74,.17,.28-.11,1.02,.11,.68,.68,1.53,2.33,3.69,2.61,2.89,.74,.68,1.64,1.25,.74,.62,.28,1.59-1.19,3.52,.4,1.76,1.93,1.99,.4,.74,.23,.96,.11,1.02-.06,1.08-.34,1.81-.06,1.02-.23,.91-.62,.51-3.35,.85-.79,.45-1.02,1.42-1.47,5.56-1.36,1.59-1.25-.28-1.19-1.36-.91-1.81-.62-1.99-1.13-6.41-1.13-1.59-2.16-.91-4.48-.85-.51-.51-1.47-2.72-2.55,.68-3.57,3.06-1.59,1.64-1.42,1.87-.28,.91,.23,2.21-.06,1.02-.51,1.02-2.1,3.01-.74,1.81-.4,2.16-.51,9.24,.11,.96,.4,.91,.62,1.08,.23,1.7-.62,2.16-1.76,3.86-.51,1.59-.11,.74,.06,.85,.34,1.99,.28,1.13,.34,.62,11.57,4.54,.28,.28,.45,2.38-.17,1.81-.51,1.76-.74,1.13-.17,.34-.06,.4,.06,.85-.06,.51-.23,.4-.51,.79-.45,1.19-.45,.4-.17,.28,.06,.45-1.25,.68-.4,.57-.17,.96-.4,.91-.11,.4,.17,.85-.06,.4-.34,.45,.4,.74-.4,.85-1.02,1.59-.68,2.67-.4,.68-.45,.74-.34,.68-.23,.4-1.02,1.02-.23,.17-.85,.45-.85,.34-.85,.23h-.91l-.62-1.25-1.47,.17-1.59,.96-1.08,1.13-1.25,2.5-.62,.74-1.42,.96-.57,.51-.45,.91-6.13-6.3-.79-.62-.85-.45-.91-.28-1.87-.28-4.71-2.5-1.81-1.25-1.81-.85-1.81,.11-.91,.51-.79,.74-1.87,2.55-2.21,2.16-.57,.79-1.47,2.67-.28,.85,.28,1.81-.11,1.59,.23,.85,.34,.91,.17,.79,.06,.96-.06,.96-.11,.96-.23,.96-.28,1.99,.51,7.2-.06,3.01,.06,1.13,.28,1.02,1.36,3.23-2.78,2.04-5.5,3.06-5.96,5.39-.62,.28-1.02,.17-.57,.34h-1.76l-2.84,.62-1.53,.17-1.19,.23-.96-.06-.34,.06-1.93,.68-.79,.11-2.72-.57-1.36-.57-1.08-.57h-.57l-.79,.62-3.57,5.16-2.33,6.01-1.42,2.78-.79,3.12-1.08,3.06-.74,4.14-.11,2.27-.23,.96-5.96,13.78-1.36,1.76-.28,.51-.79,3.35-1.19,3.18-.17,.79,.06,.74,.51,1.59-1.13,2.38-5.16,8.85-1.19,1.53-1.47,.96-3.23,1.42-3.06,1.64,.28,.28-.45,.4-.85-.28-2.16,.45h-.62l-.57-.23-.62-.06-1.59,.28h-.96l-6.52-1.76-.74-.4-.57-.57-1.02-1.36-.06,1.02-2.16-.11-.23-.17-.11-.34-.51,.23h-.74l-.51-.17-.23-.51-.28-.34-.74-.62-.17-.06-.4,.11-.06,.91-1.93,.85-2.16,.17-8-.91-1.19,.06-1.19,.34-.45-.11-.91-.74-1.13-.34-.45-.28-.57-.68-.96-1.53-.74-.74-12.42-8-6.52-4.2-4.31-2.78-9.41-6.07-.62-.11-.11-.17-.17-.85-.17-.4-.23-.34-.28-.06-.79,.06-.28-.23-.57-.96-.4-.28-1.53-.34-2.67-1.36-2.27-.62-7.26,.06-.11-.06,.45-.4,1.3-.45,.74-.51,.34-.45,.57-1.53,.68-1.53,1.81-2.78,2.72-3.52,.96-1.99,.23-2.16-.23-1.02-.85-1.81-.23-1.02v-.85l1.76-5.61,.79-1.64,1.13-1.3,.85-.51,.91-.11,2.89,.45h.91l3.57-.51,.62-.06,1.13,.11,.96,.28,1.59,.91,.91,.34,1.99-.11,1.99-.79,3.69-1.99,1.7-.62,.91-.4,.51-.51,.45-.68,.62-.45,.79-.17,.85,.17,1.81,.74,1.81,.51,.68,.45,.68,.62,.79,.45,.91-.06,.57-.51,.23-.74,.06-.85-.23-1.81,.06-.79,.28-.74,.51-.91,.68-1.64,.34-1.93v-1.99l-.57-2.61,.28-.68,.62-.45,1.81-.34,2.38-1.25,.57-.57,.17-.96-.28-.91-.68-.45-.91-.28-.62-.62-.4-.79-.34-1.81-.74-1.59-.23-.96-.34-.62-.79-.4-3.8-1.59-1.25-.28-.85-.23-.28-.57,.06-.96-.4-2.78,.06-.91,.4-.79,1.02-1.53,.74-1.42,.62-1.99,.17-1.99-.74-1.42-1.25-1.47-.11-1.59,.74-1.64,1.76-2.5,.62-.57,.68-.06,.85,.74,.17,.11,1.25,.06,.45-.06,.96-.34,.79,.11,.62,.57,.51,.62,.74,.4,.4,.17,1.59,.96,.68,.62,.96,1.13,.45,.06,.79-.23,.79-.11,.74-.06,.68,.17,1.36,1.25,.06,1.59-.96,1.36-2.44,.91-.4,.57-.62,1.42-.06,.79,.68,1.47-.11,.91-.62,.85-.79,.28-.85-.11-.79-.4h-.57l-.28,.85-.06,1.02,.17,.79,4.65,8.17,.74,.96,.85,.11,.79-.17h.79l.79-.17,2.72-1.81,.11-.45-.4-.4-2.21-1.25-1.02-1.02-.23-.4,.11-.28,.68-.62,.45-.68,1.3-2.33,.45-1.53,.45-.68,.85-.62,.68-.4,.4-.57,.11-1.13-.45-3.23,.23-1.87,.74-1.3,1.36-.74,1.87-.34,1.53,.06,1.53,.28,2.84,.85,.28,.06h1.02l1.36-.17,.51,.96,.28,.34,2.89,1.36,.17,.34,.91,1.08,1.08,1.99,.74,1.13,.23,.85v.28l1.81,1.59,1.64,.11,3.74-.51-.57-.62-.34-.74-.62-1.64-.11-.91,.4-.74,.57-.68,.4-.85v-1.7l-.91-3.46-.23-1.7-.17-.68-.62-.68-2.84-2.61-1.47-.96-.4-.51-.57-.51-.96-.23-1.81-.17-.62-.11-4.93-2.55-1.3-.4-.68-.4-.62-.51-.28-.45-.11-1.3,1.08-5.73-.85-2.21-1.13-1.81-1.25-.96-.96,.17-1.25,.57-1.3-.51-1.19-.79-1.08-.28-1.47-.28-1.19-.74-.96-.34-.74,1.19-.34,.57-1.53,1.81-.62,.45-3.46,.74-1.3-.34-1.02-.51-.62-.68-.23-.74,.11-1.42,.28-1.3,.57-1.19,1.02-.91,5.22-3.23,.4-.57,.34-1.53,.34-.79,1.02-1.19,.45-.79,.28-.91,.28-.57,.51-.51,.96-.4,.85-.28,.62-.28,.34-.51v-.96l-.4-2.84,.11-1.81,.11-.68,.68-1.42,.23-.79,.34-.68,1.36-1.36,.85-1.53,1.64-2.04,1.25-2.04,.51-1.53,.34-.74,.11-.4-.57-2.89-.4-1.36-.11-.51-.28-.96-1.19-1.64-.23-.79,2.21-.74,.34,.79,.68,3.06,.34,.62,.4,.57,.96,1.08,.34-.79,.06-.85-.17-.91,.06-.91,.62-2.55-.91-.62-.45-.51-.17-.68,.4-1.87-.11-.85-.34-.85-.45-.74-2.38-1.13-.62-.57-.79-.06-.85,.17-.74,.23-.23,.11-.79,.91-.57,.79-.28,.62-.45,2.44-.34,.62-1.13,.96-1.59,.51-1.36-.23-.57-1.42-.17-1.59-.23-.85-.28-.51-.57-.57-.62-.4-.79-.17-2.04,.51-5.16,.62-7.15,1.76-.96,.06-2.55-.57-.85,.06-.57,.17h-.51l-.74-.4-2.55-.34h-.79l-.51-.74-.51-1.02-.74-.68h-.85l-.79,.4-.57,.62-.45,.74-.68,1.64-.17,1.08,.23,.34,.17,.68,.4,.51,.62,.4,.62,.28,2.78,.68,.34,.23,.06,.45-.45,3.29-.06,2.78,.17,.74,.62,1.19,.23,.68v.57l-.06,.45-1.08,.28-.74,.17-.79-.11-.57-.4-.74-1.59-.96-.4-1.25,.11-2.27,.68v1.02l1.36,1.53,.23,1.08-.17,.68-.68,1.3-.23,.74-.11,.68v3.91l.28,1.47,.91,2.89v.51l-1.02,3.97-.17,.28-.23,.79-.17,1.7-.51,1.19-.11,.17-.45-.17-1.25,.79-3.74,1.7-2.5,1.93-1.08,.62-1.25,.23-3.01-.17-2.72,.45-1.36,.11-1.76-.17-1.7-.45-1.64-.74-6.47-4.31h-.74l-2.95-1.25-.85-.28-.74-.11h-1.99l-1.36-.45-.51-.23-.68-.45-.28-.11-.85-.11-2.27-.85-1.7-.85-1.36-1.08-1.47-.91-2.95-.4-.62-.45-.28-.74,.06-1.02,.23-1.02-.06-.57-.85-1.36-.91-1.87-.45-.57-.57-.34-1.25-.57-2.33-1.42-.74-.74v-.68l1.08-1.36,.45-.74,.28-.85-.06-.91-1.02-3.57-.28-.62-.51-.4-.85-.17-.85-.11-.91,.06-.79,.23-.57,.62-.85,1.3-.06,.74,.68,.74,1.3,.91,.57,.51,.28,.62-.28,.62-.62,.79-.79,.68-.57,.4-.28,.11-1.25,.23-.74,.28-.51,.23-1.47,.96-.79,.34-.85,.06-.96-.45-.4-.62-.23-.74-.45-.91h-1.59l-.79,.23-.62-.06h-.57l-.85,.62-.91,.62-.4,.11-.68-.06-.23,.11-.45,.79v.85l-.17,.74-1.53,.96-.96,1.36-.68,.51-.51,1.08,.06,1.87,.74,3.35,.06,.85-.45,.68-.79,.51-.74,.4-.62,.45-.23,.11-.91-.4-.51-.11-1.13-.06-.68-.28,.17-.62,.62-.74,.51-.45,.28-.62-.51-.45-3.8-1.36-.57-.45-.28-.79-.23-1.81-.4-.79-1.25-1.25-1.36-1.08-1.19-1.13-.79-1.64-.06-1.81,.62-1.59,2.38-3.4,.23-.45-.23-.4-1.81-.62-.34-.4,.34-.45,1.7-.74,2.27-1.3,1.93-.62,.91-.45,.34-.57-1.19-.85-2.04-.23-2.16,.06-2.72,.45h-1.19l-1.02-.45-.68-.96-.62-1.19-.74-.57-2.21-.45-1.13-.51-.79-.79-1.36-1.99-1.08-.91-3.8-1.93-1.87-1.47-3.29-3.18-1.93-1.3-1.13-.51-.96-.11-.91,.34-1.81,1.3-.45,.11-.45-.34-.68-.68-.91-.45,.17-.96-1.08-22.18,1.76,.06,7.03,.62,1.08-.11,.74-.51,.51-.68,.4-.68,.34-.68,.28-.91,1.47-6.64,.79-7.09,.91-.57h.85l1.42-.23,.68,.11,.85,.62,1.76,1.53,.96,.51,1.19-.17,4.25-4.59,1.42-2.67,2.21-6.98-.28-.57-.57-.57-.34-.91,.17-.34,4.82,.34,.62,.23,.23,.4-.06,.96,.06,.91,.4,.62,.96,.06,2.95-.45,1.25,.06,1.76,.28h.74l.74,.11,.79,.45,1.42,1.08,7.6,7.6,5.16,6.3,1.87,1.93,1.59-.28,.51,.06,.51,.68,.74,1.64,.11,.45-.06,2.16,.4,.45,.45,.23,.45,.06,1.13-.06,1.47,.11,.74-.06,.34,.17,.28,.51,.34,.74,1.36,2.38,.34,.45,.45,.06,1.19-.11,.62,.74,.51,2.38,.85,.34,5.5-7.2,1.08-3.12,.45-2.72-.23-2.1-1.13-1.13-.62-.45-2.55-3.01-1.19-1.02,.06-.17,.74-.57,.34-.62-.06-.79-.4-.91-.23-.79,.23-3.63-.34-6.75h.45l.68,.51,.74-.06,.74-.28,1.53-.85,3.35-2.44,1.25-1.42,1.99-3.29,.57-.68,1.42-1.47,.68-.57,.79-.34,2.33-.23,.23,.11-1.3,3.74-.11,.45,.23,.23,.68,.23,.62,.28,.62,.17,.79-.17,.85-1.7,.51-.4,3.29-1.7,.68,.06,1.64,1.02,2.04,.85,.79,.62,3.91,1.19,.74,.06,.45-.23,.4-.51,.4-.74,.74-2.1,1.08,.91,.74,.4,.74,.28h2.55l.57,.28,.11,1.02-.57,1.13-.45,1.13,.51,1.3,.91,.96,.57,.23,.68-.11h.51l.62,.17,.62,.28,.28,.4,.06,.45v.85l.17,.45,.45,.62,.28,.23,.4-.06,.4-.45,.34-1.08,.57-.17,1.3,.17,1.25,.34,3.63,1.64,.51,.4,.79,1.08,.85,1.02,.23,.45,.57,.68,3.52,2.61h.62l1.02-.57,.57-.11,.96,.17,.34-.11,2.67-1.47,.34-.34,.57-.74,.28-.17,1.02-.11,.34-.11,1.76-1.25,5.39-2.55,2.27-.57,.62-.4,.96-.96,.34-.79,.45-.4,1.08-.23,1.02-.34,.74-.11,.96,.28h.91l.96-.17,.85-.4,.51-.74,.11-.45-.06-.4-.28-.79v-.51l.17-.23,.4-.17,.28-.28,.28-.4,.96-4.14,.23-.4,.34-.28,8.85-.45,4.37,.79,.68,.51-.06,1.42-1.64,7.71-.45,.57-2.5,1.3-1.47,.34-1.47-.28,.06,1.13,.74,.68,2.38,.91,.68,.51,.45,.4,.68,1.02,.11,.23,.06,1.93,.28,1.87,.62,1.76,1.25,1.53,2.44,1.19,6.86,1.42,4.37,1.93,1.81,2.67,1.36,2.44,1.25,1.59,1.36,.28,.85-.06,1.13,.23,.79,.45-.11,.91,.23,.34,2.21,2.33h-.06l-1.3-.45-.96,.17-1.87,1.36-.51,.23-3.23,.23-.91-.06-.62,.06-.23,.34,.11,1.08,.34,1.42,.51,1.25,.79,.62,1.99,.4,.79,.62,.11,1.13-.45,1.25-3.23,5.27,.11,2.21-.11,.74,.06,.62,.96,2.1,.28,.4,.45,.34,.68,.17,.85-.06,1.93-1.93,.57-.23,1.13,.4,1.36,2.1,.96,.51,.79-.17,1.81-1.3,1.3-.79,3.86-1.36,1.19-.74,.4-1.13-.11-7.77,1.64-1.36h0Zm-139.86,4.37l-1.59-.4-.57,.06-.28,.4-.06,.62v.68l-.06,.57-.23,.4-.62,.74-.28,.51v.45l.17,.96v.45l-.23,.28,.17,.4,.28,.28,.74,.4,.34-.28h.68l.74-.11,.23,.11,.34,.45,.79-.06,.57-.34,.91-.96,.4,.57,.91,.74,.4,.45,.06,.34-.06,.62,.23,.34,.57,.34,.74,.06-.11-.4-.17-.4-.45-.68,.57-.23v-.51l-.34-.51-.57-.23-.11-.85,.06-1.13,.23-1.19,.28-.68-.45,.17-.51-.06-.45-.17-.45-.45-.28-.45v-.17l.57-.57-.4-.23-1.08-.34-.51-.06-.4,.17-.68-.11h0Zm102.54-2.21l-.11-.57-.79,.79-.4-.06-.28-.51-.17-.17-.45,.06-1.53,.34-.45,.17-.62,.51-.68,.91-.51,1.02-.28,.79,.34,.51-.06,.28,.57,.91,.34,1.13,.28,.34,.34,.34,.85,.28,.4,.34,.34,.4,.74,.91,.45,.34,.74,.4,.74,.11,.45-.62,.23-.74,.51-.06,.57,.06,.45-.28,.06-.57-.57-1.42-.11-.68,.79,.23,.79,.06-.11-.45,.28-.85,.11-.51v-.74l-.23-.68-.96-2.16-.79-.06-.96,.06-.28-.17h0Zm-95.4,5.67l.85-.34,.4-.28,.28-.34-.62-.34-.68-.79-.45-.28-1.64,.85-.34,.45,.34,.45,.51,.34,.34,.23,.34,.11,.68-.06h0Zm5.56-18.09l-.11-.85,.4-.74,1.47-.68,.28-.28,.06-.45-.23-.34-1.25-.91-.68-.17-.68,.17-.74,.51-.45,.51-.23,.57-.4,1.47,.91,3.06,.45,.74,.11-.06,.17-.79,.45-.23,1.3,.23-.85-1.76h0Zm219.55,.85l-.79,.06-.91,.45-.85,.28-.96-.28-.68-.4-.62-.06-.85,.91-1.13,1.93-.4,1.08-.17,1.13,.06,.85,.62,.11,.74-.17,.74-.06,.34,.23,.57,.51,.28,.17,.57-.06,1.02-.45,.51,.17,1.02,.91,.62,.17,.62-.34,.34-.74-.23-.68-.4-.74-.23-.68,.06-.51,.45-.79,.23-1.81v-.34l-.57-.85h0Z"/>
  <circle class="cls-9" cx="399.91" cy="341.57" r="14.13"/>
  <path class="cls-2" d="M199.85,346.42c0,28.09-16.26,52.39-39.88,64l-8.78,3.59c-7.1,2.39-14.7,3.67-22.6,3.67-39.36,0-71.26-31.91-71.26-71.26,0-11.94,2.93-23.2,8.13-33.08,7.42-14.14,19.45-25.48,34.09-32.02,8.87-3.96,18.7-6.16,29.04-6.16,5.39,0,10.66,.59,15.72,1.74,4.32,.96,8.5,2.33,12.47,4.05,6.45,2.78,12.4,6.48,17.69,10.95,15.52,13.07,25.38,32.64,25.38,54.52Z"/>
  <g>
    <path class="cls-8" d="M117.76,409.29s-3.36-.06-4.07-.34c-.06-.02-.11-.05-.16-.07-.69-.35-2.15-2.22-2.47-2.73h0c-.27-.5-.32-.6-.19-4.04,.01-.34,.11-.67,.29-.96,1.09-1.81,2.38-4.11,2.56-4.63,.06-.43-.29-2.14-.47-2.96-.07-.34-.14-.66-.19-.94-.05-.26-.25-.98-.99-2.23-.65-.21-1.9-.52-2.36-.63-.42-.1-.73-.18-.84-.22-.93-.33-1.39-1.02-1.79-1.64-.13-.2-.28-.43-.46-.68-.64-.86-2.23-3.5-2.8-5.69-.38-1.43-1.67-3.73-3.07-4.93-.96-.83-2.21-1.16-2.95-1.36-.55-.15-1.02-.27-1.45-.71-.58-.58-.62-.78-1.25-5.39-.1-.71-.21-1.57-.28-1.97-.17-.26-.53-.74-.78-1.08-.49-.65-.94-1.25-1.22-1.76-.07-.12-.16-.26-.25-.4-.44-.7-1.12-1.77-1.02-3.28,.01-.23-.01-.33-.01-.33l-.13-.16c-.05-.08-3.2-4.99-3.41-5.54-.01-.04-.03-.08-.04-.12-.28-.95,.26-3.31,.31-3.44-.01,.03-.03,.08-.04,.13,.03-.15,.06-.4,.09-.65,.07-.59,.12-.98,.24-1.32,.03-.19,.05-.48,.08-.76,.07-.78,.12-1.26,.28-1.66,.07-.32,.18-1.03,.24-1.36,.04-.27,.08-.49,.1-.58,.11-.46,3.01-5.26,4.97-5.26,.95,0,1.58,.57,2.54,1.42,.22,.19,.45,.4,.69,.6,.8,.68,1.63,1.84,2.18,2.72,.61,.03,1.37,.06,1.95,.06,.21,0,.39,0,.53-.01,.53-.09,2.67-1.11,3.72-1.79,.75-.5,3.21-3.04,3.56-3.76,.15-.41,.32-.82,.48-1.22,.21-.53,.41-1.03,.54-1.39-.02-.27-.14-.92-.59-2.45,0-.01,0-.03-.01-.04-.28-.28-.86-.76-1.16-1.02l-.27-.23c-.88-.73-1.41-1.85-1.89-2.84-.08-.17-.16-.34-.24-.49-.69-1.37-.63-2.77-.59-3.53,.06-.93,.54-1.95,1.22-3.28l.2-.39c.21-.43,.5-1.39,.79-2.32,.17-.54,.34-1.1,.51-1.64,.43-1.33,1.22-2.56,1.74-3.37,.13-.2,.24-.36,.3-.47,.29-.69,1.54-1.79,3.7-3.19,.54-.38,1.01-.47,4.66-.56h.3c.42-.1,1.76-.62,2.57-.99,.27-.12,1.67-.82,2.5-1.24,.67-.34,1.28-.64,1.55-.78,.36-.17,1.28-.86,1.83-1.28,.25-.18,.48-.36,.68-.5h0s.24-.29,.6-1.33c.02-.71-.01-2.9-.05-3.92-.18-.18-.46-.42-.83-.73-.25-.21-.38-.32-.51-.48-.43-.52-.56-1.18-.5-1.77-.42-.69-.39-1.49-.13-2.15,0-.03,0-.07,0-.11-.02-.4-.04-.86,.06-1.3-.1-.45-.1-.95-.09-1.54-.03-.03-.06-.05-.08-.06-.55-.35-1.05-.72-1.49-1.05-.31-.23-.73-.54-.87-.61-.81-.39-1.38-1.13-2.16-2.21-.06-.09-.12-.17-.18-.25-.03,0-.58,.15-.96,.24-.82,.2-3.31,.82-3.8,1.02-.88,.45-2.86,.54-4.36,.54-.25,0-.47,0-.64-.01-.21,.07-.58,.23-.85,.34-.97,.42-1.98,.84-2.94,.84h-.02c-.39,.2-1.17,.86-1.56,1.2-.37,.31-.71,.6-.98,.79-.35,.26-.76,.38-1.17,.38-.6,0-1.2-.27-1.59-.79-2.21-2.89-2.8-4.45-2.95-5.4l-2.36-5.11c-.23-.49-.25-1.04-.06-1.54,.19-.5,.57-.91,1.06-1.12,9.41-4.2,19.46-6.33,29.86-6.33,5.5,0,10.94,.6,16.16,1.79,4.37,.97,8.68,2.37,12.82,4.17,6.58,2.84,12.7,6.63,18.19,11.26,.63,.53,.87,1.39,.6,2.17s-.98,1.32-1.8,1.36c-.39,.02-.76,.05-1.07,.08-.4,.03-.72,.06-.92,.06-.14,.02-.97,.18-1.57,.3-1.54,.3-2.64,.51-3.37,.54-.53,.21-1.81,1.18-2.43,1.65-.52,.39-.97,.73-1.34,.96-.84,.56-3.82,4-4.18,4.95-.24,.65-.46,2.47-.59,3.55-.18,1.47-.24,1.91-.46,2.34-.17,.32-.39,.57-.65,.8,.04,1.81,.11,4.23,.21,5.49,.15,2.03,.36,2.68,.36,2.69h0c.33,.94,.09,2.46-.03,3.09,.05,.39,.42,1.29,.54,1.59l.08,.18c.32,.81,.91,3.02,.91,4.07,.02,.46,.45,3.57,.68,5.24,.17,1.26,.31,2.28,.33,2.52,.11,1.05-.74,4.38-1.17,5.07-.47,.7-.52,.79-7.17,3.52-.65,.27-1.17,.48-1.42,.59-.45,.38-1.76,1.69-2.57,2.53-.28,.43-1.17,2.03-1.56,2.73-.17,.3-.31,.56-.42,.75-.06,.45-.11,1.48-.15,2.06-.03,.55-.06,1.05-.09,1.37-.14,1.52-1.98,5.27-2.79,6.4-.47,.66-3,4.62-4.51,6.98-.64,.99-1.15,1.8-1.39,2.16-.1,.35-.29,1.2-.4,1.69-.09,.43-.18,.83-.25,1.1-.29,1.11-1.06,1.81-6.32,5.01-.42,.25-.77,.47-1,.61-.23,.44-.6,1.36-.82,1.98,.19,.3,.47,.67,.72,.98,.41-.21,.89-.47,1.18-.63,1.25-.69,1.63-.89,2.25-.89,.09,0,.19,0,.27,.02,.3,.04,.55,.13,1.11,.33,.38,.14,1.09,.39,1.35,.44,.67,.15,1.69,.38,3.02,3.92h.86c.27,0,.53,.05,.77,.16,.04,.02,3.66,1.53,5.76,1.95,2.95,.59,5.26,3.87,6.12,5.26,1.38,2.31-2.35,5.72-2.78,6.1-.81,.67-1.78,.72-3.91,.78-.43,.01-1.04,.03-1.41,.06-.65,.6-2.13,2.27-2.98,3.21-1.25,1.39-1.91,2.13-2.31,2.47-1.25,1.04-4.88,2.12-6.03,2.26-.12,.01-.25,.02-.4,.02-1.28,0-4.22-.74-5.83-1.16-.99,.54-2.97,1.76-4.47,3.5-.2,.23-.44,.41-.71,.53-2.84,1.24-2.99,1.29-3.1,1.33-.04,.01-.07,.02-.11,.03-.24,.06-.45,.07-.63,.07Z"/>
    <path class="cls-7" d="M128.59,275.16c5.39,0,10.66,.59,15.72,1.74,4.32,.96,8.5,2.33,12.47,4.05,6.45,2.78,12.4,6.48,17.69,10.95-.82,.04-1.56,.13-1.89,.13-.59,0-4.09,.84-5.12,.84s-3.63,2.27-4.66,2.92c-1.04,.64-4.47,4.53-4.99,5.95-.52,1.43-.78,5.32-.97,5.71-.08,.15-.44,.37-.87,.59,.02,1.72,.11,5.1,.23,6.72,.15,2.04,.37,2.93,.47,3.21,.12,.28,.02,1.44-.13,2.16-.13,.72,.48,2.12,.75,2.79,.27,.68,.76,2.62,.76,3.32s.96,7.3,1.02,7.95c.07,.65-.69,3.53-.88,3.84-.2,.3-7.45,3.2-7.88,3.41-.43,.21-2.88,2.74-3.11,2.98-.24,.23-2.13,3.71-2.33,4.03-.19,.33-.26,3.03-.35,4-.09,.97-1.66,4.36-2.42,5.42-.75,1.06-5.85,9.09-6.04,9.36-.2,.27-.61,2.41-.82,3.24-.21,.81-6.41,4.32-6.81,4.66-.4,.33-1.4,3-1.52,3.51-.1,.5,1.92,3.18,2.47,3.21,0,0,0,0,.01,0,.58,0,3.53-1.83,3.79-1.83,0,0,0,0,0,0,.21,.03,1.68,.62,2.34,.75,.76,.17,1.98,3.96,1.98,3.96h2.28s3.81,1.6,6.14,2.07c2.33,.47,4.47,3.8,4.81,4.35,.34,.57-1.97,3.16-2.41,3.55-.46,.38-4.09,.19-4.8,.45s-4.98,5.38-5.76,6.03c-.78,.65-3.89,1.68-4.99,1.81-.05,0-.1,0-.17,0-1.37,0-6.05-1.3-6.05-1.3,0,0-3.37,1.55-5.76,4.33,0,0-2.74,1.2-2.9,1.25-.02,0-.07,0-.14,0-.64,0-3.2-.14-3.33-.2-.14-.07-1.55-1.75-1.61-1.88-.07-.13,.04-3.03,.04-3.03,0,0,2.45-4.06,2.76-5.07,.3-1.01-.34-3.48-.6-4.86-.26-1.37-1.33-3.04-1.56-3.4-.22-.35-3.61-1.09-3.98-1.21-.37-.13-.62-.73-1.26-1.6-.65-.88-2.02-3.24-2.48-5.01-.47-1.77-1.93-4.43-3.71-5.95-1.78-1.53-4.1-1.77-4.29-1.96-.2-.2-.89-6.04-1.03-6.58-.15-.54-1.71-2.33-2.16-3.16-.46-.82-1.1-1.5-1.03-2.6,.06-1.11-.29-1.46-.49-1.75-.19-.29-3.11-4.91-3.18-5.1-.06-.2,.18-1.93,.28-2.22,.1-.29,.21-1.73,.31-1.88,.1-.14,.21-2.17,.3-2.27,.1-.1,.38-2,.44-2.3,.07-.29,2.75-3.65,3.01-3.65s1.05,.8,1.93,1.55c.88,.75,2.06,2.64,2.3,3.14,0,0,1.91,.12,3.13,.12,.27,0,.51,0,.69-.02,.97-.08,3.66-1.47,4.64-2.1,.96-.64,3.94-3.61,4.34-4.72,.42-1.1,.9-2.2,1.12-2.91,.23-.71-.63-3.37-.73-3.76-.09-.39-1.31-1.36-1.99-1.93-.67-.56-1.18-1.81-1.63-2.7-.45-.89-.41-1.89-.38-2.54,.04-.65,.77-1.99,1.21-2.87,.43-.87,.89-2.65,1.41-4.22,.51-1.58,1.76-3.18,1.95-3.63s2.72-2.19,2.98-2.36c.26-.18,3.34-.23,3.99-.25,.64-.01,2.84-.96,3.28-1.16,.44-.19,3.4-1.7,4.1-2.04,.7-.34,2.01-1.38,2.81-1.96,.81-.58,1.34-2.4,1.4-2.55,.07-.14,0-4.59-.06-5.03-.07-.43-1.68-1.68-1.76-1.78-.08-.09-.06-.52,.06-.52,0,0,0,0,0,0,0,0,0,0,.01,0,.13,0,.09-.15,.15-.26,.07-.11-.44-.59-.55-.74-.11-.15,.02-.46,.13-.58,.11-.13-.08-1.46,.05-1.56,.13-.1,.18-.52,.02-.71-.16-.2-.05-1.73-.09-1.96v-.02c-.27-.37-.62-.75-1.02-1-1.08-.7-2.07-1.56-2.59-1.79-.52-.25-1.35-1.58-1.87-2.23-.29-.36-.65-.48-1.02-.48-.3,0-.61,.07-.92,.16-.72,.19-4.35,1.04-4.99,1.36-.51,.26-2.4,.35-3.51,.35-.31,0-.56,0-.7-.02-.02,0-.03,0-.05,0-.68,0-2.67,1.2-3.67,1.2-.04,0-.07,0-.11,0-.02,0-.05,0-.07,0-.98,0-2.67,1.74-3.55,2.37-.45-.59-2.53-3.3-2.59-4.73l-2.5-5.4c8.87-3.96,18.7-6.16,29.04-6.16m0-4c-10.68,0-21,2.19-30.67,6.51-.98,.44-1.74,1.25-2.11,2.25-.38,1-.33,2.11,.12,3.08l2.27,4.89c.35,1.62,1.39,3.51,3.26,5.96,.79,1.04,2,1.59,3.21,1.59,.81,0,1.62-.24,2.32-.75,.36-.26,.72-.57,1.1-.89,.24-.2,.63-.54,.92-.76,1.12-.13,2.15-.57,3.08-.97,.12-.05,.27-.12,.41-.17,.09,0,.19,0,.29,0,3.37,0,4.63-.45,5.16-.7,.55-.19,2.26-.62,3.15-.84,.6,.78,1.28,1.5,2.21,1.96,.14,.09,.42,.3,.64,.46,.23,.17,.5,.37,.78,.57,.01,.17,.03,.34,.05,.51-.05,.4-.05,.77-.04,1.08-.27,.92-.27,1.94,.13,2.9,.03,.89,.32,1.82,.98,2.61,.24,.29,.46,.48,.74,.71,.04,.03,.09,.07,.14,.12,.02,.88,.03,2,.03,2.64-.06,.15-.11,.27-.15,.35-.11,.08-.22,.17-.34,.25-.44,.33-1.25,.94-1.54,1.09-.24,.12-.87,.43-1.56,.78-.79,.4-2.1,1.06-2.37,1.18-.63,.29-1.62,.68-2.09,.83h-.05c-3.5,.09-4.61,.15-5.74,.91-3.38,2.22-4.07,3.29-4.36,3.94-.05,.08-.12,.18-.19,.29-.54,.85-1.45,2.27-1.97,3.86-.17,.53-.35,1.1-.52,1.66-.21,.68-.52,1.71-.67,2.01l-.18,.36c-.79,1.55-1.36,2.75-1.44,4.04,0,.02,0,.04,0,.06-.04,.87-.12,2.69,.81,4.53,.07,.14,.15,.3,.23,.46,.54,1.11,1.2,2.49,2.41,3.5l.27,.23c.17,.14,.44,.37,.68,.57,.16,.57,.25,.95,.31,1.2-.1,.26-.22,.55-.34,.84-.14,.35-.29,.72-.43,1.08-.49,.72-2.24,2.51-2.89,2.99-.76,.48-2.29,1.23-2.93,1.45-.06,0-.12,0-.18,0-.25,0-.55,0-.85-.02-.58-.82-1.28-1.69-1.98-2.29-.23-.19-.45-.39-.65-.57-1.11-.99-2.16-1.93-3.87-1.93-2.09,0-3.18,1.34-4.68,3.2-1.76,2.17-2.03,2.74-2.22,3.52-.01,.05-.02,.1-.03,.15-.02,.1-.06,.35-.11,.65-.04,.27-.14,.84-.2,1.15-.2,.61-.26,1.26-.33,1.99-.02,.19-.04,.39-.05,.55-.13,.46-.19,.93-.25,1.47-.02,.19-.05,.39-.07,.52,.03-.18,.08-.32,.11-.41,0,.03-.84,2.96-.33,4.67,.02,.08,.05,.16,.08,.23,.29,.79,2.74,4.61,3.42,5.65,0,1.92,.86,3.28,1.34,4.04,.07,.11,.14,.21,.2,.32,.34,.63,.84,1.28,1.36,1.97,.14,.19,.32,.43,.47,.63,.06,.43,.14,1.01,.21,1.49,.66,4.84,.74,5.46,1.82,6.53,.81,.81,1.7,1.05,2.35,1.22,.58,.16,1.55,.42,2.16,.94,1.07,.92,2.15,2.81,2.45,3.94,.62,2.38,2.25,5.17,3.13,6.36,.16,.22,.29,.41,.4,.58,.49,.75,1.23,1.88,2.75,2.41,.03,.01,.06,.02,.09,.03,.23,.07,.46,.13,.98,.26,.29,.07,.93,.23,1.49,.38,.31,.61,.38,.91,.38,.91,.05,.28,.12,.62,.2,.98,.11,.55,.33,1.59,.39,2.18-.39,.78-1.34,2.46-2.25,3.97-.35,.58-.55,1.24-.57,1.91-.12,3.22-.15,3.99,.44,5.08h0c.49,.81,2.11,2.95,3.33,3.56,.1,.05,.2,.1,.3,.14,1.17,.47,4.45,.48,4.82,.48,.3,0,.67-.01,1.11-.13,.07-.02,.15-.04,.22-.06,.24-.07,.37-.12,3.31-1.4,.55-.24,1.04-.6,1.43-1.06,1.01-1.18,2.31-2.09,3.24-2.66,1.91,.49,4.26,1.02,5.54,1.02,.22,0,.43-.01,.64-.04,1.3-.15,5.38-1.29,7.08-2.71,.49-.41,1.05-1.02,2.52-2.67,.63-.71,1.67-1.86,2.36-2.58,.21,0,.42-.01,.59-.02,2.26-.07,3.76-.11,5.07-1.19,.04-.03,.07-.06,.11-.09,.49-.44,1.36-1.41,2.02-2.26,.76-.99,2.79-3.63,1.18-6.33-.01-.02-.02-.04-.03-.05-.99-1.6-3.7-5.42-7.42-6.17-1.58-.32-4.49-1.46-5.38-1.84-.33-.14-.69-.23-1.05-.28-1.08-2.41-2.24-3.53-3.89-3.9-.03,0-.07-.01-.1-.02-.17-.04-.77-.26-1.06-.36-.38-.13-.66-.23-.92-.31,3.34-2.11,4.37-3.1,4.79-4.71,.08-.31,.17-.72,.27-1.18,.08-.35,.2-.93,.3-1.29,.21-.33,.57-.89,1.2-1.88,1.41-2.2,4.03-6.31,4.48-6.94,.83-1.15,2.94-5.26,3.14-7.36,.03-.34,.06-.87,.09-1.45,.02-.42,.06-1.09,.1-1.55,.07-.12,.14-.25,.23-.41,.33-.6,1.06-1.91,1.39-2.45,.65-.67,1.58-1.6,2.07-2.05,.28-.12,.66-.27,1.11-.46,6.8-2.8,7.2-2.97,8.02-4.2,.03-.04,.06-.09,.08-.13,.62-1.02,1.59-4.67,1.45-6.3h0c-.03-.29-.11-.91-.34-2.6-.22-1.57-.61-4.45-.66-5.1-.03-1.53-.75-3.96-1.04-4.69l-.09-.22c-.08-.2-.25-.61-.35-.91,.18-1.13,.26-2.48-.1-3.6-.02-.09-.17-.71-.28-2.26-.08-1.03-.14-2.93-.18-4.57,.13-.17,.25-.36,.36-.57,.02-.04,.05-.09,.07-.13,.37-.75,.45-1.4,.64-2.97,.09-.74,.3-2.44,.47-3.05,.51-.92,2.7-3.45,3.46-4.05,.44-.29,.89-.62,1.4-1.01,.45-.34,1.3-.98,1.8-1.29,.8-.08,1.81-.27,3.19-.54,.48-.09,1.12-.22,1.4-.26,.26,0,.54-.03,.87-.06,.29-.02,.64-.05,1-.07,1.64-.08,3.07-1.16,3.59-2.71,.53-1.56,.05-3.28-1.21-4.34-5.63-4.76-11.92-8.65-18.69-11.57-4.25-1.84-8.69-3.28-13.19-4.28-5.35-1.22-10.94-1.84-16.59-1.84h0Z"/>
  </g>
  <path class="cls-11" d="M120.8,406.03c2.4-2.78,5.76-4.34,5.76-4.34,0,0,5.12,1.42,6.22,1.3s4.21-1.17,4.99-1.81,5.05-5.76,5.76-6.02,4.34-.06,4.79-.45,2.76-2.98,2.42-3.54-2.48-3.89-4.81-4.36-6.13-2.07-6.13-2.07h-2.29s-1.22-3.79-1.98-3.95c-.65-.14-2.12-.72-2.34-.76s-3.26,1.87-3.81,1.84-2.57-2.71-2.46-3.22,1.11-3.17,1.51-3.51,6.6-3.84,6.81-4.66,.63-2.97,.82-3.24,5.29-8.3,6.04-9.36,2.33-4.45,2.42-5.42,.15-3.67,.35-3.99,2.09-3.8,2.33-4.04,2.68-2.76,3.11-2.98,7.69-3.11,7.88-3.41,.95-3.2,.89-3.84-1.02-7.25-1.02-7.94-.49-2.64-.76-3.32-.89-2.07-.74-2.79,.24-1.88,.13-2.16-.32-1.18-.47-3.22-.25-6.84-.22-7.65,.21-1.89,.06-2.04-1.55-.1-1.76,.08-1.2,1.68-1.26,2.54l-1.18-.05s.02-1.2-.36-1.51-1.1-.74-1.1-.74c0,0,.83-.96,.92-1.26s1.02-3.32,1.05-3.79-.86-1.54-.92-2.3-1.25-1.86-1.89-2.04-1.04,.23-2.07,.28-1.72-.15-2.04-.13-.42,.31-.86,.23-1.54-.06-1.76-.24-.91-.62-1.33-.62c-.45-.18-1.21-.49-1.58-.24s-.5,.34-.86,.34-2.91-.02-3.4-.15-1.36-.11-1.7-.21c-.24-.49-.45-.7-.99-.68s-.86-.02-.96-.26-.13-.68-.76-.71-.96-.28-.86-.49,.28-.86-.18-.86-.52,.02-.55-.11,.03-.81-.45-.92-.5,.11-.47,.34-.08,1.76,.08,1.96,.11,.62-.02,.71,.06,1.42-.05,1.55-.24,.44-.13,.58,.62,.63,.55,.74-.02,.28-.16,.26-.16,.43-.08,.52,1.69,1.34,1.75,1.78,.13,4.89,.06,5.04-.58,1.96-1.39,2.54-2.12,1.62-2.82,1.96-3.66,1.85-4.1,2.04-2.64,1.15-3.29,1.17-3.72,.06-3.98,.24-2.78,1.91-2.98,2.36-1.44,2.06-1.96,3.63-.97,3.35-1.41,4.23-1.17,2.22-1.2,2.87-.08,1.65,.37,2.54,.96,2.14,1.64,2.7,1.89,1.54,1.99,1.93,.96,3.04,.73,3.76-.71,1.81-1.12,2.91-3.38,4.08-4.36,4.71-3.66,2.02-4.63,2.1-3.82-.1-3.82-.1c-.24-.5-1.42-2.4-2.3-3.14s-1.67-1.55-1.93-1.55-2.95,3.37-3.01,3.66-.34,2.2-.44,2.3-.21,2.12-.31,2.27-.21,1.59-.31,1.88-.34,2.02-.28,2.22,2.98,4.81,3.17,5.1,.55,.65,.49,1.75,.58,1.78,1.04,2.61,2.01,2.62,2.15,3.16,.84,6.38,1.04,6.57,2.51,.44,4.29,1.96,3.24,4.19,3.71,5.96,1.83,4.13,2.48,5,.89,1.47,1.26,1.6,3.76,.86,3.98,1.21,1.3,2.02,1.55,3.4,.91,3.85,.6,4.86-2.75,5.07-2.75,5.07c0,0-.11,2.9-.05,3.03s1.47,1.81,1.62,1.88,3.3,.24,3.46,.19,2.9-1.25,2.9-1.25Z"/>
  <path class="cls-5" d="M199.85,346.42c0,28.09-16.26,52.39-39.88,64l-8.78,3.6c-7.1,2.38-14.7,3.67-22.6,3.67-39.35,0-71.26-31.91-71.26-71.26,0-11.94,2.93-23.2,8.13-33.08,11.92-22.71,35.71-38.19,63.13-38.19,5.4,0,10.67,.6,15.72,1.74,4.32,.96,8.5,2.34,12.48,4.06,25.33,10.93,43.07,36.12,43.07,65.46Z"/>
  <g>
    <path class="cls-12" d="M106.3,137.27c-.08-.08-.22-.19-.43-.32-.21-.14-.46-.27-.77-.39-.3-.12-.63-.23-.98-.33-.35-.1-.71-.14-1.07-.14-.63,0-1.11,.12-1.44,.36-.32,.24-.48,.57-.48,1,0,.33,.1,.59,.31,.78,.2,.19,.51,.36,.92,.49,.41,.14,.92,.28,1.53,.44,.79,.19,1.48,.43,2.07,.7,.58,.28,1.03,.64,1.34,1.08,.31,.45,.47,1.03,.47,1.77,0,.64-.12,1.19-.36,1.65-.24,.46-.57,.83-.99,1.11-.42,.28-.9,.49-1.43,.62-.53,.13-1.1,.19-1.7,.19s-1.2-.06-1.8-.19c-.6-.12-1.18-.3-1.73-.54-.56-.23-1.07-.51-1.53-.84l1.04-2.02c.1,.1,.28,.24,.54,.4,.26,.16,.58,.33,.95,.49,.37,.16,.78,.3,1.22,.42,.44,.11,.89,.17,1.34,.17,.63,0,1.12-.11,1.44-.32s.49-.52,.49-.91c0-.36-.13-.64-.39-.85-.26-.2-.62-.38-1.09-.53-.46-.15-1.01-.32-1.65-.5-.76-.21-1.39-.45-1.9-.72-.51-.27-.89-.6-1.14-1.01-.25-.41-.37-.91-.37-1.52,0-.82,.2-1.52,.59-2.07s.92-.98,1.59-1.27c.67-.29,1.41-.43,2.23-.43,.57,0,1.1,.06,1.61,.19,.5,.12,.98,.29,1.42,.49s.84,.43,1.19,.66l-1.04,1.9Z"/>
    <path class="cls-12" d="M111.88,138.43v7.75h-2.35v-12.07h1.87l6.24,7.96v-7.94h2.35v12.05h-1.96l-6.15-7.75Z"/>
    <path class="cls-12" d="M124.85,138.43v7.75h-2.35v-12.07h1.87l6.24,7.96v-7.94h2.35v12.05h-1.96l-6.15-7.75Z"/>
    <path class="cls-12" d="M135.47,146.18v-12.07h5.12c.56,0,1.06,.11,1.53,.34,.46,.23,.87,.53,1.22,.92,.35,.39,.61,.82,.81,1.29,.19,.48,.29,.96,.29,1.46,0,.68-.16,1.33-.48,1.94-.32,.61-.75,1.11-1.31,1.5-.56,.39-1.21,.58-1.97,.58h-2.86v4.05h-2.35Zm2.35-6.1h2.72c.28,0,.54-.08,.76-.24s.41-.39,.54-.69c.14-.3,.2-.64,.2-1.03,0-.42-.08-.78-.23-1.07-.15-.29-.35-.52-.59-.66-.24-.15-.51-.22-.79-.22h-2.62v3.91Z"/>
    <path class="cls-12" d="M146.06,146.18v-12.07h5.34c.56,0,1.07,.11,1.54,.34,.47,.23,.88,.53,1.22,.92s.61,.82,.8,1.29,.28,.96,.28,1.46-.09,1-.26,1.47-.43,.88-.76,1.23c-.33,.35-.71,.62-1.16,.82l2.75,4.54h-2.58l-2.48-4.05h-2.35v4.05h-2.35Zm2.35-6.1h2.94c.29,0,.56-.09,.78-.26,.23-.18,.41-.41,.54-.71,.14-.29,.2-.62,.2-.99,0-.39-.08-.72-.24-1.01s-.36-.52-.6-.69c-.24-.17-.51-.26-.79-.26h-2.84v3.91Z"/>
  </g>
  <g>
    <path class="cls-12" d="M27.2,256.64l2.97,5.68,3.03-5.68h2.53l-4.39,7.85v4.22h-2.33v-4.25l-4.37-7.82h2.55Z"/>
    <path class="cls-12" d="M36.83,258.57v-2.26h2.28v2.26h-2.28Zm0,10.15v-8.91h2.28v8.91h-2.28Z"/>
    <path class="cls-12" d="M46.47,261.78c-.69,0-1.31,.13-1.85,.4-.54,.27-.94,.65-1.17,1.15v5.39h-2.28v-8.82h2.09v1.82c.32-.61,.72-1.09,1.21-1.45,.49-.35,1-.54,1.55-.58h.29c.07,0,.12,0,.17,.02v2.07Z"/>
    <path class="cls-12" d="M51.15,268.88c-.59,0-1.13-.12-1.62-.35s-.92-.56-1.28-.98c-.36-.42-.63-.9-.82-1.45s-.29-1.12-.29-1.74c0-.65,.1-1.25,.31-1.81,.2-.56,.49-1.05,.86-1.47,.37-.43,.8-.75,1.31-.99,.5-.23,1.06-.35,1.67-.35,.69,0,1.3,.15,1.82,.46,.52,.31,.95,.72,1.29,1.24v-1.56h1.99v8.43c0,.88-.21,1.63-.64,2.25-.42,.62-1.01,1.1-1.76,1.44-.75,.33-1.6,.5-2.55,.5s-1.78-.16-2.45-.48c-.67-.32-1.24-.78-1.72-1.37l1.24-1.21c.34,.42,.77,.75,1.28,.99,.52,.24,1.06,.36,1.64,.36,.49,0,.93-.08,1.33-.25,.4-.17,.73-.42,.97-.77,.24-.35,.37-.8,.37-1.36v-1.12c-.29,.51-.71,.9-1.25,1.18-.54,.28-1.11,.42-1.71,.42Zm.76-1.82c.25,0,.49-.04,.71-.12,.23-.08,.44-.19,.63-.32s.36-.3,.51-.49,.26-.38,.34-.57v-2.13c-.14-.35-.33-.66-.57-.92-.24-.26-.52-.46-.82-.61-.3-.14-.62-.21-.94-.21-.35,0-.67,.07-.95,.22-.28,.15-.53,.36-.73,.62s-.36,.56-.47,.89c-.11,.32-.16,.66-.16,1.01s.06,.71,.19,1.02c.12,.32,.3,.6,.52,.84,.22,.24,.48,.43,.78,.56,.3,.14,.62,.2,.96,.2Z"/>
    <path class="cls-12" d="M57.83,266.11c0-.57,.16-1.07,.48-1.5,.32-.43,.77-.76,1.35-1,.58-.23,1.24-.35,1.99-.35,.37,0,.75,.03,1.14,.08,.39,.06,.72,.15,1,.27v-.47c0-.56-.17-.98-.5-1.29-.33-.3-.83-.45-1.49-.45-.49,0-.95,.08-1.39,.25-.44,.17-.91,.42-1.39,.75l-.73-1.5c.59-.38,1.19-.67,1.81-.87s1.27-.29,1.95-.29c1.27,0,2.26,.31,2.97,.94,.71,.63,1.06,1.52,1.06,2.68v2.8c0,.23,.04,.4,.13,.5s.22,.16,.42,.18v1.85c-.2,.03-.39,.06-.55,.08-.16,.02-.3,.03-.42,.03-.45,0-.8-.1-1.03-.31-.23-.2-.38-.45-.43-.75l-.05-.46c-.39,.5-.87,.88-1.45,1.16s-1.17,.41-1.77,.41-1.12-.12-1.59-.36c-.47-.24-.84-.57-1.11-.99s-.4-.89-.4-1.42Zm5.54,.44c.12-.13,.23-.27,.31-.4,.08-.13,.12-.25,.12-.36v-.88c-.27-.11-.57-.2-.88-.26-.32-.06-.62-.09-.9-.09-.59,0-1.07,.12-1.45,.37-.38,.25-.57,.58-.57,.99,0,.22,.06,.43,.19,.63,.12,.2,.31,.36,.54,.48,.24,.12,.52,.18,.85,.18s.67-.06,1-.19c.33-.13,.59-.28,.8-.47Z"/>
    <path class="cls-12" d="M72.35,268.88c-.72,0-1.38-.12-1.95-.36-.58-.24-1.07-.58-1.48-1.01-.41-.43-.72-.92-.94-1.47s-.33-1.13-.33-1.73c0-.83,.19-1.59,.57-2.28,.38-.69,.92-1.24,1.62-1.66,.7-.41,1.54-.62,2.5-.62s1.79,.21,2.48,.63c.69,.42,1.21,.97,1.55,1.65l-2.23,.68c-.19-.33-.45-.58-.76-.76s-.67-.26-1.05-.26c-.43,0-.83,.11-1.18,.33-.36,.22-.64,.52-.84,.92-.2,.4-.31,.85-.31,1.38s.1,.96,.31,1.36c.21,.39,.49,.71,.84,.93,.35,.23,.74,.34,1.17,.34,.27,0,.53-.04,.77-.14,.24-.09,.46-.22,.65-.37,.19-.16,.33-.34,.42-.54l2.23,.68c-.2,.44-.5,.84-.89,1.19-.39,.35-.85,.63-1.38,.82-.53,.2-1.12,.3-1.78,.3Z"/>
    <path class="cls-12" d="M86.07,268.71h-2.28v-4.93c0-.68-.13-1.19-.4-1.52-.27-.33-.63-.5-1.1-.5-.27,0-.56,.08-.87,.23-.31,.16-.58,.37-.82,.64-.24,.27-.42,.58-.54,.94v5.14h-2.28v-12.41h2.28v5.23c.33-.56,.78-1,1.34-1.31,.57-.31,1.18-.47,1.85-.47,.58,0,1.05,.1,1.41,.29,.36,.2,.65,.46,.85,.79,.2,.33,.34,.7,.42,1.11,.08,.41,.12,.83,.12,1.27v5.5Z"/>
    <path class="cls-12" d="M92.19,268.88c-.71,0-1.36-.12-1.94-.36-.58-.24-1.07-.57-1.48-.99s-.72-.9-.94-1.45-.33-1.12-.33-1.72c0-.84,.19-1.61,.57-2.3,.38-.7,.92-1.25,1.63-1.67,.71-.42,1.54-.63,2.51-.63s1.81,.21,2.5,.63,1.22,.98,1.59,1.67,.55,1.43,.55,2.23c0,.13,0,.27-.02,.41-.01,.14-.02,.26-.03,.35h-6.89c.05,.44,.18,.83,.4,1.16,.22,.33,.5,.58,.85,.76s.72,.26,1.11,.26c.45,0,.88-.11,1.28-.33,.4-.22,.68-.51,.83-.88l1.96,.54c-.22,.45-.52,.86-.93,1.21-.4,.35-.88,.63-1.42,.82s-1.14,.3-1.8,.3Zm-2.33-5.29h4.66c-.05-.44-.17-.83-.38-1.15-.21-.33-.48-.58-.82-.76-.34-.18-.72-.27-1.14-.27s-.78,.09-1.11,.27c-.33,.18-.61,.44-.82,.76-.21,.33-.34,.71-.38,1.15Z"/>
    <path class="cls-12" d="M98.73,268.71v-6.7h-1.17v-1.73h1.17v-.22c0-.62,.12-1.18,.37-1.68,.25-.5,.6-.9,1.06-1.19s1.01-.44,1.64-.44c.42,0,.82,.05,1.21,.16,.38,.11,.78,.25,1.19,.43l-.48,1.73c-.25-.14-.5-.23-.75-.3-.25-.06-.49-.09-.71-.09-.2,0-.39,.03-.54,.1-.16,.07-.29,.16-.4,.28-.11,.12-.19,.26-.24,.42s-.08,.32-.08,.49v.31h2.18v1.73h-2.18v6.7h-2.28Zm4.45,0v-6.7h-1.17v-1.73h1.17v-.54c0-.74,.12-1.37,.37-1.91,.24-.54,.59-.95,1.04-1.25,.45-.29,.97-.44,1.57-.44,.36,0,.73,.05,1.1,.14s.73,.22,1.1,.39l-.46,1.72c-.17-.09-.37-.17-.59-.23-.23-.06-.44-.09-.65-.09-.39,0-.68,.14-.88,.41s-.31,.67-.31,1.19v.63h2.18v1.73h-2.18v6.7h-2.28Z"/>
    <path class="cls-12" d="M113.11,268.88c-.71,0-1.36-.12-1.94-.36-.58-.24-1.07-.57-1.48-.99s-.72-.9-.94-1.45-.33-1.12-.33-1.72c0-.84,.19-1.61,.57-2.3,.38-.7,.92-1.25,1.63-1.67,.71-.42,1.54-.63,2.51-.63s1.81,.21,2.5,.63,1.22,.98,1.59,1.67,.55,1.43,.55,2.23c0,.13,0,.27-.02,.41-.01,.14-.02,.26-.03,.35h-6.89c.05,.44,.18,.83,.4,1.16,.22,.33,.5,.58,.85,.76s.72,.26,1.11,.26c.45,0,.88-.11,1.28-.33,.4-.22,.68-.51,.83-.88l1.96,.54c-.22,.45-.52,.86-.93,1.21-.4,.35-.88,.63-1.42,.82s-1.14,.3-1.8,.3Zm-2.33-5.29h4.66c-.05-.44-.17-.83-.38-1.15-.21-.33-.48-.58-.82-.76-.34-.18-.72-.27-1.14-.27s-.78,.09-1.11,.27c-.33,.18-.61,.44-.82,.76-.21,.33-.34,.71-.38,1.15Z"/>
  </g>
  <path id="ETH3109" class="cls-4" d="M455.03,105.81l-.62,1.81-.06,.4v.96l.28,1.13,.96,1.99,.28,1.02v.57l-.06,.51v.45l.74,1.02,.23,.51,.11,.62,.11,.57-.06,1.13,.06,.51,.23,.57,.23,.51,.51,.62,.91,.57,.06,.17-.28,3.74v1.08l.28,.74,1.3,2.44,.68,.79,.79,.68,.85,.4,.28,.4,.23,.85,.28,1.99,.34,.85,1.59,2.67,.34,.91,.34,2.1v1.13l-.11,1.13,1.19,1.25,.68,.68,.57,.74,1.53,2.78,.4,1.02,.23,1.02,.11,1.81,.17,1.36v.68l-.17,.68-.23,.57-2.16,3.23,.96,1.08,.4,1.02-.06,1.02-.4,1.02-1.13,1.93-.28,.85v.85l.45,1.02,1.19,1.47,.23,.45v.85l-.4,1.87v.96l.85,2.78,.06,.51-.17,.74-.45,.79-.17,.79-.4,4.82-.11,.74-.74,1.76-.11,1.08,.11,.96,.23,1.02,.11,1.02-.06,.79-.28,.23-.57-.06-.85-.23-.79-.11-.91-.06-.91,.23-.62,.51-.4,.96,.06,.79,.45,.68,.85,.62,1.13,.68,.79,.57,.34,.79-.06,1.47-.28,.79-1.08,1.53-.34,.74-1.02,1.36v.51l.45,.85,.17,.45-.51,1.08h-1.47l-3.18-.91-1.53,.4,.11,1.53,1.42,3.63,.06,1.99-.23,1.93-.74,1.76-1.36,1.36-.79,.57-.51,.62-.11,.57,.51,.62,.4,.17,1.02,.28,.51,.23,1.36,1.08-.06,1.81-1.02,1.76-1.25,1.7-.91,1.47-1.64,1.36,.11,7.77-.4,1.13-1.19,.74-3.86,1.36-1.3,.79-1.81,1.3-.79,.17-.96-.51-1.36-2.1-1.13-.4-.57,.23-1.93,1.93-.85,.06-.68-.17-.45-.34-.28-.4-.96-2.1-.06-.62,.11-.74-.11-2.21,3.23-5.27,.45-1.25-.11-1.13-.79-.62-1.99-.4-.79-.62-.51-1.25-.34-1.42-.11-1.08,.23-.34,.62-.06,.91,.06,3.23-.23,.51-.23,1.87-1.36,.96-.17,1.3,.45h.06l-2.21-2.33-.23-.34,.11-.91-.79-.45-1.13-.23-.85,.06-1.36-.28-1.25-1.59-1.36-2.44-1.81-2.67-4.37-1.93-6.86-1.42-2.44-1.19-1.25-1.53-.62-1.76-.28-1.87-.06-1.93-.11-.23-.68-1.02-.45-.4-.68-.51-2.38-.91-.74-.68-.06-1.13,1.47,.28,1.47-.34,2.5-1.3,.45-.57,1.64-7.71,.06-1.42-.68-.51-4.37-.79-8.85,.45-.34,.28-.23,.4-.96,4.14-.28,.4-.28,.28-.4,.17-.17,.23v.51l.28,.79,.06,.4-.11,.45-.51,.74-.85,.4-.96,.17h-.91l-.96-.28-.74,.11-1.02,.34-1.08,.23-.45,.4-.34,.79-.96,.96-.62,.4-2.27,.57-5.39,2.55-1.76,1.25-.34,.11-1.02,.11-.28,.17-.57,.74-.34,.34-2.67,1.47-.34,.11-.96-.17-.57,.11-1.02,.57h-.62l-3.52-2.61-.57-.68-.23-.45-.85-1.02-.79-1.08-.51-.4-3.63-1.64-1.25-.34-1.3-.17-.57,.17-.34,1.08-.4,.45-.4,.06-.28-.23-.45-.62-.17-.45v-.85l-.06-.45-.28-.4-.62-.28-.62-.17h-.51l-.68,.11-.57-.23-.91-.96-.51-1.3,.45-1.13,.57-1.13-.11-1.02-.57-.28h-2.55l-.74-.28-.74-.4-1.08-.91-5.44-1.02-1.53-.57-.79-.17-1.76-.11-.74-.28-.68-.68h-.34l-.91,.23-.34,.06-4.31-.4h-1.76l-.74-.28-.51-.74-.06-.68,.11-.68v-.62l-.4-.57-.45-.17-.4,.06-1.87,.91-.91-.06-.91-.62-.79-.96-.79-1.19-.57-1.64-.28-2.16,2.5-5.61-.51-.68h-.85l-.74,.28-.51,.51-.34,.79h-.11l-.11-.68v-1.08l.11-1.13,.91-2.16v-.57l.11-.57,.51-.79,.62-.79,.57-.62,1.99-1.53,1.02-1.13,.96-1.64-1.13-2.44,.11-.51,.34-.68-.11-.79-.17-.79-.11-.68,.4-.85,.68-.96,.57-1.13,.11-1.53-2.33-2.33-.62-.4-.91-.79,.34-.79,.74-.74,.45-.62-.06-.34-2.21-3.35-1.25-1.3-.45-.74-.17-3.46,.17-2.55-.23-.4-.91,.28-1.47,1.08-1.47,1.3-1.59,1.7-.68,.45-.79,.06-.74-.34-.57-1.76-.28-1.93-.4-.91-.91-1.13-1.3-2.16-.17-.23-1.59-1.36-.51-.51-.45-1.02-.34-.45-.91-.57-.17-.17-.62-.17h-1.08l-.96-.11-.45-.74-.4-.06h-1.13l-1.59-.17-.23,.23-1.02,2.5-.62,.85-4.76,3.74-.91,.96-.79,.68-.79,.11-1.02-.11-1.13,.17-2.1,.68h-.79l-.91-.45-.96-.79-1.02-1.13-1.47-3.46-.96-.85,.11-.51,.34-.34,1.42-.85,.74-.85,.28-.91,.4-2.1,.68-1.7,.28-.45,.34-.34,.85-.4,.4-.34,.34-.51,.11-.51,.11-1.08,.4-1.08,7.09-11.91,.34-.4,.34-.11,.74-.06,.28-.17,.4-.4,.45-1.81,.11-.28,.57-.28,.96-.34,11.4-1.64,.79,.06,.79,.51,1.02,.28,.62-.28,.34-.74,.74-4.31-.06-.96-.11-.57-.91-1.53-.06-.85,.45-.68,.57-.57,.34-.57v-.34l-.45-.91-.06-.79,3.69-12.76,5.61-8.11,.34-1.13,.11-2.21,.11-.74,1.59-3.91,.51,.4,2.72,5.9,.51,.57h.62l4.93,1.3,.74,.34,4.2,3.91,2.1,1.25,.91,1.08,.68,.28,4.42,.62h.79l.51-.34,.45-.45,2.04-1.08,1.08-.28,1.25-.11,.91,.23,1.13,.45,1.02,.68,.57,.74,.34,.28,.57,.11,6.52,.23,1.08-.23,5.27-2.5,.57-.45,.57-.62,.34-.74,.91-2.72,.91-.68h1.47l4.2,1.02,4.99,2.55,1.3,.23,.45-.17,.79-.4,.74-.51,.34-.45,.62-.68,1.36,.11,1.87,.28,2.21,.11,3.74-.51,.74-.4,.62-.62,.34-.62,.4-.57,.62-.28,.45,.11,.34,.4,.28,.68,.17,.85-1.13,2.67,.23,.17,3.18-.79,.85-.4,.62-.11,.74-.06,2.67,.28,.11,.28,.51,1.13,.28,1.7,.23,.68,1.59,.74,8.39,8.39,1.02,1.25,.17,1.19v.74l.06,.96,.17,.85,.28,.57,.51,.34,.68,.11h1.93l4.08-.74,.74,.28,.34,.74,.11,1.19,.28,1.25,.45,1.42,.34,1.7-.06,2.16-2.78,5.1-.17,1.3,.28,1.36,1.53,3.91,.4,4.25,.17,.85,.4,1.02,.51,.96,.68,.57,.34,.06,2.78-.11,.17-.96,1.13-.28,4.76,.17,.34,.57,.11,.85-.06,.79-.23,.62,.06,.11,3.4-2.04,.4-.11,2.72-.17,1.3-.17,1.25-.34h0Z"/>
  <path id="ETH3110" class="cls-4" d="M463.31,23.01l-.62,.4,.11,.85-.06,1.02-.28,.62-.28,.34-.23,.17-1.02,.11-2.84-.28-1.53-.45-.62-.11-2.61,.51-1.19,.74-1.08,.85-.23,.34v.34l.85,.45,2.33-.17,.57,.51-.11,.51-1.7,1.87-.96,1.99-.17,.74,.28,.23,1.19,.06,.68,.11,.57,.34-1.25,1.42-.23,.34,.28,.68,.57,.06,.57-.23,.45-.11,.45,.4,.28,.74,.11,.79,.06,.62-.17,1.47v.51l.23,.45,.57,.45,.23,.79,.06,2.27-.68,3.63-.17,1.7,.28,1.42,.51,1.36,.34,1.93-.17,1.64-1.13,.68-1.42-.68-.28,.51-.91,3.01v.96l.62,1.59,.11,.96-.11,.96-.74,3.91,.06,.51,.4,.79,.57,.62,.68,.4,.23,.45,.62,2.95,.23,.4,.45,.57v.23l-.17,.62-.45,.68-.45,.51-.51,.06,.17,1.81v.79l-.17,1.08v.85l-.4,1.08,.06,.17,1.13,.96,.57,.28,.85,.11,.79,.23,.57,.57,.96,1.59,.23,1.25-.17,1.81-.4,1.76-.62,1.13-1.3,1.42-.79,1.42-.45,1.64-.17,1.93,.11,.62,.57,1.19,.11,.79v.91l-.11,.91-.28,.74-.68,.62-1.25,.34-1.3,.17-2.72,.17-.4,.11-3.4,2.04-.06-.11,.23-.62,.06-.79-.11-.85-.34-.57-4.76-.17-1.13,.28-.17,.96-2.78,.11-.34-.06-.68-.57-.51-.96-.4-1.02-.17-.85-.4-4.25-1.53-3.91-.28-1.36,.17-1.3,2.78-5.1,.06-2.16-.34-1.7-.45-1.42-.28-1.25-.11-1.19-.34-.74-.74-.28-4.08,.74h-1.93l-.68-.11-.51-.34-.28-.57-.17-.85-.06-.96v-.74l-.17-1.19-1.02-1.25-8.39-8.39-1.59-.74-.23-.68-.28-1.7-.51-1.13-.11-.28-2.67-.28-.74,.06-.62,.11-.85,.4-3.18,.79-.23-.17,1.13-2.67-.17-.85-.28-.68-.34-.4-.45-.11-.62,.28-.4,.57-.34,.62-.62,.62-.74,.4-3.74,.51-2.21-.11-1.87-.28-1.36-.11-.62,.68-.34,.45-.74,.51-.79,.4-.45,.17-1.3-.23-4.99-2.55-4.2-1.02h-1.47l-.91,.68-.91,2.72-.34,.74-.57,.62-.57,.45-5.27,2.5-1.08,.23-6.52-.23-.57-.11-.34-.28-.57-.74-1.02-.68-1.13-.45-.91-.23-1.25,.11-1.08,.28-2.04,1.08-.45,.45-.51,.34h-.79l-4.42-.62-.68-.28-.91-1.08-2.1-1.25-4.2-3.91-.74-.34-4.93-1.3h-.62l-.51-.57-2.72-5.9-.51-.4,.68-1.7-.11-1.93-.62-1.99-.23-.96v-.96l.17-.85,3.4-10.61h.74l.23-.74,.51-.4,.62-.17h.79l.51-.11,1.19-.57,.74-.11h1.7l.34-.11,.62-.34,.34-.11h2.61l1.19,.17,2.5,.74,1.25,.17,.23,.11,.68,.96,.57,.4,.74,.11,.23-.06,.51-.45h.34l.68,.06,.28-.06,.45-.34,.45-.45,.28-.68,.06-.79,.06-.96,.11-.79,.34-.74,.57-.85,1.08-.85,1.3-.28,2.78,.06,.79-.28,.57-.06,.91,.79,.68,.4,1.47,2.1,.57,.57,.11,.34,.06,.57v.91l.11,.4,.51,.28,1.53,1.3,.17,.23,.28,.74,.23,.96,.23,.45,.85,.28,.4,.17,.28,.28,.11,.4,.06,.96,.17,.68,.4,.45,.68,.45,.4-.45,3.52-8.51,7.26-17.53,1.59-3.74,.62,.57,.45,.68,.74,1.42,.17,.17,.34,.06,.17,.11v.57l.23,.68,.17,.17,.45,.06,.34,.28,.11,.68,.23,.34,.28,.28,4.14,1.7,.68,.11,2.1-.4,.91,.06,.62,.28,.34,.45,.34,.79,.17,1.08,.17,.34,.4,.34,.79,.57,.28,.51,.34,1.47,.28,.68,.45,.57,.62,.51,1.99,1.08,.34,.28,.23,.85,.23,.34,.45,.34,.34,.06,.28-.11,1.87,.06,2.89-.34,1.42-.4,2.33-1.19h.74l.68,.23,.68,.06,.68-.06,.74-.17,2.27-.91,1.64-.17,.74-.51,1.25-1.13,1.53-.74,.79-.51,.57-.68,.11-.74-.11-.74,.11-.62,.45-.51,.06,.17,1.36,.11,1.08,.28,.4,.17,.79,.51,.74,.68,.68,.79,.51,.85,1.08,3.23,.79,1.47,.96-.06,.79-1.3,.51-.45,.96-.17,2.04,.34,.74-.06,3.06-.85,1.53-.74,.68-.91,.34-.79h.62l.74,.4,.57,.51,.79,.96,.45,.28,1.93,.62,1.02,.06,2.16-.34,1.19-.06,1.13,.4,1.08,.68,1.99,1.7,.57,.28,.68,.11,.74-.23,1.19-.96,.68-.17,.74,.11h0Z"/>
  <path id="ETH3111" class="cls-4" d="M530.07,157.31l-.45,.23-.62,.4-.68,.28-1.13,.11-15.03-.11-.85,.23-.74,.79-.28,.96-.17,1.08-.23,.96-1.08,1.76-2.89,2.89-1.3,1.59-.34,.79-.11,.74,.23,1.59v1.08l-5.44,20.87,.06,.96,.28,.96,.62,.57,1.7,.68,.34,.51-.57,.85-4.76,4.14-2.1,2.38-3.35,5.22-.57,1.42-.68,2.78-.34,2.67-.96,1.02-1.02,.57-1.19,.28-3.12,.51-1.3,.57-1.13,.91-1.19,1.25-1.02,1.25-2.55,4.2-.51,.68-2.38,2.33-.28,.57-.11,.57-.06,.85-.45,1.25-.85,.74-.96,.62-1.25,.11-1.36,2.38-.74,.79-2.33,1.59-.45-.17-.23-.85,.91-2.5v-1.7l-.68-.74-1.25-.23-1.64-.06,.11-.74-.17-.4-.34-.34-.34-.45-.17-.68-.28-1.7-.28-.62-.74-.4h-1.02l-2.04,.23,.91-1.47,1.25-1.7,1.02-1.76,.06-1.81-1.36-1.08-.51-.23-1.02-.28-.4-.17-.51-.62,.11-.57,.51-.62,.79-.57,1.36-1.36,.74-1.76,.23-1.93-.06-1.99-1.42-3.63-.11-1.53,1.53-.4,3.18,.91h1.47l.51-1.08-.17-.45-.45-.85v-.51l1.02-1.36,.34-.74,1.08-1.53,.28-.79,.06-1.47-.34-.79-.79-.57-1.13-.68-.85-.62-.45-.68-.06-.79,.4-.96,.62-.51,.91-.23,.91,.06,.79,.11,.85,.23,.57,.06,.28-.23,.06-.79-.11-1.02-.23-1.02-.11-.96,.11-1.08,.74-1.76,.11-.74,.4-4.82,.17-.79,.45-.79,.17-.74-.06-.51-.85-2.78v-.96l.4-1.87v-.85l-.23-.45-1.19-1.47-.45-1.02v-.85l.28-.85,1.13-1.93,.4-1.02,.06-1.02-.4-1.02-.96-1.08,2.16-3.23,.23-.57,.17-.68v-.68l-.17-1.36-.11-1.81-.23-1.02-.4-1.02-1.53-2.78-.57-.74-.68-.68-1.19-1.25,.11-1.13v-1.13l-.34-2.1-.34-.91-1.59-2.67-.34-.85-.28-1.99-.23-.85-.28-.4-.85-.4-.79-.68-.68-.79-1.3-2.44-.28-.74v-1.08l.28-3.74-.06-.17-.91-.57-.51-.62-.23-.51-.23-.57-.06-.51,.06-1.13-.11-.57-.11-.62-.23-.51-.74-1.02v-.45l.06-.51v-.57l-.28-1.02-.96-1.99-.28-1.13v-.96l.06-.4,.62-1.81,.68-.62,.28-.74,.11-.91v-.91l-.11-.79-.57-1.19-.11-.62,.17-1.93,.45-1.64,.79-1.42,1.3-1.42,.62-1.13,.4-1.76,.17-1.81-.23-1.25-.96-1.59-.57-.57-.79-.23-.85-.11-.57-.28-1.13-.96-.06-.17,.4-1.08v-.85l.17-1.08v-.79l-.17-1.81,.51-.06,.45-.51,.45-.68,.17-.62v-.23l-.45-.57-.23-.4-.62-2.95-.23-.45-.68-.4-.57-.62-.4-.79-.06-.51,.74-3.91,.11-.96-.11-.96-.62-1.59v-.96l.91-3.01,.28-.51,1.42,.68,1.13-.68,.17-1.64-.34-1.93-.51-1.36-.28-1.42,.17-1.7,.68-3.63-.06-2.27-.23-.79-.57-.45-.23-.45v-.51l.17-1.47-.06-.62-.11-.79-.28-.74-.45-.4-.45,.11-.57,.23-.57-.06-.28-.68,.23-.34,1.25-1.42-.57-.34-.68-.11-1.19-.06-.28-.23,.17-.74,.96-1.99,1.7-1.87,.11-.51-.57-.51-2.33,.17-.85-.45v-.34l.23-.34,1.08-.85,1.19-.74,2.61-.51,.62,.11,1.53,.45,2.84,.28,1.02-.11,.23-.17,.28-.34,.28-.62,.06-1.02-.11-.85,.62-.4,.91,.17h.51l1.87-.57h.68l3.4,.85,1.64,.62,1.47,.91,5.44,5.1,2.21,1.13,4.03,1.93,1.02,.4,3.4,.45,2.61,.96,2.27,1.64,7.94,9.13,5.61,9.98,1.13,1.13,11.68,7.49,6.81,5.67,1.47,1.53,1.3,1.7,1.19,1.99,2.95,6.41,1.93,2.78,2.95,1.93,2.16,.91,2.1,1.19,1.81,1.53,2.5,4.25,3.06,4.2,1.81,1.93-2.27,3.06-1.19,2.5-4.99,6.92-.62,1.42-.28,.51-.91,.4-.4,.45-1.53,2.89-4.54,6.52-.45,.4-.51,.4-.51,.28-.45,.11-.28,.23-.23,.57-.4,.51-1.47,.62-.57,.4-.57,1.19-.51,2.95-1.13,3.52v2.1l1.02,4.42,.34,3.29-.45-.23-1.08,.11-.91,.57-.68,.85-.57,.96-.28,1.59,.62,1.7,1.3,1.42,1.53,.85,.51-.4v.91l-.23,1.64-.68,1.08,.23,.23h0Z"/>
  <path id="ETH3130" class="cls-4" d="M284.49,289.45l.34,.74-.34,1.13,.34,.45,2.61,1.42,.62,.62,.28,.74-.11,.85-.74,2.61-.06,.51v1.02l-.45,1.02-.11,.91-.11,.79-.06,.4,.11,.4,.34,.68,.11,.34-.28,.91-.91,.11-2.16-.45-.91,.17-1.59,.74-.96,.06-.91-.23-.96-.45-.96-.51-.62-.68-.57,.68-.79,.51-.91,.17-.74-.28-.45,.91-1.02,.34-2.27-.11-1.36,.06-1.13,.23-1.08,.45-1.08,.85-.96,.85-.79,.57-.85,.34-1.19,.23-1.25,.06-1.19-.23-1.08-.51-1.02-.79-1.13-.74-1.42-.34h-1.47l-1.36,.28-1.87,.74-.96,.28-.96-.11-.85-.62-1.13-.96-1.08-.62-.85,.34v-1.19l-.17-.79-.4-.62-.51-.34-.62,.28-.68,.17-.74-.51-1.02-1.3-1.76-1.36-.34-.34v-3.52l-.28-1.3-.62-1.08-4.71-4.76-1.13-.68-1.13-.17-.4-.11-1.87-1.42-1.25-1.7-.45-.57-.4-.17-1.19-.34-1.02-.68-.4-.11-2.44,.23-.79-.23-.4-.28-.57-.68-.34-.34-.4-.17-.68-.23-.34-.28-.62-.23-1.02,.06-1.59,.34-.34,.17-.96,.57-.45,.06-2.1-.57-.68-.62-.62-.68-.57-.51-.28-.11-1.25-.17-1.08-.45-.34-.06-1.19,.28-.23,.11-.23,.28-.51-.06-.79-.34-1.02-.11-.28-.17-.4-.91-.68-.34-.28-.62-.96-2.55,.17-.4,.45-.57,.23-.4,.34-.45,.17-.79,.23-.4,.45-.62,2.16-2.21,.62-1.25,1.13-.23,.68-.28,.45-.4,.28-.51,.11-.79-.11-.17-.51-.4-.11-.17,.06-.96,.45-.74,.34-.28,.62-.28v-.51l-.85-.4-.23-.45-.57-.62-.11-.45,.06-.28,.34-.74,.11-.45-.4-.4-.06-.34,.23-.4v-.68l.23-.57,.51-.23,.57-.11,.28-.28-.17-.34,1.08-.96,.68-.11,4.08,.91,.4-.11,.51-.4,.57-.17,.51,.11,2.55-.34,.34-.17-.17-.45h.74l.62,.34,.57,.45,.57,.28,.74-.11,.57-.34,.51-.23,.79,.11,1.19,1.02,.74,1.3,.91,1.08,1.7,.17,.57-.11,1.59-1.3,.4-.28,.57-.28,.68-.17,1.25-.17h2.16l.74-.17,.74-.45,3.74-3.4,.79-.85,.45-.91,.17-.79,.91,.45,.68,.68,.45,.34,.45-.11,1.81-1.3,.91-.34,.96,.11,1.13,.51,1.93,1.3,3.29,3.18,1.87,1.47,3.8,1.93,1.08,.91,1.36,1.99,.79,.79,1.13,.51,2.21,.45,.74,.57,.62,1.19,.68,.96,1.02,.45h1.19l2.72-.45,2.16-.06,2.04,.23,1.19,.85-.34,.57-.91,.45-1.93,.62-2.27,1.3-1.7,.74-.34,.45,.34,.4,1.81,.62,.23,.4-.23,.45-2.38,3.4-.62,1.59,.06,1.81,.79,1.64,1.19,1.13,1.36,1.08,1.25,1.25,.4,.79,.23,1.81,.28,.79,.57,.45,3.8,1.36,.51,.45-.28,.62-.51,.45-.62,.74-.17,.62,.68,.28,1.13,.06,.51,.11,.91,.4,.23-.11,.62-.45,.74-.4,.79-.51,.45-.68-.06-.85h0Z"/>
  <path id="ETH3132" class="cls-4" d="M323.45,236.2l-.68,.06-.34-.11-.34-.23-.51-.34-.34-.45,.34-.45,1.64-.85,.45,.28,.68,.79,.62,.34-.28,.34-.4,.28-.85,.34h0Zm-7.15-3.46l.68,.11,.4-.17,.51,.06,1.08,.34,.4,.23-.57,.57v.17l.28,.45,.45,.45,.45,.17,.51,.06,.45-.17-.28,.68-.23,1.19-.06,1.13,.11,.85,.57,.23,.34,.51v.51l-.57,.23,.45,.68,.17,.4,.11,.4-.74-.06-.57-.34-.23-.34,.06-.62-.06-.34-.4-.45-.91-.74-.4-.57-.91,.96-.57,.34-.79,.06-.34-.45-.23-.11-.74,.11h-.68l-.34,.28-.74-.4-.28-.28-.17-.4,.23-.28v-.45l-.17-.96v-.45l.28-.51,.62-.74,.23-.4,.06-.57v-.68l.06-.62,.28-.4,.57-.06,1.59,.4h0Zm12.7-14.63l.85,1.76-1.3-.23-.45,.23-.17,.79-.11,.06-.45-.74-.91-3.06,.4-1.47,.23-.57,.45-.51,.74-.51,.68-.17,.68,.17,1.25,.91,.23,.34-.06,.45-.28,.28-1.47,.68-.4,.74,.11,.85h0Zm22.8-34.37l-.74,2.1-.4,.74-.4,.51-.45,.23-.74-.06-3.91-1.19-.79-.62-2.04-.85-1.64-1.02-.68-.06-3.29,1.7-.51,.4-.85,1.7-.79,.17-.62-.17-.62-.28-.68-.23-.23-.23,.11-.45,1.3-3.74-.23-.11-2.33,.23-.79,.34-.68,.57-1.42,1.47-.57,.68-1.99,3.29-1.25,1.42-3.35,2.44-1.53,.85-.74,.28-.74,.06-.68-.51h-.45l.34,6.75-.23,3.63,.23,.79,.4,.91,.06,.79-.34,.62-.74,.57-.06,.17,1.19,1.02,2.55,3.01,.62,.45,1.13,1.13,.23,2.1-.45,2.72-1.08,3.12-5.5,7.2-.85-.34-.51-2.38-.62-.74-1.19,.11-.45-.06-.34-.45-1.36-2.38-.34-.74-.28-.51-.34-.17-.74,.06-1.47-.11-1.13,.06-.45-.06-.45-.23-.4-.45,.06-2.16-.11-.45-.74-1.64-.51-.68-.51-.06-1.59,.28-1.87-1.93-5.16-6.3-7.6-7.6-1.42-1.08-.79-.45-.74-.11h-.74l-1.76-.28-1.25-.06-2.95,.45-.96-.06-.4-.62-.06-.91,.06-.96-.23-.4-.62-.23-4.82-.34-.17,.34,.34,.91,.57,.57,.28,.57-2.21,6.98-1.42,2.67-4.25,4.59-1.19,.17-.96-.51-1.76-1.53-.85-.62-.68-.11-1.42,.23h-.85l-.91,.57-.79,7.09-1.47,6.64-.28,.91-.34,.68-.4,.68-.51,.68-.74,.51-1.08,.11-7.03-.62-1.76-.06-.62-12.48,1.19-5.67,4.65-13.33,2.27-2.04,.85-1.3,.06-.4-.17-.96,.06-.4,.57-.85,.34-1.59-.06-1.76-1.87-8.45-.11-1.59,.28-1.36,3.23-4.59,1.47-2.89,.57-.79,.68-.57,4.54-3.18,.62-.23,.45,.17,4.59,4.08,1.13,.68,.45,.45,.28,.57-.17,1.19,.06,.57,.4,.11,.28-.28,.51-1.19,.45-.4,.62-.06,.51,.11,.4-.06,.45-.62,.23-.68v-.45l.17-.51,.68-.62,2.04-1.59,.68-.91,.28-1.3-.23-.57-1.13-.85-.34-.51v-.4l2.5-7.37,.17-1.19-.51-.79-.62-.74-.4-1.08,.11-.79,4.76-10.61,.17-.74-.11-.74-.79-1.59-.28-.79,.06-1.53-.28-1.47,.06-.79,.28-.91,.4-.96,.51-.85,.57-.79,1.47-.91,3.35-1.3,1.13-1.3,.06-.4,.06-.68,.96,.85,1.47,3.46,1.02,1.13,.96,.79,.91,.45h.79l2.1-.68,1.13-.17,1.02,.11,.79-.11,.79-.68,.91-.96,4.76-3.74,.62-.85,1.02-2.5,.23-.23,1.59,.17h1.13l.4,.06,.45,.74,.96,.11h1.08l.62,.17,.17,.17,.91,.57,.34,.45,.45,1.02,.51,.51,1.59,1.36,.17,.23,1.3,2.16,.91,1.13,.4,.91,.28,1.93,.57,1.76,.74,.34,.79-.06,.68-.45,1.59-1.7,1.47-1.3,1.47-1.08,.91-.28,.23,.4-.17,2.55,.17,3.46,.45,.74,1.25,1.3,2.21,3.35,.06,.34-.45,.62-.74,.74-.34,.79,.91,.79,.62,.4,2.33,2.33-.11,1.53-.57,1.13-.68,.96-.4,.85,.11,.68,.17,.79,.11,.79-.34,.68-.11,.51,1.13,2.44-.96,1.64-1.02,1.13-1.99,1.53-.57,.62-.62,.79-.51,.79-.11,.57v.57l-.91,2.16-.11,1.13v1.08l.11,.68h.11l.34-.79,.51-.51,.74-.28h.85l.51,.68-2.5,5.61,.28,2.16,.57,1.64,.79,1.19,.79,.96,.91,.62,.91,.06,1.87-.91,.4-.06,.45,.17,.4,.57v.62l-.11,.68,.06,.68,.51,.74,.74,.28h1.76l4.31,.4,.34-.06,.91-.23h.34l.68,.68,.74,.28,1.76,.11,.79,.17,1.53,.57,5.44,1.02h0Z"/>
  <path id="ETH3133" class="cls-4" d="M418.85,230.53l.28,.17,.96-.06,.79,.06,.96,2.16,.23,.68v.74l-.11,.51-.28,.85,.11,.45-.79-.06-.79-.23,.11,.68,.57,1.42-.06,.57-.45,.28-.57-.06-.51,.06-.23,.74-.45,.62-.74-.11-.74-.4-.45-.34-.74-.91-.34-.4-.4-.34-.85-.28-.34-.34-.28-.34-.34-1.13-.57-.91,.06-.28-.34-.51,.28-.79,.51-1.02,.68-.91,.62-.51,.45-.17,1.53-.34,.45-.06,.17,.17,.28,.51,.4,.06,.79-.79,.11,.57h0Z"/>
  <path id="ETH3134" class="cls-4" d="M429,442.19l.45-.4-.28-.28,3.06-1.64,3.23-1.42,1.47-.96,1.19-1.53,5.16-8.85,1.13-2.38-.51-1.59-.06-.74,.17-.79,1.19-3.18,.79-3.35,.28-.51,1.36-1.76,5.96-13.78,.23-.96,.11-2.27,.74-4.14,1.08-3.06,.79-3.12,1.42-2.78,2.33-6.01,3.57-5.16,.79-.62h.57l1.08,.57,1.36,.57,2.72,.57,.79-.11,1.93-.68,.34-.06,.96,.06,1.19-.23,1.53-.17,2.84-.62h1.76l.57-.34,1.02-.17,.62-.28,5.96-5.39,5.5-3.06,2.78-2.04-1.36-3.23-.28-1.02-.06-1.13,.06-3.01-.51-7.2,.28-1.99,.23-.96,.11-.96,.06-.96-.06-.96-.17-.79-.34-.91-.23-.85,.11-1.59-.28-1.81,.28-.85,1.47-2.67,.57-.79,2.21-2.16,1.87-2.55,.79-.74,.91-.51,1.81-.11,1.81,.85,1.81,1.25,4.71,2.5,1.87,.28,.91,.28,.85,.45,.79,.62,6.13,6.3,.45-.91,.57-.51,1.42-.96,.62-.74,1.25-2.5,1.08-1.13,1.59-.96,1.47-.17,.62,1.25h.91l.85-.23,.85-.34,.85-.45,.23-.17,1.02-1.02,.23-.4,.34-.68,.45-.74,.4-.68,.68-2.67,1.02-1.59,.4-.85-.4-.74,.34-.45,.06-.4-.17-.85,.11-.4,.4-.91,.17-.96,.4-.57,1.25-.68-.06-.45,.17-.28,.45-.4,.45-1.19,.51-.79,.23-.4,.06-.51-.06-.85,.06-.4,.17-.34,.74-1.13,.51-1.76,.17-1.81-.45-2.38-.28-.28-11.57-4.54-.34-.62-.28-1.13-.34-1.99-.06-.85,.11-.74,.51-1.59,1.76-3.86,.62-2.16-.23-1.7-.62-1.08-.4-.91-.11-.96,.51-9.24,.4-2.16,.74-1.81,2.1-3.01,.51-1.02,.06-1.02-.23-2.21,.28-.91,1.42-1.87,1.59-1.64,3.57-3.06,2.55-.68,1.47,2.72,.51,.51,4.48,.85,2.16,.91,1.13,1.59,1.13,6.41,.62,1.99,.91,1.81,1.19,1.36,1.25,.28,1.36-1.59,1.47-5.56,1.02-1.42,.79-.45,3.35-.85,.62-.51,.23-.91,.06-1.02,.34-1.81,.06-1.08-.11-1.02-.23-.96-.4-.74-1.93-1.99-.4-1.76,1.19-3.52-.28-1.59-.74-.62-1.64-1.25-.74-.68-2.61-2.89-2.33-3.69-.68-1.53-.11-.68,.11-1.02-.17-.28-.68-.74-.45-.74-1.25-3.63-.11-.57-.06-.91-.11-.34-2.38-4.88-1.25-1.76-1.36-1.36-1.19-.28,.23-3.74-.45-1.64-1.53-.45-1.42-1.59-1.87-.68-1.93,.23-1.76,1.13-4.37,4.42-.68,.11-1.02-.34-2.89-1.59-1.02-.28-.96,.23-1.81,1.19-.74-.06-1.36,.28-.85,2.16-.34,2.55,.23,1.7-.96,.23-.96-.11-.79-.34-.57-.79-.45-.51-.85-.17-.96,.11-.91,.23-.74,.4-1.3,1.13-.68,.34-.85-.06-2.89-1.02-3.12-.62-1.59-.06-1.47,.4-.4,.23-1.02,1.08-.79,.68-.85,.51-.85,.4-1.81,.68-.79,.4-.74,.51-.68,.57-.34,.23-.85,.06-.4,.11-.4,.17-1.19,.79-1.64,.57-.96,.23-.79,.06-.85-.28-.57-.57-.34-.79-.23-.96,.17-.79,.68-.06,1.64,.34,.96-.06,.96-.23,.51-.51-.4-.79-1.76-1.08h-1.76l-1.87,.4h-2.1l-.45-.06-.34,.17,.34-2.67,.68-2.78,.57-1.42,3.35-5.22,2.1-2.38,4.76-4.14,.57-.85-.34-.51-1.7-.68-.62-.57-.28-.96-.06-.96,5.44-20.87v-1.08l-.23-1.59,.11-.74,.34-.79,1.3-1.59,2.89-2.89,1.08-1.76,.23-.96,.17-1.08,.28-.96,.74-.79,.85-.23,15.03,.11,1.13-.11,.68-.28,.62-.4,.45-.23,.23,.4,.96,.34,4.48,.91,.23,.45,.23,.17,.28,.06,.4-.34,.28-.11,2.1-.06,1.08-.28,1.13-1.19,1.02-.34,2.1-.23,1.93,.45h.74l.51-.11,1.3-.62,1.36-.06,1.19-.4,.91,.11,.57,.23h.57l.79-.4,2.5-1.64,3.4-1.02,1.76-.17,2.67,.68h.91l.74,.28,.96,2.1,.62,.57,.85,.17,1.53,.17,.96,.28,.45,.06,.57-.23,.4-.45,.4-.34,.57,.23-.45,.85-.4,1.53-.28,.68-.62,.51-1.59,.68-.57,.62-.34,.74-.11,.68-.23,.57-.62,.62-1.36,1.08-.45,.62-.34,.96-.34,1.53-.28,.79-.45,.62-.74,.4-.74,.23-.51,.4,.06,.79,.74,1.76,1.02,1.59,2.1,2.04,.57,.74,.4,1.08,.51,3.46,.68,2.5,1.08,2.33,.96,1.19,3.63,2.38,.91,.91,.68,1.13,.45,1.25,.34,1.3,.68,1.76,1.08,1.08,1.36,.51,1.76,.34,1.36,.62,.74,1.25,1.08,6.13,.57,1.47,.79,.91,1.02,.28,.34,.17,.34,.34,.34,.85,.28,.4,.34,.34,.79,.51,.34,.34,.85,1.76,.23,.68,.06,1.3,.17,.68,.51,.62,4.88,2.95,.68,.06,.91-.34,.62-.06,.57,.28,2.89,2.67,3.35,3.12,7.49,6.81,1.47,.91,22.97,7.6,19.96,6.64,13.33,4.42,9.53,3.23,12.65,4.31,9.53,3.23,15.82,5.33,5.56,1.87,2.21,1.13h37.77l-5.5,5.39-7.37,7.15-3.63,3.57-9.19,8.9-3.69,3.57-7.32,7.15-1.87,1.81-7.32,7.09-5.5,5.39-7.32,7.15-4.65,4.71-6.92,7.15-6.86,7.15-12.19,13.33-12.14,13.38-8.11,8.9-2.16,2.33-2.95,3.23-1.13,.45-7.88-.45-9.81-.57-17.92-1.02-1.36,.34-3.29,1.13-11.97,2.78-15.48,7.37-6.01,4.93-.51,.79-.51,1.25-.68,2.67-.57,1.19-1.13,1.3-1.42,.96-1.59,.62-14.18,2.38-4.42,.79-6.13,.06-1.19,.28-1.3,.68-2.16,1.7-2.67,1.64-.68,.57-.23,.74v1.19l-.17,.45-.57,.45-.51,.74-1.81,1.02-1.7-.34-1.64-.85-1.81-.57-1.59,.91-.57,.11-.51-.11-1.02-.4-.57-.06-3.06,.74-.96,.06-1.93,.57-8.05,.45-1.99-.23-1.87-.74-1.64-1.3-2.44-3.4-.96-.91-.62-.4-1.81-.62-.68-.34-.4-.4-.62-1.13-.91-1.08-2.27-1.53-.85-1.13-2.38,1.59-12.02,4.59-.23,.23-.17,.62-.23,.17-6.81,2.38-.68-.11v.4l-.17,.23-1.76,.85-10.1,4.88-.79,.96-1.81,4.76-.62,1.13-.68,.96-5.44,4.99-1.02,1.19-.79,2.5-.62,1.02-1.25,.06-.57-.4-.28-.51-.23-.51-.28-.45-1.19-.34-4.71-.17,.34-.68-.17-.4-.51-.06-1.7,1.02h-1.42l-1.47-.28-3.4-1.59h0Z"/>
  <path id="ETH3135" class="cls-4" d="M551.73,206.08l-.74,.4-1.36,1.19-.62,.57-.62,.34-1.93,.11-.91,.34-1.13,.62-.51,.4-.17,.34,.11,.45,.74,1.19-.17,.91-.91,.85-1.08,.85-.68,.85-2.27-1.13h-1.02l-2.1,.96-.91,.11-.45-.11-1.08-.34-.45,.06-1.19,.23-1.08-.17-1.08-.11-1.19,.57-.23-1.7,.34-2.55,.85-2.16,1.36-.28,.74,.06,1.81-1.19,.96-.23,1.02,.28,2.89,1.59,1.02,.34,.68-.11,4.37-4.42,1.76-1.13,1.93-.23,1.87,.68,1.42,1.59h0Z"/>
  <path id="ETH3136" class="cls-4" d="M548.55,218.96l.57,.85v.34l-.23,1.81-.45,.79-.06,.51,.23,.68,.4,.74,.23,.68-.34,.74-.62,.34-.62-.17-1.02-.91-.51-.17-1.02,.45-.57,.06-.28-.17-.57-.51-.34-.23-.74,.06-.74,.17-.62-.11-.06-.85,.17-1.13,.4-1.08,1.13-1.93,.85-.91,.62,.06,.68,.4,.96,.28,.85-.28,.91-.45,.79-.06h0Z"/>
  <rect id="_0" data-name="0" class="cls-4" x="515.55" y="365.79"/>
  <rect id="_1" data-name="1" class="cls-4" x="445.73" y="371.52"/>
  <rect id="_2" data-name="2" class="cls-4" x="408.58" y="355.7"/>
  <path class="cls-10" d="M200.69,352.53c2.48-29.24-13.06-55.84-37.38-68.87-3.82-2.05-7.87-3.77-12.09-5.1l232.59,62.57-228.27,71.8c24.52-9.57,42.77-32.41,45.15-60.4Z"/>
  <line class="cls-1" x1="344.31" y1="320.85" x2="165.02" y2="141.56"/>
  <circle class="cls-6" cx="345.6" cy="322.15" r="3.75"/>
  <circle class="cls-6" cx="165.02" cy="141.56" r="3.75"/>
</svg>