<svg width="190" height="307" viewBox="0 0 190 307" fill="none" xmlns="http://www.w3.org/2000/svg">
<g opacity="0.65" clip-path="url(#clip0_1087_5604)">
<path d="M186.954 116.955C186.421 117.782 166.646 125.694 165.469 126.283C164.291 126.876 157.639 133.782 156.994 134.433C156.345 135.081 151.167 144.588 150.639 145.473C150.106 146.358 149.931 153.74 149.694 156.396C149.461 159.055 145.165 168.325 143.105 171.218C141.157 173.957 128.612 193.773 126.823 196.517C126.968 196.003 127.106 195.631 127.214 195.481C127.742 194.742 141.752 172.863 143.692 169.886C145.44 167.206 145.336 167.389 145.84 165.598C145.84 165.598 137.161 162.492 136.125 160.625C135.093 158.759 131.58 156.062 128.479 156.062C128.429 156.062 128.379 156.062 128.325 156.066C128.275 156.062 128.221 156.062 128.171 156.062C125.07 156.062 119.905 158.964 117.632 160.208C115.36 161.452 107.506 171.402 106.057 174.099C105.421 175.281 104.384 175.627 103.335 175.64H103.319C102.091 175.577 100.905 175.139 100.372 175.139C100.347 175.139 100.314 175.143 100.28 175.151C99.0399 175.46 93.4751 181.473 90.6573 185.92C89.7125 187.414 89.0507 190.128 88.5637 193.218C87.5606 199.556 87.2859 207.46 86.7323 209.552C85.9041 212.663 71.6444 230.909 70.6122 232.775C69.5758 234.642 69.992 242.825 68.1315 258.792L70.096 263.923C70.8036 267.685 72.3145 274.466 71.4737 277.213C71.3489 277.631 71.0866 278.24 70.737 278.971C70.7953 278.812 70.8494 278.666 70.8869 278.541C71.7235 275.794 69.9587 269.021 69.2553 265.255C68.5477 261.493 65.6342 256.934 65.014 255.957C64.398 254.984 55.1704 252.992 54.1548 252.637C53.1434 252.282 52.4775 250.646 50.7127 248.253C48.9479 245.861 45.2394 239.397 43.9616 234.571C42.6797 229.744 38.7048 222.437 33.8517 218.274C28.9944 214.111 22.6845 213.448 22.1517 212.917C21.6231 212.383 19.7252 196.4 19.3298 194.938C18.9302 193.477 14.6931 188.558 13.4569 186.304C12.2207 184.045 10.456 182.183 10.6308 179.172C10.8097 176.162 9.83579 175.189 9.3072 174.391C8.7786 173.594 0.832968 160.972 0.653994 160.442C0.479181 159.911 1.14097 155.172 1.40735 154.375C1.66957 153.577 1.98173 149.636 2.24395 149.239C2.51033 148.838 2.81833 143.306 3.08472 143.039C3.34693 142.772 4.10029 137.548 4.2751 136.751C4.45408 135.953 11.7795 126.742 12.4871 126.742C13.1947 126.742 15.3549 128.955 17.7398 130.993C20.1247 133.031 23.3463 138.212 24.0081 139.586C24.0081 139.586 31.7747 140.07 34.426 139.849C37.0732 139.628 44.4028 135.82 47.05 134.095C49.6971 132.367 57.8217 124.221 58.9247 121.206C60.0277 118.196 61.3513 115.185 61.9714 113.235C62.5874 111.29 60.2483 104.024 59.9819 102.964C59.7197 101.899 56.4066 99.2437 54.5544 97.6946C52.6981 96.1456 51.3329 92.7343 50.0967 90.3001C48.8605 87.8617 48.9937 85.1185 49.0811 83.3482C49.1685 81.5737 51.1539 77.8994 52.3484 75.5069C53.5388 73.1186 54.775 68.246 56.186 63.9496C57.6011 59.6573 60.9975 55.2732 61.5303 54.0332C62.0588 52.7931 68.9431 48.0541 69.6507 47.5656C70.3583 47.0812 78.7451 46.9476 80.5099 46.9017C82.2746 46.8599 88.2807 44.2462 89.4711 43.7159C90.6615 43.1814 98.7403 39.0646 100.638 38.1335C102.536 37.2065 106.112 34.3715 108.317 32.7765C110.528 31.1815 111.939 26.2212 112.118 25.8246C112.292 25.4279 113.812 13.0272 113.637 11.8288L114.944 0.634766C114.944 0.634766 122.523 0.772552 122.935 0.843532C123.351 0.910338 124.796 3.8122 126.107 4.57211C127.414 5.33202 130.789 5.19423 133.062 4.5053C135.338 3.8122 138.369 3.39884 139.471 4.22973C140.57 5.05645 149.115 6.57627 151.525 6.64725C153.935 6.71406 154.626 5.33202 157.036 5.33202C159.446 5.33202 163.65 6.43848 164.961 7.26938C166.268 8.10027 166.338 12.7265 167.716 13.833C169.094 14.9395 168.611 18.2589 168.611 19.2234C168.611 20.1879 166.338 24.6847 166.338 25.3068C166.338 25.929 165.718 29.9373 165.444 31.4571C165.165 32.9769 169.714 37.8161 171.3 37.4696C172.881 37.123 175.708 32.9101 181.11 26.7974C181.485 26.3757 181.023 30.1628 180.935 32.3799C180.844 34.5928 181.127 47.7284 181.539 53.3066C181.951 58.8891 182.538 61.34 182.833 62.1041C183.125 62.8723 182.862 66.0331 182.479 68.0122C182.097 69.9871 183.757 73.7825 184.511 75.6405C185.26 77.5027 186.583 82.8137 186.583 84.7177C186.583 86.6217 189.189 104.676 189.364 106.446C189.543 108.216 187.482 116.129 186.954 116.955Z" fill="#DCE2E2" stroke="white" stroke-width="3" stroke-miterlimit="10"/>
<path d="M167.282 263.143C166.616 265.577 161.742 271.022 160.672 271.945C159.436 273.005 149.551 272.475 147.607 273.185C145.664 273.891 134.009 287.886 131.891 289.657C129.772 291.427 121.298 294.262 118.297 294.617C115.296 294.972 101.345 291.072 101.345 291.072C101.345 291.072 92.1627 295.327 85.6323 302.942C85.6323 302.942 78.1694 306.22 77.7283 306.35C77.2871 306.483 68.6796 305.995 68.2842 305.819C67.8847 305.644 64.0471 301.039 63.8681 300.684C63.6933 300.329 64.0013 292.404 64.0013 292.404C64.0013 292.404 64.2136 292.049 64.5757 291.444C66.1116 288.847 70.2987 281.682 71.3518 278.98C71.3518 278.98 71.3532 278.977 71.3559 278.972C71.7056 278.241 71.9678 277.632 72.0926 277.214C72.9334 274.467 71.4225 267.686 70.715 263.924L68.7504 258.792C70.6109 242.826 70.1947 234.642 71.2311 232.776C72.2633 230.91 86.523 212.663 87.3512 209.553C87.9048 207.461 88.1795 199.557 89.1826 193.219C89.6696 190.129 90.3314 187.415 91.2762 185.92C94.094 181.474 99.6589 175.461 100.899 175.152C100.932 175.144 100.966 175.14 100.991 175.14C101.524 175.14 102.71 175.578 103.938 175.641H103.954C105.003 175.628 106.039 175.282 106.676 174.1C108.125 171.403 115.979 161.453 118.251 160.209C120.524 158.964 125.689 156.062 128.79 156.062C128.84 156.062 128.894 156.063 128.944 156.067C128.998 156.063 129.048 156.062 129.098 156.062C132.199 156.062 135.712 158.76 136.744 160.626C137.78 162.493 146.459 165.599 146.459 165.599C145.955 167.39 146.059 167.206 144.311 169.887C142.371 172.864 128.361 194.743 127.833 195.482C127.725 195.632 127.587 196.004 127.442 196.517C127.337 196.672 127.271 196.772 127.242 196.814C126.759 197.482 125.789 202.413 125.177 204.985C125.115 205.24 125.061 205.469 125.007 205.67C124.42 207.912 107.525 217.507 106.439 218.421C106.102 218.705 105.607 219.599 105.074 220.734C105.074 220.747 105.066 220.759 105.057 220.772C103.875 223.319 102.518 227.064 102.319 228.016C102.069 229.185 105.948 234.584 108.071 236.292C108.462 236.609 108.795 236.801 109.028 236.813C110.526 236.901 118.826 231.707 119.417 231.795C119.587 231.82 120.058 231.978 120.682 232.196C122.172 232.717 124.532 233.59 125.789 233.862C127.866 234.308 131.187 244.667 131.187 244.667H137.427C137.427 244.667 147.782 249.035 154.142 250.333C160.498 251.632 166.325 260.726 167.265 262.262C167.39 262.467 167.386 262.772 167.282 263.143Z" fill="#97C2C4" stroke="white" stroke-width="3" stroke-miterlimit="10"/>
<path d="M128.324 156.066C131.388 156.15 134.801 158.785 135.816 160.622C136.853 162.488 145.531 165.599 145.531 165.599" stroke="white" stroke-width="3" stroke-miterlimit="10"/>
<path d="M103.319 175.64C102.136 175.648 100.934 175.243 100.28 175.151C100.201 175.139 100.126 175.135 100.064 175.135C99.0315 175.135 93.2419 181.356 90.3491 185.915C87.4564 190.479 87.2483 206.441 86.4242 209.552C85.5959 212.663 71.3362 230.905 70.304 232.771C69.2676 234.637 69.4757 243.969 67.6152 259.932" stroke="white" stroke-width="3" stroke-miterlimit="10"/>
<path d="M11.1914 174.516C13.464 173.481 15.9446 172.237 18.4253 173.685C20.906 175.134 29.1721 176.796 32.2729 174.308C35.3738 171.819 45.5004 158.137 47.3609 157.306C49.2214 156.475 54.3867 155.853 57.6956 160.003C61.0045 164.153 67.202 168.504 69.0626 168.504C70.9231 168.504 76.5046 168.504 78.7771 165.807C81.0497 163.109 83.1183 161.247 85.8029 161.038C88.4875 160.83 91.3844 162.074 92.8287 165.807C94.273 169.539 99.0303 174.516 99.0303 174.516L100.063 175.139" stroke="white" stroke-width="3" stroke-miterlimit="10"/>
<path d="M67.4062 49.9121C69.8869 53.2273 70.095 59.0352 71.7474 60.0707C73.3998 61.1062 79.6015 68.1583 80.6337 71.4735C81.6659 74.7888 85.1788 85.987 85.3869 90.5465C85.595 95.106 87.4555 99.6696 89.1079 100.496C90.7603 101.323 94.6894 101.741 96.7539 98.8387C98.8183 95.9368 103.576 89.0935 103.576 89.0935C103.576 89.0935 109.569 100.496 111.43 101.118C113.29 101.741 117.423 105.265 119.492 104.851C121.561 104.438 125.898 107.753 126.314 111.072C126.73 114.392 119.908 120.196 116.187 120.196C112.466 120.196 112.882 126.692 115.359 128.763C117.835 130.834 124.041 134.985 124.865 141.481C125.689 147.978 125.831 153.231 128.17 156.062" stroke="white" stroke-width="3" stroke-miterlimit="10"/>
<path d="M110.398 30.6309C113.703 33.1194 119.493 38.7853 120.317 41.136C121.141 43.4867 122.798 52.1923 123.901 54.8186C125.004 57.4449 128.171 70.9897 129.411 72.7851C130.652 74.5805 129.961 78.1754 129.686 82.046C129.411 85.9165 125.416 92.1377 124.587 93.3778C123.759 94.6179 121.969 101.394 121.832 102.777C121.695 104.159 121.557 105.265 121.557 105.265" stroke="white" stroke-width="3" stroke-miterlimit="10"/>
<path d="M165.785 25.377C163.167 28.0032 162.064 28.4166 162.064 29.3853C162.064 30.354 158.897 36.4332 157.656 37.2641C156.416 38.095 152.283 40.4416 151.733 41.1347C151.184 41.8278 148.703 49.0135 148.566 49.5647C148.429 50.1158 142.643 55.6481 140.849 57.3058C139.055 58.9634 136.163 63.6648 136.716 64.3537C137.27 65.0427 140.849 74.028 141.124 75.9653C141.399 77.9027 142.639 84.9507 141.815 86.3327C140.991 87.7147 136.579 84.5373 134.373 84.6751C132.167 84.8129 127.896 87.5769 127.896 87.5769" stroke="white" stroke-width="3" stroke-miterlimit="10"/>
<path d="M70.7148 239.823C72.1633 242.933 75.056 246.562 75.6762 248.115C76.2964 249.668 78.2609 250.708 79.085 248.324C79.9091 245.939 80.5335 245.731 80.5335 245.731C80.5335 245.731 84.0464 248.01 85.5989 248.632C87.1514 249.255 88.3875 251.33 89.3199 251.225C90.2522 251.121 91.6965 250.708 93.0409 246.144C94.3852 241.58 95.2094 241.063 96.6578 240.027C98.1062 238.992 101.823 237.021 105.028 236.712C108.233 236.403 109.885 235.363 109.885 235.363" stroke="white" stroke-width="3" stroke-miterlimit="10"/>
<path d="M110.295 214.529C108.951 213.18 104.713 209.761 104.609 207.79C104.505 205.819 105.23 203.644 106.882 203.331C108.534 203.018 110.087 204.988 112.255 204.784C114.424 204.579 117.009 203.853 118.249 204.575C119.489 205.297 123.518 205.506 123.518 205.506H124.138" stroke="white" stroke-width="3" stroke-miterlimit="10"/>
<path d="M114.119 164.354C114.739 167.773 115.36 168.291 114.427 169.535C113.495 170.779 112.259 171.919 111.535 171.815C110.81 171.71 110.606 173.368 109.778 174.303C108.95 175.239 108.538 180.625 108.434 181.456C108.33 182.287 104.817 184.462 103.576 184.98C102.336 185.497 100.372 186.637 99.7514 187.882C99.1313 189.126 98.099 190.474 96.6506 190.266C95.2022 190.057 93.5498 190.161 92.2054 190.783C90.861 191.406 88.4844 193.272 88.4844 193.272" stroke="white" stroke-width="3" stroke-miterlimit="10"/>
<path d="M121.402 231.088C118.614 233.472 112.982 237.334 113.911 241.998C114.839 246.662 114.635 253.714 115.459 254.541C116.283 255.367 111.634 256.82 108.537 257.029C105.44 257.238 102.44 255.785 102.132 254.332C101.824 252.879 100.271 249.977 101.824 249.046C103.376 248.115 102.444 242.929 100.583 241.685C98.7227 240.441 97.0703 239.923 97.0703 239.923" stroke="white" stroke-width="3" stroke-miterlimit="10"/>
<path d="M142.043 277.142C137.289 273.205 136.644 271.338 133.335 271.543C130.026 271.748 127.962 271.752 126.93 270.712C125.897 269.672 125.689 270.712 124.449 269.468C123.209 268.224 120.316 265.944 118.247 264.286C116.179 262.629 113.494 262.211 113.494 260.762C113.494 259.313 115.459 254.541 115.459 254.541" stroke="white" stroke-width="3" stroke-miterlimit="10"/>
<path d="M116.596 235.121C121.969 235.397 126.377 241.205 126.93 243.689C127.484 246.173 130.514 252.257 132.166 253.781C133.819 255.305 136.437 254.887 136.853 256.82C137.269 258.754 135.201 262.486 134.372 263.042C133.544 263.597 133.682 266.499 132.72 268.294C131.759 270.09 129.827 271.751 129.827 271.751" stroke="white" stroke-width="3" stroke-miterlimit="10"/>
</g>
<defs>
<clipPath id="clip0_1087_5604">
<rect width="190" height="307" fill="white"/>
</clipPath>
</defs>
</svg>
