<svg width="369" height="281" viewBox="0 0 369 281" fill="none" xmlns="http://www.w3.org/2000/svg">
<g opacity="0.65" clip-path="url(#clip0_1081_5476)">
<path d="M119.97 138.245C119.551 137.76 112.312 137.85 111.152 138.103C109.993 138.357 100.196 142.918 97.5031 144.259C94.8107 145.601 90.772 145.251 85.2674 140.697C79.7629 136.143 74.4902 129.279 70.7432 129.651C69.6587 129.897 67.4001 131.254 66.2259 132.521C65.0516 133.788 65.5153 136.59 65.979 137.119C66.4427 137.649 66.9364 141.718 67.3402 142.545C67.7441 143.372 70.3393 149.022 71.8576 150.073C73.3758 151.124 76.7488 152.629 76.8087 153.218C76.8685 153.807 75.2605 155.253 74.4902 156.057C73.7198 156.862 71.147 157.354 71.9249 161.766C72.2016 163.428 73.0692 164.42 73.5329 165.038C73.9966 165.657 74.6173 169.54 72.1418 170.002C69.6662 170.464 69.0754 170.218 69.0454 171.917C69.0155 173.617 69.3222 176.113 68.5518 176.762C67.7815 177.41 65.8594 179.721 64.745 179.847C63.6306 179.974 62.0226 178.953 60.7811 179.475C59.5396 179.996 55.8599 183.544 54.0949 185.951C53.4741 186.57 49.6075 184.163 48.2762 184.036C46.9449 183.909 44.8433 185.236 43.9458 185.609C43.0484 185.981 42.278 185.117 42.6744 184.222C43.0708 183.328 44.2525 181.942 43.6018 181.047C42.9511 180.153 36.392 180.585 35.2477 180.615C34.1035 180.645 31.8149 178.826 25.4054 178.58C23.8871 178.64 20.701 173.863 18.8463 173.736C16.9915 173.609 15.0693 173.646 10.7988 175.338C9.37781 175.957 5.54107 174.995 4.3893 170.896C3.23753 166.797 0.709621 161.401 1.17332 161.148L1.63702 160.902C4.48653 159.791 6.46847 156.087 7.82965 155.23C9.19083 154.373 12.4068 152.637 14.0223 150.915C15.6377 149.193 14.8898 142.649 15.0095 142.158C15.1292 141.666 14.8824 138.58 14.5159 138.088C14.1494 137.596 11.3448 136.173 11.3897 135.994C11.4345 135.815 11.6813 135.36 12.863 136.15C14.0447 136.94 15.8995 137.813 17.1186 137.768C18.3377 137.723 19.5194 138.893 20.4019 136.255C21.2844 133.616 22.3539 132.044 22.9074 131.075C23.4608 130.106 24.3433 128.437 23.7899 125.619C23.2364 122.802 21.0077 115.394 22.7653 114.842C22.7653 114.842 26.617 114.425 26.8488 115.677C27.0807 116.929 27.0807 119.009 28.382 119.471C29.6834 119.933 30.9324 120.261 32.5104 120.209C34.0885 120.156 36.6388 119.515 37.2446 118.494C37.8504 117.473 41.0066 114.425 41.1412 113.918C41.2758 113.411 46.6682 113.367 47.1319 113.732C47.5956 114.097 51.5894 111.511 53.4891 109.059C55.3887 106.607 57.2959 103.506 58.2682 103.551C59.2404 103.596 60.8709 103.551 61.1476 102.858C61.4243 102.165 63.2866 100.085 63.7952 100.033C64.3037 99.9811 63.5184 97.626 62.9575 96.9329C62.3966 96.2397 58.687 93.1393 54.2295 92.9083C49.772 92.6772 49.0765 92.2151 49.0765 92.2151C49.0765 92.2151 48.8895 89.8078 47.0796 89.6215C45.2696 89.4352 42.809 88.6526 42.1584 89.2488C41.5077 89.8451 41.5077 91.2835 40.0717 90.9109C38.6357 90.5382 39.0994 88.9209 39.3762 88.0415C39.6529 87.162 45.4566 82.1238 45.4566 82.1238C45.4566 82.1238 45.4566 78.7476 45.5987 78.5613C45.7408 78.3749 46.8028 77.7265 46.9449 77.5402C47.087 77.3539 47.0347 74.3503 47.3189 73.6572C47.3189 73.6572 52.0531 66.3458 50.662 60.7933C51.2155 60.607 51.6866 54.0409 54.8428 52.5578C57.9989 51.0746 61.2523 47.84 60.8784 45.9917C60.5044 44.1434 59.2105 41.274 59.3003 39.515C59.39 37.7561 58.5599 33.9626 57.5352 32.7626C56.5106 31.5627 55.8674 29.4312 55.5832 28.5964C55.299 27.7617 54.1921 23.6029 54.1921 23.1408C54.1921 22.6787 53.8182 20.4578 53.7284 18.1473C53.6387 15.8369 54.1921 12.2297 55.2167 10.5602C56.2414 8.89072 59.764 4.73195 64.2215 4.17298C68.679 3.614 72.6728 2.78672 74.3406 1.86255C76.0084 0.938382 79.8152 2.41407 81.6775 2.97305C83.5398 3.53202 86.2248 4.08354 87.5261 3.43513C88.8275 2.78672 89.7549 1.40047 91.2432 2.13831C92.7315 2.87616 94.0254 3.39041 95.9325 3.43513C97.8397 3.47985 98.7671 4.54563 100.203 5.23876C101.639 5.93188 105.446 2.64512 106.007 2.13831C106.568 1.63151 109.021 0.0589291 112.925 2.64512C116.829 5.2313 120.628 8.61496 122.393 9.44224C124.158 10.2695 130.426 13.5563 132.655 15.4568C134.883 17.3573 137.852 21.3745 138.458 22.2539C139.064 23.1334 143.566 26.5543 144.03 27.2474C144.494 27.9406 147.605 32.0099 149.647 34.0967C151.689 36.1836 152.526 37.8903 153.641 38.9114C154.755 39.9324 159.908 39.9771 160.925 40.0219C161.942 40.0666 167.701 40.7597 169.377 39.8802C171.052 39.0008 176.616 35.1625 177.364 34.9762C178.112 34.7899 181.403 33.3142 182.33 33.5452C183.258 33.7762 186.324 32.9937 186.459 32.5241C186.593 32.0546 186.503 29.6995 185.157 29.0511C183.811 28.4026 182.091 27.2027 180.976 25.7643C179.862 24.3259 177.312 18.4082 176.287 17.3946C175.263 16.381 174.754 13.9737 175.263 13.3252C175.771 12.6768 177.768 10.1801 178.464 9.44224C179.159 8.7044 179.997 6.29708 179.9 2.96559C179.9 1.76566 180.176 1.11725 180.827 1.16197C181.478 1.20669 182.592 0.789322 184.589 1.89982C186.586 3.01031 190.206 5.18658 192.943 5.78282C195.68 6.37906 203.017 9.25592 203.713 9.80744C204.408 10.359 209.285 14.9425 210.354 15.9114C211.424 16.8803 215.552 20.8155 216.711 22.0676C217.871 23.3197 219.68 27.5754 220.144 28.4548C220.608 29.3343 220.466 32.0173 221.303 32.8968C222.141 33.7762 225.11 34.4247 225.252 35.9003C225.394 37.376 224.048 38.7697 224.325 39.9697C224.602 41.1696 225.716 43.6216 225.948 43.9049C226.18 44.1881 226.18 44.9706 226.688 45.5222C227.197 46.0737 230.405 48.5257 230.869 49.4052C231.011 49.912 230.914 50.9777 231.288 51.4398C231.662 51.9019 233.143 52.6398 233.143 53.0124C233.143 53.3851 233.419 54.0782 233.562 54.4434C233.704 54.8086 233.24 54.9949 233.24 55.3228C233.24 55.6508 234.212 57.1712 234.863 57.9165C235.514 58.6618 238.715 60.8306 239.365 61.3374C240.016 61.8442 240.248 63.3721 241.175 64.2515C242.103 65.131 242.895 64.0205 243.957 65.0415C245.019 66.0626 247.951 68.6488 248.736 68.8798C249.522 69.1109 251.384 68.7904 252.08 68.8351C252.775 68.8798 253.104 69.6251 252.917 70.2661C252.73 70.907 252.498 71.1902 251.945 71.2871C251.391 71.384 251.062 73.6945 251.107 74.1118C251.152 74.5292 251.152 77.3017 251.713 79.2022C252.274 81.1027 251.945 81.6095 252.222 82.0269C252.498 82.4443 253.987 82.6306 253.987 82.9063C253.987 83.1821 253.665 83.8305 253.014 84.3895C252.738 85.4106 253.942 86.8415 254.548 88.1383C255.153 89.4352 262.902 96.2323 265.228 97.9912C267.554 99.7501 268.945 100.719 271.405 100.764C273.866 100.808 275.766 100.443 279.572 98.2222C283.379 96.0012 288.158 94.1529 291.778 94.7044C295.398 95.256 300.319 97.2459 302.406 100.346C304.493 103.447 305.009 103.678 303.057 108.12C301.105 112.562 297.53 120.514 299.624 123.48C301.718 126.447 302.944 128.429 304.276 128.705C305.607 128.981 310.857 128.891 314.522 127.684C318.187 126.477 322.278 124.449 327.476 124.859C332.673 125.269 338.335 125.97 342.426 129.905C346.51 133.84 348.32 135.964 350.361 137.581C352.403 139.199 352.313 139.847 353.375 139.989C354.437 140.13 357.968 140.033 358.805 140.175C359.643 140.317 360.57 140.361 362.567 139.989C364.564 139.616 367.578 138.275 367.862 138.558C368.146 138.841 365.028 144.945 364.287 146.056C363.547 147.166 356.21 160.306 355.283 164.099C354.355 167.893 350.593 182.277 349.666 190.006C348.088 197.503 346.465 206.015 346.181 206.894C345.896 207.774 342.935 213.512 342.98 214.988C343.024 216.464 343.443 225.072 342.606 229.559C341.768 234.045 340.564 240.291 340.1 242.05C340.1 244.591 340.19 266.153 339.958 266.749C339.726 267.345 334.296 276.513 333.317 277.526C332.337 278.54 330.205 279.375 329.742 279.702C329.278 280.03 325.748 279.978 324.267 279.24C322.786 278.503 321.343 277.578 321.156 277.578C320.969 277.578 316.048 277.623 315.816 277.303C315.584 276.982 312.57 275.268 309.825 274.992C307.08 274.716 303.745 273.561 300.955 273.375C298.165 273.189 293.341 273.926 290.739 274.947C288.136 275.969 284.381 275.32 282.661 274.299C280.941 273.278 274.262 269.484 273.657 268.329C273.051 267.174 270.777 258.201 267.202 256.345C263.627 254.489 258.893 253.386 252.768 255.555C251.421 256.203 241.444 255.093 237.122 251.717C232.799 248.34 222.081 237.511 221.109 235.708C220.137 233.904 218.327 231.407 218.043 230.252C217.758 229.097 215.537 229.7 214.325 230.066C213.114 230.431 209.449 229.693 207.871 228.813C206.293 227.934 203.279 227.241 200.587 224.513C197.894 221.785 197.012 219.423 195.112 218.774C193.212 218.126 190.841 217.291 189.218 217.522C187.595 217.753 185.412 218.908 183.789 220.25C182.166 221.592 179.608 224.55 179.331 224.275C179.054 223.999 178.404 222.613 177.895 222.471C177.387 222.329 176.826 222.329 175.808 220.854C174.791 219.378 170.857 216.225 170.08 215.704C169.302 215.182 169.122 215.301 168.591 215.793C168.06 216.285 166.609 216.225 166.392 215.666C166.176 215.107 166.482 212.678 166.392 212.432C166.303 212.186 163.393 211.567 163.236 209.257C163.079 206.946 163.266 204.383 163.019 203.585C162.773 202.788 160.761 200.962 160.11 199.389C159.459 197.817 156.864 195.133 155.069 194.828C153.274 194.522 150.275 194.15 149.595 193.009C148.914 191.869 149.467 191.377 148.173 189.342C146.88 187.308 144.307 185.303 142.946 184.498C141.584 183.693 136.97 179.683 135.519 177.619C134.068 175.554 132.086 172.558 132.116 170.65C132.146 168.742 133.447 167.416 134.038 166.827C134.629 166.238 137.875 163.093 137.755 159.888C137.636 156.683 134.629 149.834 133.051 147.673C131.473 145.511 130.358 144.066 129.551 143.171C128.743 142.277 127.479 142.769 125.931 142.307C124.383 141.845 120.576 139.624 120.329 139.102C120.082 138.58 119.97 138.26 119.97 138.26V138.245Z" fill="#97C2C4" stroke="white" stroke-width="3" stroke-miterlimit="10"/>
<path d="M48.8984 113.039C49.3621 116.557 50.8505 124.815 52.4285 127.036C54.0066 129.257 60.0422 133.788 62.2709 134.161C64.4997 134.533 65.5168 134.548 65.5168 134.548" stroke="white" stroke-width="3" stroke-miterlimit="10"/>
<path d="M63.8027 98.9979C65.0592 98.9532 66.8691 99.7358 67.9312 100.384C68.9932 101.033 73.2712 102.65 73.8246 102.791C74.3781 102.933 76.1431 103.813 76.4273 104.826C76.7115 105.84 79.1646 109.73 80.0023 109.917C80.8399 110.103 85.4321 110.148 86.4567 110.237C87.4813 110.326 89.9868 110.095 90.7721 109.82C91.5574 109.544 94.018 109.775 95.5063 110.513C96.9946 111.251 98.0118 111.623 98.7522 112.458C99.4926 113.293 101.766 115.052 101.721 115.462C101.677 115.871 104.272 115.551 104.967 116.617C105.663 117.683 106.919 119.851 107.151 120.321C107.383 120.79 108.453 122.915 108.587 124.487C108.722 126.06 109.515 130.271 110.023 130.688C110.532 131.105 111.878 131.567 112.439 132.864C113 134.161 113.366 134.526 113.74 134.623C114.114 134.72 117.225 134.534 118.011 135.592C118.796 136.65 118.983 138.044 118.983 138.044" stroke="white" stroke-width="3" stroke-miterlimit="10"/>
<path d="M47.1328 76.0508C48.5239 77.4818 50.9396 78.0854 51.8222 78.4134C52.7047 78.7413 58.3663 78.7339 58.83 79.3823C59.2937 80.0307 59.7125 80.6344 60.1762 80.7238C60.6399 80.8132 62.031 79.7027 62.7266 79.7996C63.4221 79.8965 65.0451 81.3722 66.2118 81.3722C67.3785 81.3722 69.51 79.6133 70.946 79.5686C72.382 79.5239 73.4964 81.648 74.1022 81.9759C74.708 82.3038 77.4902 82.6243 78.3727 82.5796C79.2552 82.5349 81.2072 82.1175 81.8579 83.4143C82.5086 84.7112 83.5781 85.1732 84.2736 85.1732C84.9692 85.1732 86.5024 86.5148 86.9661 87.3048C87.4298 88.0948 88.776 88.6463 89.5688 88.3259C90.3616 88.0054 92.4931 87.1706 93.5177 88.3706C94.5423 89.5705 96.9057 91.8884 97.4666 92.2089C98.0276 92.5293 101.692 94.6609 102.53 95.7714C103.368 96.8819 104.848 96.4645 105.873 96.4645C106.898 96.4645 109.261 96.2782 109.77 96.8819C110.278 97.4856 111.348 99.6097 111.811 100.213C112.275 100.817 114.362 103.403 114.04 103.962C113.719 104.521 113.113 104.797 112.694 104.983C112.275 105.17 111.58 105.401 111.49 105.863C111.4 106.325 110.794 108.501 110.375 109.336C109.957 110.171 109.635 110.864 108.939 110.864C108.244 110.864 107.13 110.774 106.621 111.415C106.112 112.056 103.652 115.947 103.652 115.947" stroke="white" stroke-width="3" stroke-miterlimit="10"/>
<path d="M51.1562 59.4891C55.1201 59.9214 57.7154 60.3537 59.0167 59.4295C60.3181 58.5054 63.0404 56.2247 64.0276 56.1577C65.0149 56.0906 69.9062 56.5303 72.7557 54.9205C75.6052 53.3106 76.899 51.343 76.5924 49.7406C76.2858 48.1382 76.6522 46.2899 77.8938 45.7906C79.1353 45.2912 81.6707 46.9607 82.9047 47.147C84.1387 47.3333 85.1334 48.2575 85.6869 46.8414C86.2403 45.4254 85.47 43.2044 85.0287 42.7646C84.5875 42.3249 84.939 41.1921 87.3996 41.0057C89.8602 40.8194 92.8294 41.2591 93.6894 41.3784C94.5495 41.4976 95.1553 40.4989 94.7814 38.1661C94.4074 35.8334 93.854 34.0968 91.7374 32.3156C89.6209 30.5343 84.7969 24.9371 83.4058 24.3334C82.0147 23.7297 78.5519 20.9572 77.6694 20.7932C76.7869 20.6293 75.1639 20.5845 74.5581 21.233C73.9523 21.8814 74.0944 24.1694 74.0944 24.8178C74.0944 25.4663 74.1617 27.9854 73.885 28.4922C73.6083 28.999 72.5612 30.7132 72.1648 30.8995C71.7684 31.0858 67.5428 31.2721 67.1988 30.8324C66.8547 30.3927 66.8024 27.4786 66.7575 26.5991C66.7126 25.7197 66.8772 23.3869 67.453 22.4552C68.0289 21.5236 68.7095 19.7051 68.2458 19.243C67.7821 18.7809 67.0866 17.8568 66.1068 18.1996C65.1271 18.5424 60.9538 20.3311 60.7444 20.4206C60.5349 20.51 58.007 21.3895 57.3788 21.4416C56.7506 21.4938 54.0132 21.6503 54.0132 21.6503" stroke="white" stroke-width="3" stroke-miterlimit="10"/>
<path d="M122.925 9.65234C122.461 10.025 121.347 10.3604 120.726 10.5169C120.105 10.6734 118.161 13.4459 118.034 13.6919C117.907 13.9378 117.66 14.7129 117.787 15.1079C117.914 15.5029 116.889 16.2184 116.702 16.5538C116.515 16.8892 115.895 18.5885 115.745 19.1475C115.596 19.7064 115.371 21.279 113.95 21.2417C112.529 21.2045 111.415 22.5982 111.101 23.2764C110.787 23.9546 108.902 21.5771 108.221 21.115C107.541 20.653 104.758 19.5723 101.505 19.5126C98.2517 19.453 97.7282 19.4828 97.6983 19.8555C97.6683 20.2281 97.0476 21.8752 97.4215 21.987C98.506 22.2926 99.5605 22.3597 98.9996 23.0379C98.4387 23.7161 97.5113 25.0129 96.5839 25.3781C95.6565 25.7433 95.9033 26.3023 96.6138 27.1072C97.3243 27.9122 97.8179 28.8363 97.2046 29.917C96.5914 30.9977 96.0903 32.4138 95.133 33.092C94.1756 33.7702 93.4277 34.113 93.4277 34.113" stroke="white" stroke-width="3" stroke-miterlimit="10"/>
<path d="M94.2285 35.781C95.2232 36.5412 97.0406 37.607 97.1528 39.1572C97.265 40.7075 97.8708 42.9955 98.2448 43.9942C98.6187 44.9929 100.795 47.3704 100.563 50.1728C100.331 52.9751 102.164 54.8234 102.515 55.2408C102.867 55.6582 104.28 57.022 104.28 58.1102C104.28 59.1983 107.504 61.5833 107.788 61.7174C108.072 61.8516 109.718 63.6105 109.852 65.2576C109.987 66.9047 113.36 69.7219 113.659 70.7654C113.958 71.8088 114.242 74.395 114.422 75.6918C114.601 76.9886 116.022 79.2096 117.234 79.3437C118.446 79.4779 123.733 79.4854 124.384 79.068C125.035 78.6506 127.54 74.0223 127.308 71.8088C127.076 69.5952 126.889 65.3768 127.45 64.0353C128.011 62.6938 130.001 58.5797 130.001 57.0071C130.001 55.4346 129.627 51.4099 129.395 50.2995C129.163 49.189 129.305 48.4958 130.135 48.4511C130.965 48.4064 132.768 46.1258 133.262 44.6724C133.755 43.2191 136.328 41.3111 138.026 40.6031C139.723 39.8951 140.778 37.8902 140.718 35.9748C140.658 34.0594 140.688 33.3812 141.369 33.165C142.049 32.9489 143.44 32.3005 143.785 31.7192C144.129 31.1378 145.303 29.4982 145.393 29.0957" stroke="white" stroke-width="3" stroke-miterlimit="10"/>
<path d="M108.408 96.344C108.004 93.2286 107.166 90.0239 108.064 88.7867C108.961 87.5495 109.365 86.5359 109.268 84.7471C109.171 82.9584 108.714 81.2293 109.178 80.5213C109.642 79.8133 111.003 78.427 111.811 78.9487C112.618 79.4704 114.75 81.1101 115.528 80.9238C116.306 80.7374 117.106 80.5511 117.233 79.3363" stroke="white" stroke-width="3" stroke-miterlimit="10"/>
<path d="M123.95 79.166C123.823 80.1498 124.167 80.8653 125.469 80.8951C126.77 80.9249 132.895 80.8653 133.793 80.7684C134.69 80.6715 142.057 80.2765 143.291 80.8951C144.525 81.5137 148.182 83.5782 149.08 86.2016C149.977 88.8251 152.296 91.8435 152.049 94.4968C151.802 97.1501 152.139 100.325 156.043 102.546C159.947 104.767 161.338 105.356 164.554 105.229C167.77 105.102 170.343 105.043 171.27 105.751C172.198 106.459 174.516 107.48 176.064 107.45C177.612 107.42 179.991 107.785 180.985 108.777C181.666 109.455 182.623 110.506 185.78 109.731C188.936 108.956 190.79 109.142 191.194 109.455C191.598 109.768 191.688 111.154 193.797 110.722C195.906 110.29 196.549 109.306 196.983 109.12C197.417 108.933 198.905 108.657 199.152 107.853C199.399 107.048 200.356 106.191 201.037 106.34C201.717 106.489 202.742 106.682 203.295 106.526C203.849 106.369 204.873 105.475 205.09 105.043C205.307 104.611 206.975 102.36 207.289 101.771C207.603 101.182 209.331 99.2146 210.041 98.9313C210.752 98.6481 211.53 97.3886 211.926 97.3886C212.323 97.3886 213.168 97.9103 213.228 98.3724C213.287 98.8345 213.998 100.318 214.678 100.504C215.359 100.69 215.883 101.987 216.04 102.814C216.197 103.642 216.967 106.824 217.124 107.532C217.281 108.24 217.52 109.239 219.143 108.702C220.766 108.166 222.442 107.107 223.16 107.085C223.878 107.063 229.592 107.13 230.31 106.25C231.028 105.371 231.536 104.588 231.678 102.829C231.82 101.07 232.232 98.2009 233.324 97.8358C234.416 97.4706 237.527 97.6047 238.409 97.8581C239.292 98.1115 241.588 98.3202 242.448 97.3513C243.308 96.3824 245.627 93.5801 245.933 93.2074C246.24 92.8348 247.324 91.8435 247.579 91.1057C247.833 90.3679 248.992 87.2227 249.643 86.6414C250.294 86.06 251.543 84.7185 252.148 84.6514C252.754 84.5843 252.964 84.4874 252.964 84.4874" stroke="white" stroke-width="3" stroke-miterlimit="10"/>
<path d="M230.406 245.502C232.029 245.458 233.607 244.481 234.632 242.73C235.657 240.978 237.646 238.564 238.484 238.012C239.321 237.461 240.899 235.649 241.131 235.143C241.363 234.636 237.369 233.197 236.255 232.504C235.14 231.811 234.116 231.304 233.884 229.449C233.652 227.593 233.652 222.927 234.393 222.279C235.133 221.63 242.006 212.657 242.515 211.778C243.023 210.898 242.373 207.895 242.193 207.336C242.014 206.777 242.799 204.742 241.916 203.728C241.034 202.715 240.174 202.223 240.084 201.507C239.994 200.792 239.089 200.21 239.366 199.584C239.643 198.958 240.69 196.782 241.64 196.298C242.59 195.813 244.355 194.561 245.005 193.935C245.656 193.309 246.396 191.021 246.561 190.209C246.725 189.396 247.787 186.713 247.817 185.975C247.847 185.237 249.044 182.808 249.582 182.763C250.375 182.696 251.482 183.941 252.275 183.963C253.068 183.985 254.9 182.897 255.573 182.897C256.246 182.897 258.221 183.754 258.797 183.866C259.372 183.978 261.19 184.351 262.394 184.283C263.598 184.216 265.505 184.008 265.67 183.382C265.834 182.756 265.161 180.818 264.675 180.073C264.189 179.327 263.284 176.838 263.419 176.189C263.553 175.541 264.024 173.529 264.698 172.769C265.371 172.008 265.558 168.513 265.692 167.984C265.827 167.455 265.857 165.047 265.46 164.19C265.064 163.333 264.855 162.431 264.929 161.88C265.004 161.328 265.603 160.009 265.647 159.107C265.692 158.205 266.829 154.963 266.874 154.203C266.919 153.443 267.383 152.169 268.938 152.005C270.494 151.841 272.049 151.192 272.491 149.806C272.932 148.42 274.046 147.607 274.577 147.585C275.108 147.563 278.758 151.006 279.147 151.334C279.962 151.475 280.239 150.521 280.561 149.53C280.882 148.539 281.862 145.185 282.767 144.373C283.672 143.56 286.85 140.788 289.663 142.942C289.244 141.347 289.408 137.508 289.939 136.398C290.47 135.287 292.587 133.946 292.721 133.186C292.856 132.426 292.841 129.042 293.626 128.326C294.412 127.611 299.408 123.027 299.408 123.027" stroke="white" stroke-width="3" stroke-miterlimit="10"/>
<path d="M216.854 229.417C215.612 225.967 216.046 223 216.607 221.212C217.168 219.423 220.01 214.795 220.197 213.133C220.384 211.471 223.353 193.516 223.413 192.592C223.473 191.668 225.268 177.478 225.335 174.891C225.402 172.305 227.377 151.698 228.925 149.909C230.473 148.12 223.106 140.779 221.371 135.972C219.636 131.165 217.721 122.959 217.347 121.289C216.973 119.62 217.086 115.625 216.757 114.44C216.428 113.255 215.71 110.967 216.48 110.252C217.25 109.536 217.946 108.746 217.946 108.746" stroke="white" stroke-width="3" stroke-miterlimit="10"/>
<path d="M129.551 143.156C130.186 142.359 131.787 141.226 132.879 141.643C133.971 142.061 135.108 139.311 134.966 138.081C134.823 136.851 135.287 135.607 136.357 135.674C137.426 135.741 142.998 135.629 143.925 135.353C144.853 135.077 146.85 135.122 147.104 136.024C147.358 136.926 147.755 138.126 147.822 138.826C147.889 139.527 148.473 141.673 148.473 142.918C148.473 144.163 148.727 145.482 149.056 145.974C149.385 146.466 150.47 147.434 151.704 147.524C152.938 147.613 156.251 144.722 156.535 142.896C156.819 141.07 156.116 139.892 155.772 139.244C155.428 138.595 154.239 134.459 154.635 132.096C155.189 131.798 158.607 132.186 158.973 132.119C159.34 132.051 160.177 132.625 160.97 132.603C161.763 132.581 162.69 131.172 163.476 131.03C164.261 130.889 166.377 131.381 167.073 131.261C167.769 131.142 169.07 131.56 169.025 132.283C168.98 133.005 169.84 133.482 170.745 133.602C171.65 133.721 172.765 134.041 173.206 134.802C173.647 135.562 174.784 135.122 174.904 134.384C175.023 133.646 174.186 131.999 174.485 131.656C174.784 131.314 176.13 131.358 176.384 130.568C176.639 129.778 177.82 128.601 179.122 128.325C180.423 128.049 180.767 127.908 180.535 126.477C180.303 125.046 182.181 123.399 182.577 122.571C182.973 121.744 183.392 120.932 183.901 120.879C184.409 120.827 185.756 120.581 186.384 119.657C187.012 118.733 187.566 117.093 189.794 117.459C192.023 117.824 194.416 113.918 194.805 113.27C195.194 112.622 195.523 110.08 195.523 110.08" stroke="white" stroke-width="3" stroke-miterlimit="10"/>
<path d="M173.49 37.1465C175.21 38.8085 175.629 39.1812 177.065 39.2259C178.195 39.2631 180.348 39.211 181.411 39.8147C181.702 39.9786 181.912 40.1948 181.986 40.478C182.36 41.7748 183.243 42.8853 183.243 44.5473C183.243 46.2093 183.707 50.3755 183.796 51.8587C183.886 53.3418 186.302 54.4523 185.517 57.4559C184.731 60.4594 184.26 60.0495 184.215 61.8531C184.17 63.6568 184.724 66.1535 184.402 68.2403C184.081 70.3272 183.377 72.265 183.609 73.7928C183.841 75.3207 185.098 79.0695 186.16 80.7763C187.222 82.483 190.52 85.9114 190.385 88.5945C190.251 91.2775 189.922 98.3579 190.43 100.117C190.939 101.876 191.634 104.79 191.545 106.452C191.455 108.114 191.186 109.455 191.186 109.455" stroke="white" stroke-width="3" stroke-miterlimit="10"/>
<path d="M233.622 56.0985C232.695 57.0823 230.87 57.0376 229.778 56.7171C228.686 56.3967 227.385 56.501 226.734 56.1731C226.084 55.8451 223.997 53.177 223.369 52.9906C222.74 52.8043 217.184 52.7372 216.66 52.8118C216.136 52.8863 215.441 52.8416 215.097 53.6018C214.753 54.362 214.446 54.8539 213.332 54.7421C212.217 54.6303 210.408 53.1695 208.672 53.0577C206.937 52.9459 205.935 53.5347 205.658 53.5496C205.382 53.5645 204.185 53.4453 203.632 52.8267C203.078 52.2081 201.201 52.0739 200.812 52.0739C200.423 52.0739 199.264 52.3646 198.613 51.7833C197.962 51.2019 196.063 50.9038 195.644 50.1958C195.225 49.4877 193.789 47.155 192.488 46.201C191.186 45.247 189.302 43.5477 188.232 43.1452C187.163 42.7428 184.47 41.9304 183.977 41.5279C183.483 41.1255 181.92 40.4473 181.92 40.4473" stroke="white" stroke-width="3" stroke-miterlimit="10"/>
</g>
<defs>
<clipPath id="clip0_1081_5476">
<rect width="369" height="281" fill="white"/>
</clipPath>
</defs>
</svg>
