<svg width="334" height="315" viewBox="0 0 334 315" fill="none" xmlns="http://www.w3.org/2000/svg">
<path opacity="0.65" d="M332.056 133.218C331.956 134.006 331.514 142.296 329.452 143.985C327.391 145.675 327.833 149.408 328.027 151.15C328.227 152.893 328.469 168.294 328.522 170.302C328.575 172.309 323.321 173.187 321.307 170.343C319.298 167.499 316.448 161.471 313.856 160.346C311.253 159.216 306.394 161.765 304.038 161.912C301.682 162.054 298.295 161.418 297.365 161.318C296.434 161.224 293.436 161.812 292.847 163.237C292.258 164.656 288.777 166.669 288.819 169.807C288.872 172.945 289.16 174.17 290.244 175.989C291.328 177.802 295.498 182.854 296.228 183.831C296.964 184.814 297.848 186.774 296.187 189.324C294.52 191.873 290.438 201.658 290.662 205.891C290.886 210.118 291.104 223.688 291.763 227.774C292.429 231.86 293.159 237.712 293.825 239.107C294.485 240.502 298.719 245.465 298.389 248.232C298.054 250.987 293.307 263.121 292.906 265.035C292.5 266.948 290.768 277.763 290.103 280.118C289.443 282.473 287.929 286.041 282.781 288.178C277.628 290.303 274.724 289.973 273.476 290.933C272.221 291.887 269.147 292.528 268.634 293.017C267.945 293.712 267.633 294.035 267.633 294.035H265.943C265.878 294.13 265.801 294.242 265.707 294.371C265.083 295.26 245.811 309.307 241.364 311.798C236.923 314.288 229.184 312.598 224.731 311.091C220.279 309.578 209.96 312.869 207.645 313.134C207.557 311.886 207.916 308.96 207.645 306.729C207.392 304.65 198.557 296.873 195.842 294H189.569C189.139 294.3 187.714 295.295 186.088 296.255C184.133 297.415 178.172 306.664 177.1 307.994C176.034 309.325 170.427 305.239 165.892 301.147C161.357 297.056 158.418 293.982 158.418 293.982C158.418 293.982 149.183 283.167 146.898 282.82C144.618 282.479 142.674 282.797 141.479 283.456C140.277 284.121 129.799 280.659 125.771 278.652C121.748 276.644 115.252 275.29 109.856 275.979C104.455 276.668 100.403 275.685 97.5408 273.501C94.6666 271.322 91.8984 270.728 89.2185 270.604C86.5445 270.48 83.8529 268.814 83.3346 268.302C82.8163 267.784 75.9959 265.017 74.6707 264.546C73.3455 264.081 70.4477 262.85 67.5499 260.348C64.6403 257.846 53.3613 250.64 51.2469 249.939C49.7332 249.239 44.9565 248.803 42.0116 248.98C38.9489 248.803 37.447 247.955 37.2939 246.301C37.1525 244.641 38.9489 237.694 39.2081 235.521C39.4672 233.349 40.3095 232.507 36.0865 227.167C31.9989 221.616 28.5416 214.516 28.0587 212.82C27.5875 211.13 21.0733 209.252 18.6762 207.857C16.2849 206.462 8.52213 202.082 7.00845 201.016C5.49476 199.95 2.30248 197.484 2.11401 196.895C1.92554 196.306 1.78418 194.87 3.29197 193.433C4.80566 192.002 9.91802 187.075 9.99458 183.943C10.0653 180.822 9.62942 171.108 8.33955 169.007C7.04968 166.905 5.50065 156.649 5.02947 155.689C4.5465 154.736 3.55113 154.182 3.92807 153.552C4.29324 152.928 5.39464 147.524 6.0543 145.316C6.71985 143.108 9.37027 139.358 11.2491 138.84C13.1221 138.322 21.5445 138.033 27.5109 138.069C33.4714 138.11 37.1584 138.663 38.1479 138.551C39.1433 138.446 45.0685 133.365 46.3937 131.487C47.5304 129.938 48.1547 129.98 48.7437 130.197C49.3386 130.421 53.5321 132.04 57.6491 132.334C61.772 132.629 66.743 132.005 70.1237 130.315C73.5104 128.625 74.6177 126.889 75.4246 126.783C76.2315 126.671 78.2222 127.737 80.2424 127.96C82.2685 128.184 87.0157 124.687 87.6459 123.551C88.7473 122.591 90.367 123.916 91.062 125.358C91.7629 126.789 95.4735 131.752 101.699 133.524C103.908 134.112 103.872 134.112 104.055 135.284C104.243 136.462 104.644 139.658 104.314 139.917C103.984 140.176 99.6788 145.581 99.3843 150.067C99.0899 154.559 100.71 156.178 102.07 157.385C103.431 158.604 105.05 161.176 105.863 161.394C106.664 161.618 115.428 162.943 119.952 160.912C124.481 158.892 127.532 157.12 131.325 157.827C135.118 158.527 137.356 163.013 137.698 164.267C138.027 165.515 139.058 168.494 140.377 169.713C141.703 170.926 142.368 171.591 143.511 171.85C144.648 172.109 146.344 171.626 147.375 170.078C148.405 168.53 151.168 163.272 151.091 162.207C151.02 161.141 153.559 158.863 155.137 158.71C156.722 158.568 164.632 158.533 165.586 158.533C166.54 158.533 169.267 155.884 169.997 153.711C170.734 151.539 171.77 148.489 174.126 148.707C176.476 148.931 176.076 150.067 178.867 150.067C181.659 150.067 182.878 148.012 183.397 147.2C183.915 146.393 186.412 143.52 187.154 142.637C187.885 141.754 187.484 139.258 186.23 137.71C184.981 136.161 182.99 133.335 182.183 130.574C181.376 127.819 178.096 123.033 177.366 122.408C176.629 121.779 171.664 116.415 170.551 115.126C169.703 113.436 169.373 104.676 169.267 104.311C169.155 103.946 167.977 102.327 167.942 101.626C167.906 100.932 168.637 96.7692 167.535 91.7709C166.434 86.7726 166.399 83.6052 165.916 82.5396C165.445 81.474 157.346 73.9676 155.95 72.0543C154.554 70.1409 154.766 68.2628 157.016 67.315C159.26 66.3553 171.806 60.1796 171.806 60.1796C175.487 56.0584 179.61 47.0862 185.794 45.1669C191.972 43.2535 204.046 44.7312 207.875 43.9894C211.703 43.2535 218.912 40.1627 220.385 36.3418C221.851 32.5151 221.71 26.9221 222.299 25.7505C222.888 24.579 227.299 14.1231 228.778 13.0928C230.244 12.0684 239.815 7.94141 244.227 6.62266C248.65 5.29801 254.976 1.02971 255.417 2.20128C255.853 3.38463 257.767 12.3569 258.504 13.6815C259.24 15.0003 258.945 20.2989 256.442 21.182C253.939 22.0651 242.46 30.013 242.46 32.5151C242.46 35.0172 245.841 37.9608 248.202 38.838C250.558 39.7211 249.669 42.5176 250.853 43.6951C252.031 44.8725 254.681 47.3746 255.417 49.4352C256.148 51.4958 259.246 54.7338 262.332 55.4638C265.418 56.1997 269.671 58.8726 271.603 61.7691C273.546 64.6657 280.437 75.5808 281.857 77.0467C283.282 78.5244 287.847 86.6077 289.072 89.257C290.297 91.9063 293.242 95.8331 293.878 96.1687C294.514 96.5102 298.484 102.792 300.009 104.211C301.529 105.636 302.654 108.379 302.412 109.857C302.171 111.323 302.754 115.149 303.891 117.116C305.016 119.076 307.224 121.484 309.722 122.803C312.231 124.128 315.906 125.947 320.571 126.535C325.229 127.124 331.655 128.255 332.191 128.985C332.733 129.721 332.138 132.423 332.05 133.206L332.056 133.218Z" fill="#97C2C4" stroke="white" stroke-width="3" stroke-miterlimit="10"/>
<path d="M257.797 51.2832C257.668 56.4287 257.079 58.7895 250.883 62.3278C244.687 65.8661 238.19 68.5213 239.669 76.4927C241.147 84.4641 239.669 89.6332 233.172 94.2724C226.676 98.9116 221.069 105.7 219.302 116.32C217.529 126.941 219.302 137.915 213.4 136.738C210.449 138.156 208.158 147.299 204.177 146.934C200.195 146.569 196.885 141.518 191.855 141.4C186.825 141.283 187.514 141.5 187.514 141.5" stroke="white" stroke-width="3" stroke-miterlimit="10"/>
<path d="M223.92 103.893C227.342 107.248 228.673 109.904 229.928 111.087C231.182 112.27 233.467 113.889 234.575 117.062C235.682 120.236 237.525 122.744 239.151 122.962C240.777 123.179 246.236 123.48 247.785 124.804C249.334 126.129 250.884 127.018 252.951 127.901C255.018 128.784 256.567 132.105 255.754 133.506C254.942 134.907 255.607 135.349 253.322 136.897C251.037 138.445 244.835 139.858 245.871 144.798C246.908 149.737 249.488 153.57 251.26 153.423C253.033 153.275 266.238 149.955 267.94 148.995C269.643 148.036 275.173 145.604 275.986 144.126C276.799 142.649 280.121 139.923 282.995 139.111C285.869 138.298 293.473 137.78 294.657 137.486C295.84 137.191 296.135 132.693 297.166 130.256C298.196 127.819 302.478 121.478 303.291 120.518C304.104 119.559 305.771 118.14 305.771 118.14" stroke="white" stroke-width="3" stroke-miterlimit="10"/>
<path d="M295.934 159.958C295.97 151.727 295.976 141.177 295.934 139.629C295.893 138.08 295.934 134.736 295.934 134.736" stroke="white" stroke-width="3" stroke-miterlimit="10"/>
<path d="M166.735 157.985C168.213 162.783 170.004 167.069 168.672 170.172C167.341 173.275 166.605 175.335 166.458 178.137C166.311 180.94 166.163 185.809 166.752 186.545C167.341 187.28 172.948 186.839 176.052 187.722C179.156 188.605 182.549 189.053 185.205 191.855C187.861 194.657 192.438 198.349 195.241 198.196C198.045 198.043 203.505 197.018 206.308 193.474C209.112 189.93 211.621 185.803 213.394 184.625C215.167 183.448 220.279 182.659 222.005 179.562C223.73 176.466 227.906 172.827 230.321 172.185C232.736 171.544 237.848 168.4 239.421 166.681C240.994 164.962 244.245 162.695 245.275 161.765C246.306 160.835 248.721 156.796 249.357 155.471C249.993 154.147 250.506 153.281 250.506 153.281" stroke="white" stroke-width="3" stroke-miterlimit="10"/>
<path d="M39.6788 137.674C41.11 141.253 40.7684 141.648 39.4373 144.597C38.1062 147.547 36.0447 149.808 35.9446 154.729C35.8445 159.651 34.5193 164.367 35.8975 165.55C37.2757 166.734 41.163 169.189 45.0503 169.142C48.9376 169.094 51.5467 171.061 52.23 175.188C52.9132 179.315 58.1846 192.938 58.2317 194.216C58.2788 195.493 61.0352 199.873 56.0642 201.392C51.0932 202.911 44.3082 206.261 38.8483 207.097C33.3884 207.933 29.5011 207.833 27.9757 209.358C26.4502 210.883 26.2559 211.277 26.2559 211.277" stroke="white" stroke-width="3" stroke-miterlimit="10"/>
<path d="M104.95 160.693C101.134 163.484 95.232 166.899 93.5063 168.176C91.7806 169.454 86.7919 171.915 85.9556 173.339C85.1192 174.764 83.741 175.724 83.3464 178.132C82.9518 180.539 83.2992 187.133 82.8163 187.428C82.3333 187.722 80.16 187.539 78.9054 186.839C77.6509 186.138 75.9193 185.291 75.1419 186.215C74.3644 187.139 74.8827 190.089 73.4456 191.672C72.0085 193.256 69.5347 197.059 65.5473 197.831C61.5599 198.602 59.0332 197.831 59.0332 197.831" stroke="white" stroke-width="3" stroke-miterlimit="10"/>
<path d="M144.813 171.838C143.44 174.399 141.131 176.754 138.522 177.743C135.913 178.732 128.044 181.575 125.83 183.401C123.615 185.226 119.286 189.447 116.824 190.63C114.362 191.814 107.035 195.646 105.657 196.971C104.279 198.295 103.295 199.137 100.344 200.362C97.3936 201.586 95.7681 201.851 93.0764 202.146C90.3848 202.44 86.5446 202.699 85.1075 201.816C83.6704 200.933 84.6304 198.425 84.7777 197.171C84.9249 195.917 85.5905 191.602 85.4432 190.936C85.296 190.271 84.2652 188.611 83.7116 188.281C83.158 187.951 82.8281 187.433 82.8281 187.433" stroke="white" stroke-width="3" stroke-miterlimit="10"/>
<path d="M79.1703 266.365C81.8914 265.17 81.9444 262.515 80.8136 259.665C79.6827 256.816 77.9747 252.242 79.1232 250.422C80.2717 248.603 83.9116 246.931 85.39 245.601C86.8683 244.27 89.6188 239.454 90.5553 238.718C91.4918 237.983 103.89 231.094 107.871 230.553C111.853 230.011 113.284 224.212 111.117 216.488C108.949 208.77 106.54 202.476 106.051 200.704C105.563 198.932 104.95 197.631 104.95 197.631" stroke="white" stroke-width="3" stroke-miterlimit="10"/>
<path d="M292.028 178.385C289.955 181.635 287.075 186.874 284.972 190.23C282.87 193.586 280.767 198.307 277.887 201.257C275.007 204.207 273.422 206.308 271.096 206.938C268.769 207.568 270.472 211.548 270.654 212.69C270.837 213.832 272.427 219.437 276.043 220.179C279.66 220.921 286.781 221.103 286.409 224.382C286.038 227.662 286.003 228.474 283.494 229.805C280.985 231.135 276.78 231.282 276.261 234.379C275.743 237.476 281.98 238.212 283.753 238.365C285.526 238.518 290.951 238.806 291.687 238.694C292.423 238.583 293.336 237.393 293.336 237.393" stroke="white" stroke-width="3" stroke-miterlimit="10"/>
<path d="M166.329 183.371C163.802 184.919 162.695 185.732 159.155 185.879C155.615 186.026 153.618 192.22 152.441 195.911C151.263 199.602 151.162 202.623 145.208 208.08C142.451 211.471 142.599 213.049 140.584 213.538C138.57 214.026 135.077 213.391 132.863 214.868C130.648 216.346 129.029 218.901 127.992 219.59C126.955 220.279 123.221 220.867 121.99 223.917C120.759 226.967 119.139 230.899 116.089 230.752C113.038 230.605 111.1 229.486 111.135 228.079" stroke="white" stroke-width="3" stroke-miterlimit="10"/>
<path d="M237.171 168.57C236.971 170.537 236.565 174.116 237.413 176.03C238.261 177.943 241.436 180.675 241.653 182.37C241.877 184.066 240.399 187.421 240.805 189.564C241.212 191.707 241.913 193.067 243.391 194.104C244.869 195.14 250.182 198.16 251.395 198.972C252.609 199.785 257.633 203.988 256.637 206.903C255.642 209.817 253.056 213.173 252.025 214.868C250.995 216.564 248.244 221.397 246.465 222.722C244.687 224.046 244.316 225.006 239.186 225.966C234.056 226.925 232.73 228.586 230.333 228.509C227.936 228.433 225.869 227.991 223.542 230.169C221.216 232.348 218.707 234.744 218.707 236.881C218.707 239.018 218.607 242.35 218.707 242.939C218.807 243.528 216.345 246.183 214.525 246.577C212.705 246.972 205.225 248.838 201.732 247.366C198.24 245.894 196.32 243.481 194.847 242.544C193.375 241.608 188.009 238.806 186.042 236.692C184.075 234.579 181.86 232.071 180.287 231.924C178.715 231.777 172.908 233.348 169.515 232.318C166.122 231.288 164.791 229.269 163.613 227.549C162.435 225.83 159.479 223.717 159.237 222.092C158.996 220.467 156.334 218.895 153.925 219.189C151.516 219.484 147.776 221.203 145.461 218.601L143.146 215.993L141.68 213.025" stroke="white" stroke-width="3" stroke-miterlimit="10"/>
<path d="M193.645 197.973C193.616 200.634 192.585 201.37 192.291 203.136C191.996 204.902 192.143 211.619 191.036 213.757C189.929 215.894 188.45 219.585 185.871 219.697C183.291 219.809 180.004 222.829 180.187 226.002C180.37 229.175 180.287 231.925 180.287 231.925" stroke="white" stroke-width="3" stroke-miterlimit="10"/>
<path d="M118.568 229.752C120.453 231.871 123.109 233.714 125.106 235.262C127.103 236.811 133.481 239.649 135.661 240.426C137.84 241.203 142.634 244.411 143.594 245.365C144.554 246.319 151.675 247.908 153.63 249.31C155.586 250.711 158.831 252.371 160.751 254.732C162.671 257.093 165.716 260.79 166.341 262.168C166.965 263.545 166.771 278.393 166.523 279.871C166.276 281.348 165.345 289.555 165.045 291.427C164.745 293.3 164.014 296.491 163.961 297.132C163.908 297.774 163.466 298.916 163.466 298.916" stroke="white" stroke-width="3" stroke-miterlimit="10"/>
<path d="M218.406 243.629C220.379 243.387 224.467 246.967 224.561 248.816C224.655 250.664 223.578 255.138 223.825 256.716C224.072 258.294 224.808 260.107 225.992 261.291C227.176 262.474 231.8 264.293 232.241 266.895C232.683 269.498 233.52 274.861 233.52 276.733C233.52 278.605 233.078 283.227 234.162 285.635C235.245 288.043 243.903 297.586 248.232 300.436C252.561 303.285 252.644 304.168 252.644 304.168" stroke="white" stroke-width="3" stroke-miterlimit="10"/>
<path d="M186.189 236.752C186.436 239.501 185.405 240.685 183.238 242.157C181.07 243.628 177.236 246.437 176.4 246.978C175.563 247.52 171.676 249.439 171.187 250.664C170.698 251.888 167.942 257.693 167.647 259.418C167.353 261.137 166.334 262.173 166.334 262.173" stroke="white" stroke-width="3" stroke-miterlimit="10"/>
</svg>
