<svg width="40" height="40" viewBox="0 0 40 40" fill="none" xmlns="http://www.w3.org/2000/svg">
<g clip-path="url(#clip0_1666_6713)">
<path d="M20.0003 0.623047C16.0225 0.626176 12.2086 2.20789 9.39611 5.02082C6.58361 7.83376 5.0025 11.6479 5 15.6257C5.00188 19.6035 6.58286 23.4177 9.39556 26.2304C12.2083 29.0431 16.0225 30.6241 20.0003 30.626C23.978 30.6241 27.7923 29.0431 30.605 26.2304C33.4177 23.4177 34.9987 19.6035 35.0006 15.6257C34.9981 11.6475 33.4167 7.83299 30.6037 5.01999C27.7906 2.20699 23.9761 0.62555 19.9979 0.623047H20.0003ZM20.0003 1.87268C21.8063 1.87206 23.5948 2.2274 25.2634 2.91839C26.932 3.60938 28.448 4.62248 29.7249 5.89975C31.0017 7.17702 32.0143 8.69343 32.7047 10.3623C33.3951 12.0311 33.7498 13.8197 33.7486 15.6257C33.7486 23.2274 27.602 29.374 20.0003 29.374C12.3986 29.374 6.25199 23.2274 6.25199 15.6257C6.25075 13.8199 6.6054 12.0315 7.29567 10.3628C7.98594 8.69413 8.9983 7.17782 10.2749 5.90058C11.5515 4.62334 13.0672 3.6102 14.7356 2.91907C16.4039 2.22794 18.1921 1.87237 19.9979 1.87268H20.0003Z" fill="#00C18C"/>
<path d="M20.001 4.375C17.0181 4.37813 14.1583 5.56462 12.0494 7.67406C9.94036 9.78349 8.75447 12.6435 8.75196 15.6264C8.75384 18.6093 9.93961 21.4694 12.0488 23.5786C14.158 25.6878 17.0182 26.8736 20.001 26.8754C22.9839 26.8736 25.844 25.6878 27.9532 23.5786C30.0624 21.4694 31.2482 18.6093 31.25 15.6264C31.2475 12.6435 30.0617 9.78349 27.9527 7.67406C25.8437 5.56462 22.9839 4.37813 20.001 4.375ZM20.001 5.62463C21.3144 5.62401 22.615 5.88232 23.8285 6.3848C25.042 6.88727 26.1445 7.62405 27.073 8.55298C28.0015 9.48192 28.7378 10.5848 29.2397 11.7985C29.7416 13.0122 29.9993 14.313 29.9981 15.6264C29.9996 16.9398 29.7421 18.2406 29.2403 19.4543C28.7385 20.668 28.0022 21.7709 27.0736 22.6997C26.145 23.6285 25.0423 24.365 23.8287 24.8671C22.6151 25.3692 21.3144 25.6271 20.001 25.6258C18.6872 25.6274 17.386 25.3698 16.1718 24.8679C14.9577 24.366 13.8544 23.6296 12.9252 22.7008C11.996 21.772 11.2591 20.6691 10.7566 19.4552C10.2541 18.2413 9.99594 16.9402 9.99687 15.6264C9.99594 14.3125 10.2541 13.0113 10.7565 11.7972C11.259 10.5832 11.9959 9.48013 12.9251 8.55117C13.8543 7.6222 14.9575 6.88556 16.1717 6.38339C17.3858 5.88123 18.6871 5.62339 20.001 5.62463ZM8.18502 24.2179L2.31483 34.3827C2.25617 34.4869 2.2286 34.6058 2.23538 34.7252C2.24216 34.8446 2.28301 34.9596 2.3531 35.0565C2.42318 35.1534 2.51956 35.2282 2.63083 35.2721C2.74211 35.3159 2.86362 35.327 2.98098 35.304L8.95984 34.1228L10.9252 39.8962C10.9641 40.0098 11.0349 40.1098 11.1291 40.1843C11.2233 40.2588 11.3369 40.3047 11.4565 40.3164C11.576 40.3281 11.6964 40.3052 11.8032 40.2503C11.9101 40.1955 11.9989 40.1111 12.0591 40.0072L17.8112 30.0479L16.7269 29.4196L11.6646 38.1835L9.96852 33.1992C9.91946 33.0565 9.82049 32.9363 9.68983 32.8608C9.55918 32.7852 9.40564 32.7595 9.25749 32.7882L4.08888 33.8063L9.26694 24.8439L8.18502 24.2179ZM31.817 24.2179L30.7374 24.8463L35.9131 33.8087L30.7469 32.7905C30.5987 32.7618 30.4452 32.7876 30.3145 32.8631C30.1839 32.9387 30.0849 33.0588 30.0358 33.2016L28.3374 38.1859L23.2774 29.4219L22.1908 30.0503L27.9405 40.0072C28.0007 40.1111 28.0896 40.1955 28.1964 40.2503C28.3033 40.3052 28.4237 40.3281 28.5432 40.3164C28.6627 40.3047 28.7763 40.2588 28.8705 40.1843C28.9647 40.1098 29.0355 40.0098 29.0744 39.8962L31.0422 34.1228L37.0187 35.304C37.136 35.327 37.2575 35.3159 37.3688 35.2721C37.4801 35.2282 37.5765 35.1534 37.6465 35.0565C37.7166 34.9596 37.7575 34.8446 37.7643 34.7252C37.771 34.6058 37.7435 34.4869 37.6848 34.3827L31.817 24.2179Z" fill="#00C18C"/>
<path d="M20.0013 8.66406C19.5572 8.66406 19.4816 8.85777 19.3635 8.97824C18.6808 9.76723 17.7618 11.3925 17.4217 11.9311C16.2736 12.2169 15.0523 12.4555 14.0177 12.8618C13.8665 12.9374 13.661 12.9539 13.5216 13.3744C13.387 13.7972 13.5429 13.9272 13.6208 14.076C14.124 14.9193 15.5555 16.5044 15.8295 16.8351C15.7587 18.0942 15.5862 19.2281 15.6642 20.3596C15.6878 20.5249 15.6382 20.7257 15.9949 20.9879C16.3539 21.2478 16.5311 21.1391 16.6965 21.1108C17.6815 20.8745 19.4485 20.0855 20.0013 19.8659C21.1115 20.2887 22.2123 20.8297 23.3037 21.1108C23.469 21.1391 23.6462 21.2478 24.0053 20.9879C24.3643 20.7281 24.3124 20.5249 24.336 20.3596C24.421 19.384 24.2013 17.265 24.1706 16.8351C24.8084 16.0886 25.4935 15.2878 26.0959 14.5201C26.4384 14.1468 26.5778 13.75 26.4786 13.3744C26.377 12.9988 26.136 12.9374 25.9848 12.8618C24.8817 12.4248 23.7124 12.2169 22.5808 11.9311C21.9289 10.9389 21.3572 9.84755 20.6367 8.97824C20.5186 8.86013 20.4454 8.66406 19.9989 8.66406H20.0013ZM20.0013 10.183C20.5493 10.9838 21.0099 11.7988 21.532 12.5948C21.617 12.713 21.6454 12.7956 21.8462 12.9421C22.047 13.0862 22.1273 13.0862 22.2667 13.1311C23.1998 13.3791 24.1116 13.5823 25.0352 13.8398C24.4494 14.6146 23.8116 15.302 23.2163 16.0461C23.1289 16.1642 23.0627 16.2115 22.9848 16.4477C22.9092 16.6839 22.9328 16.7642 22.9352 16.9083C22.9824 17.8768 23.0722 18.8076 23.1147 19.7666C22.0753 19.4052 20.9698 18.8217 20.0013 18.6162C19.7532 18.6162 19.6871 18.6658 19.5477 18.7107C18.643 19.0556 17.7831 19.4288 16.8855 19.7643C16.9162 18.791 17.0225 17.8627 17.0673 16.9083C17.0673 16.7642 17.091 16.6815 17.0154 16.4477C16.9398 16.2115 16.8736 16.1642 16.7839 16.0461C16.1933 15.2996 15.4894 14.5059 14.9649 13.8398C15.898 13.5657 16.8146 13.3768 17.7359 13.1311C17.8752 13.0862 17.9556 13.0862 18.1563 12.9421C18.3548 12.7956 18.3855 12.713 18.4682 12.5948C18.7989 12.1082 19.1201 11.5649 19.4013 11.1066C19.5916 10.7926 19.7917 10.4846 20.0013 10.183Z" fill="#00C18C"/>
</g>
<defs>
<clipPath id="clip0_1666_6713">
<rect width="40" height="40" fill="white"/>
</clipPath>
</defs>
</svg>
