<svg width="50" height="50" viewBox="0 0 50 50" fill="none" xmlns="http://www.w3.org/2000/svg">
<path d="M10.6915 6.33645L12.165 5.6927C12.192 5.68065 12.2149 5.66103 12.231 5.63621C12.2471 5.61139 12.2557 5.58244 12.2557 5.55286C12.2557 5.52327 12.2471 5.49432 12.231 5.4695C12.2149 5.44469 12.192 5.42506 12.165 5.41301L10.6915 4.76926C10.6563 4.75438 10.6283 4.72636 10.6134 4.69114L9.96809 3.2177C9.95604 3.19068 9.93642 3.16773 9.9116 3.15163C9.88678 3.13552 9.85783 3.12695 9.82825 3.12695C9.79866 3.12695 9.76971 3.13552 9.74489 3.15163C9.72008 3.16773 9.70046 3.19068 9.6884 3.2177L9.04465 4.68958C9.02977 4.72479 9.00175 4.75282 8.96653 4.7677L7.49309 5.41301C7.46607 5.42506 7.44312 5.44469 7.42702 5.4695C7.41091 5.49432 7.40234 5.52327 7.40234 5.55286C7.40234 5.58244 7.41091 5.61139 7.42702 5.63621C7.44312 5.66103 7.46607 5.68065 7.49309 5.6927L8.96653 6.33645C9.00247 6.35208 9.03059 6.3802 9.04465 6.41458L9.6884 7.88801C9.70046 7.91503 9.72008 7.93798 9.74489 7.95409C9.76971 7.97019 9.79866 7.97876 9.82825 7.97876C9.85783 7.97876 9.88678 7.97019 9.9116 7.95409C9.93642 7.93798 9.95604 7.91503 9.96809 7.88801L10.6118 6.41458C10.6279 6.37961 10.6563 6.3518 10.6915 6.33645Z" fill="#00C18C" fill-opacity="0.5"/>
<path d="M5.85625 10.6148C6.10909 10.6148 6.31406 10.4099 6.31406 10.157C6.31406 9.90419 6.10909 9.69922 5.85625 9.69922C5.60341 9.69922 5.39844 9.90419 5.39844 10.157C5.39844 10.4099 5.60341 10.6148 5.85625 10.6148Z" fill="#00C18C" fill-opacity="0.5"/>
<path d="M44.416 9.61562L45.3051 9.22656C45.3785 9.19375 45.3785 9.08906 45.3051 9.05781L44.416 8.66875C44.4055 8.66443 44.3959 8.65806 44.3879 8.65001C44.3798 8.64197 44.3735 8.6324 44.3691 8.62188L43.9801 7.73281C43.9473 7.65938 43.8426 7.65938 43.8113 7.73281L43.4223 8.62188C43.4179 8.6324 43.4116 8.64197 43.4035 8.65001C43.3955 8.65806 43.3859 8.66443 43.3754 8.66875L42.4848 9.05781C42.4113 9.09062 42.4113 9.19531 42.4848 9.22656L43.3738 9.61562C43.3844 9.61995 43.3939 9.62631 43.402 9.63436C43.41 9.64241 43.4164 9.65197 43.4207 9.6625L43.8098 10.5516C43.8426 10.625 43.9473 10.625 43.9785 10.5516L44.3676 9.6625C44.3774 9.64141 44.3946 9.6247 44.416 9.61562Z" fill="#00C18C" fill-opacity="0.5"/>
<path d="M38.8961 8.29219C39.5442 8.29219 40.0695 7.76682 40.0695 7.11875C40.0695 6.47068 39.5442 5.94531 38.8961 5.94531C38.248 5.94531 37.7227 6.47068 37.7227 7.11875C37.7227 7.76682 38.248 8.29219 38.8961 8.29219Z" fill="#00C18C" fill-opacity="0.5"/>
<path d="M40.3586 41.3906C40.0664 40.9844 39.9367 40.5141 40.0336 40.0609C40.6492 37.3531 40.9898 34.2063 40.9898 30.8641C40.9898 28.1828 40.7867 25.475 40.2758 22.8359H9.72109C9.39948 24.4899 9.19377 26.1643 9.10547 27.8469H33.3586C35.0164 27.8469 36.4008 29.1734 36.4023 30.8328V30.8641C36.4023 34.2047 36.0617 37.3516 35.4461 40.0609C35.3492 40.5156 35.4789 40.9859 35.7711 41.3906C36.8086 42.9469 36.8742 44.8297 36.793 45.9156C36.7773 46.0985 36.7095 46.2731 36.5977 46.4188C38.0086 46.8891 39.468 46.9047 40.3602 46.8563C40.9273 46.8078 41.3492 46.4016 41.382 45.9156C41.4617 44.8297 41.3961 42.9469 40.3586 41.3906Z" fill="#00C18C" fill-opacity="0.5"/>
<path d="M11.5344 35.0039C11.6111 34.9978 11.6858 34.9766 11.7543 34.9415C11.8228 34.9065 11.8837 34.8582 11.9334 34.7996C11.9832 34.7409 12.021 34.673 12.0445 34.5998C12.0679 34.5265 12.0767 34.4493 12.0703 34.3727C11.9766 33.2227 11.9297 32.0414 11.9297 30.8586L11.9344 30.1383C11.9365 29.983 11.877 29.8332 11.7689 29.7216C11.6609 29.6101 11.5131 29.5458 11.3578 29.543C11.1016 29.5492 10.7687 29.7961 10.7625 30.1195L10.7578 30.8586C10.7578 32.0727 10.8062 33.2867 10.9031 34.468C10.9281 34.7742 11.1844 35.007 11.4859 35.007L11.5344 35.0039ZM12.3266 36.6883C12.2938 36.5449 12.2084 36.4189 12.0872 36.3355C11.9661 36.252 11.818 36.217 11.6723 36.2374C11.5266 36.2578 11.3938 36.3322 11.3003 36.4458C11.2068 36.5593 11.1593 36.7039 11.1672 36.8508C11.2031 37.1133 11.2437 37.3758 11.2859 37.6336C11.3108 37.7871 11.3956 37.9245 11.5218 38.0155C11.6479 38.1065 11.8051 38.1436 11.9586 38.1188C12.1121 38.0939 12.2495 38.009 12.3405 37.8829C12.4315 37.7568 12.4686 37.5996 12.4437 37.4461C12.4019 37.1939 12.3629 36.9413 12.3266 36.6883Z" fill="#00C18C" fill-opacity="0.5"/>
<path d="M43.1781 20.1445V23.7945C43.1781 24.7352 42.4156 25.4977 41.4594 25.4977H36.8047C37.7453 25.4977 38.5234 24.7352 38.5234 23.7945V20.1445C38.5234 19.2039 37.7453 18.4414 36.8047 18.4414H41.4594C42.4156 18.4414 43.1781 19.2039 43.1781 20.1445Z" fill="#00C18C" fill-opacity="0.5"/>
<path d="M41.4664 17.8497H40.9523C41.1523 16.3434 40.5008 14.5966 39.1789 13.2747C37.7383 11.8356 35.7977 11.1919 34.2211 11.5809C34.1258 11.5153 34.0195 11.4762 33.9195 11.4216C34.1008 9.49499 33.3523 7.84968 31.9258 7.16061C31.107 6.76686 30.1758 6.73561 29.2242 7.06686C27.8945 7.53249 26.7273 8.64655 26.0242 10.1137C25.8744 10.4215 25.751 10.7414 25.6555 11.07C25.2165 10.9266 24.7515 10.8808 24.293 10.9356C23.293 11.0512 22.443 11.6512 21.8289 12.5231C21.4701 12.4151 21.0974 12.3598 20.7227 12.3591C20.0133 10.12 18.2695 8.67311 16.3977 8.90436C14.8039 9.09968 13.5414 10.4762 13.1117 12.3981C11.9117 12.2341 10.7695 12.5262 9.97578 13.3216C8.88359 14.4137 8.71016 16.1497 9.44141 17.8497H8.53047C7.26172 17.8497 6.23047 18.8825 6.23047 20.1512V23.7872C6.23047 25.0559 7.26328 26.0887 8.53047 26.0887H8.67109C8.50213 27.6743 8.41608 29.2676 8.41328 30.8622C8.41328 34.1684 8.75391 37.3965 9.39453 40.184C9.44922 40.4497 9.36484 40.7606 9.15547 41.0653C7.98828 42.7887 7.94609 44.8653 8.02578 45.9637C8.10234 46.7684 8.76797 47.3856 9.60078 47.4309C10.7664 47.5075 12.9945 47.4762 14.8602 46.3903C15.2539 46.1731 15.6039 46.0965 15.9414 46.1731C21.5008 47.1856 28.4867 47.1903 34.0758 46.17C34.3977 46.1028 34.7461 46.1731 35.1273 46.384C36.643 47.2653 38.3883 47.4575 39.6133 47.4575C39.907 47.4575 40.168 47.4466 40.3914 47.4309C41.232 47.3841 41.8992 46.7669 41.9758 45.9497C42.0539 44.8653 42.0102 42.7872 40.8414 41.0606C40.6336 40.759 40.5492 40.4481 40.6023 40.1966C41.2461 37.3919 41.5867 34.1653 41.5867 30.8622C41.5867 29.2356 41.4898 27.6403 41.3273 26.0887H41.468C42.7383 26.0887 43.7695 25.0559 43.7695 23.7872V20.1512C43.7687 19.5408 43.5257 18.9556 43.094 18.5242C42.6622 18.0927 42.0768 17.8501 41.4664 17.8497ZM38.3508 14.1028C39.4508 15.2028 39.993 16.6825 39.768 17.8497H34.7414C35.8445 16.0653 35.9742 14.0294 35.1617 12.6294C36.2117 12.6247 37.4008 13.1544 38.3508 14.1028ZM28.6742 14.5731C28.7461 14.4466 28.8148 14.32 28.8992 14.2012C30.1711 12.4169 32.3148 11.6622 33.582 12.5575C34.8711 13.4731 34.8648 15.7075 33.5633 17.5434C33.4867 17.6544 33.4008 17.7497 33.3164 17.8497H28.7383C28.8961 17.1528 28.9773 16.4247 28.8945 15.6716C28.8514 15.3 28.7777 14.9326 28.6742 14.5731ZM27.0742 10.6294C27.6398 9.44968 28.5883 8.53093 29.6102 8.17311C30.2586 7.94499 30.8836 7.95905 31.4148 8.21686C32.3086 8.64811 32.7867 9.74499 32.7461 11.0341C31.1867 10.8528 29.3945 11.6934 28.1414 13.2856C27.826 12.6918 27.3965 12.1661 26.8773 11.7387C26.832 11.7028 26.7836 11.6794 26.7367 11.645C26.8305 11.2919 26.9195 10.9387 27.0742 10.6294ZM24.4258 12.0997C25.0164 12.0325 25.607 12.2231 26.1492 12.6544C26.9961 13.3294 27.5883 14.5059 27.7305 15.8012C27.8102 16.52 27.7258 17.2122 27.5445 17.8512H22.4039C22.2206 17.4038 22.0971 16.9341 22.0367 16.4544C21.7898 14.2325 22.8617 12.2794 24.4258 12.0997ZM21.2477 13.5762C20.7218 14.9468 20.6892 16.4577 21.1555 17.8497H16.0602C16.1617 16.8606 16.657 15.8294 17.493 14.9934C18.6023 13.8825 20.0883 13.345 21.2477 13.5762ZM16.5367 10.0669C17.7508 9.9153 18.9695 10.9387 19.5414 12.4966C18.5273 12.7481 17.5102 13.3169 16.6633 14.1653C16.6367 14.1919 16.6195 14.2216 16.5945 14.2481C16.5695 14.2216 16.5492 14.1903 16.5227 14.1653C15.8767 13.5177 15.0986 13.0173 14.2414 12.6981C14.5523 11.2403 15.4352 10.2028 16.5367 10.0669ZM10.8039 14.1497C11.9211 13.0356 14.1148 13.4122 15.6945 14.9934C15.7461 15.045 15.7914 15.1091 15.8414 15.1637C15.2987 15.9623 14.9714 16.8875 14.8914 17.8497H10.7695C9.99766 16.4591 9.98203 14.9716 10.8039 14.1497ZM40.4133 30.8606C40.4133 34.0762 40.0836 37.2137 39.457 39.9434C39.3367 40.5247 39.4852 41.1575 39.8742 41.72C40.843 43.1512 40.8742 44.9309 40.8086 45.8528C40.7867 46.0747 40.5836 46.245 40.3195 46.2606C39.2961 46.3325 37.3242 46.3059 35.7039 45.3622C35.0633 45.009 34.4367 44.895 33.8477 45.0184C28.4242 46.0075 21.5555 46.0028 16.168 45.0215C15.568 44.895 14.9367 45.009 14.282 45.3684C12.6727 46.3059 10.7055 46.3278 9.67109 46.2591C9.41328 46.245 9.21172 46.0731 9.19141 45.8653C9.12422 44.9309 9.15547 43.1512 10.1195 41.7262C10.5117 41.1606 10.6602 40.5278 10.5367 39.934C9.91328 37.2184 9.58359 34.0809 9.58359 30.8622C9.58359 29.234 9.68047 27.6372 9.84609 26.0887H40.1492C40.318 27.6356 40.4133 29.2325 40.4133 30.8606ZM42.5961 23.7872C42.5957 24.0867 42.4765 24.3738 42.2648 24.5855C42.053 24.7973 41.7659 24.9164 41.4664 24.9169H8.53047C8.23113 24.9164 7.94419 24.7972 7.73267 24.5854C7.52115 24.3736 7.40234 24.0865 7.40234 23.7872V20.1512C7.40234 19.5294 7.90859 19.0216 8.53047 19.0216H41.4664C42.0883 19.0216 42.5961 19.5278 42.5961 20.1512V23.7872Z" fill="#00C18C"/>
<path d="M23.3963 41.8821C25.14 41.8821 27.0869 41.0524 28.6275 39.4837C29.8588 38.2305 30.6604 36.693 30.8807 35.154C31.1135 33.5477 30.6963 32.1258 29.7041 31.1524C28.7135 30.1774 27.2854 29.7837 25.6838 30.0462C24.1494 30.2962 22.6244 31.1227 21.3932 32.3758C18.8041 35.0102 18.3213 38.7477 20.315 40.7087C21.1229 41.5008 22.2119 41.8821 23.3963 41.8821ZM29.7213 34.9868C29.5354 36.2821 28.8479 37.5868 27.7916 38.6633C25.9635 40.5243 23.5135 41.179 21.8838 40.3837C23.0854 39.8727 24.8619 38.7368 25.401 36.3165C25.9369 33.9087 28.1697 32.6087 29.0354 32.1852C29.6307 32.8852 29.8854 33.8602 29.7213 34.9868ZM22.2307 33.1977C23.2885 32.1227 24.5807 31.4133 25.8729 31.204C26.1307 31.1618 26.3822 31.1415 26.6244 31.1415C27.1275 31.1415 27.5854 31.2399 27.9979 31.4133C26.7838 32.1024 24.815 33.5602 24.2572 36.0633C23.7307 38.4305 21.6838 39.2696 20.865 39.518C19.7057 37.9305 20.2447 35.2165 22.2307 33.1977Z" fill="#00C18C"/>
</svg>
