<svg width="40" height="40" viewBox="0 0 40 40" fill="none" xmlns="http://www.w3.org/2000/svg">
<g clip-path="url(#clip0_1865_6792)">
<path d="M23.4954 22.0875C23.4127 22.1163 23.3365 22.1611 23.2711 22.2193C23.2057 22.2776 23.1525 22.3481 23.1144 22.427C23.0763 22.5058 23.0541 22.5914 23.049 22.6788C23.044 22.7662 23.0562 22.8538 23.085 22.9365C23.1138 23.0192 23.1586 23.0954 23.2169 23.1607C23.2751 23.2261 23.3457 23.2794 23.4245 23.3175C23.5034 23.3556 23.5889 23.3778 23.6764 23.3828C23.7638 23.3878 23.8513 23.3756 23.934 23.3468C26.6155 22.4175 28.881 20.5681 30.3283 18.127C31.7757 15.6858 32.3113 12.8108 31.8401 10.0123C31.3689 7.21373 29.9213 4.67264 27.7544 2.84006C25.5875 1.00748 22.8413 0.00195313 20.0034 0.00195312C17.1654 0.00195313 14.4192 1.00748 12.2523 2.84006C10.0854 4.67264 8.63784 7.21373 8.16664 10.0123C7.69543 12.8108 8.23104 15.6858 9.67839 18.127C11.1257 20.5681 13.3912 22.4175 16.0727 23.3468C16.2398 23.4049 16.4231 23.3942 16.5823 23.3171C16.7415 23.2401 16.8636 23.1029 16.9217 22.9358C16.9798 22.7687 16.9691 22.5854 16.892 22.4262C16.8149 22.267 16.6778 22.1449 16.5107 22.0868C15.3581 21.6845 14.2833 21.0869 13.3334 20.3201V19.5941C13.332 18.5783 13.6391 17.586 14.2139 16.7484C14.7888 15.9108 15.6043 15.2675 16.5527 14.9035C17.5604 15.6174 18.765 16.0009 20 16.0009C21.2351 16.0009 22.4396 15.6174 23.4474 14.9035C24.3957 15.2675 25.2113 15.9108 25.7861 16.7484C26.361 17.586 26.668 18.5783 26.6667 19.5941V20.3228C25.7184 21.0883 24.6457 21.6852 23.4954 22.0875ZM15.3334 10.0008C15.3334 9.07782 15.6071 8.17557 16.1198 7.40814C16.6326 6.64071 17.3614 6.04257 18.2142 5.68936C19.0669 5.33615 20.0052 5.24374 20.9104 5.4238C21.8157 5.60386 22.6472 6.04832 23.2999 6.70097C23.9525 7.35361 24.397 8.18513 24.577 9.09038C24.7571 9.99562 24.6647 10.9339 24.3115 11.7867C23.9583 12.6394 23.3601 13.3682 22.5927 13.881C21.8253 14.3938 20.923 14.6675 20 14.6675C18.7628 14.6661 17.5766 14.1739 16.7018 13.2991C15.8269 12.4242 15.3348 11.238 15.3334 10.0008ZM24.5334 13.9161C25.2861 13.0467 25.7732 11.9793 25.9365 10.8409C26.0999 9.70251 25.9326 8.54118 25.4547 7.49517C24.9767 6.44915 24.2082 5.56253 23.2407 4.94087C22.2732 4.31921 21.1474 3.9887 19.9974 3.9887C18.8473 3.9887 17.7215 4.31921 16.754 4.94087C15.7865 5.56253 15.018 6.44915 14.54 7.49517C14.0621 8.54118 13.8948 9.70251 14.0582 10.8409C14.2215 11.9793 14.7086 13.0467 15.4614 13.9161C14.4959 14.4097 13.673 15.1423 13.0708 16.044C12.4686 16.9457 12.1074 17.9866 12.0214 19.0675C8.22136 14.7841 8.48003 8.2648 12.6087 4.2968C16.7374 0.329464 23.262 0.329464 27.3914 4.2968C31.52 8.2648 31.7794 14.7841 27.9787 19.0675C27.8924 17.986 27.5304 16.9447 26.9273 16.0428C26.3241 15.141 25.4999 14.4088 24.5334 13.9161Z" fill="#39B54A"/>
<path d="M14.2658 39.7416C14.4656 39.889 14.7029 39.9773 14.9504 39.9963C15.198 40.0152 15.4459 39.9642 15.6658 39.8489L20.0038 37.5949L24.3412 39.8496C24.5617 39.9642 24.8098 40.015 25.0576 39.9961C25.3054 39.9771 25.543 39.8894 25.7436 39.7426C25.9441 39.5958 26.0997 39.3959 26.1927 39.1655C26.2857 38.935 26.3124 38.6831 26.2698 38.4383L25.4458 33.6836L28.9325 30.3229C29.1121 30.1498 29.2394 29.9299 29.3002 29.688C29.361 29.4461 29.3528 29.1921 29.2764 28.9547C29.2 28.7173 29.0586 28.506 28.8681 28.345C28.6777 28.1839 28.446 28.0795 28.1992 28.0436L23.3592 27.3483L21.1992 23.0063C21.0893 22.7834 20.9189 22.596 20.7075 22.4654C20.4962 22.3348 20.2523 22.2662 20.0038 22.2676C19.7561 22.2667 19.513 22.3352 19.3022 22.4654C19.0914 22.5956 18.9213 22.7823 18.8112 23.0043L16.6392 27.3483L11.8098 28.0429C11.5629 28.0788 11.331 28.1832 11.1405 28.3442C10.9499 28.5053 10.8084 28.7167 10.732 28.9542C10.6556 29.1917 10.6474 29.4459 10.7083 29.6879C10.7692 29.9298 10.8968 30.1499 11.0765 30.3229L14.5645 33.6836L13.7398 38.4383C13.6967 38.683 13.7231 38.9349 13.8161 39.1653C13.9091 39.3957 14.0649 39.5954 14.2658 39.7416ZM11.9992 29.3629L17.1738 28.6183C17.2804 28.603 17.3816 28.5621 17.4689 28.4992C17.5562 28.4363 17.627 28.3532 17.6752 28.2569L20.0032 23.6009L22.3212 28.2556C22.3693 28.3522 22.4401 28.4356 22.5275 28.4988C22.6149 28.5619 22.7164 28.6029 22.8232 28.6183L28.0085 29.3629L24.2658 32.9689C24.1874 33.0446 24.1288 33.1382 24.0949 33.2418C24.0611 33.3453 24.0532 33.4556 24.0718 33.5629L24.9565 38.6676L20.3118 36.2536C20.2169 36.2043 20.1115 36.1785 20.0045 36.1785C19.8975 36.1785 19.7921 36.2043 19.6972 36.2536L15.0518 38.6676L15.9365 33.5643C15.9552 33.4569 15.9472 33.3467 15.9134 33.2431C15.8796 33.1396 15.8209 33.0459 15.7425 32.9703L11.9992 29.3629Z" fill="#39B54A"/>
<path d="M3.13285 29.482L2.48152 33.248C2.44213 33.4697 2.46559 33.6981 2.54925 33.9072C2.63291 34.1163 2.77342 34.2978 2.9549 34.4312C3.13637 34.5646 3.35156 34.6446 3.57611 34.662C3.80066 34.6795 4.02562 34.6337 4.22552 34.53L7.66618 32.7393L11.1049 34.534C11.1825 34.5744 11.2674 34.5992 11.3546 34.6068C11.4418 34.6145 11.5297 34.6049 11.6132 34.5785C11.6967 34.5522 11.7742 34.5097 11.8413 34.4535C11.9084 34.3972 11.9637 34.3283 12.0042 34.2506C12.0446 34.173 12.0694 34.0881 12.077 34.0009C12.0847 33.9137 12.0751 33.8258 12.0488 33.7423C12.0225 33.6588 11.98 33.5813 11.9237 33.5142C11.8674 33.4471 11.7985 33.3917 11.7209 33.3513L7.97418 31.398C7.87908 31.3484 7.77342 31.3225 7.66618 31.3225C7.55895 31.3225 7.45329 31.3484 7.35818 31.398L3.84018 33.2306L4.50685 29.364C4.52551 29.2566 4.51758 29.1464 4.48376 29.0428C4.44994 28.9393 4.39126 28.8456 4.31285 28.77L1.48152 26.0366L5.39952 25.474C5.50611 25.4586 5.60739 25.4176 5.69469 25.3546C5.782 25.2916 5.85274 25.2083 5.90085 25.112L7.66618 21.5826L9.42485 25.1113C9.47301 25.2079 9.54391 25.2914 9.63147 25.3546C9.71903 25.4178 9.82063 25.4587 9.92752 25.474L14.1135 26.074C14.2886 26.099 14.4664 26.0534 14.6078 25.9473C14.7493 25.8413 14.8428 25.6833 14.8679 25.5083C14.8929 25.3332 14.8473 25.1554 14.7412 25.014C14.6352 24.8725 14.4772 24.779 14.3022 24.754L10.4622 24.204L8.74418 20.756C8.64443 20.5549 8.49028 20.3858 8.29925 20.268C8.10822 20.1501 7.88797 20.0882 7.66352 20.0893H7.65952C7.20618 20.0886 6.79285 20.3453 6.59285 20.752L4.86618 24.204L1.03752 24.7533C0.812934 24.7832 0.601415 24.8761 0.427429 25.0213C0.253443 25.1664 0.124098 25.3578 0.0543572 25.5734C-0.0153838 25.789 -0.0226715 26.0199 0.0333371 26.2394C0.0893457 26.4589 0.206362 26.6581 0.37085 26.814L3.13285 29.482ZM39.9395 25.5713C39.8713 25.3569 39.7437 25.1662 39.5713 25.0215C39.399 24.8768 39.1892 24.784 38.9662 24.754L35.1329 24.204L33.4102 20.7526C33.2109 20.3453 32.7969 20.086 32.3435 20.086H32.3395C32.115 20.0848 31.8946 20.1466 31.7034 20.2645C31.5122 20.3823 31.358 20.5514 31.2582 20.7526L29.5409 24.2L25.7002 24.75C25.5251 24.775 25.3672 24.8685 25.2611 25.01C25.155 25.1514 25.1095 25.3292 25.1345 25.5043C25.1595 25.6793 25.2531 25.8373 25.3945 25.9433C25.536 26.0494 25.7138 26.095 25.8889 26.07L30.0755 25.47C30.1824 25.4547 30.284 25.4138 30.3716 25.3506C30.4591 25.2874 30.53 25.2039 30.5782 25.1073L32.3329 21.5826L34.0949 25.112C34.143 25.2083 34.2137 25.2916 34.301 25.3546C34.3883 25.4176 34.4896 25.4586 34.5962 25.474L38.5122 26.036L35.6809 28.7693C35.6024 28.8449 35.5438 28.9386 35.51 29.0422C35.4761 29.1457 35.4682 29.256 35.4869 29.3633L36.1569 33.23L32.6389 31.3953C32.5437 31.3457 32.4381 31.3199 32.3309 31.3199C32.2236 31.3199 32.118 31.3457 32.0229 31.3953L28.2762 33.3486C28.1985 33.3891 28.1296 33.4444 28.0733 33.5115C28.0171 33.5786 27.9746 33.6561 27.9483 33.7396C27.922 33.8231 27.9123 33.911 27.92 33.9982C27.9276 34.0854 27.9524 34.1703 27.9929 34.248C28.0333 34.3256 28.0886 34.3945 28.1557 34.4508C28.2228 34.5071 28.3003 34.5496 28.3838 34.5759C28.4674 34.6022 28.5552 34.6118 28.6424 34.6041C28.7297 34.5965 28.8145 34.5717 28.8922 34.5313L32.3329 32.7393L35.7729 34.534C35.9725 34.6377 36.1971 34.6834 36.4213 34.6661C36.6456 34.6488 36.8606 34.5691 37.0419 34.436C37.2232 34.3029 37.3636 34.1217 37.4473 33.9129C37.531 33.7042 37.5547 33.4761 37.5155 33.2546L36.8662 29.482L39.6302 26.8153C39.7941 26.6584 39.9101 26.4582 39.9649 26.2381C40.0196 26.0179 40.0108 25.7867 39.9395 25.5713ZM16.3329 31.4266C16.3649 31.4266 16.3969 31.424 16.4289 31.4193L18.9362 31.0586C19.0427 31.0433 19.1439 31.0025 19.2312 30.9396C19.3186 30.8766 19.3893 30.7935 19.4375 30.6973L20.5975 28.378C20.6392 28.2994 20.6648 28.2133 20.6727 28.1247C20.6807 28.0361 20.6709 27.9468 20.6439 27.862C20.6168 27.7773 20.5732 27.6988 20.5154 27.6311C20.4576 27.5635 20.3869 27.5081 20.3075 27.4681C20.228 27.4282 20.1414 27.4045 20.0526 27.3985C19.9639 27.3924 19.8748 27.4042 19.7907 27.4331C19.7065 27.4619 19.629 27.5073 19.5626 27.5665C19.4963 27.6257 19.4424 27.6976 19.4042 27.778L18.4042 29.7853L16.2409 30.0966C16.0738 30.1204 15.922 30.2067 15.8161 30.3379C15.7101 30.4692 15.6579 30.6358 15.6699 30.8041C15.6819 30.9723 15.7573 31.1298 15.8808 31.2447C16.0043 31.3596 16.1668 31.4234 16.3355 31.4233L16.3329 31.4266Z" fill="#39B54A"/>
</g>
<defs>
<clipPath id="clip0_1865_6792">
<rect width="40" height="40" fill="white"/>
</clipPath>
</defs>
</svg>
