<svg width="36" height="37" viewBox="0 0 36 37" fill="none" xmlns="http://www.w3.org/2000/svg">
<path d="M29.8375 33.5329C29.3013 33.9928 28.3638 33.9928 27.8288 33.5329C26.37 32.2824 24.0763 32.2811 22.6163 33.5329C22.0788 33.9915 21.1438 33.9915 20.6063 33.5329C19.1463 32.2824 16.8538 32.2824 15.3938 33.5329C14.8563 33.9915 13.9213 33.9915 13.385 33.5329C11.9225 32.2811 9.63129 32.2811 8.17004 33.5329C7.63504 33.9903 6.69879 33.9928 6.16129 33.5329C4.70129 32.2824 2.40879 32.2824 0.948786 33.5329C0.822717 33.6407 0.718607 33.773 0.642401 33.9221C0.566195 34.0711 0.519385 34.2342 0.504644 34.4018C0.489903 34.5694 0.507519 34.7384 0.556486 34.8991C0.605454 35.0597 0.684814 35.2089 0.790036 35.3381C0.895257 35.4674 1.02428 35.5741 1.16974 35.6522C1.31519 35.7303 1.47424 35.7783 1.63778 35.7934C1.80133 35.8085 1.96618 35.7904 2.12292 35.7402C2.27966 35.6901 2.42522 35.6087 2.55129 35.5009C3.08879 35.0422 4.02254 35.0422 4.56004 35.5009C5.29579 36.1158 6.21822 36.4476 7.16754 36.4387C8.10504 36.4387 9.04254 36.1261 9.77254 35.5009C10.3075 35.0409 11.2438 35.0396 11.7825 35.5009C13.2425 36.7514 15.535 36.7514 16.995 35.5009C17.5325 35.0422 18.4675 35.0422 19.005 35.5009C20.465 36.7514 22.7575 36.7514 24.2175 35.5009C24.7525 35.0409 25.69 35.0396 26.2263 35.5009C27.6875 36.7514 29.9788 36.7526 31.44 35.5009C31.9775 35.0422 32.9125 35.0422 33.4488 35.5009C33.5749 35.6087 33.7204 35.6901 33.8772 35.7402C34.0339 35.7904 34.1987 35.8085 34.3623 35.7934C34.5258 35.7783 34.6849 35.7303 34.8303 35.6522C34.9758 35.5741 35.1048 35.4674 35.21 35.3381C35.3153 35.2089 35.3946 35.0597 35.4436 34.8991C35.4926 34.7384 35.5102 34.5694 35.4954 34.4018C35.4807 34.2342 35.4339 34.0711 35.3577 33.9221C35.2815 33.773 35.1774 33.6407 35.0513 33.5329C33.5913 32.2824 31.2988 32.2824 29.8388 33.5329H29.8375ZM32.1163 10.4383C32.2321 10.5577 32.3698 10.6525 32.5215 10.7171C32.6731 10.7818 32.8358 10.8151 33 10.8151C33.1643 10.8151 33.3269 10.7818 33.4786 10.7171C33.6303 10.6525 33.768 10.5577 33.8838 10.4383C34.1181 10.1981 34.2498 9.87223 34.2498 9.53249C34.2498 9.19275 34.1181 8.86691 33.8838 8.62664L31.3838 6.06414C31.1494 5.82395 30.8315 5.68901 30.5 5.68901C30.1686 5.68901 29.8507 5.82395 29.6163 6.06414L27.1163 8.62664C26.9969 8.74484 26.9017 8.88621 26.8362 9.04253C26.7706 9.19885 26.7362 9.36698 26.7347 9.5371C26.7333 9.70722 26.7649 9.87594 26.8278 10.0334C26.8906 10.1909 26.9834 10.3339 27.1008 10.4542C27.2182 10.5745 27.3577 10.6696 27.5113 10.7341C27.665 10.7985 27.8296 10.8309 27.9955 10.8294C28.1615 10.828 28.3255 10.7926 28.478 10.7255C28.6305 10.6583 28.7685 10.5607 28.8838 10.4383L29.25 10.0629V26.9395L28.8838 26.5641C28.7685 26.4418 28.6305 26.3442 28.478 26.277C28.3255 26.2099 28.1615 26.1745 27.9955 26.173C27.8296 26.1716 27.665 26.204 27.5113 26.2684C27.3577 26.3328 27.2182 26.428 27.1008 26.5483C26.9834 26.6686 26.8906 26.8116 26.8278 26.9691C26.7649 27.1265 26.7333 27.2952 26.7347 27.4654C26.7362 27.6355 26.7706 27.8036 26.8362 27.9599C26.9017 28.1163 26.9969 28.2576 27.1163 28.3758L29.6163 30.9383C29.7321 31.0577 29.8698 31.1525 30.0215 31.2171C30.1731 31.2818 30.3358 31.3151 30.5 31.3151C30.6643 31.3151 30.8269 31.2818 30.9786 31.2171C31.1303 31.1525 31.268 31.0577 31.3838 30.9383L33.8838 28.3758C34.0032 28.2576 34.0984 28.1163 34.1639 27.9599C34.2294 27.8036 34.2639 27.6355 34.2654 27.4654C34.2668 27.2952 34.2352 27.1265 34.1723 26.9691C34.1095 26.8116 34.0166 26.6686 33.8993 26.5483C33.7819 26.428 33.6423 26.3328 33.4887 26.2684C33.3351 26.204 33.1705 26.1716 33.0045 26.173C32.8386 26.1745 32.6745 26.2099 32.522 26.277C32.3695 26.3442 32.2316 26.4418 32.1163 26.5641L31.75 26.9395V10.0629L32.1163 10.4383ZM1.75004 31.3137C1.93042 31.3138 2.10867 31.2738 2.27247 31.1963C2.43627 31.1189 2.58173 31.006 2.69879 30.8653L9.32129 22.9472C9.32129 22.9472 12.23 25.8876 12.2863 25.9286L9.55004 29.1997C9.44317 29.3274 9.3619 29.4754 9.31085 29.6353C9.2598 29.7952 9.23997 29.9639 9.25251 30.1316C9.26505 30.2994 9.3097 30.4629 9.38391 30.613C9.45812 30.7631 9.56044 30.8967 9.68504 31.0062C9.80963 31.1158 9.95405 31.1991 10.1101 31.2514C10.2661 31.3037 10.4306 31.324 10.5942 31.3112C10.7579 31.2983 10.9175 31.2526 11.0639 31.1765C11.2103 31.1004 11.3407 30.9956 11.4475 30.8679L18 23.033L24.5513 30.8666C24.6579 30.9947 24.7881 31.1 24.9345 31.1763C25.081 31.2527 25.2407 31.2986 25.4045 31.3115C25.5683 31.3243 25.7329 31.3039 25.889 31.2513C26.045 31.1987 26.1894 31.115 26.3138 31.005C26.8388 30.5437 26.8988 29.7365 26.4488 29.1984L18.9488 20.2296C18.4738 19.6621 17.525 19.6621 17.0513 20.2296L13.8888 24.0106L13.8838 24.0016L10.1338 20.1579C10.0123 20.0326 9.8668 19.9345 9.70645 19.8697C9.5461 19.805 9.3744 19.7751 9.20218 19.7818C9.02997 19.7885 8.86099 19.8318 8.70593 19.9089C8.55086 19.986 8.41308 20.0952 8.30129 20.2296L0.801286 29.1984C0.645102 29.3842 0.544305 29.6122 0.510891 29.855C0.477477 30.0979 0.512854 30.3455 0.61281 30.5684C0.712767 30.7913 0.873094 30.98 1.07471 31.1121C1.27632 31.2443 1.51073 31.3143 1.75004 31.3137ZM26.75 3.12624H27.4825C28.2875 3.12624 29.045 3.44783 29.6163 4.03336C29.7322 4.1526 29.8699 4.24721 30.0216 4.31177C30.1732 4.37633 30.3358 4.40956 30.5 4.40956C30.6642 4.40956 30.8268 4.37633 30.9785 4.31177C31.1302 4.24721 31.2679 4.1526 31.3838 4.03336C31.6632 3.74496 31.9957 3.51627 32.3619 3.36056C32.7282 3.20484 33.121 3.1252 33.5175 3.12624H34.25C34.5816 3.12624 34.8995 2.99125 35.1339 2.75097C35.3683 2.51069 35.5 2.1848 35.5 1.84499C35.5 1.50518 35.3683 1.17929 35.1339 0.939008C34.8995 0.698727 34.5816 0.563739 34.25 0.563739H33.5175C32.43 0.563739 31.39 0.884051 30.5 1.48239C29.6035 0.880358 28.5544 0.560967 27.4825 0.563739H26.75C26.4185 0.563739 26.1006 0.698727 25.8661 0.939008C25.6317 1.17929 25.5 1.50518 25.5 1.84499C25.5 2.1848 25.6317 2.51069 25.8661 2.75097C26.1006 2.99125 26.4185 3.12624 26.75 3.12624Z" fill="#086965" fill-opacity="0.8"/>
</svg>
