<svg width="44" height="44" viewBox="0 0 44 44" fill="none" xmlns="http://www.w3.org/2000/svg">
<g opacity="0.8">
<path d="M39.2041 39.6448L34.2349 26.5782C34.7258 26.2846 35.1526 25.8951 35.4895 25.4328C35.8517 24.9352 36.0995 24.3638 36.2155 23.7594C36.3315 23.155 36.3127 22.5325 36.1605 21.9362C36.0319 21.4149 36.0534 20.8678 36.2228 20.3582C36.3922 19.8486 36.7024 19.3975 37.1175 19.0569C37.5983 18.663 37.9855 18.1671 38.2511 17.6052C38.5168 17.0432 38.6542 16.4293 38.6535 15.8077C38.6527 15.1862 38.5139 14.5725 38.2469 14.0112C37.98 13.4499 37.5917 12.9549 37.11 12.5621C36.6963 12.2203 36.3878 11.7684 36.2201 11.2587C36.0525 10.7489 36.0325 10.2021 36.1626 9.68149C36.3137 9.08608 36.3318 8.46468 36.2154 7.86152C36.0991 7.25835 35.8513 6.68823 35.4895 6.19174C35.1189 5.68184 34.6403 5.25994 34.088 4.95609C33.5357 4.65224 32.9232 4.47391 32.294 4.4338C31.7528 4.3974 31.2323 4.21112 30.7908 3.8958C30.3493 3.58049 30.0043 3.14857 29.7943 2.64836C29.5592 2.0758 29.2021 1.56141 28.7478 1.14107C28.2935 0.720726 27.753 0.404557 27.1639 0.214613C26.5663 0.0192052 25.9333 -0.04352 25.309 0.0308098C24.6847 0.10514 24.0841 0.314736 23.549 0.644988C23.0825 0.930033 22.5465 1.08086 21.9998 1.08086C21.4531 1.08086 20.917 0.930033 20.4505 0.644988C19.9155 0.314736 19.3149 0.10514 18.6905 0.0308098C18.0662 -0.04352 17.4332 0.0192052 16.8356 0.214613C16.2467 0.404685 15.7063 0.720908 15.2521 1.14124C14.798 1.56157 14.4409 2.0759 14.2059 2.64836C13.9953 3.14946 13.6493 3.58199 13.2067 3.89747C12.7641 4.21295 12.2424 4.3989 11.7 4.43449C11.0717 4.47506 10.4602 4.65363 9.90881 4.95747C9.35744 5.26132 8.87983 5.68297 8.50998 6.19242C8.14799 6.69009 7.90023 7.26149 7.78436 7.86588C7.6685 8.47028 7.68738 9.09279 7.83967 9.68905C7.96842 10.2105 7.94686 10.7577 7.77749 11.2674C7.60813 11.777 7.29788 12.2283 6.88267 12.569C6.40207 12.963 6.01503 13.4589 5.74954 14.0208C5.48405 14.5827 5.34673 15.1965 5.34752 15.818C5.34831 16.4395 5.48718 17.053 5.75411 17.6142C6.02103 18.1754 6.40932 18.6703 6.89092 19.0631C7.30449 19.405 7.61286 19.8569 7.78039 20.3667C7.94791 20.8764 7.96775 21.4232 7.83761 21.9437C7.68648 22.5391 7.66844 23.1605 7.78477 23.7637C7.9011 24.3669 8.14895 24.937 8.51067 25.4335C8.84772 25.8955 9.27445 26.2848 9.76536 26.5782L4.79611 39.6448C4.74955 39.7676 4.73915 39.9012 4.76612 40.0297C4.79309 40.1582 4.85632 40.2763 4.94831 40.3701C5.0403 40.4638 5.15721 40.5292 5.28522 40.5586C5.41322 40.588 5.54696 40.58 5.67061 40.5358L11.0833 38.5902L13.834 43.6412C13.8931 43.7498 13.9803 43.8404 14.0865 43.9036C14.1927 43.9667 14.314 44.0001 14.4376 44.0001L14.4837 43.9987C14.6149 43.99 14.7409 43.9437 14.8467 43.8655C14.9525 43.7873 15.0336 43.6803 15.0804 43.5574L19.7327 31.3302C19.9825 31.2357 20.223 31.1183 20.4512 30.9795C20.9176 30.6947 21.4536 30.544 22.0001 30.544C22.5466 30.544 23.0826 30.6947 23.549 30.9795C23.7767 31.1166 24.0165 31.233 24.2654 31.326L28.9198 43.5567C28.9666 43.6796 29.0477 43.7866 29.1535 43.8648C29.2593 43.943 29.3853 43.9893 29.5165 43.998L29.5626 43.9994C29.6862 43.9994 29.8075 43.966 29.9137 43.9029C30.0199 43.8397 30.1072 43.7491 30.1662 43.6405L32.9162 38.5895L38.3296 40.5351C38.4533 40.5794 38.587 40.5873 38.715 40.5579C38.843 40.5285 38.9599 40.4631 39.0519 40.3694C39.1439 40.2757 39.2071 40.1575 39.2341 40.029C39.2611 39.9005 39.2507 39.7676 39.2041 39.6448ZM14.3276 41.6709L12.01 37.4152C11.9316 37.2712 11.8042 37.1599 11.6509 37.1015C11.4976 37.0431 11.3285 37.0415 11.174 37.0969L6.61248 38.7366L11.0427 27.089C11.2612 27.1401 11.4832 27.1743 11.7069 27.1914C12.2481 27.2278 12.7686 27.4141 13.2101 27.7294C13.6516 28.0447 13.9966 28.4767 14.2066 28.9769C14.4417 29.5494 14.7988 30.0638 15.2531 30.4842C15.7074 30.9045 16.2479 31.2207 16.837 31.4106C17.262 31.5479 17.7056 31.6189 18.1522 31.621L14.3276 41.6709ZM19.7286 29.8101C19.3636 30.0355 18.9539 30.1784 18.5279 30.229C18.102 30.2796 17.6701 30.2366 17.2625 30.103C16.8636 29.9746 16.4974 29.7608 16.1895 29.4764C15.8816 29.1921 15.6394 28.844 15.4799 28.4564C15.171 27.7178 14.6625 27.0799 14.0113 26.6141C13.3602 26.1483 12.5922 25.873 11.7935 25.8192C11.3665 25.7918 10.9507 25.6706 10.5758 25.4643C10.201 25.258 9.87612 24.9717 9.62442 24.6257C9.38097 24.291 9.21438 23.9068 9.13654 23.5004C9.0587 23.0939 9.07153 22.6753 9.17411 22.2744C9.36578 21.5005 9.33457 20.6881 9.08408 19.9312C8.83359 19.1742 8.37404 18.5036 7.75854 17.9968C7.43411 17.7317 7.17281 17.3977 6.99363 17.019C6.81445 16.6404 6.72189 16.2265 6.72268 15.8076C6.72347 15.3886 6.81759 14.9751 6.9982 14.5971C7.17881 14.2191 7.44137 13.8861 7.76679 13.6222C8.38071 13.1141 8.83841 12.4427 9.08706 11.6856C9.33571 10.9284 9.36517 10.1164 9.17204 9.34324C9.07053 8.94324 9.05843 8.52577 9.13662 8.12057C9.21481 7.71536 9.38136 7.33237 9.62442 6.99886C9.87715 6.65212 10.2033 6.36539 10.5795 6.15909C10.9557 5.9528 11.3728 5.83202 11.801 5.80536C12.5984 5.75041 13.3647 5.4747 14.0143 5.00907C14.6639 4.54343 15.1711 3.90625 15.4792 3.1688C15.6387 2.78101 15.8811 2.43274 16.1892 2.14834C16.4974 1.86394 16.8639 1.65026 17.2632 1.52224C17.671 1.38875 18.1029 1.3458 18.5289 1.39638C18.955 1.44696 19.3648 1.58986 19.73 1.81511C20.414 2.2328 21.2 2.45378 22.0015 2.45378C22.803 2.45378 23.5889 2.2328 24.273 1.81511C24.638 1.58992 25.0478 1.44705 25.4737 1.39647C25.8996 1.34589 26.3314 1.38881 26.739 1.52224C27.1382 1.65059 27.5046 1.86447 27.8126 2.14897C28.1206 2.43347 28.3628 2.78174 28.5224 3.16949C28.8312 3.90788 29.3395 4.5457 29.9903 5.01149C30.6412 5.47729 31.4089 5.75265 32.2074 5.80674C32.6345 5.83402 33.0503 5.95504 33.4253 6.1612C33.8003 6.36735 34.1253 6.65359 34.3772 6.99955C34.6206 7.33418 34.7872 7.71842 34.865 8.12486C34.9429 8.53129 34.9301 8.94989 34.8275 9.3508C34.6358 10.1247 34.667 10.9371 34.9175 11.694C35.168 12.451 35.6275 13.1216 36.243 13.6284C36.5675 13.8935 36.8288 14.2275 37.008 14.6062C37.1871 14.9849 37.2797 15.3987 37.2789 15.8177C37.2781 16.2366 37.184 16.6501 37.0034 17.0281C36.8228 17.4061 36.5602 17.7392 36.2348 18.003C35.6209 18.5111 35.1632 19.1825 34.9145 19.9397C34.6659 20.6968 34.6364 21.5088 34.8295 22.282C34.9311 22.682 34.9432 23.0994 34.865 23.5047C34.7868 23.9099 34.6202 24.2929 34.3772 24.6264C34.1244 24.973 33.7982 25.2596 33.422 25.4658C33.0458 25.6719 32.6287 25.7926 32.2005 25.8192C31.4031 25.8742 30.6368 26.15 29.9872 26.6158C29.3376 27.0815 28.8304 27.7188 28.5224 28.4564C28.3629 28.8442 28.1205 29.1925 27.8124 29.4769C27.5042 29.7613 27.1377 29.975 26.7384 30.103C26.3307 30.2369 25.8987 30.2801 25.4726 30.2295C25.0465 30.1789 24.6366 30.0358 24.2716 29.8101C23.5876 29.3924 22.8016 29.1714 22.0001 29.1714C21.1986 29.1714 20.4127 29.3924 19.7286 29.8101ZM32.8275 37.0969C32.6731 37.0415 32.504 37.0431 32.3507 37.1015C32.1974 37.1599 32.07 37.2712 31.9915 37.4152L29.6747 41.6709L25.8501 31.6224C26.2965 31.6199 26.7399 31.5487 27.1646 31.4113C27.7538 31.2212 28.2944 30.9049 28.7488 30.4845C29.2032 30.064 29.5605 29.5495 29.7957 28.9769C30.006 28.4757 30.3518 28.0431 30.7944 27.7276C31.2369 27.4121 31.7586 27.2262 32.3009 27.1907C32.5225 27.1737 32.7425 27.1397 32.9589 27.089L37.3891 38.7359L32.8275 37.0969Z" fill="#086965"/>
<path d="M32.3125 15.8125C32.3125 13.7729 31.7077 11.7791 30.5745 10.0832C29.4414 8.38731 27.8308 7.06553 25.9464 6.285C24.0621 5.50447 21.9886 5.30025 19.9881 5.69816C17.9877 6.09607 16.1502 7.07824 14.708 8.52047C13.2657 9.9627 12.2836 11.8002 11.8857 13.8006C11.4877 15.8011 11.692 17.8746 12.4725 19.7589C13.253 21.6433 14.5748 23.2539 16.2707 24.387C17.9666 25.5202 19.9604 26.125 22 26.125C24.7341 26.1219 27.3553 25.0344 29.2886 23.1011C31.2219 21.1678 32.3094 18.5466 32.3125 15.8125ZM22 24.75C20.2323 24.75 18.5044 24.2258 17.0346 23.2438C15.5648 22.2617 14.4193 20.8659 13.7428 19.2327C13.0664 17.5996 12.8894 15.8026 13.2342 14.0689C13.5791 12.3352 14.4303 10.7427 15.6802 9.49274C16.9302 8.24281 18.5227 7.39159 20.2564 7.04674C21.9901 6.70188 23.7871 6.87887 25.4202 7.55533C27.0534 8.23179 28.4492 9.37733 29.4313 10.8471C30.4133 12.3169 30.9375 14.0448 30.9375 15.8125C30.9348 18.182 29.9923 20.4537 28.3168 22.1293C26.6412 23.8048 24.3695 24.7473 22 24.75Z" fill="#086965"/>
<path d="M27.468 13.533L24.1158 13.0462L22.617 10.0088C22.5539 9.90147 22.4638 9.81247 22.3557 9.75062C22.2476 9.68878 22.1252 9.65625 22.0007 9.65625C21.8761 9.65625 21.7538 9.68878 21.6457 9.75062C21.5375 9.81247 21.4475 9.90147 21.3843 10.0088L19.8849 13.0462L16.5327 13.533C16.4056 13.5513 16.2863 13.6048 16.1881 13.6875C16.0899 13.7702 16.0168 13.8787 15.9771 14.0007C15.9374 14.1228 15.9326 14.2535 15.9634 14.3781C15.9941 14.5027 16.0592 14.6163 16.1511 14.7058L18.578 17.0708L18.0053 20.4086C17.9837 20.535 17.9979 20.6648 18.0462 20.7836C18.0945 20.9023 18.1751 21.0051 18.2787 21.0805C18.3824 21.1558 18.5051 21.2007 18.6329 21.21C18.7607 21.2194 18.8886 21.1928 19.0022 21.1333L22.0003 19.5575L24.9985 21.1333C25.1121 21.1928 25.2399 21.2194 25.3678 21.21C25.4956 21.2007 25.6183 21.1558 25.7219 21.0805C25.8256 21.0051 25.9062 20.9023 25.9545 20.7836C26.0028 20.6648 26.017 20.535 25.9954 20.4086L25.4227 17.0701L27.8496 14.7058C27.9415 14.6163 28.0066 14.5027 28.0373 14.3781C28.0681 14.2535 28.0633 14.1228 28.0236 14.0007C27.9839 13.8787 27.9108 13.7702 27.8126 13.6875C27.7144 13.6048 27.5951 13.5513 27.468 13.533ZM24.2045 16.338C24.1248 16.4158 24.0652 16.5119 24.0308 16.6179C23.9965 16.7238 23.9883 16.8366 24.0072 16.9464L24.4052 19.2681L22.32 18.1722C22.2214 18.1204 22.1117 18.0934 22.0003 18.0934C21.889 18.0934 21.7793 18.1204 21.6807 18.1722L19.5955 19.2681L19.9942 16.9464C20.013 16.8365 20.0047 16.7238 19.9702 16.6178C19.9357 16.5118 19.876 16.4158 19.7962 16.338L18.1091 14.6935L20.4397 14.3545C20.5502 14.3387 20.6551 14.2961 20.7454 14.2306C20.8357 14.1651 20.9087 14.0785 20.9581 13.9785L22.0003 11.8665L23.0433 13.9785C23.0924 14.0785 23.1652 14.1651 23.2552 14.2307C23.3453 14.2963 23.45 14.3391 23.5603 14.3552L25.8916 14.6935L24.2045 16.338Z" fill="#086965"/>
</g>
</svg>
