<svg width="50" height="50" viewBox="0 0 50 50" fill="none" xmlns="http://www.w3.org/2000/svg">
<g opacity="0.8" clip-path="url(#clip0_912_5379)">
<path d="M45.1427 39.3339C44.6008 36.0847 42.3226 33.4185 39.1976 32.3766L32.2581 30.0637V29.0323H30.6452V30.5468L29.4419 35.3605L26.1847 31.4516H23.8153L20.5581 35.3605L19.3548 30.5468V29.0323H17.7419V30.0637L10.8032 32.3766C7.67822 33.4185 5.4 36.0847 4.85806 39.3339L3.07983 50H46.9202L45.1427 39.3339ZM34.6774 32.571L37.0968 33.3774V41.9355H34.6774V32.571ZM16.9355 32.0331L17.9774 31.6855L19.7645 38.8331L24.5718 33.0645H25.4282L30.2355 38.8331L32.0226 31.6855L33.0645 32.0331V41.9355H16.9355V32.0331ZM12.9032 33.3774L15.3226 32.571V41.9355H12.8984L12.9032 33.3774ZM11.2903 41.8911L10.5685 48.3871H4.98467L6.44838 39.6C6.89032 36.9492 8.74516 34.775 11.2903 33.9169V41.8911ZM25 48.3871H12.1911L12.729 43.5484H37.275L37.8089 48.3871H25ZM39.4314 48.3871L38.7097 41.8911V33.9169C41.2548 34.775 43.1097 36.9492 43.5516 39.6L45.0153 48.3871H39.4314ZM9.51451 18.0573L9.84032 16.4774C5.17419 15.5169 4.84032 14.5242 4.8387 14.5169C4.97741 13.4226 12.2185 11.2903 25 11.2903C37.7814 11.2903 45.0226 13.4226 45.1613 14.5145C45.1597 14.5242 44.8258 15.5169 40.1597 16.4774L40.4855 18.0573C44.7758 17.1734 46.7742 16.0484 46.7742 14.5161C46.7742 12.3589 42.2508 11.0968 36.954 10.4056C36.1242 4.50887 31.0323 0 25 0C18.9677 0 13.8758 4.50887 13.046 10.4056C7.74919 11.0968 3.2258 12.3589 3.2258 14.5161C3.2258 16.0484 5.22419 17.1734 9.51451 18.0573ZM25 1.6129C30.0831 1.6129 34.3992 5.30726 35.296 10.2097C31.6597 9.82258 27.85 9.67742 25 9.67742C22.15 9.67742 18.3403 9.82258 14.704 10.2097C15.6008 5.30726 19.9169 1.6129 25 1.6129Z" fill="#086965"/>
<path d="M34.7621 13.3824C31.7508 13.0646 28.4661 12.9033 25 12.9033C21.5338 12.9033 18.2492 13.0646 15.2379 13.3824L14.5161 13.459V13.7912C12.6782 14.1662 11.2903 15.7944 11.2903 17.742C11.2903 19.8114 12.8629 21.5017 14.8725 21.7291C15.2838 23.1444 16.0435 24.442 17.1145 25.513L20.2588 28.6582C21.0201 29.4194 22.033 29.8388 23.1104 29.8388H26.8895C27.9669 29.8388 28.9798 29.4194 29.7411 28.6582L32.8854 25.513C33.9564 24.442 34.7153 23.1436 35.1274 21.7291C37.1371 21.5017 38.7096 19.8114 38.7096 17.742C38.7096 15.7953 37.3217 14.1662 35.4838 13.7912V13.459L34.7621 13.3824ZM12.9032 17.742C12.9032 16.692 13.5798 15.8049 14.5161 15.4711V19.2404C14.5161 19.5041 14.5314 19.7654 14.554 20.0251C13.5983 19.7017 12.9032 18.8057 12.9032 17.742ZM33.8709 19.2404C33.8709 21.1791 33.1153 23.0017 31.7451 24.3727L28.6008 27.5178C28.1435 27.9743 27.5362 28.2259 26.8895 28.2259H23.1104C22.4637 28.2259 21.8556 27.9743 21.3992 27.5178L18.2548 24.3727C16.8846 23.0017 16.129 21.1791 16.129 19.2404V14.9138C18.8854 14.6501 21.8653 14.5162 25 14.5162C28.1346 14.5162 31.1145 14.6501 33.8709 14.9138V19.2404ZM37.0967 17.742C37.0967 18.8057 36.4016 19.7017 35.4459 20.0243C35.4685 19.7654 35.4838 19.5041 35.4838 19.2404V15.4711C36.4201 15.8049 37.0967 16.692 37.0967 17.742Z" fill="#086965"/>
<path d="M20.1614 22.5807V25.0001H29.8388V22.5807C29.8388 21.2469 28.7533 20.1614 27.4194 20.1614H22.5807C21.2469 20.1614 20.1614 21.2469 20.1614 22.5807ZM28.2259 22.5807V23.3872H21.7743V22.5807C21.7743 22.1364 22.1356 21.7743 22.5807 21.7743H27.4194C27.8646 21.7743 28.2259 22.1364 28.2259 22.5807ZM24.1936 35.484H25.8065V37.0969H24.1936V35.484ZM24.1936 38.7098H25.8065V40.3227H24.1936V38.7098Z" fill="#086965"/>
</g>
<defs>
<clipPath id="clip0_912_5379">
<rect width="50" height="50" fill="white"/>
</clipPath>
</defs>
</svg>
