<svg width="41" height="44" viewBox="0 0 41 44" fill="none" xmlns="http://www.w3.org/2000/svg">
<path d="M39.2907 35.9929H33.2085C33.0415 35.9929 32.8812 36.0593 32.7631 36.1774C32.645 36.2956 32.5786 36.4558 32.5786 36.6228C32.5786 36.7899 32.645 36.9501 32.7631 37.0682C32.8812 37.1863 33.0415 37.2527 33.2085 37.2527H38.6608V37.608L29.4892 39.3498H11.1043L1.93274 37.608V37.2527H4.43715L4.44009 37.2529L4.44244 37.2527H6.71187L6.71405 37.2529L6.71766 37.2527H14.2693L14.2706 37.2528L14.2718 37.2527H16.5222L16.5242 37.2529L16.5263 37.2527H24.0672L24.0693 37.2529L24.0713 37.2527H30.8695C31.0365 37.2527 31.1967 37.1863 31.3149 37.0682C31.433 36.9501 31.4993 36.7899 31.4993 36.6228C31.4993 36.4558 31.433 36.2956 31.3149 36.1774C31.1967 36.0593 31.0365 35.9929 30.8695 35.9929H26.8066C27.5589 35.5149 28.2609 34.9551 28.8921 34.3243C29.803 33.4129 30.5509 32.3821 31.1225 31.2676C31.919 31.5921 32.7624 31.7568 33.6368 31.7568C37.3258 31.7568 40.327 28.7552 40.327 25.0657C40.327 21.3767 37.3258 18.3755 33.6368 18.3755C33.237 18.3755 32.8409 18.4117 32.4517 18.4815V18.1212C32.4517 17.3149 31.7958 16.659 30.9896 16.659H28.0106C27.8436 16.659 27.6834 16.7253 27.5652 16.8435C27.4471 16.9616 27.3808 17.1218 27.3808 17.2889C27.3808 17.4559 27.4471 17.6161 27.5652 17.7343C27.6834 17.8524 27.8436 17.9187 28.0106 17.9187H30.9896C31.0433 17.9188 31.0947 17.9402 31.1327 17.9781C31.1706 18.0161 31.1919 18.0675 31.192 18.1212V19.192H9.40055V18.1212C9.40061 18.0675 9.42196 18.016 9.4599 17.9781C9.49784 17.9402 9.54929 17.9188 9.60295 17.9187H25.6708C25.8379 17.9187 25.9981 17.8524 26.1162 17.7343C26.2344 17.6161 26.3007 17.4559 26.3007 17.2889C26.3007 17.1218 26.2344 16.9616 26.1162 16.8435C25.9981 16.7253 25.8379 16.659 25.6708 16.659H9.60295C8.7967 16.659 8.14078 17.3149 8.14078 18.1212V25.7285C8.14079 26.6736 8.25074 27.6155 8.4684 28.5352C7.44321 28.2295 6.22157 28.4697 5.10693 29.2324C5.03866 29.2791 4.98026 29.3388 4.93506 29.408C4.88986 29.4773 4.85875 29.5548 4.8435 29.6361C4.82826 29.7174 4.82917 29.8009 4.8462 29.8819C4.86323 29.9628 4.89603 30.0396 4.94274 30.1079C4.98945 30.1762 5.04914 30.2346 5.11842 30.2798C5.1877 30.325 5.2652 30.3561 5.3465 30.3713C5.4278 30.3866 5.51131 30.3857 5.59226 30.3686C5.67321 30.3516 5.75001 30.3188 5.81828 30.2721C6.54877 29.7723 7.31538 29.5761 7.9493 29.7031L5.65501 33.1357C5.56351 33.2746 5.53066 33.444 5.56362 33.6071C5.59658 33.7701 5.69268 33.9135 5.83096 34.0059C5.96923 34.0983 6.13844 34.1323 6.30168 34.1004C6.46492 34.0686 6.60893 33.9734 6.7023 33.8358L8.99725 30.402C9.23526 30.7553 9.36569 31.2177 9.37182 31.7565V31.7572L9.37191 31.7607C9.38039 32.5928 9.08963 33.4929 8.55339 34.2951C8.24769 34.7526 7.88622 35.1449 7.47688 35.4627C7.1931 35.6849 6.89496 35.8627 6.5895 35.9929H4.59966C4.57659 35.9794 4.55391 35.9652 4.53164 35.9504C3.48292 35.2499 3.41658 33.4385 4.38055 31.8264C4.46489 31.6831 4.48913 31.5122 4.44801 31.3511C4.40688 31.19 4.30371 31.0517 4.161 30.9663C4.01829 30.881 3.84763 30.8555 3.68622 30.8955C3.52482 30.9355 3.38577 31.0377 3.29942 31.1798C2.6849 32.2073 2.38474 33.3522 2.45428 34.4036C2.49375 35.0002 2.64988 35.5377 2.90687 35.9929H1.30286C1.1358 35.9929 0.975588 36.0592 0.857462 36.1773C0.739336 36.2955 0.672974 36.4557 0.672974 36.6227V38.1294C0.672981 38.2761 0.724168 38.4181 0.817707 38.5311C0.911245 38.6441 1.04127 38.7209 1.18536 38.7482L10.448 40.5073V42.3714C10.448 42.5384 10.5144 42.6987 10.6325 42.8168C10.7506 42.9349 10.9108 43.0013 11.0779 43.0013H29.5148C29.6819 43.0013 29.8421 42.9349 29.9602 42.8168C30.0783 42.6987 30.1447 42.5384 30.1447 42.3714V40.5074L39.4082 38.7482C39.5522 38.7209 39.6823 38.6441 39.7758 38.5311C39.8694 38.4181 39.9205 38.2761 39.9205 38.1294V36.6227C39.9205 36.4557 39.8542 36.2955 39.736 36.1774C39.6179 36.0593 39.4577 35.9929 39.2907 35.9929ZM32.4517 25.7283V22.7482C32.8182 22.5596 33.2245 22.4612 33.6368 22.4614C35.0728 22.4614 36.2411 23.6297 36.2411 25.0657C36.2411 26.5018 35.0728 27.6701 33.6368 27.6701C33.1843 27.6706 32.7397 27.5524 32.3473 27.3272C32.4167 26.797 32.4516 26.2629 32.4517 25.7283ZM32.1082 28.6152C32.5908 28.8235 33.1111 28.9306 33.6368 28.9299C35.7674 28.9299 37.5009 27.1965 37.5009 25.0658C37.5009 22.9351 35.7674 21.2017 33.6368 21.2017C33.2303 21.2017 32.8315 21.2653 32.4517 21.3876V19.8283C32.4517 19.8261 32.4521 19.824 32.4521 19.8218C32.4521 19.8196 32.4517 19.8176 32.4517 19.8154V19.7659C32.8408 19.679 33.2382 19.6352 33.6368 19.6353C36.6311 19.6353 39.0673 22.0714 39.0673 25.0657C39.0673 28.0605 36.6311 30.497 33.6368 30.497C32.9424 30.497 32.2729 30.3676 31.6394 30.1159C31.8283 29.6264 31.9848 29.1252 32.1082 28.6152ZM9.40055 20.4517H31.192V25.7284C31.192 28.6388 30.0588 31.3752 28.0013 33.4335C26.8614 34.5727 25.4652 35.4555 23.9589 35.9929H16.6354C16.4314 35.9207 16.2297 35.8423 16.0304 35.7578C16.4926 35.0312 16.6687 34.2227 16.5166 33.4522L16.5162 33.4493C16.516 33.4481 16.5155 33.447 16.5154 33.4458C16.3146 32.4434 15.6063 31.6187 14.5206 31.1234C13.5035 30.6593 12.2605 30.5392 11.0203 30.7855C10.9078 30.808 10.796 30.8334 10.6848 30.8617C9.84407 29.29 9.40055 27.526 9.40055 25.7285V20.4517ZM9.60093 34.995C10.184 34.1226 10.5359 33.1443 10.6145 32.1963C10.8277 32.1239 11.0452 32.0654 11.2658 32.021C12.8685 31.7029 14.4138 32.1851 15.03 33.1025L10.982 33.9072C10.8286 33.9376 10.692 34.024 10.5987 34.1495C10.5055 34.275 10.4623 34.4308 10.4775 34.5864C10.4927 34.7421 10.5653 34.8865 10.6811 34.9915C10.7969 35.0966 10.9477 35.1549 11.1041 35.1549C11.1447 35.1549 11.1861 35.151 11.2275 35.1427L15.2781 34.3374C15.1973 34.7518 14.9664 35.1672 14.5964 35.5488L14.5936 35.5519C14.4393 35.7102 14.2648 35.8576 14.0749 35.9928H8.77872C9.08595 35.689 9.36144 35.3547 9.60093 34.995ZM28.8849 41.7417H11.7077V40.6096H28.8849V41.7417ZM21.9084 12.612C21.8916 12.6226 21.8937 12.6213 21.9084 12.612V12.612Z" fill="#086965" fill-opacity="0.8"/>
<path d="M23.2997 6.87686C24.1479 6.07061 24.6365 4.95337 24.6365 3.75407C24.6365 2.26125 23.8808 0.89457 22.615 0.0980616C22.545 0.053627 22.4669 0.0234547 22.3851 0.00927587C22.3034 -0.00490298 22.2197 -0.0028093 22.1389 0.0154368C22.058 0.0336829 21.9815 0.0677222 21.9138 0.115602C21.8461 0.163481 21.7885 0.224259 21.7443 0.294447C21.7002 0.364635 21.6703 0.442852 21.6564 0.52461C21.6426 0.606368 21.645 0.690058 21.6635 0.770879C21.6821 0.851699 21.7165 0.928059 21.7646 0.995577C21.8127 1.06309 21.8737 1.12044 21.9441 1.16433C22.8412 1.72879 23.3768 2.69687 23.3768 3.75399C23.3768 4.8111 22.8412 5.77918 21.9441 6.34364C21.559 6.58518 21.559 7.16753 21.9441 7.40991C22.8412 7.97437 23.3768 8.94246 23.3768 9.99957C23.3769 11.0568 22.8413 12.0249 21.9442 12.5894L21.936 12.5946L21.9442 12.5895C21.8045 12.6792 21.7058 12.8205 21.6697 12.9825C21.6336 13.1446 21.663 13.3144 21.7514 13.4549C21.8398 13.5954 21.9801 13.6954 22.1418 13.733C22.3036 13.7706 22.4736 13.7429 22.615 13.6557C23.8808 12.8593 24.6365 11.4926 24.6365 9.99982C24.6365 8.80036 24.1479 7.68311 23.2997 6.87686ZM22.2727 12.3826C22.2876 12.3733 22.2894 12.3721 22.2727 12.3826V12.3826ZM27.0478 6.34381C26.9778 6.29938 26.8997 6.26921 26.818 6.25503C26.7363 6.24085 26.6526 6.24294 26.5717 6.26119C26.4908 6.27943 26.4143 6.31347 26.3466 6.36135C26.2789 6.40923 26.2213 6.47001 26.1772 6.5402C26.133 6.61039 26.1031 6.6886 26.0893 6.77036C26.0754 6.85212 26.0779 6.93581 26.0964 7.01663C26.115 7.09745 26.1493 7.17381 26.1975 7.24133C26.2456 7.30885 26.3066 7.36619 26.377 7.41008C27.274 7.97454 27.8096 8.94271 27.8096 9.99982C27.8097 11.0568 27.2741 12.0249 26.377 12.5894C26.2373 12.6791 26.1387 12.8204 26.1026 12.9824C26.0665 13.1445 26.0958 13.3143 26.1842 13.4548C26.2727 13.5954 26.413 13.6953 26.5747 13.7329C26.7364 13.7705 26.9065 13.7428 27.0478 13.6557C28.3136 12.8592 29.0692 11.4925 29.0692 9.99974C29.0692 8.507 28.3136 7.14024 27.0478 6.34381ZM17.8192 6.34373C17.7492 6.29929 17.6711 6.26912 17.5894 6.25494C17.5077 6.24076 17.424 6.24286 17.3431 6.2611C17.2622 6.27935 17.1857 6.31339 17.118 6.36127C17.0503 6.40915 16.9927 6.46993 16.9486 6.54011C16.9044 6.6103 16.8745 6.68852 16.8607 6.77028C16.8468 6.85203 16.8492 6.93573 16.8678 7.01655C16.8864 7.09737 16.9207 7.17373 16.9688 7.24124C17.017 7.30876 17.078 7.36611 17.1483 7.40999C18.0455 7.97445 18.581 8.94254 18.581 9.99965C18.5811 11.0568 18.0455 12.0249 17.1484 12.5894C17.0087 12.6791 16.9101 12.8204 16.874 12.9824C16.8379 13.1445 16.8672 13.3143 16.9556 13.4548C17.044 13.5954 17.1844 13.6953 17.3461 13.7329C17.5078 13.7705 17.6778 13.7428 17.8192 13.6557C19.085 12.8592 19.8407 11.4925 19.8407 9.99974C19.8407 8.50691 19.085 7.14024 17.8192 6.34373Z" fill="#086965" fill-opacity="0.8"/>
</svg>
