<svg width="30" height="30" viewBox="0 0 30 30" fill="none" xmlns="http://www.w3.org/2000/svg">
<path d="M28.8125 17.9338C28.5001 17.9356 28.1906 17.8744 27.9025 17.7537C27.6144 17.633 27.3537 17.4554 27.1359 17.2314C26.3163 16.4807 25.2452 16.0643 24.1338 16.0643C23.0223 16.0643 21.9512 16.4807 21.1317 17.2314L21.0881 17.2654C19.5305 11.2018 11.9368 1.0007 11.6 0.551259C11.4967 0.425758 11.367 0.324681 11.22 0.255286C11.073 0.185892 10.9125 0.149902 10.75 0.149902C10.5875 0.149902 10.427 0.185892 10.28 0.255286C10.133 0.324681 10.0033 0.425758 9.9 0.551259C8.89913 1.89001 0.125 13.7741 0.125 19.2513C0.124775 21.1756 0.647154 23.0638 1.63637 24.7144C2.62558 26.365 4.04448 27.7159 5.74159 28.623C7.4387 29.5301 9.35029 29.9592 11.2723 29.8647C13.1943 29.7701 15.0545 29.1553 16.6543 28.0859C16.8885 27.9291 17.0508 27.6857 17.1055 27.4092C17.1602 27.1328 17.1028 26.8459 16.946 26.6117C16.7892 26.3776 16.5457 26.2153 16.2693 26.1606C15.9928 26.1059 15.7059 26.1633 15.4718 26.3201C14.1918 27.1751 12.7037 27.6666 11.1663 27.742C9.62889 27.8174 8.09985 27.4739 6.7424 26.7481C5.38496 26.0224 4.25007 24.9417 3.45886 23.6213C2.66765 22.301 2.24983 20.7905 2.25 19.2513C2.25 15.5994 7.7665 7.14938 10.75 2.99501C12.8102 5.88076 17.975 13.4266 19.0513 17.8966C18.5749 17.8007 18.1359 17.5706 17.7859 17.2336C16.9671 16.4826 15.8964 16.066 14.7854 16.066C13.6743 16.066 12.6037 16.4826 11.7849 17.2336C11.5678 17.4569 11.3079 17.6341 11.0207 17.7546C10.7335 17.8751 10.425 17.9364 10.1136 17.9348C9.83177 17.9348 9.56152 18.0468 9.36226 18.246C9.163 18.4453 9.05106 18.7155 9.05106 18.9973C9.05106 19.2791 9.163 19.5494 9.36226 19.7486C9.56152 19.9479 9.83177 20.0598 10.1136 20.0598C11.2263 20.0698 12.3003 19.6513 13.113 18.8911C13.3312 18.6689 13.5914 18.4924 13.8786 18.3719C14.1657 18.2515 14.474 18.1894 14.7854 18.1894C15.0968 18.1894 15.405 18.2515 15.6922 18.3719C15.9793 18.4924 16.2396 18.6689 16.4578 18.8911C17.2771 19.6417 18.3481 20.0581 19.4593 20.0581C20.5706 20.0581 21.6415 19.6417 22.4609 18.8911C22.6797 18.6687 22.9406 18.492 23.2283 18.3715C23.5161 18.2509 23.825 18.1888 24.137 18.1888C24.449 18.1888 24.7578 18.2509 25.0456 18.3715C25.3334 18.492 25.5942 18.6687 25.8131 18.8911C26.6265 19.65 27.7001 20.0679 28.8125 20.0588C29.0943 20.0588 29.3645 19.9468 29.5638 19.7476C29.7631 19.5483 29.875 19.2781 29.875 18.9963C29.875 18.7145 29.7631 18.4442 29.5638 18.245C29.3645 18.0457 29.0943 17.9338 28.8125 17.9338Z" fill="#086965" fill-opacity="0.8"/>
<path d="M28.8125 22.3112C28.5001 22.3131 28.1906 22.2519 27.9025 22.1312C27.6144 22.0105 27.3537 21.8329 27.1359 21.6089C26.3163 20.8582 25.2452 20.4418 24.1338 20.4418C23.0223 20.4418 21.9512 20.8582 21.1317 21.6089C20.9132 21.8314 20.6526 22.0081 20.3651 22.1287C20.0776 22.2493 19.769 22.3114 19.4572 22.3114C19.1454 22.3114 18.8368 22.2493 18.5493 22.1287C18.2617 22.0081 18.0012 21.8314 17.7827 21.6089C16.9639 20.858 15.8932 20.4413 14.7822 20.4413C13.6711 20.4413 12.6005 20.858 11.7817 21.6089C11.5646 21.8323 11.3047 22.0095 11.0175 22.13C10.7304 22.2505 10.4218 22.3118 10.1104 22.3102C9.82858 22.3102 9.55833 22.4221 9.35907 22.6214C9.15982 22.8206 9.04787 23.0909 9.04787 23.3727C9.04787 23.6545 9.15982 23.9247 9.35907 24.124C9.55833 24.3232 9.82858 24.4352 10.1104 24.4352C11.2232 24.4451 12.2971 24.0267 13.1098 23.2664C13.328 23.0443 13.5882 22.8678 13.8754 22.7473C14.1625 22.6268 14.4708 22.5648 14.7822 22.5648C15.0936 22.5648 15.4018 22.6268 15.689 22.7473C15.9761 22.8678 16.2364 23.0443 16.4546 23.2664C17.2739 24.0171 18.3449 24.4335 19.4561 24.4335C20.5674 24.4335 21.6383 24.0171 22.4577 23.2664C22.6765 23.044 22.9374 22.8674 23.2251 22.7468C23.5129 22.6263 23.8218 22.5642 24.1338 22.5642C24.4458 22.5642 24.7547 22.6263 25.0424 22.7468C25.3302 22.8674 25.5911 23.044 25.8099 23.2664C26.6238 24.0269 27.6987 24.4456 28.8125 24.4362C29.0943 24.4362 29.3645 24.3243 29.5638 24.1251C29.7631 23.9258 29.875 23.6555 29.875 23.3737C29.875 23.092 29.7631 22.8217 29.5638 22.6224C29.3645 22.4232 29.0943 22.3112 28.8125 22.3112ZM25.0938 13.9388C26.3618 13.9388 27.5779 13.435 28.4746 12.5384C29.3713 11.6417 29.875 10.4256 29.875 9.1575C29.875 6.85931 26.5951 2.46375 25.9374 1.60525C25.834 1.48214 25.7048 1.38316 25.5591 1.31525C25.4134 1.24735 25.2545 1.21216 25.0938 1.21216C24.933 1.21216 24.7741 1.24735 24.6284 1.31525C24.4827 1.38316 24.3535 1.48214 24.2501 1.60525C23.5924 2.46375 20.3125 6.85931 20.3125 9.1575C20.3125 10.4256 20.8162 11.6417 21.7129 12.5384C22.6096 13.435 23.8257 13.9388 25.0938 13.9388ZM25.0938 4.0575C26.3857 5.89987 27.75 8.20125 27.75 9.1575C27.75 9.86198 27.4701 10.5376 26.972 11.0358C26.4739 11.5339 25.7982 11.8137 25.0938 11.8137C24.3893 11.8137 23.7136 11.5339 23.2155 11.0358C22.7174 10.5376 22.4375 9.86198 22.4375 9.1575C22.4375 8.20125 23.8018 5.89987 25.0938 4.0575Z" fill="#086965" fill-opacity="0.8"/>
</svg>
