<svg width="44" height="45" viewBox="0 0 44 45" fill="none" xmlns="http://www.w3.org/2000/svg">
<path d="M43.1221 28.1104L39.9918 26.31L43.0926 24.6849C43.5125 24.4647 43.6747 23.9457 43.4544 23.5258C43.2339 23.1055 42.715 22.9434 42.2953 23.164L38.2281 25.2956L34.3451 23.0626C34.4479 22.7178 34.5002 22.3599 34.5002 22C34.5002 21.6308 34.4454 21.2746 34.3447 20.9376L38.2288 18.7049L42.295 20.8382C42.4177 20.9031 42.5543 20.937 42.6931 20.9369C42.8852 20.9369 43.0717 20.8726 43.2228 20.7542C43.374 20.6358 43.4812 20.4701 43.5272 20.2837C43.5732 20.0972 43.5553 19.9007 43.4766 19.7256C43.3978 19.5505 43.2626 19.4068 43.0926 19.3175L39.9925 17.6907L43.1218 15.8918C43.5327 15.6554 43.6744 15.1304 43.438 14.7192C43.2017 14.3083 42.6766 14.1667 42.2659 14.4026L39.1278 16.2066L39.2644 12.7154C39.2828 12.2415 38.9136 11.8423 38.4396 11.8238C37.9659 11.8048 37.5668 12.1743 37.548 12.6483L37.3694 17.2178L33.4867 19.4498C32.9949 18.9268 32.3541 18.5458 31.6327 18.3749V13.9242L35.5156 11.4871C35.9171 11.2351 36.0383 10.705 35.7862 10.3035C35.5341 9.90167 35.004 9.7805 34.6025 10.0326L31.6327 11.8967V8.29472C31.6327 8.18195 31.6105 8.07028 31.5674 7.96609C31.5243 7.8619 31.461 7.76723 31.3813 7.68749C31.3015 7.60775 31.2069 7.5445 31.1027 7.50135C30.9985 7.45821 30.8868 7.43601 30.774 7.43604C30.6613 7.436 30.5496 7.45819 30.4454 7.50133C30.3412 7.54447 30.2465 7.60772 30.1667 7.68746C30.087 7.7672 30.0237 7.86187 29.9806 7.96607C29.9374 8.07027 29.9152 8.18195 29.9153 8.29472V11.8971L26.9427 10.0326C26.5413 9.7805 26.0111 9.90167 25.7591 10.3035C25.5073 10.7054 25.6284 11.2354 26.0303 11.4871L29.9153 13.9243V18.3749C29.1936 18.5454 28.5524 18.9261 28.0603 19.4492L24.6802 17.5054V8.29464C24.6802 8.18187 24.658 8.0702 24.6149 7.96601C24.5717 7.86182 24.5084 7.76716 24.4287 7.68743C24.3489 7.6077 24.2543 7.54446 24.1501 7.50132C24.0459 7.45819 23.9342 7.436 23.8214 7.43604C17.3648 7.43604 11.7398 11.9366 10.1429 18.3803C10.0288 18.8409 10.3095 19.3065 10.7697 19.4206C11.23 19.5347 11.6959 19.2537 11.8097 18.7935C13.1451 13.4066 17.6629 9.56127 22.9627 9.184V34.8185C17.6621 34.4412 13.1447 30.5948 11.8097 25.2063C11.6959 24.746 11.23 24.4658 10.7697 24.5792C10.3095 24.6933 10.0289 25.1589 10.1429 25.6192C11.7395 32.0645 17.3644 36.5661 23.8214 36.5661C23.9342 36.5661 24.0459 36.5439 24.1501 36.5008C24.2543 36.4577 24.349 36.3944 24.4287 36.3147C24.5085 36.2349 24.5717 36.1403 24.6149 36.0361C24.658 35.9319 24.6802 35.8202 24.6802 35.7074V26.4941L28.0589 24.5513C28.5513 25.0751 29.1929 25.4564 29.9153 25.6275V30.0758L26.03 32.515C25.6282 32.7674 25.507 33.2975 25.7594 33.699C26.0115 34.1005 26.5416 34.2216 26.9431 33.9696L29.9153 32.1034V35.7078C29.9153 36.1818 30.2997 36.5664 30.774 36.5664C31.2484 36.5664 31.6327 36.1818 31.6327 35.7078V32.1039L34.6023 33.9696C34.7388 34.0555 34.8968 34.1012 35.0581 34.1012C35.2036 34.1014 35.3468 34.0646 35.4742 33.9943C35.6015 33.9239 35.7089 33.8223 35.7862 33.6991C36.0383 33.2976 35.9175 32.7675 35.5156 32.5151L31.6327 30.0758V25.6271C32.3544 25.4559 32.9957 25.0745 33.4878 24.5506L37.3694 26.7832L37.548 31.3511C37.566 31.8137 37.9467 32.1762 38.4056 32.1762C38.4171 32.1762 38.4285 32.1762 38.4396 32.1756C38.9136 32.1571 39.2828 31.7579 39.2644 31.284L39.1278 27.7944L42.2654 29.5991C42.3632 29.6554 42.471 29.6919 42.5829 29.7065C42.6948 29.7211 42.8084 29.7135 42.9173 29.6841C43.0262 29.6547 43.1283 29.6042 43.2176 29.5353C43.307 29.4665 43.3819 29.3806 43.438 29.2828C43.6747 28.8716 43.533 28.3469 43.1221 28.1103V28.1104ZM24.6805 24.513V19.4867L27.2015 20.9362C26.9939 21.6301 26.9938 22.3696 27.2012 23.0635L24.6805 24.513ZM30.7743 24.0109C29.6655 24.0109 28.7632 23.1089 28.7632 21.9997C28.7632 20.8923 29.6655 19.9913 30.7744 19.9913C31.8818 19.9913 32.7827 20.8923 32.7827 21.9997C32.7827 23.1089 31.8817 24.0109 30.7743 24.0109Z" fill="#086965" fill-opacity="0.8"/>
<path d="M10.5622 22.8599C11.0349 22.8599 11.4199 22.4752 11.4199 21.9998C11.4199 21.5272 11.0349 21.1425 10.5622 21.1425C10.0873 21.1425 9.70251 21.5272 9.70251 21.9998C9.70251 22.4749 10.0873 22.8599 10.5622 22.8599ZM4.94037 8.04305L8.79922 11.1196C8.95095 11.2411 9.13957 11.3072 9.33392 11.307C9.46305 11.3071 9.59055 11.2782 9.70691 11.2222C9.82327 11.1663 9.9255 11.0847 10.006 10.9837C10.3018 10.6127 10.2407 10.0723 9.87009 9.77692L6.01124 6.70036C5.64067 6.40456 5.10021 6.46532 4.80442 6.83623C4.50905 7.20722 4.56981 7.74733 4.94037 8.04305ZM15.0042 5.6734C15.0744 5.81916 15.1843 5.94214 15.3213 6.02819C15.4583 6.11424 15.6168 6.15986 15.7785 6.15981C15.9035 6.15981 16.0303 6.13231 16.1506 6.07456C16.5779 5.86874 16.7575 5.35552 16.5517 4.92815L14.4126 0.487248C14.2068 0.0603107 13.6939 -0.119299 13.2665 0.0864357C12.8391 0.292256 12.6595 0.805475 12.8654 1.2325L15.0042 5.6734ZM8.79914 32.8827L4.94037 35.9592C4.56981 36.255 4.50896 36.7952 4.80442 37.1661C4.88481 37.2672 4.98702 37.3488 5.1034 37.4048C5.21978 37.4608 5.3473 37.4897 5.47645 37.4894C5.67083 37.4897 5.85948 37.4236 6.01124 37.3021L9.87009 34.2255C10.2407 33.9301 10.3018 33.3896 10.006 33.0186C9.71024 32.6481 9.17004 32.587 8.79914 32.8827ZM16.1506 37.9254C15.7229 37.7193 15.2099 37.8993 15.0042 38.3266L12.8654 42.7699C12.6597 43.1972 12.8392 43.7101 13.2666 43.9159C13.3825 43.9721 13.5097 44.0012 13.6385 44.0012C13.8003 44.0013 13.9588 43.9556 14.0959 43.8696C14.2329 43.7835 14.3428 43.6605 14.413 43.5148L16.5517 39.0716C16.7575 38.6442 16.5779 38.1309 16.1506 37.9255V37.9254ZM0.753923 17.6167L5.56015 18.713C5.6246 18.7278 5.68871 18.7345 5.75222 18.7345C6.14392 18.7345 6.49773 18.465 6.58839 18.0668C6.69384 17.6043 6.40449 17.144 5.94214 17.0386L1.13566 15.9422C0.673142 15.8375 0.213204 16.1262 0.107845 16.5888C0.00239942 17.051 0.291493 17.5113 0.754095 17.6167H0.753923ZM6.58831 25.9328C6.4826 25.4706 6.02198 25.1812 5.55972 25.2869L0.753235 26.3857C0.291064 26.4911 0.00196974 26.9516 0.107759 27.4142C0.198681 27.8121 0.552571 28.0816 0.943931 28.0816C1.00744 28.0816 1.07189 28.0746 1.136 28.0601L5.94249 26.9614C6.40466 26.8557 6.6941 26.3951 6.58831 25.9328Z" fill="#086965" fill-opacity="0.8"/>
</svg>
