<svg width="36" height="37" viewBox="0 0 36 37" fill="none" xmlns="http://www.w3.org/2000/svg">
<path d="M35.4727 32.1059H31.1025C31.3703 31.9111 31.6225 31.6956 31.8567 31.4614C33.7655 29.5526 34.1118 26.7931 32.6287 25.31C31.9383 24.6196 30.9507 24.2979 29.8479 24.4035C29.7789 24.4101 29.712 24.4302 29.6508 24.4627C29.5897 24.4952 29.5355 24.5395 29.4914 24.5929C29.4474 24.6463 29.4143 24.7079 29.394 24.7741C29.3737 24.8403 29.3667 24.9099 29.3733 24.9789C29.3799 25.0478 29.4 25.1148 29.4325 25.176C29.465 25.2371 29.5092 25.2913 29.5627 25.3354C29.6161 25.3795 29.6777 25.4126 29.7439 25.4328C29.8102 25.4531 29.8798 25.4601 29.9487 25.4534C30.7322 25.378 31.4193 25.5921 31.883 26.0558C32.9548 27.1277 32.6085 29.2181 31.111 30.7156C30.3661 31.4605 29.4554 31.9422 28.5467 32.072C28.3898 32.0948 28.2315 32.1061 28.073 32.1059C27.42 32.1042 26.8549 31.8915 26.4511 31.4877C25.9528 30.9892 25.7453 30.2453 25.8671 29.3927C25.9969 28.484 26.4788 27.5734 27.2239 26.8286C27.4392 26.6127 27.6731 26.4162 27.9228 26.2412C28.0375 26.1611 28.1156 26.0388 28.1401 25.9011C28.1646 25.7634 28.1333 25.6216 28.0533 25.5069C27.9732 25.3922 27.8509 25.314 27.7132 25.2896C27.5755 25.2651 27.4337 25.2963 27.319 25.3764C27.0186 25.5868 26.7372 25.8231 26.4781 26.0827C26.295 26.266 26.1232 26.4603 25.9637 26.6646C25.8193 26.1534 25.5604 25.6899 25.1808 25.3103C23.6977 23.8273 20.9384 24.1737 19.0297 26.0825C18.8514 26.261 18.6838 26.4499 18.5278 26.6483C18.3788 26.137 18.1149 25.6826 17.7425 25.3103C17.0035 24.5712 15.9415 24.2579 14.7523 24.4277C13.6192 24.5896 12.4966 25.1773 11.5914 26.0825C11.4101 26.2638 11.2401 26.456 11.0823 26.6581C10.9339 26.1429 10.6692 25.6849 10.2945 25.3102C9.55547 24.5712 8.49333 24.2578 7.30427 24.4277C6.17112 24.5895 5.04851 25.1772 4.14337 26.0824C2.28797 27.9379 1.90927 30.5967 3.25167 32.1059H0.527344C0.387483 32.1059 0.253352 32.1615 0.154455 32.2604C0.0555593 32.3593 0 32.4934 0 32.6333L0 35.4739C0 35.6138 0.0555593 35.7479 0.154455 35.8468C0.253352 35.9457 0.387483 36.0012 0.527344 36.0012H2.68031C2.82017 36.0012 2.9543 35.9457 3.0532 35.8468C3.1521 35.7479 3.20766 35.6138 3.20766 35.4739C3.20766 35.334 3.1521 35.1999 3.0532 35.101C2.9543 35.0021 2.82017 34.9466 2.68031 34.9466H1.05469V33.1606H34.9453V34.9466H5.14125C5.00139 34.9466 4.86726 35.0021 4.76836 35.101C4.66947 35.1999 4.61391 35.334 4.61391 35.4739C4.61391 35.6138 4.66947 35.7479 4.76836 35.8468C4.86726 35.9457 5.00139 36.0012 5.14125 36.0012H35.4727C35.6125 36.0012 35.7467 35.9457 35.8455 35.8468C35.9444 35.7479 36 35.6138 36 35.4739V32.6333C36 32.4934 35.9444 32.3593 35.8455 32.2604C35.7467 32.1615 35.6125 32.1059 35.4727 32.1059ZM19.7754 26.8283C20.6854 25.9183 21.8141 25.4334 22.8003 25.4334C23.4371 25.4334 24.0145 25.6356 24.4349 26.0561C25.5066 27.1279 25.1602 29.2181 23.6628 30.7157C22.9179 31.4606 22.0072 31.9423 21.0985 32.0721C20.9361 32.0953 20.7792 32.1064 20.6249 32.106C19.9719 32.1044 19.407 31.8916 19.0032 31.4878C18.5047 30.9893 18.2971 30.2452 18.419 29.3926C18.5489 28.4838 19.0306 27.5731 19.7754 26.8283ZM12.3372 26.8283C13.0821 26.0834 13.9928 25.6017 14.9015 25.4718C15.0558 25.4495 15.2115 25.4381 15.3674 25.4378C16.0237 25.4378 16.5914 25.6508 16.9967 26.056C17.4952 26.5546 17.7028 27.2987 17.5809 28.1513C17.4511 29.06 16.9694 29.9707 16.2245 30.7156C15.36 31.5801 14.2981 32.0601 13.3485 32.1059H13.0534C12.4748 32.077 11.953 31.8757 11.5649 31.4877C10.4932 30.416 10.8397 28.3258 12.3372 26.8283ZM4.11694 31.4878C3.04516 30.416 3.39159 28.3258 4.88911 26.8283C5.634 26.0834 6.54469 25.6017 7.45341 25.4718C7.60773 25.4495 7.76344 25.4381 7.91937 25.4378C8.57566 25.4378 9.14337 25.6508 9.54865 26.056C10.0472 26.5546 10.2547 27.2987 10.1329 28.1513C10.0031 29.06 9.52137 29.9707 8.77648 30.7156C7.91191 31.5801 6.85005 32.0601 5.90041 32.1059H5.60538C5.02685 32.077 4.50499 31.8758 4.11694 31.4878Z" fill="#086965" fill-opacity="0.8"/>
<path d="M20.3498 30.4756C20.419 30.4757 20.4876 30.4621 20.5516 30.4356C20.6156 30.409 20.6737 30.3701 20.7226 30.3211C20.7774 30.2663 20.7902 30.2632 20.8897 30.2388C21.0485 30.1999 21.2885 30.1412 21.5519 29.8779C21.8153 29.6145 21.8741 29.3745 21.913 29.2157C21.9374 29.1161 21.9405 29.1033 21.9953 29.0484C22.0501 28.9937 22.0629 28.9906 22.1624 28.9662C22.3212 28.9273 22.5612 28.8686 22.8246 28.6053C23.088 28.3419 23.1468 28.1018 23.1857 27.943C23.2102 27.8433 23.2133 27.8304 23.2682 27.7755C23.3671 27.6766 23.4227 27.5425 23.4227 27.4026C23.4227 27.2628 23.3671 27.1287 23.2682 27.0298C23.1693 26.9309 23.0352 26.8753 22.8954 26.8753C22.7555 26.8753 22.6214 26.9309 22.5225 27.0298C22.2591 27.2932 22.2003 27.5332 22.1614 27.692C22.1369 27.7917 22.1338 27.8045 22.0788 27.8595C22.0241 27.9143 22.0113 27.9175 21.9118 27.9418C21.7529 27.9807 21.513 28.0394 21.2496 28.3027C20.9862 28.5661 20.9275 28.8061 20.8886 28.9649C20.8642 29.0645 20.861 29.0773 20.8063 29.1322C20.7515 29.187 20.7387 29.19 20.6392 29.2144C20.4804 29.2533 20.2404 29.312 19.977 29.5754C19.8781 29.6743 19.8225 29.8084 19.8225 29.9482C19.8225 30.0881 19.8781 30.2222 19.977 30.3211C20.0259 30.3701 20.084 30.409 20.148 30.4355C20.2119 30.4621 20.2805 30.4757 20.3498 30.4756ZM27.4249 30.3211C27.5278 30.424 27.6628 30.4756 27.7978 30.4756C27.9327 30.4756 28.0677 30.4241 28.1706 30.3211C28.2254 30.2663 28.2382 30.2632 28.3377 30.2388C28.4965 30.1999 28.7365 30.1412 28.9999 29.8779C29.2633 29.6145 29.3221 29.3745 29.361 29.2157C29.3854 29.1161 29.3885 29.1033 29.4433 29.0484C29.4981 28.9937 29.5109 28.9906 29.6104 28.9662C29.7692 28.9273 30.0092 28.8686 30.2726 28.6053C30.536 28.3419 30.5948 28.1018 30.6337 27.943C30.6582 27.8433 30.6612 27.8304 30.7162 27.7755C30.8151 27.6766 30.8707 27.5425 30.8707 27.4026C30.8707 27.2628 30.8151 27.1287 30.7162 27.0298C30.6173 26.9309 30.4832 26.8753 30.3434 26.8753C30.2035 26.8753 30.0694 26.9309 29.9705 27.0298C29.7071 27.2932 29.6483 27.5332 29.6094 27.692C29.5849 27.7917 29.5818 27.8045 29.5268 27.8595C29.4721 27.9143 29.4593 27.9175 29.3598 27.9418C29.2009 27.9807 28.961 28.0394 28.6976 28.3027C28.4342 28.5661 28.3755 28.8061 28.3366 28.9649C28.3122 29.0645 28.309 29.0773 28.2542 29.1322C28.1995 29.187 28.1867 29.19 28.0872 29.2144C27.9283 29.2533 27.6884 29.312 27.425 29.5754C27.376 29.6243 27.3371 29.6824 27.3106 29.7464C27.2841 29.8104 27.2705 29.879 27.2704 29.9482C27.2704 30.0175 27.2841 30.086 27.3106 30.15C27.3371 30.214 27.3759 30.2721 27.4249 30.3211ZM6.00343 30.2388C6.16227 30.1999 6.40224 30.1412 6.66563 29.8779C6.92902 29.6146 6.98781 29.3745 7.02669 29.2157C7.05109 29.1161 7.05425 29.1033 7.1091 29.0484C7.16387 28.9937 7.17667 28.9906 7.27616 28.9662C7.43499 28.9273 7.67504 28.8686 7.93836 28.6053C8.20182 28.3418 8.2606 28.1018 8.29949 27.943C8.32395 27.8433 8.32705 27.8304 8.38203 27.7755C8.47868 27.6761 8.53233 27.5427 8.53137 27.4041C8.53041 27.2655 8.47492 27.1328 8.37691 27.0348C8.27889 26.9368 8.14623 26.8813 8.00762 26.8804C7.86901 26.8794 7.73559 26.933 7.63623 27.0297C7.37284 27.2931 7.31406 27.5331 7.27517 27.692C7.2507 27.7917 7.24761 27.8045 7.19263 27.8595C7.13785 27.9142 7.12506 27.9174 7.02556 27.9417C6.86673 27.9806 6.62675 28.0393 6.36343 28.3026C6.10004 28.566 6.04126 28.8061 6.00238 28.9649C5.97798 29.0645 5.97488 29.0773 5.92004 29.1322C5.86527 29.187 5.85247 29.19 5.75298 29.2144C5.59414 29.2533 5.35417 29.312 5.09077 29.5754C5.01703 29.6491 4.96682 29.7431 4.94647 29.8454C4.92613 29.9476 4.93657 30.0537 4.97648 30.15C5.01639 30.2464 5.08397 30.3287 5.17069 30.3867C5.2574 30.4446 5.35935 30.4756 5.46364 30.4756C5.53291 30.4757 5.60151 30.4621 5.6655 30.4356C5.72949 30.409 5.78761 30.3701 5.83651 30.3211C5.89114 30.2663 5.90394 30.2632 6.00343 30.2388ZM12.9115 30.4756C12.9808 30.4757 13.0494 30.4621 13.1133 30.4356C13.1773 30.409 13.2355 30.3701 13.2844 30.3211C13.3391 30.2663 13.3519 30.2632 13.4514 30.2388C13.6103 30.1999 13.8502 30.1412 14.1136 29.8779C14.377 29.6146 14.4358 29.3745 14.4747 29.2157C14.4991 29.1161 14.5022 29.1033 14.5571 29.0484C14.6119 28.9937 14.6247 28.9906 14.7241 28.9662C14.883 28.9273 15.123 28.8686 15.3864 28.6052C15.6497 28.3418 15.7086 28.1018 15.7475 27.943C15.7719 27.8433 15.775 27.8304 15.83 27.7755C15.9267 27.6761 15.9803 27.5427 15.9794 27.4041C15.9784 27.2655 15.9229 27.1328 15.8249 27.0348C15.7269 26.9368 15.5942 26.8813 15.4556 26.8804C15.317 26.8794 15.1836 26.933 15.0842 27.0297C14.8208 27.2931 14.762 27.5331 14.7231 27.692C14.6987 27.7917 14.6955 27.8045 14.6405 27.8595C14.5858 27.9142 14.573 27.9174 14.4735 27.9417C14.3146 27.9806 14.0747 28.0393 13.8114 28.3026C13.548 28.566 13.4892 28.8061 13.4503 28.9649C13.4259 29.0645 13.4228 29.0773 13.368 29.1322C13.3132 29.187 13.3004 29.19 13.2009 29.2144C13.0421 29.2533 12.8021 29.312 12.5387 29.5754C12.465 29.6491 12.4147 29.7431 12.3944 29.8453C12.374 29.9476 12.3845 30.0536 12.4244 30.15C12.4643 30.2463 12.5319 30.3287 12.6186 30.3867C12.7053 30.4446 12.8072 30.4755 12.9115 30.4756ZM35.4727 0.0012207H31.069C30.9291 0.0012207 30.795 0.05678 30.6961 0.155676C30.5972 0.254572 30.5416 0.388704 30.5416 0.528564V1.2795H24.6284C24.4885 1.2795 24.3544 1.33506 24.2555 1.43396C24.1566 1.53285 24.101 1.66699 24.101 1.80685C24.101 1.94671 24.1566 2.08084 24.2555 2.17973C24.3544 2.27863 24.4885 2.33419 24.6284 2.33419H30.5416V5.82542H20.2729C20.133 5.82542 19.9989 5.88098 19.9 5.97987C19.8011 6.07877 19.7455 6.2129 19.7455 6.35276V8.09827H16.2541V4.64817C16.2541 3.37228 17.2922 2.33419 18.5681 2.33419H22.1674C22.3073 2.33419 22.4414 2.27863 22.5403 2.17973C22.6392 2.08084 22.6948 1.94671 22.6948 1.80685C22.6948 1.66699 22.6392 1.53285 22.5403 1.43396C22.4414 1.33506 22.3073 1.2795 22.1674 1.2795H18.5681C16.7106 1.2795 15.1995 2.79066 15.1995 4.64817V8.09834H13.7384C13.5985 8.09834 13.4644 8.1539 13.3655 8.25279C13.2666 8.35169 13.211 8.48582 13.211 8.62568V13.1714C13.211 13.3112 13.2666 13.4454 13.3655 13.5443C13.4644 13.6432 13.5985 13.6987 13.7384 13.6987H22.2616C22.4015 13.6987 22.5356 13.6432 22.6345 13.5443C22.7334 13.4454 22.789 13.3112 22.789 13.1714V8.62568C22.789 8.48582 22.7334 8.35169 22.6345 8.25279C22.5356 8.1539 22.4015 8.09834 22.2616 8.09834H20.8002V6.8801H30.5416V7.63125C30.5416 7.77111 30.5972 7.90524 30.6961 8.00414C30.795 8.10304 30.9291 8.1586 31.069 8.1586H35.4727C35.6125 8.1586 35.7467 8.10304 35.8456 8.00414C35.9444 7.90524 36 7.77111 36 7.63125V0.528564C36 0.388704 35.9444 0.254572 35.8456 0.155676C35.7467 0.05678 35.6125 0.0012207 35.4727 0.0012207ZM21.7343 12.644H14.2657V9.15302H21.7343V12.644ZM34.9453 7.10391H31.5963V1.05591H34.9453V7.10391ZM12.4139 16.3747C12.551 16.4023 12.6934 16.3744 12.81 16.2971C12.9265 16.2197 13.0075 16.0993 13.0353 15.9622L13.1188 15.5487C13.1465 15.4116 13.1187 15.2691 13.0413 15.1526C12.964 15.0361 12.8435 14.9551 12.7064 14.9274C12.5693 14.8997 12.4268 14.9276 12.3103 15.0049C12.1938 15.0823 12.1127 15.2027 12.085 15.3398L12.0015 15.7533C11.9738 15.8904 12.0017 16.0329 12.079 16.1494C12.1564 16.2659 12.2768 16.347 12.4139 16.3747ZM11.4742 21.0233C11.6113 21.051 11.7537 21.0231 11.8703 20.9457C11.9868 20.8684 12.0678 20.7479 12.0956 20.6109L12.2365 19.9136C12.2642 19.7765 12.2363 19.634 12.159 19.5175C12.0816 19.401 11.9611 19.3199 11.824 19.2922C11.6869 19.2645 11.5445 19.2924 11.4279 19.3698C11.3114 19.4471 11.2304 19.5676 11.2027 19.7047L11.0618 20.402C11.0341 20.5391 11.062 20.6815 11.1393 20.798C11.2166 20.9146 11.3371 20.9956 11.4742 21.0233ZM11.944 18.6989C12.0811 18.7266 12.2235 18.6987 12.34 18.6214C12.4566 18.544 12.5376 18.4236 12.5653 18.2866L12.7063 17.5893C12.72 17.5214 12.7203 17.4515 12.707 17.3835C12.6937 17.3155 12.6671 17.2509 12.6288 17.1932C12.5905 17.1355 12.5413 17.0859 12.4838 17.0472C12.4263 17.0086 12.3618 16.9816 12.2939 16.9679C12.2261 16.9542 12.1561 16.9539 12.0882 16.9672C12.0202 16.9805 11.9555 17.0071 11.8978 17.0454C11.8401 17.0837 11.7905 17.133 11.7519 17.1904C11.7132 17.2479 11.6863 17.3124 11.6726 17.3803L11.5316 18.0776C11.5039 18.2147 11.5318 18.3571 11.6091 18.4737C11.6865 18.5902 11.8069 18.6712 11.944 18.6989ZM11.0617 23.0639C11.1988 23.0915 11.3413 23.0636 11.4578 22.9863C11.5743 22.9089 11.6554 22.7885 11.6831 22.6514L11.7667 22.2379C11.7944 22.1008 11.7665 21.9583 11.6891 21.8418C11.6118 21.7253 11.4913 21.6443 11.3542 21.6165C11.2171 21.5888 11.0746 21.6167 10.9581 21.6941C10.8416 21.7714 10.7606 21.8919 10.7329 22.029L10.6493 22.4425C10.6216 22.5796 10.6495 22.7221 10.7268 22.8386C10.8042 22.9551 10.9246 23.0361 11.0617 23.0639ZM16.3958 16.3913C16.5264 16.3912 16.6523 16.3425 16.7491 16.2549C16.8459 16.1672 16.9068 16.0468 16.9199 15.9168L16.9621 15.497C16.9691 15.4281 16.9624 15.3585 16.9424 15.2922C16.9224 15.2259 16.8896 15.1642 16.8458 15.1105C16.802 15.0569 16.748 15.0124 16.687 14.9797C16.626 14.9469 16.5592 14.9264 16.4903 14.9195C16.4214 14.9126 16.3518 14.9193 16.2854 14.9392C16.2191 14.9592 16.1574 14.992 16.1038 15.0358C16.0501 15.0796 16.0057 15.1336 15.9729 15.1946C15.9401 15.2556 15.9197 15.3225 15.9127 15.3914L15.8705 15.8111C15.8631 15.8845 15.8711 15.9586 15.8942 16.0287C15.9172 16.0988 15.9547 16.1632 16.0042 16.2179C16.0537 16.2726 16.1141 16.3163 16.1816 16.3462C16.249 16.376 16.322 16.3914 16.3958 16.3913ZM15.4733 19.7547L15.4032 20.4506C15.3962 20.5195 15.4029 20.5891 15.4229 20.6554C15.4428 20.7217 15.4757 20.7834 15.5195 20.8371C15.5633 20.8907 15.6172 20.9352 15.6782 20.9679C15.7393 21.0007 15.8061 21.0212 15.875 21.0281C15.9439 21.035 16.0135 21.0283 16.0798 21.0084C16.1462 20.9884 16.2079 20.9556 16.2615 20.9118C16.3152 20.868 16.3596 20.814 16.3924 20.753C16.4252 20.692 16.4456 20.6251 16.4526 20.5562L16.5227 19.8604C16.5367 19.7212 16.4948 19.5822 16.4064 19.4739C16.3625 19.4202 16.3086 19.3757 16.2476 19.343C16.1866 19.3102 16.1197 19.2897 16.0508 19.2828C15.9819 19.2759 15.9123 19.2826 15.846 19.3025C15.7797 19.3225 15.7179 19.3553 15.6643 19.3991C15.556 19.4876 15.4873 19.6155 15.4733 19.7547ZM15.7069 17.4349L15.6368 18.1308C15.6299 18.1997 15.6366 18.2693 15.6565 18.3356C15.6765 18.4019 15.7093 18.4637 15.7531 18.5173C15.7969 18.5709 15.8509 18.6154 15.9119 18.6482C15.9729 18.681 16.0398 18.7014 16.1087 18.7084C16.1776 18.7153 16.2472 18.7086 16.3135 18.6886C16.3798 18.6687 16.4415 18.6359 16.4952 18.592C16.5488 18.5482 16.5933 18.4943 16.6261 18.4333C16.6588 18.3723 16.6793 18.3054 16.6862 18.2365L16.7563 17.5406C16.7633 17.4717 16.7566 17.4021 16.7366 17.3358C16.7166 17.2695 16.6838 17.2077 16.64 17.1541C16.5962 17.1005 16.5422 17.056 16.4812 17.0232C16.4202 16.9904 16.3534 16.97 16.2845 16.9631C16.2155 16.9561 16.146 16.9628 16.0796 16.9828C16.0133 17.0027 15.9516 17.0356 15.898 17.0794C15.8443 17.1232 15.7998 17.1771 15.7671 17.2381C15.7343 17.2992 15.7138 17.366 15.7069 17.4349ZM15.2397 22.0744L15.1974 22.4941C15.1898 22.5633 15.196 22.6333 15.2157 22.7001C15.2353 22.7669 15.268 22.8291 15.3118 22.8832C15.3557 22.9373 15.4098 22.9822 15.471 23.0153C15.5323 23.0484 15.5995 23.069 15.6687 23.076C15.738 23.0829 15.808 23.0761 15.8746 23.0559C15.9412 23.0357 16.0032 23.0025 16.0569 22.9583C16.1106 22.914 16.1551 22.8595 16.1876 22.798C16.2202 22.7365 16.2403 22.6691 16.2467 22.5998L16.289 22.18C16.2966 22.1108 16.2903 22.0408 16.2707 21.974C16.251 21.9072 16.2184 21.845 16.1745 21.7909C16.1307 21.7368 16.0766 21.6919 16.0154 21.6589C15.9541 21.6258 15.8869 21.6052 15.8176 21.5982C15.7484 21.5912 15.6784 21.598 15.6118 21.6182C15.5452 21.6384 15.4832 21.6716 15.4295 21.7159C15.3757 21.7601 15.3313 21.8146 15.2987 21.8761C15.2662 21.9377 15.2461 22.005 15.2397 22.0744ZM20.0873 15.3914C20.0733 15.2523 20.0046 15.1244 19.8963 15.0359C19.7879 14.9474 19.6489 14.9056 19.5098 14.9196C19.3706 14.9336 19.2427 15.0023 19.1542 15.1106C19.0657 15.2189 19.0239 15.358 19.0379 15.4971L19.0801 15.9169C19.0942 16.056 19.1629 16.1839 19.2712 16.2724C19.3795 16.3609 19.5185 16.4028 19.6577 16.3887C19.7969 16.3747 19.9247 16.306 20.0132 16.1977C20.1017 16.0894 20.1436 15.9504 20.1296 15.8112L20.0873 15.3914ZM20.2931 17.4349C20.2791 17.2958 20.2104 17.1679 20.1021 17.0794C19.9938 16.9909 19.8547 16.949 19.7156 16.9631C19.5764 16.9771 19.4485 17.0458 19.36 17.1541C19.2715 17.2624 19.2297 17.4014 19.2437 17.5406L19.3138 18.2365C19.3296 18.3742 19.399 18.5001 19.507 18.587C19.6149 18.6739 19.7527 18.7148 19.8906 18.701C20.0285 18.6871 20.1554 18.6195 20.2438 18.5128C20.3322 18.4061 20.3751 18.2689 20.3632 18.1308L20.2931 17.4349ZM20.5268 19.7547C20.5198 19.6858 20.4994 19.6189 20.4666 19.5579C20.4338 19.4969 20.3893 19.4429 20.3357 19.3991C20.2821 19.3553 20.2203 19.3225 20.154 19.3025C20.0877 19.2826 20.0181 19.2759 19.9492 19.2828C19.8803 19.2897 19.8134 19.3102 19.7524 19.343C19.6914 19.3757 19.6375 19.4202 19.5937 19.4739C19.5498 19.5275 19.517 19.5892 19.4971 19.6555C19.4771 19.7218 19.4704 19.7914 19.4773 19.8604L19.5474 20.5562C19.5615 20.6954 19.6302 20.8233 19.7385 20.9118C19.7921 20.9556 19.8539 20.9884 19.9202 21.0084C19.9865 21.0283 20.0561 21.035 20.125 21.0281C20.1939 21.0212 20.2608 21.0007 20.3218 20.9679C20.3828 20.9352 20.4367 20.8907 20.4805 20.8371C20.5244 20.7834 20.5572 20.7217 20.5771 20.6554C20.5971 20.5891 20.6038 20.5195 20.5969 20.4506L20.5268 19.7547ZM20.1828 21.6025C20.0436 21.6165 19.9158 21.6852 19.8273 21.7936C19.7388 21.9019 19.697 22.0409 19.711 22.18L19.7533 22.5998C19.7673 22.739 19.8361 22.8668 19.9444 22.9553C20.0527 23.0438 20.1917 23.0857 20.3309 23.0717C20.47 23.0576 20.5979 22.9889 20.6864 22.8806C20.7749 22.7723 20.8167 22.6333 20.8027 22.4941L20.7603 22.0744C20.7312 21.7845 20.4717 21.5738 20.1828 21.6025ZM23.915 15.3398C23.9013 15.2719 23.8743 15.2074 23.8357 15.1499C23.797 15.0924 23.7474 15.0431 23.6897 15.0048C23.632 14.9665 23.5673 14.94 23.4994 14.9267C23.4314 14.9134 23.3615 14.9136 23.2936 14.9273C23.2257 14.941 23.1612 14.968 23.1038 15.0066C23.0463 15.0453 22.997 15.0949 22.9587 15.1526C22.9204 15.2103 22.8939 15.2749 22.8805 15.3429C22.8672 15.4109 22.8675 15.4808 22.8812 15.5487L22.9647 15.9622C22.9925 16.0992 23.0735 16.2197 23.19 16.297C23.3066 16.3744 23.449 16.4023 23.5861 16.3746C23.654 16.3609 23.7185 16.3339 23.776 16.2953C23.8335 16.2566 23.8827 16.2071 23.921 16.1494C23.9593 16.0917 23.9859 16.027 23.9992 15.959C24.0125 15.8911 24.0123 15.8211 23.9986 15.7533L23.915 15.3398ZM24.7973 19.7047C24.7696 19.5676 24.6886 19.4471 24.5721 19.3698C24.4555 19.2924 24.3131 19.2645 24.176 19.2922C24.0389 19.3199 23.9184 19.401 23.8411 19.5175C23.7637 19.634 23.7358 19.7765 23.7635 19.9136L23.9044 20.6109C23.9322 20.7479 24.0132 20.8684 24.1298 20.9457C24.2463 21.0231 24.3888 21.051 24.5259 21.0233C24.5937 21.0096 24.6582 20.9827 24.7157 20.944C24.7732 20.9054 24.8225 20.8558 24.8608 20.7981C24.8991 20.7404 24.9256 20.6757 24.9389 20.6077C24.9522 20.5398 24.952 20.4699 24.9383 20.402L24.7973 19.7047ZM24.3274 17.3803C24.3137 17.3124 24.2868 17.2479 24.2482 17.1904C24.2095 17.1329 24.1599 17.0836 24.1022 17.0453C24.0445 17.007 23.9798 16.9804 23.9119 16.9672C23.8439 16.9539 23.774 16.9541 23.7061 16.9679C23.569 16.9956 23.4485 17.0767 23.3712 17.1932C23.2939 17.3097 23.266 17.4522 23.2937 17.5893L23.4347 18.2866C23.4479 18.3549 23.4745 18.42 23.5129 18.4781C23.5514 18.5362 23.601 18.586 23.6589 18.6248C23.7167 18.6636 23.7817 18.6905 23.85 18.704C23.9184 18.7176 23.9887 18.7174 24.057 18.7036C24.1252 18.6898 24.1901 18.6626 24.2478 18.6236C24.3055 18.5846 24.3549 18.5346 24.3932 18.4764C24.4314 18.4182 24.4578 18.3529 24.4707 18.2845C24.4836 18.2161 24.4828 18.1457 24.4684 18.0776L24.3274 17.3803ZM24.6458 21.6165C24.5779 21.6303 24.5134 21.6572 24.4559 21.6959C24.3985 21.7345 24.3492 21.7841 24.3109 21.8418C24.2726 21.8995 24.246 21.9642 24.2327 22.0321C24.2194 22.1001 24.2196 22.17 24.2334 22.2379L24.3169 22.6514C24.3446 22.7885 24.4257 22.9089 24.5422 22.9863C24.6587 23.0636 24.8012 23.0915 24.9383 23.0639C25.0062 23.0501 25.0707 23.0232 25.1282 22.9845C25.1856 22.9459 25.2349 22.8963 25.2732 22.8386C25.3115 22.7809 25.3381 22.7162 25.3514 22.6483C25.3647 22.5803 25.3645 22.5104 25.3508 22.4425L25.2672 22.029C25.2395 21.8919 25.1584 21.7715 25.0419 21.6941C24.9254 21.6168 24.7829 21.5889 24.6458 21.6165Z" fill="#086965" fill-opacity="0.8"/>
</svg>
