<svg width="38" height="40" viewBox="0 0 38 40" fill="none" xmlns="http://www.w3.org/2000/svg">
<path d="M26.9167 32.5012C26.0427 32.5012 25.3333 33.2292 25.3333 34.1262V37.3762C25.3333 38.2732 26.0427 39.0012 26.9167 39.0012C27.7907 39.0012 28.5 38.2732 28.5 37.3762V34.1262C28.5 33.2292 27.7907 32.5012 26.9167 32.5012ZM15.8333 32.5012C14.9593 32.5012 14.25 33.2292 14.25 34.1262V37.3762C14.25 38.2732 14.9593 39.0012 15.8333 39.0012C16.7073 39.0012 17.4167 38.2732 17.4167 37.3762V34.1262C17.4167 33.2292 16.7073 32.5012 15.8333 32.5012ZM27.7083 7.07728C27.2808 7.07728 26.8541 7.1041 26.4322 7.15691C25.095 2.97985 21.1415 0.0012207 16.625 0.0012207C10.9503 0.0012207 6.33333 4.60972 6.33333 10.2753C6.33333 10.3671 6.33413 10.4581 6.3365 10.5491C2.6315 11.5785 0 14.9374 0 18.9252C0 23.723 3.90688 27.6262 8.70833 27.6262V30.0637C8.70833 30.9607 9.41767 31.6887 10.2917 31.6887C11.1657 31.6887 11.875 30.9607 11.875 30.0637V27.6262H19.7917V30.0637C19.7917 30.9607 20.501 31.6887 21.375 31.6887C22.249 31.6887 22.9583 30.9607 22.9583 30.0637V27.6262H27.7083C33.383 27.6262 38 23.0177 38 17.3522C38 11.6866 33.383 7.07728 27.7083 7.07728ZM27.7083 24.3762H8.70833C5.65329 24.3762 3.16667 21.9306 3.16667 18.9252C3.16667 16.0863 5.33188 13.7528 8.20325 13.4985C8.42585 13.4788 8.64188 13.411 8.83714 13.2995C9.03239 13.1881 9.20245 13.0355 9.33613 12.8517C9.47004 12.6681 9.56442 12.4575 9.61301 12.2336C9.66159 12.0098 9.66328 11.7779 9.61796 11.5533C9.53879 11.1536 9.5 10.7352 9.5 10.2753C9.5 6.4021 12.696 3.25122 16.625 3.25122C20.1598 3.25122 23.1927 5.84716 23.6788 9.28972C23.7113 9.51923 23.7914 9.73895 23.9134 9.93414C24.0355 10.1293 24.1968 10.2955 24.3865 10.4215C24.5763 10.5473 24.7902 10.63 25.0137 10.6641C25.2372 10.6981 25.4652 10.6827 25.6825 10.619C26.3415 10.4255 27.0237 10.3276 27.7091 10.3281C31.6382 10.3281 34.8341 13.479 34.8341 17.353C34.8341 21.227 31.6374 24.3762 27.7083 24.3762Z" fill="#086965"/>
</svg>
