<svg width="51" height="51" viewBox="0 0 51 51" fill="none" xmlns="http://www.w3.org/2000/svg">
<g opacity="0.8">
<mask id="mask0_912_5428" style="mask-type:luminance" maskUnits="userSpaceOnUse" x="0" y="0" width="51" height="51">
<path d="M50 50V1H1V50H50Z" fill="white" stroke="white" stroke-width="2"/>
</mask>
<g mask="url(#mask0_912_5428)">
<path d="M11.9852 18.9256C11.8675 18.374 11.6882 17.8806 11.421 17.5011C10.172 15.7271 11.8634 12.5032 13.692 12.3616C14.344 12.3111 15.157 12.1022 16.0388 10.363C16.7408 8.97847 16.5444 10.9865 18.0382 8.74778C19.5872 6.42608 18.6092 5.70322 20.4773 5.15477C22.0979 4.67893 25.0617 3.85586 25.9891 3.0032C31.4627 -2.02996 34.1146 3.97788 31.8924 4.07191C29.1677 4.18736 25.5965 7.76642 25.9152 10.0028M31.2095 16.3141C31.8025 16.4398 32.5007 16.5476 33.3261 16.6331C34.5651 16.7613 35.6661 17.1666 36.9818 19.2174C37.3503 19.792 39.1349 19.6866 40.7006 19.8501C42.6689 20.0558 44.0486 21.4152 42.0764 24.356C41.1412 25.7505 43.4323 27.5602 42.4904 28.611C41.5195 29.694 44.6294 32.8433 42.8908 33.8742C40.8693 35.0728 39.615 31.5761 37.4664 32.8633C36.3821 33.5128 38.1075 34.7864 37.3406 36.2654C36.8947 37.1251 35.696 36.6077 35.2121 37.7869C34.8395 38.6945 35.4835 39.0405 35.8222 40.2775C36.3516 42.2117 35.578 42.375 35.3236 44.0973C34.9558 46.5865 36.2689 49.5667 33.8127 49.9836C31.3565 50.4003 33.2514 44.2703 29.1581 44.7488C28.2902 44.8502 24.7511 46.2415 24.3689 43.4708C24.2881 42.8839 22.7591 43.6273 22.8199 41.5822C22.8455 40.7213 21.6092 41.8688 21.3713 39.9226C21.2597 39.0111 15.3274 36.5425 14.9694 37.1576C13.7003 39.3381 11.5167 34.922 9.28709 35.0104C8.93029 35.0246 6.84945 33.1704 7.831 32.5752C8.87212 31.9438 6.66228 30.5519 9.82299 30.3641C10.8588 30.3025 11.6833 29.1963 12.0689 27.8904" stroke="#086965" stroke-width="2" stroke-miterlimit="22.926" stroke-linecap="round" stroke-linejoin="round"/>
<path d="M25.1289 25.1304C23.7242 25.1304 19.1523 20.0255 19.1523 16.0977C19.1523 12.8454 21.8532 10.0612 25.1289 10.0736C28.4048 10.0612 31.1055 12.8454 31.1055 16.0977C31.1055 20.0255 26.5337 25.1304 25.1289 25.1304Z" stroke="#086965" stroke-width="2" stroke-miterlimit="22.926" stroke-linecap="round" stroke-linejoin="round"/>
<path d="M25.1289 18.0897C26.2262 18.0897 27.1211 17.1948 27.1211 16.0975C27.1211 15.0002 26.2262 14.1053 25.1289 14.1053C24.0316 14.1053 23.1367 15.0002 23.1367 16.0975C23.1367 17.1948 24.0316 18.0897 25.1289 18.0897Z" stroke="#086965" stroke-width="2" stroke-miterlimit="22.926" stroke-linecap="round" stroke-linejoin="round"/>
<path d="M12.0918 23.4068V23.4083" stroke="#086965" stroke-width="2" stroke-miterlimit="2.613" stroke-linecap="round" stroke-linejoin="round"/>
</g>
</g>
</svg>
