<svg width="24" height="49" viewBox="0 0 24 49" fill="none" xmlns="http://www.w3.org/2000/svg">
<path d="M18.6671 28.2521V6.66703C18.6671 2.99147 15.6761 0.0012207 11.9998 0.0012207C8.32401 0.0012207 5.33357 2.99147 5.33357 6.66703V28.2519C2.6027 30.3321 0.994385 33.5451 0.994385 36.9957C0.994385 43.0642 5.9312 48.0012 11.9998 48.0012C18.0687 48.0012 23.0059 43.0642 23.0059 36.9957C23.0059 33.5455 21.3976 30.3325 18.6671 28.2521ZM11.9998 45.1234C7.51822 45.1234 3.87221 41.4774 3.87221 36.9957C3.87221 34.2533 5.25126 31.7125 7.5612 30.1992C7.76094 30.0683 7.92498 29.8897 8.03852 29.6796C8.15206 29.4695 8.21153 29.2345 8.21159 28.9957V6.66703C8.21159 4.5783 9.91104 2.87905 12 2.87905C14.0896 2.87905 15.7895 4.5783 15.7895 6.66703V28.9957C15.7895 29.2345 15.8489 29.4696 15.9625 29.6797C16.076 29.8898 16.2401 30.0683 16.4399 30.1992C18.7494 31.7127 20.1285 34.2535 20.1285 36.9957C20.1281 41.4774 16.4817 45.1234 11.9998 45.1234Z" fill="#086965" fill-opacity="0.8"/>
<path d="M13.4391 32.4327V13.4165C13.4391 12.6218 12.795 11.9775 12.0001 11.9775C11.2053 11.9775 10.5612 12.6218 10.5612 13.4165V32.4327C8.62273 33.0434 7.2172 34.8543 7.2172 36.9956C7.2172 39.6369 9.3583 41.7788 12.0001 41.7788C14.6426 41.7788 16.7835 39.6369 16.7835 36.9956C16.7833 34.8541 15.3778 33.043 13.4391 32.4327Z" fill="#086965" fill-opacity="0.8"/>
</svg>
