<svg width="49" height="36" viewBox="0 0 49 36" fill="none" xmlns="http://www.w3.org/2000/svg">
<path d="M48.0971 34.1719H46.8314V33.8766C46.8314 31.5141 44.933 29.6156 42.5705 29.6156C42.4439 29.6156 42.3174 29.6156 42.1908 29.6578C41.9799 29.1094 41.7267 28.6453 41.4314 28.1813C44.7642 27.7172 47.2955 24.8906 47.2955 21.4313C47.2955 14.1328 44.8908 0 40.5033 0C38.3517 0 36.7064 3.375 35.5252 7.67813L28.5642 3.33281C28.3111 3.16406 27.9736 3.16406 27.6783 3.33281L16.3721 10.125L13.208 8.31094C12.9549 8.14219 12.6174 8.14219 12.3642 8.31094L0.425188 15.3141C0.00331265 15.5672 -0.12325 16.0734 0.129875 16.4531C0.383 16.875 0.88925 17.0016 1.26894 16.7484L3.80019 15.2719V34.1719H0.847063C0.383 34.1719 0.00331265 34.5516 0.00331265 35.0156C0.00331265 35.4797 0.383 35.8594 0.847063 35.8594H48.0971C48.5611 35.8594 48.9408 35.4797 48.9408 35.0156C48.9408 34.5516 48.5611 34.1719 48.0971 34.1719ZM42.6127 31.3031C44.0049 31.3031 45.1861 32.4422 45.1861 33.8766V34.1719H32.0236C32.6564 33.0328 32.9939 31.7672 32.9939 30.4594C32.9939 29.6156 32.8674 28.8141 32.6143 28.0547C33.5424 27.2953 34.6393 26.9156 35.8205 26.9156C37.9721 26.9156 39.8283 28.2234 40.5877 30.1641C40.2502 30.375 39.9127 30.5859 39.6174 30.8812C39.2799 31.2187 39.2799 31.725 39.6174 32.0625C39.7861 32.2313 39.9971 32.3156 40.208 32.3156C40.4189 32.3156 40.6299 32.2313 40.7986 32.0625C41.5158 31.4297 42.3596 31.3031 42.6127 31.3031ZM40.5033 1.6875C41.0939 1.6875 42.5283 3.07969 43.9205 8.4375C44.9752 12.4875 45.6502 17.5922 45.6502 21.4734C45.6502 24.0047 43.7939 26.1141 41.3892 26.5359V19.7438L44.5111 16.6219C44.8486 16.2844 44.8486 15.7781 44.5111 15.4406C44.1736 15.1031 43.6674 15.1031 43.3299 15.4406L41.3892 17.3813V11.8125C41.3892 11.3484 41.0096 10.9688 40.5455 10.9688C40.0814 10.9688 39.7017 11.3484 39.7017 11.8125V20.2922L37.7611 18.3516C37.4236 18.0141 36.9174 18.0141 36.5799 18.3516C36.2424 18.6891 36.2424 19.1953 36.5799 19.5328L39.7017 22.6547V26.325C38.9846 25.8188 38.1408 25.4391 37.2127 25.2703C36.1158 24.3422 35.3986 22.95 35.3986 21.3891C35.3986 17.5078 36.0736 12.4031 37.1283 8.35312C38.4783 3.07969 39.9549 1.6875 40.5033 1.6875ZM28.1424 5.02031L35.1455 9.36563C34.2174 13.5 33.7111 18.1406 33.7111 21.4313C33.7111 22.8656 34.1752 24.1734 34.8924 25.2281C33.7955 25.3969 32.7408 25.7766 31.8549 26.4516C30.5049 24.2578 28.1002 22.7812 25.3158 22.7812C23.9236 22.7812 22.658 23.1609 21.5189 23.7938V15.0609L24.0502 16.5375V17.7188C24.0502 18.1828 24.4299 18.5625 24.8939 18.5625H31.6439C32.108 18.5625 32.4877 18.1828 32.4877 17.7188V10.9688C32.4877 10.5047 32.108 10.125 31.6439 10.125H24.8939C24.4299 10.125 24.0502 10.5047 24.0502 10.9688V14.5547L21.5189 13.0781V8.98594L28.1424 5.02031ZM30.8002 11.8125V13.5H29.1127V11.8125H30.8002ZM25.7377 16.875V15.1875H27.4252V16.875H25.7377ZM29.1127 15.1875H30.8002V16.875H29.1127V15.1875ZM27.4252 13.5H25.7377V11.8125H27.4252V13.5ZM19.8314 9.99844V12.1078L18.0174 11.0531L19.8314 9.99844ZM5.48769 14.2594L12.7861 9.99844L19.8314 14.0906V25.1016C19.1986 25.7344 18.6924 26.4938 18.3127 27.3797C18.2283 27.3797 17.8908 27.3375 17.7642 27.3375C14.4736 27.3375 11.8158 29.9953 11.8158 33.2859C11.8158 33.5813 11.858 33.8766 11.9002 34.1297H5.48769V14.2594ZM13.6299 34.1719C13.5455 33.8766 13.5033 33.5813 13.5033 33.3281C13.5033 30.9656 15.4017 29.0672 17.7642 29.0672C18.9455 29.0672 20.0846 29.5734 20.8861 30.4594C21.1814 30.7969 21.7299 30.8391 22.0674 30.5016C22.4049 30.2063 22.4471 29.6578 22.1096 29.3203C21.5189 28.6453 20.7596 28.1813 19.958 27.8438C20.9705 25.8187 22.9955 24.5109 25.3158 24.5109C26.4364 24.5096 27.5346 24.8252 28.4835 25.4214C29.4324 26.0175 30.1934 26.8698 30.6786 27.8799C31.1638 28.8901 31.3535 30.0168 31.2257 31.1302C31.0979 32.2435 30.6579 33.2979 29.9564 34.1719H16.7096H13.6299Z" fill="#086965"/>
<path d="M16.0347 24.4688C16.4987 24.4688 16.8784 24.0891 16.8784 23.625V16.875C16.8784 16.4109 16.4987 16.0312 16.0347 16.0312H9.28467C8.82061 16.0312 8.44092 16.4109 8.44092 16.875V23.625C8.44092 24.0891 8.82061 24.4688 9.28467 24.4688H16.0347ZM13.5034 22.7812V21.0938H15.1909V22.7812H13.5034ZM15.1909 19.4062H13.5034V17.7188H15.1909V19.4062ZM11.8159 17.7188V19.4062H10.1284V17.7188H11.8159ZM10.1284 21.0938H11.8159V22.7812H10.1284V21.0938Z" fill="#086965"/>
</svg>
