<svg width="35" height="34" viewBox="0 0 35 34" fill="none" xmlns="http://www.w3.org/2000/svg">
<path d="M28.0062 13.4386C29.5437 7.75112 26.0843 1.93862 20.2547 0.438621C14.425 -1.06138 8.53123 2.31362 6.99373 8.00112C6.48123 9.75112 6.48123 11.6261 6.99373 13.4386C1.42029 15.6261 -1.27034 21.8136 0.971852 27.2511C3.21404 32.6886 9.55623 35.3136 15.1297 33.0636C15.9625 32.7511 16.7312 32.3136 17.4359 31.8136C22.3047 35.2511 29.0953 34.2511 32.6187 29.5011C36.1422 24.7511 35.1172 18.1261 30.2484 14.6886C29.6078 14.1886 28.839 13.7511 28.0062 13.4386ZM7.8906 10.7511C7.8906 5.56362 12.1187 1.37612 17.4359 1.31362C22.7531 1.31362 27.0453 5.43862 27.1094 10.6261C27.1094 11.4386 26.9812 12.1886 26.789 13.0011C23.5859 12.1261 20.1265 12.7511 17.5 14.6261C14.8094 12.6886 11.414 12.0636 8.21091 13.0011C8.01873 12.2511 7.8906 11.5011 7.8906 10.7511ZM20.7031 23.2511C20.7031 25.9386 19.55 28.4386 17.5 30.1886C14.8094 27.8761 13.7203 24.3136 14.6172 20.9386C16.539 21.4386 18.525 21.4386 20.4468 20.9386C20.575 21.7511 20.7031 22.5011 20.7031 23.2511ZM17.5 20.1261C16.6672 20.1261 15.8344 20.0011 15.0015 19.8136C15.5781 18.5011 16.4109 17.2511 17.5 16.3136C18.589 17.2511 19.4859 18.5011 19.9984 19.8136C19.1656 20.0011 18.3328 20.1261 17.5 20.1261ZM13.7844 19.3761C11.414 18.3761 9.55623 16.5011 8.59529 14.1886C11.2859 13.4386 14.1687 13.9386 16.475 15.5011C15.3219 16.5636 14.3609 17.9386 13.7844 19.3761ZM18.525 15.5011C20.8312 13.9386 23.714 13.5011 26.4047 14.1886C25.4437 16.5011 23.5859 18.3761 21.2156 19.3761C20.639 17.9386 19.6781 16.5636 18.525 15.5011ZM11.0937 32.6261C5.77654 32.6261 1.48435 28.4386 1.48435 23.2511C1.48435 19.5011 3.7906 16.0636 7.3781 14.6261C8.46716 17.3136 10.6453 19.5011 13.4 20.5636C12.375 24.3136 13.5922 28.3761 16.539 31.0011C14.8734 32.0636 13.0156 32.6261 11.0937 32.6261ZM23.9062 32.6261C21.9844 32.6261 20.1265 32.0636 18.525 31.0011C21.4718 28.3761 22.689 24.3136 21.664 20.5636C24.4187 19.4386 26.5969 17.3136 27.6859 14.5636C32.5547 16.5636 34.8609 22.0636 32.8109 26.8136C31.2734 30.3761 27.75 32.6261 23.9062 32.6261Z" fill="#086965" fill-opacity="0.8"/>
</svg>
