<svg width="49" height="49" viewBox="0 0 49 49" fill="none" xmlns="http://www.w3.org/2000/svg">
<g opacity="0.8">
<path d="M18.7797 16.2314C18.7797 15.1 19.1152 13.994 19.7438 13.0533C20.3723 12.1126 21.2657 11.3794 22.311 10.9464C23.3563 10.5135 24.5064 10.4002 25.6161 10.6209C26.7257 10.8416 27.745 11.3864 28.545 12.1864C29.345 12.9865 29.8898 14.0057 30.1105 15.1154C30.3313 16.225 30.218 17.3752 29.785 18.4204C29.3521 19.4657 28.6189 20.3591 27.6782 20.9877C26.7374 21.6162 25.6315 21.9517 24.5001 21.9517C22.9835 21.9501 21.5294 21.3469 20.457 20.2745C19.3845 19.2021 18.7813 17.748 18.7797 16.2314ZM27.9236 16.2314C27.9236 15.5543 27.7228 14.8924 27.3466 14.3294C26.9704 13.7664 26.4358 13.3276 25.8102 13.0685C25.1846 12.8093 24.4963 12.7415 23.8322 12.8736C23.1681 13.0057 22.5581 13.3318 22.0793 13.8106C21.6005 14.2894 21.2745 14.8994 21.1424 15.5635C21.0103 16.2276 21.0781 16.9159 21.3372 17.5415C21.5963 18.167 22.0351 18.7017 22.5981 19.0779C23.1611 19.4541 23.823 19.6548 24.5001 19.6548C25.4077 19.6538 26.2779 19.2928 26.9197 18.651C27.5616 18.0092 27.9226 17.139 27.9236 16.2314Z" fill="#086965"/>
<path d="M1.96688 42.9718C1.97104 42.9526 1.97602 42.9336 1.98181 42.9148L6.13073 28.361C6.2388 27.912 6.49521 27.5126 6.85848 27.2274C7.22175 26.9422 7.67062 26.788 8.13246 26.7896H15.6888C13.3778 23.1785 11.4637 19.3427 11.4637 16.5409C11.4637 13.0835 12.8372 9.76766 15.2819 7.32288C17.7267 4.8781 21.0425 3.50464 24.5 3.50464C27.9574 3.50464 31.2733 4.8781 33.718 7.32288C36.1628 9.76766 37.5363 13.0835 37.5363 16.5409C37.5363 19.3427 35.6222 23.1785 33.3112 26.7896H40.8675C41.3294 26.788 41.7782 26.9422 42.1415 27.2274C42.5048 27.5126 42.7612 27.912 42.8692 28.361L47.0182 42.9133C47.0239 42.9316 47.0289 42.9516 47.0331 42.9703C47.1025 43.2725 47.1029 43.5864 47.0342 43.8887C46.9656 44.191 46.8296 44.474 46.6365 44.7165C46.4433 44.959 46.198 45.1548 45.9187 45.2894C45.6394 45.424 45.3334 45.4939 45.0233 45.4938H3.97664C3.66662 45.4939 3.36058 45.424 3.0813 45.2894C2.80201 45.1548 2.55666 44.959 2.36352 44.7165C2.17038 44.474 2.03442 44.191 1.96574 43.8887C1.89707 43.5864 1.89746 43.2725 1.96688 42.9703V42.9718ZM35.2394 16.5409C35.2394 13.6927 34.1079 10.961 32.0939 8.94702C30.0799 6.93298 27.3483 5.80151 24.5 5.80151C21.6517 5.80151 18.9201 6.93298 16.9061 8.94702C14.892 10.961 13.7606 13.6927 13.7606 16.5409C13.7606 21.1665 20.8564 30.4608 24.5 34.7437C28.144 30.4623 35.2394 21.1695 35.2394 16.5409ZM44.7125 43.1985L40.6891 29.0865H31.7715C29.7787 31.921 27.6381 34.6488 25.3586 37.2584C25.2509 37.3797 25.1187 37.4768 24.9707 37.5433C24.8227 37.6098 24.6622 37.6442 24.5 37.6442C24.3377 37.6442 24.1773 37.6098 24.0293 37.5433C23.8813 37.4768 23.7491 37.3797 23.6413 37.2584C21.3612 34.6488 19.22 31.9211 17.2266 29.0865H8.31046L4.28711 43.1985H44.7125Z" fill="#086965"/>
</g>
</svg>
